%TF.GenerationSoftware,KiCad,Pcbnew,8.0.7*%
%TF.CreationDate,2025-01-14T11:40:34+01:00*%
%TF.ProjectId,test,74657374-2e6b-4696-9361-645f70636258,rev?*%
%TF.SameCoordinates,PX517370cPY341b1c8*%
%TF.FileFunction,Copper,L4,Bot*%
%TF.FilePolarity,Positive*%
%FSLAX46Y46*%
G04 Gerber Fmt 4.6, Leading zero omitted, Abs format (unit mm)*
G04 Created by KiCad (PCBNEW 8.0.7) date 2025-01-14 11:40:34*
%MOMM*%
%LPD*%
G01*
G04 APERTURE LIST*
G04 Aperture macros list*
%AMRoundRect*
0 Rectangle with rounded corners*
0 $1 Rounding radius*
0 $2 $3 $4 $5 $6 $7 $8 $9 X,Y pos of 4 corners*
0 Add a 4 corners polygon primitive as box body*
4,1,4,$2,$3,$4,$5,$6,$7,$8,$9,$2,$3,0*
0 Add four circle primitives for the rounded corners*
1,1,$1+$1,$2,$3*
1,1,$1+$1,$4,$5*
1,1,$1+$1,$6,$7*
1,1,$1+$1,$8,$9*
0 Add four rect primitives between the rounded corners*
20,1,$1+$1,$2,$3,$4,$5,0*
20,1,$1+$1,$4,$5,$6,$7,0*
20,1,$1+$1,$6,$7,$8,$9,0*
20,1,$1+$1,$8,$9,$2,$3,0*%
%AMRotRect*
0 Rectangle, with rotation*
0 The origin of the aperture is its center*
0 $1 length*
0 $2 width*
0 $3 Rotation angle, in degrees counterclockwise*
0 Add horizontal line*
21,1,$1,$2,0,0,$3*%
%AMFreePoly0*
4,1,6,1.000000,0.000000,0.500000,-0.750000,-0.500000,-0.750000,-0.500000,0.750000,0.500000,0.750000,1.000000,0.000000,1.000000,0.000000,$1*%
%AMFreePoly1*
4,1,6,0.500000,-0.750000,-0.650000,-0.750000,-0.150000,0.000000,-0.650000,0.750000,0.500000,0.750000,0.500000,-0.750000,0.500000,-0.750000,$1*%
G04 Aperture macros list end*
%TA.AperFunction,ComponentPad*%
%ADD10C,1.803400*%
%TD*%
%TA.AperFunction,ComponentPad*%
%ADD11C,1.498600*%
%TD*%
%TA.AperFunction,ComponentPad*%
%ADD12O,1.000000X2.100000*%
%TD*%
%TA.AperFunction,ComponentPad*%
%ADD13O,1.000000X1.600000*%
%TD*%
%TA.AperFunction,SMDPad,CuDef*%
%ADD14RoundRect,0.250000X0.312500X0.625000X-0.312500X0.625000X-0.312500X-0.625000X0.312500X-0.625000X0*%
%TD*%
%TA.AperFunction,SMDPad,CuDef*%
%ADD15RoundRect,0.147500X-0.147500X-0.172500X0.147500X-0.172500X0.147500X0.172500X-0.147500X0.172500X0*%
%TD*%
%TA.AperFunction,SMDPad,CuDef*%
%ADD16C,0.787400*%
%TD*%
%TA.AperFunction,SMDPad,CuDef*%
%ADD17RoundRect,0.140000X-0.140000X-0.170000X0.140000X-0.170000X0.140000X0.170000X-0.140000X0.170000X0*%
%TD*%
%TA.AperFunction,SMDPad,CuDef*%
%ADD18RoundRect,0.237500X-0.237500X0.300000X-0.237500X-0.300000X0.237500X-0.300000X0.237500X0.300000X0*%
%TD*%
%TA.AperFunction,SMDPad,CuDef*%
%ADD19RoundRect,0.100000X-0.900000X0.900000X-0.900000X-0.900000X0.900000X-0.900000X0.900000X0.900000X0*%
%TD*%
%TA.AperFunction,SMDPad,CuDef*%
%ADD20FreePoly0,270.000000*%
%TD*%
%TA.AperFunction,SMDPad,CuDef*%
%ADD21FreePoly1,270.000000*%
%TD*%
%TA.AperFunction,SMDPad,CuDef*%
%ADD22RoundRect,0.237500X0.237500X-0.250000X0.237500X0.250000X-0.237500X0.250000X-0.237500X-0.250000X0*%
%TD*%
%TA.AperFunction,SMDPad,CuDef*%
%ADD23FreePoly0,210.000000*%
%TD*%
%TA.AperFunction,SMDPad,CuDef*%
%ADD24FreePoly1,210.000000*%
%TD*%
%TA.AperFunction,SMDPad,CuDef*%
%ADD25RoundRect,0.237500X0.237500X-0.300000X0.237500X0.300000X-0.237500X0.300000X-0.237500X-0.300000X0*%
%TD*%
%TA.AperFunction,SMDPad,CuDef*%
%ADD26RoundRect,0.237500X-0.141058X-0.355681X0.378558X-0.055681X0.141058X0.355681X-0.378558X0.055681X0*%
%TD*%
%TA.AperFunction,SMDPad,CuDef*%
%ADD27RoundRect,0.225000X-0.250000X0.225000X-0.250000X-0.225000X0.250000X-0.225000X0.250000X0.225000X0*%
%TD*%
%TA.AperFunction,SMDPad,CuDef*%
%ADD28RoundRect,0.250000X0.020994X-0.536362X0.454006X-0.286362X-0.020994X0.536362X-0.454006X0.286362X0*%
%TD*%
%TA.AperFunction,SMDPad,CuDef*%
%ADD29RoundRect,0.237500X-0.038849X-0.342632X0.344173X-0.021239X0.038849X0.342632X-0.344173X0.021239X0*%
%TD*%
%TA.AperFunction,SMDPad,CuDef*%
%ADD30R,1.500000X0.900000*%
%TD*%
%TA.AperFunction,SMDPad,CuDef*%
%ADD31R,0.900000X1.500000*%
%TD*%
%TA.AperFunction,HeatsinkPad*%
%ADD32C,0.600000*%
%TD*%
%TA.AperFunction,SMDPad,CuDef*%
%ADD33R,3.900000X3.900000*%
%TD*%
%TA.AperFunction,SMDPad,CuDef*%
%ADD34RoundRect,0.062500X-0.229127X0.271859X0.120873X-0.334359X0.229127X-0.271859X-0.120873X0.334359X0*%
%TD*%
%TA.AperFunction,SMDPad,CuDef*%
%ADD35RoundRect,0.062500X-0.334359X-0.120873X-0.271859X-0.229127X0.334359X0.120873X0.271859X0.229127X0*%
%TD*%
%TA.AperFunction,HeatsinkPad*%
%ADD36RotRect,1.230000X1.230000X300.000000*%
%TD*%
%TA.AperFunction,SMDPad,CuDef*%
%ADD37RoundRect,0.100000X-1.229423X-0.329423X0.329423X-1.229423X1.229423X0.329423X-0.329423X1.229423X0*%
%TD*%
%TA.AperFunction,SMDPad,CuDef*%
%ADD38RoundRect,0.250000X0.625000X-0.312500X0.625000X0.312500X-0.625000X0.312500X-0.625000X-0.312500X0*%
%TD*%
%TA.AperFunction,SMDPad,CuDef*%
%ADD39RoundRect,0.140000X-0.002028X0.220218X-0.216520X0.040237X0.002028X-0.220218X0.216520X-0.040237X0*%
%TD*%
%TA.AperFunction,SMDPad,CuDef*%
%ADD40RoundRect,0.062500X-0.350000X-0.062500X0.350000X-0.062500X0.350000X0.062500X-0.350000X0.062500X0*%
%TD*%
%TA.AperFunction,SMDPad,CuDef*%
%ADD41RoundRect,0.062500X-0.062500X-0.350000X0.062500X-0.350000X0.062500X0.350000X-0.062500X0.350000X0*%
%TD*%
%TA.AperFunction,HeatsinkPad*%
%ADD42R,3.600000X3.600000*%
%TD*%
%TA.AperFunction,SMDPad,CuDef*%
%ADD43RoundRect,0.237500X-0.080681X0.335256X-0.330681X-0.097756X0.080681X-0.335256X0.330681X0.097756X0*%
%TD*%
%TA.AperFunction,SMDPad,CuDef*%
%ADD44RoundRect,0.237500X-0.300000X-0.237500X0.300000X-0.237500X0.300000X0.237500X-0.300000X0.237500X0*%
%TD*%
%TA.AperFunction,SMDPad,CuDef*%
%ADD45RoundRect,0.250000X-0.275000X-0.350000X0.275000X-0.350000X0.275000X0.350000X-0.275000X0.350000X0*%
%TD*%
%TA.AperFunction,SMDPad,CuDef*%
%ADD46RoundRect,0.100000X0.000000X-1.272792X1.272792X0.000000X0.000000X1.272792X-1.272792X0.000000X0*%
%TD*%
%TA.AperFunction,SMDPad,CuDef*%
%ADD47RoundRect,0.140000X0.077224X-0.206244X0.217224X0.036244X-0.077224X0.206244X-0.217224X-0.036244X0*%
%TD*%
%TA.AperFunction,ViaPad*%
%ADD48C,0.420000*%
%TD*%
%TA.AperFunction,Conductor*%
%ADD49C,0.160000*%
%TD*%
%TA.AperFunction,Conductor*%
%ADD50C,0.500000*%
%TD*%
%TA.AperFunction,Conductor*%
%ADD51C,1.000000*%
%TD*%
%TA.AperFunction,Conductor*%
%ADD52C,0.400000*%
%TD*%
%TA.AperFunction,Conductor*%
%ADD53C,0.250000*%
%TD*%
%TA.AperFunction,Conductor*%
%ADD54C,0.200000*%
%TD*%
G04 APERTURE END LIST*
D10*
%TO.P,SW2,*%
%TO.N,*%
X14927083Y11787951D03*
X9717637Y16478557D03*
D11*
%TO.P,SW2,1,1*%
%TO.N,GND*%
X15660772Y14478363D03*
%TO.P,SW2,2,2*%
%TO.N,SW_L2*%
X12316619Y17489452D03*
%TD*%
D12*
%TO.P,P1,*%
%TO.N,*%
X-4320000Y-17080000D03*
D13*
X-4320000Y-21260000D03*
D12*
X4320000Y-17080000D03*
D13*
%TO.P,P1,S1,SHIELD*%
%TO.N,Net-(P1-SHIELD)*%
X4320000Y-21260000D03*
%TD*%
D10*
%TO.P,SW1,*%
%TO.N,*%
X7456432Y17622643D03*
X599616Y19080103D03*
D11*
%TO.P,SW1,1,1*%
%TO.N,GND*%
X6746619Y20319452D03*
%TO.P,SW1,2,2*%
%TO.N,SW_L3*%
X2344953Y21255056D03*
%TD*%
D14*
%TO.P,NC5,1*%
%TO.N,Net-(U5-FB1)*%
X17862500Y-4400000D03*
%TO.P,NC5,2*%
%TO.N,+3V3*%
X14937500Y-4400000D03*
%TD*%
D15*
%TO.P,D1,1,K*%
%TO.N,Net-(D1-K)*%
X8705000Y-20670000D03*
%TO.P,D1,2,A*%
%TO.N,Net-(D1-A)*%
X9675000Y-20670000D03*
%TD*%
D16*
%TO.P,J2,1,Pin_1*%
%TO.N,GND*%
X5550000Y11265000D03*
%TO.P,J2,2,Pin_2*%
%TO.N,+3V3*%
X4280000Y11265000D03*
%TO.P,J2,3,Pin_3*%
%TO.N,VSYS*%
X3010000Y11265000D03*
%TO.P,J2,4,Pin_4*%
%TO.N,GPIO46*%
X1740000Y11265000D03*
%TO.P,J2,5,Pin_5*%
%TO.N,GPIO0*%
X470000Y11265000D03*
%TO.P,J2,6,Pin_6*%
%TO.N,EN*%
X470000Y12535000D03*
%TO.P,J2,7,Pin_7*%
%TO.N,RXD*%
X1740000Y12535000D03*
%TO.P,J2,8,Pin_8*%
%TO.N,TXD*%
X3010000Y12535000D03*
%TO.P,J2,9,Pin_9*%
%TO.N,CAM_SCL*%
X4280000Y12535000D03*
%TO.P,J2,10,Pin_10*%
%TO.N,CAM_SDA*%
X5550000Y12535000D03*
%TD*%
D17*
%TO.P,C12,1*%
%TO.N,+2V8*%
X16840000Y-2780000D03*
%TO.P,C12,2*%
%TO.N,GND*%
X17800000Y-2780000D03*
%TD*%
D18*
%TO.P,C19,1*%
%TO.N,GND*%
X19420000Y-5397500D03*
%TO.P,C19,2*%
%TO.N,Net-(U5-FB1)*%
X19420000Y-7122500D03*
%TD*%
D19*
%TO.P,3v3J1,1,Pin_1*%
%TO.N,GND*%
X19570000Y2943600D03*
%TO.P,3v3J1,2,Pin_2*%
%TO.N,+3V3*%
X19570000Y-1323600D03*
%TD*%
D20*
%TO.P,JP2,1,A*%
%TO.N,Net-(JP2-A)*%
X-190000Y-20365000D03*
D21*
%TO.P,JP2,2,B*%
%TO.N,PMIC_PWRON*%
X-190000Y-21815000D03*
%TD*%
D22*
%TO.P,R16,1*%
%TO.N,Net-(P1-SHIELD)*%
X6920000Y-21262500D03*
%TO.P,R16,2*%
%TO.N,GND*%
X6920000Y-19437500D03*
%TD*%
D23*
%TO.P,JP4,1,A*%
%TO.N,GND*%
X-15544262Y-6274999D03*
D24*
%TO.P,JP4,2,B*%
%TO.N,Net-(JP4-B)*%
X-16800000Y-7000001D03*
%TD*%
D25*
%TO.P,C16,1*%
%TO.N,GND*%
X10830000Y-15242500D03*
%TO.P,C16,2*%
%TO.N,VSYS*%
X10830000Y-13517500D03*
%TD*%
D22*
%TO.P,R11,1*%
%TO.N,Net-(D1-A)*%
X9480000Y-19190000D03*
%TO.P,R11,2*%
%TO.N,VSYS*%
X9480000Y-17365000D03*
%TD*%
D26*
%TO.P,C6,1*%
%TO.N,VSYS*%
X-11516947Y-6251250D03*
%TO.P,C6,2*%
%TO.N,GND*%
X-10023053Y-5388750D03*
%TD*%
%TO.P,C7,1*%
%TO.N,VSYS*%
X-9786947Y-9271250D03*
%TO.P,C7,2*%
%TO.N,GND*%
X-8293053Y-8408750D03*
%TD*%
D27*
%TO.P,C14,1*%
%TO.N,GND*%
X6010000Y-8975000D03*
%TO.P,C14,2*%
%TO.N,Net-(U5-VREF)*%
X6010000Y-10525000D03*
%TD*%
D28*
%TO.P,C8,1*%
%TO.N,VSYS*%
X-10695777Y-7765000D03*
%TO.P,C8,2*%
%TO.N,GND*%
X-9050329Y-6815000D03*
%TD*%
D29*
%TO.P,R14,1*%
%TO.N,+3V3*%
X10518484Y13453456D03*
%TO.P,R14,2*%
%TO.N,SW_L2*%
X11916516Y14626544D03*
%TD*%
D30*
%TO.P,U2,1,GND*%
%TO.N,GND*%
X-2995000Y15180000D03*
%TO.P,U2,2,3V3*%
%TO.N,+3V3*%
X-2995000Y13910000D03*
%TO.P,U2,3,EN*%
%TO.N,EN*%
X-2995000Y12640000D03*
%TO.P,U2,4,IO4*%
%TO.N,CAM_Y4*%
X-2995000Y11370000D03*
%TO.P,U2,5,IO5*%
%TO.N,CAM_Y3*%
X-2995000Y10100000D03*
%TO.P,U2,6,IO6*%
%TO.N,CAM_Y5*%
X-2995000Y8830000D03*
%TO.P,U2,7,IO7*%
%TO.N,CAM_Y2*%
X-2995000Y7560000D03*
%TO.P,U2,8,IO15*%
%TO.N,CAM_Y6*%
X-2995000Y6290000D03*
%TO.P,U2,9,IO16*%
%TO.N,CAM_PCLK*%
X-2995000Y5020000D03*
%TO.P,U2,10,IO17*%
%TO.N,CAM_Y7*%
X-2995000Y3750000D03*
%TO.P,U2,11,IO18*%
%TO.N,CAM_Y8*%
X-2995000Y2480000D03*
%TO.P,U2,12,IO8*%
%TO.N,CAM_MCLK*%
X-2995000Y1210000D03*
%TO.P,U2,13,IO19*%
%TO.N,CAM_Y9*%
X-2995000Y-60000D03*
%TO.P,U2,14,IO20*%
%TO.N,CAM_HREF*%
X-2995000Y-1330000D03*
D31*
%TO.P,U2,15,IO3*%
%TO.N,CAM_PWDN*%
X-4760000Y-2580000D03*
%TO.P,U2,16,IO46*%
%TO.N,GPIO46*%
X-6030000Y-2580000D03*
%TO.P,U2,17,IO9*%
%TO.N,CAM_SCL*%
X-7300000Y-2580000D03*
%TO.P,U2,18,IO10*%
%TO.N,CAM_SDA*%
X-8570000Y-2580000D03*
%TO.P,U2,19,IO11*%
%TO.N,LEDCNTRL*%
X-9840000Y-2580000D03*
%TO.P,U2,20,IO12*%
%TO.N,WS_AMP*%
X-11110000Y-2580000D03*
%TO.P,U2,21,IO13*%
%TO.N,BCLK_AMP*%
X-12380000Y-2580000D03*
%TO.P,U2,22,IO14*%
%TO.N,SDMODE_AMP*%
X-13650000Y-2580000D03*
%TO.P,U2,23,IO21*%
%TO.N,WS_MIC*%
X-14920000Y-2580000D03*
%TO.P,U2,24,IO47*%
%TO.N,SW_L1*%
X-16190000Y-2580000D03*
%TO.P,U2,25,IO48*%
%TO.N,Net-(JP3-A)*%
X-17460000Y-2580000D03*
%TO.P,U2,26,IO45*%
%TO.N,BCLK_MIC*%
X-18730000Y-2580000D03*
D30*
%TO.P,U2,27,IO0*%
%TO.N,GPIO0*%
X-20495000Y-1330000D03*
%TO.P,U2,28,IO35*%
%TO.N,unconnected-(U2-IO35-Pad28)*%
X-20495000Y-60000D03*
%TO.P,U2,29,IO36*%
%TO.N,unconnected-(U2-IO36-Pad29)*%
X-20495000Y1210000D03*
%TO.P,U2,30,IO37*%
%TO.N,unconnected-(U2-IO37-Pad30)*%
X-20495000Y2480000D03*
%TO.P,U2,31,IO38*%
%TO.N,I2SDAT_AMP*%
X-20495000Y3750000D03*
%TO.P,U2,32,IO39*%
%TO.N,I2SDAT_MIC*%
X-20495000Y5020000D03*
%TO.P,U2,33,IO40*%
%TO.N,PMIC_IRQ*%
X-20495000Y6290000D03*
%TO.P,U2,34,IO41*%
%TO.N,CAM_VSYNC*%
X-20495000Y7560000D03*
%TO.P,U2,35,IO42*%
%TO.N,CAM_RESET*%
X-20495000Y8830000D03*
%TO.P,U2,36,RXD0*%
%TO.N,RXD*%
X-20495000Y10100000D03*
%TO.P,U2,37,TXD0*%
%TO.N,TXD*%
X-20495000Y11370000D03*
%TO.P,U2,38,IO2*%
%TO.N,SW_L2*%
X-20495000Y12640000D03*
%TO.P,U2,39,IO1*%
%TO.N,SW_L3*%
X-20495000Y13910000D03*
%TO.P,U2,40,GND*%
%TO.N,GND*%
X-20495000Y15180000D03*
D32*
%TO.P,U2,41,GND*%
X-8845000Y6760000D03*
X-8845000Y8160000D03*
X-9545000Y6060000D03*
X-9545000Y7460000D03*
X-9545000Y8860000D03*
X-10245000Y6760000D03*
D33*
X-10245000Y7460000D03*
D32*
X-10245000Y8160000D03*
X-10945000Y6060000D03*
X-10945000Y7460000D03*
X-10945000Y8860000D03*
X-11645000Y6760000D03*
X-11645000Y8160000D03*
%TD*%
D34*
%TO.P,U1,1,DIN*%
%TO.N,I2SDAT_AMP*%
X-15034801Y-8996620D03*
%TO.P,U1,2,GAIN_SLOT*%
%TO.N,Net-(JP4-B)*%
X-14601791Y-8746620D03*
%TO.P,U1,3,GND*%
%TO.N,GND*%
X-14168776Y-8496619D03*
%TO.P,U1,4,~{SD_MODE}*%
%TO.N,SDMODE_AMP*%
X-13735763Y-8246621D03*
D35*
%TO.P,U1,5,NC*%
%TO.N,unconnected-(U1-NC-Pad5)*%
X-12796621Y-8498264D03*
%TO.P,U1,6,NC*%
%TO.N,unconnected-(U1-NC-Pad6)*%
X-12546621Y-8931274D03*
%TO.P,U1,7,VDD*%
%TO.N,VSYS*%
X-12296620Y-9364289D03*
%TO.P,U1,8,VDD*%
X-12046622Y-9797302D03*
D34*
%TO.P,U1,9,OUTP*%
%TO.N,SPK_P*%
X-12298265Y-10736444D03*
%TO.P,U1,10,OUTN*%
%TO.N,SPK_N*%
X-12731275Y-10986444D03*
%TO.P,U1,11,GND*%
%TO.N,GND*%
X-13164290Y-11236445D03*
%TO.P,U1,12,NC*%
%TO.N,unconnected-(U1-NC-Pad12)*%
X-13597303Y-11486443D03*
D35*
%TO.P,U1,13,NC*%
%TO.N,unconnected-(U1-NC-Pad13)*%
X-14536445Y-11234800D03*
%TO.P,U1,14,LRCLK*%
%TO.N,WS_AMP*%
X-14786445Y-10801790D03*
%TO.P,U1,15,GND*%
%TO.N,GND*%
X-15036446Y-10368775D03*
%TO.P,U1,16,BCLK*%
%TO.N,BCLK_AMP*%
X-15286444Y-9935762D03*
D36*
%TO.P,U1,17,PAD*%
%TO.N,unconnected-(U1-PAD-Pad17)*%
X-13666533Y-9866532D03*
%TD*%
D37*
%TO.P,J1,1,Pin_1*%
%TO.N,SPK_N*%
X-11027753Y-13353201D03*
%TO.P,J1,2,Pin_2*%
%TO.N,SPK_P*%
X-7332249Y-15486800D03*
%TD*%
D22*
%TO.P,R9,1*%
%TO.N,CAM_SDA*%
X2800000Y-11702500D03*
%TO.P,R9,2*%
%TO.N,+3V3*%
X2800000Y-9877500D03*
%TD*%
D38*
%TO.P,NC1,1*%
%TO.N,CAM_PWDN*%
X17250000Y67500D03*
%TO.P,NC1,2*%
%TO.N,GND*%
X17250000Y2992500D03*
%TD*%
D17*
%TO.P,C11,1*%
%TO.N,+2V8*%
X16820000Y-1800000D03*
%TO.P,C11,2*%
%TO.N,GND*%
X17780000Y-1800000D03*
%TD*%
D25*
%TO.P,C15,1*%
%TO.N,GND*%
X9200000Y-15252500D03*
%TO.P,C15,2*%
%TO.N,VBUS*%
X9200000Y-13527500D03*
%TD*%
D39*
%TO.P,C28,1*%
%TO.N,SW_L2*%
X12697701Y13638538D03*
%TO.P,C28,2*%
%TO.N,GND*%
X11962299Y13021462D03*
%TD*%
D40*
%TO.P,U5,1,CHGLED*%
%TO.N,Net-(D1-K)*%
X8122500Y-10560000D03*
%TO.P,U5,2,VREF*%
%TO.N,Net-(U5-VREF)*%
X8122500Y-10160000D03*
%TO.P,U5,3,GND*%
%TO.N,GND*%
X8122500Y-9760000D03*
%TO.P,U5,4,FB3*%
%TO.N,unconnected-(U5-FB3-Pad4)*%
X8122500Y-9360000D03*
%TO.P,U5,5,LX3*%
%TO.N,unconnected-(U5-LX3-Pad5)*%
X8122500Y-8960000D03*
%TO.P,U5,6,VIN3*%
%TO.N,unconnected-(U5-VIN3-Pad6)*%
X8122500Y-8560000D03*
%TO.P,U5,7,VIN4*%
%TO.N,unconnected-(U5-VIN4-Pad7)*%
X8122500Y-8160000D03*
%TO.P,U5,8,LX4*%
%TO.N,unconnected-(U5-LX4-Pad8)*%
X8122500Y-7760000D03*
%TO.P,U5,9,FB4*%
%TO.N,unconnected-(U5-FB4-Pad9)*%
X8122500Y-7360000D03*
%TO.P,U5,10,CPULDOS*%
%TO.N,unconnected-(U5-CPULDOS-Pad10)*%
X8122500Y-6960000D03*
D41*
%TO.P,U5,11,DLDO2/DC4SW*%
%TO.N,unconnected-(U5-DLDO2{slash}DC4SW-Pad11)*%
X8760000Y-6322500D03*
%TO.P,U5,12,BLDO1*%
%TO.N,unconnected-(U5-BLDO1-Pad12)*%
X9160000Y-6322500D03*
%TO.P,U5,13,BLDOIN*%
%TO.N,unconnected-(U5-BLDOIN-Pad13)*%
X9560000Y-6322500D03*
%TO.P,U5,14,BLDO2*%
%TO.N,unconnected-(U5-BLDO2-Pad14)*%
X9960000Y-6322500D03*
%TO.P,U5,15,ALDO4*%
%TO.N,unconnected-(U5-ALDO4-Pad15)*%
X10360000Y-6322500D03*
%TO.P,U5,16,ALDO3*%
%TO.N,unconnected-(U5-ALDO3-Pad16)*%
X10760000Y-6322500D03*
%TO.P,U5,17,ALDOIN*%
%TO.N,VSYS*%
X11160000Y-6322500D03*
%TO.P,U5,18,ALDO1*%
%TO.N,+1V5*%
X11560000Y-6322500D03*
%TO.P,U5,19,ALDO2*%
%TO.N,+2V8*%
X11960000Y-6322500D03*
%TO.P,U5,20,DLDO1/DC1SW*%
%TO.N,unconnected-(U5-DLDO1{slash}DC1SW-Pad20)*%
X12360000Y-6322500D03*
D40*
%TO.P,U5,21,FB1*%
%TO.N,Net-(U5-FB1)*%
X12997500Y-6960000D03*
%TO.P,U5,22,LX1*%
%TO.N,Net-(U5-LX1)*%
X12997500Y-7360000D03*
%TO.P,U5,23,VIN1*%
%TO.N,VSYS*%
X12997500Y-7760000D03*
%TO.P,U5,24,VIN2*%
X12997500Y-8160000D03*
%TO.P,U5,25,LX2*%
%TO.N,Net-(U5-LX2)*%
X12997500Y-8560000D03*
%TO.P,U5,26,FB2*%
%TO.N,+3V3CAM*%
X12997500Y-8960000D03*
%TO.P,U5,27,VBACKUP*%
%TO.N,unconnected-(U5-VBACKUP-Pad27)*%
X12997500Y-9360000D03*
%TO.P,U5,28,VRTC*%
%TO.N,unconnected-(U5-VRTC-Pad28)*%
X12997500Y-9760000D03*
%TO.P,U5,29,PWROK*%
%TO.N,unconnected-(U5-PWROK-Pad29)*%
X12997500Y-10160000D03*
%TO.P,U5,30,PWRON*%
%TO.N,PMIC_PWRON*%
X12997500Y-10560000D03*
D41*
%TO.P,U5,31,TS*%
%TO.N,unconnected-(U5-TS-Pad31)*%
X12360000Y-11197500D03*
%TO.P,U5,32,GPIO1/FB5/RTC/LDO2*%
%TO.N,unconnected-(U5-GPIO1{slash}FB5{slash}RTC{slash}LDO2-Pad32)*%
X11960000Y-11197500D03*
%TO.P,U5,33,BAT*%
%TO.N,VBAT*%
X11560000Y-11197500D03*
%TO.P,U5,34,VSYS*%
%TO.N,VSYS*%
X11160000Y-11197500D03*
%TO.P,U5,35,SW*%
%TO.N,unconnected-(U5-SW-Pad35)*%
X10760000Y-11197500D03*
%TO.P,U5,36,VMID*%
%TO.N,VSYS*%
X10360000Y-11197500D03*
%TO.P,U5,37,VBUS*%
%TO.N,VBUS*%
X9960000Y-11197500D03*
%TO.P,U5,38,IRQ*%
%TO.N,PMIC_IRQ*%
X9560000Y-11197500D03*
%TO.P,U5,39,SDA*%
%TO.N,CAM_SDA*%
X9160000Y-11197500D03*
%TO.P,U5,40,SCK*%
%TO.N,CAM_SCL*%
X8760000Y-11197500D03*
D42*
%TO.P,U5,41,EP*%
%TO.N,GND*%
X10560000Y-8760000D03*
%TD*%
D43*
%TO.P,R13,1*%
%TO.N,+3V3*%
X-10503750Y-16589752D03*
%TO.P,R13,2*%
%TO.N,Net-(JP2-A)*%
X-11416250Y-18170248D03*
%TD*%
D44*
%TO.P,C18,1*%
%TO.N,GND*%
X9465000Y-4130000D03*
%TO.P,C18,2*%
%TO.N,VSYS*%
X11190000Y-4130000D03*
%TD*%
D25*
%TO.P,C22,1*%
%TO.N,GND*%
X19350000Y-12002500D03*
%TO.P,C22,2*%
%TO.N,+3V3CAM*%
X19350000Y-10277500D03*
%TD*%
D22*
%TO.P,R8,1*%
%TO.N,CAM_SCL*%
X4490000Y-11282500D03*
%TO.P,R8,2*%
%TO.N,+3V3*%
X4490000Y-9457500D03*
%TD*%
D45*
%TO.P,L1,1,1*%
%TO.N,Net-(U5-LX1)*%
X15540000Y-7060000D03*
%TO.P,L1,2,2*%
%TO.N,Net-(U5-FB1)*%
X17840000Y-7060000D03*
%TD*%
D25*
%TO.P,C17,1*%
%TO.N,GND*%
X12300000Y-15240000D03*
%TO.P,C17,2*%
%TO.N,VSYS*%
X12300000Y-13515000D03*
%TD*%
D46*
%TO.P,BAT1,1,Pin_1*%
%TO.N,GND*%
X12377238Y-18514604D03*
%TO.P,BAT1,2,Pin_2*%
%TO.N,VBAT*%
X15394604Y-15497238D03*
%TD*%
D45*
%TO.P,L2,1,1*%
%TO.N,Net-(U5-LX2)*%
X15470000Y-10340000D03*
%TO.P,L2,2,2*%
%TO.N,+3V3CAM*%
X17770000Y-10340000D03*
%TD*%
D47*
%TO.P,C34,1*%
%TO.N,Net-(JP2-A)*%
X-9130000Y-19205692D03*
%TO.P,C34,2*%
%TO.N,GND*%
X-8650000Y-18374308D03*
%TD*%
D44*
%TO.P,C20,1*%
%TO.N,VSYS*%
X15517500Y-8700000D03*
%TO.P,C20,2*%
%TO.N,GND*%
X17242500Y-8700000D03*
%TD*%
D48*
%TO.N,GND*%
X-22920000Y60000D03*
X3400000Y4450000D03*
X11370000Y9810000D03*
X-4910000Y1460000D03*
X-1670000Y15400000D03*
X-13780000Y15130000D03*
X-15740000Y14170000D03*
X14750000Y-17710000D03*
X19990000Y9870000D03*
X10710000Y-2760000D03*
X-2030000Y-19260000D03*
X-4150000Y-15260000D03*
X18600000Y-13200000D03*
X200000Y-3490000D03*
X-7550000Y10680000D03*
X-4390000Y11510000D03*
X-7420000Y15830000D03*
X5160000Y-5280000D03*
X-12890000Y-12090000D03*
X-16270000Y-5490000D03*
X1580000Y-19310000D03*
X5600000Y-22700000D03*
X6610000Y3530000D03*
X12300000Y-16140000D03*
X5690000Y-18060000D03*
X19790000Y6650000D03*
X6010000Y-8270000D03*
X-6640000Y-18180000D03*
X16170000Y2750000D03*
X-8570000Y-10900000D03*
X18321724Y-8700000D03*
X-10120000Y470000D03*
X18010000Y12340000D03*
X-4890000Y3500000D03*
X-9450000Y-14700000D03*
X5000000Y10400000D03*
X5050000Y-6780000D03*
X-3240000Y-14910000D03*
X-4060000Y-6810000D03*
X3290000Y-3970000D03*
X21320000Y-7810000D03*
X8130000Y-21850000D03*
X17450000Y1450000D03*
X16380000Y-3740000D03*
X2740000Y-7170000D03*
X4170000Y-15230000D03*
X-7400000Y-7020000D03*
X-15560000Y-10750000D03*
X18350000Y-2760000D03*
X19560000Y4560000D03*
X11481511Y1830000D03*
X20172490Y-5397500D03*
X11280000Y-19600000D03*
X-8140000Y-12690000D03*
X-4340000Y10020000D03*
X11420001Y5609999D03*
X-19100000Y15410000D03*
X10560000Y-480000D03*
X9380000Y-16080000D03*
X10799998Y6040000D03*
X6420000Y-6620000D03*
X1730000Y-21660000D03*
X-10250000Y-6610000D03*
X-11610000Y2540000D03*
X-22810000Y2600000D03*
X-22620000Y-2500000D03*
X-8170000Y-6570000D03*
X11340000Y-17500000D03*
X-21082000Y16002000D03*
X-13710000Y1230000D03*
X11660000Y7440000D03*
X17190000Y-13860000D03*
X-9980000Y11170000D03*
X9460000Y-4940000D03*
X-11670000Y470000D03*
X13400000Y-17500000D03*
X-22300000Y5380000D03*
X10840000Y-16120000D03*
X6930000Y-18580000D03*
X12390000Y12450000D03*
X-8290000Y-17960000D03*
%TO.N,EN*%
X-4145016Y12715016D03*
%TO.N,+3V3*%
X4460000Y-8380000D03*
X4540000Y9580000D03*
X-12653917Y14257476D03*
X2810000Y-8507657D03*
X9600000Y9930000D03*
X-5780000Y-14130000D03*
X13800000Y-5200000D03*
X-10040000Y-15920000D03*
X-4045538Y13910000D03*
X-6250000Y9330000D03*
X19570000Y-2799998D03*
X-14267500Y8340000D03*
X-7470000Y14090000D03*
%TO.N,VSYS*%
X-9510000Y-10180000D03*
X14710000Y-8150000D03*
X10200000Y-5200000D03*
X11600000Y-13170000D03*
X3470000Y9780000D03*
X-13600000Y-200000D03*
X-1240000Y830000D03*
%TO.N,CAM_PCLK*%
X14050000Y3720000D03*
%TO.N,+2V8*%
X16354141Y-2759998D03*
%TO.N,VBUS*%
X6840000Y-13960000D03*
X7980000Y-13960000D03*
%TO.N,SW_L3*%
X-19450000Y13820000D03*
%TO.N,SW_L1*%
X-15150000Y-70000D03*
%TO.N,Net-(D1-K)*%
X5780000Y-13230000D03*
X7390000Y-10780000D03*
%TO.N,+3V3CAM*%
X12460000Y-650000D03*
X15200000Y-11400000D03*
X13200000Y-6400000D03*
X9200000Y0D03*
X9890000Y6820000D03*
%TO.N,LEDCNTRL*%
X-9530000Y1720000D03*
%TO.N,RXD*%
X2710000Y13630000D03*
X-7980000Y13240000D03*
%TO.N,TXD*%
X3410000Y13640000D03*
X-9264693Y14114693D03*
%TO.N,GPIO0*%
X-713589Y9164400D03*
X-6340000Y7310000D03*
%TO.N,GPIO46*%
X-5810000Y1000000D03*
X2530000Y8170000D03*
%TO.N,CAM_PWDN*%
X16690000Y-740000D03*
%TO.N,CAM_RESET*%
X10000000Y700000D03*
X16130000Y-1800000D03*
X-19200000Y8800000D03*
%TO.N,PMIC_PWRON*%
X13530000Y-11210000D03*
X-2310000Y-22590000D03*
%TO.N,I2SDAT_MIC*%
X-19170000Y5250000D03*
%TO.N,CAM_SDA*%
X8990000Y-12050000D03*
%TO.N,CAM_SCL*%
X7970000Y-11400000D03*
%TO.N,PMIC_IRQ*%
X-19110000Y6510000D03*
X-1330000Y-10120000D03*
%TO.N,BCLK_AMP*%
X-15900000Y-9930000D03*
X-13360000Y-7580000D03*
%TO.N,WS_AMP*%
X-14180000Y-11800000D03*
X-12440000Y-7760000D03*
%TO.N,CAM_Y3*%
X-1940000Y10110000D03*
%TO.N,CAM_MCLK*%
X8470000Y1770000D03*
%TO.N,BCLK_MIC*%
X-15030000Y-4880000D03*
%TO.N,CAM_Y5*%
X14120000Y5230000D03*
%TO.N,CAM_Y6*%
X16550000Y4260000D03*
%TO.N,WS_MIC*%
X-13920000Y-5490000D03*
%TO.N,CAM_Y4*%
X-1720000Y11930000D03*
%TO.N,CAM_Y8*%
X14170000Y2280000D03*
%TO.N,CAM_VSYNC*%
X12200000Y-3600000D03*
X17550000Y-1020000D03*
X-13000000Y5200000D03*
%TO.N,CAM_Y9*%
X16230000Y1250000D03*
%TO.N,CAM_Y2*%
X16579376Y5010624D03*
%TO.N,CAM_HREF*%
X14150000Y-510000D03*
%TO.N,CAM_Y7*%
X14250000Y3020671D03*
%TO.N,+1V5*%
X13534976Y-2463401D03*
%TO.N,Net-(JP2-A)*%
X-9340000Y-20070000D03*
%TO.N,Net-(JP3-A)*%
X-17140000Y-1300000D03*
%TD*%
D49*
%TO.N,CAM_HREF*%
X14150000Y-560000D02*
X14150000Y-510000D01*
X-2995000Y-1330000D02*
X13031594Y-1330000D01*
X13626360Y-1083640D02*
X14150000Y-560000D01*
X13031594Y-1330000D02*
G75*
G03*
X13626358Y-1083638I6J841100D01*
G01*
%TO.N,CAM_Y8*%
X14070000Y2380000D02*
X8280000Y2380000D01*
X14170000Y2280000D02*
X14070000Y2380000D01*
%TO.N,CAM_Y7*%
X14230699Y3001370D02*
X14250000Y3020671D01*
X14174407Y3001370D02*
X14230699Y3001370D01*
X6650000Y3000000D02*
X14116153Y3000000D01*
X6030000Y3000000D02*
X6650000Y3000000D01*
X14116153Y3000000D02*
G75*
G02*
X14174407Y3001368I66847J-1605100D01*
G01*
%TO.N,CAM_VSYNC*%
X-13000000Y7084437D02*
X-13000000Y5200000D01*
X-20495000Y7560000D02*
X-13616984Y7560000D01*
X-13110000Y7350000D02*
G75*
G02*
X-12999985Y7084437I-265600J-265600D01*
G01*
X-13616984Y7560000D02*
G75*
G02*
X-13110004Y7349996I-16J-717000D01*
G01*
D50*
%TO.N,GND*%
X9465000Y-4935000D02*
X9460000Y-4940000D01*
D51*
X12377238Y-18514604D02*
X12391164Y-18508835D01*
D52*
X-9050329Y-6815000D02*
X-8415000Y-6815000D01*
D50*
X10830000Y-15242500D02*
X10830000Y-16095858D01*
D52*
X19420000Y-5397500D02*
X20172490Y-5397500D01*
D53*
X16170000Y2750000D02*
X17088934Y2750000D01*
X-15549011Y-10750000D02*
X-15560000Y-10750000D01*
X-14450000Y-7897036D02*
X-14450000Y-7369261D01*
X8122500Y-9760000D02*
X7382132Y-9760000D01*
D52*
X5000000Y10400000D02*
X5550000Y10950000D01*
X17242500Y-8700000D02*
X18321724Y-8700000D01*
X-9126106Y-6890777D02*
X-9050329Y-6815000D01*
D50*
X-2775000Y15400000D02*
X-1670000Y15400000D01*
X-2995000Y15180000D02*
X-2775000Y15400000D01*
D52*
X11932949Y12907050D02*
X12390000Y12450000D01*
D50*
X-7440000Y-7710000D02*
X-7947215Y-8217215D01*
D51*
X11300216Y-19591626D02*
X11280000Y-19600000D01*
D52*
X-8415000Y-6815000D02*
X-8170000Y-6570000D01*
D50*
X-20265000Y15410000D02*
X-20495000Y15180000D01*
X9465000Y-4130000D02*
X9465000Y-4935000D01*
D53*
X8122500Y-9760000D02*
X10560000Y-9760000D01*
X-12890000Y-11898639D02*
X-12890000Y-12090000D01*
D50*
X6920000Y-19437500D02*
X6920000Y-18604142D01*
D52*
X17790000Y-2760000D02*
X18350000Y-2760000D01*
D53*
X-15269262Y-6000000D02*
X-15544262Y-6275000D01*
D52*
X-9126106Y-6937500D02*
X-9126106Y-6890777D01*
X-10250000Y-5936648D02*
X-10250000Y-6610000D01*
D50*
X6010000Y-8270000D02*
X6010000Y-8975000D01*
X-19100000Y15410000D02*
X-20265000Y15410000D01*
D53*
X-15232174Y-10433163D02*
X-15549011Y-10750000D01*
D51*
X12338600Y-18498599D02*
X11340000Y-17500000D01*
D50*
X-7400000Y-7020000D02*
X-7400000Y-7613432D01*
X12300000Y-15240000D02*
X12300000Y-16140000D01*
D52*
X-21082000Y16002000D02*
X-21082000Y15767000D01*
X5550000Y10950000D02*
X5550000Y11265000D01*
D53*
X10560000Y-9760000D02*
X10560000Y-8760000D01*
D52*
X11922299Y12911462D02*
X11932949Y12907050D01*
D51*
X12377238Y-18514604D02*
X11300216Y-19591626D01*
D52*
X-21082000Y15767000D02*
X-20495000Y15180000D01*
D50*
X12377238Y-18514604D02*
X12357023Y-18522978D01*
X9370000Y-15240000D02*
X9370000Y-16055858D01*
D53*
X-14448138Y-7898898D02*
X-14450000Y-7897036D01*
D50*
X-20495000Y15180000D02*
X-20494980Y15180000D01*
X19570000Y2943600D02*
X19570000Y4535858D01*
X19350000Y-12250000D02*
X18600000Y-13000000D01*
D52*
X17790000Y-2760000D02*
X17790000Y-1830000D01*
D53*
X7020000Y-9610000D02*
X6650165Y-9240165D01*
D51*
X12391164Y-18508835D02*
X13400000Y-17500000D01*
D53*
X-15544262Y-6274999D02*
X-15544262Y-6215738D01*
D52*
X-8662812Y-18332811D02*
X-8290000Y-17960000D01*
D50*
X19350000Y-12002500D02*
X19350000Y-12250000D01*
D53*
X-14450000Y-7369261D02*
G75*
G03*
X-15544262Y-6275000I-1094300J-39D01*
G01*
D52*
X-8680000Y-18374308D02*
G75*
G02*
X-8662819Y-18332804I58700J8D01*
G01*
D50*
X-7400000Y-7613432D02*
G75*
G02*
X-7440009Y-7709991I-136600J32D01*
G01*
D53*
X17088934Y2750000D02*
G75*
G02*
X17269990Y2674990I-34J-256100D01*
G01*
D50*
X9370000Y-16055858D02*
G75*
G03*
X9379988Y-16080012I34100J-42D01*
G01*
X6920000Y-18604142D02*
G75*
G02*
X6929988Y-18579988I34100J42D01*
G01*
D53*
X-14207947Y-8402053D02*
G75*
G02*
X-14448108Y-7898895I599947J595253D01*
G01*
X-15544262Y-6215738D02*
G75*
G03*
X-16270000Y-5489962I-725738J38D01*
G01*
X-13164290Y-11236445D02*
G75*
G02*
X-12890033Y-11898639I-662210J-662155D01*
G01*
D51*
X12377238Y-18514604D02*
G75*
G02*
X12338589Y-18498610I-38J54604D01*
G01*
D50*
X19570000Y4535858D02*
G75*
G03*
X19560012Y4560012I-34100J42D01*
G01*
X-7947215Y-8217215D02*
G75*
G02*
X-8313053Y-8368790I-365885J365815D01*
G01*
D53*
X6650165Y-9240165D02*
G75*
G03*
X6010000Y-8974991I-640165J-640135D01*
G01*
D50*
X-8086814Y-8399836D02*
G75*
G03*
X-8313053Y-8368755I-236186J-880264D01*
G01*
D53*
X7382132Y-9760000D02*
G75*
G02*
X7019991Y-9610009I-32J512100D01*
G01*
X-15036446Y-10368775D02*
G75*
G03*
X-15232159Y-10433184I3546J-340325D01*
G01*
D52*
X-10092769Y-5462735D02*
G75*
G03*
X-10250035Y-5936649I588269J-458265D01*
G01*
D53*
%TO.N,VBAT*%
X11560000Y-11197500D02*
X11560000Y-11712721D01*
D52*
X14922523Y-15025156D02*
X15394604Y-15497238D01*
X13860000Y-12415563D02*
X13860000Y-12460000D01*
X12520000Y-12060000D02*
X13532721Y-12060000D01*
D53*
X11963847Y-12060000D02*
X12520000Y-12060000D01*
X11560000Y-11712721D02*
G75*
G03*
X11650006Y-11929994I307300J21D01*
G01*
D52*
X13750000Y-12150000D02*
G75*
G02*
X13860015Y-12415563I-265600J-265600D01*
G01*
X13532721Y-12060000D02*
G75*
G02*
X13749994Y-12150006I-21J-307300D01*
G01*
X13860000Y-12460000D02*
G75*
G03*
X14922518Y-15025161I3627700J0D01*
G01*
D53*
X11650000Y-11930000D02*
G75*
G03*
X11963847Y-12059980I313800J313800D01*
G01*
D54*
%TO.N,EN*%
X-1490000Y13490000D02*
X-1371421Y13608579D01*
X-1800000Y12980000D02*
X-1768285Y13011715D01*
X-230000Y13570000D02*
X233119Y13106881D01*
D50*
X-4145016Y12715016D02*
X-3176104Y12715016D01*
D54*
X-1636360Y13343639D02*
X-1490000Y13490000D01*
X-1700000Y13176569D02*
X-1700000Y13190000D01*
X-981716Y13770000D02*
X-712842Y13770000D01*
X-2995000Y12640000D02*
X-2620832Y12640000D01*
X-1700000Y13190000D02*
G75*
G02*
X-1636365Y13343644I217300J0D01*
G01*
X-2620832Y12640000D02*
G75*
G03*
X-1799990Y12979990I32J1160800D01*
G01*
X233119Y13106881D02*
G75*
G02*
X469989Y12535000I-571919J-571881D01*
G01*
X-1371421Y13608579D02*
G75*
G02*
X-981716Y13770019I389721J-389679D01*
G01*
X-712842Y13770000D02*
G75*
G02*
X-229987Y13570013I42J-682800D01*
G01*
X-1768285Y13011715D02*
G75*
G03*
X-1699967Y13176569I-164815J164885D01*
G01*
D50*
X-3176104Y12715016D02*
G75*
G02*
X-2994999Y12640001I4J-256116D01*
G01*
%TO.N,+3V3*%
X4318696Y11195337D02*
X4318696Y10114275D01*
D52*
X14600000Y-4400000D02*
X13800000Y-5200000D01*
X9600000Y12101594D02*
X9600000Y9930000D01*
X4490000Y-9457500D02*
X4490000Y-8452426D01*
X14937500Y-4400000D02*
X14600000Y-4400000D01*
X2800000Y-9877500D02*
X2800000Y-8531799D01*
D50*
X-2995000Y13910000D02*
X-4045538Y13910000D01*
D52*
X10509900Y13449901D02*
X9910000Y12850000D01*
D53*
X-10358085Y-16238084D02*
X-10040000Y-15920000D01*
D50*
X4280000Y11265000D02*
X4298098Y11245048D01*
X4298098Y11245048D02*
X4318696Y11195337D01*
X19570000Y-1323600D02*
X19570000Y-2799998D01*
D52*
X10518484Y13453456D02*
X10509900Y13449901D01*
X4490000Y-8452426D02*
G75*
G03*
X4460008Y-8379992I-102400J26D01*
G01*
X9910000Y12850000D02*
G75*
G03*
X9600003Y12101594I748400J-748400D01*
G01*
D53*
X-10503750Y-16589752D02*
G75*
G02*
X-10358064Y-16238105I497350J-48D01*
G01*
D50*
X4318696Y10114275D02*
G75*
G03*
X4540007Y9580007I755604J25D01*
G01*
D52*
X2800000Y-8531799D02*
G75*
G02*
X2810009Y-8507666I34100J-1D01*
G01*
D54*
%TO.N,VSYS*%
X10360000Y-11197500D02*
X10360000Y-11910000D01*
D53*
X14700000Y-8160000D02*
X14710000Y-8150000D01*
X10802500Y-13490000D02*
X10330000Y-13490000D01*
X-10627072Y-7817072D02*
X-10620000Y-7800000D01*
X11250000Y-12380000D02*
X12239896Y-13369896D01*
D50*
X11160000Y-5180000D02*
X11160000Y-4160000D01*
D53*
X12997500Y-8160000D02*
X14700000Y-8160000D01*
D52*
X11693977Y-13263977D02*
X11600000Y-13170000D01*
X3010000Y10957990D02*
X3010000Y11265000D01*
D49*
X11160000Y-11197500D02*
X11160000Y-12020000D01*
D53*
X-11476968Y-9596968D02*
X-10573487Y-9596968D01*
D52*
X15517500Y-8697500D02*
X15517500Y-8700000D01*
X3470000Y9780000D02*
X3470000Y9913016D01*
D53*
X10830000Y-13517500D02*
X10830000Y-13469116D01*
D52*
X14721061Y-8161061D02*
X15040442Y-8161061D01*
D50*
X-10244078Y-8175921D02*
X-10620000Y-7800000D01*
X10200000Y-5200000D02*
X11190000Y-4210000D01*
D53*
X10040000Y-13780000D02*
X10040000Y-16804999D01*
D50*
X11190000Y-4130000D02*
X11418163Y-4130000D01*
D49*
X11160000Y-12020000D02*
X11160000Y-12162721D01*
D50*
X-11049152Y-7370848D02*
X-10620000Y-7800000D01*
D52*
X11160000Y-5550000D02*
X11160000Y-5180000D01*
D53*
X-11482042Y-9602042D02*
X-11476968Y-9596968D01*
D50*
X-9806947Y-9231250D02*
X-9806947Y-9883053D01*
D53*
X-11684670Y-9602042D02*
X-11482042Y-9602042D01*
X-12087801Y-9277801D02*
X-10627072Y-7817072D01*
D50*
X11190000Y-4210000D02*
X11190000Y-4130000D01*
D53*
X11160000Y-6322500D02*
X11160000Y-5550000D01*
D50*
X-9806947Y-9883053D02*
X-9510000Y-10180000D01*
D52*
X3260000Y10420000D02*
X3213640Y10466360D01*
D53*
X10830000Y-13517500D02*
X10772500Y-13517500D01*
D52*
X14710000Y-8150000D02*
X14721061Y-8161061D01*
X11551252Y-13218747D02*
X11600000Y-13170000D01*
D53*
X-11996569Y-9776570D02*
X-11960000Y-9740000D01*
X10360000Y-12334437D02*
X10360000Y-11910000D01*
X12997500Y-7760000D02*
X13490000Y-7760000D01*
X-11960000Y-9740000D02*
G75*
G02*
X-11684670Y-9602045I349900J-354600D01*
G01*
X-10573487Y-9596968D02*
G75*
G03*
X-9806949Y-9231248I-139213J1277968D01*
G01*
D52*
X10830000Y-13517500D02*
G75*
G03*
X11551251Y-13218746I0J1020000D01*
G01*
D53*
X10330000Y-13490000D02*
G75*
G03*
X10040000Y-13780000I0J-290000D01*
G01*
D52*
X3213640Y10466360D02*
G75*
G02*
X3010002Y10957990I491660J491640D01*
G01*
X15040442Y-8161061D02*
G75*
G02*
X15517552Y-8697500I-65042J-538239D01*
G01*
D53*
X10830000Y-13517500D02*
G75*
G03*
X10802500Y-13490000I-27500J0D01*
G01*
X12239896Y-13369896D02*
G75*
G02*
X12300002Y-13515000I-145096J-145104D01*
G01*
X13490000Y-7760000D02*
G75*
G02*
X13840000Y-8110000I0J-350000D01*
G01*
X10830000Y-13469116D02*
G75*
G03*
X10470005Y-12599995I-1229100J16D01*
G01*
X-12296620Y-9364289D02*
G75*
G03*
X-12087800Y-9277802I20J295289D01*
G01*
D52*
X3470000Y9913016D02*
G75*
G03*
X3259996Y10419996I-717000J-16D01*
G01*
D53*
X10470000Y-12600000D02*
G75*
G02*
X10359985Y-12334437I265600J265600D01*
G01*
D50*
X-11466608Y-6363040D02*
G75*
G03*
X-11049147Y-7370843I1425308J40D01*
G01*
D53*
X10040000Y-16804999D02*
G75*
G02*
X9480000Y-17365000I-560000J-1D01*
G01*
D50*
X11160000Y-4160000D02*
G75*
G02*
X11190000Y-4130000I30000J0D01*
G01*
D49*
X11160000Y-12162721D02*
G75*
G03*
X11250006Y-12379994I307300J21D01*
G01*
D50*
X-9806947Y-9231250D02*
G75*
G03*
X-10244105Y-8175948I-1492453J-50D01*
G01*
D53*
X-12046622Y-9797302D02*
G75*
G03*
X-11996555Y-9776584I22J70802D01*
G01*
D52*
X12300000Y-13515000D02*
G75*
G02*
X11693986Y-13263968I0J857000D01*
G01*
D49*
%TO.N,CAM_PCLK*%
X8662539Y4384067D02*
X8662539Y4160000D01*
X3881594Y5020000D02*
X-2995000Y5020000D01*
X8530539Y3803933D02*
X8464539Y3803933D01*
X8332539Y4160000D02*
X8332539Y4384067D01*
X8662539Y4160000D02*
X8662539Y3935933D01*
X9652539Y4028000D02*
X9652539Y4160000D01*
X8860539Y4516067D02*
X8794539Y4516067D01*
X9982539Y4028000D02*
X9982539Y3935933D01*
X7870539Y3803933D02*
X7804539Y3803933D01*
X8332539Y3935933D02*
X8332539Y4160000D01*
X7210539Y4160000D02*
X7144539Y4160000D01*
X14050000Y3720000D02*
X14055552Y3722300D01*
X8992539Y3935933D02*
X8992539Y4160000D01*
X7342539Y4384055D02*
X7342539Y4292000D01*
X14064726Y3722300D02*
X11240000Y3722300D01*
X11240000Y3722300D02*
X11223246Y3722300D01*
X8200539Y4516067D02*
X8134539Y4516067D01*
X10250589Y4160000D02*
X10114539Y4160000D01*
X8992539Y4160000D02*
X8992539Y4384067D01*
X9322539Y4160000D02*
X9322539Y3935933D01*
X4899878Y4570122D02*
X4851923Y4618076D01*
X9652539Y4160000D02*
X9652539Y4384067D01*
X9652539Y3935933D02*
X9652539Y4028000D01*
X9520539Y4516067D02*
X9454539Y4516067D01*
X9190539Y3803933D02*
X9124539Y3803933D01*
X7672539Y4292000D02*
X7672539Y4384055D01*
X9850539Y3803933D02*
X9784539Y3803933D01*
X6990000Y4160000D02*
X5890000Y4160000D01*
X7144539Y4160000D02*
X6990000Y4160000D01*
X7672539Y4160000D02*
X7672539Y4292000D01*
X8002539Y4384067D02*
X8002539Y4160000D01*
X7672539Y3935933D02*
X7672539Y4160000D01*
X7540539Y4516055D02*
X7474539Y4516055D01*
X9322539Y4384067D02*
X9322539Y4160000D01*
X14055552Y3722300D02*
X14064726Y3722300D01*
X8002539Y4160000D02*
X8002539Y3935933D01*
X8002539Y3935933D02*
G75*
G02*
X7870539Y3803861I-132039J-33D01*
G01*
X8794539Y4516067D02*
G75*
G03*
X8662533Y4384067I-39J-131967D01*
G01*
X4851923Y4618076D02*
G75*
G03*
X3881594Y5019981I-970323J-970376D01*
G01*
X7474539Y4516055D02*
G75*
G03*
X7342545Y4384055I-39J-131955D01*
G01*
X9652539Y4384067D02*
G75*
G03*
X9520539Y4516139I-132039J33D01*
G01*
X7342539Y4292000D02*
G75*
G02*
X7210539Y4159961I-132039J0D01*
G01*
X5890000Y4160000D02*
G75*
G02*
X4899887Y4570131I0J1400200D01*
G01*
X8662539Y3935933D02*
G75*
G02*
X8530539Y3803861I-132039J-33D01*
G01*
X9982539Y3935933D02*
G75*
G02*
X9850539Y3803861I-132039J-33D01*
G01*
X8464539Y3803933D02*
G75*
G02*
X8332533Y3935933I-39J131967D01*
G01*
X9784539Y3803933D02*
G75*
G02*
X9652533Y3935933I-39J131967D01*
G01*
X11223246Y3722300D02*
G75*
G02*
X10829992Y3919992I110454J709700D01*
G01*
X10830000Y3920000D02*
G75*
G03*
X10250589Y4159995I-579400J-579400D01*
G01*
X9124539Y3803933D02*
G75*
G02*
X8992533Y3935933I-39J131967D01*
G01*
X8992539Y4384067D02*
G75*
G03*
X8860539Y4516139I-132039J33D01*
G01*
X8134539Y4516067D02*
G75*
G03*
X8002533Y4384067I-39J-131967D01*
G01*
X9322539Y3935933D02*
G75*
G02*
X9190539Y3803861I-132039J-33D01*
G01*
X7672539Y4384055D02*
G75*
G03*
X7540539Y4516139I-132039J45D01*
G01*
X9454539Y4516067D02*
G75*
G03*
X9322533Y4384067I-39J-131967D01*
G01*
X10114539Y4160000D02*
G75*
G03*
X9982500Y4028000I-39J-132000D01*
G01*
X8332539Y4384067D02*
G75*
G03*
X8200539Y4516139I-132039J33D01*
G01*
X7804539Y3803933D02*
G75*
G02*
X7672533Y3935933I-39J131967D01*
G01*
D53*
%TO.N,+2V8*%
X11960000Y-6322500D02*
X11960000Y-6059411D01*
D52*
X16830000Y-2420000D02*
X16830000Y-2760000D01*
X16830000Y-1770000D02*
X16830000Y-2420000D01*
D53*
X16154507Y-2420000D02*
X16830000Y-2420000D01*
X16820000Y-2750000D02*
X16830000Y-2760000D01*
D52*
X16830000Y-2760000D02*
X16354142Y-2760000D01*
D53*
X12200000Y-5480000D02*
X14627484Y-3052516D01*
X11960000Y-6059411D02*
G75*
G02*
X12199997Y-5479997I819400J11D01*
G01*
X14627484Y-3052516D02*
G75*
G02*
X16154507Y-2419996I1527016J-1526984D01*
G01*
%TO.N,Net-(U5-VREF)*%
X8122500Y-10160000D02*
X7375563Y-10160000D01*
X6494376Y-10525000D02*
X6010000Y-10525000D01*
X7110000Y-10270000D02*
G75*
G02*
X6494376Y-10524990I-615600J615600D01*
G01*
X7375563Y-10160000D02*
G75*
G03*
X7110011Y-10270011I37J-375600D01*
G01*
D51*
%TO.N,VBUS*%
X6840000Y-13960000D02*
X8155853Y-13960000D01*
D50*
X9200000Y-13527500D02*
X9198232Y-13531768D01*
D53*
X9960000Y-11197500D02*
X9960000Y-12085614D01*
X9960000Y-12085614D02*
G75*
G02*
X9369996Y-13509996I-2014400J14D01*
G01*
D51*
X8155853Y-13960000D02*
G75*
G03*
X9200014Y-13527514I47J1476600D01*
G01*
D54*
%TO.N,SW_L3*%
X-19450000Y13820000D02*
X-20277721Y13820000D01*
X-20277721Y13820000D02*
G75*
G02*
X-20494994Y13910006I21J307300D01*
G01*
D53*
%TO.N,Net-(JP4-B)*%
X-14678449Y-8561551D02*
X-15272010Y-7967990D01*
X-16821742Y-7326070D02*
X-16846562Y-7301250D01*
X-15750000Y-7770000D02*
G75*
G02*
X-16821748Y-7326076I0J1515700D01*
G01*
X-14601791Y-8746620D02*
G75*
G03*
X-14678443Y-8561545I-261709J20D01*
G01*
X-15272010Y-7967990D02*
G75*
G03*
X-15750000Y-7770006I-477990J-478010D01*
G01*
D49*
%TO.N,SW_L2*%
X-8668873Y16750000D02*
X5746912Y16750000D01*
X9852253Y14620000D02*
X11909972Y14620000D01*
X-20180000Y12870000D02*
X-12309949Y12870000D01*
X11909972Y14620000D02*
X11916516Y14626544D01*
D53*
X12316619Y17489452D02*
X12316619Y15592478D01*
D49*
X-9411802Y16368198D02*
X-9285356Y16494644D01*
X8056776Y15793223D02*
X8790000Y15060000D01*
X-10620000Y13570000D02*
X-10536102Y13653898D01*
D53*
X12405390Y14137669D02*
X11916516Y14626544D01*
D49*
X8790000Y15060000D02*
G75*
G03*
X9852253Y14619952I1062300J1062200D01*
G01*
X5746912Y16750000D02*
G75*
G02*
X8056782Y15793229I-12J-3266700D01*
G01*
X-10536102Y13653898D02*
G75*
G03*
X-9729999Y15600000I-1946098J1946102D01*
G01*
X-9285356Y16494644D02*
G75*
G02*
X-8668873Y16749992I616456J-616444D01*
G01*
D53*
X12316619Y15592478D02*
G75*
G02*
X11916501Y14626559I-1366019J22D01*
G01*
D49*
X-9730000Y15600000D02*
G75*
G02*
X-9411803Y16368199I1086400J0D01*
G01*
D53*
X12657701Y13528538D02*
G75*
G03*
X12405363Y14137642I-861401J-38D01*
G01*
D49*
X-12309949Y12870000D02*
G75*
G03*
X-10619986Y13569986I49J2389900D01*
G01*
D54*
%TO.N,SW_L1*%
X-16190000Y-2580000D02*
X-16190000Y-1110000D01*
X-16190000Y-1110000D02*
X-15150000Y-70000D01*
%TO.N,Net-(D1-K)*%
X7390000Y-10780000D02*
X7358285Y-10811715D01*
X6730000Y-16980000D02*
X7820000Y-16980000D01*
X8380000Y-17540000D02*
X8380000Y-19873310D01*
X5790000Y-13254142D02*
X5790000Y-16040000D01*
X8122500Y-10560000D02*
X7921126Y-10560000D01*
X5780000Y-13230000D02*
G75*
G02*
X5789983Y-13254142I-24100J-24100D01*
G01*
X5790000Y-16040000D02*
G75*
G03*
X6730000Y-16980000I940000J0D01*
G01*
X7921126Y-10560000D02*
G75*
G03*
X7389992Y-10779992I-26J-751100D01*
G01*
X7820000Y-16980000D02*
G75*
G02*
X8380000Y-17540000I0J-560000D01*
G01*
X8380000Y-19873310D02*
G75*
G03*
X8710003Y-20669997I1126700J10D01*
G01*
D53*
%TO.N,Net-(D1-A)*%
X9670000Y-20670000D02*
X9670000Y-19648700D01*
D54*
X9810000Y-19520000D02*
G75*
G03*
X9480000Y-19190000I-330000J0D01*
G01*
D53*
X9670000Y-19648700D02*
G75*
G03*
X9480000Y-19190000I-648700J0D01*
G01*
%TO.N,+3V3CAM*%
X14430000Y-10640000D02*
X14430000Y-11000000D01*
X12997500Y-8960000D02*
X13470000Y-8960000D01*
D50*
X17770000Y-10340000D02*
X19287500Y-10340000D01*
D53*
X13750000Y-9240000D02*
X13750000Y-9960000D01*
X18580000Y-10730000D02*
X18580000Y-10320000D01*
X14810000Y-11380000D02*
X17930000Y-11380000D01*
X13750000Y-9960000D02*
G75*
G03*
X14150000Y-10360000I400000J0D01*
G01*
X13470000Y-8960000D02*
G75*
G02*
X13750000Y-9240000I0J-280000D01*
G01*
X14430000Y-11000000D02*
G75*
G03*
X14810000Y-11380000I380000J0D01*
G01*
X14150000Y-10360000D02*
G75*
G02*
X14430000Y-10640000I0J-280000D01*
G01*
D50*
X19287500Y-10340000D02*
G75*
G03*
X19350000Y-10277500I0J62500D01*
G01*
D53*
X17930000Y-11380000D02*
G75*
G03*
X18580000Y-10730000I0J650000D01*
G01*
%TO.N,Net-(U5-FB1)*%
X14530000Y-5890000D02*
X17830000Y-5890000D01*
X12997500Y-6960000D02*
X13460000Y-6960000D01*
D50*
X17840000Y-7060000D02*
X17840000Y-4422500D01*
X17840000Y-7060000D02*
X19357500Y-7060000D01*
D53*
X14090000Y-6330000D02*
G75*
G02*
X14530000Y-5890000I440000J0D01*
G01*
D50*
X17840000Y-4422500D02*
G75*
G02*
X17862500Y-4400000I22500J0D01*
G01*
D53*
X13460000Y-6960000D02*
G75*
G03*
X14090000Y-6330000I0J630000D01*
G01*
D50*
X19357500Y-7060000D02*
G75*
G02*
X19420000Y-7122500I0J-62500D01*
G01*
D53*
%TO.N,LEDCNTRL*%
X-9525000Y1707929D02*
X-9530000Y1720000D01*
X-9525000Y-2350000D02*
X-9525000Y1707929D01*
%TO.N,SPK_P*%
X-11823565Y-11211145D02*
X-12298265Y-10736444D01*
D52*
X-7846005Y-15273995D02*
X-8390000Y-14730000D01*
X-9090000Y-12550000D02*
X-9486481Y-12153518D01*
X-9486481Y-12153518D02*
X-9486483Y-12153517D01*
X-8640000Y-14126447D02*
X-8640000Y-13609117D01*
X-10490000Y-11540000D02*
X-11029642Y-11540000D01*
X-9070711Y-12569289D02*
X-9090000Y-12550000D01*
X-9486483Y-12153517D02*
X-9824228Y-11815772D01*
X-8640000Y-13609117D02*
G75*
G03*
X-9070710Y-12569288I-1470500J17D01*
G01*
X-8390000Y-14730000D02*
G75*
G02*
X-8640019Y-14126447I603600J603600D01*
G01*
X-7332249Y-15486800D02*
G75*
G02*
X-7846039Y-15274029I-51J726600D01*
G01*
D53*
X-11029642Y-11540000D02*
G75*
G02*
X-11823549Y-11211129I42J1122800D01*
G01*
D52*
X-9824228Y-11815772D02*
G75*
G03*
X-10490000Y-11539987I-665772J-665728D01*
G01*
D53*
%TO.N,SPK_N*%
X-12570000Y-11250000D02*
X-12658951Y-11161049D01*
X-12250000Y-12148344D02*
X-12250000Y-12180000D01*
X-12250000Y-12180000D02*
X-12250000Y-12263016D01*
D52*
X-11760181Y-13049820D02*
X-12040000Y-12770000D01*
X-12040000Y-12770000D02*
X-12087625Y-12768006D01*
X-12254225Y-12365799D02*
X-12254225Y-12040000D01*
D53*
X-12658951Y-11161048D02*
X-12570000Y-11250000D01*
D52*
X-12087625Y-12768006D02*
G75*
G02*
X-12254219Y-12365799I402225J402206D01*
G01*
X-11027753Y-13353201D02*
G75*
G02*
X-11760202Y-13049841I-47J1035801D01*
G01*
D53*
X-12658951Y-11161049D02*
G75*
G02*
X-12250018Y-12148344I-987249J-987251D01*
G01*
X-12731275Y-10986444D02*
G75*
G03*
X-12658918Y-11161015I246875J44D01*
G01*
D49*
%TO.N,RXD*%
X-8076411Y13240000D02*
X-7980000Y13240000D01*
X-20180000Y10330000D02*
X-13659274Y10330000D01*
X2710000Y13630000D02*
X1828388Y12748388D01*
X-10895000Y11475000D02*
X-9875000Y12495000D01*
X1828388Y12748388D02*
G75*
G03*
X1740007Y12535000I213412J-213388D01*
G01*
X-13659274Y10330000D02*
G75*
G03*
X-10895007Y11475007I-26J3909300D01*
G01*
X-9875000Y12495000D02*
G75*
G02*
X-8076411Y13240005I1798600J-1798600D01*
G01*
%TO.N,TXD*%
X-20180000Y11600000D02*
X-13170000Y11600000D01*
X3010000Y12674315D02*
X3010000Y12535000D01*
X-10814192Y12575807D02*
X-9275306Y14114693D01*
X-9275306Y14114693D02*
X-9264693Y14114693D01*
X3410000Y13640000D02*
G75*
G03*
X3009994Y12674315I965700J-965700D01*
G01*
X-13170000Y11600000D02*
G75*
G03*
X-10814196Y12575811I0J3331600D01*
G01*
%TO.N,GPIO0*%
X-6340000Y7310000D02*
X-6340000Y7306560D01*
X465988Y11108466D02*
X467855Y11171289D01*
X-19335269Y-1100000D02*
X-20180000Y-1100000D01*
X-18765114Y-856312D02*
X-18780000Y-870000D01*
X-7271768Y5558232D02*
X-7440000Y5390000D01*
X-6340000Y7306560D02*
X-6771608Y6874952D01*
X467855Y11171289D02*
X470000Y11265000D01*
X-549920Y9955132D02*
X-282526Y10222526D01*
X-9347228Y4600000D02*
X-16022477Y4600000D01*
X-713589Y9164400D02*
X-713589Y9560000D01*
X-282526Y10222526D02*
X364691Y10869742D01*
X-18430000Y2022772D02*
X-18430000Y-47276D01*
X-7440000Y5390000D02*
G75*
G02*
X-9347228Y4600012I-1907200J1907200D01*
G01*
X-18780000Y-870000D02*
G75*
G02*
X-19335269Y-1100013I-555300J555300D01*
G01*
X-16022477Y4600000D02*
G75*
G03*
X-17640007Y3930007I-23J-2287500D01*
G01*
X-18430000Y-47276D02*
G75*
G02*
X-18765112Y-856314I-1144100J-24D01*
G01*
X-7034934Y6130000D02*
G75*
G02*
X-7271775Y5558239I-808566J0D01*
G01*
X-713589Y9560000D02*
G75*
G02*
X-549917Y9955129I558789J0D01*
G01*
X364691Y10869742D02*
G75*
G03*
X466005Y11108464I-379591J301958D01*
G01*
X-6771608Y6874952D02*
G75*
G03*
X-7034941Y6130000I935908J-749852D01*
G01*
X-17640000Y3930000D02*
G75*
G03*
X-18429988Y2022772I1907200J-1907200D01*
G01*
D54*
%TO.N,GPIO46*%
X-5810000Y-1272772D02*
X-5810000Y1000000D01*
X-5943241Y-1406013D02*
X-5810000Y-1272772D01*
X-6030000Y-2580000D02*
X-6030000Y-1761126D01*
X1740000Y11265000D02*
X2192997Y10812003D01*
X2840000Y9250000D02*
X2840000Y8918406D01*
X-6030000Y-1761126D02*
G75*
G02*
X-5943244Y-1406011I789300J-4674D01*
G01*
X2192997Y10812003D02*
G75*
G02*
X2840002Y9250000I-1561997J-1562003D01*
G01*
X2840000Y8918406D02*
G75*
G02*
X2530002Y8169998I-1058400J-6D01*
G01*
D52*
%TO.N,Net-(U5-LX1)*%
X13820000Y-7360000D02*
X14420000Y-7360000D01*
D53*
X12997500Y-7360000D02*
X13820000Y-7360000D01*
D50*
X15240000Y-7360000D02*
X14420000Y-7360000D01*
X15540000Y-7060000D02*
G75*
G02*
X15240000Y-7360000I-300000J0D01*
G01*
D53*
%TO.N,Net-(U5-LX2)*%
X12997500Y-8560000D02*
X13500000Y-8560000D01*
X14260000Y-8800000D02*
X14260000Y-8980000D01*
D52*
X14730000Y-9920000D02*
X15050000Y-9920000D01*
D53*
X13700000Y-8560000D02*
X14020000Y-8560000D01*
X13500000Y-8560000D02*
X13700000Y-8560000D01*
D52*
X14260000Y-8980000D02*
X14260000Y-9450000D01*
X14260000Y-9450000D02*
G75*
G03*
X14730000Y-9920000I470000J0D01*
G01*
D53*
X14020000Y-8560000D02*
G75*
G02*
X14260000Y-8800000I0J-240000D01*
G01*
D52*
X15050000Y-9920000D02*
G75*
G02*
X15470000Y-10340000I0J-420000D01*
G01*
D54*
%TO.N,CAM_PWDN*%
X16714222Y-715778D02*
X16690000Y-740000D01*
X-4760000Y-2580000D02*
X-1489262Y-2580000D01*
X17250000Y67500D02*
X16967613Y-214887D01*
X15181857Y-750997D02*
X16663451Y-750997D01*
X31692Y-1950000D02*
X13110000Y-1950000D01*
X16714222Y-395961D02*
X16714222Y-715778D01*
X13878198Y-1631802D02*
X14460000Y-1050000D01*
X13110000Y-1950000D02*
G75*
G03*
X13878199Y-1631803I0J1086400D01*
G01*
X-1489262Y-2580000D02*
G75*
G03*
X-867541Y-2322459I-38J879300D01*
G01*
X16967613Y-214887D02*
G75*
G02*
X16714223Y-395964I-773513J814587D01*
G01*
X16663451Y-750997D02*
G75*
G03*
X16690014Y-740014I49J37497D01*
G01*
X-867530Y-2322470D02*
G75*
G02*
X31692Y-1949997I899230J-899230D01*
G01*
X14460000Y-1050000D02*
G75*
G02*
X15181857Y-750979I721900J-721900D01*
G01*
D49*
%TO.N,CAM_RESET*%
X-20495000Y8830000D02*
X-19230000Y8830000D01*
X-19230000Y8830000D02*
X-19200000Y8800000D01*
D53*
%TO.N,PMIC_PWRON*%
X-1673371Y-21815000D02*
X-190000Y-21815000D01*
X-2310000Y-22590000D02*
X-2307759Y-22587759D01*
D54*
X12997500Y-10560000D02*
X13370000Y-10560000D01*
X13520000Y-10710000D02*
X13520000Y-11200000D01*
D53*
X-2307759Y-22587759D02*
X-2307759Y-22373592D01*
D54*
X13520000Y-11200000D02*
G75*
G03*
X13530000Y-11210000I10000J0D01*
G01*
D53*
X-2307759Y-22373592D02*
G75*
G02*
X-2119973Y-22000027I673559J-104608D01*
G01*
D54*
X13370000Y-10560000D02*
G75*
G02*
X13520000Y-10710000I0J-150000D01*
G01*
D53*
X-2120000Y-22000000D02*
G75*
G02*
X-1673371Y-21815012I446600J-446600D01*
G01*
D50*
%TO.N,Net-(P1-SHIELD)*%
X6920000Y-21262500D02*
X4326035Y-21262500D01*
X4326035Y-21262500D02*
X4320000Y-21260000D01*
D53*
%TO.N,I2SDAT_MIC*%
X-20180000Y5250000D02*
X-19170000Y5250000D01*
X-20220000Y5210000D02*
G75*
G03*
X-20180000Y5250000I0J40000D01*
G01*
D49*
%TO.N,CAM_SDA*%
X-7692893Y-92893D02*
X-7907107Y-307107D01*
X-6350417Y4600000D02*
X-6414214Y4600000D01*
X-8492893Y-2502893D02*
X-8570000Y-2580000D01*
D54*
X-2231127Y-5880000D02*
X-130000Y-5880000D01*
X2377996Y-11702500D02*
X2800000Y-11702500D01*
X930000Y-11070000D02*
X985857Y-11125857D01*
D49*
X-5710000Y5490832D02*
X-5710000Y5182132D01*
D54*
X-7281889Y-5870000D02*
X-2390000Y-5870000D01*
X-2390000Y-5870000D02*
X-2255269Y-5870000D01*
D49*
X-8200000Y-1014214D02*
X-8200000Y-1795786D01*
D54*
X9160000Y-11197500D02*
X9160000Y-11639584D01*
X8990000Y-12050000D02*
X8952590Y-12016068D01*
X8990000Y-12050000D02*
X8960229Y-12022624D01*
X347990Y-6077990D02*
X401715Y-6131715D01*
X580000Y-6562133D02*
X580000Y-10225026D01*
D49*
X-7400000Y3585786D02*
X-7400000Y614214D01*
D54*
X-8375857Y-5384143D02*
X-8320000Y-5440000D01*
D49*
X5000000Y14014214D02*
X5000000Y15185786D01*
X-5860000Y4820000D02*
X-5888786Y4791214D01*
X5550000Y12686396D02*
X5550000Y12535000D01*
D54*
X8960229Y-12022624D02*
X3572847Y-12022624D01*
D49*
X3401298Y16400000D02*
X-4888163Y16400000D01*
D54*
X-8570000Y-2580000D02*
X-8570000Y-4915441D01*
D49*
X-5710000Y15719584D02*
X-5710000Y5490832D01*
X-7044515Y4338921D02*
X-7118819Y4264617D01*
D54*
X580000Y-10225026D02*
G75*
G03*
X930007Y-11069993I1195000J26D01*
G01*
D49*
X-7400000Y614214D02*
G75*
G02*
X-7692886Y-92900I-1000000J-14D01*
G01*
X-5540000Y16130000D02*
G75*
G03*
X-5709993Y15719584I410400J-410400D01*
G01*
D54*
X-2255269Y-5870000D02*
G75*
G03*
X-2231127Y-5880031I24169J24100D01*
G01*
D49*
X5000000Y14014214D02*
G75*
G03*
X5292886Y13307100I1000000J-14D01*
G01*
D54*
X3572847Y-12022624D02*
G75*
G02*
X2799986Y-11702514I-47J1092924D01*
G01*
D49*
X-5888786Y4791214D02*
G75*
G02*
X-6350417Y4599999I-461614J461586D01*
G01*
X4758025Y15838025D02*
G75*
G03*
X3401298Y16399999I-1356725J-1356725D01*
G01*
D54*
X-130000Y-5880000D02*
G75*
G02*
X347994Y-6077986I0J-676000D01*
G01*
D49*
X-8200000Y-1795786D02*
G75*
G02*
X-8492886Y-2502900I-1000000J-14D01*
G01*
D54*
X985857Y-11125857D02*
G75*
G03*
X2377996Y-11702497I1392143J1392157D01*
G01*
X-8570000Y-4915441D02*
G75*
G03*
X-8375827Y-5384113I662800J41D01*
G01*
D49*
X5000000Y15185786D02*
G75*
G03*
X4707114Y15892900I-1000000J14D01*
G01*
X-4888163Y16400000D02*
G75*
G03*
X-5540011Y16130011I-37J-921800D01*
G01*
X-7118819Y4264617D02*
G75*
G03*
X-7399994Y3585786I678819J-678817D01*
G01*
D54*
X401715Y-6131715D02*
G75*
G02*
X579978Y-6562133I-430415J-430385D01*
G01*
D49*
X5292893Y13307107D02*
G75*
G02*
X5550002Y12686396I-620693J-620707D01*
G01*
X-6414214Y4600000D02*
G75*
G03*
X-7044512Y4338918I14J-891400D01*
G01*
D54*
X9160000Y-11639584D02*
G75*
G02*
X8990005Y-12050005I-580400J-16D01*
G01*
D49*
X-5710000Y5182132D02*
G75*
G02*
X-5859991Y4819991I-512100J-32D01*
G01*
D54*
X-8320000Y-5440000D02*
G75*
G03*
X-7281889Y-5869995I1038100J1038100D01*
G01*
D49*
X-7907107Y-307107D02*
G75*
G03*
X-8199990Y-1014214I707107J-707093D01*
G01*
%TO.N,CAM_SCL*%
X-6824830Y-421952D02*
X-6892893Y-492893D01*
X-6640391Y-76881D02*
X-6715617Y-258499D01*
X-5090470Y14484817D02*
X-5092893Y14385820D01*
X4239609Y14596881D02*
X4164383Y14778499D01*
X-4468250Y15641749D02*
X-4630000Y15480000D01*
X-7297948Y-1215924D02*
X-7300000Y-1314214D01*
D54*
X-7030000Y-4690000D02*
X-7102929Y-4617071D01*
D49*
X-6637819Y2800096D02*
X-6640391Y2688275D01*
D54*
X1130000Y-9404142D02*
X1130000Y-6027989D01*
D49*
X-6307107Y3492893D02*
X-6384366Y3412013D01*
X4055170Y14941952D02*
X3987107Y15012893D01*
X-6892893Y-492893D02*
X-7007107Y-607107D01*
X-6508612Y3226060D02*
X-6594193Y3019441D01*
X-5090470Y14484817D02*
X-5090470Y14585746D01*
X-6384366Y3412013D02*
X-6508612Y3226060D01*
D54*
X3830000Y-10840000D02*
X2132548Y-10840000D01*
X7970000Y-11400000D02*
X7950975Y-11400927D01*
X1360000Y-10520000D02*
X1318285Y-10478285D01*
D49*
X-7259600Y-1023122D02*
X-7297948Y-1215924D01*
X-6715617Y-258499D02*
X-6824830Y-421952D01*
D54*
X8160000Y-11590000D02*
X7970000Y-11400000D01*
X8760000Y-11197500D02*
X8760000Y-11461716D01*
D49*
X4280000Y14305786D02*
X4277958Y14404077D01*
D54*
X8507686Y-11600000D02*
X8184142Y-11600000D01*
X8760000Y-11197500D02*
X8758253Y-11256332D01*
X-1693244Y-5330000D02*
X-5484904Y-5330000D01*
D49*
X-5092893Y14385820D02*
X-5092893Y5127279D01*
X4164383Y14778499D02*
X4055170Y14941952D01*
X-6640391Y2688275D02*
X-6640391Y-76881D01*
X-6594193Y3019441D02*
X-6637819Y2800096D01*
X2000000Y16000000D02*
X-3603357Y16000000D01*
D54*
X8740000Y-11510000D02*
X8749049Y-11500024D01*
D49*
X4280000Y12535000D02*
X4280000Y14305786D01*
D54*
X1130000Y-10023725D02*
X1130000Y-9404142D01*
D49*
X-5390000Y4410000D02*
X-6307107Y3492893D01*
X3987107Y15012893D02*
X3707107Y15292893D01*
D54*
X4490000Y-11282500D02*
X4477196Y-11277197D01*
D49*
X-4630000Y15480000D02*
X-4783738Y15326262D01*
X-7075162Y-678054D02*
X-7184374Y-841505D01*
X-7184374Y-841505D02*
X-7259600Y-1023122D01*
X4277958Y14404077D02*
X4239609Y14596881D01*
D54*
X120884Y-5330000D02*
X-1693244Y-5330000D01*
X4490000Y-11282500D02*
X4201296Y-10993796D01*
X7970000Y-11400000D02*
X4773670Y-11400000D01*
X-7300000Y-4141300D02*
X-7300000Y-2580000D01*
D49*
X-7300000Y-1314214D02*
X-7300000Y-2580000D01*
X-7007107Y-607107D02*
X-7075162Y-678054D01*
D54*
X4201296Y-10993796D02*
G75*
G03*
X3830000Y-10840003I-371296J-371304D01*
G01*
D49*
X-5090470Y14585746D02*
G75*
G02*
X-4783720Y15326244I1047270J-46D01*
G01*
X-5092893Y5127279D02*
G75*
G02*
X-5390006Y4410006I-1014407J21D01*
G01*
D54*
X990000Y-5690000D02*
G75*
G03*
X120884Y-5330007I-869100J-869100D01*
G01*
X8760000Y-11461716D02*
G75*
G02*
X8739995Y-11509995I-68300J16D01*
G01*
X1130000Y-6027989D02*
G75*
G03*
X989997Y-5690003I-478000J-11D01*
G01*
X-5484904Y-5330000D02*
G75*
G02*
X-7029999Y-4689999I4J2185100D01*
G01*
X-7102929Y-4617071D02*
G75*
G02*
X-7300012Y-4141300I475729J475771D01*
G01*
X2132548Y-10840000D02*
G75*
G02*
X1359986Y-10520014I-48J1092500D01*
G01*
X1318285Y-10478285D02*
G75*
G02*
X1129969Y-10023725I454515J454585D01*
G01*
X8184142Y-11600000D02*
G75*
G02*
X8159988Y-11590012I-42J34100D01*
G01*
X4773670Y-11400000D02*
G75*
G02*
X4490009Y-11282491I30J401200D01*
G01*
D49*
X3707107Y15292893D02*
G75*
G03*
X2000000Y16000004I-1707107J-1707093D01*
G01*
X-3603357Y16000000D02*
G75*
G03*
X-4468263Y15641762I-43J-1223100D01*
G01*
D54*
X8749049Y-11500024D02*
G75*
G02*
X8507686Y-11600001I-241349J241324D01*
G01*
%TO.N,PMIC_IRQ*%
X-60000Y-15160000D02*
X60000Y-15160000D01*
X-20180000Y6520000D02*
X-19134142Y6520000D01*
X9197839Y-12600000D02*
X9263321Y-12534518D01*
X9263321Y-12534518D02*
X9560000Y-12237838D01*
X5646934Y-12600000D02*
X9197839Y-12600000D01*
X9560000Y-12237838D02*
X9560000Y-11197500D01*
X3030366Y-13929634D02*
X3450000Y-13510000D01*
X-2120000Y-14120000D02*
X-1801249Y-14438751D01*
X-1330000Y-10120000D02*
X-1830430Y-10620430D01*
X-2700000Y-12719757D02*
G75*
G03*
X-2120013Y-14120013I1980200J-43D01*
G01*
X-19134142Y6520000D02*
G75*
G02*
X-19109988Y6510012I42J-34100D01*
G01*
X-1830430Y-10620430D02*
G75*
G03*
X-2700029Y-12719757I2099330J-2099370D01*
G01*
X60000Y-15160000D02*
G75*
G03*
X3030359Y-13929627I0J4200700D01*
G01*
X3450000Y-13510000D02*
G75*
G02*
X5646934Y-12600014I2196900J-2196900D01*
G01*
X-1801249Y-14438751D02*
G75*
G03*
X-60000Y-15159999I1741249J1741251D01*
G01*
%TO.N,SDMODE_AMP*%
X-13735763Y-8246621D02*
X-13969206Y-8013178D01*
X-13335000Y-2350000D02*
X-13335000Y-5805000D01*
X-13969206Y-8013178D02*
X-13969206Y-6439206D01*
X-13969206Y-6439206D02*
G75*
G02*
X-13600000Y-6069994I369206J6D01*
G01*
X-13335000Y-5805000D02*
G75*
G02*
X-13600000Y-6070000I-265000J0D01*
G01*
%TO.N,BCLK_AMP*%
X-15286444Y-9935762D02*
X-15894238Y-9935762D01*
X-12065000Y-3675000D02*
X-12065000Y-2350000D01*
X-13360000Y-7580000D02*
X-13360000Y-6660000D01*
X-15894238Y-9935762D02*
X-15900000Y-9930000D01*
X-12820000Y-6120000D02*
X-12820000Y-4430000D01*
X-13090000Y-6390000D02*
G75*
G03*
X-12820000Y-6120000I0J270000D01*
G01*
X-12820000Y-4430000D02*
G75*
G02*
X-12280000Y-3890000I540000J0D01*
G01*
X-12280000Y-3890000D02*
G75*
G03*
X-12065000Y-3675000I0J215000D01*
G01*
X-13360000Y-6660000D02*
G75*
G02*
X-13090000Y-6390000I270000J0D01*
G01*
%TO.N,I2SDAT_AMP*%
X-21810000Y3430000D02*
X-21810000Y-2330000D01*
X-18120000Y-4540000D02*
X-18120000Y-6680000D01*
X-18880000Y-4170000D02*
X-18490000Y-4170000D01*
X-21304066Y-2898601D02*
X-20151399Y-2898601D01*
X-20180000Y3980000D02*
X-21260000Y3980000D01*
X-16110000Y-8690000D02*
X-15341421Y-8690000D01*
X-20151399Y-2898601D02*
X-18880000Y-4170000D01*
X-18490000Y-4170000D02*
G75*
G02*
X-18120000Y-4540000I0J-370000D01*
G01*
X-21260000Y3980000D02*
G75*
G03*
X-21810000Y3430000I0J-550000D01*
G01*
X-15341421Y-8690000D02*
G75*
G02*
X-15034800Y-8996620I21J-306600D01*
G01*
X-18120000Y-6680000D02*
G75*
G03*
X-16110000Y-8690000I2010000J0D01*
G01*
X-21810000Y-2330000D02*
G75*
G03*
X-21304056Y-2898520I574300J1700D01*
G01*
%TO.N,WS_AMP*%
X-11706847Y-5050000D02*
X-11730000Y-5050000D01*
X-10795000Y-2350000D02*
X-10795000Y-4138153D01*
X-15230000Y-11410000D02*
X-15230000Y-11521300D01*
X-14323014Y-11943015D02*
X-14180000Y-11800000D01*
X-15235573Y-11396546D02*
X-15230000Y-11410000D01*
X-15235573Y-11175107D02*
X-15235573Y-11396546D01*
X-12380000Y-5700000D02*
X-12380000Y-7700000D01*
X-14915863Y-10855397D02*
X-15235573Y-11175107D01*
X-15040000Y-11980000D02*
G75*
G03*
X-14726153Y-12109980I313800J313800D01*
G01*
X-10795000Y-4138153D02*
G75*
G02*
X-11706847Y-5050000I-911800J-47D01*
G01*
X-14786445Y-10801790D02*
G75*
G03*
X-14915838Y-10855422I45J-183010D01*
G01*
X-14726153Y-12110000D02*
G75*
G03*
X-14323043Y-11942986I-47J570100D01*
G01*
X-11730000Y-5050000D02*
G75*
G03*
X-12380000Y-5700000I0J-650000D01*
G01*
X-15230000Y-11521300D02*
G75*
G03*
X-15040000Y-11980000I648700J0D01*
G01*
X-12380000Y-7700000D02*
G75*
G02*
X-12440000Y-7760000I-60000J0D01*
G01*
D49*
%TO.N,CAM_Y3*%
X-2995000Y10100000D02*
X-1964142Y10100000D01*
X-1964142Y10100000D02*
G75*
G03*
X-1939988Y10109988I42J34100D01*
G01*
%TO.N,CAM_MCLK*%
X3040000Y1400000D02*
X3040000Y1596962D01*
X3040000Y1220000D02*
X3040000Y1400000D01*
X970000Y1400000D02*
X780000Y1400000D01*
X6990000Y1400000D02*
X3670000Y1400000D01*
X7576741Y1400000D02*
X6990000Y1400000D01*
X1690000Y1596962D02*
X1690000Y1400000D01*
X3490000Y1220000D02*
X3490000Y1203038D01*
X1240000Y1203038D02*
X1240000Y1220000D01*
X1690000Y1220000D02*
X1690000Y1203038D01*
X2590000Y1596962D02*
X2590000Y1400000D01*
X780000Y1400000D02*
X-2805000Y1400000D01*
X3040000Y1203038D02*
X3040000Y1220000D01*
X1690000Y1400000D02*
X1690000Y1220000D01*
X2860000Y1776962D02*
X2770000Y1776962D01*
X1060000Y1400000D02*
X970000Y1400000D01*
X2140000Y1203038D02*
X2140000Y1400000D01*
X2140000Y1400000D02*
X2140000Y1596962D01*
X-2805000Y1400000D02*
X-2995000Y1210000D01*
X1510000Y1023038D02*
X1420000Y1023038D01*
X2410000Y1023038D02*
X2320000Y1023038D01*
X3310000Y1023038D02*
X3220000Y1023038D01*
X2590000Y1400000D02*
X2590000Y1203038D01*
X1960000Y1776962D02*
X1870000Y1776962D01*
X3670000Y1400000D02*
G75*
G03*
X3490000Y1220000I0J-180000D01*
G01*
X3040000Y1596962D02*
G75*
G03*
X2860000Y1777000I-180000J38D01*
G01*
X2320000Y1023038D02*
G75*
G02*
X2140038Y1203038I0J179962D01*
G01*
X2140000Y1596962D02*
G75*
G03*
X1960000Y1777000I-180000J38D01*
G01*
X-2843352Y1272815D02*
G75*
G03*
X-2995014Y1210014I-48J-214415D01*
G01*
X1690000Y1203038D02*
G75*
G02*
X1510000Y1023000I-180000J-38D01*
G01*
X8470000Y1770000D02*
G75*
G02*
X7576741Y1399983I-893300J893300D01*
G01*
X2590000Y1203038D02*
G75*
G02*
X2410000Y1023000I-180000J-38D01*
G01*
X1420000Y1023038D02*
G75*
G02*
X1240038Y1203038I0J179962D01*
G01*
X1240000Y1220000D02*
G75*
G03*
X1060000Y1400000I-180000J0D01*
G01*
X3220000Y1023038D02*
G75*
G02*
X3040038Y1203038I0J179962D01*
G01*
X3490000Y1203038D02*
G75*
G02*
X3310000Y1023000I-180000J-38D01*
G01*
X1870000Y1776962D02*
G75*
G03*
X1690038Y1596962I0J-179962D01*
G01*
X2770000Y1776962D02*
G75*
G03*
X2590038Y1596962I0J-179962D01*
G01*
D54*
%TO.N,BCLK_MIC*%
X-17350000Y-4430000D02*
X-17350000Y-4350000D01*
X-18415000Y-3285000D02*
X-18415000Y-2350000D01*
X-15031390Y-4878610D02*
X-16959061Y-4878610D01*
X-15030000Y-4880000D02*
X-15031390Y-4878610D01*
X-18000000Y-3700000D02*
G75*
G02*
X-18415000Y-3285000I0J415000D01*
G01*
X-17350000Y-4350000D02*
G75*
G03*
X-18000000Y-3700000I-650000J0D01*
G01*
X-16959061Y-4878610D02*
G75*
G02*
X-17350038Y-4430000I64061J450510D01*
G01*
D49*
%TO.N,CAM_Y5*%
X-926360Y7616361D02*
X-920000Y7610000D01*
X-2995000Y8830000D02*
X-1666274Y8830000D01*
X10444000Y8010000D02*
X10444000Y8110000D01*
X-1280000Y8670000D02*
X-1241214Y8631214D01*
X10754000Y8406714D02*
X10754000Y8234000D01*
X9948000Y8550504D02*
X10010000Y8550504D01*
X13500000Y6794315D02*
X13500000Y5870000D01*
X-1000000Y8048872D02*
X-1000000Y7860000D01*
X10134000Y8110000D02*
X10134000Y8010000D01*
D54*
X-2904348Y8753000D02*
X-2995000Y8753000D01*
D49*
X10234000Y7910000D02*
X10344000Y7910000D01*
X10568000Y8530714D02*
X10630000Y8530714D01*
X10444000Y8234000D02*
X10444000Y8406714D01*
X9824000Y8234000D02*
X9824000Y8426504D01*
X-140000Y7430000D02*
X7667036Y7430000D01*
X13500000Y5870000D02*
X13500000Y5693847D01*
X10878000Y8110000D02*
X10940000Y8110000D01*
X-560294Y7430000D02*
X-140000Y7430000D01*
X8850000Y7920000D02*
X8859976Y7929049D01*
X10134000Y8234000D02*
X10134000Y8110000D01*
X-1000000Y7860000D02*
X-1000000Y7794142D01*
X10940000Y8110000D02*
X11220000Y8110000D01*
X9300000Y8110000D02*
X9700000Y8110000D01*
X13917280Y5230000D02*
X14120000Y5230000D01*
X13630000Y5380000D02*
X13682928Y5327072D01*
D54*
X-2582004Y8623069D02*
X-2763575Y8671723D01*
X-2763575Y8671723D02*
X-2904348Y8753000D01*
D49*
X11220000Y8110000D02*
X12255026Y8110000D01*
X10444000Y8110000D02*
X10444000Y8234000D01*
X10134000Y8426504D02*
X10134000Y8234000D01*
X-920000Y7610000D02*
X-867072Y7557072D01*
X9296830Y8110000D02*
X9300000Y8110000D01*
D54*
X-2488016Y8620000D02*
X-2582004Y8623069D01*
D49*
X10010000Y8550504D02*
G75*
G02*
X10134004Y8426504I0J-124004D01*
G01*
X10134000Y8010000D02*
G75*
G03*
X10234000Y7910000I100000J0D01*
G01*
X10344000Y7910000D02*
G75*
G03*
X10444000Y8010000I0J100000D01*
G01*
X7667036Y7430000D02*
G75*
G03*
X8849990Y7920010I-36J1673000D01*
G01*
X-1666274Y8830000D02*
G75*
G02*
X-1280008Y8669992I-26J-546300D01*
G01*
X-1000000Y7794142D02*
G75*
G03*
X-926377Y7616344I251400J-42D01*
G01*
X13500000Y5693847D02*
G75*
G03*
X13629965Y5379965I443900J-47D01*
G01*
X9700000Y8110000D02*
G75*
G03*
X9824000Y8234000I0J124000D01*
G01*
X-867072Y7557072D02*
G75*
G03*
X-560294Y7429990I306772J306728D01*
G01*
X13100000Y7760000D02*
G75*
G02*
X13500006Y6794315I-965700J-965700D01*
G01*
X10630000Y8530714D02*
G75*
G02*
X10754014Y8406714I0J-124014D01*
G01*
X12255026Y8110000D02*
G75*
G02*
X13099993Y7759993I-26J-1195000D01*
G01*
X9824000Y8426504D02*
G75*
G02*
X9948000Y8550500I124000J-4D01*
G01*
X10444000Y8406714D02*
G75*
G02*
X10568000Y8530700I124000J-14D01*
G01*
X8859976Y7929049D02*
G75*
G02*
X9296830Y8109980I436824J-436849D01*
G01*
X10754000Y8234000D02*
G75*
G03*
X10878000Y8110000I124000J0D01*
G01*
X-1241214Y8631214D02*
G75*
G02*
X-1000033Y8048872I-582386J-582314D01*
G01*
X13682928Y5327072D02*
G75*
G03*
X13917280Y5229979I234372J234328D01*
G01*
%TO.N,CAM_Y6*%
X9592000Y5725948D02*
X9592000Y5612000D01*
X9724000Y5480000D02*
X9790000Y5480000D01*
X6262548Y5480000D02*
X6380426Y5480000D01*
X-2805000Y6100000D02*
X4777607Y6100000D01*
X9262000Y5480000D02*
X9262000Y5612000D01*
X9262000Y5234067D02*
X9262000Y5480000D01*
X11698700Y4260000D02*
X16550000Y4260000D01*
X10310000Y5480000D02*
X10363390Y5478258D01*
X9394000Y5857948D02*
X9460000Y5857948D01*
X9790000Y5480000D02*
X10310000Y5480000D01*
X6380426Y5480000D02*
X8470000Y5480000D01*
X9064000Y5102067D02*
X9130000Y5102067D01*
X8932000Y5725933D02*
X8932000Y5612000D01*
X-2995000Y6290000D02*
X-2805000Y6100000D01*
X8932000Y5612000D02*
X8932000Y5480000D01*
X10597989Y5360711D02*
X11698700Y4260000D01*
X5480024Y5809049D02*
X5490000Y5800000D01*
X8602000Y5612000D02*
X8602000Y5725933D01*
X8932000Y5480000D02*
X8932000Y5234067D01*
X8734000Y5857933D02*
X8800000Y5857933D01*
X9262000Y5612000D02*
X9262000Y5725948D01*
X10363390Y5478258D02*
G75*
G02*
X10597990Y5360712I-48690J-390058D01*
G01*
X4777607Y6100000D02*
G75*
G02*
X5480027Y5809052I-7J-993400D01*
G01*
X8932000Y5234067D02*
G75*
G03*
X9064000Y5102100I132000J33D01*
G01*
X9460000Y5857948D02*
G75*
G02*
X9592048Y5725948I0J-132048D01*
G01*
X5490000Y5800000D02*
G75*
G03*
X6262548Y5480020I772500J772500D01*
G01*
X8800000Y5857933D02*
G75*
G02*
X8932033Y5725933I0J-132033D01*
G01*
X8470000Y5480000D02*
G75*
G03*
X8602000Y5612000I0J132000D01*
G01*
X9262000Y5725948D02*
G75*
G02*
X9394000Y5857900I132000J-48D01*
G01*
X9592000Y5612000D02*
G75*
G03*
X9724000Y5480000I132000J0D01*
G01*
X8602000Y5725933D02*
G75*
G02*
X8734000Y5857900I132000J-33D01*
G01*
X9130000Y5102067D02*
G75*
G03*
X9262033Y5234067I0J132033D01*
G01*
D54*
%TO.N,WS_MIC*%
X-14014067Y-5392806D02*
X-14178726Y-5178217D01*
X-14178726Y-5178217D02*
X-14313968Y-4943972D01*
X-14487484Y-4432812D02*
X-14522789Y-4164643D01*
X-14525000Y-3399400D02*
X-14605000Y-3319400D01*
X-14605000Y-3319400D02*
X-14605000Y-2350000D01*
X-14522789Y-4164643D02*
X-14525000Y-4029401D01*
X-13920000Y-5490000D02*
X-14014067Y-5392806D01*
X-14525000Y-4029401D02*
X-14525000Y-3399400D01*
X-14417477Y-4694078D02*
X-14487484Y-4432812D01*
X-14313968Y-4943972D02*
X-14417477Y-4694078D01*
D49*
%TO.N,CAM_Y4*%
X-2995000Y11370000D02*
X-2028994Y11370000D01*
X-1720000Y11723138D02*
X-1720000Y11930000D01*
X-1860000Y11440000D02*
X-1821214Y11478786D01*
X-1821214Y11478786D02*
G75*
G03*
X-1720037Y11723138I-244386J244314D01*
G01*
X-2028994Y11370000D02*
G75*
G03*
X-1860001Y11440001I-6J239000D01*
G01*
%TO.N,CAM_Y8*%
X5178000Y2248000D02*
X5178000Y1890249D01*
X4056000Y2380000D02*
X3990000Y2380000D01*
X7818000Y2519746D02*
X7818000Y2512000D01*
X6828000Y1890251D02*
X6828000Y2380000D01*
X6828000Y2380000D02*
X6828000Y2519750D01*
X550000Y2380000D02*
X-2753579Y2380000D01*
X4716000Y2380000D02*
X4650000Y2380000D01*
X7488000Y1890253D02*
X7488000Y2380000D01*
X6036000Y2380000D02*
X5970000Y2380000D01*
X6168000Y1890249D02*
X6168000Y2248000D01*
X7818000Y2380000D02*
X7818000Y1890253D01*
X6696000Y2651750D02*
X6630000Y2651750D01*
X3990000Y2380000D02*
X550000Y2380000D01*
X8148000Y2512000D02*
X8148000Y2519746D01*
X6498000Y2380000D02*
X6498000Y2248000D01*
X8016000Y2651746D02*
X7950000Y2651746D01*
X4188000Y1890253D02*
X4188000Y2248000D01*
X5838000Y2248000D02*
X5838000Y1890250D01*
X6498000Y2248000D02*
X6498000Y1890249D01*
X7158000Y2380000D02*
X7158000Y1890251D01*
X7158000Y2519749D02*
X7158000Y2380000D01*
X7818000Y2512000D02*
X7818000Y2380000D01*
X4848000Y1890249D02*
X4848000Y2248000D01*
X5046000Y1758249D02*
X4980000Y1758249D01*
X6498000Y2519750D02*
X6498000Y2380000D01*
X5508000Y1890250D02*
X5508000Y2248000D01*
X7356000Y2651749D02*
X7290000Y2651749D01*
X5376000Y2380000D02*
X5310000Y2380000D01*
X4386000Y1758253D02*
X4320000Y1758253D01*
X4518000Y2248000D02*
X4518000Y1890253D01*
X7488000Y2380000D02*
X7488000Y2519749D01*
X4320000Y1758253D02*
G75*
G02*
X4187953Y1890253I0J132047D01*
G01*
X7158000Y1890251D02*
G75*
G02*
X7026000Y1758300I-132000J49D01*
G01*
X6960000Y1758251D02*
G75*
G02*
X6827951Y1890251I0J132049D01*
G01*
X6168000Y2248000D02*
G75*
G03*
X6036000Y2380000I-132000J0D01*
G01*
X7488000Y2519749D02*
G75*
G03*
X7356000Y2651700I-132000J-49D01*
G01*
X8148000Y2519746D02*
G75*
G03*
X8016000Y2651700I-132000J-46D01*
G01*
X5310000Y2380000D02*
G75*
G03*
X5178000Y2248000I0J-132000D01*
G01*
X5640000Y1758250D02*
G75*
G02*
X5507950Y1890250I0J132050D01*
G01*
X6828000Y2519750D02*
G75*
G03*
X6696000Y2651700I-132000J-50D01*
G01*
X4650000Y2380000D02*
G75*
G03*
X4518000Y2248000I0J-132000D01*
G01*
X-2753579Y2380000D02*
G75*
G02*
X-2995006Y2479994I-21J341400D01*
G01*
X4980000Y1758249D02*
G75*
G02*
X4848049Y1890249I0J131951D01*
G01*
X4188000Y2248000D02*
G75*
G03*
X4056000Y2380000I-132000J0D01*
G01*
X5838000Y1890250D02*
G75*
G02*
X5706000Y1758300I-132000J50D01*
G01*
X7620000Y1758253D02*
G75*
G02*
X7487953Y1890253I0J132047D01*
G01*
X7818000Y1890253D02*
G75*
G02*
X7686000Y1758300I-132000J47D01*
G01*
X6498000Y1890249D02*
G75*
G02*
X6366000Y1758200I-132000J-49D01*
G01*
X7950000Y2651746D02*
G75*
G03*
X7817954Y2519746I0J-132046D01*
G01*
X4518000Y1890253D02*
G75*
G02*
X4386000Y1758300I-132000J47D01*
G01*
X6630000Y2651750D02*
G75*
G03*
X6497950Y2519750I0J-132050D01*
G01*
X5970000Y2380000D02*
G75*
G03*
X5838000Y2248000I0J-132000D01*
G01*
X6300000Y1758249D02*
G75*
G02*
X6168049Y1890249I0J131951D01*
G01*
X4848000Y2248000D02*
G75*
G03*
X4716000Y2380000I-132000J0D01*
G01*
X5178000Y1890249D02*
G75*
G02*
X5046000Y1758200I-132000J-49D01*
G01*
X7290000Y2651749D02*
G75*
G03*
X7157951Y2519749I0J-132049D01*
G01*
X8280000Y2380000D02*
G75*
G02*
X8148000Y2512000I0J132000D01*
G01*
X5508000Y2248000D02*
G75*
G03*
X5376000Y2380000I-132000J0D01*
G01*
%TO.N,CAM_Y9*%
X4332000Y-60000D02*
X4332000Y-339318D01*
X4702000Y-208000D02*
X4702000Y-60000D01*
X16230000Y1250000D02*
X9561543Y1250000D01*
X4924000Y-487304D02*
X4850000Y-487304D01*
X4332000Y219304D02*
X4332000Y-60000D01*
X2610000Y-60000D02*
X-2995000Y-60000D01*
X3222000Y-339304D02*
X3222000Y-208000D01*
X5072000Y-208000D02*
X5072000Y-339304D01*
X5670000Y-60000D02*
X5220000Y-60000D01*
X4702000Y-339304D02*
X4702000Y-208000D01*
X6398924Y-60000D02*
X5670000Y-60000D01*
X3074000Y-60000D02*
X3000000Y-60000D01*
X4554000Y367304D02*
X4480000Y367304D01*
X3000000Y-60000D02*
X2610000Y-60000D01*
X4184000Y-487318D02*
X4110000Y-487318D01*
X4702000Y-60000D02*
X4702000Y219304D01*
X3592000Y-60000D02*
X3592000Y-208000D01*
X3444000Y-487304D02*
X3370000Y-487304D01*
X3592000Y-208000D02*
X3592000Y-339304D01*
X3592000Y219318D02*
X3592000Y-60000D01*
X3962000Y-60000D02*
X3962000Y219318D01*
X3814000Y367318D02*
X3740000Y367318D01*
X3962000Y-339318D02*
X3962000Y-60000D01*
X3222000Y-208000D02*
G75*
G03*
X3074000Y-60000I-148000J0D01*
G01*
X3740000Y367318D02*
G75*
G03*
X3591982Y219318I0J-148018D01*
G01*
X3962000Y219318D02*
G75*
G03*
X3814000Y367300I-148000J-18D01*
G01*
X4110000Y-487318D02*
G75*
G02*
X3961982Y-339318I0J148018D01*
G01*
X5220000Y-60000D02*
G75*
G03*
X5072000Y-208000I0J-148000D01*
G01*
X9561543Y1250000D02*
G75*
G03*
X8619987Y860013I-43J-1331500D01*
G01*
X4332000Y-339318D02*
G75*
G02*
X4184000Y-487300I-148000J18D01*
G01*
X4480000Y367304D02*
G75*
G03*
X4331996Y219304I0J-148004D01*
G01*
X3370000Y-487304D02*
G75*
G02*
X3221996Y-339304I0J148004D01*
G01*
X3592000Y-339304D02*
G75*
G02*
X3444000Y-487300I-148000J4D01*
G01*
X8620000Y860000D02*
G75*
G02*
X6398924Y-60010I-2221100J2221100D01*
G01*
X5072000Y-339304D02*
G75*
G02*
X4924000Y-487300I-148000J4D01*
G01*
X4850000Y-487304D02*
G75*
G02*
X4701996Y-339304I0J148004D01*
G01*
X4702000Y219304D02*
G75*
G03*
X4554000Y367300I-148000J-4D01*
G01*
%TO.N,CAM_Y2*%
X8518184Y6373339D02*
X8512766Y6378322D01*
X8512766Y6378322D02*
X8507348Y6383304D01*
X8456884Y6429649D02*
X8456883Y6429650D01*
X16288752Y4720000D02*
X13375613Y4720000D01*
X8625249Y6328531D02*
X8616714Y6332066D01*
X5710000Y6610000D02*
X5340000Y6610000D01*
X16579376Y5010624D02*
X16288752Y4720000D01*
X-1872762Y7329594D02*
X-2040154Y7441444D01*
X8616714Y6332066D02*
X8608178Y6335602D01*
X8531254Y6367468D02*
X8522718Y6371003D01*
X5931774Y6610000D02*
X5710000Y6610000D01*
X8429619Y6454370D02*
X8420295Y6462944D01*
X11152085Y6550628D02*
X10634303Y6550628D01*
X8519088Y6372507D02*
X8518184Y6373339D01*
X8591108Y6342674D02*
X8579037Y6347674D01*
X8456883Y6429650D02*
X8453756Y6432485D01*
X8388658Y6492038D02*
X8380000Y6500000D01*
X-1800000Y7260000D02*
X-1872762Y7329594D01*
X8539789Y6363932D02*
X8538561Y6364441D01*
X10345717Y6344482D02*
X10224670Y6312046D01*
X13375613Y4720000D02*
X11822806Y6272806D01*
X-2524264Y7560000D02*
X-2995000Y7560000D01*
X8420295Y6462944D02*
X8399059Y6482473D01*
X8688835Y6312122D02*
X8678852Y6312539D01*
X8440931Y6444114D02*
X8429619Y6454370D01*
X8114437Y6610000D02*
X8110000Y6610000D01*
X6680000Y6610000D02*
X6680000Y6461774D01*
X8739610Y6310000D02*
X8688835Y6312122D01*
X8489631Y6399599D02*
X8477926Y6410364D01*
X8548325Y6360396D02*
X8539789Y6363932D01*
X-2040154Y7441444D02*
X-2226150Y7518490D01*
X8399059Y6482473D02*
X8388658Y6492038D01*
X8461860Y6425137D02*
X8456884Y6429649D01*
X8467525Y6419929D02*
X8462041Y6424973D01*
X-2423603Y7557772D02*
X-2524264Y7560000D01*
X8565395Y6353325D02*
X8556860Y6356861D01*
X5340000Y6610000D02*
X-375489Y6610000D01*
X-1780048Y7241902D02*
X-1800000Y7260000D01*
X10224670Y6312046D02*
X10162011Y6310000D01*
X8453756Y6432485D02*
X8451396Y6434625D01*
X8575501Y6349139D02*
X8565395Y6353325D01*
X7280000Y6610000D02*
X7280000Y6769414D01*
X10415976Y6410688D02*
X10345717Y6344482D01*
X8668870Y6312956D02*
X8662173Y6313236D01*
X8608178Y6335602D02*
X8591108Y6342674D01*
X8579037Y6347674D02*
X8575501Y6349139D01*
X8499161Y6390834D02*
X8493744Y6395816D01*
X8650855Y6317924D02*
X8642320Y6321460D01*
X8477926Y6410364D02*
X8472943Y6414947D01*
X-2226150Y7518490D02*
X-2423603Y7557772D01*
X8633785Y6324995D02*
X8625249Y6328531D01*
X10533001Y6505467D02*
X10464654Y6456550D01*
X8678852Y6312539D02*
X8668870Y6312956D01*
X8493744Y6395816D02*
X8489631Y6399599D01*
X6680000Y6769414D02*
X6680000Y6610000D01*
X8642320Y6321460D02*
X8633785Y6324995D01*
X10464654Y6456550D02*
X10415976Y6410688D01*
X10162011Y6310000D02*
X8739610Y6310000D01*
X10634303Y6550628D02*
X10589411Y6534407D01*
X8451396Y6434625D02*
X8440931Y6444114D01*
X6531774Y6313548D02*
X6228226Y6313548D01*
X8556860Y6356861D02*
X8548325Y6360396D01*
X8472943Y6414947D02*
X8467525Y6419929D01*
X8538561Y6364441D02*
X8531254Y6367468D01*
X7813548Y6313548D02*
X7428226Y6313548D01*
X7280000Y6461774D02*
X7280000Y6610000D01*
X10589411Y6534407D02*
X10533001Y6505467D01*
X7120587Y6928827D02*
X6839413Y6928827D01*
X8522718Y6371003D02*
X8519088Y6372507D01*
X-1688867Y7154019D02*
X-1780048Y7241902D01*
X8507348Y6383304D02*
X8499161Y6390834D01*
X8662173Y6313236D02*
X8650855Y6317924D01*
X8462041Y6424973D02*
X8461860Y6425137D01*
X8110000Y6610000D02*
G75*
G03*
X7961800Y6461774I0J-148200D01*
G01*
X7428226Y6313548D02*
G75*
G02*
X7279948Y6461774I-26J148252D01*
G01*
X11822806Y6272806D02*
G75*
G03*
X11152085Y6550622I-670706J-670706D01*
G01*
X7961774Y6461774D02*
G75*
G02*
X7813548Y6313526I-148274J26D01*
G01*
X6680000Y6461774D02*
G75*
G02*
X6531774Y6313600I-148200J26D01*
G01*
X6228226Y6313548D02*
G75*
G02*
X6079948Y6461774I-26J148252D01*
G01*
X7280000Y6769414D02*
G75*
G03*
X7120587Y6928800I-159400J-14D01*
G01*
X8380000Y6500000D02*
G75*
G03*
X8114437Y6610015I-265600J-265600D01*
G01*
X-375489Y6610000D02*
G75*
G02*
X-1688873Y7154013I-11J1857400D01*
G01*
X6839413Y6928827D02*
G75*
G03*
X6679973Y6769414I-13J-159427D01*
G01*
X6080000Y6461774D02*
G75*
G03*
X5931774Y6610000I-148200J26D01*
G01*
%TO.N,CAM_Y7*%
X4775000Y3000000D02*
X4775000Y3347963D01*
X4627000Y3495963D02*
X4553000Y3495963D01*
X4288027Y2766053D02*
X4151973Y2766053D01*
X4405000Y3347963D02*
X4405000Y3000000D01*
X2925000Y3347963D02*
X2925000Y3148000D01*
X4035000Y3000000D02*
X4035000Y3347963D01*
X3295000Y3148000D02*
X3295000Y3347963D01*
X3887000Y3495963D02*
X3813000Y3495963D01*
X4405000Y3000000D02*
X4405000Y2883026D01*
X3665000Y3347963D02*
X3665000Y3000000D01*
X2777000Y3000000D02*
X2703000Y3000000D01*
X4035000Y2883026D02*
X4035000Y3000000D01*
X5515000Y3000000D02*
X5515000Y3347963D01*
X5028038Y2766075D02*
X4891962Y2766075D01*
X4775000Y2883037D02*
X4775000Y3000000D01*
X5145000Y3347963D02*
X5145000Y3000000D01*
X3295000Y3000000D02*
X3295000Y3148000D01*
X5145000Y3000000D02*
X5145000Y2883037D01*
X3147000Y3495963D02*
X3073000Y3495963D01*
X3548038Y2766075D02*
X3411962Y2766075D01*
X2703000Y3000000D02*
X1790000Y3000000D01*
X5367000Y3495963D02*
X5293000Y3495963D01*
X1790000Y3000000D02*
X1246690Y3000000D01*
X5515000Y2887465D02*
X5515000Y3000000D01*
X3665000Y3000000D02*
X3665000Y2883037D01*
X-563969Y3750000D02*
X-2995000Y3750000D01*
X5804930Y2774930D02*
X5627535Y2774930D01*
X3295000Y2883037D02*
X3295000Y3000000D01*
X1246690Y3000000D02*
G75*
G02*
X450003Y3330003I10J1126700D01*
G01*
X4891962Y2766075D02*
G75*
G02*
X4775075Y2883037I38J116925D01*
G01*
X6030000Y3000000D02*
G75*
G03*
X5917500Y2887465I0J-112500D01*
G01*
X3295000Y3347963D02*
G75*
G03*
X3147000Y3496000I-148000J37D01*
G01*
X3665000Y2883037D02*
G75*
G02*
X3548038Y2766000I-117000J-37D01*
G01*
X2925000Y3148000D02*
G75*
G02*
X2777000Y3000000I-148000J0D01*
G01*
X4035000Y3347963D02*
G75*
G03*
X3887000Y3496000I-148000J37D01*
G01*
X450000Y3330000D02*
G75*
G03*
X-563969Y3750013I-1014000J-1014000D01*
G01*
X4775000Y3347963D02*
G75*
G03*
X4627000Y3496000I-148000J37D01*
G01*
X5293000Y3495963D02*
G75*
G03*
X5145037Y3347963I0J-147963D01*
G01*
X4405000Y2883026D02*
G75*
G02*
X4288027Y2766000I-117000J-26D01*
G01*
X4553000Y3495963D02*
G75*
G03*
X4405037Y3347963I0J-147963D01*
G01*
X3813000Y3495963D02*
G75*
G03*
X3665037Y3347963I0J-147963D01*
G01*
X3411962Y2766075D02*
G75*
G02*
X3295075Y2883037I38J116925D01*
G01*
X5917465Y2887465D02*
G75*
G02*
X5804930Y2774935I-112565J35D01*
G01*
X3073000Y3495963D02*
G75*
G03*
X2925037Y3347963I0J-147963D01*
G01*
X5627535Y2774930D02*
G75*
G02*
X5514930Y2887465I-35J112570D01*
G01*
X4151973Y2766053D02*
G75*
G02*
X4035053Y2883026I27J116947D01*
G01*
X5145000Y2883037D02*
G75*
G02*
X5028038Y2766000I-117000J-37D01*
G01*
X5515000Y3347963D02*
G75*
G03*
X5367000Y3496000I-148000J37D01*
G01*
D53*
%TO.N,+1V5*%
X11560000Y-5789225D02*
X11560000Y-6322500D01*
X12290000Y-4530000D02*
X11986219Y-4833782D01*
X11612000Y-5737225D02*
X11560000Y-5789225D01*
X13534976Y-2463401D02*
X13532986Y-2465391D01*
X13532986Y-2465391D02*
X13532986Y-2593281D01*
X12954000Y-3866000D02*
X12290000Y-4530000D01*
X11986219Y-4833782D02*
G75*
G03*
X11612029Y-5737225I903481J-903418D01*
G01*
X13532986Y-2593281D02*
G75*
G02*
X12954003Y-3866003I-1996486J140181D01*
G01*
D54*
%TO.N,Net-(JP2-A)*%
X-9227664Y-19042335D02*
X-9830000Y-18440000D01*
D53*
X-9340000Y-20070000D02*
X-9282427Y-20012427D01*
X-9160000Y-19716863D02*
X-9160000Y-19205692D01*
D54*
X-10919229Y-17970248D02*
X-11446250Y-17970248D01*
X-5086207Y-19205692D02*
X-9160000Y-19205692D01*
X-9830000Y-18440000D02*
X-9861715Y-18408285D01*
X-190000Y-20365000D02*
X-2287391Y-20365000D01*
X-9861715Y-18408285D02*
G75*
G03*
X-10919229Y-17970269I-1057485J-1057515D01*
G01*
D53*
X-9282427Y-20012427D02*
G75*
G03*
X-9160029Y-19716863I-295573J295527D01*
G01*
D54*
X-2287391Y-20365000D02*
G75*
G02*
X-3410003Y-19900003I-9J1587600D01*
G01*
X-3410000Y-19900000D02*
G75*
G03*
X-5086207Y-19205695I-1676200J-1676200D01*
G01*
X-9160000Y-19205692D02*
G75*
G03*
X-9227673Y-19042344I-231000J-8D01*
G01*
D52*
%TO.N,Net-(JP3-A)*%
X-17145000Y-1305000D02*
X-17140000Y-1300000D01*
X-17145000Y-2350000D02*
X-17145000Y-1305000D01*
%TD*%
M02*
