M48
; DRILL file {KiCad 8.0.7} date 2025-01-14T11:40:30+0100
; FORMAT={-:-/ absolute / inch / decimal}
; #@! TF.CreationDate,2025-01-14T11:40:30+01:00
; #@! TF.GenerationSoftware,Kicad,Pcbnew,8.0.7
; #@! TF.FileFunction,Plated,1,4,PTH
FMAT,2
INCH
; #@! TA.AperFunction,Plated,PTH,ViaDrill
T1C0.0079
; #@! TA.AperFunction,Plated,PTH,ComponentDrill
T2C0.0079
; #@! TA.AperFunction,Plated,PTH,ComponentDrill
T3C0.0244
; #@! TA.AperFunction,Plated,PTH,ComponentDrill
T4C0.0390
; #@! TA.AperFunction,Plated,PTH,ComponentDrill
T5C0.0510
%
G90
G05
T1
X-0.9024Y0.0024
X-0.898Y0.1024
X-0.8906Y-0.0984
X-0.878Y0.2118
X-0.83Y0.63
X-0.7657Y0.5441
X-0.7559Y0.3465
X-0.7547Y0.2067
X-0.7524Y0.2563
X-0.752Y0.6067
X-0.6748Y-0.0512
X-0.6406Y-0.2161
X-0.626Y-0.3909
X-0.6197Y0.5579
X-0.6126Y-0.4232
X-0.5965Y-0.0028
X-0.5917Y-0.1921
X-0.5617Y0.3283
X-0.5583Y-0.4646
X-0.548Y-0.2161
X-0.5425Y0.5957
X-0.5398Y0.0484
X-0.5354Y-0.0079
X-0.526Y-0.2984
X-0.5118Y0.2047
X-0.5075Y-0.476
X-0.4982Y0.5613
X-0.4898Y-0.3055
X-0.4594Y0.0185
X-0.4571Y0.1
X-0.4035Y-0.2602
X-0.3984Y0.0185
X-0.3953Y-0.6268
X-0.3929Y0.4398
X-0.3752Y0.0677
X-0.3744Y-0.4008
X-0.372Y-0.5787
X-0.3677Y-0.7902
X-0.3648Y0.5557
X-0.3374Y-0.4291
X-0.3264Y-0.7071
X-0.3217Y-0.2587
X-0.3205Y-0.4996
X-0.3142Y0.5213
X-0.2972Y0.4205
X-0.2941Y0.5547
X-0.2921Y0.6232
X-0.2913Y-0.2764
X-0.2614Y-0.7157
X-0.2496Y0.2878
X-0.2461Y0.3673
X-0.2287Y0.0394
X-0.2276Y-0.5563
X-0.1933Y0.0575
X-0.1925Y0.1378
X-0.1728Y0.4531
X-0.1709Y0.3945
X-0.1634Y-0.6008
X-0.1632Y0.5006
X-0.1598Y-0.2681
X-0.1593Y0.5476
X-0.1276Y-0.587
X-0.0909Y-0.8894
X-0.0799Y-0.7583
X-0.0764Y0.398
X-0.0677Y0.4697
X-0.0657Y0.6063
X-0.0524Y-0.3984
X-0.0488Y0.0327
X-0.0281Y0.3608
X0.0079Y-0.1374
X0.0622Y-0.7602
X0.0681Y-0.8528
X0.0996Y0.3217
X0.1067Y0.5366
X0.1079Y-0.2823
X0.1106Y-0.3349
X0.1295Y-0.1563
X0.1339Y0.1752
X0.1343Y0.537
X0.1366Y0.385
X0.1642Y-0.5996
X0.1756Y-0.3299
X0.1787Y0.3772
X0.1969Y0.4094
X0.1988Y-0.2669
X0.2031Y-0.2079
X0.2205Y-0.8937
X0.224Y-0.711
X0.2276Y-0.5209
X0.2366Y-0.3256
X0.2528Y-0.2606
X0.2602Y0.139
X0.2693Y-0.5496
X0.2728Y-0.7315
X0.2909Y-0.4244
X0.3138Y-0.4488
X0.3142Y-0.5496
X0.3201Y-0.8602
X0.3335Y0.0697
X0.3539Y-0.4744
X0.3622Y0.0
X0.3693Y-0.6331
X0.3724Y-0.1945
X0.378Y0.3909
X0.3894Y0.2685
X0.3937Y0.0276
X0.4016Y-0.2047
X0.4157Y-0.0189
X0.4217Y-0.1087
X0.4252Y0.2378
X0.4268Y-0.6346
X0.4441Y-0.7717
X0.4465Y-0.689
X0.4476Y0.3862
X0.4496Y0.2209
X0.452Y0.072
X0.4567Y-0.5185
X0.4591Y0.2929
X0.4803Y-0.1417
X0.4843Y-0.6354
X0.4878Y0.4902
X0.4906Y-0.0256
X0.5197Y-0.252
X0.5276Y-0.689
X0.5327Y-0.4413
X0.5329Y-0.097
X0.5433Y-0.2047
X0.5531Y0.1465
X0.5559Y0.2059
X0.5571Y-0.0201
X0.5579Y0.0898
X0.561Y0.1189
X0.5791Y-0.3209
X0.5807Y-0.6972
X0.5984Y-0.4488
X0.635Y-0.0709
X0.6366Y0.1083
X0.639Y0.0492
X0.6439Y-0.1087
X0.6449Y-0.1472
X0.6516Y0.1677
X0.6527Y0.1973
X0.6571Y-0.0291
X0.6768Y-0.5457
X0.687Y0.0571
X0.6909Y-0.0402
X0.7091Y0.4858
X0.7213Y-0.3425
X0.7224Y-0.1087
X0.7323Y-0.5197
X0.7701Y0.1795
X0.7705Y-0.1102
X0.7791Y0.2618
X0.787Y0.3886
X0.7942Y-0.2125
X0.8394Y-0.3075
T2
X-0.4585Y0.3213
X-0.4585Y0.2661
X-0.4309Y0.3488
X-0.4309Y0.2937
X-0.4309Y0.2386
X-0.4033Y0.3213
X-0.4033Y0.2661
X-0.3758Y0.3488
X-0.3758Y0.2937
X-0.3758Y0.2386
X-0.3482Y0.3213
X-0.3482Y0.2661
T4
X0.0923Y0.8368
X0.2656Y0.8
X0.4849Y0.6886
X0.6166Y0.57
T5
X0.0236Y0.7512
X0.2936Y0.6938
X0.3826Y0.6488
X0.5877Y0.4641
T3
G00X-0.1701Y-0.6512
M15
G01X-0.1701Y-0.6937
M16
G05
G00X-0.1701Y-0.8256
M15
G01X-0.1701Y-0.8484
M16
G05
G00X0.1701Y-0.6512
M15
G01X0.1701Y-0.6937
M16
G05
G00X0.1701Y-0.8256
M15
G01X0.1701Y-0.8484
M16
G05
M30
