%TF.GenerationSoftware,KiCad,Pcbnew,8.0.7*%
%TF.CreationDate,2025-01-14T11:40:34+01:00*%
%TF.ProjectId,test,74657374-2e6b-4696-9361-645f70636258,rev?*%
%TF.SameCoordinates,PX517370cPY341b1c8*%
%TF.FileFunction,Copper,L2,Inr*%
%TF.FilePolarity,Positive*%
%FSLAX46Y46*%
G04 Gerber Fmt 4.6, Leading zero omitted, Abs format (unit mm)*
G04 Created by KiCad (PCBNEW 8.0.7) date 2025-01-14 11:40:34*
%MOMM*%
%LPD*%
G01*
G04 APERTURE LIST*
%TA.AperFunction,ComponentPad*%
%ADD10C,1.803400*%
%TD*%
%TA.AperFunction,ComponentPad*%
%ADD11C,1.498600*%
%TD*%
%TA.AperFunction,ComponentPad*%
%ADD12O,1.000000X2.100000*%
%TD*%
%TA.AperFunction,ComponentPad*%
%ADD13O,1.000000X1.600000*%
%TD*%
%TA.AperFunction,HeatsinkPad*%
%ADD14C,0.600000*%
%TD*%
%TA.AperFunction,ViaPad*%
%ADD15C,0.420000*%
%TD*%
%TA.AperFunction,Conductor*%
%ADD16C,0.250000*%
%TD*%
%TA.AperFunction,Conductor*%
%ADD17C,1.000000*%
%TD*%
%TA.AperFunction,Conductor*%
%ADD18C,0.500000*%
%TD*%
%TA.AperFunction,Conductor*%
%ADD19C,0.400000*%
%TD*%
%TA.AperFunction,Conductor*%
%ADD20C,0.160000*%
%TD*%
%TA.AperFunction,Conductor*%
%ADD21C,0.200000*%
%TD*%
G04 APERTURE END LIST*
D10*
%TO.N,*%
%TO.C,SW2*%
X14927083Y11787951D03*
X9717637Y16478557D03*
D11*
%TO.N,GND*%
X15660772Y14478363D03*
%TO.N,SW_L2*%
X12316619Y17489452D03*
%TD*%
D12*
%TO.N,*%
%TO.C,P1*%
X-4320000Y-17080000D03*
D13*
X-4320000Y-21260000D03*
D12*
X4320000Y-17080000D03*
D13*
%TO.N,Net-(P1-SHIELD)*%
X4320000Y-21260000D03*
%TD*%
D10*
%TO.N,*%
%TO.C,SW1*%
X7456432Y17622643D03*
X599616Y19080103D03*
D11*
%TO.N,GND*%
X6746619Y20319452D03*
%TO.N,SW_L3*%
X2344953Y21255056D03*
%TD*%
D14*
%TO.N,GND*%
%TO.C,U2*%
X-8845000Y6760000D03*
X-8845000Y8160000D03*
X-9545000Y6060000D03*
X-9545000Y7460000D03*
X-9545000Y8860000D03*
X-10245000Y6760000D03*
X-10245000Y8160000D03*
X-10945000Y6060000D03*
X-10945000Y7460000D03*
X-10945000Y8860000D03*
X-11645000Y6760000D03*
X-11645000Y8160000D03*
%TD*%
D15*
%TO.N,GND*%
X-22920000Y60000D03*
X3400000Y4450000D03*
X11370000Y9810000D03*
X-4910000Y1460000D03*
X-1670000Y15400000D03*
X-13780000Y15130000D03*
X-15740000Y14170000D03*
X14750000Y-17710000D03*
X19990000Y9870000D03*
X10710000Y-2760000D03*
X-2030000Y-19260000D03*
X-4150000Y-15260000D03*
X18600000Y-13200000D03*
X200000Y-3490000D03*
X-7550000Y10680000D03*
X-4390000Y11510000D03*
X-7420000Y15830000D03*
X5160000Y-5280000D03*
X-12890000Y-12090000D03*
X-16270000Y-5490000D03*
X1580000Y-19310000D03*
X5600000Y-22700000D03*
X6610000Y3530000D03*
X12300000Y-16140000D03*
X5690000Y-18060000D03*
X19790000Y6650000D03*
X6010000Y-8270000D03*
X-6640000Y-18180000D03*
X16170000Y2750000D03*
X-8570000Y-10900000D03*
X18321724Y-8700000D03*
X-10120000Y470000D03*
X18010000Y12340000D03*
X-4890000Y3500000D03*
X-9450000Y-14700000D03*
X5000000Y10400000D03*
X5050000Y-6780000D03*
X-3240000Y-14910000D03*
X-4060000Y-6810000D03*
X3290000Y-3970000D03*
X21320000Y-7810000D03*
X8130000Y-21850000D03*
X17450000Y1450000D03*
X16380000Y-3740000D03*
X2740000Y-7170000D03*
X4170000Y-15230000D03*
X-7400000Y-7020000D03*
X-15560000Y-10750000D03*
X18350000Y-2760000D03*
X19560000Y4560000D03*
X11481511Y1830000D03*
X20172490Y-5397500D03*
X11280000Y-19600000D03*
X-8140000Y-12690000D03*
X-4340000Y10020000D03*
X11420001Y5609999D03*
X-19100000Y15410000D03*
X10560000Y-480000D03*
X9380000Y-16080000D03*
X10799998Y6040000D03*
X6420000Y-6620000D03*
X1730000Y-21660000D03*
X-10250000Y-6610000D03*
X-11610000Y2540000D03*
X-22810000Y2600000D03*
X-22620000Y-2500000D03*
X-8170000Y-6570000D03*
X11340000Y-17500000D03*
X-21082000Y16002000D03*
X-13710000Y1230000D03*
X11660000Y7440000D03*
X17190000Y-13860000D03*
X-9980000Y11170000D03*
X9460000Y-4940000D03*
X-11670000Y470000D03*
X13400000Y-17500000D03*
X-22300000Y5380000D03*
X10840000Y-16120000D03*
X6930000Y-18580000D03*
X12390000Y12450000D03*
X-8290000Y-17960000D03*
%TO.N,EN*%
X-4145016Y12715016D03*
%TO.N,+3V3*%
X4460000Y-8380000D03*
X4540000Y9580000D03*
X-12653917Y14257476D03*
X2810000Y-8507657D03*
X9600000Y9930000D03*
X-5780000Y-14130000D03*
X13800000Y-5200000D03*
X-10040000Y-15920000D03*
X-4045538Y13910000D03*
X-6250000Y9330000D03*
X19570000Y-2799998D03*
X-14267500Y8340000D03*
X-7470000Y14090000D03*
%TO.N,VSYS*%
X-9510000Y-10180000D03*
X14710000Y-8150000D03*
X10200000Y-5200000D03*
X11600000Y-13170000D03*
X3470000Y9780000D03*
X-13600000Y-200000D03*
X-1240000Y830000D03*
%TO.N,CAM_PCLK*%
X14050000Y3720000D03*
%TO.N,+2V8*%
X16354141Y-2759998D03*
%TO.N,VBUS*%
X6840000Y-13960000D03*
X7980000Y-13960000D03*
%TO.N,SW_L3*%
X-19450000Y13820000D03*
%TO.N,SW_L1*%
X-15150000Y-70000D03*
%TO.N,Net-(D1-K)*%
X5780000Y-13230000D03*
X7390000Y-10780000D03*
%TO.N,+3V3CAM*%
X12460000Y-650000D03*
X15200000Y-11400000D03*
X13200000Y-6400000D03*
X9200000Y0D03*
X9890000Y6820000D03*
%TO.N,LEDCNTRL*%
X-9530000Y1720000D03*
%TO.N,RXD*%
X2710000Y13630000D03*
X-7980000Y13240000D03*
%TO.N,TXD*%
X3410000Y13640000D03*
X-9264693Y14114693D03*
%TO.N,GPIO0*%
X-713589Y9164400D03*
X-6340000Y7310000D03*
%TO.N,GPIO46*%
X-5810000Y1000000D03*
X2530000Y8170000D03*
%TO.N,CAM_PWDN*%
X16690000Y-740000D03*
%TO.N,CAM_RESET*%
X10000000Y700000D03*
X16130000Y-1800000D03*
X-19200000Y8800000D03*
%TO.N,PMIC_PWRON*%
X13530000Y-11210000D03*
X-2310000Y-22590000D03*
%TO.N,I2SDAT_MIC*%
X-19170000Y5250000D03*
%TO.N,CAM_SDA*%
X8990000Y-12050000D03*
%TO.N,CAM_SCL*%
X7970000Y-11400000D03*
%TO.N,PMIC_IRQ*%
X-19110000Y6510000D03*
X-1330000Y-10120000D03*
%TO.N,BCLK_AMP*%
X-15900000Y-9930000D03*
X-13360000Y-7580000D03*
%TO.N,WS_AMP*%
X-14180000Y-11800000D03*
X-12440000Y-7760000D03*
%TO.N,CAM_Y3*%
X-1940000Y10110000D03*
%TO.N,CAM_MCLK*%
X8470000Y1770000D03*
%TO.N,BCLK_MIC*%
X-15030000Y-4880000D03*
%TO.N,CAM_Y5*%
X14120000Y5230000D03*
%TO.N,CAM_Y6*%
X16550000Y4260000D03*
%TO.N,WS_MIC*%
X-13920000Y-5490000D03*
%TO.N,CAM_Y4*%
X-1720000Y11930000D03*
%TO.N,CAM_Y8*%
X14170000Y2280000D03*
%TO.N,CAM_VSYNC*%
X12200000Y-3600000D03*
X17550000Y-1020000D03*
X-13000000Y5200000D03*
%TO.N,CAM_Y9*%
X16230000Y1250000D03*
%TO.N,CAM_Y2*%
X16579376Y5010624D03*
%TO.N,CAM_HREF*%
X14150000Y-510000D03*
%TO.N,CAM_Y7*%
X14250000Y3020671D03*
%TO.N,+1V5*%
X13534976Y-2463401D03*
%TO.N,Net-(JP2-A)*%
X-9340000Y-20070000D03*
%TO.N,Net-(JP3-A)*%
X-17140000Y-1300000D03*
%TD*%
D16*
%TO.N,+3V3*%
X-13530000Y13820000D02*
X-13402666Y13947334D01*
X-14267500Y8340000D02*
X-14267500Y12039518D01*
X-13402666Y13947334D02*
G75*
G02*
X-12653917Y14257492I748766J-748734D01*
G01*
X-14267500Y12039518D02*
G75*
G02*
X-13529995Y13819995I2518000J-18D01*
G01*
D17*
X9600000Y8400000D02*
X15400000Y8400000D01*
X-1660401Y7950402D02*
X-2290000Y8580000D01*
D16*
X-12617397Y14272603D02*
X-12330000Y14560000D01*
D17*
X19560000Y1640000D02*
X19560000Y-2503432D01*
X19570000Y-4040000D02*
X19570000Y-2799998D01*
X17800000Y3400000D02*
X19560000Y1640000D01*
D16*
X-7863517Y14483518D02*
X-7470000Y14090000D01*
D17*
X9104939Y8194939D02*
X7780000Y6870000D01*
X17060000Y-7610660D02*
X17060000Y-9200000D01*
D18*
X3944976Y-14102700D02*
X3750000Y-14102700D01*
X3750000Y-14102700D02*
X-5752700Y-14102700D01*
D19*
X-6250000Y9330000D02*
X-6250000Y13269168D01*
D17*
X-3060000Y10438944D02*
X-3060000Y12680000D01*
X-3406482Y13516482D02*
X-3440000Y13550000D01*
D16*
X-11678163Y14830000D02*
X-8700000Y14830000D01*
D18*
X4540000Y9580000D02*
X4540000Y6044142D01*
X5376948Y-14986948D02*
X4880000Y-14490000D01*
D17*
X4550000Y6020000D02*
X3000000Y6020000D01*
X5727919Y6020000D02*
X4550000Y6020000D01*
X14400000Y-5800000D02*
X17810000Y-5800000D01*
X-3440000Y13550000D02*
X-3626446Y13736447D01*
X17810000Y-5800000D02*
X19570000Y-4040000D01*
D18*
X-5752700Y-14102700D02*
X-5780000Y-14130000D01*
D17*
X19573086Y-2569477D02*
X19570000Y-2572563D01*
X19570000Y-2572563D02*
X19570000Y-2799998D01*
X15645786Y-12614213D02*
X15460000Y-12800000D01*
X17800000Y6000000D02*
X17800000Y3400000D01*
X-3626446Y13736447D02*
X-3712073Y13818729D01*
X13800000Y-5200000D02*
X14400000Y-5800000D01*
X9600000Y8400000D02*
X9600000Y9930000D01*
X15400000Y8400000D02*
X17800000Y6000000D01*
X-6590000Y14090000D02*
X-7470000Y14090000D01*
X-6590000Y14090000D02*
X-4366979Y14090000D01*
D18*
X9207187Y-15390000D02*
X6350000Y-15390000D01*
D17*
X9600000Y8400000D02*
G75*
G03*
X9104944Y8194934I0J-700100D01*
G01*
D18*
X4540000Y6044142D02*
G75*
G03*
X4549988Y6019988I34100J-42D01*
G01*
X5445234Y-15015233D02*
G75*
G02*
X5376939Y-14986957I-34J96533D01*
G01*
D16*
X-12330000Y14560000D02*
G75*
G02*
X-11678163Y14829984I651800J-651800D01*
G01*
D17*
X7780000Y6870000D02*
G75*
G02*
X5727919Y6019992I-2052100J2052100D01*
G01*
X17810000Y-5800000D02*
G75*
G03*
X17059984Y-7610660I1810700J-1810700D01*
G01*
X-3060000Y12680000D02*
G75*
G03*
X-3406475Y13516489I-1183000J0D01*
G01*
X-2290000Y8580000D02*
G75*
G02*
X-3059982Y10438944I1858900J1858900D01*
G01*
X17060000Y-9200000D02*
G75*
G02*
X15645781Y-12614208I-4828400J0D01*
G01*
X-4366979Y14090000D02*
G75*
G02*
X-3712079Y13818723I-21J-926200D01*
G01*
D19*
X-7576066Y14346066D02*
G75*
G02*
X-7469991Y14090000I-256034J-256066D01*
G01*
D18*
X6350000Y-15390000D02*
G75*
G02*
X5445240Y-15015227I0J1279500D01*
G01*
D17*
X3000000Y6020000D02*
G75*
G02*
X-1660401Y7950402I0J6590800D01*
G01*
D18*
X15460000Y-12800000D02*
G75*
G02*
X9207187Y-15389995I-6252800J6252800D01*
G01*
D16*
X-12653917Y14257476D02*
G75*
G03*
X-12617393Y14272599I17J51624D01*
G01*
D18*
X4880000Y-14490000D02*
G75*
G03*
X3944976Y-14102710I-935000J-935000D01*
G01*
D19*
X-6250000Y13269168D02*
G75*
G03*
X-6589990Y14090010I-1160800J32D01*
G01*
D17*
X19560000Y-2503432D02*
G75*
G03*
X19573095Y-2569473I157600J-3068D01*
G01*
D16*
X-8700000Y14830000D02*
G75*
G02*
X-7863510Y14483525I0J-1183000D01*
G01*
D17*
%TO.N,VSYS*%
X533168Y-9582452D02*
X701218Y-9678090D01*
X11580000Y-8150000D02*
X14710000Y-8150000D01*
X-8400000Y-9000000D02*
X-1710000Y-9000000D01*
X-13600000Y-3400000D02*
X-11800000Y-5200000D01*
X-9510000Y-10110000D02*
X-8400000Y-9000000D01*
D18*
X-3390000Y160000D02*
X-2730000Y820000D01*
D17*
X11580000Y-8150000D02*
X11580000Y-8018772D01*
D18*
X-1240000Y830000D02*
X-2730000Y830000D01*
D17*
X9734924Y-8150000D02*
X11580000Y-8150000D01*
X11600000Y-13220000D02*
X11590000Y-13230000D01*
X991349Y-9815480D02*
X1093674Y-9856598D01*
D18*
X-2730000Y820000D02*
X-2730000Y830000D01*
D17*
X856831Y-9756209D02*
X991349Y-9815480D01*
X-3400000Y160000D02*
X-3390000Y160000D01*
X1093674Y-9856598D02*
X1171252Y-9885315D01*
X701218Y-9678090D02*
X856831Y-9756209D01*
X1171252Y-9885315D02*
X1229924Y-9905509D01*
X11600000Y-13170000D02*
X11600000Y-13220000D01*
X1229924Y-9905509D02*
X5496751Y-9905509D01*
X-9510000Y-10180000D02*
X-9510000Y-10110000D01*
X11600000Y-8198284D02*
X11600000Y-13170000D01*
X-13600000Y-200000D02*
X-13600000Y-2200000D01*
X-1710000Y-9000000D02*
X-872995Y-9000000D01*
X-13600000Y-2200000D02*
X-13600000Y-3400000D01*
X-13600000Y-2200000D02*
X-5760000Y-2200000D01*
X-5760000Y-2200000D02*
X-3400000Y160000D01*
X-11800000Y-5200000D02*
X-11800000Y-6600000D01*
X-11800000Y-6600000D02*
X-9510000Y-8890000D01*
X-9510000Y-8890000D02*
X-9510000Y-10180000D01*
X11580000Y-8150000D02*
G75*
G02*
X11600007Y-8198284I-48300J-48300D01*
G01*
X5496751Y-9905509D02*
G75*
G03*
X7200014Y-9200014I49J2408709D01*
G01*
X11580000Y-8018772D02*
G75*
G03*
X10399992Y-5170008I-4028800J-28D01*
G01*
X7200000Y-9200000D02*
G75*
G02*
X9734924Y-8150010I2534900J-2534900D01*
G01*
X-872995Y-9000000D02*
G75*
G02*
X533163Y-9582457I-5J-1988600D01*
G01*
D18*
%TO.N,+3V3CAM*%
X13200000Y-6400000D02*
X9400000Y-2600000D01*
D19*
X9890000Y1690000D02*
X9890000Y6820000D01*
D18*
X9400000Y-2600000D02*
X9400000Y-200000D01*
D19*
X9800000Y1600000D02*
X9200000Y1000000D01*
X9200000Y1000000D02*
X9200000Y0D01*
X12460000Y-460000D02*
X12460000Y-650000D01*
X9800000Y1600000D02*
X9890000Y1690000D01*
D18*
X9400000Y-200000D02*
X9200000Y0D01*
D19*
X9890000Y1690000D02*
X10310000Y1690000D01*
X10310000Y1690000D02*
X12460000Y-460000D01*
D20*
%TO.N,CAM_RESET*%
X11014214Y-1800000D02*
X16130000Y-1800000D01*
X10002042Y697958D02*
X10002042Y-884077D01*
X10292893Y-1492893D02*
X10307107Y-1507107D01*
X10000000Y700000D02*
X10002042Y697958D01*
X10002042Y-884077D02*
G75*
G03*
X10292895Y-1492891I1018258J112577D01*
G01*
X10307107Y-1507107D02*
G75*
G03*
X11014214Y-1799990I707093J707107D01*
G01*
D21*
%TO.N,CAM_VSYNC*%
X16357868Y-4400000D02*
X15830000Y-4400000D01*
X13785786Y-3600000D02*
X12200000Y-3600000D01*
X15830000Y-4400000D02*
X15414214Y-4400000D01*
X14707107Y-4107107D02*
X14492893Y-3892893D01*
X16800000Y-4170000D02*
X16720000Y-4250000D01*
X17077937Y-1492063D02*
X17077937Y-3587973D01*
X17550000Y-1020000D02*
X17077937Y-1492063D01*
X15414214Y-4400000D02*
G75*
G02*
X14707100Y-4107114I-14J1000000D01*
G01*
X14492893Y-3892893D02*
G75*
G03*
X13785786Y-3600010I-707093J-707107D01*
G01*
X16720000Y-4250000D02*
G75*
G02*
X16357868Y-4399987I-362100J362100D01*
G01*
X17077937Y-3587973D02*
G75*
G02*
X16800009Y-4170009I-972437J106973D01*
G01*
%TD*%
%TA.AperFunction,Conductor*%
%TO.N,GND*%
G36*
X15084099Y7579815D02*
G01*
X15104741Y7563181D01*
X16963181Y5704741D01*
X16996666Y5643418D01*
X16999500Y5617060D01*
X16999500Y5574549D01*
X16979815Y5507510D01*
X16927011Y5461755D01*
X16857853Y5451811D01*
X16808461Y5470233D01*
X16795079Y5478833D01*
X16793626Y5479767D01*
X16793624Y5479768D01*
X16793622Y5479769D01*
X16793623Y5479769D01*
X16652777Y5521124D01*
X16652775Y5521124D01*
X16505977Y5521124D01*
X16505974Y5521124D01*
X16365128Y5479769D01*
X16365127Y5479768D01*
X16241634Y5400404D01*
X16241630Y5400401D01*
X16145500Y5289462D01*
X16145497Y5289457D01*
X16084517Y5155932D01*
X16084516Y5155927D01*
X16063626Y5010624D01*
X16084516Y4865322D01*
X16084517Y4865317D01*
X16141977Y4739500D01*
X16145499Y4731788D01*
X16145501Y4731786D01*
X16150294Y4724328D01*
X16148689Y4723298D01*
X16173071Y4669906D01*
X16163124Y4600747D01*
X16144046Y4571061D01*
X16116124Y4538838D01*
X16116121Y4538833D01*
X16055141Y4405308D01*
X16055140Y4405303D01*
X16034250Y4260000D01*
X16055140Y4114698D01*
X16055141Y4114693D01*
X16108052Y3998836D01*
X16116123Y3981164D01*
X16212256Y3870222D01*
X16335750Y3790857D01*
X16335751Y3790857D01*
X16335752Y3790856D01*
X16476598Y3749501D01*
X16476600Y3749500D01*
X16476601Y3749500D01*
X16623400Y3749500D01*
X16623400Y3749501D01*
X16764250Y3790857D01*
X16808460Y3819269D01*
X16875500Y3838954D01*
X16942539Y3819269D01*
X16988294Y3766466D01*
X16999500Y3714954D01*
X16999500Y3321154D01*
X17030261Y3166511D01*
X17030264Y3166499D01*
X17090602Y3020828D01*
X17090609Y3020815D01*
X17178210Y2889712D01*
X17178213Y2889708D01*
X18723181Y1344741D01*
X18756666Y1283418D01*
X18759500Y1257060D01*
X18759500Y-2494058D01*
X18759477Y-2496428D01*
X18758324Y-2556687D01*
X18758325Y-2556699D01*
X18758546Y-2558467D01*
X18759500Y-2573815D01*
X18759500Y-2582273D01*
X18764018Y-2604985D01*
X18765449Y-2613840D01*
X18768548Y-2638700D01*
X18769500Y-2654039D01*
X18769500Y-3657060D01*
X18749815Y-3724099D01*
X18733181Y-3744741D01*
X17514741Y-4963181D01*
X17453418Y-4996666D01*
X17427060Y-4999500D01*
X16672842Y-4999500D01*
X16605803Y-4979815D01*
X16560048Y-4927011D01*
X16550104Y-4857853D01*
X16579129Y-4794297D01*
X16634528Y-4757568D01*
X16704928Y-4734696D01*
X16708185Y-4733638D01*
X16836185Y-4668423D01*
X16849468Y-4658773D01*
X16870087Y-4643792D01*
X16952406Y-4583985D01*
X16956991Y-4579399D01*
X16957007Y-4579387D01*
X17036353Y-4500039D01*
X17039079Y-4497668D01*
X17043761Y-4492948D01*
X17043764Y-4492947D01*
X17048049Y-4488627D01*
X17048198Y-4488544D01*
X17084329Y-4452077D01*
X17085616Y-4450777D01*
X17086022Y-4450370D01*
X17124571Y-4411822D01*
X17127028Y-4409007D01*
X17149646Y-4386194D01*
X17261501Y-4238153D01*
X17352514Y-4076461D01*
X17421045Y-3904033D01*
X17465860Y-3723980D01*
X17471643Y-3671566D01*
X17475118Y-3653082D01*
X17478437Y-3640700D01*
X17478437Y-3616740D01*
X17479180Y-3603184D01*
X17479530Y-3600000D01*
X17482332Y-3574528D01*
X17480353Y-3563400D01*
X17478437Y-3541686D01*
X17478437Y-1709318D01*
X17498122Y-1642279D01*
X17514750Y-1621642D01*
X17576239Y-1560153D01*
X17628978Y-1528861D01*
X17764250Y-1489143D01*
X17887744Y-1409778D01*
X17983877Y-1298836D01*
X18044859Y-1165304D01*
X18065750Y-1020000D01*
X18044859Y-874696D01*
X18044858Y-874695D01*
X18044858Y-874692D01*
X17983878Y-741167D01*
X17983877Y-741164D01*
X17887744Y-630222D01*
X17764250Y-550857D01*
X17764249Y-550856D01*
X17764248Y-550856D01*
X17764247Y-550855D01*
X17623401Y-509500D01*
X17623399Y-509500D01*
X17476601Y-509500D01*
X17476598Y-509500D01*
X17335752Y-550855D01*
X17335751Y-550855D01*
X17324001Y-558407D01*
X17256961Y-578089D01*
X17189922Y-558402D01*
X17144171Y-505601D01*
X17138648Y-493509D01*
X17123877Y-461164D01*
X17040286Y-364696D01*
X17027745Y-350223D01*
X17027741Y-350220D01*
X16904248Y-270856D01*
X16904247Y-270855D01*
X16763401Y-229500D01*
X16763399Y-229500D01*
X16616601Y-229500D01*
X16616598Y-229500D01*
X16475752Y-270855D01*
X16475751Y-270856D01*
X16352258Y-350220D01*
X16352254Y-350223D01*
X16256124Y-461162D01*
X16256121Y-461167D01*
X16195141Y-594692D01*
X16195140Y-594697D01*
X16174250Y-740000D01*
X16195140Y-885302D01*
X16195141Y-885307D01*
X16256121Y-1018832D01*
X16256124Y-1018837D01*
X16313822Y-1085424D01*
X16342847Y-1148980D01*
X16332903Y-1218139D01*
X16287148Y-1270943D01*
X16220109Y-1290627D01*
X16204343Y-1289500D01*
X16203399Y-1289500D01*
X16056601Y-1289500D01*
X16056598Y-1289500D01*
X15915752Y-1330855D01*
X15915751Y-1330855D01*
X15839570Y-1379815D01*
X15813350Y-1396666D01*
X15808450Y-1399815D01*
X15741410Y-1419500D01*
X11078916Y-1419500D01*
X11078904Y-1419499D01*
X11020297Y-1419499D01*
X11008146Y-1418902D01*
X10905505Y-1408795D01*
X10881662Y-1404053D01*
X10857309Y-1396666D01*
X10788821Y-1375891D01*
X10766363Y-1366589D01*
X10711893Y-1337475D01*
X10680796Y-1320853D01*
X10660592Y-1307354D01*
X10580930Y-1241978D01*
X10571913Y-1233805D01*
X10566904Y-1228796D01*
X10559534Y-1220747D01*
X10557349Y-1218139D01*
X10500450Y-1150222D01*
X10488491Y-1133237D01*
X10444506Y-1058093D01*
X10435548Y-1039342D01*
X10404732Y-957913D01*
X10399031Y-937930D01*
X10397243Y-928832D01*
X10384868Y-865844D01*
X10382542Y-841938D01*
X10382542Y315672D01*
X10402227Y382711D01*
X10412825Y396870D01*
X10433877Y421164D01*
X10465085Y489500D01*
X10496736Y558805D01*
X10542490Y611609D01*
X10609530Y631294D01*
X10676569Y611609D01*
X10697211Y594975D01*
X11915412Y-623226D01*
X11948897Y-684549D01*
X11950469Y-693260D01*
X11965140Y-795302D01*
X11965141Y-795307D01*
X12026121Y-928832D01*
X12026124Y-928837D01*
X12106126Y-1021164D01*
X12122256Y-1039778D01*
X12245750Y-1119143D01*
X12245751Y-1119143D01*
X12245752Y-1119144D01*
X12324385Y-1142232D01*
X12366820Y-1154692D01*
X12386598Y-1160499D01*
X12386600Y-1160500D01*
X12386601Y-1160500D01*
X12533400Y-1160500D01*
X12533400Y-1160499D01*
X12674250Y-1119143D01*
X12797744Y-1039778D01*
X12893877Y-928836D01*
X12936002Y-836593D01*
X12954858Y-795307D01*
X12954859Y-795302D01*
X12955790Y-788832D01*
X12975750Y-650000D01*
X12961762Y-552707D01*
X12960500Y-535061D01*
X12960500Y-510000D01*
X13634250Y-510000D01*
X13655140Y-655302D01*
X13655141Y-655307D01*
X13716121Y-788832D01*
X13716124Y-788837D01*
X13799716Y-885307D01*
X13812256Y-899778D01*
X13935750Y-979143D01*
X13935751Y-979143D01*
X13935752Y-979144D01*
X14045051Y-1011236D01*
X14074898Y-1020000D01*
X14076598Y-1020499D01*
X14076600Y-1020500D01*
X14076601Y-1020500D01*
X14223400Y-1020500D01*
X14223400Y-1020499D01*
X14364250Y-979143D01*
X14487744Y-899778D01*
X14583877Y-788836D01*
X14644859Y-655304D01*
X14665750Y-510000D01*
X14644859Y-364696D01*
X14644858Y-364695D01*
X14644858Y-364692D01*
X14583878Y-231167D01*
X14583877Y-231164D01*
X14488555Y-121158D01*
X14487745Y-120223D01*
X14487741Y-120220D01*
X14415045Y-73501D01*
X14364250Y-40857D01*
X14364249Y-40856D01*
X14364248Y-40856D01*
X14364247Y-40855D01*
X14223401Y500D01*
X14223399Y500D01*
X14076601Y500D01*
X14076598Y500D01*
X13935752Y-40855D01*
X13935751Y-40856D01*
X13812258Y-120220D01*
X13812254Y-120223D01*
X13716124Y-231162D01*
X13716121Y-231167D01*
X13655141Y-364692D01*
X13655140Y-364697D01*
X13634250Y-510000D01*
X12960500Y-510000D01*
X12960500Y-394108D01*
X12959532Y-390496D01*
X12959531Y-390492D01*
X12952618Y-364692D01*
X12926392Y-266814D01*
X12860500Y-152686D01*
X11457814Y1250000D01*
X15714250Y1250000D01*
X15735140Y1104698D01*
X15735141Y1104693D01*
X15796121Y971168D01*
X15796123Y971164D01*
X15892256Y860222D01*
X16015750Y780857D01*
X16015751Y780857D01*
X16015752Y780856D01*
X16156598Y739501D01*
X16156600Y739500D01*
X16156601Y739500D01*
X16303400Y739500D01*
X16303400Y739501D01*
X16444250Y780857D01*
X16567744Y860222D01*
X16663877Y971164D01*
X16724859Y1104696D01*
X16745750Y1250000D01*
X16724859Y1395304D01*
X16724858Y1395305D01*
X16724858Y1395308D01*
X16663878Y1528833D01*
X16663877Y1528836D01*
X16567744Y1639778D01*
X16444250Y1719143D01*
X16444249Y1719144D01*
X16444248Y1719144D01*
X16444247Y1719145D01*
X16303401Y1760500D01*
X16303399Y1760500D01*
X16156601Y1760500D01*
X16156598Y1760500D01*
X16015752Y1719145D01*
X16015751Y1719144D01*
X15892258Y1639780D01*
X15892254Y1639777D01*
X15796124Y1528838D01*
X15796121Y1528833D01*
X15735141Y1395308D01*
X15735140Y1395303D01*
X15714250Y1250000D01*
X11457814Y1250000D01*
X10617314Y2090500D01*
X10540770Y2134693D01*
X10503185Y2156393D01*
X10482404Y2161961D01*
X10422744Y2198327D01*
X10392216Y2261175D01*
X10390500Y2281735D01*
X10390500Y3720000D01*
X13534250Y3720000D01*
X13555140Y3574698D01*
X13555141Y3574693D01*
X13616121Y3441168D01*
X13616124Y3441163D01*
X13712254Y3330224D01*
X13712260Y3330219D01*
X13713011Y3329736D01*
X13713595Y3329062D01*
X13718957Y3324416D01*
X13718288Y3323645D01*
X13758765Y3276932D01*
X13768708Y3207773D01*
X13758766Y3173915D01*
X13755141Y3165978D01*
X13755140Y3165976D01*
X13734250Y3020671D01*
X13755140Y2875369D01*
X13755141Y2875367D01*
X13810136Y2754944D01*
X13820079Y2685786D01*
X13791054Y2622231D01*
X13736127Y2558842D01*
X13736121Y2558833D01*
X13675141Y2425308D01*
X13675140Y2425303D01*
X13654250Y2280000D01*
X13675140Y2134698D01*
X13675141Y2134693D01*
X13736121Y2001168D01*
X13736124Y2001163D01*
X13826110Y1897314D01*
X13832256Y1890222D01*
X13955750Y1810857D01*
X13955751Y1810857D01*
X13955752Y1810856D01*
X14065051Y1778764D01*
X14094898Y1770000D01*
X14096598Y1769501D01*
X14096600Y1769500D01*
X14096601Y1769500D01*
X14243400Y1769500D01*
X14243400Y1769501D01*
X14384250Y1810857D01*
X14507744Y1890222D01*
X14603877Y2001164D01*
X14664859Y2134696D01*
X14685750Y2280000D01*
X14664859Y2425304D01*
X14664858Y2425305D01*
X14664858Y2425308D01*
X14609864Y2545727D01*
X14599920Y2614886D01*
X14628943Y2678440D01*
X14683877Y2741835D01*
X14744859Y2875367D01*
X14765750Y3020671D01*
X14744859Y3165975D01*
X14744858Y3165978D01*
X14744858Y3165979D01*
X14696600Y3271648D01*
X14683877Y3299507D01*
X14587744Y3410449D01*
X14587743Y3410450D01*
X14587737Y3410455D01*
X14586985Y3410938D01*
X14586399Y3411614D01*
X14581043Y3416255D01*
X14581710Y3417026D01*
X14541232Y3463744D01*
X14531292Y3532903D01*
X14541238Y3566768D01*
X14544859Y3574696D01*
X14565750Y3720000D01*
X14544859Y3865304D01*
X14544858Y3865305D01*
X14544858Y3865308D01*
X14491948Y3981163D01*
X14483877Y3998836D01*
X14387744Y4109778D01*
X14380091Y4114696D01*
X14264248Y4189144D01*
X14264247Y4189145D01*
X14123401Y4230500D01*
X14123399Y4230500D01*
X13976601Y4230500D01*
X13976598Y4230500D01*
X13835752Y4189145D01*
X13835751Y4189144D01*
X13712258Y4109780D01*
X13712254Y4109777D01*
X13616124Y3998838D01*
X13616121Y3998833D01*
X13555141Y3865308D01*
X13555140Y3865303D01*
X13534250Y3720000D01*
X10390500Y3720000D01*
X10390500Y5230000D01*
X13604250Y5230000D01*
X13625140Y5084698D01*
X13625141Y5084693D01*
X13686121Y4951168D01*
X13686123Y4951164D01*
X13712119Y4921163D01*
X13764926Y4860221D01*
X13782256Y4840222D01*
X13905750Y4760857D01*
X13905751Y4760857D01*
X13905752Y4760856D01*
X14046598Y4719501D01*
X14046600Y4719500D01*
X14046601Y4719500D01*
X14193400Y4719500D01*
X14193400Y4719501D01*
X14334250Y4760857D01*
X14457744Y4840222D01*
X14553877Y4951164D01*
X14601157Y5054693D01*
X14614858Y5084693D01*
X14614859Y5084698D01*
X14617734Y5104696D01*
X14635750Y5230000D01*
X14614859Y5375304D01*
X14614858Y5375305D01*
X14614858Y5375308D01*
X14567579Y5478833D01*
X14553877Y5508836D01*
X14483740Y5589777D01*
X14457745Y5619777D01*
X14457741Y5619780D01*
X14426620Y5639780D01*
X14334250Y5699143D01*
X14334249Y5699144D01*
X14334248Y5699144D01*
X14334247Y5699145D01*
X14193401Y5740500D01*
X14193399Y5740500D01*
X14046601Y5740500D01*
X14046598Y5740500D01*
X13905752Y5699145D01*
X13905751Y5699144D01*
X13782258Y5619780D01*
X13782254Y5619777D01*
X13686124Y5508838D01*
X13686121Y5508833D01*
X13625141Y5375308D01*
X13625140Y5375303D01*
X13604250Y5230000D01*
X10390500Y5230000D01*
X10390500Y6705063D01*
X10391762Y6722710D01*
X10405750Y6820000D01*
X10384859Y6965304D01*
X10384858Y6965305D01*
X10384858Y6965308D01*
X10323878Y7098833D01*
X10323877Y7098836D01*
X10227744Y7209778D01*
X10104250Y7289143D01*
X10104249Y7289144D01*
X10104248Y7289144D01*
X10104247Y7289145D01*
X9963401Y7330500D01*
X9963399Y7330500D01*
X9816601Y7330500D01*
X9816598Y7330500D01*
X9675752Y7289145D01*
X9667685Y7285460D01*
X9666298Y7288497D01*
X9614777Y7273392D01*
X9547746Y7293105D01*
X9502014Y7345929D01*
X9492100Y7415091D01*
X9521152Y7478635D01*
X9527120Y7485044D01*
X9605260Y7563184D01*
X9666582Y7596666D01*
X9692939Y7599500D01*
X15017060Y7599500D01*
X15084099Y7579815D01*
G37*
%TD.AperFunction*%
%TA.AperFunction,Conductor*%
G36*
X15808449Y-2200185D02*
G01*
X15808450Y-2200185D01*
X15916266Y-2269475D01*
X15962021Y-2322279D01*
X15971964Y-2391438D01*
X15942940Y-2454991D01*
X15920268Y-2481156D01*
X15920262Y-2481165D01*
X15859282Y-2614690D01*
X15859281Y-2614695D01*
X15838391Y-2759998D01*
X15859281Y-2905300D01*
X15859282Y-2905305D01*
X15920262Y-3038830D01*
X15920265Y-3038835D01*
X16000002Y-3130856D01*
X16016397Y-3149776D01*
X16139891Y-3229141D01*
X16139892Y-3229141D01*
X16139893Y-3229142D01*
X16280739Y-3270497D01*
X16280741Y-3270498D01*
X16280742Y-3270498D01*
X16427540Y-3270498D01*
X16518504Y-3243789D01*
X16588371Y-3243789D01*
X16647150Y-3281563D01*
X16676175Y-3345119D01*
X16677437Y-3362766D01*
X16677437Y-3544392D01*
X16675122Y-3568243D01*
X16663201Y-3629063D01*
X16657501Y-3649070D01*
X16630598Y-3720217D01*
X16621634Y-3738989D01*
X16583222Y-3804627D01*
X16571245Y-3821638D01*
X16519307Y-3883621D01*
X16511944Y-3891661D01*
X16442552Y-3961053D01*
X16430356Y-3971749D01*
X16428087Y-3973490D01*
X16368765Y-3998055D01*
X16365829Y-3998441D01*
X16349662Y-3999499D01*
X16317644Y-3999497D01*
X16300310Y-3999497D01*
X16300308Y-3999497D01*
X16291284Y-3999497D01*
X16291244Y-3999500D01*
X15420299Y-3999500D01*
X15408146Y-3998903D01*
X15396166Y-3997723D01*
X15309402Y-3989178D01*
X15285563Y-3984436D01*
X15196477Y-3957414D01*
X15174019Y-3948112D01*
X15091912Y-3904227D01*
X15071701Y-3890723D01*
X14995077Y-3827840D01*
X14986061Y-3819668D01*
X14814398Y-3648005D01*
X14814381Y-3647974D01*
X14711192Y-3544787D01*
X14711186Y-3544781D01*
X14565541Y-3433025D01*
X14565530Y-3433018D01*
X14413281Y-3345119D01*
X14406540Y-3341227D01*
X14345253Y-3315842D01*
X14236920Y-3270970D01*
X14059590Y-3223458D01*
X14059587Y-3223457D01*
X13877576Y-3199499D01*
X13877574Y-3199499D01*
X13785780Y-3199500D01*
X13702496Y-3199500D01*
X13635457Y-3179815D01*
X13589702Y-3127011D01*
X13579758Y-3057853D01*
X13608783Y-2994297D01*
X13667561Y-2956523D01*
X13667562Y-2956523D01*
X13749223Y-2932545D01*
X13749223Y-2932544D01*
X13749226Y-2932544D01*
X13872720Y-2853179D01*
X13968853Y-2742237D01*
X14016137Y-2638700D01*
X14029834Y-2608708D01*
X14029835Y-2608703D01*
X14035958Y-2566116D01*
X14050726Y-2463401D01*
X14030417Y-2322146D01*
X14040361Y-2252988D01*
X14086116Y-2200184D01*
X14153155Y-2180500D01*
X15741410Y-2180500D01*
X15808449Y-2200185D01*
G37*
%TD.AperFunction*%
%TA.AperFunction,Conductor*%
G36*
X10149984Y-1876946D02*
G01*
X10245602Y-1950315D01*
X10365960Y-2019801D01*
X10402319Y-2040793D01*
X10402321Y-2040794D01*
X10402325Y-2040796D01*
X10569517Y-2110047D01*
X10744318Y-2156883D01*
X10744319Y-2156883D01*
X10744322Y-2156884D01*
X10823078Y-2167250D01*
X10923736Y-2180501D01*
X11014219Y-2180500D01*
X12916797Y-2180500D01*
X12983836Y-2200185D01*
X13029591Y-2252989D01*
X13039534Y-2322146D01*
X13027149Y-2408294D01*
X13019226Y-2463401D01*
X13040116Y-2608703D01*
X13040117Y-2608708D01*
X13101097Y-2742233D01*
X13101099Y-2742237D01*
X13197232Y-2853179D01*
X13320726Y-2932544D01*
X13320727Y-2932544D01*
X13320728Y-2932545D01*
X13402390Y-2956523D01*
X13461169Y-2994297D01*
X13490194Y-3057852D01*
X13480251Y-3127011D01*
X13434496Y-3179815D01*
X13367457Y-3199500D01*
X12557470Y-3199500D01*
X12490431Y-3179815D01*
X12490430Y-3179815D01*
X12414248Y-3130855D01*
X12273401Y-3089500D01*
X12273399Y-3089500D01*
X12126601Y-3089500D01*
X12126598Y-3089500D01*
X11985752Y-3130855D01*
X11985751Y-3130856D01*
X11862258Y-3210220D01*
X11862254Y-3210223D01*
X11766124Y-3321162D01*
X11766121Y-3321167D01*
X11705141Y-3454692D01*
X11705140Y-3454697D01*
X11684250Y-3600000D01*
X11705140Y-3745302D01*
X11705141Y-3745304D01*
X11740145Y-3821953D01*
X11750088Y-3891112D01*
X11721063Y-3954667D01*
X11662284Y-3992441D01*
X11592415Y-3992441D01*
X11539669Y-3961145D01*
X11488816Y-3910292D01*
X9986819Y-2408294D01*
X9953334Y-2346971D01*
X9950500Y-2320613D01*
X9950500Y-1975323D01*
X9970185Y-1908284D01*
X10022989Y-1862529D01*
X10092147Y-1852585D01*
X10149984Y-1876946D01*
G37*
%TD.AperFunction*%
%TA.AperFunction,Conductor*%
G36*
X17057772Y16876004D02*
G01*
X17078371Y16859434D01*
X17279124Y16659155D01*
X17297491Y16640832D01*
X17301033Y16637150D01*
X17969437Y15912883D01*
X17972801Y15909083D01*
X18586225Y15186733D01*
X18610719Y15157890D01*
X18613940Y15153935D01*
X19174739Y14435455D01*
X19220322Y14377055D01*
X19223387Y14372957D01*
X19797192Y13571723D01*
X19800085Y13567502D01*
X20109997Y13094693D01*
X20334989Y12751439D01*
X20340333Y12743287D01*
X20343050Y12738949D01*
X20849006Y11892843D01*
X20851235Y11888958D01*
X20906784Y11787951D01*
X21059334Y11510562D01*
X21073492Y11484819D01*
X21088839Y11425073D01*
X21089999Y-5689991D01*
X21092407Y-5788252D01*
X21092408Y-5788261D01*
X21130742Y-5980979D01*
X21130744Y-5980987D01*
X21205943Y-6162533D01*
X21205948Y-6162543D01*
X21315118Y-6325927D01*
X21315121Y-6325931D01*
X21454068Y-6464878D01*
X21454072Y-6464881D01*
X21617456Y-6574051D01*
X21617460Y-6574053D01*
X21617463Y-6574055D01*
X21799013Y-6649256D01*
X21876319Y-6664633D01*
X21991733Y-6687591D01*
X21991739Y-6687591D01*
X21991746Y-6687593D01*
X22028707Y-6687972D01*
X22090299Y-6688606D01*
X22090300Y-6688605D01*
X22090309Y-6688606D01*
X22161334Y-6684527D01*
X22188514Y-6685957D01*
X22326908Y-6708660D01*
X22356700Y-6717494D01*
X22483291Y-6773096D01*
X22509952Y-6789058D01*
X22566598Y-6833489D01*
X22618750Y-6874394D01*
X22640601Y-6896480D01*
X22724769Y-7006190D01*
X22740442Y-7033017D01*
X22794686Y-7160204D01*
X22803199Y-7190089D01*
X22824415Y-7328711D01*
X22825555Y-7355906D01*
X22821782Y-7411243D01*
X22815790Y-7441768D01*
X22667697Y-7889248D01*
X22666232Y-7893421D01*
X22327555Y-8806262D01*
X22325701Y-8810965D01*
X21950206Y-9708986D01*
X21948161Y-9713609D01*
X21536372Y-10595586D01*
X21534140Y-10600122D01*
X21086759Y-11464552D01*
X21084345Y-11468993D01*
X20602083Y-12314505D01*
X20599489Y-12318844D01*
X20083185Y-13143962D01*
X20080417Y-13148192D01*
X19530892Y-13951607D01*
X19527953Y-13955721D01*
X18946154Y-14736050D01*
X18943051Y-14740040D01*
X18329909Y-15496032D01*
X18326645Y-15499893D01*
X17683232Y-16230226D01*
X17679814Y-16233950D01*
X17007128Y-16937494D01*
X17003560Y-16941076D01*
X16302781Y-17616592D01*
X16299071Y-17620025D01*
X15571348Y-18266411D01*
X15567501Y-18269691D01*
X14813995Y-18885909D01*
X14810017Y-18889028D01*
X14032070Y-19473987D01*
X14027969Y-19476942D01*
X13226805Y-20029720D01*
X13222586Y-20032506D01*
X12399544Y-20552176D01*
X12395215Y-20554787D01*
X11551709Y-21040460D01*
X11547278Y-21042893D01*
X10684644Y-21493800D01*
X10680117Y-21496050D01*
X9799820Y-21911420D01*
X9795205Y-21913483D01*
X8898742Y-22292614D01*
X8894047Y-22294488D01*
X7982850Y-22636775D01*
X7978082Y-22638456D01*
X7053696Y-22943316D01*
X7048864Y-22944801D01*
X6112821Y-23211730D01*
X6107932Y-23213017D01*
X5161484Y-23441644D01*
X5157166Y-23442606D01*
X4692293Y-23537490D01*
X4667453Y-23539995D01*
X-4676856Y-23536840D01*
X-4701635Y-23534330D01*
X-5147713Y-23443195D01*
X-5151864Y-23442273D01*
X-6061334Y-23223734D01*
X-6066032Y-23222507D01*
X-6965918Y-22968621D01*
X-6970564Y-22967212D01*
X-7859860Y-22678276D01*
X-7864448Y-22676685D01*
X-8099505Y-22590000D01*
X-2825750Y-22590000D01*
X-2804860Y-22735302D01*
X-2804859Y-22735307D01*
X-2743879Y-22868832D01*
X-2743877Y-22868836D01*
X-2647744Y-22979778D01*
X-2524250Y-23059143D01*
X-2524249Y-23059143D01*
X-2524248Y-23059144D01*
X-2383402Y-23100499D01*
X-2383400Y-23100500D01*
X-2383399Y-23100500D01*
X-2236600Y-23100500D01*
X-2236600Y-23100499D01*
X-2095750Y-23059143D01*
X-1972256Y-22979778D01*
X-1876123Y-22868836D01*
X-1815141Y-22735304D01*
X-1794250Y-22590000D01*
X-1815141Y-22444696D01*
X-1815142Y-22444695D01*
X-1815142Y-22444692D01*
X-1876122Y-22311167D01*
X-1876123Y-22311164D01*
X-1972256Y-22200222D01*
X-2095750Y-22120857D01*
X-2095751Y-22120856D01*
X-2095752Y-22120856D01*
X-2095753Y-22120855D01*
X-2236599Y-22079500D01*
X-2236601Y-22079500D01*
X-2383399Y-22079500D01*
X-2383402Y-22079500D01*
X-2524248Y-22120855D01*
X-2524249Y-22120856D01*
X-2647742Y-22200220D01*
X-2647746Y-22200223D01*
X-2743876Y-22311162D01*
X-2743879Y-22311167D01*
X-2804859Y-22444692D01*
X-2804860Y-22444697D01*
X-2825750Y-22590000D01*
X-8099505Y-22590000D01*
X-8741722Y-22353162D01*
X-8746244Y-22351393D01*
X-9610186Y-21993770D01*
X-9614636Y-21991825D01*
X-10463903Y-21600656D01*
X-10468273Y-21598539D01*
X-11301603Y-21174403D01*
X-11305886Y-21172116D01*
X-11826116Y-20881153D01*
X-5120500Y-20881153D01*
X-5120500Y-21638846D01*
X-5089739Y-21793489D01*
X-5089736Y-21793501D01*
X-5029398Y-21939172D01*
X-5029391Y-21939185D01*
X-4941790Y-22070288D01*
X-4941787Y-22070292D01*
X-4830293Y-22181786D01*
X-4830289Y-22181789D01*
X-4699186Y-22269390D01*
X-4699173Y-22269397D01*
X-4553502Y-22329735D01*
X-4553497Y-22329737D01*
X-4435732Y-22353162D01*
X-4398847Y-22360499D01*
X-4398844Y-22360500D01*
X-4398842Y-22360500D01*
X-4241156Y-22360500D01*
X-4241155Y-22360499D01*
X-4086503Y-22329737D01*
X-3940821Y-22269394D01*
X-3809711Y-22181789D01*
X-3698211Y-22070289D01*
X-3610606Y-21939179D01*
X-3550263Y-21793497D01*
X-3519500Y-21638842D01*
X-3519500Y-20881158D01*
X-3519500Y-20881155D01*
X-3519501Y-20881153D01*
X3519500Y-20881153D01*
X3519500Y-21638846D01*
X3550261Y-21793489D01*
X3550264Y-21793501D01*
X3610602Y-21939172D01*
X3610609Y-21939185D01*
X3698210Y-22070288D01*
X3698213Y-22070292D01*
X3809707Y-22181786D01*
X3809711Y-22181789D01*
X3940814Y-22269390D01*
X3940827Y-22269397D01*
X4086498Y-22329735D01*
X4086503Y-22329737D01*
X4204268Y-22353162D01*
X4241153Y-22360499D01*
X4241156Y-22360500D01*
X4241158Y-22360500D01*
X4398844Y-22360500D01*
X4398845Y-22360499D01*
X4553497Y-22329737D01*
X4699179Y-22269394D01*
X4830289Y-22181789D01*
X4941789Y-22070289D01*
X5029394Y-21939179D01*
X5089737Y-21793497D01*
X5120500Y-21638842D01*
X5120500Y-20881158D01*
X5120500Y-20881155D01*
X5120499Y-20881153D01*
X5089738Y-20726510D01*
X5089737Y-20726503D01*
X5089735Y-20726498D01*
X5029397Y-20580827D01*
X5029390Y-20580814D01*
X4941789Y-20449711D01*
X4941786Y-20449707D01*
X4830292Y-20338213D01*
X4830288Y-20338210D01*
X4699185Y-20250609D01*
X4699172Y-20250602D01*
X4553501Y-20190264D01*
X4553489Y-20190261D01*
X4398845Y-20159500D01*
X4398842Y-20159500D01*
X4241158Y-20159500D01*
X4241155Y-20159500D01*
X4086510Y-20190261D01*
X4086498Y-20190264D01*
X3940827Y-20250602D01*
X3940814Y-20250609D01*
X3809711Y-20338210D01*
X3809707Y-20338213D01*
X3698213Y-20449707D01*
X3698210Y-20449711D01*
X3610609Y-20580814D01*
X3610602Y-20580827D01*
X3550264Y-20726498D01*
X3550261Y-20726510D01*
X3519500Y-20881153D01*
X-3519501Y-20881153D01*
X-3550262Y-20726510D01*
X-3550263Y-20726503D01*
X-3550265Y-20726498D01*
X-3610603Y-20580827D01*
X-3610610Y-20580814D01*
X-3698211Y-20449711D01*
X-3698214Y-20449707D01*
X-3809708Y-20338213D01*
X-3809712Y-20338210D01*
X-3940815Y-20250609D01*
X-3940828Y-20250602D01*
X-4086499Y-20190264D01*
X-4086511Y-20190261D01*
X-4241155Y-20159500D01*
X-4241158Y-20159500D01*
X-4398842Y-20159500D01*
X-4398845Y-20159500D01*
X-4553490Y-20190261D01*
X-4553502Y-20190264D01*
X-4699173Y-20250602D01*
X-4699186Y-20250609D01*
X-4830289Y-20338210D01*
X-4830293Y-20338213D01*
X-4941787Y-20449707D01*
X-4941790Y-20449711D01*
X-5029391Y-20580814D01*
X-5029398Y-20580827D01*
X-5089736Y-20726498D01*
X-5089739Y-20726510D01*
X-5120500Y-20881153D01*
X-11826116Y-20881153D01*
X-11850252Y-20867654D01*
X-12121962Y-20715686D01*
X-12126121Y-20713252D01*
X-12483401Y-20494635D01*
X-12923713Y-20225212D01*
X-12927804Y-20222597D01*
X-13705649Y-19703725D01*
X-13709635Y-19700952D01*
X-13986358Y-19500272D01*
X-11065501Y-19500272D01*
X-11040503Y-19625939D01*
X-11040501Y-19625945D01*
X-10991467Y-19744325D01*
X-10991462Y-19744334D01*
X-10920277Y-19850869D01*
X-10920274Y-19850873D01*
X-10829673Y-19941474D01*
X-10829669Y-19941477D01*
X-10723134Y-20012662D01*
X-10723128Y-20012665D01*
X-10723127Y-20012666D01*
X-10604744Y-20061702D01*
X-10604740Y-20061702D01*
X-10604739Y-20061703D01*
X-10479072Y-20086701D01*
X-10479069Y-20086701D01*
X-10350929Y-20086701D01*
X-10266385Y-20069883D01*
X-10225256Y-20061702D01*
X-10106873Y-20012666D01*
X-10048641Y-19973757D01*
X-9981964Y-19952879D01*
X-9914583Y-19971363D01*
X-9867893Y-20023342D01*
X-9859226Y-20061540D01*
X-9857012Y-20061222D01*
X-9834860Y-20215302D01*
X-9834859Y-20215307D01*
X-9773879Y-20348832D01*
X-9773877Y-20348836D01*
X-9677744Y-20459778D01*
X-9554250Y-20539143D01*
X-9554249Y-20539143D01*
X-9554248Y-20539144D01*
X-9413402Y-20580499D01*
X-9413400Y-20580500D01*
X-9413399Y-20580500D01*
X-9266600Y-20580500D01*
X-9266600Y-20580499D01*
X-9125750Y-20539143D01*
X-9002256Y-20459778D01*
X-8906123Y-20348836D01*
X-8849666Y-20225212D01*
X-8845142Y-20215307D01*
X-8845141Y-20215302D01*
X-8841541Y-20190263D01*
X-8824250Y-20070000D01*
X-8845141Y-19924696D01*
X-8845142Y-19924695D01*
X-8845142Y-19924692D01*
X-8906122Y-19791167D01*
X-8906123Y-19791164D01*
X-9002256Y-19680222D01*
X-9125750Y-19600857D01*
X-9125751Y-19600856D01*
X-9125752Y-19600856D01*
X-9125753Y-19600855D01*
X-9266599Y-19559500D01*
X-9266601Y-19559500D01*
X-9413399Y-19559500D01*
X-9413402Y-19559500D01*
X-9554248Y-19600855D01*
X-9554251Y-19600856D01*
X-9573728Y-19613374D01*
X-9640767Y-19633058D01*
X-9707806Y-19613373D01*
X-9753561Y-19560568D01*
X-9762588Y-19506362D01*
X-9764500Y-19506362D01*
X-9764500Y-19372129D01*
X-9789498Y-19246462D01*
X-9789499Y-19246461D01*
X-9789499Y-19246457D01*
X-9838535Y-19128074D01*
X-9838536Y-19128073D01*
X-9838539Y-19128067D01*
X-9909724Y-19021532D01*
X-9909727Y-19021528D01*
X-10000328Y-18930927D01*
X-10000332Y-18930924D01*
X-10106867Y-18859739D01*
X-10106876Y-18859734D01*
X-10225256Y-18810700D01*
X-10225262Y-18810698D01*
X-10350929Y-18785701D01*
X-10350931Y-18785701D01*
X-10479069Y-18785701D01*
X-10479071Y-18785701D01*
X-10604739Y-18810698D01*
X-10604745Y-18810700D01*
X-10723125Y-18859734D01*
X-10723134Y-18859739D01*
X-10829669Y-18930924D01*
X-10829673Y-18930927D01*
X-10920274Y-19021528D01*
X-10920277Y-19021532D01*
X-10991462Y-19128067D01*
X-10991467Y-19128076D01*
X-11040501Y-19246456D01*
X-11040503Y-19246462D01*
X-11065500Y-19372129D01*
X-11065500Y-19372132D01*
X-11065500Y-19500270D01*
X-11065500Y-19500272D01*
X-11065501Y-19500272D01*
X-13986358Y-19500272D01*
X-14466824Y-19151837D01*
X-14470223Y-19149282D01*
X-14521357Y-19109455D01*
X-14825523Y-18872544D01*
X-14849583Y-18847687D01*
X-14891001Y-18790778D01*
X-14901970Y-18772621D01*
X-14978933Y-18616425D01*
X-14987457Y-18593787D01*
X-15032226Y-18427063D01*
X-15036190Y-18403196D01*
X-15047720Y-18230961D01*
X-15046972Y-18206772D01*
X-15024829Y-18035585D01*
X-15019397Y-18012001D01*
X-14964422Y-17848371D01*
X-14954515Y-17826298D01*
X-14887327Y-17708844D01*
X-14868050Y-17675144D01*
X-14855990Y-17657712D01*
X-14800337Y-17590406D01*
X-14799575Y-17589497D01*
X-14510936Y-17248606D01*
X-9765501Y-17248606D01*
X-9740503Y-17374273D01*
X-9740501Y-17374279D01*
X-9691467Y-17492659D01*
X-9691462Y-17492668D01*
X-9620277Y-17599203D01*
X-9620274Y-17599207D01*
X-9529673Y-17689808D01*
X-9529669Y-17689811D01*
X-9423134Y-17760996D01*
X-9423128Y-17760999D01*
X-9423127Y-17761000D01*
X-9304744Y-17810036D01*
X-9304740Y-17810036D01*
X-9304739Y-17810037D01*
X-9179072Y-17835035D01*
X-9179069Y-17835035D01*
X-9050929Y-17835035D01*
X-8966385Y-17818217D01*
X-8925256Y-17810036D01*
X-8806873Y-17761000D01*
X-8700331Y-17689811D01*
X-8609724Y-17599204D01*
X-8538535Y-17492662D01*
X-8489499Y-17374279D01*
X-8481318Y-17333150D01*
X-8464500Y-17248606D01*
X-8464500Y-17120463D01*
X-8489498Y-16994796D01*
X-8489499Y-16994795D01*
X-8489499Y-16994791D01*
X-8538535Y-16876408D01*
X-8538536Y-16876407D01*
X-8538539Y-16876401D01*
X-8609724Y-16769866D01*
X-8609727Y-16769862D01*
X-8700328Y-16679261D01*
X-8700332Y-16679258D01*
X-8806867Y-16608073D01*
X-8806876Y-16608068D01*
X-8925256Y-16559034D01*
X-8925262Y-16559032D01*
X-9050929Y-16534035D01*
X-9050931Y-16534035D01*
X-9179069Y-16534035D01*
X-9179071Y-16534035D01*
X-9304739Y-16559032D01*
X-9304745Y-16559034D01*
X-9423125Y-16608068D01*
X-9423134Y-16608073D01*
X-9529669Y-16679258D01*
X-9529673Y-16679261D01*
X-9620274Y-16769862D01*
X-9620277Y-16769866D01*
X-9691462Y-16876401D01*
X-9691467Y-16876410D01*
X-9740501Y-16994790D01*
X-9740503Y-16994796D01*
X-9765500Y-17120463D01*
X-9765500Y-17120466D01*
X-9765500Y-17248604D01*
X-9765500Y-17248606D01*
X-9765501Y-17248606D01*
X-14510936Y-17248606D01*
X-13835716Y-16451153D01*
X-5120500Y-16451153D01*
X-5120500Y-17708846D01*
X-5089739Y-17863489D01*
X-5089736Y-17863501D01*
X-5029398Y-18009172D01*
X-5029391Y-18009185D01*
X-4941790Y-18140288D01*
X-4941787Y-18140292D01*
X-4830293Y-18251786D01*
X-4830289Y-18251789D01*
X-4699186Y-18339390D01*
X-4699173Y-18339397D01*
X-4553502Y-18399735D01*
X-4553497Y-18399737D01*
X-4416121Y-18427063D01*
X-4398847Y-18430499D01*
X-4398844Y-18430500D01*
X-4398842Y-18430500D01*
X-4241156Y-18430500D01*
X-4241155Y-18430499D01*
X-4086503Y-18399737D01*
X-3940821Y-18339394D01*
X-3809711Y-18251789D01*
X-3698211Y-18140289D01*
X-3610606Y-18009179D01*
X-3587131Y-17952504D01*
X-3543293Y-17898103D01*
X-3476999Y-17876037D01*
X-3409299Y-17893315D01*
X-3365185Y-17937956D01*
X-3350515Y-17963365D01*
X-3243365Y-18070515D01*
X-3129719Y-18136129D01*
X-3122514Y-18140289D01*
X-3112135Y-18146281D01*
X-2965766Y-18185500D01*
X-2965764Y-18185500D01*
X-2814236Y-18185500D01*
X-2814234Y-18185500D01*
X-2667865Y-18146281D01*
X-2536635Y-18070515D01*
X-2429485Y-17963365D01*
X-2353719Y-17832135D01*
X-2314500Y-17685766D01*
X-2314500Y-17534234D01*
X2314500Y-17534234D01*
X2314500Y-17685765D01*
X2353719Y-17832136D01*
X2371821Y-17863489D01*
X2429485Y-17963365D01*
X2536635Y-18070515D01*
X2650281Y-18136129D01*
X2657486Y-18140289D01*
X2667865Y-18146281D01*
X2814234Y-18185500D01*
X2814236Y-18185500D01*
X2965764Y-18185500D01*
X2965766Y-18185500D01*
X3112135Y-18146281D01*
X3243365Y-18070515D01*
X3350515Y-17963365D01*
X3365183Y-17937958D01*
X3415748Y-17889743D01*
X3484355Y-17876519D01*
X3549220Y-17902486D01*
X3587131Y-17952506D01*
X3610602Y-18009172D01*
X3610609Y-18009185D01*
X3698210Y-18140288D01*
X3698213Y-18140292D01*
X3809707Y-18251786D01*
X3809711Y-18251789D01*
X3940814Y-18339390D01*
X3940827Y-18339397D01*
X4086498Y-18399735D01*
X4086503Y-18399737D01*
X4223879Y-18427063D01*
X4241153Y-18430499D01*
X4241156Y-18430500D01*
X4241158Y-18430500D01*
X4398844Y-18430500D01*
X4398845Y-18430499D01*
X4553497Y-18399737D01*
X4699179Y-18339394D01*
X4830289Y-18251789D01*
X4941789Y-18140289D01*
X5029394Y-18009179D01*
X5089737Y-17863497D01*
X5120500Y-17708842D01*
X5120500Y-16451158D01*
X5120500Y-16451155D01*
X5120499Y-16451153D01*
X5116391Y-16430499D01*
X5089737Y-16296503D01*
X5063827Y-16233950D01*
X5029397Y-16150827D01*
X5029390Y-16150814D01*
X4941789Y-16019711D01*
X4941786Y-16019707D01*
X4830292Y-15908213D01*
X4830288Y-15908210D01*
X4699185Y-15820609D01*
X4699172Y-15820602D01*
X4553501Y-15760264D01*
X4553489Y-15760261D01*
X4398845Y-15729500D01*
X4398842Y-15729500D01*
X4241158Y-15729500D01*
X4241155Y-15729500D01*
X4086510Y-15760261D01*
X4086498Y-15760264D01*
X3940827Y-15820602D01*
X3940814Y-15820609D01*
X3809711Y-15908210D01*
X3809707Y-15908213D01*
X3698213Y-16019707D01*
X3698210Y-16019711D01*
X3610609Y-16150814D01*
X3610602Y-16150827D01*
X3550264Y-16296498D01*
X3550261Y-16296510D01*
X3519500Y-16451153D01*
X3519500Y-17126258D01*
X3499815Y-17193297D01*
X3447011Y-17239052D01*
X3377853Y-17248996D01*
X3314297Y-17219971D01*
X3307819Y-17213939D01*
X3243367Y-17149487D01*
X3243365Y-17149485D01*
X3177750Y-17111602D01*
X3112136Y-17073719D01*
X3038950Y-17054109D01*
X2965766Y-17034500D01*
X2814234Y-17034500D01*
X2667863Y-17073719D01*
X2536635Y-17149485D01*
X2536632Y-17149487D01*
X2429487Y-17256632D01*
X2429485Y-17256635D01*
X2353719Y-17387863D01*
X2314500Y-17534234D01*
X-2314500Y-17534234D01*
X-2353719Y-17387865D01*
X-2429485Y-17256635D01*
X-2536635Y-17149485D01*
X-2602250Y-17111602D01*
X-2667864Y-17073719D01*
X-2741050Y-17054109D01*
X-2814234Y-17034500D01*
X-2965766Y-17034500D01*
X-3112137Y-17073719D01*
X-3243365Y-17149485D01*
X-3243368Y-17149487D01*
X-3307819Y-17213939D01*
X-3369142Y-17247424D01*
X-3438834Y-17242440D01*
X-3494767Y-17200568D01*
X-3519184Y-17135104D01*
X-3519500Y-17126258D01*
X-3519500Y-16451155D01*
X-3519501Y-16451153D01*
X-3523609Y-16430499D01*
X-3550263Y-16296503D01*
X-3576173Y-16233950D01*
X-3610603Y-16150827D01*
X-3610610Y-16150814D01*
X-3698211Y-16019711D01*
X-3698214Y-16019707D01*
X-3809708Y-15908213D01*
X-3809712Y-15908210D01*
X-3940815Y-15820609D01*
X-3940828Y-15820602D01*
X-4086499Y-15760264D01*
X-4086511Y-15760261D01*
X-4241155Y-15729500D01*
X-4241158Y-15729500D01*
X-4398842Y-15729500D01*
X-4398845Y-15729500D01*
X-4553490Y-15760261D01*
X-4553502Y-15760264D01*
X-4699173Y-15820602D01*
X-4699186Y-15820609D01*
X-4830289Y-15908210D01*
X-4830293Y-15908213D01*
X-4941787Y-16019707D01*
X-4941790Y-16019711D01*
X-5029391Y-16150814D01*
X-5029398Y-16150827D01*
X-5089736Y-16296498D01*
X-5089739Y-16296510D01*
X-5120500Y-16451153D01*
X-13835716Y-16451153D01*
X-13716012Y-16309779D01*
X-13441655Y-15985756D01*
X-13441653Y-15985752D01*
X-13441642Y-15985740D01*
X-13398861Y-15920000D01*
X-10555750Y-15920000D01*
X-10534860Y-16065302D01*
X-10534859Y-16065307D01*
X-10473879Y-16198832D01*
X-10473876Y-16198837D01*
X-10389252Y-16296498D01*
X-10377744Y-16309778D01*
X-10254250Y-16389143D01*
X-10254249Y-16389143D01*
X-10254248Y-16389144D01*
X-10113402Y-16430499D01*
X-10113400Y-16430500D01*
X-10113399Y-16430500D01*
X-9966600Y-16430500D01*
X-9966600Y-16430499D01*
X-9825750Y-16389143D01*
X-9702256Y-16309778D01*
X-9606123Y-16198836D01*
X-9545141Y-16065304D01*
X-9524250Y-15920000D01*
X-9545141Y-15774696D01*
X-9545142Y-15774695D01*
X-9545142Y-15774692D01*
X-9606122Y-15641167D01*
X-9606123Y-15641164D01*
X-9702256Y-15530222D01*
X-9825750Y-15450857D01*
X-9825751Y-15450856D01*
X-9825752Y-15450856D01*
X-9825753Y-15450855D01*
X-9966599Y-15409500D01*
X-9966601Y-15409500D01*
X-10113399Y-15409500D01*
X-10113402Y-15409500D01*
X-10254248Y-15450855D01*
X-10254249Y-15450856D01*
X-10377742Y-15530220D01*
X-10377746Y-15530223D01*
X-10473876Y-15641162D01*
X-10473879Y-15641167D01*
X-10534859Y-15774692D01*
X-10534860Y-15774697D01*
X-10555750Y-15920000D01*
X-13398861Y-15920000D01*
X-13384413Y-15897798D01*
X-13303550Y-15704228D01*
X-13264006Y-15498206D01*
X-13267454Y-15288453D01*
X-13313747Y-15083843D01*
X-13365721Y-14970089D01*
X-13400926Y-14893035D01*
X-13400927Y-14893034D01*
X-13440781Y-14838903D01*
X-13525305Y-14724100D01*
X-13586172Y-14666831D01*
X-13601676Y-14652243D01*
X-13937282Y-14337103D01*
X-13940878Y-14333586D01*
X-14585612Y-13676965D01*
X-14589538Y-13672777D01*
X-15202956Y-12987284D01*
X-15206684Y-12982919D01*
X-15584546Y-12519143D01*
X-15787735Y-12269755D01*
X-15791247Y-12265234D01*
X-15843026Y-12195307D01*
X-16135738Y-11800000D01*
X-14695750Y-11800000D01*
X-14674860Y-11945302D01*
X-14674859Y-11945307D01*
X-14627046Y-12050000D01*
X-14613877Y-12078836D01*
X-14517744Y-12189778D01*
X-14394250Y-12269143D01*
X-14394249Y-12269143D01*
X-14394248Y-12269144D01*
X-14253402Y-12310499D01*
X-14253400Y-12310500D01*
X-14253399Y-12310500D01*
X-14106600Y-12310500D01*
X-14106600Y-12310499D01*
X-13965750Y-12269143D01*
X-13842256Y-12189778D01*
X-13746123Y-12078836D01*
X-13703998Y-11986593D01*
X-13685142Y-11945307D01*
X-13685141Y-11945302D01*
X-13680661Y-11914142D01*
X-13664250Y-11800000D01*
X-13685141Y-11654696D01*
X-13685142Y-11654695D01*
X-13685142Y-11654692D01*
X-13737749Y-11539500D01*
X-13746123Y-11521164D01*
X-13842256Y-11410222D01*
X-13965750Y-11330857D01*
X-13965751Y-11330856D01*
X-13965752Y-11330856D01*
X-13965753Y-11330855D01*
X-14106599Y-11289500D01*
X-14106601Y-11289500D01*
X-14253399Y-11289500D01*
X-14253402Y-11289500D01*
X-14394248Y-11330855D01*
X-14394249Y-11330856D01*
X-14517742Y-11410220D01*
X-14517746Y-11410223D01*
X-14613876Y-11521162D01*
X-14613879Y-11521167D01*
X-14674859Y-11654692D01*
X-14674860Y-11654697D01*
X-14695750Y-11800000D01*
X-16135738Y-11800000D01*
X-16338663Y-11525950D01*
X-16341970Y-11521261D01*
X-16425462Y-11396854D01*
X-16854581Y-10757442D01*
X-16857669Y-10752602D01*
X-17000123Y-10517507D01*
X-17334400Y-9965844D01*
X-17337243Y-9960896D01*
X-17347449Y-9942147D01*
X-17354061Y-9930000D01*
X-16415750Y-9930000D01*
X-16394860Y-10075302D01*
X-16394859Y-10075307D01*
X-16333879Y-10208832D01*
X-16333876Y-10208837D01*
X-16255204Y-10299629D01*
X-16237744Y-10319778D01*
X-16114250Y-10399143D01*
X-16114249Y-10399143D01*
X-16114248Y-10399144D01*
X-15973402Y-10440499D01*
X-15973400Y-10440500D01*
X-15973399Y-10440500D01*
X-15826600Y-10440500D01*
X-15826600Y-10440499D01*
X-15685750Y-10399143D01*
X-15562256Y-10319778D01*
X-15466123Y-10208836D01*
X-15417847Y-10103127D01*
X-15405142Y-10075307D01*
X-15405141Y-10075302D01*
X-15401751Y-10051725D01*
X-15384250Y-9930000D01*
X-15405141Y-9784696D01*
X-15405142Y-9784695D01*
X-15405142Y-9784692D01*
X-15466122Y-9651167D01*
X-15466123Y-9651164D01*
X-15562256Y-9540222D01*
X-15685750Y-9460857D01*
X-15685751Y-9460856D01*
X-15685752Y-9460856D01*
X-15685753Y-9460855D01*
X-15826599Y-9419500D01*
X-15826601Y-9419500D01*
X-15973399Y-9419500D01*
X-15973402Y-9419500D01*
X-16114248Y-9460855D01*
X-16114249Y-9460856D01*
X-16237742Y-9540220D01*
X-16237746Y-9540223D01*
X-16333876Y-9651162D01*
X-16333879Y-9651167D01*
X-16394859Y-9784692D01*
X-16394860Y-9784697D01*
X-16415750Y-9930000D01*
X-17354061Y-9930000D01*
X-17631942Y-9419500D01*
X-17777025Y-9152966D01*
X-17779652Y-9147863D01*
X-18016494Y-8660288D01*
X-18181593Y-8320405D01*
X-18183976Y-8315195D01*
X-18184734Y-8313432D01*
X-18547171Y-7470065D01*
X-18549315Y-7464741D01*
X-18608459Y-7307418D01*
X-18873026Y-6603664D01*
X-18874917Y-6598255D01*
X-19158430Y-5723117D01*
X-19160053Y-5717679D01*
X-19222330Y-5490000D01*
X-14435750Y-5490000D01*
X-14414860Y-5635302D01*
X-14414859Y-5635307D01*
X-14353879Y-5768832D01*
X-14353877Y-5768836D01*
X-14257744Y-5879778D01*
X-14134250Y-5959143D01*
X-14134249Y-5959143D01*
X-14134248Y-5959144D01*
X-13993402Y-6000499D01*
X-13993400Y-6000500D01*
X-13993399Y-6000500D01*
X-13846600Y-6000500D01*
X-13846600Y-6000499D01*
X-13705750Y-5959143D01*
X-13582256Y-5879778D01*
X-13486123Y-5768836D01*
X-13425141Y-5635304D01*
X-13404250Y-5490000D01*
X-13425141Y-5344696D01*
X-13425142Y-5344695D01*
X-13425142Y-5344692D01*
X-13478279Y-5228341D01*
X-13486123Y-5211164D01*
X-13564119Y-5121153D01*
X-13582255Y-5100223D01*
X-13582259Y-5100220D01*
X-13698826Y-5025307D01*
X-13705750Y-5020857D01*
X-13705751Y-5020856D01*
X-13705752Y-5020856D01*
X-13705753Y-5020855D01*
X-13846599Y-4979500D01*
X-13846601Y-4979500D01*
X-13993399Y-4979500D01*
X-13993402Y-4979500D01*
X-14134248Y-5020855D01*
X-14134249Y-5020856D01*
X-14257742Y-5100220D01*
X-14257750Y-5100227D01*
X-14351822Y-5208791D01*
X-14382244Y-5228341D01*
X-14391672Y-5293921D01*
X-14414858Y-5344692D01*
X-14414860Y-5344697D01*
X-14435750Y-5490000D01*
X-19222330Y-5490000D01*
X-19389182Y-4880000D01*
X-15545750Y-4880000D01*
X-15524860Y-5025302D01*
X-15524859Y-5025307D01*
X-15463879Y-5158832D01*
X-15463876Y-5158837D01*
X-15367749Y-5269773D01*
X-15367744Y-5269778D01*
X-15244250Y-5349143D01*
X-15244249Y-5349143D01*
X-15244248Y-5349144D01*
X-15103402Y-5390499D01*
X-15103400Y-5390500D01*
X-15103399Y-5390500D01*
X-14956600Y-5390500D01*
X-14956600Y-5390499D01*
X-14815750Y-5349143D01*
X-14692256Y-5269778D01*
X-14598179Y-5161207D01*
X-14567758Y-5141657D01*
X-14558328Y-5076076D01*
X-14535141Y-5025304D01*
X-14514250Y-4880000D01*
X-14535141Y-4734696D01*
X-14535142Y-4734695D01*
X-14535142Y-4734692D01*
X-14596122Y-4601167D01*
X-14596123Y-4601164D01*
X-14660212Y-4527202D01*
X-14692255Y-4490223D01*
X-14692259Y-4490220D01*
X-14753627Y-4450781D01*
X-14815750Y-4410857D01*
X-14815751Y-4410856D01*
X-14815752Y-4410856D01*
X-14815753Y-4410855D01*
X-14956599Y-4369500D01*
X-14956601Y-4369500D01*
X-15103399Y-4369500D01*
X-15103402Y-4369500D01*
X-15244248Y-4410855D01*
X-15244249Y-4410856D01*
X-15367742Y-4490220D01*
X-15367746Y-4490223D01*
X-15463876Y-4601162D01*
X-15463879Y-4601167D01*
X-15524859Y-4734692D01*
X-15524860Y-4734697D01*
X-15545750Y-4880000D01*
X-19389182Y-4880000D01*
X-19402862Y-4829987D01*
X-19404070Y-4825189D01*
X-19507419Y-4376581D01*
X-19531995Y-4283610D01*
X-19611733Y-4108645D01*
X-19723404Y-3952119D01*
X-19729548Y-3946291D01*
X-19862900Y-3819790D01*
X-19862909Y-3819782D01*
X-20025095Y-3716520D01*
X-20025096Y-3716519D01*
X-20157515Y-3664411D01*
X-20204019Y-3646112D01*
X-20204021Y-3646111D01*
X-20204025Y-3646110D01*
X-20393090Y-3611155D01*
X-20393093Y-3611155D01*
X-20457183Y-3611747D01*
X-20585369Y-3612933D01*
X-20679757Y-3629957D01*
X-20680182Y-3630033D01*
X-22658316Y-3979701D01*
X-22661707Y-3980252D01*
X-22689916Y-3984436D01*
X-22747989Y-3993049D01*
X-22769759Y-3994339D01*
X-22945987Y-3989250D01*
X-22970617Y-3986051D01*
X-23140809Y-3946291D01*
X-23164307Y-3938247D01*
X-23323159Y-3865369D01*
X-23344582Y-3852804D01*
X-23485723Y-3749731D01*
X-23504210Y-3733151D01*
X-23621990Y-3604007D01*
X-23636795Y-3584083D01*
X-23727256Y-3432750D01*
X-23736756Y-3413119D01*
X-23763257Y-3343274D01*
X-23770212Y-3315842D01*
X-23774830Y-3281563D01*
X-23835883Y-2828416D01*
X-23836405Y-2823909D01*
X-23934230Y-1816869D01*
X-23934620Y-1811721D01*
X-23962526Y-1300000D01*
X-17655750Y-1300000D01*
X-17634860Y-1445302D01*
X-17634859Y-1445307D01*
X-17582408Y-1560156D01*
X-17573877Y-1578836D01*
X-17477744Y-1689778D01*
X-17354250Y-1769143D01*
X-17354249Y-1769143D01*
X-17354248Y-1769144D01*
X-17213402Y-1810499D01*
X-17213400Y-1810500D01*
X-17213399Y-1810500D01*
X-17066600Y-1810500D01*
X-17066600Y-1810499D01*
X-16925750Y-1769143D01*
X-16802256Y-1689778D01*
X-16706123Y-1578836D01*
X-16645141Y-1445304D01*
X-16624250Y-1300000D01*
X-16645141Y-1154696D01*
X-16645142Y-1154695D01*
X-16645142Y-1154692D01*
X-16697623Y-1039776D01*
X-16706123Y-1021164D01*
X-16802256Y-910222D01*
X-16925750Y-830857D01*
X-16925751Y-830856D01*
X-16925752Y-830856D01*
X-16925753Y-830855D01*
X-17066599Y-789500D01*
X-17066601Y-789500D01*
X-17213399Y-789500D01*
X-17213402Y-789500D01*
X-17354248Y-830855D01*
X-17354249Y-830856D01*
X-17477742Y-910220D01*
X-17477746Y-910223D01*
X-17573876Y-1021162D01*
X-17573879Y-1021167D01*
X-17634859Y-1154692D01*
X-17634860Y-1154697D01*
X-17655750Y-1300000D01*
X-23962526Y-1300000D01*
X-23989696Y-801781D01*
X-23989870Y-796540D01*
X-23991122Y-693260D01*
X-23998677Y-70000D01*
X-15665750Y-70000D01*
X-15644860Y-215302D01*
X-15644859Y-215307D01*
X-15583879Y-348832D01*
X-15583877Y-348836D01*
X-15570134Y-364696D01*
X-15515259Y-428025D01*
X-15487744Y-459778D01*
X-15364250Y-539143D01*
X-15364249Y-539143D01*
X-15364248Y-539144D01*
X-15223402Y-580499D01*
X-15223400Y-580500D01*
X-15223399Y-580500D01*
X-15076600Y-580500D01*
X-15076600Y-580499D01*
X-14967300Y-548406D01*
X-14935753Y-539144D01*
X-14935753Y-539143D01*
X-14935750Y-539143D01*
X-14812256Y-459778D01*
X-14716123Y-348836D01*
X-14656913Y-219185D01*
X-14655142Y-215307D01*
X-14655141Y-215302D01*
X-14647238Y-160336D01*
X-14619895Y-100461D01*
X-14634977Y-64948D01*
X-14655141Y75304D01*
X-14655142Y75305D01*
X-14655142Y75308D01*
X-14703856Y181975D01*
X-14716123Y208836D01*
X-14812256Y319778D01*
X-14935750Y399143D01*
X-14935751Y399144D01*
X-14935752Y399144D01*
X-14935753Y399145D01*
X-15076599Y440500D01*
X-15076601Y440500D01*
X-15223399Y440500D01*
X-15223402Y440500D01*
X-15364248Y399145D01*
X-15364249Y399144D01*
X-15487742Y319780D01*
X-15487746Y319777D01*
X-15583876Y208838D01*
X-15583879Y208833D01*
X-15644859Y75308D01*
X-15644860Y75303D01*
X-15665750Y-70000D01*
X-23998677Y-70000D01*
X-24002130Y214823D01*
X-24002083Y220007D01*
X-23978492Y1000000D01*
X-6325750Y1000000D01*
X-6304860Y854698D01*
X-6304859Y854693D01*
X-6252251Y739500D01*
X-6243877Y721164D01*
X-6147744Y610222D01*
X-6024250Y530857D01*
X-6024249Y530857D01*
X-6024248Y530856D01*
X-5883402Y489501D01*
X-5883400Y489500D01*
X-5883399Y489500D01*
X-5736600Y489500D01*
X-5736600Y489501D01*
X-5595750Y530857D01*
X-5472256Y610222D01*
X-5376123Y721164D01*
X-5315141Y854696D01*
X-5294250Y1000000D01*
X-5315141Y1145304D01*
X-5315142Y1145305D01*
X-5315142Y1145308D01*
X-5363345Y1250856D01*
X-5376123Y1278836D01*
X-5463975Y1380221D01*
X-5472255Y1389777D01*
X-5472259Y1389780D01*
X-5497146Y1405774D01*
X-5595750Y1469143D01*
X-5595751Y1469144D01*
X-5595752Y1469144D01*
X-5595753Y1469145D01*
X-5736599Y1510500D01*
X-5736601Y1510500D01*
X-5883399Y1510500D01*
X-5883402Y1510500D01*
X-6024248Y1469145D01*
X-6024249Y1469144D01*
X-6147742Y1389780D01*
X-6147746Y1389777D01*
X-6243876Y1278838D01*
X-6243879Y1278833D01*
X-6304859Y1145308D01*
X-6304860Y1145303D01*
X-6325750Y1000000D01*
X-23978492Y1000000D01*
X-23971505Y1230993D01*
X-23971238Y1236175D01*
X-23936053Y1720000D01*
X-10045750Y1720000D01*
X-10024860Y1574698D01*
X-10024859Y1574693D01*
X-9963879Y1441168D01*
X-9963876Y1441163D01*
X-9878803Y1342984D01*
X-9867744Y1330222D01*
X-9744250Y1250857D01*
X-9744249Y1250857D01*
X-9744248Y1250856D01*
X-9603402Y1209501D01*
X-9603400Y1209500D01*
X-9603399Y1209500D01*
X-9456600Y1209500D01*
X-9456600Y1209501D01*
X-9347300Y1241594D01*
X-9315753Y1250856D01*
X-9315753Y1250857D01*
X-9315750Y1250857D01*
X-9192256Y1330222D01*
X-9096123Y1441164D01*
X-9035141Y1574696D01*
X-9014250Y1720000D01*
X-9035141Y1865304D01*
X-9035142Y1865305D01*
X-9035142Y1865308D01*
X-9096122Y1998833D01*
X-9096123Y1998836D01*
X-9192256Y2109778D01*
X-9315750Y2189143D01*
X-9315751Y2189144D01*
X-9315752Y2189144D01*
X-9315753Y2189145D01*
X-9456599Y2230500D01*
X-9456601Y2230500D01*
X-9603399Y2230500D01*
X-9603402Y2230500D01*
X-9744248Y2189145D01*
X-9744249Y2189144D01*
X-9867742Y2109780D01*
X-9867746Y2109777D01*
X-9963876Y1998838D01*
X-9963879Y1998833D01*
X-10024859Y1865308D01*
X-10024860Y1865303D01*
X-10045750Y1720000D01*
X-23936053Y1720000D01*
X-23897880Y2244920D01*
X-23897389Y2250141D01*
X-23893741Y2281735D01*
X-23781378Y3254908D01*
X-23780672Y3260058D01*
X-23622219Y4259004D01*
X-23621288Y4264160D01*
X-23592726Y4405303D01*
X-23421790Y5250000D01*
X-19685750Y5250000D01*
X-19664860Y5104698D01*
X-19664859Y5104693D01*
X-19603879Y4971168D01*
X-19603876Y4971163D01*
X-19512162Y4865320D01*
X-19507744Y4860222D01*
X-19384250Y4780857D01*
X-19384249Y4780857D01*
X-19384248Y4780856D01*
X-19243402Y4739501D01*
X-19243400Y4739500D01*
X-19243399Y4739500D01*
X-19096600Y4739500D01*
X-19096600Y4739501D01*
X-18955750Y4780857D01*
X-18832256Y4860222D01*
X-18736123Y4971164D01*
X-18684276Y5084693D01*
X-18675142Y5104693D01*
X-18675141Y5104698D01*
X-18661439Y5200000D01*
X-13515750Y5200000D01*
X-13494860Y5054698D01*
X-13494859Y5054693D01*
X-13433879Y4921168D01*
X-13433876Y4921163D01*
X-13363740Y4840222D01*
X-13337744Y4810222D01*
X-13214250Y4730857D01*
X-13214249Y4730857D01*
X-13214248Y4730856D01*
X-13073402Y4689501D01*
X-13073400Y4689500D01*
X-13073399Y4689500D01*
X-12926600Y4689500D01*
X-12926600Y4689501D01*
X-12785750Y4730857D01*
X-12662256Y4810222D01*
X-12566123Y4921164D01*
X-12505141Y5054696D01*
X-12484250Y5200000D01*
X-12504859Y5343340D01*
X-11308109Y5343340D01*
X-11294303Y5334665D01*
X-11294299Y5334663D01*
X-11124142Y5275123D01*
X-11124139Y5275122D01*
X-10945003Y5254938D01*
X-10944997Y5254938D01*
X-10765862Y5275122D01*
X-10595693Y5334667D01*
X-10581893Y5343339D01*
X-10581893Y5343340D01*
X-9908109Y5343340D01*
X-9894303Y5334665D01*
X-9894299Y5334663D01*
X-9724142Y5275123D01*
X-9724139Y5275122D01*
X-9545003Y5254938D01*
X-9544997Y5254938D01*
X-9365862Y5275122D01*
X-9195693Y5334667D01*
X-9181893Y5343339D01*
X-9181893Y5343340D01*
X-9544999Y5706447D01*
X-9545000Y5706447D01*
X-9908109Y5343340D01*
X-10581893Y5343340D01*
X-10944999Y5706447D01*
X-10945000Y5706447D01*
X-11308109Y5343340D01*
X-12504859Y5343340D01*
X-12505141Y5345304D01*
X-12505142Y5345305D01*
X-12505142Y5345308D01*
X-12553781Y5451811D01*
X-12566123Y5478836D01*
X-12662256Y5589778D01*
X-12785750Y5669143D01*
X-12785751Y5669144D01*
X-12785752Y5669144D01*
X-12785753Y5669145D01*
X-12926599Y5710500D01*
X-12926601Y5710500D01*
X-13073399Y5710500D01*
X-13073402Y5710500D01*
X-13214248Y5669145D01*
X-13214249Y5669144D01*
X-13337742Y5589780D01*
X-13337746Y5589777D01*
X-13433876Y5478838D01*
X-13433879Y5478833D01*
X-13494859Y5345308D01*
X-13494860Y5345303D01*
X-13515750Y5200000D01*
X-18661439Y5200000D01*
X-18654250Y5250000D01*
X-18675141Y5395304D01*
X-18675142Y5395305D01*
X-18675142Y5395308D01*
X-18726988Y5508833D01*
X-18736123Y5528836D01*
X-18832256Y5639778D01*
X-18955750Y5719143D01*
X-18955751Y5719144D01*
X-18955752Y5719144D01*
X-18955753Y5719145D01*
X-19083054Y5756523D01*
X-19141833Y5794297D01*
X-19145554Y5802444D01*
X-19164840Y5780185D01*
X-19231880Y5760500D01*
X-19243402Y5760500D01*
X-19384248Y5719145D01*
X-19384249Y5719144D01*
X-19507742Y5639780D01*
X-19507746Y5639777D01*
X-19603876Y5528838D01*
X-19603879Y5528833D01*
X-19664859Y5395308D01*
X-19664860Y5395303D01*
X-19685750Y5250000D01*
X-23421790Y5250000D01*
X-23420685Y5255460D01*
X-23419546Y5260538D01*
X-23177135Y6242498D01*
X-23175782Y6247521D01*
X-23099058Y6510000D01*
X-19625750Y6510000D01*
X-19604860Y6364698D01*
X-19604859Y6364693D01*
X-19543879Y6231168D01*
X-19543876Y6231163D01*
X-19469021Y6144776D01*
X-19447744Y6120222D01*
X-19324250Y6040857D01*
X-19324249Y6040857D01*
X-19324248Y6040856D01*
X-19196946Y6003477D01*
X-19138167Y5965703D01*
X-19134447Y5957557D01*
X-19115160Y5979815D01*
X-19048120Y5999500D01*
X-19036600Y5999500D01*
X-19036600Y5999501D01*
X-18916838Y6034665D01*
X-18895753Y6040856D01*
X-18895753Y6040857D01*
X-18895750Y6040857D01*
X-18891886Y6043340D01*
X-12008109Y6043340D01*
X-11994303Y6034665D01*
X-11994299Y6034663D01*
X-11824141Y5975122D01*
X-11823356Y5974943D01*
X-11822901Y5974689D01*
X-11817570Y5972823D01*
X-11817897Y5971890D01*
X-11762377Y5940834D01*
X-11733048Y5887125D01*
X-11732177Y5887429D01*
X-11730328Y5882145D01*
X-11730060Y5881654D01*
X-11729880Y5880863D01*
X-11670338Y5710702D01*
X-11670333Y5710692D01*
X-11661662Y5696892D01*
X-11298554Y6059999D01*
X-11298554Y6060001D01*
X-11318444Y6079891D01*
X-11045000Y6079891D01*
X-11045000Y6040109D01*
X-11029776Y6003355D01*
X-11001645Y5975224D01*
X-10964891Y5960000D01*
X-10925109Y5960000D01*
X-10888355Y5975224D01*
X-10860224Y6003355D01*
X-10845000Y6040109D01*
X-10845000Y6060000D01*
X-10591447Y6060000D01*
X-10245000Y5713554D01*
X-10244999Y5713554D01*
X-9898554Y6059999D01*
X-9898554Y6060001D01*
X-9918444Y6079891D01*
X-9645000Y6079891D01*
X-9645000Y6040109D01*
X-9629776Y6003355D01*
X-9601645Y5975224D01*
X-9564891Y5960000D01*
X-9525109Y5960000D01*
X-9488355Y5975224D01*
X-9460224Y6003355D01*
X-9445000Y6040109D01*
X-9445000Y6060000D01*
X-9191447Y6060000D01*
X-8828340Y5696893D01*
X-8828339Y5696893D01*
X-8819667Y5710693D01*
X-8760123Y5880859D01*
X-8759944Y5881642D01*
X-8759690Y5882098D01*
X-8757823Y5887431D01*
X-8756889Y5887105D01*
X-8725836Y5942621D01*
X-8672126Y5971950D01*
X-8672431Y5972823D01*
X-8667129Y5974679D01*
X-8666642Y5974944D01*
X-8665859Y5975123D01*
X-8495693Y6034667D01*
X-8481893Y6043339D01*
X-8481893Y6043340D01*
X-8845000Y6406447D01*
X-9191447Y6060000D01*
X-9445000Y6060000D01*
X-9445000Y6079891D01*
X-9460224Y6116645D01*
X-9488355Y6144776D01*
X-9525109Y6160000D01*
X-9564891Y6160000D01*
X-9601645Y6144776D01*
X-9629776Y6116645D01*
X-9645000Y6079891D01*
X-9918444Y6079891D01*
X-10245000Y6406447D01*
X-10591447Y6060000D01*
X-10845000Y6060000D01*
X-10845000Y6079891D01*
X-10860224Y6116645D01*
X-10888355Y6144776D01*
X-10925109Y6160000D01*
X-10964891Y6160000D01*
X-11001645Y6144776D01*
X-11029776Y6116645D01*
X-11045000Y6079891D01*
X-11318444Y6079891D01*
X-11483585Y6245032D01*
X-11644999Y6406447D01*
X-11645000Y6406447D01*
X-12008109Y6043340D01*
X-18891886Y6043340D01*
X-18772256Y6120222D01*
X-18676123Y6231164D01*
X-18615141Y6364696D01*
X-18594250Y6510000D01*
X-18615141Y6655304D01*
X-18615142Y6655305D01*
X-18615142Y6655308D01*
X-18662955Y6760001D01*
X-18662956Y6760003D01*
X-12450062Y6760003D01*
X-12450062Y6759998D01*
X-12429879Y6580862D01*
X-12429878Y6580859D01*
X-12370338Y6410702D01*
X-12370333Y6410692D01*
X-12361662Y6396892D01*
X-11998554Y6759999D01*
X-11998554Y6760001D01*
X-12018444Y6779891D01*
X-11745000Y6779891D01*
X-11745000Y6740109D01*
X-11729776Y6703355D01*
X-11701645Y6675224D01*
X-11664891Y6660000D01*
X-11625109Y6660000D01*
X-11588355Y6675224D01*
X-11560224Y6703355D01*
X-11545000Y6740109D01*
X-11545000Y6760000D01*
X-11291447Y6760000D01*
X-11131036Y6599589D01*
X-10945000Y6413554D01*
X-10758964Y6599589D01*
X-10598554Y6760000D01*
X-10598554Y6760001D01*
X-10618444Y6779891D01*
X-10345000Y6779891D01*
X-10345000Y6740109D01*
X-10329776Y6703355D01*
X-10301645Y6675224D01*
X-10264891Y6660000D01*
X-10225109Y6660000D01*
X-10188355Y6675224D01*
X-10160224Y6703355D01*
X-10145000Y6740109D01*
X-10145000Y6760000D01*
X-9891447Y6760000D01*
X-9731036Y6599589D01*
X-9545000Y6413554D01*
X-9358964Y6599589D01*
X-9198554Y6760000D01*
X-9198554Y6760001D01*
X-9218444Y6779891D01*
X-8945000Y6779891D01*
X-8945000Y6740109D01*
X-8929776Y6703355D01*
X-8901645Y6675224D01*
X-8864891Y6660000D01*
X-8825109Y6660000D01*
X-8788355Y6675224D01*
X-8760224Y6703355D01*
X-8745000Y6740109D01*
X-8745000Y6760001D01*
X-8491447Y6760001D01*
X-8491447Y6760000D01*
X-8128340Y6396893D01*
X-8128339Y6396893D01*
X-8119667Y6410693D01*
X-8060122Y6580862D01*
X-8039938Y6759998D01*
X-8039938Y6760003D01*
X-8060122Y6939139D01*
X-8060123Y6939143D01*
X-8119663Y7109299D01*
X-8119665Y7109303D01*
X-8128340Y7123109D01*
X-8491447Y6760001D01*
X-8745000Y6760001D01*
X-8745000Y6779891D01*
X-8760224Y6816645D01*
X-8788355Y6844776D01*
X-8825109Y6860000D01*
X-8864891Y6860000D01*
X-8901645Y6844776D01*
X-8929776Y6816645D01*
X-8945000Y6779891D01*
X-9218444Y6779891D01*
X-9545000Y7106447D01*
X-9891447Y6760000D01*
X-10145000Y6760000D01*
X-10145000Y6779891D01*
X-10160224Y6816645D01*
X-10188355Y6844776D01*
X-10225109Y6860000D01*
X-10264891Y6860000D01*
X-10301645Y6844776D01*
X-10329776Y6816645D01*
X-10345000Y6779891D01*
X-10618444Y6779891D01*
X-10945000Y7106447D01*
X-11291447Y6760000D01*
X-11545000Y6760000D01*
X-11545000Y6779891D01*
X-11560224Y6816645D01*
X-11588355Y6844776D01*
X-11625109Y6860000D01*
X-11664891Y6860000D01*
X-11701645Y6844776D01*
X-11729776Y6816645D01*
X-11745000Y6779891D01*
X-12018444Y6779891D01*
X-12361662Y7123110D01*
X-12361662Y7123109D01*
X-12370336Y7109304D01*
X-12429877Y6939143D01*
X-12429879Y6939139D01*
X-12450062Y6760003D01*
X-18662956Y6760003D01*
X-18676123Y6788836D01*
X-18764838Y6891217D01*
X-18772255Y6899777D01*
X-18772259Y6899780D01*
X-18833509Y6939143D01*
X-18895750Y6979143D01*
X-18895751Y6979144D01*
X-18895752Y6979144D01*
X-18895753Y6979145D01*
X-19036599Y7020500D01*
X-19036601Y7020500D01*
X-19183399Y7020500D01*
X-19183402Y7020500D01*
X-19324248Y6979145D01*
X-19324249Y6979144D01*
X-19447742Y6899780D01*
X-19447746Y6899777D01*
X-19543876Y6788838D01*
X-19543879Y6788833D01*
X-19604859Y6655308D01*
X-19604860Y6655303D01*
X-19625750Y6510000D01*
X-23099058Y6510000D01*
X-22892002Y7218355D01*
X-22890443Y7223295D01*
X-22810227Y7460000D01*
X-11991447Y7460000D01*
X-11645001Y7113554D01*
X-11469410Y7289143D01*
X-11298554Y7460000D01*
X-11298554Y7460001D01*
X-11318444Y7479891D01*
X-11045000Y7479891D01*
X-11045000Y7440109D01*
X-11029776Y7403355D01*
X-11001645Y7375224D01*
X-10964891Y7360000D01*
X-10925109Y7360000D01*
X-10888355Y7375224D01*
X-10860224Y7403355D01*
X-10845000Y7440109D01*
X-10845000Y7460000D01*
X-10591447Y7460000D01*
X-10420590Y7289143D01*
X-10245000Y7113554D01*
X-10069410Y7289143D01*
X-9898554Y7460000D01*
X-9898554Y7460001D01*
X-9918444Y7479891D01*
X-9645000Y7479891D01*
X-9645000Y7440109D01*
X-9629776Y7403355D01*
X-9601645Y7375224D01*
X-9564891Y7360000D01*
X-9525109Y7360000D01*
X-9488355Y7375224D01*
X-9460224Y7403355D01*
X-9445000Y7440109D01*
X-9445000Y7460000D01*
X-9191447Y7460000D01*
X-9020590Y7289143D01*
X-8845000Y7113554D01*
X-8844999Y7113554D01*
X-8648553Y7310000D01*
X-6855750Y7310000D01*
X-6834860Y7164698D01*
X-6834859Y7164693D01*
X-6784224Y7053820D01*
X-6773877Y7031164D01*
X-6769363Y7025955D01*
X-6693523Y6938431D01*
X-6677744Y6920222D01*
X-6554250Y6840857D01*
X-6554249Y6840857D01*
X-6554248Y6840856D01*
X-6413402Y6799501D01*
X-6413400Y6799500D01*
X-6413399Y6799500D01*
X-6266600Y6799500D01*
X-6266600Y6799501D01*
X-6146120Y6834876D01*
X-6125753Y6840856D01*
X-6125753Y6840857D01*
X-6125750Y6840857D01*
X-6002256Y6920222D01*
X-5906123Y7031164D01*
X-5863998Y7123407D01*
X-5845142Y7164693D01*
X-5845141Y7164698D01*
X-5824250Y7310000D01*
X-5845141Y7455304D01*
X-5845142Y7455305D01*
X-5845142Y7455308D01*
X-5897255Y7569418D01*
X-5906123Y7588836D01*
X-6002256Y7699778D01*
X-6125750Y7779143D01*
X-6125751Y7779144D01*
X-6125752Y7779144D01*
X-6125753Y7779145D01*
X-6266599Y7820500D01*
X-6266601Y7820500D01*
X-6413399Y7820500D01*
X-6413402Y7820500D01*
X-6554248Y7779145D01*
X-6554249Y7779144D01*
X-6677742Y7699780D01*
X-6677746Y7699777D01*
X-6773876Y7588838D01*
X-6773879Y7588833D01*
X-6834859Y7455308D01*
X-6834860Y7455303D01*
X-6855750Y7310000D01*
X-8648553Y7310000D01*
X-8498554Y7459999D01*
X-8498554Y7460001D01*
X-8844999Y7806447D01*
X-8845000Y7806447D01*
X-9191447Y7460000D01*
X-9445000Y7460000D01*
X-9445000Y7479891D01*
X-9460224Y7516645D01*
X-9488355Y7544776D01*
X-9525109Y7560000D01*
X-9564891Y7560000D01*
X-9601645Y7544776D01*
X-9629776Y7516645D01*
X-9645000Y7479891D01*
X-9918444Y7479891D01*
X-10245000Y7806447D01*
X-10591447Y7460000D01*
X-10845000Y7460000D01*
X-10845000Y7479891D01*
X-10860224Y7516645D01*
X-10888355Y7544776D01*
X-10925109Y7560000D01*
X-10964891Y7560000D01*
X-11001645Y7544776D01*
X-11029776Y7516645D01*
X-11045000Y7479891D01*
X-11318444Y7479891D01*
X-11645000Y7806447D01*
X-11991447Y7460000D01*
X-22810227Y7460000D01*
X-22565806Y8181246D01*
X-22564032Y8186134D01*
X-22326573Y8800000D01*
X-19715750Y8800000D01*
X-19694860Y8654698D01*
X-19694859Y8654693D01*
X-19633879Y8521168D01*
X-19633876Y8521163D01*
X-19549024Y8423239D01*
X-19537744Y8410222D01*
X-19414250Y8330857D01*
X-19414249Y8330857D01*
X-19414248Y8330856D01*
X-19273402Y8289501D01*
X-19273400Y8289500D01*
X-19273399Y8289500D01*
X-19126600Y8289500D01*
X-19126600Y8289501D01*
X-18985750Y8330857D01*
X-18971523Y8340000D01*
X-14783250Y8340000D01*
X-14762360Y8194698D01*
X-14762359Y8194693D01*
X-14701379Y8061168D01*
X-14701376Y8061163D01*
X-14631792Y7980859D01*
X-14605244Y7950222D01*
X-14481750Y7870857D01*
X-14481749Y7870857D01*
X-14481748Y7870856D01*
X-14340902Y7829501D01*
X-14340900Y7829500D01*
X-14340899Y7829500D01*
X-14194100Y7829500D01*
X-14194100Y7829501D01*
X-14053250Y7870857D01*
X-13929756Y7950222D01*
X-13833623Y8061164D01*
X-13788485Y8160003D01*
X-12450062Y8160003D01*
X-12450062Y8159998D01*
X-12429879Y7980862D01*
X-12429878Y7980859D01*
X-12370338Y7810702D01*
X-12370333Y7810692D01*
X-12361662Y7796892D01*
X-11998554Y8159999D01*
X-11998554Y8160001D01*
X-12018444Y8179891D01*
X-11745000Y8179891D01*
X-11745000Y8140109D01*
X-11729776Y8103355D01*
X-11701645Y8075224D01*
X-11664891Y8060000D01*
X-11625109Y8060000D01*
X-11588355Y8075224D01*
X-11560224Y8103355D01*
X-11545000Y8140109D01*
X-11545000Y8160000D01*
X-11291447Y8160000D01*
X-11118224Y7986777D01*
X-10945000Y7813554D01*
X-10944999Y7813554D01*
X-10771777Y7986777D01*
X-10598554Y8160000D01*
X-10598554Y8160001D01*
X-10618444Y8179891D01*
X-10345000Y8179891D01*
X-10345000Y8140109D01*
X-10329776Y8103355D01*
X-10301645Y8075224D01*
X-10264891Y8060000D01*
X-10225109Y8060000D01*
X-10188355Y8075224D01*
X-10160224Y8103355D01*
X-10145000Y8140109D01*
X-10145000Y8160000D01*
X-9891447Y8160000D01*
X-9718224Y7986777D01*
X-9545000Y7813554D01*
X-9544999Y7813554D01*
X-9371777Y7986777D01*
X-9198554Y8160000D01*
X-9198554Y8160001D01*
X-9218444Y8179891D01*
X-8945000Y8179891D01*
X-8945000Y8140109D01*
X-8929776Y8103355D01*
X-8901645Y8075224D01*
X-8864891Y8060000D01*
X-8825109Y8060000D01*
X-8788355Y8075224D01*
X-8760224Y8103355D01*
X-8745000Y8140109D01*
X-8745000Y8160001D01*
X-8491447Y8160001D01*
X-8491447Y8160000D01*
X-8128340Y7796893D01*
X-8128339Y7796893D01*
X-8119667Y7810693D01*
X-8060122Y7980862D01*
X-8039938Y8159998D01*
X-8039938Y8160003D01*
X-8060122Y8339139D01*
X-8060123Y8339142D01*
X-8119663Y8509299D01*
X-8119665Y8509303D01*
X-8128340Y8523109D01*
X-8491447Y8160001D01*
X-8745000Y8160001D01*
X-8745000Y8179891D01*
X-8760224Y8216645D01*
X-8788355Y8244776D01*
X-8825109Y8260000D01*
X-8864891Y8260000D01*
X-8901645Y8244776D01*
X-8929776Y8216645D01*
X-8945000Y8179891D01*
X-9218444Y8179891D01*
X-9545000Y8506447D01*
X-9891447Y8160000D01*
X-10145000Y8160000D01*
X-10145000Y8179891D01*
X-10160224Y8216645D01*
X-10188355Y8244776D01*
X-10225109Y8260000D01*
X-10264891Y8260000D01*
X-10301645Y8244776D01*
X-10329776Y8216645D01*
X-10345000Y8179891D01*
X-10618444Y8179891D01*
X-10945000Y8506447D01*
X-11291447Y8160000D01*
X-11545000Y8160000D01*
X-11545000Y8179891D01*
X-11560224Y8216645D01*
X-11588355Y8244776D01*
X-11625109Y8260000D01*
X-11664891Y8260000D01*
X-11701645Y8244776D01*
X-11729776Y8216645D01*
X-11745000Y8179891D01*
X-12018444Y8179891D01*
X-12361662Y8523110D01*
X-12361662Y8523109D01*
X-12370336Y8509304D01*
X-12429878Y8339142D01*
X-12429879Y8339139D01*
X-12450062Y8160003D01*
X-13788485Y8160003D01*
X-13772641Y8194696D01*
X-13751750Y8340000D01*
X-13772641Y8485304D01*
X-13772642Y8485305D01*
X-13772642Y8485308D01*
X-13830794Y8612641D01*
X-13842000Y8664153D01*
X-13842000Y8876662D01*
X-12008110Y8876662D01*
X-11645000Y8513554D01*
X-11463296Y8695257D01*
X-11298554Y8860000D01*
X-11298554Y8860001D01*
X-11318444Y8879891D01*
X-11045000Y8879891D01*
X-11045000Y8840109D01*
X-11029776Y8803355D01*
X-11001645Y8775224D01*
X-10964891Y8760000D01*
X-10925109Y8760000D01*
X-10888355Y8775224D01*
X-10860224Y8803355D01*
X-10845000Y8840109D01*
X-10845000Y8860000D01*
X-10591447Y8860000D01*
X-10426704Y8695257D01*
X-10245000Y8513554D01*
X-10063296Y8695257D01*
X-9898554Y8860000D01*
X-9898554Y8860001D01*
X-9918444Y8879891D01*
X-9645000Y8879891D01*
X-9645000Y8840109D01*
X-9629776Y8803355D01*
X-9601645Y8775224D01*
X-9564891Y8760000D01*
X-9525109Y8760000D01*
X-9488355Y8775224D01*
X-9460224Y8803355D01*
X-9445000Y8840109D01*
X-9445000Y8860001D01*
X-9191447Y8860001D01*
X-9191447Y8860000D01*
X-9026704Y8695257D01*
X-8845000Y8513554D01*
X-8844999Y8513554D01*
X-8481892Y8876662D01*
X-8481892Y8876663D01*
X-8495692Y8885333D01*
X-8495702Y8885338D01*
X-8665863Y8944880D01*
X-8666654Y8945060D01*
X-8667114Y8945317D01*
X-8672429Y8947177D01*
X-8672104Y8948109D01*
X-8727630Y8979173D01*
X-8756951Y9032876D01*
X-8757823Y9032570D01*
X-8759678Y9037870D01*
X-8759943Y9038356D01*
X-8760122Y9039141D01*
X-8819663Y9209299D01*
X-8819665Y9209303D01*
X-8828340Y9223109D01*
X-9191447Y8860001D01*
X-9445000Y8860001D01*
X-9445000Y8879891D01*
X-9460224Y8916645D01*
X-9488355Y8944776D01*
X-9525109Y8960000D01*
X-9564891Y8960000D01*
X-9601645Y8944776D01*
X-9629776Y8916645D01*
X-9645000Y8879891D01*
X-9918444Y8879891D01*
X-10244999Y9206447D01*
X-10245000Y9206447D01*
X-10591447Y8860000D01*
X-10845000Y8860000D01*
X-10845000Y8879891D01*
X-10860224Y8916645D01*
X-10888355Y8944776D01*
X-10925109Y8960000D01*
X-10964891Y8960000D01*
X-11001645Y8944776D01*
X-11029776Y8916645D01*
X-11045000Y8879891D01*
X-11318444Y8879891D01*
X-11661662Y9223110D01*
X-11661662Y9223109D01*
X-11670335Y9209305D01*
X-11729882Y9039131D01*
X-11730061Y9038344D01*
X-11730317Y9037888D01*
X-11732177Y9032570D01*
X-11733110Y9032897D01*
X-11764176Y8977369D01*
X-11817875Y8948048D01*
X-11817570Y8947177D01*
X-11822857Y8945328D01*
X-11823344Y8945061D01*
X-11824131Y8944882D01*
X-11994305Y8885335D01*
X-12008109Y8876662D01*
X-12008110Y8876662D01*
X-13842000Y8876662D01*
X-13842000Y9576662D01*
X-11308110Y9576662D01*
X-10945000Y9213554D01*
X-10944999Y9213554D01*
X-10581892Y9576662D01*
X-9908110Y9576662D01*
X-9545000Y9213554D01*
X-9544999Y9213554D01*
X-9181892Y9576662D01*
X-9181892Y9576663D01*
X-9195692Y9585333D01*
X-9195702Y9585338D01*
X-9365859Y9644878D01*
X-9365862Y9644879D01*
X-9544997Y9665062D01*
X-9545003Y9665062D01*
X-9724139Y9644879D01*
X-9724142Y9644878D01*
X-9894304Y9585336D01*
X-9908109Y9576662D01*
X-9908110Y9576662D01*
X-10581892Y9576662D01*
X-10581892Y9576663D01*
X-10595692Y9585333D01*
X-10595702Y9585338D01*
X-10765859Y9644878D01*
X-10765862Y9644879D01*
X-10944997Y9665062D01*
X-10945003Y9665062D01*
X-11124139Y9644879D01*
X-11124142Y9644878D01*
X-11294304Y9585336D01*
X-11308109Y9576662D01*
X-11308110Y9576662D01*
X-13842000Y9576662D01*
X-13842000Y12036039D01*
X-13841805Y12042993D01*
X-13837618Y12117545D01*
X-13829231Y12266858D01*
X-13827677Y12280654D01*
X-13790698Y12498285D01*
X-13787613Y12511806D01*
X-13726495Y12723949D01*
X-13721916Y12737034D01*
X-13637435Y12940987D01*
X-13631412Y12953494D01*
X-13524631Y13146697D01*
X-13517250Y13158445D01*
X-13389497Y13338495D01*
X-13380859Y13349327D01*
X-13231325Y13516655D01*
X-13226592Y13521661D01*
X-13206219Y13542033D01*
X-13185864Y13562387D01*
X-13171484Y13576770D01*
X-13153958Y13594296D01*
X-13153944Y13594306D01*
X-13116112Y13632139D01*
X-13106098Y13642154D01*
X-13097095Y13650316D01*
X-13015239Y13717497D01*
X-12995040Y13730994D01*
X-12925544Y13768142D01*
X-12857147Y13782383D01*
X-12832158Y13777760D01*
X-12727317Y13746976D01*
X-12727316Y13746976D01*
X-12580517Y13746976D01*
X-12580517Y13746977D01*
X-12439667Y13788333D01*
X-12316173Y13867698D01*
X-12220040Y13978640D01*
X-12169175Y14090018D01*
X-12155373Y14120240D01*
X-12153020Y14119166D01*
X-12129605Y14158649D01*
X-12033422Y14254831D01*
X-12024426Y14262984D01*
X-11963350Y14313107D01*
X-11943153Y14326601D01*
X-11878874Y14360958D01*
X-11856431Y14370253D01*
X-11786688Y14391408D01*
X-11762854Y14396148D01*
X-11718223Y14400542D01*
X-11684079Y14403903D01*
X-11671931Y14404500D01*
X-11617002Y14404497D01*
X-11616998Y14404499D01*
X-11607976Y14404498D01*
X-11607935Y14404500D01*
X-9881879Y14404500D01*
X-9814840Y14384815D01*
X-9769085Y14332011D01*
X-9759141Y14262853D01*
X-9759552Y14259999D01*
X-9759552Y14259997D01*
X-9776733Y14140500D01*
X-9780443Y14114693D01*
X-9759553Y13969391D01*
X-9759552Y13969386D01*
X-9698572Y13835861D01*
X-9698569Y13835856D01*
X-9654769Y13785308D01*
X-9602437Y13724915D01*
X-9478943Y13645550D01*
X-9478942Y13645550D01*
X-9478941Y13645549D01*
X-9338095Y13604194D01*
X-9338093Y13604193D01*
X-9338092Y13604193D01*
X-9191293Y13604193D01*
X-9191293Y13604194D01*
X-9066140Y13640941D01*
X-9050446Y13645549D01*
X-9050446Y13645550D01*
X-9050443Y13645550D01*
X-8926949Y13724915D01*
X-8830816Y13835857D01*
X-8771700Y13965303D01*
X-8769835Y13969386D01*
X-8769834Y13969391D01*
X-8768504Y13978640D01*
X-8748943Y14114693D01*
X-8769404Y14257004D01*
X-8759460Y14326159D01*
X-8713705Y14378963D01*
X-8646666Y14398648D01*
X-8634525Y14398052D01*
X-8564373Y14391143D01*
X-8540544Y14386404D01*
X-8421810Y14350387D01*
X-8399354Y14341085D01*
X-8333022Y14305631D01*
X-8283177Y14256669D01*
X-8267716Y14188532D01*
X-8269855Y14172091D01*
X-8270500Y14168851D01*
X-8270500Y14011154D01*
X-8239740Y13856512D01*
X-8239738Y13856507D01*
X-8239737Y13856503D01*
X-8224617Y13820000D01*
X-8221625Y13812777D01*
X-8214157Y13743308D01*
X-8245433Y13680829D01*
X-8269146Y13661012D01*
X-8317740Y13629782D01*
X-8317746Y13629777D01*
X-8413876Y13518838D01*
X-8413879Y13518833D01*
X-8474859Y13385308D01*
X-8474860Y13385303D01*
X-8495750Y13240000D01*
X-8474860Y13094698D01*
X-8474859Y13094693D01*
X-8413879Y12961168D01*
X-8413877Y12961164D01*
X-8317744Y12850222D01*
X-8194250Y12770857D01*
X-8194249Y12770857D01*
X-8194248Y12770856D01*
X-8053402Y12729501D01*
X-8053400Y12729500D01*
X-8053399Y12729500D01*
X-7906600Y12729500D01*
X-7906600Y12729501D01*
X-7765750Y12770857D01*
X-7642256Y12850222D01*
X-7546123Y12961164D01*
X-7485141Y13094696D01*
X-7472424Y13183147D01*
X-7443399Y13246702D01*
X-7384621Y13284477D01*
X-7349686Y13289500D01*
X-6874500Y13289500D01*
X-6807461Y13269815D01*
X-6761706Y13217011D01*
X-6750500Y13165500D01*
X-6750500Y9444939D01*
X-6751762Y9427293D01*
X-6765750Y9330000D01*
X-6744860Y9184698D01*
X-6744859Y9184693D01*
X-6696513Y9078833D01*
X-6683877Y9051164D01*
X-6668048Y9032897D01*
X-6592169Y8945328D01*
X-6587744Y8940222D01*
X-6464250Y8860857D01*
X-6464249Y8860857D01*
X-6464248Y8860856D01*
X-6323402Y8819501D01*
X-6323400Y8819500D01*
X-6323399Y8819500D01*
X-6176600Y8819500D01*
X-6176600Y8819501D01*
X-6038900Y8859932D01*
X-6035753Y8860856D01*
X-6035753Y8860857D01*
X-6035750Y8860857D01*
X-5912256Y8940222D01*
X-5816123Y9051164D01*
X-5772795Y9146040D01*
X-5755142Y9184693D01*
X-5755141Y9184698D01*
X-5754410Y9189777D01*
X-5734250Y9330000D01*
X-5734625Y9332609D01*
X-5748238Y9427293D01*
X-5749500Y9444939D01*
X-5749500Y13165500D01*
X-5729815Y13232539D01*
X-5677011Y13278294D01*
X-5625500Y13289500D01*
X-4594234Y13289500D01*
X-4527195Y13269815D01*
X-4481440Y13217011D01*
X-4471496Y13147853D01*
X-4500521Y13084297D01*
X-4578892Y12993854D01*
X-4578895Y12993849D01*
X-4639875Y12860324D01*
X-4639876Y12860319D01*
X-4660766Y12715016D01*
X-4639876Y12569714D01*
X-4639875Y12569709D01*
X-4578895Y12436184D01*
X-4578893Y12436180D01*
X-4561821Y12416478D01*
X-4526244Y12375420D01*
X-4482760Y12325238D01*
X-4359266Y12245873D01*
X-4359265Y12245873D01*
X-4359264Y12245872D01*
X-4218418Y12204517D01*
X-4218416Y12204516D01*
X-4218415Y12204516D01*
X-4071617Y12204516D01*
X-4019434Y12219838D01*
X-3949566Y12219838D01*
X-3890787Y12182064D01*
X-3861762Y12118508D01*
X-3860500Y12100861D01*
X-3860500Y10354359D01*
X-3860484Y10354006D01*
X-3860484Y10309186D01*
X-3860484Y10270479D01*
X-3850567Y10169780D01*
X-3827463Y9935161D01*
X-3827463Y9935156D01*
X-3827462Y9935147D01*
X-3827461Y9935145D01*
X-3779228Y9692647D01*
X-3761727Y9604657D01*
X-3761727Y9604655D01*
X-3677156Y9325856D01*
X-3663918Y9282213D01*
X-3606327Y9143174D01*
X-3534973Y8970904D01*
X-3484600Y8876662D01*
X-3380622Y8682129D01*
X-3376133Y8673732D01*
X-3376126Y8673720D01*
X-3188936Y8393568D01*
X-3188932Y8393563D01*
X-2975167Y8133089D01*
X-2918860Y8076783D01*
X-2918856Y8076778D01*
X-2242014Y7399937D01*
X-2055342Y7213265D01*
X-1932553Y7105582D01*
X-1742762Y6939139D01*
X-1691499Y6894183D01*
X-1307578Y6599590D01*
X-905217Y6330741D01*
X-905192Y6330725D01*
X-486104Y6088764D01*
X-186131Y5940834D01*
X-52077Y5874726D01*
X395018Y5689533D01*
X684834Y5591154D01*
X853258Y5533981D01*
X853273Y5533976D01*
X1104284Y5466719D01*
X1320711Y5408727D01*
X1795345Y5314316D01*
X2275137Y5251150D01*
X2758034Y5219500D01*
X2921158Y5219500D01*
X4471158Y5219500D01*
X5643788Y5219500D01*
X5676555Y5219500D01*
X5676578Y5219494D01*
X5727924Y5219494D01*
X5727924Y5219493D01*
X5889582Y5219494D01*
X5889584Y5219494D01*
X5957901Y5225472D01*
X6211668Y5247675D01*
X6530071Y5303820D01*
X6842370Y5387502D01*
X7146187Y5498083D01*
X7439211Y5634723D01*
X7719210Y5796382D01*
X7984055Y5981829D01*
X8231729Y6189652D01*
X8346039Y6303961D01*
X8405532Y6363454D01*
X9235089Y7193013D01*
X9296412Y7226497D01*
X9366103Y7221513D01*
X9422037Y7179641D01*
X9446454Y7114177D01*
X9435564Y7053820D01*
X9395142Y6965311D01*
X9395140Y6965303D01*
X9377152Y6840185D01*
X9374250Y6820000D01*
X9378730Y6788838D01*
X9388238Y6722710D01*
X9389500Y6705063D01*
X9389500Y1948676D01*
X9369815Y1881637D01*
X9353185Y1861000D01*
X9265699Y1773513D01*
X9195663Y1703477D01*
X9134340Y1669993D01*
X9064648Y1674977D01*
X9008715Y1716849D01*
X8985245Y1773510D01*
X8964859Y1915304D01*
X8964858Y1915305D01*
X8964858Y1915308D01*
X8903878Y2048833D01*
X8903877Y2048836D01*
X8807744Y2159778D01*
X8684250Y2239143D01*
X8684249Y2239144D01*
X8684248Y2239144D01*
X8684247Y2239145D01*
X8543401Y2280500D01*
X8543399Y2280500D01*
X8396601Y2280500D01*
X8396598Y2280500D01*
X8255752Y2239145D01*
X8255751Y2239144D01*
X8132258Y2159780D01*
X8132254Y2159777D01*
X8036124Y2048838D01*
X8036121Y2048833D01*
X7975141Y1915308D01*
X7975140Y1915303D01*
X7954250Y1770000D01*
X7975140Y1624698D01*
X7975141Y1624693D01*
X8036121Y1491168D01*
X8036124Y1491163D01*
X8123975Y1389778D01*
X8132256Y1380222D01*
X8255750Y1300857D01*
X8255751Y1300857D01*
X8255752Y1300856D01*
X8396598Y1259501D01*
X8396600Y1259500D01*
X8396601Y1259500D01*
X8543397Y1259500D01*
X8543399Y1259500D01*
X8557280Y1263577D01*
X8627148Y1263577D01*
X8685927Y1225803D01*
X8714953Y1162248D01*
X8711990Y1112507D01*
X8699500Y1065894D01*
X8699500Y267291D01*
X8690065Y219848D01*
X8687018Y212492D01*
X8687016Y212486D01*
X8687016Y212485D01*
X8649500Y72474D01*
X8649500Y-72474D01*
X8662545Y-121158D01*
X8687016Y-212485D01*
X8759489Y-338013D01*
X8759491Y-338016D01*
X8813181Y-391706D01*
X8846666Y-453029D01*
X8849500Y-479387D01*
X8849500Y-2672476D01*
X8862543Y-2721155D01*
X8887014Y-2812480D01*
X8887016Y-2812485D01*
X8959490Y-2938015D01*
X9674546Y-3653071D01*
X10218743Y-4197267D01*
X10252228Y-4258590D01*
X10247244Y-4328282D01*
X10205372Y-4384215D01*
X10163158Y-4404722D01*
X10111548Y-4418551D01*
X9961616Y-4494945D01*
X9830842Y-4600842D01*
X9724945Y-4731616D01*
X9648552Y-4881546D01*
X9605001Y-5044083D01*
X9605000Y-5044084D01*
X9596194Y-5212126D01*
X9622516Y-5378323D01*
X9682822Y-5535423D01*
X9682824Y-5535427D01*
X9774466Y-5676544D01*
X9831805Y-5733883D01*
X9836002Y-5738291D01*
X10042621Y-5966261D01*
X10050341Y-5975667D01*
X10231813Y-6220353D01*
X10238573Y-6230471D01*
X10395177Y-6491747D01*
X10400913Y-6502479D01*
X10531163Y-6777867D01*
X10535818Y-6789106D01*
X10580143Y-6912982D01*
X10638443Y-7075917D01*
X10641976Y-7087562D01*
X10668981Y-7195370D01*
X10666176Y-7265183D01*
X10626072Y-7322397D01*
X10561402Y-7348847D01*
X10548697Y-7349500D01*
X9650511Y-7349500D01*
X9650293Y-7349510D01*
X9543454Y-7349510D01*
X9161968Y-7382883D01*
X9161965Y-7382883D01*
X8784854Y-7449377D01*
X8784837Y-7449381D01*
X8414956Y-7548487D01*
X8055102Y-7679461D01*
X8055094Y-7679464D01*
X7708050Y-7841292D01*
X7708038Y-7841298D01*
X7376402Y-8032767D01*
X7376376Y-8032783D01*
X7062703Y-8252419D01*
X6769356Y-8498568D01*
X6769332Y-8498590D01*
X6695888Y-8572033D01*
X6636827Y-8631094D01*
X6630905Y-8636640D01*
X6612292Y-8652964D01*
X6481913Y-8767302D01*
X6469046Y-8777175D01*
X6307644Y-8885020D01*
X6293596Y-8893131D01*
X6119500Y-8978984D01*
X6104514Y-8985191D01*
X5920705Y-9047583D01*
X5905037Y-9051781D01*
X5714656Y-9089647D01*
X5698574Y-9091764D01*
X5500490Y-9104743D01*
X5492383Y-9105008D01*
X5406518Y-9105008D01*
X5406498Y-9105009D01*
X4665290Y-9105009D01*
X4598251Y-9085324D01*
X4552496Y-9032520D01*
X4542552Y-8963362D01*
X4571577Y-8899806D01*
X4630355Y-8862032D01*
X4630356Y-8862032D01*
X4674247Y-8849144D01*
X4674247Y-8849143D01*
X4674250Y-8849143D01*
X4797744Y-8769778D01*
X4893877Y-8658836D01*
X4953087Y-8529185D01*
X4954858Y-8525307D01*
X4954859Y-8525302D01*
X4957396Y-8507657D01*
X4975750Y-8380000D01*
X4954859Y-8234696D01*
X4954858Y-8234695D01*
X4954858Y-8234692D01*
X4901510Y-8117879D01*
X4893877Y-8101164D01*
X4797744Y-7990222D01*
X4674250Y-7910857D01*
X4674249Y-7910856D01*
X4674248Y-7910856D01*
X4674247Y-7910855D01*
X4533401Y-7869500D01*
X4533399Y-7869500D01*
X4386601Y-7869500D01*
X4386598Y-7869500D01*
X4245752Y-7910855D01*
X4245751Y-7910856D01*
X4122258Y-7990220D01*
X4122254Y-7990223D01*
X4026124Y-8101162D01*
X4026121Y-8101167D01*
X3965141Y-8234692D01*
X3965140Y-8234697D01*
X3944250Y-8380000D01*
X3965140Y-8525302D01*
X3965141Y-8525307D01*
X4026121Y-8658832D01*
X4026124Y-8658837D01*
X4120110Y-8767302D01*
X4122256Y-8769778D01*
X4245750Y-8849143D01*
X4245751Y-8849143D01*
X4245752Y-8849144D01*
X4289644Y-8862032D01*
X4348423Y-8899806D01*
X4377448Y-8963362D01*
X4367505Y-9032520D01*
X4321750Y-9085324D01*
X4254710Y-9105009D01*
X3239403Y-9105009D01*
X3172364Y-9085324D01*
X3126609Y-9032520D01*
X3116665Y-8963362D01*
X3145690Y-8899806D01*
X3178421Y-8862032D01*
X3243877Y-8786493D01*
X3301511Y-8660292D01*
X3304858Y-8652964D01*
X3304859Y-8652959D01*
X3307205Y-8636642D01*
X3325750Y-8507657D01*
X3304859Y-8362353D01*
X3304858Y-8362352D01*
X3304858Y-8362349D01*
X3244536Y-8230264D01*
X3243877Y-8228821D01*
X3147744Y-8117879D01*
X3024250Y-8038514D01*
X3024249Y-8038513D01*
X3024248Y-8038513D01*
X3024247Y-8038512D01*
X2883401Y-7997157D01*
X2883399Y-7997157D01*
X2736601Y-7997157D01*
X2736598Y-7997157D01*
X2595752Y-8038512D01*
X2595751Y-8038513D01*
X2472258Y-8117877D01*
X2472254Y-8117880D01*
X2376124Y-8228819D01*
X2376121Y-8228824D01*
X2315141Y-8362349D01*
X2315140Y-8362354D01*
X2294250Y-8507657D01*
X2315140Y-8652959D01*
X2315141Y-8652964D01*
X2376121Y-8786489D01*
X2376124Y-8786494D01*
X2474310Y-8899806D01*
X2503335Y-8963362D01*
X2493391Y-9032520D01*
X2447637Y-9085324D01*
X2380597Y-9105009D01*
X1394195Y-9105009D01*
X1347958Y-9096066D01*
X1303940Y-9078377D01*
X1300180Y-9076794D01*
X1282309Y-9068920D01*
X1200839Y-9033023D01*
X1195242Y-9030387D01*
X1081891Y-8973484D01*
X1076206Y-8970442D01*
X1037404Y-8948359D01*
X1011057Y-8928271D01*
X1002323Y-8919537D01*
X929039Y-8859394D01*
X790483Y-8745682D01*
X562627Y-8593432D01*
X320945Y-8464249D01*
X126007Y-8383501D01*
X67766Y-8359376D01*
X-158930Y-8290608D01*
X-194476Y-8279825D01*
X-194479Y-8279824D01*
X-194480Y-8279824D01*
X-194485Y-8279823D01*
X-463235Y-8226365D01*
X-463251Y-8226362D01*
X-735972Y-8199500D01*
X-794153Y-8199500D01*
X-1631158Y-8199500D01*
X-8321158Y-8199500D01*
X-8478842Y-8199500D01*
X-8478845Y-8199500D01*
X-8633490Y-8230261D01*
X-8633502Y-8230264D01*
X-8779172Y-8290602D01*
X-8779183Y-8290608D01*
X-8813341Y-8313432D01*
X-8880019Y-8334309D01*
X-8947399Y-8315824D01*
X-8969912Y-8298010D01*
X-10963181Y-6304741D01*
X-10996666Y-6243418D01*
X-10999500Y-6217060D01*
X-10999500Y-5121159D01*
X-11002843Y-5104349D01*
X-11002843Y-5104348D01*
X-11030262Y-4966507D01*
X-11030263Y-4966503D01*
X-11030263Y-4966502D01*
X-11065453Y-4881546D01*
X-11066093Y-4880000D01*
X-11090603Y-4820827D01*
X-11090610Y-4820814D01*
X-11178210Y-4689712D01*
X-11224130Y-4643792D01*
X-11289711Y-4578211D01*
X-12655741Y-3212181D01*
X-12689226Y-3150858D01*
X-12684242Y-3081166D01*
X-12642370Y-3025233D01*
X-12576906Y-3000816D01*
X-12568060Y-3000500D01*
X-5681156Y-3000500D01*
X-5681155Y-3000499D01*
X-5526503Y-2969737D01*
X-5380821Y-2909394D01*
X-5249711Y-2821789D01*
X-2918483Y-490559D01*
X-2899695Y-475141D01*
X-2879711Y-461789D01*
X-2768211Y-350289D01*
X-2680606Y-219179D01*
X-2620263Y-73497D01*
X-2589500Y81158D01*
X-2589500Y130613D01*
X-2569815Y197652D01*
X-2553181Y218294D01*
X-2528294Y243181D01*
X-2466971Y276666D01*
X-2440613Y279500D01*
X-1167528Y279500D01*
X-1167525Y279500D01*
X-1027515Y317016D01*
X-901985Y389491D01*
X-799491Y491985D01*
X-727016Y617515D01*
X-689500Y757525D01*
X-689500Y902475D01*
X-727016Y1042485D01*
X-762934Y1104696D01*
X-799489Y1168012D01*
X-799490Y1168014D01*
X-799491Y1168015D01*
X-901985Y1270509D01*
X-901987Y1270510D01*
X-901989Y1270512D01*
X-1027512Y1342983D01*
X-1027511Y1342983D01*
X-1038994Y1346060D01*
X-1167525Y1380500D01*
X-2657525Y1380500D01*
X-2802475Y1380500D01*
X-2931007Y1346060D01*
X-2942489Y1342983D01*
X-3068012Y1270512D01*
X-3068014Y1270510D01*
X-3170511Y1168014D01*
X-3176011Y1158488D01*
X-3195712Y1132815D01*
X-3331708Y996818D01*
X-3393028Y963334D01*
X-3419387Y960500D01*
X-3478845Y960500D01*
X-3633490Y929739D01*
X-3633502Y929736D01*
X-3779173Y869398D01*
X-3779186Y869391D01*
X-3910289Y781790D01*
X-3910293Y781787D01*
X-6055259Y-1363181D01*
X-6116582Y-1396666D01*
X-6142940Y-1399500D01*
X-12675500Y-1399500D01*
X-12742539Y-1379815D01*
X-12788294Y-1327011D01*
X-12799500Y-1275500D01*
X-12799500Y-121155D01*
X-12799501Y-121153D01*
X-12808980Y-73501D01*
X-12830263Y33497D01*
X-12846407Y72472D01*
X-12890603Y179173D01*
X-12890610Y179186D01*
X-12978211Y310289D01*
X-12978214Y310293D01*
X-13089708Y421787D01*
X-13089712Y421790D01*
X-13220815Y509391D01*
X-13220828Y509398D01*
X-13366499Y569736D01*
X-13366511Y569739D01*
X-13521155Y600500D01*
X-13521158Y600500D01*
X-13678842Y600500D01*
X-13678845Y600500D01*
X-13833490Y569739D01*
X-13833502Y569736D01*
X-13979173Y509398D01*
X-13979186Y509391D01*
X-14110289Y421790D01*
X-14110293Y421787D01*
X-14221787Y310293D01*
X-14221790Y310289D01*
X-14309391Y179186D01*
X-14309398Y179173D01*
X-14369736Y33502D01*
X-14369739Y33492D01*
X-14390622Y-71493D01*
X-14418232Y-124273D01*
X-14401762Y-160334D01*
X-14400500Y-177982D01*
X-14400500Y-3478846D01*
X-14369739Y-3633489D01*
X-14369736Y-3633501D01*
X-14309398Y-3779172D01*
X-14309391Y-3779185D01*
X-14221790Y-3910288D01*
X-14221787Y-3910292D01*
X-12636819Y-5495259D01*
X-12603334Y-5556582D01*
X-12600500Y-5582940D01*
X-12600500Y-6678846D01*
X-12569739Y-6833489D01*
X-12569736Y-6833501D01*
X-12509398Y-6979172D01*
X-12509391Y-6979185D01*
X-12452814Y-7063857D01*
X-12431936Y-7130534D01*
X-12450420Y-7197914D01*
X-12502399Y-7244605D01*
X-12520981Y-7251725D01*
X-12654249Y-7290855D01*
X-12747689Y-7350906D01*
X-12814729Y-7370590D01*
X-12881768Y-7350905D01*
X-12919450Y-7307418D01*
X-12921328Y-7308626D01*
X-12926122Y-7301167D01*
X-12926123Y-7301164D01*
X-13022256Y-7190222D01*
X-13145750Y-7110857D01*
X-13145751Y-7110856D01*
X-13145752Y-7110856D01*
X-13145753Y-7110855D01*
X-13286599Y-7069500D01*
X-13286601Y-7069500D01*
X-13433399Y-7069500D01*
X-13433402Y-7069500D01*
X-13574248Y-7110855D01*
X-13574249Y-7110856D01*
X-13697742Y-7190220D01*
X-13697746Y-7190223D01*
X-13793876Y-7301162D01*
X-13793879Y-7301167D01*
X-13854859Y-7434692D01*
X-13854860Y-7434697D01*
X-13875750Y-7580000D01*
X-13854860Y-7725302D01*
X-13854859Y-7725307D01*
X-13801885Y-7841301D01*
X-13793877Y-7858836D01*
X-13697744Y-7969778D01*
X-13574250Y-8049143D01*
X-13574249Y-8049143D01*
X-13574248Y-8049144D01*
X-13433402Y-8090499D01*
X-13433400Y-8090500D01*
X-13433399Y-8090500D01*
X-13286600Y-8090500D01*
X-13286600Y-8090499D01*
X-13145753Y-8049144D01*
X-13145752Y-8049144D01*
X-13129714Y-8038837D01*
X-13052312Y-7989093D01*
X-12985274Y-7969409D01*
X-12918234Y-7989093D01*
X-12880551Y-8032581D01*
X-12878672Y-8031374D01*
X-12873879Y-8038832D01*
X-12873877Y-8038836D01*
X-12777744Y-8149778D01*
X-12654250Y-8229143D01*
X-12654249Y-8229143D01*
X-12654248Y-8229144D01*
X-12574978Y-8252419D01*
X-12521195Y-8268211D01*
X-12513402Y-8270499D01*
X-12513400Y-8270500D01*
X-12513399Y-8270500D01*
X-12366600Y-8270500D01*
X-12366600Y-8270499D01*
X-12244648Y-8234692D01*
X-12225753Y-8229144D01*
X-12225753Y-8229143D01*
X-12225750Y-8229143D01*
X-12102256Y-8149778D01*
X-12006123Y-8038836D01*
X-11963998Y-7946593D01*
X-11945142Y-7905307D01*
X-11945142Y-7905305D01*
X-11945141Y-7905304D01*
X-11940376Y-7872156D01*
X-11911353Y-7808602D01*
X-11852576Y-7770826D01*
X-11782706Y-7770824D01*
X-11729957Y-7802121D01*
X-10346819Y-9185259D01*
X-10313334Y-9246582D01*
X-10310500Y-9272940D01*
X-10310500Y-10258846D01*
X-10279739Y-10413489D01*
X-10279736Y-10413501D01*
X-10219398Y-10559172D01*
X-10219391Y-10559185D01*
X-10131790Y-10690288D01*
X-10131787Y-10690292D01*
X-10020293Y-10801786D01*
X-10020289Y-10801789D01*
X-9889186Y-10889390D01*
X-9889173Y-10889397D01*
X-9743502Y-10949735D01*
X-9743497Y-10949737D01*
X-9588847Y-10980499D01*
X-9588844Y-10980500D01*
X-9588842Y-10980500D01*
X-9431156Y-10980500D01*
X-9431155Y-10980499D01*
X-9276503Y-10949737D01*
X-9130821Y-10889394D01*
X-8999711Y-10801789D01*
X-8888211Y-10690289D01*
X-8800606Y-10559179D01*
X-8791311Y-10536736D01*
X-8764433Y-10496509D01*
X-8240812Y-9972889D01*
X-8179490Y-9939405D01*
X-8109798Y-9944389D01*
X-8053865Y-9986261D01*
X-8029448Y-10051725D01*
X-8033357Y-10092663D01*
X-8052500Y-10164106D01*
X-8052500Y-10164108D01*
X-8052500Y-10295892D01*
X-8040472Y-10340783D01*
X-8018392Y-10423187D01*
X-7998890Y-10456964D01*
X-7952500Y-10537314D01*
X-7859314Y-10630500D01*
X-7776316Y-10678419D01*
X-7745604Y-10696151D01*
X-7745186Y-10696392D01*
X-7617892Y-10730500D01*
X-7617890Y-10730500D01*
X-7486110Y-10730500D01*
X-7486108Y-10730500D01*
X-7358814Y-10696392D01*
X-7244686Y-10630500D01*
X-7151500Y-10537314D01*
X-7085608Y-10423186D01*
X-7051500Y-10295892D01*
X-7051500Y-10164108D01*
X-7085608Y-10036814D01*
X-7091037Y-10027411D01*
X-7114656Y-9986501D01*
X-7131130Y-9918601D01*
X-7108278Y-9852574D01*
X-7053357Y-9809383D01*
X-7007270Y-9800500D01*
X-1938254Y-9800500D01*
X-1871215Y-9820185D01*
X-1825460Y-9872989D01*
X-1815516Y-9942147D01*
X-1822559Y-9966126D01*
X-1822360Y-9966185D01*
X-1824860Y-9974697D01*
X-1845750Y-10120000D01*
X-1824860Y-10265302D01*
X-1824859Y-10265307D01*
X-1763879Y-10398832D01*
X-1763877Y-10398836D01*
X-1748472Y-10416614D01*
X-1679245Y-10496506D01*
X-1667744Y-10509778D01*
X-1544250Y-10589143D01*
X-1544249Y-10589143D01*
X-1544248Y-10589144D01*
X-1458964Y-10614185D01*
X-1404438Y-10630195D01*
X-1403402Y-10630499D01*
X-1403400Y-10630500D01*
X-1403399Y-10630500D01*
X-1256600Y-10630500D01*
X-1256600Y-10630499D01*
X-1115750Y-10589143D01*
X-992256Y-10509778D01*
X-896123Y-10398836D01*
X-849109Y-10295890D01*
X-835142Y-10265307D01*
X-835141Y-10265302D01*
X-833335Y-10252742D01*
X-814250Y-10120000D01*
X-835141Y-9974696D01*
X-835141Y-9974695D01*
X-835901Y-9972107D01*
X-835902Y-9969407D01*
X-836403Y-9965917D01*
X-835902Y-9965844D01*
X-835905Y-9902238D01*
X-798133Y-9843458D01*
X-734579Y-9814430D01*
X-707199Y-9813549D01*
X-696866Y-9814362D01*
X-677649Y-9817405D01*
X-531164Y-9852574D01*
X-515340Y-9856373D01*
X-496836Y-9862385D01*
X-342615Y-9926267D01*
X-325294Y-9935093D01*
X-182964Y-10022313D01*
X-167230Y-10033745D01*
X-66240Y-10120000D01*
X-65876Y-10120311D01*
X-54934Y-10131769D01*
X-54681Y-10131530D01*
X-50489Y-10135950D01*
X-15939Y-10165873D01*
X-9437Y-10171925D01*
X26618Y-10207980D01*
X26620Y-10207981D01*
X26621Y-10207982D01*
X43680Y-10219061D01*
X57320Y-10229320D01*
X68702Y-10239177D01*
X68703Y-10239177D01*
X68706Y-10239180D01*
X113712Y-10264793D01*
X119880Y-10268547D01*
X167742Y-10299629D01*
X167746Y-10299630D01*
X167747Y-10299631D01*
X181059Y-10304741D01*
X197956Y-10312736D01*
X247239Y-10340783D01*
X262088Y-10350714D01*
X271613Y-10358131D01*
X271615Y-10358132D01*
X271618Y-10358134D01*
X320527Y-10382686D01*
X326222Y-10385732D01*
X373801Y-10412810D01*
X385252Y-10416618D01*
X401741Y-10423456D01*
X437219Y-10441266D01*
X452759Y-10450546D01*
X461911Y-10456962D01*
X512819Y-10479392D01*
X518416Y-10482028D01*
X568150Y-10506995D01*
X568152Y-10506995D01*
X568153Y-10506996D01*
X570778Y-10507719D01*
X578921Y-10509963D01*
X595991Y-10516040D01*
X599139Y-10517427D01*
X599320Y-10517507D01*
X617094Y-10527144D01*
X619718Y-10528857D01*
X678761Y-10552582D01*
X682484Y-10554150D01*
X740726Y-10579813D01*
X740728Y-10579813D01*
X740732Y-10579815D01*
X745152Y-10581264D01*
X749562Y-10582802D01*
X803868Y-10602904D01*
X806999Y-10604113D01*
X823714Y-10610830D01*
X830572Y-10614185D01*
X830640Y-10614038D01*
X836178Y-10616574D01*
X836182Y-10616577D01*
X842412Y-10618721D01*
X845993Y-10619954D01*
X851872Y-10622145D01*
X868356Y-10628769D01*
X873243Y-10630195D01*
X884057Y-10633054D01*
X900732Y-10638793D01*
X903302Y-10639711D01*
X967299Y-10663402D01*
X967300Y-10663402D01*
X970096Y-10664437D01*
X974500Y-10666164D01*
X996048Y-10675089D01*
X996427Y-10675246D01*
X1012390Y-10678420D01*
X1028554Y-10682788D01*
X1043953Y-10688089D01*
X1094055Y-10694900D01*
X1101493Y-10696144D01*
X1151082Y-10706009D01*
X1167359Y-10706009D01*
X1184062Y-10707139D01*
X1189383Y-10707862D01*
X1200201Y-10709333D01*
X1250652Y-10706241D01*
X1258236Y-10706009D01*
X5581645Y-10706009D01*
X5582034Y-10705989D01*
X5654396Y-10705991D01*
X5968201Y-10675089D01*
X6277466Y-10613578D01*
X6286526Y-10610830D01*
X6358017Y-10589144D01*
X6579212Y-10522048D01*
X6741126Y-10454982D01*
X6810593Y-10447515D01*
X6873072Y-10478791D01*
X6908724Y-10538880D01*
X6906229Y-10608705D01*
X6901370Y-10621055D01*
X6895142Y-10634692D01*
X6895140Y-10634697D01*
X6874250Y-10780000D01*
X6895140Y-10925302D01*
X6895141Y-10925307D01*
X6956121Y-11058832D01*
X6956124Y-11058837D01*
X7034919Y-11149771D01*
X7052256Y-11169778D01*
X7175750Y-11249143D01*
X7175751Y-11249143D01*
X7175752Y-11249144D01*
X7251967Y-11271522D01*
X7313195Y-11289500D01*
X7316598Y-11290499D01*
X7316600Y-11290500D01*
X7331060Y-11290500D01*
X7398099Y-11310185D01*
X7443854Y-11362989D01*
X7453798Y-11396854D01*
X7454250Y-11399998D01*
X7454250Y-11400000D01*
X7458235Y-11427715D01*
X7475140Y-11545302D01*
X7475141Y-11545307D01*
X7536121Y-11678832D01*
X7536124Y-11678837D01*
X7616126Y-11771164D01*
X7632256Y-11789778D01*
X7755750Y-11869143D01*
X7755751Y-11869143D01*
X7755752Y-11869144D01*
X7865051Y-11901236D01*
X7876820Y-11904692D01*
X7896598Y-11910499D01*
X7896600Y-11910500D01*
X7896601Y-11910500D01*
X8043400Y-11910500D01*
X8043400Y-11910499D01*
X8184247Y-11869144D01*
X8184248Y-11869144D01*
X8184250Y-11869143D01*
X8304005Y-11792180D01*
X8371043Y-11772496D01*
X8438083Y-11792180D01*
X8483838Y-11844984D01*
X8493782Y-11914142D01*
X8474250Y-12049999D01*
X8495140Y-12195302D01*
X8495141Y-12195307D01*
X8547749Y-12310500D01*
X8556123Y-12328836D01*
X8652256Y-12439778D01*
X8775750Y-12519143D01*
X8775751Y-12519143D01*
X8775752Y-12519144D01*
X8916598Y-12560499D01*
X8916600Y-12560500D01*
X8916601Y-12560500D01*
X9063400Y-12560500D01*
X9063400Y-12560499D01*
X9204250Y-12519143D01*
X9327744Y-12439778D01*
X9423877Y-12328836D01*
X9484859Y-12195304D01*
X9505750Y-12050000D01*
X9484859Y-11904696D01*
X9484858Y-11904695D01*
X9484858Y-11904692D01*
X9423878Y-11771167D01*
X9423877Y-11771164D01*
X9327744Y-11660222D01*
X9204250Y-11580857D01*
X9204249Y-11580856D01*
X9204248Y-11580856D01*
X9204247Y-11580855D01*
X9063401Y-11539500D01*
X9063399Y-11539500D01*
X8916601Y-11539500D01*
X8916598Y-11539500D01*
X8775752Y-11580855D01*
X8655994Y-11657819D01*
X8588954Y-11677503D01*
X8521915Y-11657818D01*
X8476160Y-11605014D01*
X8466217Y-11535856D01*
X8485750Y-11400000D01*
X8464859Y-11254696D01*
X8464858Y-11254695D01*
X8464858Y-11254692D01*
X8403878Y-11121167D01*
X8403877Y-11121164D01*
X8307744Y-11010222D01*
X8184250Y-10930857D01*
X8184249Y-10930856D01*
X8184248Y-10930856D01*
X8184247Y-10930855D01*
X8043401Y-10889500D01*
X8043399Y-10889500D01*
X8028940Y-10889500D01*
X7961901Y-10869815D01*
X7916146Y-10817011D01*
X7906202Y-10783146D01*
X7902506Y-10757442D01*
X7884859Y-10634696D01*
X7884858Y-10634695D01*
X7884858Y-10634692D01*
X7836524Y-10528857D01*
X7823877Y-10501164D01*
X7727744Y-10390222D01*
X7604250Y-10310857D01*
X7604249Y-10310856D01*
X7604248Y-10310856D01*
X7604247Y-10310855D01*
X7477415Y-10273615D01*
X7418637Y-10235841D01*
X7389611Y-10172286D01*
X7399554Y-10103127D01*
X7433683Y-10058785D01*
X7654555Y-9877522D01*
X7706544Y-9825532D01*
X7706546Y-9825532D01*
X7763895Y-9768182D01*
X7768238Y-9764047D01*
X7964005Y-9586613D01*
X7973381Y-9578919D01*
X8183103Y-9423379D01*
X8193196Y-9416636D01*
X8417143Y-9282408D01*
X8427835Y-9276692D01*
X8663879Y-9165052D01*
X8675086Y-9160410D01*
X8920936Y-9072444D01*
X8932541Y-9068925D01*
X9185798Y-9005489D01*
X9197725Y-9003117D01*
X9455976Y-8964810D01*
X9468072Y-8963618D01*
X9732110Y-8950648D01*
X9738192Y-8950500D01*
X9819055Y-8950500D01*
X10675500Y-8950500D01*
X10742539Y-8970185D01*
X10788294Y-9022989D01*
X10799500Y-9074500D01*
X10799500Y-13088672D01*
X10797117Y-13112864D01*
X10789500Y-13151156D01*
X10789500Y-13308846D01*
X10820261Y-13463489D01*
X10820264Y-13463501D01*
X10880602Y-13609172D01*
X10880609Y-13609185D01*
X10968210Y-13740288D01*
X10968213Y-13740292D01*
X11079707Y-13851786D01*
X11079711Y-13851789D01*
X11210814Y-13939390D01*
X11210827Y-13939397D01*
X11314693Y-13982419D01*
X11356503Y-13999737D01*
X11511153Y-14030499D01*
X11511156Y-14030500D01*
X11511158Y-14030500D01*
X11668844Y-14030500D01*
X11668845Y-14030499D01*
X11823497Y-13999737D01*
X11969179Y-13939394D01*
X12100289Y-13851789D01*
X12221789Y-13730289D01*
X12233077Y-13713394D01*
X12255198Y-13680290D01*
X12255198Y-13680289D01*
X12276922Y-13647777D01*
X12309394Y-13599179D01*
X12369737Y-13453497D01*
X12394025Y-13331394D01*
X12400500Y-13298843D01*
X12400500Y-13141158D01*
X12400500Y-13091158D01*
X12400500Y-11210000D01*
X13014250Y-11210000D01*
X13035140Y-11355302D01*
X13035141Y-11355307D01*
X13096121Y-11488832D01*
X13096124Y-11488837D01*
X13175860Y-11580857D01*
X13192256Y-11599778D01*
X13315750Y-11679143D01*
X13315751Y-11679143D01*
X13315752Y-11679144D01*
X13456598Y-11720499D01*
X13456600Y-11720500D01*
X13456601Y-11720500D01*
X13603400Y-11720500D01*
X13603400Y-11720499D01*
X13744250Y-11679143D01*
X13867744Y-11599778D01*
X13963877Y-11488836D01*
X14006002Y-11396593D01*
X14024858Y-11355307D01*
X14024859Y-11355302D01*
X14045750Y-11210000D01*
X14024859Y-11064696D01*
X14024858Y-11064695D01*
X14024858Y-11064692D01*
X13963878Y-10931167D01*
X13963877Y-10931164D01*
X13867744Y-10820222D01*
X13744250Y-10740857D01*
X13744249Y-10740856D01*
X13744248Y-10740856D01*
X13744247Y-10740855D01*
X13603401Y-10699500D01*
X13603399Y-10699500D01*
X13456601Y-10699500D01*
X13456598Y-10699500D01*
X13315752Y-10740855D01*
X13315751Y-10740856D01*
X13192258Y-10820220D01*
X13192254Y-10820223D01*
X13096124Y-10931162D01*
X13096121Y-10931167D01*
X13035141Y-11064692D01*
X13035140Y-11064697D01*
X13014250Y-11210000D01*
X12400500Y-11210000D01*
X12400500Y-9074500D01*
X12420185Y-9007461D01*
X12472989Y-8961706D01*
X12524500Y-8950500D01*
X14788844Y-8950500D01*
X14788845Y-8950499D01*
X14943497Y-8919737D01*
X15089179Y-8859394D01*
X15220289Y-8771789D01*
X15331789Y-8660289D01*
X15419394Y-8529179D01*
X15479737Y-8383497D01*
X15510500Y-8228842D01*
X15510500Y-8071158D01*
X15510500Y-8071155D01*
X15510499Y-8071153D01*
X15502864Y-8032772D01*
X15479737Y-7916503D01*
X15460268Y-7869500D01*
X15419397Y-7770826D01*
X15419390Y-7770814D01*
X15331789Y-7639711D01*
X15331786Y-7639707D01*
X15220292Y-7528213D01*
X15220288Y-7528210D01*
X15089185Y-7440609D01*
X15089172Y-7440602D01*
X14943501Y-7380264D01*
X14943489Y-7380261D01*
X14788845Y-7349500D01*
X14788842Y-7349500D01*
X12440608Y-7349500D01*
X12373569Y-7329815D01*
X12327814Y-7277011D01*
X12318135Y-7244898D01*
X12291368Y-7075904D01*
X12291367Y-7075897D01*
X12202776Y-6706897D01*
X12109406Y-6419541D01*
X12107412Y-6349701D01*
X12143492Y-6289868D01*
X12206193Y-6259040D01*
X12275607Y-6267004D01*
X12315019Y-6293543D01*
X12861986Y-6840510D01*
X12987515Y-6912984D01*
X13127526Y-6950500D01*
X13127529Y-6950500D01*
X13272472Y-6950500D01*
X13272475Y-6950500D01*
X13412485Y-6912984D01*
X13538015Y-6840510D01*
X13640510Y-6738015D01*
X13712984Y-6612485D01*
X13738372Y-6517734D01*
X13774736Y-6458077D01*
X13837583Y-6427548D01*
X13906959Y-6435843D01*
X13927029Y-6446724D01*
X14020821Y-6509394D01*
X14020823Y-6509395D01*
X14020827Y-6509397D01*
X14166498Y-6569735D01*
X14166503Y-6569737D01*
X14166507Y-6569737D01*
X14166508Y-6569738D01*
X14321154Y-6600500D01*
X14321157Y-6600500D01*
X14321158Y-6600500D01*
X16247499Y-6600500D01*
X16314538Y-6620185D01*
X16360293Y-6672989D01*
X16370237Y-6742147D01*
X16366159Y-6760496D01*
X16356311Y-6792958D01*
X16356307Y-6792975D01*
X16291877Y-7116862D01*
X16291876Y-7116868D01*
X16259501Y-7445530D01*
X16259500Y-7531815D01*
X16259500Y-7610647D01*
X16259499Y-7702377D01*
X16259500Y-7702394D01*
X16259500Y-9197293D01*
X16259382Y-9202702D01*
X16244408Y-9545649D01*
X16243465Y-9556425D01*
X16199014Y-9894066D01*
X16197136Y-9904720D01*
X16123422Y-10237218D01*
X16120622Y-10247667D01*
X16018212Y-10572468D01*
X16014512Y-10582633D01*
X15884183Y-10897272D01*
X15879611Y-10907076D01*
X15802002Y-11056161D01*
X15753586Y-11106536D01*
X15685621Y-11122739D01*
X15619686Y-11099625D01*
X15598300Y-11080107D01*
X15584946Y-11064696D01*
X15537744Y-11010222D01*
X15414250Y-10930857D01*
X15414249Y-10930856D01*
X15414248Y-10930856D01*
X15414247Y-10930855D01*
X15273401Y-10889500D01*
X15273399Y-10889500D01*
X15126601Y-10889500D01*
X15126598Y-10889500D01*
X14985752Y-10930855D01*
X14985751Y-10930856D01*
X14862258Y-11010220D01*
X14862254Y-11010223D01*
X14766124Y-11121162D01*
X14766121Y-11121167D01*
X14705141Y-11254692D01*
X14705140Y-11254697D01*
X14684250Y-11400000D01*
X14705140Y-11545302D01*
X14705141Y-11545307D01*
X14766121Y-11678832D01*
X14766124Y-11678837D01*
X14846126Y-11771164D01*
X14862256Y-11789778D01*
X14985750Y-11869143D01*
X14985749Y-11869143D01*
X14996277Y-11872234D01*
X15055056Y-11910006D01*
X15084083Y-11973561D01*
X15074142Y-12042720D01*
X15049027Y-12078893D01*
X14838211Y-12289709D01*
X14750607Y-12420819D01*
X14750601Y-12420830D01*
X14690263Y-12566501D01*
X14690260Y-12566513D01*
X14659500Y-12721155D01*
X14659500Y-12735494D01*
X14639815Y-12802533D01*
X14614165Y-12831347D01*
X14258364Y-13123344D01*
X14251926Y-13128284D01*
X13817446Y-13439628D01*
X13810699Y-13444136D01*
X13356789Y-13726395D01*
X13349762Y-13730452D01*
X12878367Y-13982419D01*
X12871089Y-13986008D01*
X12384210Y-14206609D01*
X12376714Y-14209714D01*
X11876472Y-14397991D01*
X11868788Y-14400600D01*
X11357278Y-14555765D01*
X11349440Y-14557865D01*
X10828891Y-14679240D01*
X10820933Y-14680823D01*
X10293554Y-14767893D01*
X10285509Y-14768952D01*
X9753575Y-14821341D01*
X9745478Y-14821872D01*
X9346572Y-14834931D01*
X9209013Y-14839434D01*
X9204971Y-14839500D01*
X6356093Y-14839500D01*
X6343939Y-14838903D01*
X6334882Y-14838011D01*
X6219927Y-14826688D01*
X6196087Y-14821946D01*
X6183200Y-14818036D01*
X6082700Y-14787550D01*
X6060248Y-14778249D01*
X5955749Y-14722391D01*
X5935537Y-14708885D01*
X5857135Y-14644539D01*
X5853608Y-14641532D01*
X5825484Y-14616634D01*
X5820012Y-14611486D01*
X5787239Y-14578712D01*
X5787238Y-14578711D01*
X5782378Y-14575773D01*
X5764342Y-14562506D01*
X5760090Y-14558742D01*
X5754413Y-14555765D01*
X5719048Y-14537220D01*
X5712490Y-14533523D01*
X5698960Y-14525343D01*
X5675434Y-14506910D01*
X5307309Y-14138784D01*
X5307289Y-14138748D01*
X5182474Y-14013936D01*
X5182470Y-14013932D01*
X5112184Y-13960000D01*
X6324250Y-13960000D01*
X6345140Y-14105302D01*
X6345141Y-14105307D01*
X6392823Y-14209714D01*
X6406123Y-14238836D01*
X6502256Y-14349778D01*
X6625750Y-14429143D01*
X6625751Y-14429143D01*
X6625752Y-14429144D01*
X6766598Y-14470499D01*
X6766600Y-14470500D01*
X6766601Y-14470500D01*
X6913400Y-14470500D01*
X6913400Y-14470499D01*
X7054250Y-14429143D01*
X7177744Y-14349778D01*
X7273877Y-14238836D01*
X7297206Y-14187753D01*
X7342961Y-14134949D01*
X7410000Y-14115265D01*
X7477040Y-14134950D01*
X7522794Y-14187753D01*
X7529517Y-14202474D01*
X7546123Y-14238836D01*
X7642256Y-14349778D01*
X7765750Y-14429143D01*
X7765751Y-14429143D01*
X7765752Y-14429144D01*
X7906598Y-14470499D01*
X7906600Y-14470500D01*
X7906601Y-14470500D01*
X8053400Y-14470500D01*
X8053400Y-14470499D01*
X8194250Y-14429143D01*
X8317744Y-14349778D01*
X8413877Y-14238836D01*
X8474859Y-14105304D01*
X8495750Y-13960000D01*
X8474859Y-13814696D01*
X8474858Y-13814695D01*
X8474858Y-13814692D01*
X8422088Y-13699143D01*
X8413877Y-13681164D01*
X8317744Y-13570222D01*
X8194250Y-13490857D01*
X8194249Y-13490856D01*
X8194248Y-13490856D01*
X8194247Y-13490855D01*
X8053401Y-13449500D01*
X8053399Y-13449500D01*
X7906601Y-13449500D01*
X7906598Y-13449500D01*
X7765752Y-13490855D01*
X7765751Y-13490856D01*
X7642258Y-13570220D01*
X7642254Y-13570223D01*
X7546124Y-13681162D01*
X7546120Y-13681168D01*
X7522794Y-13732246D01*
X7477039Y-13785050D01*
X7409999Y-13804734D01*
X7342960Y-13785049D01*
X7297206Y-13732246D01*
X7273879Y-13681168D01*
X7273878Y-13681167D01*
X7273877Y-13681164D01*
X7177744Y-13570222D01*
X7054250Y-13490857D01*
X7054249Y-13490856D01*
X7054248Y-13490856D01*
X7054247Y-13490855D01*
X6913401Y-13449500D01*
X6913399Y-13449500D01*
X6766601Y-13449500D01*
X6766598Y-13449500D01*
X6625752Y-13490855D01*
X6625751Y-13490856D01*
X6502258Y-13570220D01*
X6502254Y-13570223D01*
X6406124Y-13681162D01*
X6406121Y-13681167D01*
X6345141Y-13814692D01*
X6345140Y-13814697D01*
X6324250Y-13960000D01*
X5112184Y-13960000D01*
X5085325Y-13939390D01*
X4987698Y-13864478D01*
X4817818Y-13766400D01*
X4775083Y-13741727D01*
X4775079Y-13741725D01*
X4775073Y-13741722D01*
X4548265Y-13647777D01*
X4548261Y-13647776D01*
X4311123Y-13584239D01*
X4311120Y-13584238D01*
X4067729Y-13552199D01*
X4067724Y-13552198D01*
X4067719Y-13552198D01*
X4067711Y-13552198D01*
X3944966Y-13552200D01*
X1115464Y-13552200D01*
X1048425Y-13532515D01*
X1002670Y-13479711D01*
X992726Y-13410553D01*
X1015146Y-13355315D01*
X1106191Y-13230000D01*
X5264250Y-13230000D01*
X5285140Y-13375302D01*
X5285141Y-13375307D01*
X5346121Y-13508832D01*
X5346124Y-13508837D01*
X5424406Y-13599179D01*
X5442256Y-13619778D01*
X5565750Y-13699143D01*
X5565751Y-13699143D01*
X5565752Y-13699144D01*
X5658563Y-13726395D01*
X5705882Y-13740289D01*
X5706598Y-13740499D01*
X5706600Y-13740500D01*
X5706601Y-13740500D01*
X5853400Y-13740500D01*
X5853400Y-13740499D01*
X5994250Y-13699143D01*
X6117744Y-13619778D01*
X6213877Y-13508836D01*
X6274859Y-13375304D01*
X6295750Y-13230000D01*
X6274859Y-13084696D01*
X6274858Y-13084695D01*
X6274858Y-13084692D01*
X6213878Y-12951167D01*
X6213877Y-12951164D01*
X6149788Y-12877202D01*
X6117745Y-12840223D01*
X6117741Y-12840220D01*
X5994248Y-12760856D01*
X5994247Y-12760855D01*
X5853401Y-12719500D01*
X5853399Y-12719500D01*
X5706601Y-12719500D01*
X5706598Y-12719500D01*
X5565752Y-12760855D01*
X5565751Y-12760856D01*
X5442258Y-12840220D01*
X5442254Y-12840223D01*
X5346124Y-12951162D01*
X5346121Y-12951167D01*
X5285141Y-13084692D01*
X5285140Y-13084697D01*
X5264250Y-13230000D01*
X1106191Y-13230000D01*
X1112287Y-13221610D01*
X1205220Y-13039219D01*
X1268477Y-12844534D01*
X1300500Y-12642352D01*
X1300500Y-12437648D01*
X1280996Y-12314505D01*
X1268477Y-12235465D01*
X1217585Y-12078836D01*
X1205220Y-12040781D01*
X1205218Y-12040778D01*
X1205218Y-12040776D01*
X1170970Y-11973561D01*
X1112287Y-11858390D01*
X1064184Y-11792181D01*
X991971Y-11692786D01*
X847213Y-11548028D01*
X681613Y-11427715D01*
X681612Y-11427714D01*
X681610Y-11427713D01*
X621046Y-11396854D01*
X499223Y-11334781D01*
X304534Y-11271522D01*
X129995Y-11243878D01*
X102352Y-11239500D01*
X-102352Y-11239500D01*
X-126671Y-11243351D01*
X-304535Y-11271522D01*
X-499224Y-11334781D01*
X-681614Y-11427715D01*
X-847214Y-11548028D01*
X-991972Y-11692786D01*
X-1112285Y-11858386D01*
X-1205219Y-12040776D01*
X-1268478Y-12235465D01*
X-1300500Y-12437648D01*
X-1300500Y-12642351D01*
X-1268478Y-12844534D01*
X-1205219Y-13039223D01*
X-1148185Y-13151156D01*
X-1119830Y-13206807D01*
X-1112285Y-13221613D01*
X-1015146Y-13355315D01*
X-991666Y-13421121D01*
X-1007492Y-13489175D01*
X-1057598Y-13537870D01*
X-1115464Y-13552200D01*
X-5825175Y-13552200D01*
X-5930183Y-13580337D01*
X-5965186Y-13589716D01*
X-6090714Y-13662189D01*
X-6090717Y-13662191D01*
X-6220509Y-13791983D01*
X-6220511Y-13791986D01*
X-6292984Y-13917514D01*
X-6298847Y-13939397D01*
X-6330500Y-14057526D01*
X-6330500Y-14202474D01*
X-6292984Y-14342485D01*
X-6220510Y-14468015D01*
X-6118015Y-14570510D01*
X-5992485Y-14642984D01*
X-5852474Y-14680500D01*
X-5852471Y-14680500D01*
X-5707528Y-14680500D01*
X-5707526Y-14680500D01*
X-5635384Y-14661169D01*
X-5621408Y-14657425D01*
X-5589315Y-14653200D01*
X3677525Y-14653200D01*
X3878139Y-14653200D01*
X3878143Y-14653201D01*
X3938896Y-14653200D01*
X3951047Y-14653796D01*
X3987890Y-14657425D01*
X4083404Y-14666831D01*
X4107245Y-14671573D01*
X4228662Y-14708402D01*
X4251119Y-14717704D01*
X4285443Y-14736050D01*
X4363013Y-14777512D01*
X4383224Y-14791016D01*
X4485954Y-14875323D01*
X4494971Y-14883496D01*
X4951346Y-15339871D01*
X4951370Y-15339915D01*
X5037003Y-15425544D01*
X5037180Y-15425704D01*
X5038934Y-15427458D01*
X5057858Y-15438385D01*
X5064735Y-15442660D01*
X5138780Y-15492128D01*
X5138782Y-15492129D01*
X5138787Y-15492132D01*
X5144163Y-15495005D01*
X5143886Y-15495522D01*
X5164099Y-15507189D01*
X5331104Y-15635341D01*
X5331111Y-15635345D01*
X5331117Y-15635349D01*
X5538844Y-15755284D01*
X5538850Y-15755287D01*
X5538857Y-15755291D01*
X5760490Y-15847096D01*
X5992210Y-15909187D01*
X6201797Y-15936780D01*
X6229999Y-15940493D01*
X6230053Y-15940500D01*
X6230060Y-15940500D01*
X9287883Y-15940500D01*
X9287973Y-15940494D01*
X9491009Y-15940494D01*
X9491022Y-15940494D01*
X10057658Y-15906220D01*
X10621191Y-15837795D01*
X11179565Y-15735470D01*
X11730741Y-15599618D01*
X12272710Y-15430734D01*
X12803492Y-15229435D01*
X13321152Y-14996456D01*
X13823801Y-14732646D01*
X14309604Y-14438968D01*
X14776789Y-14116494D01*
X15114664Y-13851786D01*
X15223644Y-13766406D01*
X15223645Y-13766405D01*
X15223651Y-13766400D01*
X15375713Y-13631684D01*
X15438945Y-13601963D01*
X15457939Y-13600500D01*
X15538847Y-13600500D01*
X15642890Y-13579803D01*
X15693499Y-13569737D01*
X15839181Y-13509393D01*
X15970291Y-13421787D01*
X16093234Y-13298843D01*
X16185270Y-13206807D01*
X16185271Y-13206805D01*
X16211823Y-13180254D01*
X16211822Y-13180253D01*
X16248131Y-13143946D01*
X16248139Y-13143935D01*
X16267576Y-13124500D01*
X16267577Y-13124497D01*
X16272427Y-13119648D01*
X16272501Y-13119564D01*
X16368203Y-13023865D01*
X16655469Y-12687522D01*
X16915461Y-12329676D01*
X17146575Y-11952535D01*
X17347386Y-11558423D01*
X17516656Y-11149771D01*
X17653342Y-10729098D01*
X17756601Y-10298997D01*
X17825796Y-9862120D01*
X17860500Y-9421161D01*
X17860500Y-9200000D01*
X17860500Y-9115864D01*
X17860500Y-7614727D01*
X17860766Y-7606615D01*
X17871074Y-7449377D01*
X17875030Y-7389030D01*
X17877147Y-7372955D01*
X17918898Y-7163071D01*
X17923089Y-7147427D01*
X17991883Y-6944774D01*
X17998084Y-6929804D01*
X18092740Y-6737864D01*
X18100831Y-6723851D01*
X18219734Y-6545899D01*
X18229585Y-6533061D01*
X18373576Y-6368872D01*
X18379081Y-6362996D01*
X18435532Y-6306546D01*
X20191789Y-4550289D01*
X20279394Y-4419179D01*
X20282842Y-4410856D01*
X20339735Y-4273501D01*
X20339737Y-4273497D01*
X20370500Y-4118842D01*
X20370500Y-3961158D01*
X20370500Y-2721156D01*
X20370500Y-2684315D01*
X20372451Y-2666430D01*
X20372165Y-2666398D01*
X20372945Y-2659495D01*
X20373484Y-2649345D01*
X20373584Y-2648329D01*
X20373586Y-2648320D01*
X20373586Y-2573059D01*
X20373590Y-2572077D01*
X20374226Y-2491681D01*
X20374225Y-2491680D01*
X20374226Y-2491675D01*
X20363010Y-2436776D01*
X20360500Y-2411955D01*
X20360500Y1718845D01*
X20360499Y1718847D01*
X20331367Y1865303D01*
X20329737Y1873497D01*
X20312420Y1915304D01*
X20269397Y2019173D01*
X20269390Y2019186D01*
X20181790Y2150288D01*
X20133751Y2198327D01*
X20070289Y2261789D01*
X18636819Y3695259D01*
X18603334Y3756582D01*
X18600500Y3782940D01*
X18600500Y6078841D01*
X18598526Y6088764D01*
X18594241Y6110307D01*
X18592980Y6116645D01*
X18569739Y6233490D01*
X18569738Y6233497D01*
X18509394Y6379179D01*
X18509392Y6379182D01*
X18509390Y6379186D01*
X18421789Y6510289D01*
X18421786Y6510293D01*
X15910292Y9021787D01*
X15910288Y9021790D01*
X15779185Y9109391D01*
X15779172Y9109398D01*
X15633501Y9169736D01*
X15633489Y9169739D01*
X15478845Y9200500D01*
X15478842Y9200500D01*
X10524500Y9200500D01*
X10457461Y9220185D01*
X10411706Y9272989D01*
X10400500Y9324500D01*
X10400500Y10008845D01*
X10400499Y10008847D01*
X10390556Y10058833D01*
X10369737Y10163497D01*
X10367135Y10169780D01*
X10309397Y10309173D01*
X10309390Y10309186D01*
X10221789Y10440289D01*
X10221786Y10440293D01*
X10110292Y10551787D01*
X10110288Y10551790D01*
X9979185Y10639391D01*
X9979172Y10639398D01*
X9833501Y10699736D01*
X9833489Y10699739D01*
X9678845Y10730500D01*
X9678842Y10730500D01*
X9521158Y10730500D01*
X9521155Y10730500D01*
X9366510Y10699739D01*
X9366498Y10699736D01*
X9220827Y10639398D01*
X9220814Y10639391D01*
X9089711Y10551790D01*
X9089707Y10551787D01*
X8978213Y10440293D01*
X8978210Y10440289D01*
X8890609Y10309186D01*
X8890602Y10309173D01*
X8830264Y10163502D01*
X8830261Y10163490D01*
X8799500Y10008847D01*
X8799500Y9038280D01*
X8779815Y8971241D01*
X8750989Y8939906D01*
X8608434Y8830515D01*
X8608430Y8830512D01*
X8566251Y8788329D01*
X8566248Y8788326D01*
X8256025Y8478104D01*
X8194702Y8444619D01*
X8125010Y8449603D01*
X8069077Y8491475D01*
X8044660Y8556939D01*
X8057858Y8622078D01*
X8152600Y8808019D01*
X8169768Y8860857D01*
X8222541Y9023275D01*
X8222541Y9023276D01*
X8222542Y9023279D01*
X8257950Y9246831D01*
X8257950Y9473169D01*
X8222542Y9696721D01*
X8222541Y9696725D01*
X8222541Y9696726D01*
X8152601Y9911979D01*
X8152599Y9911982D01*
X8149526Y9918015D01*
X8049845Y10113650D01*
X7916807Y10296761D01*
X7756761Y10456807D01*
X7573650Y10589845D01*
X7371981Y10692600D01*
X7371978Y10692602D01*
X7156723Y10762542D01*
X7007686Y10786148D01*
X6933169Y10797950D01*
X6706831Y10797950D01*
X6632313Y10786148D01*
X6483277Y10762542D01*
X6483274Y10762542D01*
X6268021Y10692602D01*
X6268018Y10692600D01*
X6066349Y10589845D01*
X5974445Y10523072D01*
X5883239Y10456807D01*
X5883237Y10456805D01*
X5883236Y10456805D01*
X5723195Y10296764D01*
X5723195Y10296763D01*
X5723193Y10296761D01*
X5670390Y10224084D01*
X5590155Y10113651D01*
X5487400Y9911982D01*
X5487398Y9911979D01*
X5417458Y9696726D01*
X5417458Y9696723D01*
X5402059Y9599500D01*
X5382050Y9473169D01*
X5382050Y9246831D01*
X5394261Y9169737D01*
X5417458Y9023278D01*
X5417458Y9023275D01*
X5487398Y8808022D01*
X5487400Y8808019D01*
X5590155Y8606350D01*
X5723193Y8423239D01*
X5883239Y8263193D01*
X6066350Y8130155D01*
X6268019Y8027400D01*
X6268021Y8027399D01*
X6411258Y7980859D01*
X6483279Y7957458D01*
X6706831Y7922050D01*
X6706832Y7922050D01*
X6933168Y7922050D01*
X6933169Y7922050D01*
X7156721Y7957458D01*
X7156724Y7957459D01*
X7156725Y7957459D01*
X7371978Y8027399D01*
X7371981Y8027400D01*
X7435962Y8060000D01*
X7557922Y8122142D01*
X7626589Y8135037D01*
X7691330Y8108761D01*
X7731587Y8051654D01*
X7734579Y7981849D01*
X7701896Y7923975D01*
X7273454Y7495532D01*
X7273453Y7495531D01*
X7216428Y7438507D01*
X7211375Y7433729D01*
X7043418Y7283634D01*
X7032552Y7274969D01*
X6851710Y7146654D01*
X6839937Y7139257D01*
X6645852Y7031989D01*
X6633323Y7025955D01*
X6428460Y6941097D01*
X6415335Y6936504D01*
X6202249Y6875114D01*
X6188692Y6872020D01*
X5970082Y6834876D01*
X5956265Y6833319D01*
X5731511Y6820695D01*
X5724557Y6820500D01*
X5214500Y6820500D01*
X5147461Y6840185D01*
X5101706Y6892989D01*
X5090500Y6944500D01*
X5090500Y9652473D01*
X5090500Y9652475D01*
X5052984Y9792485D01*
X5030650Y9831168D01*
X4980511Y9918012D01*
X4980506Y9918018D01*
X4878017Y10020507D01*
X4878011Y10020512D01*
X4752488Y10092983D01*
X4752489Y10092983D01*
X4741006Y10096060D01*
X4612475Y10130500D01*
X4467525Y10130500D01*
X4338993Y10096060D01*
X4327511Y10092983D01*
X4201988Y10020512D01*
X4135637Y9954161D01*
X4074313Y9920677D01*
X4004622Y9925662D01*
X3948688Y9967533D01*
X3935164Y9990327D01*
X3903877Y10058836D01*
X3807744Y10169778D01*
X3684250Y10249143D01*
X3684249Y10249144D01*
X3684248Y10249144D01*
X3684247Y10249145D01*
X3543401Y10290500D01*
X3543399Y10290500D01*
X3396601Y10290500D01*
X3396598Y10290500D01*
X3255752Y10249145D01*
X3255751Y10249144D01*
X3132258Y10169780D01*
X3132254Y10169777D01*
X3036124Y10058838D01*
X3036121Y10058833D01*
X2975141Y9925308D01*
X2975140Y9925303D01*
X2954250Y9780000D01*
X2975140Y9634698D01*
X2975141Y9634693D01*
X3036121Y9501168D01*
X3036124Y9501163D01*
X3086318Y9443236D01*
X3132256Y9390222D01*
X3255750Y9310857D01*
X3255751Y9310857D01*
X3255752Y9310856D01*
X3353280Y9282220D01*
X3384718Y9272989D01*
X3396598Y9269501D01*
X3396600Y9269500D01*
X3396601Y9269500D01*
X3543400Y9269500D01*
X3543400Y9269501D01*
X3680320Y9309703D01*
X3684247Y9310856D01*
X3684248Y9310856D01*
X3684250Y9310857D01*
X3798461Y9384257D01*
X3865499Y9403941D01*
X3932539Y9384257D01*
X3978294Y9331453D01*
X3989500Y9279941D01*
X3989500Y6944500D01*
X3969815Y6877461D01*
X3917011Y6831706D01*
X3865500Y6820500D01*
X3002425Y6820500D01*
X2997557Y6820596D01*
X2979838Y6821293D01*
X2550576Y6838159D01*
X2540871Y6838922D01*
X2099025Y6891217D01*
X2089408Y6892741D01*
X1653060Y6979537D01*
X1643592Y6981810D01*
X1215395Y7102574D01*
X1206135Y7105582D01*
X788716Y7259576D01*
X779721Y7263302D01*
X375683Y7449565D01*
X367008Y7453986D01*
X-21179Y7671382D01*
X-29481Y7676469D01*
X-399404Y7923644D01*
X-407281Y7929367D01*
X-528202Y8024693D01*
X-756680Y8204811D01*
X-764080Y8211131D01*
X-820404Y8263196D01*
X-1070952Y8494801D01*
X-1106818Y8554761D01*
X-1104573Y8624595D01*
X-1064930Y8682129D01*
X-1000475Y8709097D01*
X-935264Y8698648D01*
X-927837Y8695256D01*
X-883129Y8682129D01*
X-789689Y8654693D01*
X-786991Y8653901D01*
X-786989Y8653900D01*
X-786988Y8653900D01*
X-640189Y8653900D01*
X-640189Y8653901D01*
X-499339Y8695257D01*
X-375845Y8774622D01*
X-375846Y8774622D01*
X-368385Y8779416D01*
X-366653Y8776721D01*
X-317443Y8799216D01*
X-248280Y8789299D01*
X-195459Y8743564D01*
X-189264Y8732780D01*
X-124845Y8606350D01*
X8193Y8423239D01*
X168239Y8263193D01*
X351350Y8130155D01*
X553019Y8027400D01*
X553021Y8027399D01*
X696258Y7980859D01*
X768279Y7957458D01*
X991831Y7922050D01*
X991832Y7922050D01*
X1218168Y7922050D01*
X1218169Y7922050D01*
X1441721Y7957458D01*
X1441724Y7957459D01*
X1441725Y7957459D01*
X1656978Y8027399D01*
X1656981Y8027400D01*
X1720962Y8060000D01*
X1854592Y8128088D01*
X1923259Y8140983D01*
X1988000Y8114707D01*
X2028257Y8057600D01*
X2033622Y8035253D01*
X2035139Y8024702D01*
X2035141Y8024693D01*
X2096121Y7891168D01*
X2096124Y7891163D01*
X2169531Y7806447D01*
X2192256Y7780222D01*
X2315750Y7700857D01*
X2315751Y7700857D01*
X2315752Y7700856D01*
X2456598Y7659501D01*
X2456600Y7659500D01*
X2456601Y7659500D01*
X2603400Y7659500D01*
X2603400Y7659501D01*
X2740572Y7699777D01*
X2744247Y7700856D01*
X2744247Y7700857D01*
X2744250Y7700857D01*
X2867744Y7780222D01*
X2963877Y7891164D01*
X3024859Y8024696D01*
X3045750Y8170000D01*
X3024859Y8315304D01*
X3024858Y8315305D01*
X3024858Y8315308D01*
X2981511Y8410222D01*
X2963877Y8448836D01*
X2867744Y8559778D01*
X2744250Y8639143D01*
X2744249Y8639144D01*
X2744248Y8639144D01*
X2744247Y8639145D01*
X2603401Y8680500D01*
X2603399Y8680500D01*
X2566838Y8680500D01*
X2499799Y8700185D01*
X2454044Y8752989D01*
X2444100Y8822147D01*
X2448907Y8842818D01*
X2507541Y9023275D01*
X2507541Y9023276D01*
X2507542Y9023279D01*
X2542950Y9246831D01*
X2542950Y9473169D01*
X2507542Y9696721D01*
X2507541Y9696725D01*
X2507541Y9696726D01*
X2437601Y9911979D01*
X2437599Y9911982D01*
X2434526Y9918015D01*
X2334845Y10113650D01*
X2201807Y10296761D01*
X2041761Y10456807D01*
X1858650Y10589845D01*
X1656981Y10692600D01*
X1656978Y10692602D01*
X1441723Y10762542D01*
X1292686Y10786148D01*
X1218169Y10797950D01*
X991831Y10797950D01*
X917313Y10786148D01*
X768277Y10762542D01*
X768274Y10762542D01*
X553021Y10692602D01*
X553018Y10692600D01*
X351349Y10589845D01*
X259445Y10523072D01*
X168239Y10456807D01*
X168237Y10456805D01*
X168236Y10456805D01*
X8195Y10296764D01*
X8195Y10296763D01*
X8193Y10296761D01*
X-44610Y10224084D01*
X-124845Y10113651D01*
X-227600Y9911982D01*
X-227602Y9911979D01*
X-299048Y9692088D01*
X-300768Y9692647D01*
X-331707Y9638781D01*
X-393738Y9606627D01*
X-463306Y9613113D01*
X-484515Y9624017D01*
X-499339Y9633543D01*
X-499342Y9633545D01*
X-640188Y9674900D01*
X-640190Y9674900D01*
X-786988Y9674900D01*
X-786991Y9674900D01*
X-927837Y9633545D01*
X-927838Y9633544D01*
X-1051331Y9554180D01*
X-1051335Y9554177D01*
X-1147465Y9443238D01*
X-1147468Y9443233D01*
X-1208448Y9309708D01*
X-1208449Y9309703D01*
X-1229339Y9164400D01*
X-1208449Y9019098D01*
X-1208448Y9019096D01*
X-1167344Y8929090D01*
X-1157401Y8859932D01*
X-1186426Y8796376D01*
X-1245205Y8758602D01*
X-1315074Y8758602D01*
X-1367819Y8789898D01*
X-1721097Y9143175D01*
X-1726627Y9149079D01*
X-1876298Y9319748D01*
X-1886166Y9332609D01*
X-1938279Y9410602D01*
X-1959157Y9477279D01*
X-1940672Y9544659D01*
X-1888693Y9591349D01*
X-1870111Y9598469D01*
X-1725753Y9640856D01*
X-1725753Y9640857D01*
X-1725750Y9640857D01*
X-1602256Y9720222D01*
X-1506123Y9831164D01*
X-1445141Y9964696D01*
X-1424250Y10110000D01*
X-1431623Y10161281D01*
X-1421679Y10230438D01*
X-1375924Y10283241D01*
X-1308885Y10302926D01*
X-1241845Y10283241D01*
X-1239993Y10282028D01*
X-1153269Y10224080D01*
X-1017542Y10167860D01*
X-873460Y10139201D01*
X-873456Y10139200D01*
X-873455Y10139200D01*
X-726544Y10139200D01*
X-726543Y10139201D01*
X-582458Y10167860D01*
X-446731Y10224080D01*
X-324580Y10305699D01*
X-220699Y10409580D01*
X-139080Y10531731D01*
X-82860Y10667458D01*
X-54200Y10811545D01*
X-54200Y10958455D01*
X-82860Y11102542D01*
X-139080Y11238269D01*
X-139081Y11238270D01*
X-139084Y11238276D01*
X-220699Y11360420D01*
X-220702Y11360424D01*
X-324577Y11464299D01*
X-324581Y11464302D01*
X-446725Y11545917D01*
X-446734Y11545922D01*
X-582456Y11602139D01*
X-582455Y11602139D01*
X-582458Y11602140D01*
X-582462Y11602141D01*
X-582466Y11602142D01*
X-726541Y11630800D01*
X-726545Y11630800D01*
X-873455Y11630800D01*
X-873460Y11630800D01*
X-1017535Y11602142D01*
X-1017545Y11602139D01*
X-1085227Y11574105D01*
X-1154697Y11566638D01*
X-1217175Y11597913D01*
X-1252827Y11658003D01*
X-1250332Y11727828D01*
X-1245476Y11740171D01*
X-1225141Y11784696D01*
X-1204250Y11930000D01*
X-1210498Y11973460D01*
X6074200Y11973460D01*
X6074200Y11826541D01*
X6102858Y11682466D01*
X6102861Y11682456D01*
X6159078Y11546734D01*
X6159083Y11546725D01*
X6240698Y11424581D01*
X6240701Y11424577D01*
X6344576Y11320702D01*
X6344580Y11320699D01*
X6466724Y11239084D01*
X6466733Y11239079D01*
X6491800Y11228696D01*
X6602458Y11182860D01*
X6746540Y11154201D01*
X6746544Y11154200D01*
X6746545Y11154200D01*
X6893456Y11154200D01*
X6893457Y11154201D01*
X7037542Y11182860D01*
X7173269Y11239080D01*
X7295420Y11320699D01*
X7399301Y11424580D01*
X7480920Y11546731D01*
X7537140Y11682458D01*
X7558124Y11787952D01*
X13719733Y11787952D01*
X13719733Y11787951D01*
X13740289Y11566102D01*
X13801262Y11351809D01*
X13801269Y11351791D01*
X13900571Y11152365D01*
X14034842Y10974563D01*
X14199491Y10824466D01*
X14199493Y10824464D01*
X14388917Y10707178D01*
X14388918Y10707178D01*
X14388921Y10707176D01*
X14596676Y10626691D01*
X14815683Y10585751D01*
X14815685Y10585751D01*
X15038481Y10585751D01*
X15038483Y10585751D01*
X15257490Y10626691D01*
X15465245Y10707176D01*
X15654674Y10824465D01*
X15819325Y10974565D01*
X15953593Y11152363D01*
X15996775Y11239084D01*
X16052896Y11351791D01*
X16052897Y11351796D01*
X16052903Y11351806D01*
X16113876Y11566101D01*
X16134433Y11787951D01*
X16121270Y11930000D01*
X16113876Y12009801D01*
X16052903Y12224096D01*
X16052899Y12224104D01*
X16052896Y12224112D01*
X15953594Y12423538D01*
X15819323Y12601340D01*
X15654674Y12751437D01*
X15654672Y12751439D01*
X15465248Y12868725D01*
X15465242Y12868727D01*
X15257490Y12949211D01*
X15038483Y12990151D01*
X14815683Y12990151D01*
X14596676Y12949211D01*
X14465294Y12898314D01*
X14388923Y12868727D01*
X14388917Y12868725D01*
X14199493Y12751439D01*
X14199491Y12751437D01*
X14034842Y12601340D01*
X13900571Y12423538D01*
X13801269Y12224112D01*
X13801262Y12224094D01*
X13740289Y12009801D01*
X13719733Y11787952D01*
X7558124Y11787952D01*
X7565800Y11826545D01*
X7565800Y11973455D01*
X7537140Y12117542D01*
X7480920Y12253269D01*
X7480919Y12253270D01*
X7480916Y12253276D01*
X7399301Y12375420D01*
X7399298Y12375424D01*
X7295423Y12479299D01*
X7295419Y12479302D01*
X7173275Y12560917D01*
X7173266Y12560922D01*
X7037544Y12617139D01*
X7037545Y12617139D01*
X7037542Y12617140D01*
X7037538Y12617141D01*
X7037534Y12617142D01*
X6893459Y12645800D01*
X6893455Y12645800D01*
X6746545Y12645800D01*
X6746540Y12645800D01*
X6602465Y12617142D01*
X6602455Y12617139D01*
X6466733Y12560922D01*
X6466724Y12560917D01*
X6344580Y12479302D01*
X6344576Y12479299D01*
X6240701Y12375424D01*
X6240698Y12375420D01*
X6159083Y12253276D01*
X6159078Y12253267D01*
X6102861Y12117545D01*
X6102858Y12117535D01*
X6074200Y11973460D01*
X-1210498Y11973460D01*
X-1225141Y12075304D01*
X-1225143Y12075307D01*
X-1226035Y12081517D01*
X-1216091Y12150676D01*
X-1170336Y12203479D01*
X-1103297Y12223164D01*
X-1055845Y12213725D01*
X-1022803Y12200039D01*
X-1017542Y12197860D01*
X-873460Y12169201D01*
X-873456Y12169200D01*
X-873455Y12169200D01*
X-726544Y12169200D01*
X-726543Y12169201D01*
X-582458Y12197860D01*
X-446731Y12254080D01*
X-324580Y12335699D01*
X-220699Y12439580D01*
X-139080Y12561731D01*
X-82860Y12697458D01*
X-54200Y12841545D01*
X-54200Y12988455D01*
X-82860Y13132542D01*
X-131605Y13250222D01*
X-139079Y13268267D01*
X-139084Y13268276D01*
X-220699Y13390420D01*
X-220702Y13390424D01*
X-324577Y13494299D01*
X-324581Y13494302D01*
X-446725Y13575917D01*
X-446734Y13575922D01*
X-557389Y13621756D01*
X-582458Y13632140D01*
X-582462Y13632141D01*
X-582466Y13632142D01*
X-726541Y13660800D01*
X-726545Y13660800D01*
X-873455Y13660800D01*
X-873460Y13660800D01*
X-1017535Y13632142D01*
X-1017545Y13632139D01*
X-1153267Y13575922D01*
X-1153276Y13575917D01*
X-1275420Y13494302D01*
X-1275424Y13494299D01*
X-1379299Y13390424D01*
X-1379302Y13390420D01*
X-1460917Y13268276D01*
X-1460922Y13268267D01*
X-1517139Y13132545D01*
X-1517142Y13132535D01*
X-1545800Y12988460D01*
X-1545800Y12841541D01*
X-1517142Y12697466D01*
X-1517138Y12697452D01*
X-1477225Y12601092D01*
X-1469756Y12531623D01*
X-1501032Y12469144D01*
X-1561121Y12433492D01*
X-1626721Y12434663D01*
X-1646600Y12440500D01*
X-1646601Y12440500D01*
X-1793399Y12440500D01*
X-1793402Y12440500D01*
X-1934248Y12399145D01*
X-1934249Y12399144D01*
X-2065204Y12314984D01*
X-2066595Y12317148D01*
X-2117860Y12293739D01*
X-2187018Y12303687D01*
X-2239819Y12349445D01*
X-2259500Y12416478D01*
X-2259500Y12764745D01*
X-2259511Y12764973D01*
X-2259511Y12791390D01*
X-2259512Y12791394D01*
X-2284451Y13012747D01*
X-2284454Y13012765D01*
X-2334024Y13229951D01*
X-2407600Y13440225D01*
X-2504256Y13640939D01*
X-2622776Y13829569D01*
X-2627790Y13835856D01*
X-2761670Y14003744D01*
X-2769084Y14011158D01*
X-2780351Y14022426D01*
X-2780375Y14022453D01*
X-2807375Y14049453D01*
X-2847940Y14090018D01*
X-2899923Y14142003D01*
X-2899924Y14142004D01*
X-2904246Y14146326D01*
X-2904259Y14146338D01*
X-2967699Y14209777D01*
X-3002587Y14244665D01*
X-3010840Y14254521D01*
X-3010990Y14254392D01*
X-3014952Y14259029D01*
X-3065195Y14307309D01*
X-3066959Y14309038D01*
X-3116155Y14358234D01*
X-3120871Y14362105D01*
X-3120747Y14362258D01*
X-3130748Y14370300D01*
X-3151095Y14389852D01*
X-3152859Y14391582D01*
X-3226059Y14464782D01*
X-3226060Y14464783D01*
X-3226064Y14464787D01*
X-3314645Y14532758D01*
X-3341245Y14553169D01*
X-332950Y14553169D01*
X-332950Y14326831D01*
X-321164Y14252420D01*
X-297542Y14103278D01*
X-297542Y14103275D01*
X-227602Y13888022D01*
X-227600Y13888019D01*
X-124845Y13686350D01*
X8193Y13503239D01*
X168239Y13343193D01*
X351350Y13210155D01*
X553019Y13107400D01*
X553021Y13107399D01*
X753801Y13042163D01*
X768279Y13037458D01*
X991831Y13002050D01*
X991832Y13002050D01*
X1218168Y13002050D01*
X1218169Y13002050D01*
X1441721Y13037458D01*
X1441724Y13037459D01*
X1441725Y13037459D01*
X1656978Y13107399D01*
X1656978Y13107400D01*
X1656981Y13107400D01*
X1858650Y13210155D01*
X2041761Y13343193D01*
X2078863Y13380296D01*
X2140183Y13413780D01*
X2209875Y13408796D01*
X2265809Y13366926D01*
X2270897Y13358350D01*
X2271328Y13358626D01*
X2276122Y13351166D01*
X2276123Y13351164D01*
X2308167Y13314184D01*
X2371999Y13240518D01*
X2372256Y13240222D01*
X2495750Y13160857D01*
X2495751Y13160857D01*
X2495752Y13160856D01*
X2636598Y13119501D01*
X2636600Y13119500D01*
X2636601Y13119500D01*
X2783400Y13119500D01*
X2783400Y13119501D01*
X2924247Y13160856D01*
X2924248Y13160856D01*
X2924250Y13160857D01*
X3000742Y13210016D01*
X3067779Y13229700D01*
X3134816Y13210017D01*
X3171899Y13186185D01*
X3195751Y13170856D01*
X3336598Y13129501D01*
X3336600Y13129500D01*
X3336601Y13129500D01*
X3483400Y13129500D01*
X3483400Y13129501D01*
X3592700Y13161594D01*
X3624247Y13170856D01*
X3624247Y13170857D01*
X3624250Y13170857D01*
X3747744Y13250222D01*
X3843877Y13361164D01*
X3904859Y13494696D01*
X3925750Y13640000D01*
X3904859Y13785304D01*
X3904858Y13785305D01*
X3904858Y13785308D01*
X3843878Y13918833D01*
X3843877Y13918836D01*
X3758975Y14016817D01*
X3747745Y14029777D01*
X3747741Y14029780D01*
X3700741Y14059985D01*
X3624250Y14109143D01*
X3624249Y14109144D01*
X3624248Y14109144D01*
X3624247Y14109145D01*
X3483401Y14150500D01*
X3483399Y14150500D01*
X3336601Y14150500D01*
X3336598Y14150500D01*
X3195752Y14109145D01*
X3119258Y14059985D01*
X3052218Y14040301D01*
X2985179Y14059986D01*
X2924248Y14099145D01*
X2783401Y14140500D01*
X2783399Y14140500D01*
X2658623Y14140500D01*
X2591584Y14160185D01*
X2545829Y14212989D01*
X2535885Y14282147D01*
X2536150Y14283898D01*
X2540775Y14313102D01*
X2542950Y14326831D01*
X2542950Y14553169D01*
X5382050Y14553169D01*
X5382050Y14326831D01*
X5393836Y14252420D01*
X5417458Y14103278D01*
X5417458Y14103275D01*
X5487398Y13888022D01*
X5487400Y13888019D01*
X5590155Y13686350D01*
X5723193Y13503239D01*
X5883239Y13343193D01*
X6066350Y13210155D01*
X6268019Y13107400D01*
X6268021Y13107399D01*
X6468801Y13042163D01*
X6483279Y13037458D01*
X6706831Y13002050D01*
X6706832Y13002050D01*
X6933168Y13002050D01*
X6933169Y13002050D01*
X7156721Y13037458D01*
X7156724Y13037459D01*
X7156725Y13037459D01*
X7371978Y13107399D01*
X7371978Y13107400D01*
X7371981Y13107400D01*
X7573650Y13210155D01*
X7756761Y13343193D01*
X7916807Y13503239D01*
X8049845Y13686350D01*
X8152600Y13888019D01*
X8182044Y13978639D01*
X8222541Y14103275D01*
X8222541Y14103276D01*
X8222542Y14103279D01*
X8257950Y14326831D01*
X8257950Y14553169D01*
X8240422Y14663835D01*
X14422926Y14663835D01*
X14422926Y14663834D01*
X15220049Y14705610D01*
X15199226Y14669542D01*
X15165472Y14543570D01*
X15165472Y14413156D01*
X15199226Y14287184D01*
X15245935Y14206280D01*
X14451462Y14164644D01*
X14451462Y14164643D01*
X14482331Y14049442D01*
X14574714Y13851327D01*
X14574716Y13851323D01*
X14700097Y13672260D01*
X14854668Y13517689D01*
X15033731Y13392308D01*
X15033735Y13392306D01*
X15231852Y13299923D01*
X15231861Y13299919D01*
X15443010Y13243342D01*
X15475301Y13240518D01*
X15433525Y14037641D01*
X15469593Y14016817D01*
X15595565Y13983063D01*
X15725979Y13983063D01*
X15851951Y14016817D01*
X15932855Y14063528D01*
X15974491Y13269054D01*
X16089682Y13299919D01*
X16089691Y13299923D01*
X16287808Y13392306D01*
X16287812Y13392308D01*
X16466875Y13517689D01*
X16621446Y13672260D01*
X16746827Y13851323D01*
X16746829Y13851327D01*
X16839212Y14049444D01*
X16839216Y14049453D01*
X16895793Y14260601D01*
X16895793Y14260602D01*
X16898617Y14292892D01*
X16898616Y14292894D01*
X16101495Y14251119D01*
X16122318Y14287184D01*
X16156072Y14413156D01*
X16156072Y14543570D01*
X16122318Y14669542D01*
X16075606Y14750449D01*
X16870081Y14792084D01*
X16839215Y14907277D01*
X16839212Y14907283D01*
X16746829Y15105400D01*
X16746827Y15105404D01*
X16621446Y15284467D01*
X16466875Y15439038D01*
X16287812Y15564419D01*
X16287808Y15564421D01*
X16089691Y15656804D01*
X16089685Y15656807D01*
X15878542Y15713383D01*
X15878535Y15713384D01*
X15846241Y15716210D01*
X15888016Y14919087D01*
X15851951Y14939909D01*
X15725979Y14973663D01*
X15595565Y14973663D01*
X15469593Y14939909D01*
X15388686Y14893198D01*
X15347051Y15687673D01*
X15347050Y15687674D01*
X15231857Y15656807D01*
X15231854Y15656806D01*
X15033735Y15564421D01*
X15033731Y15564419D01*
X14854668Y15439038D01*
X14700097Y15284467D01*
X14574716Y15105404D01*
X14574714Y15105400D01*
X14482331Y14907283D01*
X14482328Y14907277D01*
X14425752Y14696134D01*
X14425751Y14696127D01*
X14422926Y14663835D01*
X8240422Y14663835D01*
X8222542Y14776721D01*
X8222541Y14776725D01*
X8222541Y14776726D01*
X8152601Y14991979D01*
X8152599Y14991982D01*
X8132802Y15030837D01*
X8049845Y15193650D01*
X7916807Y15376761D01*
X7756761Y15536807D01*
X7573650Y15669845D01*
X7371981Y15772600D01*
X7371978Y15772602D01*
X7156723Y15842542D01*
X7007686Y15866148D01*
X6933169Y15877950D01*
X6706831Y15877950D01*
X6632313Y15866148D01*
X6483277Y15842542D01*
X6483274Y15842542D01*
X6268021Y15772602D01*
X6268018Y15772600D01*
X6066349Y15669845D01*
X5961878Y15593942D01*
X5883239Y15536807D01*
X5883237Y15536805D01*
X5883236Y15536805D01*
X5723195Y15376764D01*
X5723195Y15376763D01*
X5723193Y15376761D01*
X5679991Y15317298D01*
X5590155Y15193651D01*
X5487400Y14991982D01*
X5487398Y14991979D01*
X5417458Y14776726D01*
X5417458Y14776723D01*
X5390611Y14607218D01*
X5382050Y14553169D01*
X2542950Y14553169D01*
X2507542Y14776721D01*
X2507541Y14776725D01*
X2507541Y14776726D01*
X2437601Y14991979D01*
X2437599Y14991982D01*
X2417802Y15030837D01*
X2334845Y15193650D01*
X2201807Y15376761D01*
X2041761Y15536807D01*
X1858650Y15669845D01*
X1656981Y15772600D01*
X1656978Y15772602D01*
X1441723Y15842542D01*
X1292686Y15866148D01*
X1218169Y15877950D01*
X991831Y15877950D01*
X917313Y15866148D01*
X768277Y15842542D01*
X768274Y15842542D01*
X553021Y15772602D01*
X553018Y15772600D01*
X351349Y15669845D01*
X246878Y15593942D01*
X168239Y15536807D01*
X168237Y15536805D01*
X168236Y15536805D01*
X8195Y15376764D01*
X8195Y15376763D01*
X8193Y15376761D01*
X-35009Y15317298D01*
X-124845Y15193651D01*
X-227600Y14991982D01*
X-227602Y14991979D01*
X-297542Y14776726D01*
X-297542Y14776723D01*
X-324389Y14607218D01*
X-332950Y14553169D01*
X-3341245Y14553169D01*
X-3405622Y14602568D01*
X-3405628Y14602572D01*
X-3405632Y14602575D01*
X-3601648Y14715747D01*
X-3810759Y14802366D01*
X-3810766Y14802369D01*
X-4029377Y14860948D01*
X-4029391Y14860951D01*
X-4253791Y14890499D01*
X-4283725Y14890499D01*
X-4283755Y14890500D01*
X-4288137Y14890500D01*
X-4366961Y14890500D01*
X-4451097Y14890502D01*
X-4451098Y14890502D01*
X-4457862Y14890502D01*
X-4457898Y14890500D01*
X-7548847Y14890500D01*
X-7596555Y14881010D01*
X-7666147Y14887237D01*
X-7696228Y14904248D01*
X-7804469Y14987302D01*
X-7895770Y15040013D01*
X-7987066Y15092722D01*
X-7987070Y15092724D01*
X-8181869Y15173409D01*
X-8385522Y15227977D01*
X-8385536Y15227980D01*
X-8594566Y15255499D01*
X-8594571Y15255500D01*
X-8594576Y15255500D01*
X-8643982Y15255500D01*
X-11734181Y15255500D01*
X-11742090Y15255500D01*
X-11742305Y15255487D01*
X-11766451Y15255487D01*
X-11766452Y15255487D01*
X-11766456Y15255487D01*
X-11849068Y15244615D01*
X-11941564Y15232441D01*
X-12112168Y15186733D01*
X-12275353Y15119143D01*
X-12387318Y15054501D01*
X-12428306Y15030837D01*
X-12428309Y15030835D01*
X-12428312Y15030833D01*
X-12568426Y14923321D01*
X-12568429Y14923318D01*
X-12591262Y14900486D01*
X-12591263Y14900486D01*
X-12591263Y14900485D01*
X-12689379Y14802369D01*
X-12699919Y14791829D01*
X-12752665Y14760534D01*
X-12868167Y14726620D01*
X-12868170Y14726619D01*
X-12981799Y14653593D01*
X-13016741Y14638135D01*
X-13040616Y14631737D01*
X-13132094Y14607223D01*
X-13132106Y14607218D01*
X-13311859Y14532758D01*
X-13311871Y14532752D01*
X-13480372Y14435463D01*
X-13480385Y14435455D01*
X-13634743Y14317007D01*
X-13634753Y14316998D01*
X-13671607Y14280142D01*
X-13671608Y14280141D01*
X-13875682Y14076068D01*
X-13875754Y14075987D01*
X-13933119Y14018620D01*
X-14116586Y13795065D01*
X-14116596Y13795051D01*
X-14277262Y13554599D01*
X-14277268Y13554589D01*
X-14413598Y13299536D01*
X-14524275Y13032339D01*
X-14608223Y12755605D01*
X-14608228Y12755584D01*
X-14664648Y12471952D01*
X-14664650Y12471940D01*
X-14693000Y12184122D01*
X-14693000Y12039521D01*
X-14693001Y11968356D01*
X-14693000Y11968343D01*
X-14693000Y8664153D01*
X-14704206Y8612641D01*
X-14762359Y8485308D01*
X-14762360Y8485303D01*
X-14783250Y8340000D01*
X-18971523Y8340000D01*
X-18862256Y8410222D01*
X-18766123Y8521164D01*
X-18712243Y8639145D01*
X-18705142Y8654693D01*
X-18705141Y8654698D01*
X-18684250Y8800000D01*
X-18705141Y8945304D01*
X-18705142Y8945305D01*
X-18705142Y8945308D01*
X-18753486Y9051164D01*
X-18766123Y9078836D01*
X-18862256Y9189778D01*
X-18985750Y9269143D01*
X-18985751Y9269144D01*
X-18985752Y9269144D01*
X-18985753Y9269145D01*
X-19126599Y9310500D01*
X-19126601Y9310500D01*
X-19273399Y9310500D01*
X-19273402Y9310500D01*
X-19414248Y9269145D01*
X-19414249Y9269144D01*
X-19537742Y9189780D01*
X-19537746Y9189777D01*
X-19633876Y9078838D01*
X-19633879Y9078833D01*
X-19694859Y8945308D01*
X-19694860Y8945303D01*
X-19715750Y8800000D01*
X-22326573Y8800000D01*
X-22198897Y9130061D01*
X-22197443Y9133651D01*
X-22193411Y9143174D01*
X-22000000Y9600000D01*
X-22000000Y13820000D01*
X-19965750Y13820000D01*
X-19944860Y13674698D01*
X-19944859Y13674693D01*
X-19890008Y13554589D01*
X-19883877Y13541164D01*
X-19862612Y13516623D01*
X-19843270Y13494301D01*
X-19787744Y13430222D01*
X-19664250Y13350857D01*
X-19664249Y13350857D01*
X-19664248Y13350856D01*
X-19523402Y13309501D01*
X-19523400Y13309500D01*
X-19523399Y13309500D01*
X-19376600Y13309500D01*
X-19376600Y13309501D01*
X-19267300Y13341594D01*
X-19235753Y13350856D01*
X-19235753Y13350857D01*
X-19235750Y13350857D01*
X-19112256Y13430222D01*
X-19016123Y13541164D01*
X-18968452Y13645549D01*
X-18955142Y13674693D01*
X-18955141Y13674698D01*
X-18934250Y13820000D01*
X-18955141Y13965304D01*
X-18955142Y13965305D01*
X-18955142Y13965308D01*
X-19016122Y14098833D01*
X-19016123Y14098836D01*
X-19112256Y14209778D01*
X-19235750Y14289143D01*
X-19235751Y14289144D01*
X-19235752Y14289144D01*
X-19235753Y14289145D01*
X-19376599Y14330500D01*
X-19376601Y14330500D01*
X-19523399Y14330500D01*
X-19523402Y14330500D01*
X-19664248Y14289145D01*
X-19664249Y14289144D01*
X-19787742Y14209780D01*
X-19787746Y14209777D01*
X-19883876Y14098838D01*
X-19883879Y14098833D01*
X-19944859Y13965308D01*
X-19944860Y13965303D01*
X-19965750Y13820000D01*
X-22000000Y13820000D01*
X-22000000Y16546000D01*
X-21980315Y16613039D01*
X-21927511Y16658794D01*
X-21876000Y16670000D01*
X1755000Y16670000D01*
X1755000Y16762561D01*
X1774685Y16829600D01*
X1827489Y16875355D01*
X1878920Y16886561D01*
X6441923Y16889304D01*
X6508972Y16869661D01*
X6540948Y16840033D01*
X6564190Y16809257D01*
X6564190Y16809256D01*
X6728840Y16659158D01*
X6728842Y16659156D01*
X6918266Y16541870D01*
X6918267Y16541870D01*
X6918270Y16541868D01*
X7126025Y16461383D01*
X7345032Y16420443D01*
X7345034Y16420443D01*
X7567830Y16420443D01*
X7567832Y16420443D01*
X7786839Y16461383D01*
X7994594Y16541868D01*
X8184023Y16659157D01*
X8322127Y16785057D01*
X8384930Y16815673D01*
X8454318Y16807476D01*
X8508258Y16763066D01*
X8529626Y16696544D01*
X8529136Y16681978D01*
X8510287Y16478559D01*
X8510287Y16478557D01*
X8530843Y16256708D01*
X8591816Y16042415D01*
X8591823Y16042397D01*
X8691125Y15842971D01*
X8825396Y15665169D01*
X8990045Y15515072D01*
X8990047Y15515070D01*
X9179471Y15397784D01*
X9179472Y15397784D01*
X9179475Y15397782D01*
X9387230Y15317297D01*
X9606237Y15276357D01*
X9606239Y15276357D01*
X9829035Y15276357D01*
X9829037Y15276357D01*
X10048044Y15317297D01*
X10255799Y15397782D01*
X10445228Y15515071D01*
X10609879Y15665171D01*
X10744147Y15842969D01*
X10843457Y16042412D01*
X10904430Y16256707D01*
X10924987Y16478557D01*
X10904430Y16700407D01*
X10894838Y16734119D01*
X10895424Y16803986D01*
X10933691Y16862445D01*
X10997488Y16890936D01*
X11014017Y16892054D01*
X11389917Y16892280D01*
X11456967Y16872636D01*
X11485842Y16846946D01*
X11536634Y16785056D01*
X11570706Y16743539D01*
X11730557Y16612352D01*
X11730560Y16612350D01*
X11912927Y16514873D01*
X11912930Y16514873D01*
X11912934Y16514870D01*
X12110822Y16454841D01*
X12316619Y16434572D01*
X12522416Y16454841D01*
X12720304Y16514870D01*
X12778545Y16546000D01*
X12902677Y16612350D01*
X12902680Y16612352D01*
X12903517Y16613039D01*
X13062532Y16743539D01*
X13148311Y16848062D01*
X13206053Y16887394D01*
X13244081Y16893395D01*
X16990722Y16895648D01*
X17057772Y16876004D01*
G37*
%TD.AperFunction*%
%TD*%
M02*
