%TF.GenerationSoftware,KiCad,Pcbnew,8.0.7*%
%TF.CreationDate,2025-01-14T11:40:34+01:00*%
%TF.ProjectId,test,74657374-2e6b-4696-9361-645f70636258,rev?*%
%TF.SameCoordinates,PX517370cPY341b1c8*%
%TF.FileFunction,Copper,L1,Top*%
%TF.FilePolarity,Positive*%
%FSLAX46Y46*%
G04 Gerber Fmt 4.6, Leading zero omitted, Abs format (unit mm)*
G04 Created by KiCad (PCBNEW 8.0.7) date 2025-01-14 11:40:34*
%MOMM*%
%LPD*%
G01*
G04 APERTURE LIST*
G04 Aperture macros list*
%AMRoundRect*
0 Rectangle with rounded corners*
0 $1 Rounding radius*
0 $2 $3 $4 $5 $6 $7 $8 $9 X,Y pos of 4 corners*
0 Add a 4 corners polygon primitive as box body*
4,1,4,$2,$3,$4,$5,$6,$7,$8,$9,$2,$3,0*
0 Add four circle primitives for the rounded corners*
1,1,$1+$1,$2,$3*
1,1,$1+$1,$4,$5*
1,1,$1+$1,$6,$7*
1,1,$1+$1,$8,$9*
0 Add four rect primitives between the rounded corners*
20,1,$1+$1,$2,$3,$4,$5,0*
20,1,$1+$1,$4,$5,$6,$7,0*
20,1,$1+$1,$6,$7,$8,$9,0*
20,1,$1+$1,$8,$9,$2,$3,0*%
%AMRotRect*
0 Rectangle, with rotation*
0 The origin of the aperture is its center*
0 $1 length*
0 $2 width*
0 $3 Rotation angle, in degrees counterclockwise*
0 Add horizontal line*
21,1,$1,$2,0,0,$3*%
%AMFreePoly0*
4,1,19,0.550000,-0.750000,0.000000,-0.750000,0.000000,-0.744911,-0.071157,-0.744911,-0.207708,-0.704816,-0.327430,-0.627875,-0.420627,-0.520320,-0.479746,-0.390866,-0.500000,-0.250000,-0.500000,0.250000,-0.479746,0.390866,-0.420627,0.520320,-0.327430,0.627875,-0.207708,0.704816,-0.071157,0.744911,0.000000,0.744911,0.000000,0.750000,0.550000,0.750000,0.550000,-0.750000,0.550000,-0.750000,
$1*%
%AMFreePoly1*
4,1,19,0.000000,0.744911,0.071157,0.744911,0.207708,0.704816,0.327430,0.627875,0.420627,0.520320,0.479746,0.390866,0.500000,0.250000,0.500000,-0.250000,0.479746,-0.390866,0.420627,-0.520320,0.327430,-0.627875,0.207708,-0.704816,0.071157,-0.744911,0.000000,-0.744911,0.000000,-0.750000,-0.550000,-0.750000,-0.550000,0.750000,0.000000,0.750000,0.000000,0.744911,0.000000,0.744911,
$1*%
%AMFreePoly2*
4,1,53,0.180798,1.454629,0.352531,1.394537,0.506585,1.297738,0.635238,1.169085,0.732037,1.015031,0.792129,0.843298,0.812500,0.662500,0.792129,0.481702,0.732037,0.309969,0.635238,0.155915,0.506585,0.027262,0.352531,-0.069537,0.180798,-0.129629,0.000000,-0.150000,-0.180798,-0.129629,-0.352531,-0.069537,-0.506585,0.027262,-0.635238,0.155915,-0.732037,0.309969,-0.792129,0.481702,
-0.812500,0.662500,-0.517770,0.662500,-0.496797,0.516627,-0.435576,0.382572,-0.339067,0.271196,-0.215089,0.191520,-0.073686,0.150000,0.073686,0.150000,0.215089,0.191520,0.339067,0.271196,0.435576,0.382572,0.496797,0.516627,0.517770,0.662500,0.496797,0.808373,0.435576,0.942428,0.339067,1.053804,0.215089,1.133480,0.073686,1.175000,-0.073686,1.175000,-0.215089,1.133480,
-0.339067,1.053804,-0.435576,0.942428,-0.496797,0.808373,-0.517770,0.662500,-0.812500,0.662500,-0.792129,0.843298,-0.732037,1.015031,-0.635238,1.169085,-0.506585,1.297738,-0.352531,1.394537,-0.180798,1.454629,0.000000,1.475000,0.180798,1.454629,0.180798,1.454629,$1*%
%AMFreePoly3*
4,1,6,1.000000,0.000000,0.500000,-0.750000,-0.500000,-0.750000,-0.500000,0.750000,0.500000,0.750000,1.000000,0.000000,1.000000,0.000000,$1*%
%AMFreePoly4*
4,1,6,0.500000,-0.750000,-0.650000,-0.750000,-0.150000,0.000000,-0.650000,0.750000,0.500000,0.750000,0.500000,-0.750000,0.500000,-0.750000,$1*%
G04 Aperture macros list end*
%TA.AperFunction,Conductor*%
%ADD10C,0.250000*%
%TD*%
%TA.AperFunction,SMDPad,CuDef*%
%ADD11FreePoly0,270.000000*%
%TD*%
%TA.AperFunction,SMDPad,CuDef*%
%ADD12R,1.500000X1.000000*%
%TD*%
%TA.AperFunction,SMDPad,CuDef*%
%ADD13FreePoly1,270.000000*%
%TD*%
%TA.AperFunction,SMDPad,CuDef*%
%ADD14R,0.900000X1.500000*%
%TD*%
%TA.AperFunction,SMDPad,CuDef*%
%ADD15RoundRect,0.237500X0.237500X-0.300000X0.237500X0.300000X-0.237500X0.300000X-0.237500X-0.300000X0*%
%TD*%
%TA.AperFunction,SMDPad,CuDef*%
%ADD16RoundRect,0.140000X-0.140000X-0.170000X0.140000X-0.170000X0.140000X0.170000X-0.140000X0.170000X0*%
%TD*%
%TA.AperFunction,SMDPad,CuDef*%
%ADD17RotRect,1.400000X1.000000X330.000000*%
%TD*%
%TA.AperFunction,SMDPad,CuDef*%
%ADD18RoundRect,0.200000X0.275000X-0.200000X0.275000X0.200000X-0.275000X0.200000X-0.275000X-0.200000X0*%
%TD*%
%TA.AperFunction,SMDPad,CuDef*%
%ADD19RoundRect,0.237500X-0.250000X-0.237500X0.250000X-0.237500X0.250000X0.237500X-0.250000X0.237500X0*%
%TD*%
%TA.AperFunction,SMDPad,CuDef*%
%ADD20R,1.300000X1.550000*%
%TD*%
%TA.AperFunction,SMDPad,CuDef*%
%ADD21RoundRect,0.237500X0.300000X0.237500X-0.300000X0.237500X-0.300000X-0.237500X0.300000X-0.237500X0*%
%TD*%
%TA.AperFunction,SMDPad,CuDef*%
%ADD22RoundRect,0.225000X-0.250000X0.225000X-0.250000X-0.225000X0.250000X-0.225000X0.250000X0.225000X0*%
%TD*%
%TA.AperFunction,SMDPad,CuDef*%
%ADD23R,0.522000X0.600000*%
%TD*%
%TA.AperFunction,SMDPad,CuDef*%
%ADD24FreePoly2,0.000000*%
%TD*%
%TA.AperFunction,SMDPad,CuDef*%
%ADD25RoundRect,0.237500X0.237500X-0.250000X0.237500X0.250000X-0.237500X0.250000X-0.237500X-0.250000X0*%
%TD*%
%TA.AperFunction,SMDPad,CuDef*%
%ADD26RoundRect,0.237500X-0.237500X0.300000X-0.237500X-0.300000X0.237500X-0.300000X0.237500X0.300000X0*%
%TD*%
%TA.AperFunction,ComponentPad*%
%ADD27C,1.803400*%
%TD*%
%TA.AperFunction,ComponentPad*%
%ADD28C,1.498600*%
%TD*%
%TA.AperFunction,SMDPad,CuDef*%
%ADD29R,1.300000X0.300000*%
%TD*%
%TA.AperFunction,SMDPad,CuDef*%
%ADD30R,1.600000X2.000000*%
%TD*%
%TA.AperFunction,SMDPad,CuDef*%
%ADD31RoundRect,0.140000X0.140000X0.170000X-0.140000X0.170000X-0.140000X-0.170000X0.140000X-0.170000X0*%
%TD*%
%TA.AperFunction,SMDPad,CuDef*%
%ADD32RoundRect,0.225000X0.225000X0.250000X-0.225000X0.250000X-0.225000X-0.250000X0.225000X-0.250000X0*%
%TD*%
%TA.AperFunction,SMDPad,CuDef*%
%ADD33RoundRect,0.250000X0.625000X-0.312500X0.625000X0.312500X-0.625000X0.312500X-0.625000X-0.312500X0*%
%TD*%
%TA.AperFunction,SMDPad,CuDef*%
%ADD34RoundRect,0.225000X-0.225000X-0.250000X0.225000X-0.250000X0.225000X0.250000X-0.225000X0.250000X0*%
%TD*%
%TA.AperFunction,SMDPad,CuDef*%
%ADD35RoundRect,0.040000X-0.360000X0.410000X-0.360000X-0.410000X0.360000X-0.410000X0.360000X0.410000X0*%
%TD*%
%TA.AperFunction,SMDPad,CuDef*%
%ADD36RoundRect,0.140000X-0.170000X0.140000X-0.170000X-0.140000X0.170000X-0.140000X0.170000X0.140000X0*%
%TD*%
%TA.AperFunction,SMDPad,CuDef*%
%ADD37FreePoly3,180.000000*%
%TD*%
%TA.AperFunction,SMDPad,CuDef*%
%ADD38FreePoly4,180.000000*%
%TD*%
%TA.AperFunction,SMDPad,CuDef*%
%ADD39RoundRect,0.237500X-0.237500X0.250000X-0.237500X-0.250000X0.237500X-0.250000X0.237500X0.250000X0*%
%TD*%
%TA.AperFunction,ComponentPad*%
%ADD40O,1.000000X2.100000*%
%TD*%
%TA.AperFunction,ComponentPad*%
%ADD41O,1.000000X1.600000*%
%TD*%
%TA.AperFunction,SMDPad,CuDef*%
%ADD42R,0.600000X1.450000*%
%TD*%
%TA.AperFunction,SMDPad,CuDef*%
%ADD43R,0.300000X1.450000*%
%TD*%
%TA.AperFunction,SMDPad,CuDef*%
%ADD44RoundRect,0.237500X0.250000X0.237500X-0.250000X0.237500X-0.250000X-0.237500X0.250000X-0.237500X0*%
%TD*%
%TA.AperFunction,SMDPad,CuDef*%
%ADD45RoundRect,0.100000X-0.900000X0.900000X-0.900000X-0.900000X0.900000X-0.900000X0.900000X0.900000X0*%
%TD*%
%TA.AperFunction,HeatsinkPad*%
%ADD46C,0.600000*%
%TD*%
%TA.AperFunction,ViaPad*%
%ADD47C,0.420000*%
%TD*%
%TA.AperFunction,Conductor*%
%ADD48C,0.160000*%
%TD*%
%TA.AperFunction,Conductor*%
%ADD49C,0.400000*%
%TD*%
%TA.AperFunction,Conductor*%
%ADD50C,0.500000*%
%TD*%
%TA.AperFunction,Conductor*%
%ADD51C,0.200000*%
%TD*%
%TA.AperFunction,Conductor*%
%ADD52C,1.000000*%
%TD*%
G04 APERTURE END LIST*
D10*
%TO.N,PMIC_PWRON*%
X-4610170Y-22910845D02*
G75*
G02*
X-14070000Y-18660000I4610170J22910845D01*
G01*
X-13017744Y-14518637D02*
G75*
G02*
X-19499999Y-50000I13017744J14518637D01*
G01*
X-14130000Y-17920000D02*
X-12710000Y-15600000D01*
%TD*%
D11*
%TO.P,JP1,1,A*%
%TO.N,CAM_CLKINTRNL*%
X9940000Y4560000D03*
D12*
%TO.P,JP1,2,C*%
%TO.N,Net-(JP1-C)*%
X9940000Y3260000D03*
D13*
%TO.P,JP1,3,B*%
%TO.N,CAM_MCLK*%
X9940000Y1960000D03*
%TD*%
D14*
%TO.P,D4,1,VDD*%
%TO.N,VSYS*%
X-8215000Y-2440000D03*
%TO.P,D4,2,DOUT*%
%TO.N,unconnected-(D4-DOUT-Pad2)*%
X-4915000Y-2440000D03*
%TO.P,D4,3,VSS*%
%TO.N,GND*%
X-4915000Y2460000D03*
%TO.P,D4,4,DIN*%
%TO.N,LEDCNTRL*%
X-8215000Y2460000D03*
%TD*%
D15*
%TO.P,C2,1*%
%TO.N,+3V3*%
X-6680000Y14097500D03*
%TO.P,C2,2*%
%TO.N,GND*%
X-6680000Y15822500D03*
%TD*%
D16*
%TO.P,C30,1*%
%TO.N,SW_L1*%
X1230000Y-7170000D03*
%TO.P,C30,2*%
%TO.N,GND*%
X2190000Y-7170000D03*
%TD*%
D17*
%TO.P,SW4,*%
%TO.N,*%
X-11789872Y-16217547D03*
X-12639871Y-17689790D03*
%TO.P,SW4,1,1*%
%TO.N,GND*%
X-6940128Y-19017547D03*
%TO.P,SW4,2,2*%
%TO.N,Net-(JP2-A)*%
X-7790129Y-20489791D03*
%TD*%
D18*
%TO.P,R1,1*%
%TO.N,+3V3*%
X-5130000Y10725000D03*
%TO.P,R1,2*%
%TO.N,EN*%
X-5130000Y12375000D03*
%TD*%
D19*
%TO.P,R2,1*%
%TO.N,GND*%
X-7392500Y-7750000D03*
%TO.P,R2,2*%
%TO.N,Net-(MK2-LR)*%
X-5567500Y-7750000D03*
%TD*%
D20*
%TO.P,SW5,*%
%TO.N,*%
X-2250000Y3975000D03*
%TO.P,SW5,1,1*%
%TO.N,GND*%
X2250000Y3975000D03*
X2250000Y-3975000D03*
%TO.P,SW5,2,2*%
%TO.N,SW_L1*%
X-2250000Y-3975000D03*
%TD*%
D21*
%TO.P,C21,1*%
%TO.N,GND*%
X17240000Y-8680000D03*
%TO.P,C21,2*%
%TO.N,VSYS*%
X15515000Y-8680000D03*
%TD*%
D22*
%TO.P,C1,1*%
%TO.N,EN*%
X-6700000Y12325000D03*
%TO.P,C1,2*%
%TO.N,GND*%
X-6700000Y10775000D03*
%TD*%
D23*
%TO.P,MK2,1,WS*%
%TO.N,WS_MIC*%
X-5478000Y-9330000D03*
%TO.P,MK2,2,LR*%
%TO.N,Net-(MK2-LR)*%
X-6300000Y-9330000D03*
D24*
%TO.P,MK2,3,GND*%
%TO.N,GND*%
X-7552000Y-10892500D03*
D23*
%TO.P,MK2,4,SCK*%
%TO.N,BCLK_MIC*%
X-6300000Y-11130000D03*
%TO.P,MK2,5,VDD*%
%TO.N,+3V3*%
X-5478000Y-11130000D03*
%TO.P,MK2,6,SD*%
%TO.N,Net-(MK2-SD)*%
X-5478000Y-10230000D03*
%TD*%
D21*
%TO.P,C4,1*%
%TO.N,+3V3*%
X-5637500Y-12690000D03*
%TO.P,C4,2*%
%TO.N,GND*%
X-7362500Y-12690000D03*
%TD*%
D25*
%TO.P,R12,1*%
%TO.N,+3V3*%
X-11780000Y14257500D03*
%TO.P,R12,2*%
%TO.N,SW_L3*%
X-11780000Y16082500D03*
%TD*%
D16*
%TO.P,C29,1*%
%TO.N,+3V3CAM*%
X9110000Y6080000D03*
%TO.P,C29,2*%
%TO.N,GND*%
X10070000Y6080000D03*
%TD*%
D26*
%TO.P,C26,1*%
%TO.N,GND*%
X-11670000Y-455000D03*
%TO.P,C26,2*%
%TO.N,VSYS*%
X-11670000Y-2180000D03*
%TD*%
D27*
%TO.P,SW2,*%
%TO.N,*%
X14927083Y11787951D03*
X9717637Y16478557D03*
D28*
%TO.P,SW2,1,1*%
%TO.N,GND*%
X15660772Y14478363D03*
%TO.P,SW2,2,2*%
%TO.N,SW_L2*%
X12316619Y17489452D03*
%TD*%
D29*
%TO.P,U3,1,NC*%
%TO.N,unconnected-(U3-NC-Pad1)*%
X15330000Y-4280000D03*
%TO.P,U3,2,AGND*%
%TO.N,GND*%
X15330000Y-3780000D03*
%TO.P,U3,3,SDA*%
%TO.N,CAM_SDA*%
X15330000Y-3280000D03*
%TO.P,U3,4,AVDD*%
%TO.N,+2V8*%
X15330000Y-2780000D03*
%TO.P,U3,5,SCL*%
%TO.N,CAM_SCL*%
X15330000Y-2280000D03*
%TO.P,U3,6,RESET*%
%TO.N,CAM_RESET*%
X15330000Y-1780000D03*
%TO.P,U3,7,VSYNC*%
%TO.N,CAM_VSYNC*%
X15330000Y-1280000D03*
%TO.P,U3,8,PWDN*%
%TO.N,CAM_PWDN*%
X15330000Y-780000D03*
%TO.P,U3,9,HREF*%
%TO.N,CAM_HREF*%
X15330000Y-280000D03*
%TO.P,U3,10,DVDD*%
%TO.N,+1V5*%
X15330000Y220000D03*
%TO.P,U3,11,DOVDD*%
%TO.N,+3V3CAM*%
X15330000Y720000D03*
%TO.P,U3,12,Y9*%
%TO.N,CAM_Y9*%
X15330000Y1220000D03*
%TO.P,U3,13,MCLK*%
%TO.N,Net-(JP1-C)*%
X15330000Y1720000D03*
%TO.P,U3,14,Y8*%
%TO.N,CAM_Y8*%
X15330000Y2220000D03*
%TO.P,U3,15,DGND*%
%TO.N,GND*%
X15330000Y2720000D03*
%TO.P,U3,16,Y7*%
%TO.N,CAM_Y7*%
X15330000Y3220000D03*
%TO.P,U3,17,PCLK*%
%TO.N,CAM_PCLK*%
X15330000Y3720000D03*
%TO.P,U3,18,Y6*%
%TO.N,CAM_Y6*%
X15330000Y4220000D03*
%TO.P,U3,19,Y2*%
%TO.N,CAM_Y2*%
X15330000Y4720000D03*
%TO.P,U3,20,Y5*%
%TO.N,CAM_Y5*%
X15330000Y5220000D03*
%TO.P,U3,21,Y3*%
%TO.N,CAM_Y3*%
X15330000Y5720000D03*
%TO.P,U3,22,Y4*%
%TO.N,CAM_Y4*%
X15330000Y6220000D03*
%TO.P,U3,23,NC*%
%TO.N,unconnected-(U3-NC-Pad23)*%
X15330000Y6720000D03*
%TO.P,U3,24,NC*%
%TO.N,unconnected-(U3-NC-Pad24)*%
X15330000Y7220000D03*
D30*
%TO.P,U3,MP*%
%TO.N,N/C*%
X18010000Y-6130000D03*
X18010000Y9070000D03*
%TD*%
D31*
%TO.P,C33,1*%
%TO.N,CAM_CLKINTRNL*%
X8120000Y3538000D03*
%TO.P,C33,2*%
%TO.N,GND*%
X7160000Y3538000D03*
%TD*%
D32*
%TO.P,C23,1*%
%TO.N,GND*%
X10855000Y7440000D03*
%TO.P,C23,2*%
%TO.N,+3V3CAM*%
X9305000Y7440000D03*
%TD*%
D19*
%TO.P,R10,1*%
%TO.N,PMIC_IRQ*%
X-16092500Y6530000D03*
%TO.P,R10,2*%
%TO.N,+3V3*%
X-14267500Y6530000D03*
%TD*%
D25*
%TO.P,R3,1*%
%TO.N,Net-(MK2-SD)*%
X-3949500Y-9552500D03*
%TO.P,R3,2*%
%TO.N,GND*%
X-3949500Y-7727500D03*
%TD*%
D26*
%TO.P,C25,1*%
%TO.N,GND*%
X-10120000Y-437500D03*
%TO.P,C25,2*%
%TO.N,VSYS*%
X-10120000Y-2162500D03*
%TD*%
D31*
%TO.P,C31,2*%
%TO.N,GND*%
X11870000Y1390000D03*
%TO.P,C31,1*%
%TO.N,+3V3CAM*%
X12830000Y1390000D03*
%TD*%
D33*
%TO.P,NC3,1*%
%TO.N,Net-(C13-Pad1)*%
X7257500Y-3264500D03*
%TO.P,NC3,2*%
%TO.N,CAM_RESET*%
X7257500Y-339500D03*
%TD*%
D15*
%TO.P,C3,1*%
%TO.N,+3V3*%
X-5110000Y14097500D03*
%TO.P,C3,2*%
%TO.N,GND*%
X-5110000Y15822500D03*
%TD*%
D34*
%TO.P,C24,1*%
%TO.N,GND*%
X11012500Y148000D03*
%TO.P,C24,2*%
%TO.N,+3V3CAM*%
X12562500Y148000D03*
%TD*%
D35*
%TO.P,U4,1,OE*%
%TO.N,unconnected-(U4-OE-Pad1)*%
X6420000Y6790000D03*
%TO.P,U4,2,GND*%
%TO.N,GND*%
X6420000Y4940000D03*
%TO.P,U4,3,OUT*%
%TO.N,CAM_CLKINTRNL*%
X7870000Y4940000D03*
%TO.P,U4,4,VDD*%
%TO.N,+3V3CAM*%
X7870000Y6790000D03*
%TD*%
D36*
%TO.P,C13,1*%
%TO.N,Net-(C13-Pad1)*%
X10740000Y-1190000D03*
%TO.P,C13,2*%
%TO.N,GND*%
X10740000Y-2150000D03*
%TD*%
D37*
%TO.P,JP3,1,A*%
%TO.N,Net-(JP3-A)*%
X-17670000Y-100000D03*
D38*
%TO.P,JP3,2,B*%
%TO.N,PMIC_PWRON*%
X-19120000Y-100000D03*
%TD*%
D39*
%TO.P,R4,1*%
%TO.N,I2SDAT_MIC*%
X-2359500Y-7707500D03*
%TO.P,R4,2*%
%TO.N,Net-(MK2-SD)*%
X-2359500Y-9532500D03*
%TD*%
D40*
%TO.P,P1,*%
%TO.N,*%
X-4320000Y-17080000D03*
D41*
X-4320000Y-21260000D03*
D40*
X4320000Y-17080000D03*
D42*
%TO.P,P1,A1,GND*%
%TO.N,GND*%
X-3250000Y-16165000D03*
%TO.P,P1,A4,VBUS*%
%TO.N,VBUS*%
X-2450000Y-16165000D03*
D43*
%TO.P,P1,A5,CC*%
%TO.N,unconnected-(P1-CC-PadA5)*%
X-1250000Y-16165000D03*
%TO.P,P1,A6,D+*%
%TO.N,unconnected-(P1-D+-PadA6)*%
X-250000Y-16165000D03*
%TO.P,P1,A7,D-*%
%TO.N,unconnected-(P1-D--PadA7)*%
X250000Y-16165000D03*
%TO.P,P1,A8*%
%TO.N,N/C*%
X1250000Y-16165000D03*
D42*
%TO.P,P1,A9,VBUS*%
%TO.N,VBUS*%
X2450000Y-16165000D03*
%TO.P,P1,A12,GND*%
%TO.N,GND*%
X3250000Y-16165000D03*
%TO.P,P1,B1,GND*%
X3250000Y-16165000D03*
%TO.P,P1,B4,VBUS*%
%TO.N,VBUS*%
X2450000Y-16165000D03*
D43*
%TO.P,P1,B5,VCONN*%
%TO.N,unconnected-(P1-VCONN-PadB5)*%
X1750000Y-16165000D03*
%TO.P,P1,B6*%
%TO.N,N/C*%
X750000Y-16165000D03*
%TO.P,P1,B7*%
X-750000Y-16165000D03*
%TO.P,P1,B8*%
X-1750000Y-16165000D03*
D42*
%TO.P,P1,B9,VBUS*%
%TO.N,VBUS*%
X-2450000Y-16165000D03*
%TO.P,P1,B12,GND*%
%TO.N,GND*%
X-3250000Y-16165000D03*
D41*
%TO.P,P1,S1,SHIELD*%
%TO.N,Net-(P1-SHIELD)*%
X4320000Y-21260000D03*
%TD*%
D36*
%TO.P,C27,1*%
%TO.N,SW_L3*%
X-13170000Y16050000D03*
%TO.P,C27,2*%
%TO.N,GND*%
X-13170000Y15090000D03*
%TD*%
D26*
%TO.P,C5,1*%
%TO.N,+3V3*%
X-3939500Y-11257500D03*
%TO.P,C5,2*%
%TO.N,GND*%
X-3939500Y-12982500D03*
%TD*%
D27*
%TO.P,SW1,*%
%TO.N,*%
X7456432Y17622643D03*
X599616Y19080103D03*
D28*
%TO.P,SW1,1,1*%
%TO.N,GND*%
X6746619Y20319452D03*
%TO.P,SW1,2,2*%
%TO.N,SW_L3*%
X2344953Y21255056D03*
%TD*%
D31*
%TO.P,C9,1*%
%TO.N,CAM_PCLK*%
X12830000Y5000000D03*
%TO.P,C9,2*%
%TO.N,GND*%
X11870000Y5000000D03*
%TD*%
D44*
%TO.P,R15,1*%
%TO.N,+3V3*%
X2965000Y-5860000D03*
%TO.P,R15,2*%
%TO.N,SW_L1*%
X1140000Y-5860000D03*
%TD*%
D45*
%TO.P,3v3J2,1,Pin_1*%
%TO.N,GND*%
X-13710000Y2516100D03*
%TO.P,3v3J2,2,Pin_2*%
%TO.N,VSYS*%
X-13710000Y-1751100D03*
%TD*%
D31*
%TO.P,C10,1*%
%TO.N,+3V3CAM*%
X12820000Y2360000D03*
%TO.P,C10,2*%
%TO.N,GND*%
X11860000Y2360000D03*
%TD*%
D25*
%TO.P,R7,1*%
%TO.N,Net-(C13-Pad1)*%
X9250000Y-2105000D03*
%TO.P,R7,2*%
%TO.N,+3V3CAM*%
X9250000Y-280000D03*
%TD*%
D46*
%TO.P,U2,41,GND*%
%TO.N,GND*%
X-8845000Y6760000D03*
X-8845000Y8160000D03*
X-9545000Y6060000D03*
X-9545000Y7460000D03*
X-9545000Y8860000D03*
X-10245000Y6760000D03*
X-10245000Y8160000D03*
X-10945000Y6060000D03*
X-10945000Y7460000D03*
X-10945000Y8860000D03*
X-11645000Y6760000D03*
X-11645000Y8160000D03*
%TD*%
D47*
%TO.N,GND*%
X-22920000Y60000D03*
X3400000Y4450000D03*
X11370000Y9810000D03*
X-4910000Y1460000D03*
X-1670000Y15400000D03*
X-13780000Y15130000D03*
X-15740000Y14170000D03*
X14750000Y-17710000D03*
X19990000Y9870000D03*
X10710000Y-2760000D03*
X-2030000Y-19260000D03*
X-4150000Y-15260000D03*
X18600000Y-13200000D03*
X200000Y-3490000D03*
X-7550000Y10680000D03*
X-4390000Y11510000D03*
X-7420000Y15830000D03*
X5160000Y-5280000D03*
X-12890000Y-12090000D03*
X-16270000Y-5490000D03*
X1580000Y-19310000D03*
X5600000Y-22700000D03*
X6610000Y3530000D03*
X12300000Y-16140000D03*
X5690000Y-18060000D03*
X19790000Y6650000D03*
X6010000Y-8270000D03*
X-6640000Y-18180000D03*
X16170000Y2750000D03*
X-8570000Y-10900000D03*
X18321724Y-8700000D03*
X-10120000Y470000D03*
X18010000Y12340000D03*
X-4890000Y3500000D03*
X-9450000Y-14700000D03*
X5000000Y10400000D03*
X5050000Y-6780000D03*
X-3240000Y-14910000D03*
X-4060000Y-6810000D03*
X3290000Y-3970000D03*
X21320000Y-7810000D03*
X8130000Y-21850000D03*
X17450000Y1450000D03*
X16380000Y-3740000D03*
X2740000Y-7170000D03*
X4170000Y-15230000D03*
X-7400000Y-7020000D03*
X-15560000Y-10750000D03*
X18350000Y-2760000D03*
X19560000Y4560000D03*
X11481511Y1830000D03*
X20172490Y-5397500D03*
X11280000Y-19600000D03*
X-8140000Y-12690000D03*
X-4340000Y10020000D03*
X11420001Y5609999D03*
X-19100000Y15410000D03*
X10560000Y-480000D03*
X9380000Y-16080000D03*
X10799998Y6040000D03*
X6420000Y-6620000D03*
X1730000Y-21660000D03*
X-10250000Y-6610000D03*
X-11610000Y2540000D03*
X-22810000Y2600000D03*
X-22620000Y-2500000D03*
X-8170000Y-6570000D03*
X11340000Y-17500000D03*
X-21082000Y16002000D03*
X-13710000Y1230000D03*
X11660000Y7440000D03*
X17190000Y-13860000D03*
X-9980000Y11170000D03*
X9460000Y-4940000D03*
X-11670000Y470000D03*
X13400000Y-17500000D03*
X-22300000Y5380000D03*
X10840000Y-16120000D03*
X6930000Y-18580000D03*
X12390000Y12450000D03*
X-8290000Y-17960000D03*
%TO.N,EN*%
X-4145016Y12715016D03*
%TO.N,+3V3*%
X4460000Y-8380000D03*
X4540000Y9580000D03*
X-12653917Y14257476D03*
X2810000Y-8507657D03*
X9600000Y9930000D03*
X-5780000Y-14130000D03*
X13800000Y-5200000D03*
X-10040000Y-15920000D03*
X-4045538Y13910000D03*
X-6250000Y9330000D03*
X19570000Y-2799998D03*
X-14267500Y8340000D03*
X-7470000Y14090000D03*
%TO.N,VSYS*%
X-9510000Y-10180000D03*
X14710000Y-8150000D03*
X10200000Y-5200000D03*
X11600000Y-13170000D03*
X3470000Y9780000D03*
X-13600000Y-200000D03*
X-1240000Y830000D03*
%TO.N,CAM_PCLK*%
X14050000Y3720000D03*
%TO.N,+2V8*%
X16354141Y-2759998D03*
%TO.N,VBUS*%
X6840000Y-13960000D03*
X7980000Y-13960000D03*
%TO.N,SW_L3*%
X-19450000Y13820000D03*
%TO.N,SW_L1*%
X-15150000Y-70000D03*
%TO.N,Net-(D1-K)*%
X5780000Y-13230000D03*
X7390000Y-10780000D03*
%TO.N,+3V3CAM*%
X12460000Y-650000D03*
X15200000Y-11400000D03*
X13200000Y-6400000D03*
X9200000Y0D03*
X9890000Y6820000D03*
%TO.N,LEDCNTRL*%
X-9530000Y1720000D03*
%TO.N,RXD*%
X2710000Y13630000D03*
X-7980000Y13240000D03*
%TO.N,TXD*%
X3410000Y13640000D03*
X-9264693Y14114693D03*
%TO.N,GPIO0*%
X-713589Y9164400D03*
X-6340000Y7310000D03*
%TO.N,GPIO46*%
X-5810000Y1000000D03*
X2530000Y8170000D03*
%TO.N,CAM_PWDN*%
X16690000Y-740000D03*
%TO.N,CAM_RESET*%
X10000000Y700000D03*
X16130000Y-1800000D03*
X-19200000Y8800000D03*
%TO.N,PMIC_PWRON*%
X13530000Y-11210000D03*
X-2310000Y-22590000D03*
%TO.N,I2SDAT_MIC*%
X-19170000Y5250000D03*
%TO.N,CAM_SDA*%
X8990000Y-12050000D03*
%TO.N,CAM_SCL*%
X7970000Y-11400000D03*
%TO.N,PMIC_IRQ*%
X-19110000Y6510000D03*
X-1330000Y-10120000D03*
%TO.N,BCLK_AMP*%
X-15900000Y-9930000D03*
X-13360000Y-7580000D03*
%TO.N,WS_AMP*%
X-14180000Y-11800000D03*
X-12440000Y-7760000D03*
%TO.N,CAM_Y3*%
X-1940000Y10110000D03*
%TO.N,CAM_MCLK*%
X8470000Y1770000D03*
%TO.N,BCLK_MIC*%
X-15030000Y-4880000D03*
%TO.N,CAM_Y5*%
X14120000Y5230000D03*
%TO.N,CAM_Y6*%
X16550000Y4260000D03*
%TO.N,WS_MIC*%
X-13920000Y-5490000D03*
%TO.N,CAM_Y4*%
X-1720000Y11930000D03*
%TO.N,CAM_Y8*%
X14170000Y2280000D03*
%TO.N,CAM_VSYNC*%
X12200000Y-3600000D03*
X17550000Y-1020000D03*
X-13000000Y5200000D03*
%TO.N,CAM_Y9*%
X16230000Y1250000D03*
%TO.N,CAM_Y2*%
X16579376Y5010624D03*
%TO.N,CAM_HREF*%
X14150000Y-510000D03*
%TO.N,CAM_Y7*%
X14250000Y3020671D03*
%TO.N,+1V5*%
X13534976Y-2463401D03*
%TO.N,Net-(JP2-A)*%
X-9340000Y-20070000D03*
%TO.N,Net-(JP3-A)*%
X-17140000Y-1300000D03*
%TD*%
D48*
%TO.N,CAM_HREF*%
X14410000Y-250000D02*
X15385000Y-250000D01*
X14150000Y-510000D02*
X14410000Y-250000D01*
%TO.N,CAM_Y8*%
X15330000Y2220000D02*
X14314852Y2220000D01*
X14314852Y2220000D02*
G75*
G02*
X14170035Y2280035I48J204800D01*
G01*
%TO.N,CAM_Y7*%
X14731222Y3220000D02*
G75*
G03*
X14249979Y3020692I-22J-680600D01*
G01*
X15330000Y3220000D02*
X14731222Y3220000D01*
%TO.N,Net-(JP1-C)*%
X13203431Y3260000D02*
X9940000Y3260000D01*
X13390000Y3180000D02*
X13385356Y3184644D01*
X13500000Y2161422D02*
X13500000Y2585858D01*
X13500000Y2585858D02*
X13500000Y2914437D01*
X13660000Y1840000D02*
X13614143Y1885857D01*
X15385000Y1750000D02*
X13877279Y1750000D01*
X13385356Y3184644D02*
G75*
G03*
X13203431Y3260016I-181956J-181944D01*
G01*
X13500000Y2914437D02*
G75*
G03*
X13389989Y3179989I-375600J-37D01*
G01*
X13614143Y1885857D02*
G75*
G02*
X13500013Y2161422I275557J275543D01*
G01*
X13877279Y1750000D02*
G75*
G02*
X13660006Y1840006I21J307300D01*
G01*
%TO.N,CAM_Y7*%
X14250000Y3020671D02*
X14361766Y3020671D01*
D49*
%TO.N,GND*%
X-3939500Y-13221258D02*
G75*
G03*
X-3240012Y-14910012I2388200J-42D01*
G01*
X-3939500Y-12982500D02*
X-3939500Y-13221258D01*
D10*
%TO.N,+3V3*%
X-14267500Y8340000D02*
X-14267500Y6530000D01*
D48*
%TO.N,CAM_CLKINTRNL*%
X8120000Y4336447D02*
G75*
G03*
X7869986Y4939986I-853600J-47D01*
G01*
X8120000Y3538000D02*
X8120000Y4336447D01*
D49*
%TO.N,GND*%
X6691895Y4668105D02*
G75*
G02*
X7160003Y3538000I-1130095J-1130105D01*
G01*
X6420000Y4940000D02*
X6691895Y4668105D01*
%TO.N,+3V3CAM*%
X8205234Y6454767D02*
X7870000Y6790000D01*
X9110000Y6080000D02*
G75*
G02*
X8205240Y6454773I0J1279500D01*
G01*
%TO.N,GND*%
X11870000Y5000000D02*
X11870000Y5160000D01*
X10560000Y-304500D02*
X10560000Y-480000D01*
D50*
X-6680000Y15822500D02*
X-7412500Y15822500D01*
X-3253536Y-16156465D02*
X-4150000Y-15260000D01*
X-3250000Y-16165000D02*
X-3250000Y-14934142D01*
D49*
X10791998Y6048000D02*
X10799998Y6040000D01*
D50*
X2250000Y-3975000D02*
X3285000Y-3975000D01*
X-5110000Y15822500D02*
X-6680000Y15822500D01*
X-6700000Y10687500D02*
X-7542500Y10687500D01*
D49*
X10707500Y-2192000D02*
X10707500Y-2753965D01*
D50*
X-7542500Y10687500D02*
X-7550000Y10680000D01*
X-7362500Y-12690000D02*
X-8140000Y-12690000D01*
X-10120000Y-437500D02*
X-10120000Y470000D01*
D10*
X-8562500Y-10892500D02*
X-8570000Y-10900000D01*
D50*
X-3949500Y-6920500D02*
X-4060000Y-6810000D01*
D49*
X10855000Y7440000D02*
X11660000Y7440000D01*
D50*
X-4890000Y1480000D02*
X-4890000Y2450000D01*
D10*
X6746619Y20319452D02*
X9219637Y20319452D01*
D50*
X-4890000Y2450000D02*
X-4890000Y3500000D01*
X2190000Y-7170000D02*
X2740000Y-7170000D01*
X-3250000Y-16165000D02*
X-3253536Y-16156465D01*
D49*
X10080000Y6048000D02*
X10791998Y6048000D01*
X-6824466Y-18364465D02*
X-6640000Y-18180000D01*
D10*
X11650000Y1720000D02*
X11581360Y1788640D01*
D49*
X6629313Y3538000D02*
X6610000Y3530000D01*
D10*
X11819164Y2119163D02*
X11590000Y1890000D01*
D49*
X11870000Y5160000D02*
X11420001Y5609999D01*
D50*
X3260607Y-16139394D02*
X4170000Y-15230000D01*
D10*
X11768252Y1601748D02*
X11650000Y1720000D01*
X-7552000Y-10892500D02*
X-8562500Y-10892500D01*
D50*
X-7412500Y15822500D02*
X-7420000Y15830000D01*
D10*
X14940000Y17950000D02*
X14950502Y17939498D01*
D49*
X11012500Y148000D02*
X10560000Y-304500D01*
D10*
X11590000Y1890000D02*
X11560234Y1862609D01*
D50*
X-3949500Y-7727500D02*
X-3949500Y-6920500D01*
X-7392500Y-7750000D02*
X-7392500Y-7038106D01*
X-7392500Y-7038106D02*
X-7400000Y-7020000D01*
D10*
X11481509Y1830000D02*
X11481511Y1830000D01*
X15660772Y16224755D02*
X15660772Y14478363D01*
D49*
X3400000Y4450000D02*
X3396751Y4450000D01*
D50*
X-13710000Y2516100D02*
X-13710000Y1230000D01*
D49*
X10707500Y-2753965D02*
X10710000Y-2760000D01*
D50*
X-11670000Y-455000D02*
X-11670000Y470000D01*
D49*
X17240000Y-8680000D02*
X18273440Y-8680000D01*
D50*
X3285000Y-3975000D02*
X3290000Y-3970000D01*
D49*
X15385000Y-3750000D02*
X16370000Y-3750000D01*
X16370000Y-3750000D02*
X16380000Y-3740000D01*
X-13150000Y15120000D02*
X-13755858Y15120000D01*
X7160000Y3538000D02*
X6629313Y3538000D01*
D10*
X15385000Y2750000D02*
X16170000Y2750000D01*
X11877500Y1338000D02*
G75*
G03*
X11768253Y1601749I-373000J0D01*
G01*
D49*
X18273440Y-8680000D02*
G75*
G02*
X18321707Y-8700017I-40J-68300D01*
G01*
D10*
X11581360Y1788640D02*
G75*
G03*
X11481509Y1830009I-99860J-99840D01*
G01*
D50*
X-3250000Y-14934142D02*
G75*
G02*
X-3240012Y-14909988I34100J42D01*
G01*
D10*
X11877500Y2260000D02*
G75*
G02*
X11819169Y2119158I-199200J0D01*
G01*
D49*
X3396751Y4450000D02*
G75*
G03*
X2249985Y3975015I-51J-1621700D01*
G01*
D10*
X11560234Y1862609D02*
G75*
G02*
X11481509Y1829984I-78734J78691D01*
G01*
X14950502Y17939498D02*
G75*
G02*
X15660752Y16224755I-1714702J-1714698D01*
G01*
D50*
X3250000Y-16165000D02*
G75*
G02*
X3260609Y-16139396I36200J0D01*
G01*
D49*
X-13755858Y15120000D02*
G75*
G02*
X-13780012Y15129988I-42J34100D01*
G01*
D10*
X9219637Y20319452D02*
G75*
G02*
X14939989Y17949989I-37J-8089852D01*
G01*
D49*
X-7070128Y-18957547D02*
G75*
G02*
X-6824436Y-18364495I838728J-53D01*
G01*
D50*
%TO.N,EN*%
X-5180000Y12412500D02*
X-5130000Y12462500D01*
X-5130000Y12462500D02*
X-4397532Y12462500D01*
X-4397532Y12462500D02*
X-4145016Y12715016D01*
X-6700000Y12412500D02*
X-5180000Y12412500D01*
%TO.N,+3V3*%
X-5110000Y14097500D02*
X-4233038Y14097500D01*
X-6680000Y14097500D02*
X-6745396Y14100688D01*
D10*
X-11780000Y14257500D02*
X-12653893Y14257500D01*
D50*
X-6745396Y14100688D02*
X-7444197Y14100688D01*
D49*
X3244436Y-5860000D02*
X2965000Y-5860000D01*
D50*
X-5184263Y-12502263D02*
X-3939500Y-11257500D01*
D49*
X-5470503Y9439498D02*
X-5400000Y9510000D01*
D50*
X4460000Y-8380000D02*
X4460000Y-8274852D01*
D10*
X-12653893Y14257500D02*
X-12653917Y14257476D01*
D50*
X4460000Y-8390000D02*
X4460000Y-8380000D01*
D49*
X-5478000Y-11130000D02*
X-4247312Y-11130000D01*
D50*
X3988306Y-8390000D02*
X4460000Y-8390000D01*
X-370000Y-10280000D02*
X-225356Y-10135356D01*
X-6680000Y14097500D02*
X-5110000Y14097500D01*
X3809566Y-6704567D02*
X3780000Y-6675000D01*
X-10040000Y-15920000D02*
X-7797106Y-15920000D01*
X-4233038Y14097500D02*
X-4045538Y13910000D01*
D51*
X-5130000Y10637500D02*
X-5130000Y10450000D01*
D49*
X3780000Y-6675000D02*
X2965000Y-5860000D01*
X-5130000Y10161837D02*
X-5130000Y10637500D01*
D50*
X-5637500Y-13120462D02*
X-5637500Y-12690000D01*
X-3939500Y-11257500D02*
X-2729893Y-11257500D01*
D49*
X-6250000Y9330000D02*
X-5734853Y9330000D01*
X-4247312Y-11130000D02*
G75*
G02*
X-3939496Y-11257496I12J-435300D01*
G01*
D50*
X-7797106Y-15920000D02*
G75*
G03*
X-6589998Y-15420002I6J1707100D01*
G01*
X-225356Y-10135356D02*
G75*
G02*
X3988306Y-8389999I4213656J-4213644D01*
G01*
X-7444197Y14100688D02*
G75*
G03*
X-7470001Y14090001I-3J-36488D01*
G01*
D49*
X-5734853Y9330000D02*
G75*
G03*
X-5470536Y9439531I-47J373800D01*
G01*
D50*
X-5637500Y-12690000D02*
G75*
G03*
X-5184258Y-12502268I0J641000D01*
G01*
D49*
X-5400000Y9510000D02*
G75*
G03*
X-5130016Y10161837I-651800J651800D01*
G01*
D50*
X-6590000Y-15420000D02*
G75*
G03*
X-5637516Y-13120462I-2299500J2299500D01*
G01*
X4460000Y-8274852D02*
G75*
G03*
X3809539Y-6704594I-2220700J-48D01*
G01*
X-2729893Y-11257500D02*
G75*
G03*
X-370002Y-10279998I-7J3337400D01*
G01*
D49*
%TO.N,VSYS*%
X15515000Y-8675000D02*
X15515000Y-8680000D01*
X-9425914Y-2450000D02*
X-8190000Y-2450000D01*
X-11670000Y-2180000D02*
X-10137500Y-2180000D01*
D52*
X-13710000Y-1751100D02*
X-13710000Y-510000D01*
D50*
X1150000Y6030000D02*
X1167451Y6047451D01*
D49*
X14710000Y-8150000D02*
X14990000Y-8150000D01*
D52*
X-13710000Y-510000D02*
X-13600000Y-400000D01*
D50*
X3470000Y7634974D02*
X3470000Y9780000D01*
X600000Y3954005D02*
X600000Y4702183D01*
D49*
X-11670000Y-2180000D02*
X-13281100Y-2180000D01*
D50*
X2260000Y6500000D02*
X2435442Y6500000D01*
X3108995Y6778995D02*
X3120000Y6790000D01*
X-1240000Y830000D02*
X-1240000Y820000D01*
X-1240000Y820000D02*
X-315000Y1745000D01*
X-315000Y1745000D02*
G75*
G03*
X599998Y3954005I-2209000J2209000D01*
G01*
D49*
X-8335000Y-2595000D02*
G75*
G03*
X-8190000Y-2450000I0J145000D01*
G01*
D50*
X2435442Y6500000D02*
G75*
G03*
X3108964Y6779026I-42J952500D01*
G01*
X1167451Y6047451D02*
G75*
G02*
X2260000Y6499999I1092549J-1092551D01*
G01*
D49*
X14990000Y-8150000D02*
G75*
G02*
X15515000Y-8675000I0J-525000D01*
G01*
X-10120000Y-2162500D02*
G75*
G03*
X-9425914Y-2450006I694100J694100D01*
G01*
D50*
X600000Y4702183D02*
G75*
G02*
X1149995Y6030005I1877800J17D01*
G01*
X3120000Y6790000D02*
G75*
G03*
X3470010Y7634974I-845000J845000D01*
G01*
D48*
%TO.N,CAM_PCLK*%
X12830000Y4476378D02*
X12830000Y5000000D01*
X13595269Y3750000D02*
X13977574Y3750000D01*
X12837500Y4468878D02*
X12830000Y4476378D01*
X15385000Y3750000D02*
X14122426Y3750000D01*
X13595269Y3750000D02*
G75*
G02*
X13040009Y3980009I31J785300D01*
G01*
X13040000Y3980000D02*
G75*
G02*
X12837491Y4468878I488900J488900D01*
G01*
X13977574Y3750000D02*
G75*
G02*
X14050008Y3720008I26J-102400D01*
G01*
X14122426Y3750000D02*
G75*
G03*
X14049992Y3720008I-26J-102400D01*
G01*
D10*
%TO.N,+2V8*%
X15385000Y-2750000D02*
X16330004Y-2750000D01*
X16330004Y-2750000D02*
G75*
G02*
X16354132Y-2760007I-4J-34100D01*
G01*
D49*
%TO.N,Net-(C13-Pad1)*%
X9709696Y-1645304D02*
X9250000Y-2105000D01*
X7257500Y-2612309D02*
X7257500Y-3264500D01*
X9250000Y-2105000D02*
X7697634Y-2105000D01*
X10707500Y-1232000D02*
G75*
G03*
X9709698Y-1645306I0J-1411100D01*
G01*
X7697634Y-2105000D02*
G75*
G03*
X7419990Y-2219990I-34J-392600D01*
G01*
X7420000Y-2220000D02*
G75*
G03*
X7257504Y-2612309I392300J-392300D01*
G01*
D51*
%TO.N,SW_L3*%
X-13174142Y16090000D02*
X-15958752Y16090000D01*
X-17460000Y14474142D02*
X-17460000Y14414558D01*
D48*
X4999401Y17105713D02*
X4999401Y17017548D01*
D51*
X-17190000Y15580000D02*
X-17200502Y15569498D01*
D48*
X-10653794Y16082500D02*
X-11780000Y16082500D01*
X3950000Y21250000D02*
X4081594Y21250000D01*
X3944944Y21255056D02*
X3950000Y21250000D01*
X4830000Y20940000D02*
X4844886Y20926312D01*
X5000000Y17120000D02*
X4999401Y17105713D01*
D51*
X-18026274Y13820000D02*
X-19450000Y13820000D01*
D48*
X2344953Y21255056D02*
X3944944Y21255056D01*
X4688579Y16750000D02*
X-9060467Y16750000D01*
X-11780000Y16082500D02*
X-13143965Y16082500D01*
D51*
X-17460000Y14943015D02*
X-17460000Y14474142D01*
D48*
X5000000Y20551834D02*
X5000000Y17120000D01*
X-13143965Y16082500D02*
X-13150000Y16080000D01*
X-10340000Y16220000D02*
X-10354886Y16206312D01*
X-9060467Y16750000D02*
G75*
G03*
X-10340010Y16220010I-33J-1809500D01*
G01*
X4844886Y20926312D02*
G75*
G02*
X5000022Y20551834I-374486J-374512D01*
G01*
D51*
X-17640000Y13980000D02*
G75*
G02*
X-18026274Y13819989I-386300J386300D01*
G01*
D48*
X4999401Y17017548D02*
G75*
G02*
X4930035Y16849965I-237001J-48D01*
G01*
D51*
X-15958752Y16090000D02*
G75*
G03*
X-17189985Y15579985I52J-1741300D01*
G01*
D48*
X4930000Y16850000D02*
G75*
G02*
X4688579Y16750009I-241400J241400D01*
G01*
X4081594Y21250000D02*
G75*
G02*
X4830002Y20940002I6J-1058400D01*
G01*
D51*
X-13150000Y16080000D02*
G75*
G03*
X-13174142Y16089983I-24100J-24100D01*
G01*
X-17200502Y15569498D02*
G75*
G03*
X-17460005Y14943015I626502J-626498D01*
G01*
D48*
X-10354886Y16206312D02*
G75*
G02*
X-10653794Y16082490I-298914J298888D01*
G01*
D51*
X-17460000Y14414558D02*
G75*
G02*
X-17640012Y13980012I-614600J42D01*
G01*
D49*
%TO.N,SW_L1*%
X-1381335Y-3975000D02*
X-2250000Y-3975000D01*
D51*
X-13990000Y-3520000D02*
X-15152721Y-3520000D01*
X-15520000Y-3067868D02*
X-15520000Y-440000D01*
X-15520000Y-440000D02*
X-15150000Y-70000D01*
D49*
X-560000Y-5070589D02*
X-560000Y-4795269D01*
D51*
X-13030000Y-3970000D02*
X-13119375Y-3880624D01*
D49*
X-790000Y-4240000D02*
X-829695Y-4203497D01*
D51*
X-2769055Y-4190000D02*
X-12498874Y-4190000D01*
D49*
X1140000Y-5860000D02*
X342426Y-5860000D01*
D51*
X1230000Y-7170000D02*
X1230000Y-6077279D01*
D49*
X342426Y-5860000D02*
X186984Y-5860000D01*
D51*
X-13119375Y-3880624D02*
G75*
G03*
X-13990000Y-3519985I-870625J-870576D01*
G01*
X-12498874Y-4190000D02*
G75*
G02*
X-13030008Y-3970008I-26J751100D01*
G01*
X-2250000Y-3975000D02*
G75*
G02*
X-2769055Y-4190018I-519100J519100D01*
G01*
D49*
X186984Y-5860000D02*
G75*
G02*
X-319996Y-5649996I16J717000D01*
G01*
X-560000Y-4795269D02*
G75*
G03*
X-790009Y-4240009I-785300J-31D01*
G01*
D51*
X-15370000Y-3430000D02*
G75*
G02*
X-15519987Y-3067868I362100J362100D01*
G01*
X-15152721Y-3520000D02*
G75*
G02*
X-15369994Y-3429994I21J307300D01*
G01*
X1230000Y-6077279D02*
G75*
G03*
X1139994Y-5860006I-307300J-21D01*
G01*
D49*
X-2286000Y-4011000D02*
G75*
G02*
X-2250000Y-3975000I36000J0D01*
G01*
X-320000Y-5650000D02*
G75*
G02*
X-559995Y-5070589I579400J579400D01*
G01*
X-829695Y-4203497D02*
G75*
G03*
X-1381335Y-3975014I-551605J-551603D01*
G01*
D51*
%TO.N,Net-(D1-K)*%
X7140000Y-12900000D02*
X7101214Y-12938786D01*
X7390000Y-10780000D02*
X7390000Y-12296447D01*
X6398162Y-13230000D02*
X5780000Y-13230000D01*
X7101214Y-12938786D02*
G75*
G02*
X6398162Y-13229963I-703014J703086D01*
G01*
X7390000Y-12296447D02*
G75*
G02*
X7139986Y-12899986I-853600J47D01*
G01*
D49*
%TO.N,+3V3CAM*%
X7940000Y6720000D02*
X7870000Y6790000D01*
D50*
X13200000Y-9400000D02*
X13200000Y-6400000D01*
D10*
X14044852Y750000D02*
X15385000Y750000D01*
D50*
X15200000Y-11400000D02*
X13200000Y-9400000D01*
D49*
X9120000Y6048000D02*
X9120000Y6993371D01*
X9865606Y6879395D02*
X9305000Y7440000D01*
X9890000Y6820000D02*
X9890000Y6869290D01*
D10*
X13850000Y1071006D02*
X13850000Y930710D01*
D49*
X12837500Y1338000D02*
X12837500Y811908D01*
D10*
X12837500Y1338000D02*
X13543408Y1338000D01*
D49*
X9106964Y6053400D02*
X9120000Y6048000D01*
X12837500Y1338000D02*
X12837500Y2260000D01*
D50*
X9250000Y-50000D02*
X9200000Y0D01*
D49*
X12729227Y367924D02*
X12460000Y98697D01*
X12460000Y98697D02*
X12460000Y-650000D01*
D50*
X9250000Y-280000D02*
X9250000Y-50000D01*
D10*
X13900000Y810000D02*
G75*
G03*
X14044852Y749980I144900J144900D01*
G01*
X13780000Y1240000D02*
G75*
G02*
X13850002Y1071006I-169000J-169000D01*
G01*
D49*
X9120000Y6993371D02*
G75*
G02*
X9304991Y7440009I631600J29D01*
G01*
X12837500Y811908D02*
G75*
G02*
X12729213Y367931I-990500J6392D01*
G01*
D10*
X13543408Y1338000D02*
G75*
G02*
X13779998Y1239998I-8J-334600D01*
G01*
X13850000Y930710D02*
G75*
G03*
X13899997Y809997I170700J-10D01*
G01*
D49*
X9890000Y6869290D02*
G75*
G02*
X9865603Y6879392I0J34510D01*
G01*
D10*
%TO.N,LEDCNTRL*%
X-9530000Y2171006D02*
X-9530000Y1720000D01*
X-8190000Y2450000D02*
X-9247574Y2450000D01*
X-9422426Y2377574D02*
X-9460000Y2340000D01*
X-9247574Y2450000D02*
G75*
G03*
X-9422444Y2377592I-26J-247300D01*
G01*
X-9460000Y2340000D02*
G75*
G03*
X-9530002Y2171006I169000J-169000D01*
G01*
D48*
%TO.N,RXD*%
X-486072Y14793603D02*
X-519781Y14624130D01*
X-441650Y15108249D02*
X-481949Y14957852D01*
X906890Y16068187D02*
X700161Y16035450D01*
X-481949Y14957852D02*
X-484148Y14880000D01*
X2728749Y13649516D02*
X2749465Y13699510D01*
X2749465Y13699510D02*
X2750000Y13726568D01*
X2710000Y13630000D02*
X2728749Y13649516D01*
X2383788Y15443035D02*
X2300000Y15530000D01*
X1939156Y15830349D02*
X1709254Y15947487D01*
X-585904Y14464488D02*
X-743390Y14310694D01*
X-519781Y14624130D02*
X-585904Y14464488D01*
X1011543Y16070000D02*
X906890Y16068187D01*
X-363800Y15243093D02*
X-441650Y15108249D01*
X700161Y16035450D02*
X501098Y15970775D01*
X70000Y15680000D02*
X-310304Y15299696D01*
X314605Y15875755D02*
X145272Y15752729D01*
X2709978Y14802852D02*
X2635357Y15032513D01*
X501098Y15970775D02*
X314605Y15875755D01*
X2147904Y15678689D02*
X1939156Y15830349D01*
X-3755865Y13151447D02*
X-3799805Y13191851D01*
X-3969650Y13240000D02*
X-7980000Y13240000D01*
X1080000Y16070000D02*
X1011543Y16070000D01*
X2750000Y14443604D02*
X2747755Y14564344D01*
X-310304Y15299696D02*
X-363800Y15243093D01*
X145272Y15752729D02*
X70000Y15680000D01*
X2747755Y14564344D02*
X2709978Y14802852D01*
X1463859Y16027219D02*
X1209012Y16067582D01*
X1209012Y16067582D02*
X1080000Y16070000D01*
X2240832Y15589167D02*
X2147904Y15678689D01*
X2525726Y15247674D02*
X2383788Y15443035D01*
X-484148Y14880000D02*
X-486072Y14793603D01*
X2750000Y13726568D02*
X2750000Y14443604D01*
X1709254Y15947487D02*
X1463859Y16027219D01*
X2635357Y15032513D02*
X2525726Y15247674D01*
X2300000Y15530000D02*
X2240832Y15589167D01*
X-743390Y14310694D02*
G75*
G02*
X-3755865Y13151437I-3001310J3305506D01*
G01*
X-3799805Y13191851D02*
G75*
G03*
X-3969649Y13239991I-154795J-222451D01*
G01*
%TO.N,TXD*%
X-192046Y15887954D02*
X-1138493Y14941507D01*
X-1480121Y14800000D02*
X-3791508Y14800000D01*
X3272928Y13997072D02*
X3220000Y14050000D01*
X3110000Y14315563D02*
X3110000Y14566031D01*
X-9219776Y14114693D02*
X-9264693Y14114693D01*
X3410000Y13640000D02*
X3410000Y13666151D01*
X2690000Y15580000D02*
X2488112Y15781888D01*
X-4201923Y14970000D02*
X-7639757Y14970000D01*
X-8618027Y14716442D02*
X-9219776Y14114693D01*
X2488112Y15781888D02*
G75*
G03*
X1020000Y16390007I-1468112J-1468088D01*
G01*
X-1138493Y14941507D02*
G75*
G02*
X-1480121Y14800005I-341607J341593D01*
G01*
X-3791508Y14800000D02*
G75*
G02*
X-4044998Y14905002I8J358500D01*
G01*
X-7639757Y14970000D02*
G75*
G03*
X-8618016Y14716421I9757J-2051400D01*
G01*
X-4045000Y14905000D02*
G75*
G03*
X-4201923Y14969990I-156900J-156900D01*
G01*
X1020000Y16390000D02*
G75*
G03*
X-192048Y15887956I0J-1714100D01*
G01*
X3410000Y13666151D02*
G75*
G03*
X3272954Y13997098I-468000J49D01*
G01*
X3220000Y14050000D02*
G75*
G02*
X3109985Y14315563I265600J265600D01*
G01*
X3110000Y14566031D02*
G75*
G03*
X2689991Y15579991I-1434000J-31D01*
G01*
%TO.N,GPIO0*%
X-6340000Y7310000D02*
X-6337324Y7310000D01*
X-6337324Y7310000D02*
X-4791680Y8855644D01*
X-3949048Y9164400D02*
X-713589Y9164400D01*
X-4791680Y8855644D02*
G75*
G02*
X-3949048Y9164398I845780J-1004044D01*
G01*
D51*
%TO.N,GPIO46*%
X961946Y7738054D02*
X1501333Y7738054D01*
X-4481643Y7738054D02*
X961946Y7738054D01*
X2520000Y8159999D02*
X2530000Y8170000D01*
X-5810000Y1000000D02*
X-5810000Y6205320D01*
X-5340000Y7340000D02*
G75*
G02*
X-4481643Y7738056I976500J-981200D01*
G01*
X-5810000Y6205320D02*
G75*
G02*
X-5339994Y7339994I1604700J-20D01*
G01*
X1501333Y7738054D02*
G75*
G03*
X2519990Y8160009I-33J1440646D01*
G01*
D10*
%TO.N,CAM_PWDN*%
X16650000Y-780000D02*
X16690000Y-740000D01*
D51*
X15604021Y-750000D02*
X15385000Y-750000D01*
D10*
X15330000Y-780000D02*
X16650000Y-780000D01*
D48*
%TO.N,CAM_RESET*%
X-7600000Y9185786D02*
X-7600000Y6014214D01*
X-8000000Y10000000D02*
X-7892893Y9892893D01*
X5236752Y-39921D02*
X5221821Y-24990D01*
X-6600000Y4185786D02*
X-6600000Y1200000D01*
X5960000Y-339500D02*
X7257500Y-339500D01*
X-12185786Y10000000D02*
X-8000000Y10000000D01*
X-19200000Y8800000D02*
X-19000000Y9000000D01*
X-5600000Y200000D02*
X4585786Y200000D01*
X15385000Y-1750000D02*
X16080000Y-1750000D01*
X7300000Y700000D02*
X7257500Y657500D01*
X16080000Y-1750000D02*
X16130000Y-1800000D01*
X-13307107Y9292893D02*
X-12892893Y9707107D01*
X-7307107Y5307107D02*
X-6892893Y4892893D01*
X10000000Y700000D02*
X7300000Y700000D01*
X-19000000Y9000000D02*
X-14014214Y9000000D01*
X7257500Y657500D02*
X7257500Y-339500D01*
X-7600000Y6014214D02*
G75*
G03*
X-7307114Y5307100I1000000J-14D01*
G01*
X-7892893Y9892893D02*
G75*
G02*
X-7600010Y9185786I-707107J-707093D01*
G01*
X-6892893Y4892893D02*
G75*
G02*
X-6600010Y4185786I-707107J-707093D01*
G01*
X5960000Y-339500D02*
G75*
G02*
X5236758Y-39915I0J1022800D01*
G01*
X-6600000Y1200000D02*
G75*
G03*
X-5600000Y200000I1000000J0D01*
G01*
X4585786Y200000D02*
G75*
G02*
X5221821Y-24990I-3886J-1022500D01*
G01*
X-12892893Y9707107D02*
G75*
G02*
X-12185786Y9999990I707093J-707107D01*
G01*
X-14014214Y9000000D02*
G75*
G03*
X-13307100Y9292886I14J1000000D01*
G01*
D10*
%TO.N,PMIC_PWRON*%
X-13017744Y-14518638D02*
X-13015185Y-14524815D01*
X13530000Y-11210000D02*
X13530000Y-15700000D01*
X3050000Y-20691543D02*
X3050000Y-22208874D01*
X8200000Y-19200000D02*
X4489827Y-19200000D01*
X-2310000Y-22919999D02*
X2395444Y-22919999D01*
X-2310000Y-22590000D02*
X-2310000Y-22919999D01*
X3500000Y-19610000D02*
X3496569Y-19613431D01*
X-12831902Y-14709952D02*
X-12850000Y-14690000D01*
X-14230000Y-18161421D02*
X-14230000Y-18395858D01*
X12450000Y-16780000D02*
X10620000Y-16780000D01*
X-12710000Y-15577158D02*
X-12710000Y-15004249D01*
X-12850000Y-14690000D02*
X-13015185Y-14524815D01*
X-13017744Y-14518637D02*
X-13015185Y-14524815D01*
X-4560000Y-22919999D02*
X-2310000Y-22919999D01*
X-13017744Y-14518637D02*
X-13017744Y-14518638D01*
X-12710000Y-15004249D02*
G75*
G03*
X-12831877Y-14709927I-416200J49D01*
G01*
X3496569Y-19613431D02*
G75*
G03*
X3050036Y-20691543I1078131J-1078069D01*
G01*
X3050000Y-22208874D02*
G75*
G02*
X2830008Y-22740008I-751100J-26D01*
G01*
X10620000Y-16780000D02*
G75*
G03*
X9420000Y-17980000I0J-1200000D01*
G01*
X-14230000Y-18395858D02*
G75*
G03*
X-14156377Y-18573656I251400J-42D01*
G01*
X-14130000Y-17920000D02*
G75*
G03*
X-14229991Y-18161421I241400J-241400D01*
G01*
X9420000Y-17980000D02*
G75*
G02*
X8200000Y-19200000I-1220000J0D01*
G01*
X13530000Y-15700000D02*
G75*
G02*
X12450000Y-16780000I-1080000J0D01*
G01*
X2395444Y-22919999D02*
G75*
G03*
X2829987Y-22739987I-44J614599D01*
G01*
X4489827Y-19200000D02*
G75*
G03*
X3499992Y-19609992I-27J-1399800D01*
G01*
D49*
%TO.N,Net-(MK2-LR)*%
X-6120000Y-8340000D02*
X-5594017Y-7814017D01*
X-6300000Y-9330000D02*
X-6300000Y-8774558D01*
X-5594017Y-7814017D02*
G75*
G03*
X-5567490Y-7750000I-63983J64017D01*
G01*
X-6300000Y-8774558D02*
G75*
G02*
X-6119988Y-8340012I614600J-42D01*
G01*
%TO.N,Net-(MK2-SD)*%
X-3949500Y-9552500D02*
X-2407784Y-9552500D01*
X-4025252Y-9628252D02*
X-3949500Y-9552500D01*
X-5478000Y-10230000D02*
G75*
G03*
X-4025251Y-9628253I0J2054500D01*
G01*
X-2407784Y-9552500D02*
G75*
G03*
X-2359505Y-9532495I-16J68300D01*
G01*
D51*
%TO.N,I2SDAT_MIC*%
X-16310000Y-4250000D02*
X-16368787Y-4191213D01*
X-2460048Y-6628098D02*
X-2480000Y-6610000D01*
X-13460000Y-4970000D02*
X-13563482Y-4866517D01*
X-19170000Y5250000D02*
X-17350000Y5250000D01*
X-2359500Y-7707500D02*
X-2362032Y-7594328D01*
X-2362032Y-7594328D02*
X-2614364Y-7345705D01*
X-16590000Y-2964142D02*
X-16590000Y4808579D01*
X-16590000Y-3657158D02*
X-16590000Y-2964142D01*
X-14810466Y-4350000D02*
X-16068579Y-4350000D01*
X-3860625Y-6169375D02*
X-4410000Y-5620000D01*
X-17172842Y5250000D02*
X-17350000Y5250000D01*
X-5399827Y-5210000D02*
X-12880589Y-5210000D01*
X-2673137Y-6530000D02*
X-2990000Y-6530000D01*
X-2359500Y-7707500D02*
X-2359500Y-6870842D01*
X-14671890Y-4352721D02*
X-14810466Y-4350000D01*
X-16590000Y4808579D02*
G75*
G03*
X-16689994Y5050006I-341400J21D01*
G01*
X-2359500Y-6870842D02*
G75*
G03*
X-2460025Y-6628075I-343300J42D01*
G01*
X-12880589Y-5210000D02*
G75*
G02*
X-13460003Y-4970003I-11J819400D01*
G01*
X-16690000Y5050000D02*
G75*
G03*
X-17172842Y5249982I-482800J-482800D01*
G01*
X-13563482Y-4866517D02*
G75*
G03*
X-14671889Y-4352705I-1241518J-1225783D01*
G01*
X-16368787Y-4191213D02*
G75*
G02*
X-16589961Y-3657158I534087J534013D01*
G01*
X-2480000Y-6610000D02*
G75*
G03*
X-2673137Y-6530015I-193100J-193100D01*
G01*
X-4410000Y-5620000D02*
G75*
G03*
X-5399827Y-5210011I-989800J-989800D01*
G01*
X-2990000Y-6530000D02*
G75*
G02*
X-3860636Y-6169386I0J1231300D01*
G01*
X-16068579Y-4350000D02*
G75*
G02*
X-16310006Y-4250006I-21J341400D01*
G01*
%TO.N,CAM_SDA*%
X8990000Y-12050000D02*
X8998970Y-12041030D01*
X12000000Y-5750000D02*
X14214646Y-3535355D01*
X14903553Y-3250000D02*
X15385000Y-3250000D01*
X11222557Y-6527443D02*
X12000000Y-5750000D01*
X9180004Y-11591290D02*
X9180004Y-11458542D01*
X14214646Y-3535355D02*
G75*
G02*
X14903553Y-3249978I688954J-688945D01*
G01*
X8990000Y-12050000D02*
G75*
G03*
X9180000Y-11591290I-458700J458700D01*
G01*
X9180004Y-11458542D02*
G75*
G02*
X11222559Y-6527445I6973696J-58D01*
G01*
%TO.N,CAM_SCL*%
X14240000Y-2550000D02*
X11223367Y-5566633D01*
X15385000Y-2250000D02*
X14964264Y-2250000D01*
X8318444Y-11400000D02*
X7970000Y-11400000D01*
X8578833Y-11139611D02*
X8318444Y-11400000D01*
X8651395Y-10920000D02*
G75*
G02*
X8578848Y-11139622I-378395J3200D01*
G01*
X14964264Y-2250000D02*
G75*
G03*
X14240011Y-2550011I36J-1024300D01*
G01*
X11223367Y-5566633D02*
G75*
G03*
X8640655Y-11021843I6350933J-6345767D01*
G01*
%TO.N,PMIC_IRQ*%
X-15617574Y-3890000D02*
X-14196984Y-3890000D01*
X-3018163Y-5770000D02*
X-2460833Y-5770000D01*
X-1605857Y-6124143D02*
X-1550000Y-6180000D01*
X-15930000Y-3720000D02*
X-15860711Y-3789290D01*
X-16112500Y6510000D02*
X-16092500Y6530000D01*
X-16092500Y6530000D02*
X-16080000Y6517500D01*
X-19110000Y6510000D02*
X-16112500Y6510000D01*
X-15944644Y-3705356D02*
X-15930000Y-3720000D01*
X-16080000Y6517500D02*
X-16080000Y-3378578D01*
X-4138665Y-5031335D02*
X-3670000Y-5500000D01*
X-12265614Y-4690000D02*
X-4894427Y-4690000D01*
X-1330000Y-6711126D02*
X-1330000Y-10120000D01*
X-1550000Y-6180000D02*
G75*
G02*
X-1330011Y-6711126I-531100J-531100D01*
G01*
X-15860711Y-3789290D02*
G75*
G03*
X-15617574Y-3889967I243111J243190D01*
G01*
X-3670000Y-5500000D02*
G75*
G03*
X-3018163Y-5769984I651800J651800D01*
G01*
X-14196984Y-3890000D02*
G75*
G02*
X-13690004Y-4100004I-16J-717000D01*
G01*
X-2460833Y-5770000D02*
G75*
G02*
X-1605844Y-6124130I33J-1209100D01*
G01*
X-4894427Y-4690000D02*
G75*
G02*
X-4191253Y-4981253I27J-994400D01*
G01*
X-13690000Y-4100000D02*
G75*
G03*
X-12265614Y-4690006I1424400J1424400D01*
G01*
X-16080000Y-3378578D02*
G75*
G03*
X-15944648Y-3705360I462100J-22D01*
G01*
%TO.N,BCLK_AMP*%
X-15900000Y-9930000D02*
X-15710000Y-9930000D01*
X-15710000Y-9930000D02*
X-13360000Y-7580000D01*
X-13370000Y-7570000D02*
G75*
G02*
X-13360000Y-7580000I0J-10000D01*
G01*
%TO.N,WS_AMP*%
X-14180000Y-9500000D02*
X-14180000Y-11800000D01*
X-12440000Y-7760000D02*
X-12462166Y-7782166D01*
X-12440000Y-7760000D02*
X-14180000Y-9500000D01*
D48*
%TO.N,CAM_Y3*%
X13380000Y8919046D02*
X13380000Y6589411D01*
X8148678Y10812644D02*
X8351322Y10812644D01*
X8030000Y11168670D02*
X8030000Y11050000D01*
X8588678Y11050000D02*
X8740000Y11050000D01*
X7657340Y11287340D02*
X7911330Y11287340D01*
X-266152Y10173848D02*
X305944Y10745944D01*
X9020000Y11050000D02*
X11277330Y11050000D01*
X1040000Y11050000D02*
X7410000Y11050000D01*
X14247695Y5750000D02*
X15385000Y5750000D01*
X8740000Y11050000D02*
X9020000Y11050000D01*
X7410000Y11050000D02*
X7420000Y11050000D01*
X8030000Y11050000D02*
X8030000Y10931322D01*
X-1650295Y9990000D02*
X-710000Y9990000D01*
X8030000Y10931322D02*
G75*
G03*
X8148678Y10812600I118700J-22D01*
G01*
X305944Y10745944D02*
G75*
G02*
X1040000Y11050003I734056J-734044D01*
G01*
X-1940000Y10110000D02*
G75*
G03*
X-1650295Y9990002I289700J289700D01*
G01*
X7420000Y11050000D02*
G75*
G03*
X7538700Y11168670I0J118700D01*
G01*
X13380000Y6589411D02*
G75*
G03*
X13619997Y6009997I819400J-11D01*
G01*
X11277330Y11050000D02*
G75*
G02*
X12749991Y10439991I-30J-2082700D01*
G01*
X7538670Y11168670D02*
G75*
G02*
X7657340Y11287330I118630J30D01*
G01*
X8351322Y10812644D02*
G75*
G03*
X8469956Y10931322I-22J118656D01*
G01*
X13620000Y6010000D02*
G75*
G03*
X14247695Y5749998I627700J627700D01*
G01*
X8470000Y10931322D02*
G75*
G02*
X8588678Y11050000I118700J-22D01*
G01*
X12750000Y10440000D02*
G75*
G02*
X13380019Y8919046I-1521000J-1521000D01*
G01*
X7911330Y11287340D02*
G75*
G02*
X8029940Y11168670I-30J-118640D01*
G01*
X-710000Y9990000D02*
G75*
G03*
X-266151Y10173847I0J627700D01*
G01*
%TO.N,CAM_MCLK*%
X9940000Y1960000D02*
X8928700Y1960000D01*
X8928700Y1960000D02*
G75*
G03*
X8470000Y1770000I0J-648700D01*
G01*
D51*
%TO.N,BCLK_MIC*%
X-6840000Y-11670000D02*
X-8550000Y-11670000D01*
X-10830000Y-9390000D02*
X-10830000Y-9120000D01*
X-12990000Y-6960000D02*
X-13350000Y-6960000D01*
X-14980000Y-5330000D02*
X-14980000Y-4930000D01*
X-10830000Y-9120000D02*
G75*
G03*
X-12990000Y-6960000I-2160000J0D01*
G01*
X-8550000Y-11670000D02*
G75*
G02*
X-10830000Y-9390000I0J2280000D01*
G01*
X-6300000Y-11130000D02*
G75*
G02*
X-6840000Y-11670000I-540000J0D01*
G01*
X-13350000Y-6960000D02*
G75*
G02*
X-14980000Y-5330000I0J1630000D01*
G01*
X-14980000Y-4930000D02*
G75*
G03*
X-15030000Y-4880000I-50000J0D01*
G01*
%TO.N,CAM_Y5*%
X15385000Y5250000D02*
X15360827Y5271925D01*
D48*
X15385000Y5250000D02*
X14168284Y5250000D01*
X14168284Y5250000D02*
G75*
G03*
X14120005Y5229995I16J-68300D01*
G01*
D51*
X15360827Y5271925D02*
G75*
G03*
X15267999Y5298484I-85527J-123425D01*
G01*
D48*
%TO.N,CAM_Y6*%
X15385000Y4250000D02*
X15137315Y4250000D01*
X15385000Y4250000D02*
X16205858Y4250000D01*
X16205858Y4250000D02*
X16525858Y4250000D01*
X16525858Y4250000D02*
G75*
G03*
X16550012Y4259988I42J34100D01*
G01*
D51*
%TO.N,WS_MIC*%
X-5478000Y-9330000D02*
X-5400000Y-9330000D01*
X-13920000Y-5490000D02*
X-13877655Y-5447655D01*
X-5750000Y-5760000D02*
X-13268163Y-5760000D01*
X-4770000Y-8700000D02*
X-4770000Y-6740000D01*
X-4770000Y-6740000D02*
G75*
G03*
X-5750000Y-5760000I-980000J0D01*
G01*
X-13268163Y-5760000D02*
G75*
G02*
X-13920011Y-5490011I-37J921800D01*
G01*
X-5400000Y-9330000D02*
G75*
G03*
X-4770000Y-8700000I0J630000D01*
G01*
D48*
%TO.N,CAM_Y4*%
X7606483Y12433518D02*
X7610000Y12430000D01*
X11253777Y11760000D02*
X10365685Y11760000D01*
X-1720000Y11930000D02*
X4637330Y11930000D01*
X13410000Y10820000D02*
X13330000Y10900000D01*
X9216813Y11760000D02*
X10365685Y11760000D01*
X13880000Y6840000D02*
X13880000Y9685320D01*
X15385000Y6250000D02*
X14389705Y6250000D01*
X14100000Y6370000D02*
X14056777Y6413223D01*
X7610000Y12430000D02*
X7617573Y12422427D01*
X6689411Y12780000D02*
X6770000Y12780000D01*
X13330000Y10900000D02*
G75*
G03*
X11253777Y11759990I-2076200J-2076200D01*
G01*
X14389705Y6250000D02*
G75*
G02*
X14099998Y6369998I-5J409700D01*
G01*
X13880000Y9685320D02*
G75*
G03*
X13409994Y10819994I-1604700J-20D01*
G01*
X4637330Y11930000D02*
G75*
G03*
X6109991Y12540009I-30J2082700D01*
G01*
X14056777Y6413223D02*
G75*
G02*
X13880014Y6840000I426823J426777D01*
G01*
X7617573Y12422427D02*
G75*
G03*
X9216813Y11760019I1599227J1599273D01*
G01*
X6110000Y12540000D02*
G75*
G02*
X6689411Y12779995I579400J-579400D01*
G01*
X6770000Y12780000D02*
G75*
G02*
X7606490Y12433525I0J-1183000D01*
G01*
%TO.N,CAM_VSYNC*%
X-11385786Y4000000D02*
X-8214214Y4000000D01*
D10*
X17240000Y-1330000D02*
X17550000Y-1020000D01*
D48*
X11892893Y-3907107D02*
X12200000Y-3600000D01*
X2492893Y-1092893D02*
X6107107Y-4707107D01*
D10*
X16359889Y-1245000D02*
X16444889Y-1330000D01*
D48*
X-7090000Y-590000D02*
X-7037072Y-642928D01*
X6814214Y-5000000D02*
X7785786Y-5000000D01*
X-7200000Y2985786D02*
X-7200000Y-324437D01*
X-13000000Y5200000D02*
X-12092893Y4292893D01*
D10*
X16444889Y-1330000D02*
X17240000Y-1330000D01*
D48*
X-6657867Y-800000D02*
X1785786Y-800000D01*
D10*
X15330000Y-1280000D02*
X15365000Y-1245000D01*
D48*
X9414214Y-4200000D02*
X11185786Y-4200000D01*
X-7507107Y3707107D02*
X-7492893Y3692893D01*
D10*
X15365000Y-1245000D02*
X16359889Y-1245000D01*
D48*
X8492893Y-4707107D02*
X8707107Y-4492893D01*
X6107107Y-4707107D02*
G75*
G03*
X6814214Y-4999990I707093J707107D01*
G01*
X-8214214Y4000000D02*
G75*
G02*
X-7507100Y3707114I14J-1000000D01*
G01*
X11185786Y-4200000D02*
G75*
G03*
X11892900Y-3907114I14J1000000D01*
G01*
X7785786Y-5000000D02*
G75*
G03*
X8492900Y-4707114I14J1000000D01*
G01*
X1785786Y-800000D02*
G75*
G02*
X2492900Y-1092886I14J-1000000D01*
G01*
X-12092893Y4292893D02*
G75*
G03*
X-11385786Y4000010I707093J707107D01*
G01*
X-7492893Y3692893D02*
G75*
G02*
X-7200010Y2985786I-707107J-707093D01*
G01*
X-7037072Y-642928D02*
G75*
G03*
X-6657867Y-799970I379172J379228D01*
G01*
X-7200000Y-324437D02*
G75*
G03*
X-7089989Y-589989I375600J37D01*
G01*
X8707107Y-4492893D02*
G75*
G02*
X9414214Y-4200010I707093J-707107D01*
G01*
%TO.N,CAM_Y9*%
X15385000Y1250000D02*
X16230000Y1250000D01*
%TO.N,CAM_Y2*%
X16318752Y4750000D02*
X16579376Y5010624D01*
X15385000Y4750000D02*
X16318752Y4750000D01*
D10*
%TO.N,+1V5*%
X13541420Y-2456957D02*
X13541420Y-466507D01*
X13534976Y-2463401D02*
X13541420Y-2456957D01*
X14425979Y250000D02*
X15385000Y250000D01*
X13541420Y-466507D02*
G75*
G02*
X13749990Y-29990I730380J-80893D01*
G01*
X13750000Y-30000D02*
G75*
G02*
X14425979Y250008I676000J-676000D01*
G01*
D48*
%TO.N,CAM_CLKINTRNL*%
X9940000Y4560000D02*
X8894852Y4560000D01*
X8480319Y3538000D02*
X8120000Y3538000D01*
X8710000Y4403432D02*
X8710000Y3793137D01*
X8894852Y4560000D02*
G75*
G03*
X8750035Y4499965I48J-204800D01*
G01*
X8710000Y3793137D02*
G75*
G02*
X8630011Y3599989I-273100J-37D01*
G01*
X8750000Y4500000D02*
G75*
G03*
X8709987Y4403432I96600J-96600D01*
G01*
X8630000Y3600000D02*
G75*
G02*
X8480319Y3537992I-149700J149700D01*
G01*
D10*
%TO.N,Net-(JP2-A)*%
X-7790129Y-20489791D02*
X-8326535Y-20489791D01*
X-8326535Y-20489791D02*
G75*
G02*
X-9339990Y-20069990I35J1433291D01*
G01*
D49*
%TO.N,Net-(JP3-A)*%
X-17613762Y-156239D02*
X-17670000Y-100000D01*
X-17140000Y-1300000D02*
G75*
G03*
X-17613766Y-156243I-1617500J0D01*
G01*
%TD*%
%TA.AperFunction,Conductor*%
%TO.N,VBUS*%
G36*
X-611390Y-13688066D02*
G01*
X-499219Y-13745220D01*
X-499217Y-13745220D01*
X-499216Y-13745221D01*
X-304545Y-13808474D01*
X-304539Y-13808475D01*
X-304534Y-13808477D01*
X-203443Y-13824488D01*
X-102354Y-13840500D01*
X-102352Y-13840500D01*
X102354Y-13840500D01*
X183224Y-13827690D01*
X304534Y-13808477D01*
X304541Y-13808474D01*
X304544Y-13808474D01*
X392927Y-13779756D01*
X499219Y-13745220D01*
X611390Y-13688066D01*
X644985Y-13680000D01*
X5667389Y-13680000D01*
X5688237Y-13682997D01*
X5713790Y-13690500D01*
X5846210Y-13690500D01*
X5871763Y-13682997D01*
X5892611Y-13680000D01*
X8501334Y-13680000D01*
X8553660Y-13701674D01*
X8562079Y-13711738D01*
X8686747Y-13890949D01*
X8700000Y-13933207D01*
X8700000Y-14678231D01*
X8678326Y-14730557D01*
X8676992Y-14731857D01*
X8521420Y-14879650D01*
X8470454Y-14900000D01*
X4578467Y-14900000D01*
X4526142Y-14878326D01*
X4477317Y-14829502D01*
X4477316Y-14829501D01*
X4363190Y-14763610D01*
X4363181Y-14763606D01*
X4235894Y-14729500D01*
X4235892Y-14729500D01*
X4104108Y-14729500D01*
X4104106Y-14729500D01*
X3976818Y-14763606D01*
X3976809Y-14763610D01*
X3862685Y-14829500D01*
X3524360Y-15167826D01*
X3472034Y-15189500D01*
X2925326Y-15189500D01*
X2876615Y-15199189D01*
X2852259Y-15204034D01*
X2769399Y-15259398D01*
X2769398Y-15259399D01*
X2714034Y-15342259D01*
X2699500Y-15415327D01*
X2699500Y-16914672D01*
X2714472Y-16989942D01*
X2703423Y-17045491D01*
X2672038Y-17071248D01*
X2672065Y-17071294D01*
X2671788Y-17071453D01*
X2670215Y-17072745D01*
X2667867Y-17073717D01*
X2536637Y-17149483D01*
X2429483Y-17256637D01*
X2353721Y-17387860D01*
X2353717Y-17387869D01*
X2314500Y-17534231D01*
X2314500Y-17685768D01*
X2353717Y-17832130D01*
X2353721Y-17832139D01*
X2429483Y-17963362D01*
X2429485Y-17963365D01*
X2536635Y-18070515D01*
X2536637Y-18070516D01*
X2556379Y-18081914D01*
X2590857Y-18126847D01*
X2583465Y-18183000D01*
X2538532Y-18217478D01*
X2519379Y-18220000D01*
X-2519379Y-18220000D01*
X-2571705Y-18198326D01*
X-2593379Y-18146000D01*
X-2571705Y-18093674D01*
X-2556379Y-18081914D01*
X-2536635Y-18070515D01*
X-2429485Y-17963365D01*
X-2353719Y-17832135D01*
X-2314501Y-17685768D01*
X-2314500Y-17685768D01*
X-2314500Y-17534232D01*
X-2314501Y-17534231D01*
X-2353718Y-17387869D01*
X-2353719Y-17387865D01*
X-2429485Y-17256635D01*
X-2536635Y-17149485D01*
X-2573175Y-17128388D01*
X-2667868Y-17073717D01*
X-2670213Y-17072746D01*
X-2671119Y-17071840D01*
X-2672065Y-17071294D01*
X-2671919Y-17071040D01*
X-2710262Y-17032698D01*
X-2714473Y-16989941D01*
X-2714036Y-16987742D01*
X-2714034Y-16987740D01*
X-2699500Y-16914674D01*
X-2699500Y-15415327D01*
X-2150500Y-15415327D01*
X-2150500Y-16914672D01*
X-2135966Y-16987740D01*
X-2083207Y-17066702D01*
X-2080601Y-17070601D01*
X-1997740Y-17125966D01*
X-1924674Y-17140500D01*
X-1924672Y-17140500D01*
X-1575328Y-17140500D01*
X-1575326Y-17140500D01*
X-1514436Y-17128388D01*
X-1485564Y-17128388D01*
X-1424674Y-17140500D01*
X-1424672Y-17140500D01*
X-1075328Y-17140500D01*
X-1075326Y-17140500D01*
X-1014436Y-17128388D01*
X-985564Y-17128388D01*
X-924674Y-17140500D01*
X-924672Y-17140500D01*
X-575328Y-17140500D01*
X-575326Y-17140500D01*
X-514436Y-17128388D01*
X-485564Y-17128388D01*
X-424674Y-17140500D01*
X-424672Y-17140500D01*
X-75328Y-17140500D01*
X-75326Y-17140500D01*
X-14436Y-17128388D01*
X14436Y-17128388D01*
X75326Y-17140500D01*
X75328Y-17140500D01*
X424672Y-17140500D01*
X424674Y-17140500D01*
X485564Y-17128388D01*
X514436Y-17128388D01*
X575326Y-17140500D01*
X575328Y-17140500D01*
X924672Y-17140500D01*
X924674Y-17140500D01*
X985564Y-17128388D01*
X1014436Y-17128388D01*
X1075326Y-17140500D01*
X1075328Y-17140500D01*
X1424672Y-17140500D01*
X1424674Y-17140500D01*
X1485564Y-17128388D01*
X1514436Y-17128388D01*
X1575326Y-17140500D01*
X1575328Y-17140500D01*
X1924672Y-17140500D01*
X1924674Y-17140500D01*
X1997740Y-17125966D01*
X2080601Y-17070601D01*
X2135966Y-16987740D01*
X2150500Y-16914674D01*
X2150500Y-15415326D01*
X2135966Y-15342260D01*
X2080601Y-15259399D01*
X1997740Y-15204034D01*
X1924674Y-15189500D01*
X1575326Y-15189500D01*
X1514436Y-15201611D01*
X1485564Y-15201611D01*
X1424674Y-15189500D01*
X1075326Y-15189500D01*
X1014436Y-15201611D01*
X985564Y-15201611D01*
X924674Y-15189500D01*
X575326Y-15189500D01*
X514436Y-15201611D01*
X485564Y-15201611D01*
X424674Y-15189500D01*
X75326Y-15189500D01*
X14436Y-15201611D01*
X-14436Y-15201611D01*
X-75326Y-15189500D01*
X-424674Y-15189500D01*
X-485564Y-15201611D01*
X-514436Y-15201611D01*
X-575326Y-15189500D01*
X-924674Y-15189500D01*
X-985564Y-15201611D01*
X-1014436Y-15201611D01*
X-1075326Y-15189500D01*
X-1424674Y-15189500D01*
X-1485564Y-15201611D01*
X-1514436Y-15201611D01*
X-1575326Y-15189500D01*
X-1924674Y-15189500D01*
X-1973385Y-15199189D01*
X-1997741Y-15204034D01*
X-2080601Y-15259398D01*
X-2080602Y-15259399D01*
X-2135966Y-15342259D01*
X-2150500Y-15415327D01*
X-2699500Y-15415327D01*
X-2699500Y-15415326D01*
X-2714034Y-15342260D01*
X-2737030Y-15307844D01*
X-2749500Y-15266733D01*
X-2749500Y-15022953D01*
X-2746978Y-15003799D01*
X-2739500Y-14975893D01*
X-2739500Y-14844109D01*
X-2757479Y-14777008D01*
X-2760000Y-14757856D01*
X-2760000Y-14369648D01*
X-2739528Y-14318553D01*
X-2349545Y-13910000D01*
X-2151864Y-13702904D01*
X-2100056Y-13680020D01*
X-2098336Y-13680000D01*
X-644985Y-13680000D01*
X-611390Y-13688066D01*
G37*
%TD.AperFunction*%
%TD*%
M02*
