%TF.GenerationSoftware,KiCad,Pcbnew,8.0.7*%
%TF.CreationDate,2025-01-14T11:40:34+01:00*%
%TF.ProjectId,test,74657374-2e6b-4696-9361-645f70636258,rev?*%
%TF.SameCoordinates,PX517370cPY341b1c8*%
%TF.FileFunction,Soldermask,Top*%
%TF.FilePolarity,Negative*%
%FSLAX46Y46*%
G04 Gerber Fmt 4.6, Leading zero omitted, Abs format (unit mm)*
G04 Created by KiCad (PCBNEW 8.0.7) date 2025-01-14 11:40:34*
%MOMM*%
%LPD*%
G01*
G04 APERTURE LIST*
G04 Aperture macros list*
%AMRoundRect*
0 Rectangle with rounded corners*
0 $1 Rounding radius*
0 $2 $3 $4 $5 $6 $7 $8 $9 X,Y pos of 4 corners*
0 Add a 4 corners polygon primitive as box body*
4,1,4,$2,$3,$4,$5,$6,$7,$8,$9,$2,$3,0*
0 Add four circle primitives for the rounded corners*
1,1,$1+$1,$2,$3*
1,1,$1+$1,$4,$5*
1,1,$1+$1,$6,$7*
1,1,$1+$1,$8,$9*
0 Add four rect primitives between the rounded corners*
20,1,$1+$1,$2,$3,$4,$5,0*
20,1,$1+$1,$4,$5,$6,$7,0*
20,1,$1+$1,$6,$7,$8,$9,0*
20,1,$1+$1,$8,$9,$2,$3,0*%
%AMRotRect*
0 Rectangle, with rotation*
0 The origin of the aperture is its center*
0 $1 length*
0 $2 width*
0 $3 Rotation angle, in degrees counterclockwise*
0 Add horizontal line*
21,1,$1,$2,0,0,$3*%
%AMFreePoly0*
4,1,19,0.550000,-0.750000,0.000000,-0.750000,0.000000,-0.744911,-0.071157,-0.744911,-0.207708,-0.704816,-0.327430,-0.627875,-0.420627,-0.520320,-0.479746,-0.390866,-0.500000,-0.250000,-0.500000,0.250000,-0.479746,0.390866,-0.420627,0.520320,-0.327430,0.627875,-0.207708,0.704816,-0.071157,0.744911,0.000000,0.744911,0.000000,0.750000,0.550000,0.750000,0.550000,-0.750000,0.550000,-0.750000,
$1*%
%AMFreePoly1*
4,1,19,0.000000,0.744911,0.071157,0.744911,0.207708,0.704816,0.327430,0.627875,0.420627,0.520320,0.479746,0.390866,0.500000,0.250000,0.500000,-0.250000,0.479746,-0.390866,0.420627,-0.520320,0.327430,-0.627875,0.207708,-0.704816,0.071157,-0.744911,0.000000,-0.744911,0.000000,-0.750000,-0.550000,-0.750000,-0.550000,0.750000,0.000000,0.750000,0.000000,0.744911,0.000000,0.744911,
$1*%
%AMFreePoly2*
4,1,53,0.180798,1.454629,0.352531,1.394537,0.506585,1.297738,0.635238,1.169085,0.732037,1.015031,0.792129,0.843298,0.812500,0.662500,0.792129,0.481702,0.732037,0.309969,0.635238,0.155915,0.506585,0.027262,0.352531,-0.069537,0.180798,-0.129629,0.000000,-0.150000,-0.180798,-0.129629,-0.352531,-0.069537,-0.506585,0.027262,-0.635238,0.155915,-0.732037,0.309969,-0.792129,0.481702,
-0.812500,0.662500,-0.517770,0.662500,-0.496797,0.516627,-0.435576,0.382572,-0.339067,0.271196,-0.215089,0.191520,-0.073686,0.150000,0.073686,0.150000,0.215089,0.191520,0.339067,0.271196,0.435576,0.382572,0.496797,0.516627,0.517770,0.662500,0.496797,0.808373,0.435576,0.942428,0.339067,1.053804,0.215089,1.133480,0.073686,1.175000,-0.073686,1.175000,-0.215089,1.133480,
-0.339067,1.053804,-0.435576,0.942428,-0.496797,0.808373,-0.517770,0.662500,-0.812500,0.662500,-0.792129,0.843298,-0.732037,1.015031,-0.635238,1.169085,-0.506585,1.297738,-0.352531,1.394537,-0.180798,1.454629,0.000000,1.475000,0.180798,1.454629,0.180798,1.454629,$1*%
%AMFreePoly3*
4,1,6,1.000000,0.000000,0.500000,-0.750000,-0.500000,-0.750000,-0.500000,0.750000,0.500000,0.750000,1.000000,0.000000,1.000000,0.000000,$1*%
%AMFreePoly4*
4,1,6,0.500000,-0.750000,-0.650000,-0.750000,-0.150000,0.000000,-0.650000,0.750000,0.500000,0.750000,0.500000,-0.750000,0.500000,-0.750000,$1*%
G04 Aperture macros list end*
%ADD10FreePoly0,270.000000*%
%ADD11R,1.500000X1.000000*%
%ADD12FreePoly1,270.000000*%
%ADD13R,0.900000X1.500000*%
%ADD14RoundRect,0.237500X0.237500X-0.300000X0.237500X0.300000X-0.237500X0.300000X-0.237500X-0.300000X0*%
%ADD15RoundRect,0.140000X-0.140000X-0.170000X0.140000X-0.170000X0.140000X0.170000X-0.140000X0.170000X0*%
%ADD16RotRect,1.400000X1.000000X330.000000*%
%ADD17C,0.800000*%
%ADD18RoundRect,0.200000X0.275000X-0.200000X0.275000X0.200000X-0.275000X0.200000X-0.275000X-0.200000X0*%
%ADD19RoundRect,0.237500X-0.250000X-0.237500X0.250000X-0.237500X0.250000X0.237500X-0.250000X0.237500X0*%
%ADD20R,1.300000X1.550000*%
%ADD21RoundRect,0.237500X0.300000X0.237500X-0.300000X0.237500X-0.300000X-0.237500X0.300000X-0.237500X0*%
%ADD22RoundRect,0.225000X-0.250000X0.225000X-0.250000X-0.225000X0.250000X-0.225000X0.250000X0.225000X0*%
%ADD23C,0.500000*%
%ADD24R,0.522000X0.600000*%
%ADD25FreePoly2,0.000000*%
%ADD26RoundRect,0.237500X0.237500X-0.250000X0.237500X0.250000X-0.237500X0.250000X-0.237500X-0.250000X0*%
%ADD27RoundRect,0.237500X-0.237500X0.300000X-0.237500X-0.300000X0.237500X-0.300000X0.237500X0.300000X0*%
%ADD28C,1.803400*%
%ADD29C,1.498600*%
%ADD30R,1.300000X0.300000*%
%ADD31R,1.600000X2.000000*%
%ADD32RoundRect,0.140000X0.140000X0.170000X-0.140000X0.170000X-0.140000X-0.170000X0.140000X-0.170000X0*%
%ADD33RoundRect,0.225000X0.225000X0.250000X-0.225000X0.250000X-0.225000X-0.250000X0.225000X-0.250000X0*%
%ADD34C,2.100000*%
%ADD35RoundRect,0.250000X0.625000X-0.312500X0.625000X0.312500X-0.625000X0.312500X-0.625000X-0.312500X0*%
%ADD36RoundRect,0.225000X-0.225000X-0.250000X0.225000X-0.250000X0.225000X0.250000X-0.225000X0.250000X0*%
%ADD37RoundRect,0.040000X-0.360000X0.410000X-0.360000X-0.410000X0.360000X-0.410000X0.360000X0.410000X0*%
%ADD38RoundRect,0.140000X-0.170000X0.140000X-0.170000X-0.140000X0.170000X-0.140000X0.170000X0.140000X0*%
%ADD39FreePoly3,180.000000*%
%ADD40FreePoly4,180.000000*%
%ADD41RoundRect,0.237500X-0.237500X0.250000X-0.237500X-0.250000X0.237500X-0.250000X0.237500X0.250000X0*%
%ADD42O,1.000000X2.100000*%
%ADD43O,1.000000X1.600000*%
%ADD44C,0.650000*%
%ADD45R,0.600000X1.450000*%
%ADD46R,0.300000X1.450000*%
%ADD47RoundRect,0.237500X0.250000X0.237500X-0.250000X0.237500X-0.250000X-0.237500X0.250000X-0.237500X0*%
%ADD48RoundRect,0.100000X-0.900000X0.900000X-0.900000X-0.900000X0.900000X-0.900000X0.900000X0.900000X0*%
%ADD49C,2.374900*%
%ADD50C,0.990600*%
G04 APERTURE END LIST*
D10*
%TO.C,JP1*%
X9940000Y4560000D03*
D11*
X9940000Y3260000D03*
D12*
X9940000Y1960000D03*
%TD*%
D13*
%TO.C,D4*%
X-8215000Y-2440000D03*
X-4915000Y-2440000D03*
X-4915000Y2460000D03*
X-8215000Y2460000D03*
%TD*%
D14*
%TO.C,C2*%
X-6680000Y14097500D03*
X-6680000Y15822500D03*
%TD*%
D15*
%TO.C,C30*%
X1230000Y-7170000D03*
X2190000Y-7170000D03*
%TD*%
D16*
%TO.C,SW4*%
X-11789872Y-16217547D03*
X-12639871Y-17689790D03*
D17*
X-9115000Y-17184535D03*
X-10415000Y-19436201D03*
D16*
X-6940128Y-19017547D03*
X-7790129Y-20489791D03*
%TD*%
D18*
%TO.C,R1*%
X-5130000Y10725000D03*
X-5130000Y12375000D03*
%TD*%
D19*
%TO.C,R2*%
X-7392500Y-7750000D03*
X-5567500Y-7750000D03*
%TD*%
D20*
%TO.C,SW5*%
X-2250000Y3975000D03*
X2250000Y3975000D03*
X2250000Y-3975000D03*
X-2250000Y-3975000D03*
%TD*%
D21*
%TO.C,C21*%
X17240000Y-8680000D03*
X15515000Y-8680000D03*
%TD*%
D22*
%TO.C,C1*%
X-6700000Y12325000D03*
X-6700000Y10775000D03*
%TD*%
D23*
%TO.C,MK2*%
X-7552000Y-10230000D03*
D24*
X-5478000Y-9330000D03*
X-6300000Y-9330000D03*
D25*
X-7552000Y-10892500D03*
D24*
X-6300000Y-11130000D03*
X-5478000Y-11130000D03*
X-5478000Y-10230000D03*
%TD*%
D21*
%TO.C,C4*%
X-5637500Y-12690000D03*
X-7362500Y-12690000D03*
%TD*%
D26*
%TO.C,R12*%
X-11780000Y14257500D03*
X-11780000Y16082500D03*
%TD*%
D15*
%TO.C,C29*%
X9110000Y6080000D03*
X10070000Y6080000D03*
%TD*%
D27*
%TO.C,C26*%
X-11670000Y-455000D03*
X-11670000Y-2180000D03*
%TD*%
D28*
%TO.C,SW2*%
X14927083Y11787951D03*
X9717637Y16478557D03*
D29*
X15660772Y14478363D03*
X12316619Y17489452D03*
%TD*%
D30*
%TO.C,U3*%
X15330000Y-4280000D03*
X15330000Y-3780000D03*
X15330000Y-3280000D03*
X15330000Y-2780000D03*
X15330000Y-2280000D03*
X15330000Y-1780000D03*
X15330000Y-1280000D03*
X15330000Y-780000D03*
X15330000Y-280000D03*
X15330000Y220000D03*
X15330000Y720000D03*
X15330000Y1220000D03*
X15330000Y1720000D03*
X15330000Y2220000D03*
X15330000Y2720000D03*
X15330000Y3220000D03*
X15330000Y3720000D03*
X15330000Y4220000D03*
X15330000Y4720000D03*
X15330000Y5220000D03*
X15330000Y5720000D03*
X15330000Y6220000D03*
X15330000Y6720000D03*
X15330000Y7220000D03*
D31*
X18010000Y-6130000D03*
X18010000Y9070000D03*
%TD*%
D32*
%TO.C,C33*%
X8120000Y3538000D03*
X7160000Y3538000D03*
%TD*%
D33*
%TO.C,C23*%
X10855000Y7440000D03*
X9305000Y7440000D03*
%TD*%
D19*
%TO.C,R10*%
X-16092500Y6530000D03*
X-14267500Y6530000D03*
%TD*%
D26*
%TO.C,R3*%
X-3949500Y-9552500D03*
X-3949500Y-7727500D03*
%TD*%
D27*
%TO.C,C25*%
X-10120000Y-437500D03*
X-10120000Y-2162500D03*
%TD*%
D34*
%TO.C,REF\u002A\u002A*%
X0Y-12540000D03*
%TD*%
D32*
%TO.C,C31*%
X11870000Y1390000D03*
X12830000Y1390000D03*
%TD*%
D35*
%TO.C,NC3*%
X7257500Y-3264500D03*
X7257500Y-339500D03*
%TD*%
D14*
%TO.C,C3*%
X-5110000Y14097500D03*
X-5110000Y15822500D03*
%TD*%
D36*
%TO.C,C24*%
X11012500Y148000D03*
X12562500Y148000D03*
%TD*%
D37*
%TO.C,U4*%
X6420000Y6790000D03*
X6420000Y4940000D03*
X7870000Y4940000D03*
X7870000Y6790000D03*
%TD*%
D38*
%TO.C,C13*%
X10740000Y-1190000D03*
X10740000Y-2150000D03*
%TD*%
D39*
%TO.C,JP3*%
X-17670000Y-100000D03*
D40*
X-19120000Y-100000D03*
%TD*%
D41*
%TO.C,R4*%
X-2359500Y-7707500D03*
X-2359500Y-9532500D03*
%TD*%
D42*
%TO.C,P1*%
X-4320000Y-17080000D03*
D43*
X-4320000Y-21260000D03*
D44*
X-2890000Y-17610000D03*
X2890000Y-17610000D03*
D42*
X4320000Y-17080000D03*
D45*
X-3250000Y-16165000D03*
X-2450000Y-16165000D03*
D46*
X-1250000Y-16165000D03*
X-250000Y-16165000D03*
X250000Y-16165000D03*
X1250000Y-16165000D03*
D45*
X2450000Y-16165000D03*
X3250000Y-16165000D03*
X3250000Y-16165000D03*
X2450000Y-16165000D03*
D46*
X1750000Y-16165000D03*
X750000Y-16165000D03*
X-750000Y-16165000D03*
X-1750000Y-16165000D03*
D45*
X-2450000Y-16165000D03*
X-3250000Y-16165000D03*
D43*
X4320000Y-21260000D03*
%TD*%
D38*
%TO.C,C27*%
X-13170000Y16050000D03*
X-13170000Y15090000D03*
%TD*%
D27*
%TO.C,C5*%
X-3939500Y-11257500D03*
X-3939500Y-12982500D03*
%TD*%
D28*
%TO.C,SW1*%
X7456432Y17622643D03*
X599616Y19080103D03*
D29*
X6746619Y20319452D03*
X2344953Y21255056D03*
%TD*%
D32*
%TO.C,C9*%
X12830000Y5000000D03*
X11870000Y5000000D03*
%TD*%
D47*
%TO.C,R15*%
X2965000Y-5860000D03*
X1140000Y-5860000D03*
%TD*%
D48*
%TO.C,3v3J2*%
X-13710000Y2516100D03*
X-13710000Y-1751100D03*
%TD*%
D32*
%TO.C,C10*%
X12820000Y2360000D03*
X11860000Y2360000D03*
%TD*%
D26*
%TO.C,R7*%
X9250000Y-2105000D03*
X9250000Y-280000D03*
%TD*%
D49*
%TO.C,J2*%
X6820000Y9360000D03*
D50*
X6820000Y11900000D03*
D49*
X6820000Y14440000D03*
X1105000Y9360000D03*
X1105000Y14440000D03*
D50*
X-800000Y10885000D03*
X-800000Y12915000D03*
%TD*%
M02*
