%TF.GenerationSoftware,KiCad,Pcbnew,8.0.7*%
%TF.CreationDate,2025-01-14T11:40:34+01:00*%
%TF.ProjectId,test,74657374-2e6b-4696-9361-645f70636258,rev?*%
%TF.SameCoordinates,PX517370cPY341b1c8*%
%TF.FileFunction,Legend,Top*%
%TF.FilePolarity,Positive*%
%FSLAX46Y46*%
G04 Gerber Fmt 4.6, Leading zero omitted, Abs format (unit mm)*
G04 Created by KiCad (PCBNEW 8.0.7) date 2025-01-14 11:40:34*
%MOMM*%
%LPD*%
G01*
G04 APERTURE LIST*
%ADD10C,0.327389*%
%ADD11C,0.312697*%
%ADD12C,0.227643*%
%ADD13C,0.150000*%
%ADD14C,0.125000*%
%ADD15C,0.200000*%
%ADD16C,0.120000*%
%ADD17C,0.152400*%
%ADD18C,0.100000*%
G04 APERTURE END LIST*
D10*
X-8586306Y-3890000D02*
G75*
G02*
X-8913694Y-3890000I-163694J0D01*
G01*
X-8913694Y-3890000D02*
G75*
G02*
X-8586306Y-3890000I163694J0D01*
G01*
D11*
X-11273652Y-14860000D02*
G75*
G02*
X-11586348Y-14860000I-156348J0D01*
G01*
X-11586348Y-14860000D02*
G75*
G02*
X-11273652Y-14860000I156348J0D01*
G01*
D12*
X5583821Y7302643D02*
G75*
G02*
X5356179Y7302643I-113821J0D01*
G01*
X5356179Y7302643D02*
G75*
G02*
X5583821Y7302643I113821J0D01*
G01*
D13*
X-16090000Y23010000D02*
X-9050000Y23010000D01*
X-9050000Y21740000D01*
X-16090000Y21740000D01*
X-16090000Y23010000D01*
G36*
X-16090000Y23010000D02*
G01*
X-9050000Y23010000D01*
X-9050000Y21740000D01*
X-16090000Y21740000D01*
X-16090000Y23010000D01*
G37*
X-15930000Y19270000D02*
X-9050000Y19270000D01*
X-9050000Y18000000D01*
X-15930000Y18000000D01*
X-15930000Y19270000D01*
G36*
X-15930000Y19270000D02*
G01*
X-9050000Y19270000D01*
X-9050000Y18000000D01*
X-15930000Y18000000D01*
X-15930000Y19270000D01*
G37*
X-15830000Y21140000D02*
X-9050000Y21140000D01*
X-9050000Y19870000D01*
X-15830000Y19870000D01*
X-15830000Y21140000D01*
G36*
X-15830000Y21140000D02*
G01*
X-9050000Y21140000D01*
X-9050000Y19870000D01*
X-15830000Y19870000D01*
X-15830000Y21140000D01*
G37*
D14*
X-15428717Y-2261833D02*
X-15047764Y-2261833D01*
X-15238241Y-2452309D02*
X-15238241Y-2071357D01*
X-1746812Y-2732309D02*
X-2032526Y-2732309D01*
X-1889669Y-2732309D02*
X-1889669Y-2232309D01*
X-1889669Y-2232309D02*
X-1937288Y-2303738D01*
X-1937288Y-2303738D02*
X-1984907Y-2351357D01*
X-1984907Y-2351357D02*
X-2032526Y-2375166D01*
D15*
G36*
X-6840373Y-15294709D02*
G01*
X-6716301Y-15366342D01*
X-6689006Y-15407682D01*
X-6691344Y-15446632D01*
X-6953606Y-15357911D01*
X-6931161Y-15319036D01*
X-6889821Y-15291741D01*
X-6840373Y-15294709D01*
G37*
G36*
X-8489945Y-14342328D02*
G01*
X-8407113Y-14390151D01*
X-8370393Y-14445767D01*
X-8361363Y-14479465D01*
X-8365356Y-14545989D01*
X-8484606Y-14752537D01*
X-8540223Y-14789259D01*
X-8573923Y-14798288D01*
X-8640445Y-14794296D01*
X-8723276Y-14746474D01*
X-8759996Y-14690859D01*
X-8769027Y-14657156D01*
X-8765034Y-14590635D01*
X-8645784Y-14384086D01*
X-8590169Y-14347365D01*
X-8556468Y-14338335D01*
X-8489945Y-14342328D01*
G37*
G36*
X-9023993Y-13649095D02*
G01*
X-8987273Y-13704711D01*
X-8978243Y-13738409D01*
X-8982236Y-13804933D01*
X-9030059Y-13887764D01*
X-9085675Y-13924485D01*
X-9119375Y-13933514D01*
X-9185897Y-13929522D01*
X-9408766Y-13800848D01*
X-9246862Y-13520421D01*
X-9023993Y-13649095D01*
G37*
G36*
X-5450164Y-15353206D02*
G01*
X-6161275Y-16584886D01*
X-6895214Y-16161146D01*
X-6584105Y-16161146D01*
X-6574006Y-16198835D01*
X-6550254Y-16229790D01*
X-6516463Y-16249299D01*
X-6477779Y-16254392D01*
X-6440090Y-16244293D01*
X-6409135Y-16220541D01*
X-6397716Y-16204606D01*
X-6171426Y-15812657D01*
X-6115810Y-15775937D01*
X-6082108Y-15766907D01*
X-6015584Y-15770899D01*
X-5953550Y-15806716D01*
X-5935694Y-15814807D01*
X-5897010Y-15819899D01*
X-5859321Y-15809801D01*
X-5828365Y-15786048D01*
X-5808856Y-15752258D01*
X-5803764Y-15713573D01*
X-5813862Y-15675885D01*
X-5837615Y-15644929D01*
X-5853549Y-15633511D01*
X-5936028Y-15585892D01*
X-5953884Y-15577801D01*
X-5957447Y-15577331D01*
X-5960679Y-15575760D01*
X-5980037Y-15572674D01*
X-6051830Y-15568365D01*
X-6061299Y-15533027D01*
X-6085051Y-15502072D01*
X-6118842Y-15482563D01*
X-6157526Y-15477470D01*
X-6195215Y-15487569D01*
X-6226171Y-15511321D01*
X-6237589Y-15527256D01*
X-6570922Y-16104606D01*
X-6579012Y-16122462D01*
X-6584105Y-16161146D01*
X-6895214Y-16161146D01*
X-7721229Y-15684246D01*
X-7302816Y-15684246D01*
X-7302334Y-15686741D01*
X-7301889Y-15698393D01*
X-7297793Y-15710244D01*
X-7295414Y-15722556D01*
X-7289972Y-15732873D01*
X-7289143Y-15735271D01*
X-7288067Y-15736484D01*
X-7286268Y-15739895D01*
X-7227599Y-15828753D01*
X-7215247Y-15843975D01*
X-7212270Y-15845987D01*
X-7210083Y-15848838D01*
X-7194148Y-15860257D01*
X-7029191Y-15955495D01*
X-7011335Y-15963585D01*
X-7007775Y-15964053D01*
X-7004542Y-15965626D01*
X-6985183Y-15968712D01*
X-6878895Y-15975092D01*
X-6859306Y-15974344D01*
X-6822428Y-15961598D01*
X-6793235Y-15935711D01*
X-6776169Y-15900623D01*
X-6773832Y-15861675D01*
X-6786577Y-15824797D01*
X-6812464Y-15795603D01*
X-6847553Y-15778538D01*
X-6866912Y-15775452D01*
X-6949634Y-15770486D01*
X-7073705Y-15698853D01*
X-7101000Y-15657513D01*
X-7098032Y-15608065D01*
X-7055587Y-15534547D01*
X-6673232Y-15663894D01*
X-6654136Y-15668326D01*
X-6644357Y-15667674D01*
X-6634646Y-15668953D01*
X-6625086Y-15666391D01*
X-6615204Y-15665733D01*
X-6606419Y-15661389D01*
X-6596958Y-15658854D01*
X-6589105Y-15652827D01*
X-6580228Y-15648439D01*
X-6573777Y-15641067D01*
X-6566002Y-15635102D01*
X-6554584Y-15619167D01*
X-6506966Y-15536688D01*
X-6498875Y-15518832D01*
X-6498407Y-15515271D01*
X-6496834Y-15512039D01*
X-6493748Y-15492680D01*
X-6487368Y-15386392D01*
X-6487516Y-15382538D01*
X-6487190Y-15380950D01*
X-6487671Y-15378461D01*
X-6488116Y-15366803D01*
X-6492214Y-15354948D01*
X-6494591Y-15342640D01*
X-6500034Y-15332322D01*
X-6500862Y-15329925D01*
X-6501938Y-15328711D01*
X-6503737Y-15325301D01*
X-6562406Y-15236443D01*
X-6574758Y-15221221D01*
X-6577736Y-15219208D01*
X-6579922Y-15216358D01*
X-6595857Y-15204939D01*
X-6760815Y-15109701D01*
X-6778671Y-15101611D01*
X-6782233Y-15101142D01*
X-6785465Y-15099570D01*
X-6804824Y-15096484D01*
X-6911111Y-15090104D01*
X-6914965Y-15090251D01*
X-6916553Y-15089926D01*
X-6919042Y-15090406D01*
X-6930700Y-15090852D01*
X-6942555Y-15094949D01*
X-6954863Y-15097327D01*
X-6965181Y-15102769D01*
X-6967578Y-15103598D01*
X-6968792Y-15104674D01*
X-6972202Y-15106473D01*
X-7061060Y-15165142D01*
X-7076282Y-15177494D01*
X-7078295Y-15180471D01*
X-7081145Y-15182658D01*
X-7092563Y-15198593D01*
X-7187852Y-15363637D01*
X-7187854Y-15363640D01*
X-7187856Y-15363643D01*
X-7283040Y-15528508D01*
X-7291130Y-15546364D01*
X-7291599Y-15549925D01*
X-7293171Y-15553158D01*
X-7296257Y-15572517D01*
X-7302637Y-15678804D01*
X-7302491Y-15682653D01*
X-7302816Y-15684246D01*
X-7721229Y-15684246D01*
X-8482110Y-15244951D01*
X-8151294Y-15244951D01*
X-8150357Y-15251265D01*
X-8151112Y-15257600D01*
X-8147516Y-15270396D01*
X-8145563Y-15283546D01*
X-8142282Y-15289018D01*
X-8140555Y-15295163D01*
X-8132333Y-15305612D01*
X-8125499Y-15317010D01*
X-8120375Y-15320809D01*
X-8116427Y-15325826D01*
X-8104834Y-15332332D01*
X-8094156Y-15340249D01*
X-8087965Y-15341798D01*
X-8082400Y-15344922D01*
X-8069204Y-15346495D01*
X-8056306Y-15349725D01*
X-8049992Y-15348787D01*
X-8043657Y-15349543D01*
X-8030861Y-15345946D01*
X-8017711Y-15343994D01*
X-8012239Y-15340712D01*
X-8006094Y-15338986D01*
X-7989574Y-15328431D01*
X-7782990Y-15165873D01*
X-7820476Y-15426061D01*
X-7821357Y-15445644D01*
X-7819780Y-15451830D01*
X-7819885Y-15458209D01*
X-7815003Y-15470571D01*
X-7811718Y-15483453D01*
X-7807897Y-15488561D01*
X-7805551Y-15494499D01*
X-7796305Y-15504055D01*
X-7788344Y-15514696D01*
X-7782858Y-15517953D01*
X-7778420Y-15522540D01*
X-7766228Y-15527827D01*
X-7754794Y-15534616D01*
X-7748475Y-15535526D01*
X-7742623Y-15538064D01*
X-7729340Y-15538283D01*
X-7716175Y-15540180D01*
X-7709989Y-15538602D01*
X-7703610Y-15538708D01*
X-7691248Y-15533825D01*
X-7678366Y-15530541D01*
X-7673258Y-15526719D01*
X-7667320Y-15524374D01*
X-7651964Y-15512189D01*
X-7153674Y-15030077D01*
X-7140989Y-15015131D01*
X-7125465Y-14979334D01*
X-7124821Y-14940321D01*
X-7139156Y-14904031D01*
X-7166287Y-14875990D01*
X-7202084Y-14860466D01*
X-7241096Y-14859822D01*
X-7277386Y-14874157D01*
X-7292743Y-14886341D01*
X-7580806Y-15165051D01*
X-7549382Y-14946950D01*
X-7548501Y-14927367D01*
X-7548808Y-14926163D01*
X-7548661Y-14924934D01*
X-7553616Y-14907305D01*
X-7558140Y-14889558D01*
X-7558883Y-14888566D01*
X-7559218Y-14887371D01*
X-7570563Y-14872953D01*
X-7581514Y-14858315D01*
X-7582578Y-14857683D01*
X-7583346Y-14856707D01*
X-7599329Y-14847737D01*
X-7615064Y-14838395D01*
X-7616293Y-14838218D01*
X-7617372Y-14837612D01*
X-7635534Y-14835445D01*
X-7653683Y-14832831D01*
X-7654887Y-14833137D01*
X-7656116Y-14832991D01*
X-7673745Y-14837945D01*
X-7691492Y-14842470D01*
X-7692485Y-14843212D01*
X-7693679Y-14843548D01*
X-7710198Y-14854102D01*
X-7883371Y-14990367D01*
X-7786031Y-14601541D01*
X-7783156Y-14582150D01*
X-7788887Y-14543554D01*
X-7808951Y-14510090D01*
X-7840294Y-14486851D01*
X-7878144Y-14477376D01*
X-7916739Y-14483107D01*
X-7950203Y-14503171D01*
X-7973442Y-14534513D01*
X-7980044Y-14552972D01*
X-8148419Y-15225559D01*
X-8151294Y-15244951D01*
X-8482110Y-15244951D01*
X-9492895Y-14661374D01*
X-8969639Y-14661374D01*
X-8969261Y-14671289D01*
X-8969605Y-14673907D01*
X-8969027Y-14677410D01*
X-8968891Y-14680963D01*
X-8968028Y-14683460D01*
X-8966412Y-14693248D01*
X-8948981Y-14758297D01*
X-8945487Y-14767582D01*
X-8944986Y-14770175D01*
X-8943330Y-14773315D01*
X-8942077Y-14776644D01*
X-8940468Y-14778741D01*
X-8935840Y-14787514D01*
X-8877171Y-14876372D01*
X-8864819Y-14891594D01*
X-8861842Y-14893606D01*
X-8859655Y-14896457D01*
X-8843720Y-14907875D01*
X-8720003Y-14979304D01*
X-8702147Y-14987395D01*
X-8698585Y-14987864D01*
X-8695352Y-14989436D01*
X-8675993Y-14992522D01*
X-8569705Y-14998901D01*
X-8559792Y-14998522D01*
X-8557175Y-14998867D01*
X-8553673Y-14998288D01*
X-8550116Y-14998153D01*
X-8547617Y-14997289D01*
X-8537833Y-14995674D01*
X-8472785Y-14978245D01*
X-8463501Y-14974750D01*
X-8460904Y-14974249D01*
X-8457758Y-14972589D01*
X-8454438Y-14971340D01*
X-8452346Y-14969734D01*
X-8443565Y-14965103D01*
X-8354707Y-14906432D01*
X-8339485Y-14894080D01*
X-8337473Y-14891103D01*
X-8334623Y-14888917D01*
X-8323205Y-14872982D01*
X-8180348Y-14625548D01*
X-8172257Y-14607692D01*
X-8171789Y-14604130D01*
X-8170216Y-14600898D01*
X-8167130Y-14581539D01*
X-8160750Y-14475250D01*
X-8161129Y-14465334D01*
X-8160784Y-14462717D01*
X-8161363Y-14459215D01*
X-8161498Y-14455661D01*
X-8162363Y-14453160D01*
X-8163978Y-14443376D01*
X-8181408Y-14378327D01*
X-8184900Y-14369048D01*
X-8185402Y-14366450D01*
X-8187063Y-14363301D01*
X-8188313Y-14359980D01*
X-8189920Y-14357886D01*
X-8194549Y-14349111D01*
X-8253218Y-14260252D01*
X-8265570Y-14245030D01*
X-8268546Y-14243017D01*
X-8270734Y-14240166D01*
X-8286669Y-14228748D01*
X-8410387Y-14157320D01*
X-8428243Y-14149229D01*
X-8431807Y-14148759D01*
X-8435037Y-14147189D01*
X-8454396Y-14144103D01*
X-8560683Y-14137723D01*
X-8570598Y-14138101D01*
X-8573215Y-14137757D01*
X-8576719Y-14138335D01*
X-8580272Y-14138471D01*
X-8582770Y-14139334D01*
X-8592557Y-14140950D01*
X-8657606Y-14158380D01*
X-8666895Y-14161875D01*
X-8669484Y-14162376D01*
X-8672623Y-14164031D01*
X-8675953Y-14165285D01*
X-8678051Y-14166894D01*
X-8686823Y-14171522D01*
X-8775681Y-14230191D01*
X-8790903Y-14242543D01*
X-8792917Y-14245520D01*
X-8795767Y-14247708D01*
X-8807185Y-14263642D01*
X-8950042Y-14511078D01*
X-8958132Y-14528934D01*
X-8958601Y-14532495D01*
X-8960173Y-14535728D01*
X-8963259Y-14555087D01*
X-8969639Y-14661374D01*
X-9492895Y-14661374D01*
X-10071847Y-14327116D01*
X-10031010Y-14256384D01*
X-9883250Y-14256384D01*
X-9873151Y-14294073D01*
X-9849399Y-14325028D01*
X-9815608Y-14344537D01*
X-9776924Y-14349630D01*
X-9739235Y-14339531D01*
X-9708280Y-14315779D01*
X-9696861Y-14299844D01*
X-9508766Y-13974053D01*
X-9265455Y-14114530D01*
X-9247599Y-14122621D01*
X-9244037Y-14123090D01*
X-9240804Y-14124662D01*
X-9221445Y-14127748D01*
X-9115157Y-14134127D01*
X-9105244Y-14133748D01*
X-9102627Y-14134093D01*
X-9099125Y-14133514D01*
X-9095568Y-14133379D01*
X-9093069Y-14132515D01*
X-9083285Y-14130900D01*
X-9018237Y-14113471D01*
X-9008953Y-14109976D01*
X-9006356Y-14109475D01*
X-9003210Y-14107815D01*
X-8999890Y-14106566D01*
X-8997798Y-14104960D01*
X-8989017Y-14100329D01*
X-8900159Y-14041658D01*
X-8884937Y-14029306D01*
X-8882925Y-14026329D01*
X-8880075Y-14024143D01*
X-8868657Y-14008209D01*
X-8797228Y-13884491D01*
X-8789137Y-13866635D01*
X-8788669Y-13863074D01*
X-8787096Y-13859842D01*
X-8784010Y-13840483D01*
X-8777630Y-13734194D01*
X-8778009Y-13724278D01*
X-8777664Y-13721661D01*
X-8778243Y-13718159D01*
X-8778378Y-13714605D01*
X-8779243Y-13712104D01*
X-8780858Y-13702320D01*
X-8798288Y-13637271D01*
X-8801780Y-13627992D01*
X-8802282Y-13625394D01*
X-8803943Y-13622245D01*
X-8805193Y-13618924D01*
X-8806800Y-13616830D01*
X-8811429Y-13608055D01*
X-8870098Y-13519196D01*
X-8882450Y-13503974D01*
X-8885428Y-13501961D01*
X-8887614Y-13499111D01*
X-8903549Y-13487693D01*
X-9233464Y-13297216D01*
X-9251312Y-13289129D01*
X-9251320Y-13289125D01*
X-9290004Y-13284033D01*
X-9327693Y-13294131D01*
X-9358648Y-13317884D01*
X-9370066Y-13333819D01*
X-9870067Y-14199844D01*
X-9878157Y-14217700D01*
X-9883250Y-14256384D01*
X-10031010Y-14256384D01*
X-9360736Y-13095436D01*
X-5450164Y-15353206D01*
G37*
G36*
X-17752006Y18687293D02*
G01*
X-17734556Y18652393D01*
X-18006041Y18598096D01*
X-18006041Y18642984D01*
X-17983886Y18687294D01*
X-17939577Y18709448D01*
X-17796315Y18709448D01*
X-17752006Y18687293D01*
G37*
G36*
X-15944470Y17931670D02*
G01*
X-19172374Y17931670D01*
X-19172374Y19162290D01*
X-19061263Y19162290D01*
X-19061263Y19123272D01*
X-19046331Y19087224D01*
X-19018741Y19059634D01*
X-18982693Y19044702D01*
X-18963184Y19042781D01*
X-18777470Y19042781D01*
X-18777470Y18142781D01*
X-18775549Y18123272D01*
X-18760617Y18087224D01*
X-18733027Y18059634D01*
X-18696979Y18044702D01*
X-18657961Y18044702D01*
X-18621913Y18059634D01*
X-18594323Y18087224D01*
X-18579391Y18123272D01*
X-18577470Y18142781D01*
X-18577470Y18666591D01*
X-18206041Y18666591D01*
X-18206041Y18285639D01*
X-18204120Y18266130D01*
X-18202745Y18262810D01*
X-18202490Y18259227D01*
X-18195484Y18240918D01*
X-18147865Y18145679D01*
X-18145812Y18142416D01*
X-18145298Y18140877D01*
X-18143636Y18138961D01*
X-18137422Y18129089D01*
X-18127951Y18120875D01*
X-18119734Y18111400D01*
X-18109864Y18105188D01*
X-18107946Y18103524D01*
X-18106406Y18103011D01*
X-18103143Y18100957D01*
X-18007906Y18053338D01*
X-17989597Y18046332D01*
X-17986014Y18046078D01*
X-17982693Y18044702D01*
X-17963184Y18042781D01*
X-17772708Y18042781D01*
X-17753199Y18044702D01*
X-17749879Y18046078D01*
X-17746295Y18046332D01*
X-17727987Y18053338D01*
X-17632749Y18100957D01*
X-17616159Y18111400D01*
X-17590594Y18140877D01*
X-17578256Y18177893D01*
X-17581021Y18216813D01*
X-17598470Y18251711D01*
X-17627947Y18277276D01*
X-17664963Y18289615D01*
X-17703883Y18286849D01*
X-17722192Y18279843D01*
X-17796315Y18242781D01*
X-17939577Y18242781D01*
X-17983887Y18264936D01*
X-18006041Y18309246D01*
X-18006041Y18394135D01*
X-17610345Y18473274D01*
X-17610342Y18473274D01*
X-17610340Y18473276D01*
X-17610240Y18473295D01*
X-17591486Y18479005D01*
X-17583346Y18484457D01*
X-17574294Y18488206D01*
X-17567293Y18495208D01*
X-17559067Y18500716D01*
X-17553633Y18508868D01*
X-17546704Y18515796D01*
X-17542914Y18524945D01*
X-17537423Y18533181D01*
X-17535522Y18542792D01*
X-17531772Y18551844D01*
X-17529851Y18571353D01*
X-17529851Y18666591D01*
X-17348898Y18666591D01*
X-17348898Y18618972D01*
X-17346977Y18599463D01*
X-17345602Y18596143D01*
X-17345347Y18592559D01*
X-17338341Y18574251D01*
X-17290722Y18479013D01*
X-17288669Y18475750D01*
X-17288155Y18474211D01*
X-17286493Y18472295D01*
X-17280279Y18462423D01*
X-17270809Y18454210D01*
X-17262591Y18444734D01*
X-17252718Y18438520D01*
X-17250802Y18436858D01*
X-17249264Y18436346D01*
X-17246000Y18434291D01*
X-17150763Y18386672D01*
X-17132454Y18379666D01*
X-17128871Y18379412D01*
X-17125550Y18378036D01*
X-17106041Y18376115D01*
X-16986791Y18376115D01*
X-16942482Y18353960D01*
X-16920327Y18309651D01*
X-16920327Y18309246D01*
X-16942482Y18264937D01*
X-16986791Y18242781D01*
X-17130053Y18242781D01*
X-17204177Y18279843D01*
X-17222485Y18286849D01*
X-17261405Y18289615D01*
X-17298421Y18277276D01*
X-17327898Y18251712D01*
X-17345347Y18216813D01*
X-17348113Y18177893D01*
X-17335774Y18140877D01*
X-17310210Y18111400D01*
X-17293619Y18100957D01*
X-17198382Y18053338D01*
X-17180073Y18046332D01*
X-17176490Y18046078D01*
X-17173169Y18044702D01*
X-17153660Y18042781D01*
X-16963184Y18042781D01*
X-16943675Y18044702D01*
X-16940355Y18046078D01*
X-16936771Y18046332D01*
X-16918463Y18053338D01*
X-16823225Y18100957D01*
X-16819963Y18103011D01*
X-16818423Y18103524D01*
X-16816507Y18105187D01*
X-16806635Y18111400D01*
X-16798420Y18120874D01*
X-16788946Y18129089D01*
X-16782733Y18138961D01*
X-16781070Y18140877D01*
X-16780558Y18142416D01*
X-16778503Y18145679D01*
X-16730884Y18240918D01*
X-16723878Y18259226D01*
X-16723624Y18262810D01*
X-16722248Y18266130D01*
X-16720327Y18285639D01*
X-16720327Y18333258D01*
X-16722248Y18352767D01*
X-16723624Y18356088D01*
X-16723878Y18359671D01*
X-16730884Y18377980D01*
X-16778503Y18473217D01*
X-16780558Y18476481D01*
X-16781070Y18478019D01*
X-16782732Y18479935D01*
X-16788946Y18489808D01*
X-16798422Y18498026D01*
X-16806635Y18507496D01*
X-16816507Y18513710D01*
X-16818423Y18515372D01*
X-16819962Y18515886D01*
X-16823225Y18517939D01*
X-16918463Y18565558D01*
X-16936771Y18572564D01*
X-16940355Y18572819D01*
X-16943675Y18574194D01*
X-16963184Y18576115D01*
X-17082434Y18576115D01*
X-17126743Y18598270D01*
X-17148898Y18642580D01*
X-17148898Y18642984D01*
X-17126743Y18687294D01*
X-17082434Y18709448D01*
X-16986791Y18709448D01*
X-16912668Y18672386D01*
X-16894359Y18665380D01*
X-16855439Y18662614D01*
X-16818423Y18674953D01*
X-16788946Y18700518D01*
X-16771497Y18735416D01*
X-16768732Y18774336D01*
X-16781070Y18811352D01*
X-16796339Y18828957D01*
X-16632691Y18828957D01*
X-16632691Y18789939D01*
X-16617759Y18753891D01*
X-16590169Y18726301D01*
X-16554121Y18711369D01*
X-16534612Y18709448D01*
X-16491755Y18709448D01*
X-16491755Y18285639D01*
X-16489834Y18266130D01*
X-16488459Y18262810D01*
X-16488204Y18259227D01*
X-16481198Y18240918D01*
X-16433579Y18145679D01*
X-16431526Y18142416D01*
X-16431012Y18140877D01*
X-16429350Y18138961D01*
X-16423136Y18129089D01*
X-16413665Y18120875D01*
X-16405448Y18111400D01*
X-16395578Y18105188D01*
X-16393660Y18103524D01*
X-16392120Y18103011D01*
X-16388857Y18100957D01*
X-16293620Y18053338D01*
X-16275311Y18046332D01*
X-16271728Y18046078D01*
X-16268407Y18044702D01*
X-16248898Y18042781D01*
X-16153660Y18042781D01*
X-16134151Y18044702D01*
X-16098103Y18059634D01*
X-16070513Y18087224D01*
X-16055581Y18123272D01*
X-16055581Y18162290D01*
X-16070513Y18198338D01*
X-16098103Y18225928D01*
X-16134151Y18240860D01*
X-16153660Y18242781D01*
X-16225291Y18242781D01*
X-16269601Y18264936D01*
X-16291755Y18309246D01*
X-16291755Y18709448D01*
X-16153660Y18709448D01*
X-16134151Y18711369D01*
X-16098103Y18726301D01*
X-16070513Y18753891D01*
X-16055581Y18789939D01*
X-16055581Y18828957D01*
X-16070513Y18865005D01*
X-16098103Y18892595D01*
X-16134151Y18907527D01*
X-16153660Y18909448D01*
X-16291755Y18909448D01*
X-16291755Y19142781D01*
X-16293676Y19162290D01*
X-16308608Y19198338D01*
X-16336198Y19225928D01*
X-16372246Y19240860D01*
X-16411264Y19240860D01*
X-16447312Y19225928D01*
X-16474902Y19198338D01*
X-16489834Y19162290D01*
X-16491755Y19142781D01*
X-16491755Y18909448D01*
X-16534612Y18909448D01*
X-16554121Y18907527D01*
X-16590169Y18892595D01*
X-16617759Y18865005D01*
X-16632691Y18828957D01*
X-16796339Y18828957D01*
X-16806635Y18840829D01*
X-16823225Y18851272D01*
X-16918463Y18898891D01*
X-16936771Y18905897D01*
X-16940355Y18906152D01*
X-16943675Y18907527D01*
X-16963184Y18909448D01*
X-17106041Y18909448D01*
X-17125550Y18907527D01*
X-17128871Y18906152D01*
X-17132454Y18905897D01*
X-17150763Y18898891D01*
X-17246000Y18851272D01*
X-17249264Y18849218D01*
X-17250802Y18848705D01*
X-17252718Y18847044D01*
X-17262591Y18840829D01*
X-17270809Y18831354D01*
X-17280279Y18823140D01*
X-17286493Y18813269D01*
X-17288155Y18811352D01*
X-17288669Y18809814D01*
X-17290722Y18806550D01*
X-17338341Y18711312D01*
X-17345347Y18693004D01*
X-17345602Y18689421D01*
X-17346977Y18686100D01*
X-17348898Y18666591D01*
X-17529851Y18666591D01*
X-17531772Y18686100D01*
X-17533148Y18689421D01*
X-17533402Y18693004D01*
X-17540408Y18711313D01*
X-17588027Y18806550D01*
X-17590082Y18809814D01*
X-17590594Y18811352D01*
X-17592256Y18813268D01*
X-17598470Y18823141D01*
X-17607946Y18831359D01*
X-17616159Y18840829D01*
X-17626031Y18847043D01*
X-17627947Y18848705D01*
X-17629486Y18849219D01*
X-17632749Y18851272D01*
X-17727987Y18898891D01*
X-17746295Y18905897D01*
X-17749879Y18906152D01*
X-17753199Y18907527D01*
X-17772708Y18909448D01*
X-17963184Y18909448D01*
X-17982693Y18907527D01*
X-17986014Y18906152D01*
X-17989597Y18905897D01*
X-18007906Y18898891D01*
X-18103143Y18851272D01*
X-18106407Y18849218D01*
X-18107945Y18848705D01*
X-18109861Y18847044D01*
X-18119734Y18840829D01*
X-18127952Y18831354D01*
X-18137422Y18823140D01*
X-18143636Y18813269D01*
X-18145298Y18811352D01*
X-18145812Y18809814D01*
X-18147865Y18806550D01*
X-18195484Y18711312D01*
X-18202490Y18693004D01*
X-18202745Y18689421D01*
X-18204120Y18686100D01*
X-18206041Y18666591D01*
X-18577470Y18666591D01*
X-18577470Y19042781D01*
X-18391756Y19042781D01*
X-18372247Y19044702D01*
X-18336199Y19059634D01*
X-18308609Y19087224D01*
X-18293677Y19123272D01*
X-18293677Y19162290D01*
X-18308609Y19198338D01*
X-18336199Y19225928D01*
X-18372247Y19240860D01*
X-18391756Y19242781D01*
X-18963184Y19242781D01*
X-18982693Y19240860D01*
X-19018741Y19225928D01*
X-19046331Y19198338D01*
X-19061263Y19162290D01*
X-19172374Y19162290D01*
X-19172374Y19353892D01*
X-15944470Y19353892D01*
X-15944470Y17931670D01*
G37*
G36*
X8011844Y-15758430D02*
G01*
X8031296Y-15777882D01*
X8061101Y-15837492D01*
X8061101Y-15933135D01*
X8031296Y-15992743D01*
X8006627Y-16017413D01*
X7947018Y-16047219D01*
X7689673Y-16047219D01*
X7689673Y-15723409D01*
X7906779Y-15723409D01*
X8011844Y-15758430D01*
G37*
G36*
X7959008Y-15277024D02*
G01*
X7983677Y-15301692D01*
X8013482Y-15361302D01*
X8013482Y-15409326D01*
X7983677Y-15468935D01*
X7959008Y-15493603D01*
X7899399Y-15523409D01*
X7689673Y-15523409D01*
X7689673Y-15247219D01*
X7899399Y-15247219D01*
X7959008Y-15277024D01*
G37*
G36*
X8372212Y-16358330D02*
G01*
X5378562Y-16358330D01*
X5378562Y-15147219D01*
X5489673Y-15147219D01*
X5489673Y-15956742D01*
X5491594Y-15976251D01*
X5492969Y-15979571D01*
X5493224Y-15983155D01*
X5500230Y-16001463D01*
X5547849Y-16096701D01*
X5553132Y-16105093D01*
X5554144Y-16107537D01*
X5556400Y-16110286D01*
X5558292Y-16113291D01*
X5560286Y-16115020D01*
X5566581Y-16122690D01*
X5614199Y-16170310D01*
X5621867Y-16176603D01*
X5623599Y-16178600D01*
X5626607Y-16180493D01*
X5629353Y-16182747D01*
X5631793Y-16183757D01*
X5640190Y-16189043D01*
X5735427Y-16236662D01*
X5753736Y-16243668D01*
X5757319Y-16243922D01*
X5760640Y-16245298D01*
X5780149Y-16247219D01*
X5970625Y-16247219D01*
X5990134Y-16245298D01*
X5993454Y-16243922D01*
X5997038Y-16243668D01*
X6015346Y-16236662D01*
X6110584Y-16189043D01*
X6118979Y-16183758D01*
X6121421Y-16182747D01*
X6124168Y-16180491D01*
X6127174Y-16178600D01*
X6128904Y-16176605D01*
X6136574Y-16170310D01*
X6184193Y-16122690D01*
X6190485Y-16115023D01*
X6192482Y-16113292D01*
X6194375Y-16110284D01*
X6196630Y-16107537D01*
X6197641Y-16105095D01*
X6202925Y-16096701D01*
X6250544Y-16001464D01*
X6257550Y-15983155D01*
X6257804Y-15979571D01*
X6259180Y-15976251D01*
X6261101Y-15956742D01*
X6261101Y-15337695D01*
X6489673Y-15337695D01*
X6489673Y-15432933D01*
X6491594Y-15452442D01*
X6492969Y-15455762D01*
X6493224Y-15459346D01*
X6500230Y-15477654D01*
X6547849Y-15572892D01*
X6553134Y-15581288D01*
X6554145Y-15583728D01*
X6556398Y-15586474D01*
X6558292Y-15589482D01*
X6560286Y-15591211D01*
X6566581Y-15598882D01*
X6614200Y-15646500D01*
X6621866Y-15652792D01*
X6623599Y-15654790D01*
X6626607Y-15656683D01*
X6629353Y-15658937D01*
X6631793Y-15659947D01*
X6640190Y-15665233D01*
X6735427Y-15712852D01*
X6736855Y-15713398D01*
X6737435Y-15713828D01*
X6745611Y-15716749D01*
X6753736Y-15719858D01*
X6754456Y-15719909D01*
X6755895Y-15720423D01*
X6935720Y-15765379D01*
X7006627Y-15800833D01*
X7031296Y-15825501D01*
X7061101Y-15885111D01*
X7061101Y-15933135D01*
X7031296Y-15992743D01*
X7006627Y-16017413D01*
X6947018Y-16047219D01*
X6748756Y-16047219D01*
X6621296Y-16004732D01*
X6602180Y-16000385D01*
X6563260Y-16003151D01*
X6528361Y-16020601D01*
X6502796Y-16050077D01*
X6490458Y-16087093D01*
X6493224Y-16126013D01*
X6510674Y-16160912D01*
X6540150Y-16186477D01*
X6558050Y-16194468D01*
X6700907Y-16242087D01*
X6710579Y-16244286D01*
X6713021Y-16245298D01*
X6716558Y-16245646D01*
X6720022Y-16246434D01*
X6722656Y-16246246D01*
X6732530Y-16247219D01*
X6970625Y-16247219D01*
X6990134Y-16245298D01*
X6993454Y-16243922D01*
X6997038Y-16243668D01*
X7015346Y-16236662D01*
X7110584Y-16189043D01*
X7118979Y-16183758D01*
X7121421Y-16182747D01*
X7124168Y-16180491D01*
X7127174Y-16178600D01*
X7128904Y-16176605D01*
X7136574Y-16170310D01*
X7184193Y-16122690D01*
X7190485Y-16115023D01*
X7192482Y-16113292D01*
X7194375Y-16110284D01*
X7196630Y-16107537D01*
X7197641Y-16105095D01*
X7202925Y-16096701D01*
X7250544Y-16001464D01*
X7257550Y-15983155D01*
X7257804Y-15979571D01*
X7259180Y-15976251D01*
X7261101Y-15956742D01*
X7261101Y-15861504D01*
X7259180Y-15841995D01*
X7257804Y-15838674D01*
X7257550Y-15835091D01*
X7250544Y-15816782D01*
X7202925Y-15721545D01*
X7197639Y-15713148D01*
X7196629Y-15710708D01*
X7194375Y-15707962D01*
X7192482Y-15704954D01*
X7190484Y-15703221D01*
X7184192Y-15695555D01*
X7136574Y-15647936D01*
X7128903Y-15641641D01*
X7127174Y-15639647D01*
X7124166Y-15637753D01*
X7121420Y-15635500D01*
X7118980Y-15634489D01*
X7110584Y-15629204D01*
X7015346Y-15581585D01*
X7013919Y-15581039D01*
X7013339Y-15580609D01*
X7005162Y-15577687D01*
X6997038Y-15574579D01*
X6996315Y-15574527D01*
X6994878Y-15574014D01*
X6815053Y-15529057D01*
X6744146Y-15493604D01*
X6719478Y-15468935D01*
X6689673Y-15409325D01*
X6689673Y-15361302D01*
X6719478Y-15301692D01*
X6744146Y-15277023D01*
X6803756Y-15247219D01*
X7002017Y-15247219D01*
X7129478Y-15289706D01*
X7148593Y-15294053D01*
X7187513Y-15291287D01*
X7222412Y-15273837D01*
X7247977Y-15244361D01*
X7260316Y-15207345D01*
X7257549Y-15168425D01*
X7246946Y-15147219D01*
X7489673Y-15147219D01*
X7489673Y-16147219D01*
X7491594Y-16166728D01*
X7506526Y-16202776D01*
X7534116Y-16230366D01*
X7570164Y-16245298D01*
X7589673Y-16247219D01*
X7970625Y-16247219D01*
X7990134Y-16245298D01*
X7993454Y-16243922D01*
X7997038Y-16243668D01*
X8015346Y-16236662D01*
X8110584Y-16189043D01*
X8118979Y-16183758D01*
X8121421Y-16182747D01*
X8124168Y-16180491D01*
X8127174Y-16178600D01*
X8128904Y-16176605D01*
X8136574Y-16170310D01*
X8184193Y-16122690D01*
X8190485Y-16115023D01*
X8192482Y-16113292D01*
X8194375Y-16110284D01*
X8196630Y-16107537D01*
X8197641Y-16105095D01*
X8202925Y-16096701D01*
X8250544Y-16001464D01*
X8257550Y-15983155D01*
X8257804Y-15979571D01*
X8259180Y-15976251D01*
X8261101Y-15956742D01*
X8261101Y-15813885D01*
X8259180Y-15794376D01*
X8257804Y-15791055D01*
X8257550Y-15787472D01*
X8250544Y-15769163D01*
X8202925Y-15673926D01*
X8197639Y-15665529D01*
X8196629Y-15663089D01*
X8194375Y-15660343D01*
X8192482Y-15657335D01*
X8190484Y-15655602D01*
X8184192Y-15647936D01*
X8136574Y-15600317D01*
X8135785Y-15599669D01*
X8136573Y-15598882D01*
X8142865Y-15591215D01*
X8144863Y-15589483D01*
X8146756Y-15586474D01*
X8149010Y-15583729D01*
X8150020Y-15581288D01*
X8155306Y-15572892D01*
X8202925Y-15477655D01*
X8209931Y-15459346D01*
X8210185Y-15455762D01*
X8211561Y-15452442D01*
X8213482Y-15432933D01*
X8213482Y-15337695D01*
X8211561Y-15318186D01*
X8210185Y-15314865D01*
X8209931Y-15311282D01*
X8202925Y-15292973D01*
X8155306Y-15197736D01*
X8150020Y-15189339D01*
X8149010Y-15186899D01*
X8146756Y-15184153D01*
X8144863Y-15181145D01*
X8142865Y-15179412D01*
X8136573Y-15171746D01*
X8088955Y-15124127D01*
X8081284Y-15117832D01*
X8079555Y-15115838D01*
X8076547Y-15113944D01*
X8073801Y-15111691D01*
X8071361Y-15110680D01*
X8062965Y-15105395D01*
X7967727Y-15057776D01*
X7949419Y-15050770D01*
X7945835Y-15050515D01*
X7942515Y-15049140D01*
X7923006Y-15047219D01*
X7589673Y-15047219D01*
X7570164Y-15049140D01*
X7534116Y-15064072D01*
X7506526Y-15091662D01*
X7491594Y-15127710D01*
X7489673Y-15147219D01*
X7246946Y-15147219D01*
X7240100Y-15133526D01*
X7210624Y-15107961D01*
X7192723Y-15099970D01*
X7049867Y-15052351D01*
X7040195Y-15050151D01*
X7037753Y-15049140D01*
X7034214Y-15048791D01*
X7030751Y-15048004D01*
X7028117Y-15048191D01*
X7018244Y-15047219D01*
X6780149Y-15047219D01*
X6760640Y-15049140D01*
X6757319Y-15050515D01*
X6753736Y-15050770D01*
X6735427Y-15057776D01*
X6640190Y-15105395D01*
X6631793Y-15110680D01*
X6629353Y-15111691D01*
X6626607Y-15113944D01*
X6623599Y-15115838D01*
X6621866Y-15117835D01*
X6614200Y-15124128D01*
X6566581Y-15171746D01*
X6560286Y-15179416D01*
X6558292Y-15181146D01*
X6556398Y-15184153D01*
X6554145Y-15186900D01*
X6553134Y-15189339D01*
X6547849Y-15197736D01*
X6500230Y-15292974D01*
X6493224Y-15311282D01*
X6492969Y-15314865D01*
X6491594Y-15318186D01*
X6489673Y-15337695D01*
X6261101Y-15337695D01*
X6261101Y-15147219D01*
X6259180Y-15127710D01*
X6244248Y-15091662D01*
X6216658Y-15064072D01*
X6180610Y-15049140D01*
X6141592Y-15049140D01*
X6105544Y-15064072D01*
X6077954Y-15091662D01*
X6063022Y-15127710D01*
X6061101Y-15147219D01*
X6061101Y-15933135D01*
X6031296Y-15992743D01*
X6006627Y-16017413D01*
X5947018Y-16047219D01*
X5803756Y-16047219D01*
X5744146Y-16017414D01*
X5719479Y-15992746D01*
X5689673Y-15933134D01*
X5689673Y-15147219D01*
X5687752Y-15127710D01*
X5672820Y-15091662D01*
X5645230Y-15064072D01*
X5609182Y-15049140D01*
X5570164Y-15049140D01*
X5534116Y-15064072D01*
X5506526Y-15091662D01*
X5491594Y-15127710D01*
X5489673Y-15147219D01*
X5378562Y-15147219D01*
X5378562Y-14936108D01*
X8372212Y-14936108D01*
X8372212Y-16358330D01*
G37*
G36*
X-17653911Y22427293D02*
G01*
X-17636461Y22392393D01*
X-17907946Y22338096D01*
X-17907946Y22382984D01*
X-17885791Y22427294D01*
X-17841482Y22449448D01*
X-17698220Y22449448D01*
X-17653911Y22427293D01*
G37*
G36*
X-18543373Y22752976D02*
G01*
X-18518704Y22728308D01*
X-18488899Y22668698D01*
X-18488899Y22573055D01*
X-18518704Y22513446D01*
X-18543373Y22488778D01*
X-18602982Y22458972D01*
X-18860327Y22458972D01*
X-18860327Y22782781D01*
X-18602982Y22782781D01*
X-18543373Y22752976D01*
G37*
G36*
X-16084470Y21671670D02*
G01*
X-19171438Y21671670D01*
X-19171438Y22882781D01*
X-19060327Y22882781D01*
X-19060327Y21882781D01*
X-19058406Y21863272D01*
X-19043474Y21827224D01*
X-19015884Y21799634D01*
X-18979836Y21784702D01*
X-18940818Y21784702D01*
X-18904770Y21799634D01*
X-18877180Y21827224D01*
X-18862248Y21863272D01*
X-18860327Y21882781D01*
X-18860327Y22258972D01*
X-18774297Y22258972D01*
X-18470822Y21825435D01*
X-18458061Y21810554D01*
X-18425156Y21789585D01*
X-18386731Y21782804D01*
X-18348637Y21791244D01*
X-18316672Y21813619D01*
X-18295703Y21846524D01*
X-18288922Y21884948D01*
X-18297362Y21923043D01*
X-18306976Y21940127D01*
X-18536944Y22268653D01*
X-18534654Y22269529D01*
X-18439416Y22317148D01*
X-18431020Y22322434D01*
X-18428580Y22323444D01*
X-18425834Y22325698D01*
X-18422826Y22327591D01*
X-18421097Y22329586D01*
X-18413426Y22335880D01*
X-18365808Y22383499D01*
X-18359516Y22391166D01*
X-18357518Y22392898D01*
X-18355625Y22395907D01*
X-18353371Y22398652D01*
X-18352361Y22401093D01*
X-18348900Y22406591D01*
X-18107946Y22406591D01*
X-18107946Y22025639D01*
X-18106025Y22006130D01*
X-18104650Y22002810D01*
X-18104395Y21999227D01*
X-18097389Y21980918D01*
X-18049770Y21885679D01*
X-18047717Y21882416D01*
X-18047203Y21880877D01*
X-18045541Y21878961D01*
X-18039327Y21869089D01*
X-18029856Y21860875D01*
X-18021639Y21851400D01*
X-18011769Y21845188D01*
X-18009851Y21843524D01*
X-18008311Y21843011D01*
X-18005048Y21840957D01*
X-17909811Y21793338D01*
X-17891502Y21786332D01*
X-17887919Y21786078D01*
X-17884598Y21784702D01*
X-17865089Y21782781D01*
X-17674613Y21782781D01*
X-17655104Y21784702D01*
X-17651784Y21786078D01*
X-17648200Y21786332D01*
X-17629892Y21793338D01*
X-17534654Y21840957D01*
X-17518064Y21851400D01*
X-17492499Y21880877D01*
X-17480161Y21917893D01*
X-17482926Y21956813D01*
X-17500375Y21991711D01*
X-17529852Y22017276D01*
X-17566868Y22029615D01*
X-17605788Y22026849D01*
X-17624097Y22019843D01*
X-17698220Y21982781D01*
X-17841482Y21982781D01*
X-17885792Y22004936D01*
X-17907946Y22049246D01*
X-17907946Y22134135D01*
X-17512250Y22213274D01*
X-17512247Y22213274D01*
X-17512245Y22213276D01*
X-17512145Y22213295D01*
X-17493391Y22219005D01*
X-17485251Y22224457D01*
X-17476199Y22228206D01*
X-17469198Y22235208D01*
X-17460972Y22240716D01*
X-17455538Y22248868D01*
X-17448609Y22255796D01*
X-17444820Y22264944D01*
X-17439328Y22273181D01*
X-17437427Y22282792D01*
X-17433677Y22291844D01*
X-17431756Y22311353D01*
X-17431756Y22406591D01*
X-17433677Y22426100D01*
X-17435053Y22429421D01*
X-17435307Y22433004D01*
X-17442313Y22451313D01*
X-17484073Y22534833D01*
X-17297349Y22534833D01*
X-17292596Y22515814D01*
X-17054501Y21849148D01*
X-17046131Y21831421D01*
X-17042761Y21827699D01*
X-17040613Y21823164D01*
X-17029762Y21813341D01*
X-17019944Y21802496D01*
X-17015412Y21800349D01*
X-17011687Y21796977D01*
X-16997897Y21792053D01*
X-16984682Y21785792D01*
X-16979672Y21785543D01*
X-16974942Y21783854D01*
X-16960321Y21784582D01*
X-16945712Y21783855D01*
X-16940987Y21785543D01*
X-16935972Y21785792D01*
X-16922746Y21792058D01*
X-16908967Y21796978D01*
X-16905247Y21800347D01*
X-16900710Y21802495D01*
X-16890888Y21813346D01*
X-16880041Y21823164D01*
X-16877894Y21827699D01*
X-16874523Y21831421D01*
X-16866153Y21849147D01*
X-16830167Y21949909D01*
X-16486977Y21949909D01*
X-16486977Y21910891D01*
X-16483414Y21902290D01*
X-16472045Y21874842D01*
X-16472041Y21874838D01*
X-16459609Y21859689D01*
X-16411990Y21812071D01*
X-16396837Y21799634D01*
X-16390424Y21796978D01*
X-16360788Y21784702D01*
X-16321770Y21784702D01*
X-16285722Y21799634D01*
X-16270568Y21812070D01*
X-16222950Y21859689D01*
X-16210513Y21874842D01*
X-16206024Y21885679D01*
X-16195582Y21910890D01*
X-16195581Y21949908D01*
X-16210512Y21985957D01*
X-16222949Y22001110D01*
X-16270568Y22048730D01*
X-16285721Y22061167D01*
X-16307915Y22070360D01*
X-16321770Y22076099D01*
X-16360788Y22076099D01*
X-16371346Y22071726D01*
X-16396836Y22061168D01*
X-16396837Y22061167D01*
X-16411991Y22048730D01*
X-16459609Y22001110D01*
X-16472046Y21985957D01*
X-16475333Y21978020D01*
X-16486977Y21949909D01*
X-16830167Y21949909D01*
X-16628058Y22515814D01*
X-16623305Y22534833D01*
X-16625243Y22573803D01*
X-16641946Y22609065D01*
X-16670872Y22635251D01*
X-16707617Y22648374D01*
X-16746587Y22646437D01*
X-16781849Y22629733D01*
X-16808036Y22600808D01*
X-16816406Y22583081D01*
X-16960327Y22180103D01*
X-17104248Y22583082D01*
X-17112618Y22600808D01*
X-17138805Y22629734D01*
X-17174067Y22646437D01*
X-17213037Y22648375D01*
X-17249782Y22635252D01*
X-17278708Y22609065D01*
X-17295411Y22573803D01*
X-17297349Y22534833D01*
X-17484073Y22534833D01*
X-17489932Y22546550D01*
X-17491987Y22549814D01*
X-17492499Y22551352D01*
X-17494161Y22553268D01*
X-17500375Y22563141D01*
X-17509851Y22571359D01*
X-17518064Y22580829D01*
X-17527936Y22587043D01*
X-17529852Y22588705D01*
X-17531391Y22589219D01*
X-17534654Y22591272D01*
X-17629892Y22638891D01*
X-17648200Y22645897D01*
X-17651784Y22646152D01*
X-17655104Y22647527D01*
X-17674613Y22649448D01*
X-17865089Y22649448D01*
X-17884598Y22647527D01*
X-17887919Y22646152D01*
X-17891502Y22645897D01*
X-17909811Y22638891D01*
X-18005048Y22591272D01*
X-18008312Y22589218D01*
X-18009850Y22588705D01*
X-18011766Y22587044D01*
X-18021639Y22580829D01*
X-18029857Y22571354D01*
X-18039327Y22563140D01*
X-18045541Y22553269D01*
X-18047203Y22551352D01*
X-18047717Y22549814D01*
X-18049770Y22546550D01*
X-18097389Y22451312D01*
X-18104395Y22433004D01*
X-18104650Y22429421D01*
X-18106025Y22426100D01*
X-18107946Y22406591D01*
X-18348900Y22406591D01*
X-18347075Y22409489D01*
X-18299456Y22504726D01*
X-18292450Y22523035D01*
X-18292196Y22526619D01*
X-18290820Y22529939D01*
X-18288899Y22549448D01*
X-18288899Y22692305D01*
X-18290820Y22711814D01*
X-18292196Y22715135D01*
X-18292450Y22718718D01*
X-18299456Y22737027D01*
X-18347075Y22832264D01*
X-18352361Y22840661D01*
X-18353371Y22843101D01*
X-18355625Y22845847D01*
X-18357518Y22848855D01*
X-18359516Y22850588D01*
X-18365808Y22858254D01*
X-18413426Y22905873D01*
X-18421097Y22912168D01*
X-18422826Y22914162D01*
X-18425834Y22916056D01*
X-18428580Y22918309D01*
X-18431020Y22919320D01*
X-18439416Y22924605D01*
X-18534654Y22972224D01*
X-18552962Y22979230D01*
X-18556546Y22979485D01*
X-18559866Y22980860D01*
X-18579375Y22982781D01*
X-18960327Y22982781D01*
X-18979836Y22980860D01*
X-19015884Y22965928D01*
X-19043474Y22938338D01*
X-19058406Y22902290D01*
X-19060327Y22882781D01*
X-19171438Y22882781D01*
X-19171438Y23093892D01*
X-16084470Y23093892D01*
X-16084470Y21671670D01*
G37*
G36*
X-18633395Y20877760D02*
G01*
X-18566322Y20810687D01*
X-18530870Y20739782D01*
X-18488899Y20571901D01*
X-18488899Y20453663D01*
X-18530870Y20285782D01*
X-18566323Y20214876D01*
X-18633394Y20147803D01*
X-18738459Y20112781D01*
X-18860327Y20112781D01*
X-18860327Y20912781D01*
X-18738459Y20912781D01*
X-18633395Y20877760D01*
G37*
G36*
X-17631756Y20122204D02*
G01*
X-17650601Y20112781D01*
X-17841482Y20112781D01*
X-17885792Y20134936D01*
X-17907946Y20179246D01*
X-17907946Y20227270D01*
X-17885791Y20271580D01*
X-17841482Y20293734D01*
X-17631756Y20293734D01*
X-17631756Y20122204D01*
G37*
G36*
X-16177720Y20557293D02*
G01*
X-16160270Y20522393D01*
X-16431755Y20468096D01*
X-16431755Y20512984D01*
X-16409600Y20557294D01*
X-16365291Y20579448D01*
X-16222029Y20579448D01*
X-16177720Y20557293D01*
G37*
G36*
X-15844454Y19801670D02*
G01*
X-19171438Y19801670D01*
X-19171438Y21012781D01*
X-19060327Y21012781D01*
X-19060327Y20012781D01*
X-19058406Y19993272D01*
X-19043474Y19957224D01*
X-19015884Y19929634D01*
X-18979836Y19914702D01*
X-18960327Y19912781D01*
X-18722232Y19912781D01*
X-18712359Y19913754D01*
X-18709725Y19913566D01*
X-18706262Y19914354D01*
X-18702723Y19914702D01*
X-18700281Y19915714D01*
X-18690609Y19917913D01*
X-18547753Y19965532D01*
X-18529852Y19973523D01*
X-18527137Y19975878D01*
X-18523817Y19977253D01*
X-18508664Y19989690D01*
X-18413426Y20084929D01*
X-18407134Y20092596D01*
X-18405137Y20094327D01*
X-18403244Y20097335D01*
X-18400989Y20100082D01*
X-18399978Y20102524D01*
X-18394694Y20110918D01*
X-18347075Y20206155D01*
X-18346529Y20207584D01*
X-18346099Y20208163D01*
X-18343178Y20216340D01*
X-18340069Y20224464D01*
X-18340018Y20225185D01*
X-18339504Y20226623D01*
X-18333440Y20250877D01*
X-18107946Y20250877D01*
X-18107946Y20155639D01*
X-18106025Y20136130D01*
X-18104650Y20132810D01*
X-18104395Y20129227D01*
X-18097389Y20110918D01*
X-18049770Y20015679D01*
X-18047717Y20012416D01*
X-18047203Y20010877D01*
X-18045541Y20008961D01*
X-18039327Y19999089D01*
X-18029856Y19990875D01*
X-18021639Y19981400D01*
X-18011769Y19975188D01*
X-18009851Y19973524D01*
X-18008311Y19973011D01*
X-18005048Y19970957D01*
X-17909811Y19923338D01*
X-17891502Y19916332D01*
X-17887919Y19916078D01*
X-17884598Y19914702D01*
X-17865089Y19912781D01*
X-17626994Y19912781D01*
X-17607485Y19914702D01*
X-17604165Y19916078D01*
X-17600581Y19916332D01*
X-17582273Y19923338D01*
X-17577670Y19925640D01*
X-17551265Y19914702D01*
X-17512247Y19914702D01*
X-17476199Y19929634D01*
X-17448609Y19957224D01*
X-17433677Y19993272D01*
X-17431756Y20012781D01*
X-17431756Y20536591D01*
X-17433677Y20556100D01*
X-17435053Y20559421D01*
X-17435307Y20563004D01*
X-17442313Y20581313D01*
X-17489932Y20676550D01*
X-17491987Y20679814D01*
X-17492499Y20681352D01*
X-17494161Y20683268D01*
X-17500375Y20693141D01*
X-17507081Y20698957D01*
X-17296501Y20698957D01*
X-17296501Y20659939D01*
X-17281569Y20623891D01*
X-17253979Y20596301D01*
X-17217931Y20581369D01*
X-17198422Y20579448D01*
X-17155565Y20579448D01*
X-17155565Y20155639D01*
X-17153644Y20136130D01*
X-17152269Y20132810D01*
X-17152014Y20129227D01*
X-17145008Y20110918D01*
X-17097389Y20015679D01*
X-17095336Y20012416D01*
X-17094822Y20010877D01*
X-17093160Y20008961D01*
X-17086946Y19999089D01*
X-17077475Y19990875D01*
X-17069258Y19981400D01*
X-17059388Y19975188D01*
X-17057470Y19973524D01*
X-17055930Y19973011D01*
X-17052667Y19970957D01*
X-16957430Y19923338D01*
X-16939121Y19916332D01*
X-16935538Y19916078D01*
X-16932217Y19914702D01*
X-16912708Y19912781D01*
X-16817470Y19912781D01*
X-16797961Y19914702D01*
X-16761913Y19929634D01*
X-16734323Y19957224D01*
X-16719391Y19993272D01*
X-16719391Y20032290D01*
X-16734323Y20068338D01*
X-16761913Y20095928D01*
X-16797961Y20110860D01*
X-16817470Y20112781D01*
X-16889101Y20112781D01*
X-16933411Y20134936D01*
X-16955565Y20179246D01*
X-16955565Y20536591D01*
X-16631755Y20536591D01*
X-16631755Y20155639D01*
X-16629834Y20136130D01*
X-16628459Y20132810D01*
X-16628204Y20129227D01*
X-16621198Y20110918D01*
X-16573579Y20015679D01*
X-16571526Y20012416D01*
X-16571012Y20010877D01*
X-16569350Y20008961D01*
X-16563136Y19999089D01*
X-16553665Y19990875D01*
X-16545448Y19981400D01*
X-16535578Y19975188D01*
X-16533660Y19973524D01*
X-16532120Y19973011D01*
X-16528857Y19970957D01*
X-16433620Y19923338D01*
X-16415311Y19916332D01*
X-16411728Y19916078D01*
X-16408407Y19914702D01*
X-16388898Y19912781D01*
X-16198422Y19912781D01*
X-16178913Y19914702D01*
X-16175593Y19916078D01*
X-16172009Y19916332D01*
X-16153701Y19923338D01*
X-16058463Y19970957D01*
X-16041873Y19981400D01*
X-16016308Y20010877D01*
X-16003970Y20047893D01*
X-16006735Y20086813D01*
X-16024184Y20121711D01*
X-16053661Y20147276D01*
X-16090677Y20159615D01*
X-16129597Y20156849D01*
X-16147906Y20149843D01*
X-16222029Y20112781D01*
X-16365291Y20112781D01*
X-16409601Y20134936D01*
X-16431755Y20179246D01*
X-16431755Y20264135D01*
X-16036059Y20343274D01*
X-16036056Y20343274D01*
X-16036054Y20343276D01*
X-16035954Y20343295D01*
X-16017200Y20349005D01*
X-16009060Y20354457D01*
X-16000008Y20358206D01*
X-15993007Y20365208D01*
X-15984781Y20370716D01*
X-15979347Y20378868D01*
X-15972418Y20385796D01*
X-15968629Y20394944D01*
X-15963137Y20403181D01*
X-15961236Y20412792D01*
X-15957486Y20421844D01*
X-15955565Y20441353D01*
X-15955565Y20536591D01*
X-15957486Y20556100D01*
X-15958862Y20559421D01*
X-15959116Y20563004D01*
X-15966122Y20581313D01*
X-16013741Y20676550D01*
X-16015796Y20679814D01*
X-16016308Y20681352D01*
X-16017970Y20683268D01*
X-16024184Y20693141D01*
X-16033660Y20701359D01*
X-16041873Y20710829D01*
X-16051745Y20717043D01*
X-16053661Y20718705D01*
X-16055200Y20719219D01*
X-16058463Y20721272D01*
X-16153701Y20768891D01*
X-16172009Y20775897D01*
X-16175593Y20776152D01*
X-16178913Y20777527D01*
X-16198422Y20779448D01*
X-16388898Y20779448D01*
X-16408407Y20777527D01*
X-16411728Y20776152D01*
X-16415311Y20775897D01*
X-16433620Y20768891D01*
X-16528857Y20721272D01*
X-16532121Y20719218D01*
X-16533659Y20718705D01*
X-16535575Y20717044D01*
X-16545448Y20710829D01*
X-16553666Y20701354D01*
X-16563136Y20693140D01*
X-16569350Y20683269D01*
X-16571012Y20681352D01*
X-16571526Y20679814D01*
X-16573579Y20676550D01*
X-16621198Y20581312D01*
X-16628204Y20563004D01*
X-16628459Y20559421D01*
X-16629834Y20556100D01*
X-16631755Y20536591D01*
X-16955565Y20536591D01*
X-16955565Y20579448D01*
X-16817470Y20579448D01*
X-16797961Y20581369D01*
X-16761913Y20596301D01*
X-16734323Y20623891D01*
X-16719391Y20659939D01*
X-16719391Y20698957D01*
X-16734323Y20735005D01*
X-16761913Y20762595D01*
X-16797961Y20777527D01*
X-16817470Y20779448D01*
X-16955565Y20779448D01*
X-16955565Y21012781D01*
X-16957486Y21032290D01*
X-16972418Y21068338D01*
X-17000008Y21095928D01*
X-17036056Y21110860D01*
X-17075074Y21110860D01*
X-17111122Y21095928D01*
X-17138712Y21068338D01*
X-17153644Y21032290D01*
X-17155565Y21012781D01*
X-17155565Y20779448D01*
X-17198422Y20779448D01*
X-17217931Y20777527D01*
X-17253979Y20762595D01*
X-17281569Y20735005D01*
X-17296501Y20698957D01*
X-17507081Y20698957D01*
X-17509851Y20701359D01*
X-17518064Y20710829D01*
X-17527936Y20717043D01*
X-17529852Y20718705D01*
X-17531391Y20719219D01*
X-17534654Y20721272D01*
X-17629892Y20768891D01*
X-17648200Y20775897D01*
X-17651784Y20776152D01*
X-17655104Y20777527D01*
X-17674613Y20779448D01*
X-17865089Y20779448D01*
X-17884598Y20777527D01*
X-17887919Y20776152D01*
X-17891502Y20775897D01*
X-17909811Y20768891D01*
X-18005048Y20721272D01*
X-18021639Y20710829D01*
X-18047203Y20681352D01*
X-18059542Y20644336D01*
X-18056776Y20605416D01*
X-18039327Y20570517D01*
X-18009850Y20544953D01*
X-17972834Y20532614D01*
X-17933914Y20535380D01*
X-17915606Y20542386D01*
X-17841482Y20579448D01*
X-17698220Y20579448D01*
X-17653911Y20557293D01*
X-17631756Y20512984D01*
X-17631756Y20503157D01*
X-17650601Y20493734D01*
X-17865089Y20493734D01*
X-17884598Y20491813D01*
X-17887919Y20490438D01*
X-17891502Y20490183D01*
X-17909811Y20483177D01*
X-18005048Y20435558D01*
X-18008312Y20433504D01*
X-18009850Y20432991D01*
X-18011766Y20431330D01*
X-18021639Y20425115D01*
X-18029857Y20415640D01*
X-18039327Y20407426D01*
X-18045541Y20397555D01*
X-18047203Y20395638D01*
X-18047717Y20394100D01*
X-18049770Y20390836D01*
X-18097389Y20295598D01*
X-18104395Y20277290D01*
X-18104650Y20273707D01*
X-18106025Y20270386D01*
X-18107946Y20250877D01*
X-18333440Y20250877D01*
X-18291885Y20417099D01*
X-18291385Y20420481D01*
X-18290820Y20421844D01*
X-18290097Y20429195D01*
X-18289017Y20436492D01*
X-18289235Y20437951D01*
X-18288899Y20441353D01*
X-18288899Y20584210D01*
X-18289235Y20587613D01*
X-18289017Y20589071D01*
X-18290097Y20596369D01*
X-18290820Y20603719D01*
X-18291385Y20605083D01*
X-18291885Y20608464D01*
X-18339504Y20798940D01*
X-18340018Y20800379D01*
X-18340069Y20801099D01*
X-18343178Y20809224D01*
X-18346099Y20817400D01*
X-18346529Y20817980D01*
X-18347075Y20819408D01*
X-18394694Y20914645D01*
X-18399981Y20923044D01*
X-18400990Y20925481D01*
X-18403242Y20928225D01*
X-18405137Y20931236D01*
X-18407135Y20932969D01*
X-18413426Y20940635D01*
X-18508664Y21035873D01*
X-18523818Y21048309D01*
X-18527137Y21049684D01*
X-18529852Y21052039D01*
X-18547753Y21060030D01*
X-18690609Y21107649D01*
X-18700281Y21109849D01*
X-18702723Y21110860D01*
X-18706262Y21111209D01*
X-18709725Y21111996D01*
X-18712359Y21111809D01*
X-18722232Y21112781D01*
X-18960327Y21112781D01*
X-18979836Y21110860D01*
X-19015884Y21095928D01*
X-19043474Y21068338D01*
X-19058406Y21032290D01*
X-19060327Y21012781D01*
X-19171438Y21012781D01*
X-19171438Y21223892D01*
X-15844454Y21223892D01*
X-15844454Y19801670D01*
G37*
D13*
X-12380000Y-19780000D02*
X-9720000Y-21280000D01*
X-9320000Y-20600000D02*
X-9720000Y-21280000D01*
X-11980000Y-19100000D02*
X-12380000Y-19780000D01*
D16*
X7751331Y1390000D02*
X8179902Y1390000D01*
X8179902Y1390000D02*
X8265617Y1361429D01*
X8265617Y1361429D02*
X8322760Y1304286D01*
X8322760Y1304286D02*
X8351331Y1218572D01*
X8351331Y1218572D02*
X8351331Y1161429D01*
X8351331Y1675715D02*
X7751331Y1675715D01*
X7751331Y1675715D02*
X7751331Y1904286D01*
X7751331Y1904286D02*
X7779902Y1961429D01*
X7779902Y1961429D02*
X7808474Y1990000D01*
X7808474Y1990000D02*
X7865617Y2018572D01*
X7865617Y2018572D02*
X7951331Y2018572D01*
X7951331Y2018572D02*
X8008474Y1990000D01*
X8008474Y1990000D02*
X8037045Y1961429D01*
X8037045Y1961429D02*
X8065617Y1904286D01*
X8065617Y1904286D02*
X8065617Y1675715D01*
X8351331Y2590000D02*
X8351331Y2247143D01*
X8351331Y2418572D02*
X7751331Y2418572D01*
X7751331Y2418572D02*
X7837045Y2361429D01*
X7837045Y2361429D02*
X7894188Y2304286D01*
X7894188Y2304286D02*
X7922760Y2247143D01*
X-6518669Y-592856D02*
X-7118669Y-592856D01*
X-7118669Y-592856D02*
X-7118669Y-449999D01*
X-7118669Y-449999D02*
X-7090098Y-364285D01*
X-7090098Y-364285D02*
X-7032955Y-307142D01*
X-7032955Y-307142D02*
X-6975812Y-278571D01*
X-6975812Y-278571D02*
X-6861526Y-249999D01*
X-6861526Y-249999D02*
X-6775812Y-249999D01*
X-6775812Y-249999D02*
X-6661526Y-278571D01*
X-6661526Y-278571D02*
X-6604383Y-307142D01*
X-6604383Y-307142D02*
X-6547240Y-364285D01*
X-6547240Y-364285D02*
X-6518669Y-449999D01*
X-6518669Y-449999D02*
X-6518669Y-592856D01*
X-6918669Y264286D02*
X-6518669Y264286D01*
X-7147240Y121429D02*
X-6718669Y-21428D01*
X-6718669Y-21428D02*
X-6718669Y350001D01*
X-6475812Y17150001D02*
X-6447240Y17121429D01*
X-6447240Y17121429D02*
X-6418669Y17035715D01*
X-6418669Y17035715D02*
X-6418669Y16978572D01*
X-6418669Y16978572D02*
X-6447240Y16892858D01*
X-6447240Y16892858D02*
X-6504383Y16835715D01*
X-6504383Y16835715D02*
X-6561526Y16807144D01*
X-6561526Y16807144D02*
X-6675812Y16778572D01*
X-6675812Y16778572D02*
X-6761526Y16778572D01*
X-6761526Y16778572D02*
X-6875812Y16807144D01*
X-6875812Y16807144D02*
X-6932955Y16835715D01*
X-6932955Y16835715D02*
X-6990098Y16892858D01*
X-6990098Y16892858D02*
X-7018669Y16978572D01*
X-7018669Y16978572D02*
X-7018669Y17035715D01*
X-7018669Y17035715D02*
X-6990098Y17121429D01*
X-6990098Y17121429D02*
X-6961526Y17150001D01*
X-6961526Y17378572D02*
X-6990098Y17407144D01*
X-6990098Y17407144D02*
X-7018669Y17464286D01*
X-7018669Y17464286D02*
X-7018669Y17607144D01*
X-7018669Y17607144D02*
X-6990098Y17664286D01*
X-6990098Y17664286D02*
X-6961526Y17692858D01*
X-6961526Y17692858D02*
X-6904383Y17721429D01*
X-6904383Y17721429D02*
X-6847240Y17721429D01*
X-6847240Y17721429D02*
X-6761526Y17692858D01*
X-6761526Y17692858D02*
X-6418669Y17350001D01*
X-6418669Y17350001D02*
X-6418669Y17721429D01*
X4394285Y-7354188D02*
X4365713Y-7382760D01*
X4365713Y-7382760D02*
X4279999Y-7411331D01*
X4279999Y-7411331D02*
X4222856Y-7411331D01*
X4222856Y-7411331D02*
X4137142Y-7382760D01*
X4137142Y-7382760D02*
X4079999Y-7325617D01*
X4079999Y-7325617D02*
X4051428Y-7268474D01*
X4051428Y-7268474D02*
X4022856Y-7154188D01*
X4022856Y-7154188D02*
X4022856Y-7068474D01*
X4022856Y-7068474D02*
X4051428Y-6954188D01*
X4051428Y-6954188D02*
X4079999Y-6897045D01*
X4079999Y-6897045D02*
X4137142Y-6839902D01*
X4137142Y-6839902D02*
X4222856Y-6811331D01*
X4222856Y-6811331D02*
X4279999Y-6811331D01*
X4279999Y-6811331D02*
X4365713Y-6839902D01*
X4365713Y-6839902D02*
X4394285Y-6868474D01*
X4594285Y-6811331D02*
X4965713Y-6811331D01*
X4965713Y-6811331D02*
X4765713Y-7039902D01*
X4765713Y-7039902D02*
X4851428Y-7039902D01*
X4851428Y-7039902D02*
X4908571Y-7068474D01*
X4908571Y-7068474D02*
X4937142Y-7097045D01*
X4937142Y-7097045D02*
X4965713Y-7154188D01*
X4965713Y-7154188D02*
X4965713Y-7297045D01*
X4965713Y-7297045D02*
X4937142Y-7354188D01*
X4937142Y-7354188D02*
X4908571Y-7382760D01*
X4908571Y-7382760D02*
X4851428Y-7411331D01*
X4851428Y-7411331D02*
X4679999Y-7411331D01*
X4679999Y-7411331D02*
X4622856Y-7382760D01*
X4622856Y-7382760D02*
X4594285Y-7354188D01*
X5337142Y-6811331D02*
X5394285Y-6811331D01*
X5394285Y-6811331D02*
X5451428Y-6839902D01*
X5451428Y-6839902D02*
X5480000Y-6868474D01*
X5480000Y-6868474D02*
X5508571Y-6925617D01*
X5508571Y-6925617D02*
X5537142Y-7039902D01*
X5537142Y-7039902D02*
X5537142Y-7182760D01*
X5537142Y-7182760D02*
X5508571Y-7297045D01*
X5508571Y-7297045D02*
X5480000Y-7354188D01*
X5480000Y-7354188D02*
X5451428Y-7382760D01*
X5451428Y-7382760D02*
X5394285Y-7411331D01*
X5394285Y-7411331D02*
X5337142Y-7411331D01*
X5337142Y-7411331D02*
X5280000Y-7382760D01*
X5280000Y-7382760D02*
X5251428Y-7354188D01*
X5251428Y-7354188D02*
X5222857Y-7297045D01*
X5222857Y-7297045D02*
X5194285Y-7182760D01*
X5194285Y-7182760D02*
X5194285Y-7039902D01*
X5194285Y-7039902D02*
X5222857Y-6925617D01*
X5222857Y-6925617D02*
X5251428Y-6868474D01*
X5251428Y-6868474D02*
X5280000Y-6839902D01*
X5280000Y-6839902D02*
X5337142Y-6811331D01*
X-4788669Y9070001D02*
X-5074383Y8870001D01*
X-4788669Y8727144D02*
X-5388669Y8727144D01*
X-5388669Y8727144D02*
X-5388669Y8955715D01*
X-5388669Y8955715D02*
X-5360098Y9012858D01*
X-5360098Y9012858D02*
X-5331526Y9041429D01*
X-5331526Y9041429D02*
X-5274383Y9070001D01*
X-5274383Y9070001D02*
X-5188669Y9070001D01*
X-5188669Y9070001D02*
X-5131526Y9041429D01*
X-5131526Y9041429D02*
X-5102955Y9012858D01*
X-5102955Y9012858D02*
X-5074383Y8955715D01*
X-5074383Y8955715D02*
X-5074383Y8727144D01*
X-4788669Y9641429D02*
X-4788669Y9298572D01*
X-4788669Y9470001D02*
X-5388669Y9470001D01*
X-5388669Y9470001D02*
X-5302955Y9412858D01*
X-5302955Y9412858D02*
X-5245812Y9355715D01*
X-5245812Y9355715D02*
X-5217240Y9298572D01*
X-6570000Y-6487795D02*
X-6770000Y-6202081D01*
X-6912857Y-6487795D02*
X-6912857Y-5887795D01*
X-6912857Y-5887795D02*
X-6684286Y-5887795D01*
X-6684286Y-5887795D02*
X-6627143Y-5916366D01*
X-6627143Y-5916366D02*
X-6598572Y-5944938D01*
X-6598572Y-5944938D02*
X-6570000Y-6002081D01*
X-6570000Y-6002081D02*
X-6570000Y-6087795D01*
X-6570000Y-6087795D02*
X-6598572Y-6144938D01*
X-6598572Y-6144938D02*
X-6627143Y-6173509D01*
X-6627143Y-6173509D02*
X-6684286Y-6202081D01*
X-6684286Y-6202081D02*
X-6912857Y-6202081D01*
X-6341429Y-5944938D02*
X-6312857Y-5916366D01*
X-6312857Y-5916366D02*
X-6255714Y-5887795D01*
X-6255714Y-5887795D02*
X-6112857Y-5887795D01*
X-6112857Y-5887795D02*
X-6055714Y-5916366D01*
X-6055714Y-5916366D02*
X-6027143Y-5944938D01*
X-6027143Y-5944938D02*
X-5998572Y-6002081D01*
X-5998572Y-6002081D02*
X-5998572Y-6059224D01*
X-5998572Y-6059224D02*
X-6027143Y-6144938D01*
X-6027143Y-6144938D02*
X-6370000Y-6487795D01*
X-6370000Y-6487795D02*
X-5998572Y-6487795D01*
X4802760Y470000D02*
X4831331Y555714D01*
X4831331Y555714D02*
X4831331Y698572D01*
X4831331Y698572D02*
X4802760Y755714D01*
X4802760Y755714D02*
X4774188Y784286D01*
X4774188Y784286D02*
X4717045Y812857D01*
X4717045Y812857D02*
X4659902Y812857D01*
X4659902Y812857D02*
X4602760Y784286D01*
X4602760Y784286D02*
X4574188Y755714D01*
X4574188Y755714D02*
X4545617Y698572D01*
X4545617Y698572D02*
X4517045Y584286D01*
X4517045Y584286D02*
X4488474Y527143D01*
X4488474Y527143D02*
X4459902Y498572D01*
X4459902Y498572D02*
X4402760Y470000D01*
X4402760Y470000D02*
X4345617Y470000D01*
X4345617Y470000D02*
X4288474Y498572D01*
X4288474Y498572D02*
X4259902Y527143D01*
X4259902Y527143D02*
X4231331Y584286D01*
X4231331Y584286D02*
X4231331Y727143D01*
X4231331Y727143D02*
X4259902Y812857D01*
X4231331Y1012858D02*
X4831331Y1155715D01*
X4831331Y1155715D02*
X4402760Y1270001D01*
X4402760Y1270001D02*
X4831331Y1384286D01*
X4831331Y1384286D02*
X4231331Y1527143D01*
X4231331Y2041429D02*
X4231331Y1755715D01*
X4231331Y1755715D02*
X4517045Y1727143D01*
X4517045Y1727143D02*
X4488474Y1755715D01*
X4488474Y1755715D02*
X4459902Y1812857D01*
X4459902Y1812857D02*
X4459902Y1955715D01*
X4459902Y1955715D02*
X4488474Y2012857D01*
X4488474Y2012857D02*
X4517045Y2041429D01*
X4517045Y2041429D02*
X4574188Y2070000D01*
X4574188Y2070000D02*
X4717045Y2070000D01*
X4717045Y2070000D02*
X4774188Y2041429D01*
X4774188Y2041429D02*
X4802760Y2012857D01*
X4802760Y2012857D02*
X4831331Y1955715D01*
X4831331Y1955715D02*
X4831331Y1812857D01*
X4831331Y1812857D02*
X4802760Y1755715D01*
X4802760Y1755715D02*
X4774188Y1727143D01*
X18814285Y-8934188D02*
X18785713Y-8962760D01*
X18785713Y-8962760D02*
X18699999Y-8991331D01*
X18699999Y-8991331D02*
X18642856Y-8991331D01*
X18642856Y-8991331D02*
X18557142Y-8962760D01*
X18557142Y-8962760D02*
X18499999Y-8905617D01*
X18499999Y-8905617D02*
X18471428Y-8848474D01*
X18471428Y-8848474D02*
X18442856Y-8734188D01*
X18442856Y-8734188D02*
X18442856Y-8648474D01*
X18442856Y-8648474D02*
X18471428Y-8534188D01*
X18471428Y-8534188D02*
X18499999Y-8477045D01*
X18499999Y-8477045D02*
X18557142Y-8419902D01*
X18557142Y-8419902D02*
X18642856Y-8391331D01*
X18642856Y-8391331D02*
X18699999Y-8391331D01*
X18699999Y-8391331D02*
X18785713Y-8419902D01*
X18785713Y-8419902D02*
X18814285Y-8448474D01*
X19042856Y-8448474D02*
X19071428Y-8419902D01*
X19071428Y-8419902D02*
X19128571Y-8391331D01*
X19128571Y-8391331D02*
X19271428Y-8391331D01*
X19271428Y-8391331D02*
X19328571Y-8419902D01*
X19328571Y-8419902D02*
X19357142Y-8448474D01*
X19357142Y-8448474D02*
X19385713Y-8505617D01*
X19385713Y-8505617D02*
X19385713Y-8562760D01*
X19385713Y-8562760D02*
X19357142Y-8648474D01*
X19357142Y-8648474D02*
X19014285Y-8991331D01*
X19014285Y-8991331D02*
X19385713Y-8991331D01*
X19957142Y-8991331D02*
X19614285Y-8991331D01*
X19785714Y-8991331D02*
X19785714Y-8391331D01*
X19785714Y-8391331D02*
X19728571Y-8477045D01*
X19728571Y-8477045D02*
X19671428Y-8534188D01*
X19671428Y-8534188D02*
X19614285Y-8562760D01*
X-6585812Y9040001D02*
X-6557240Y9011429D01*
X-6557240Y9011429D02*
X-6528669Y8925715D01*
X-6528669Y8925715D02*
X-6528669Y8868572D01*
X-6528669Y8868572D02*
X-6557240Y8782858D01*
X-6557240Y8782858D02*
X-6614383Y8725715D01*
X-6614383Y8725715D02*
X-6671526Y8697144D01*
X-6671526Y8697144D02*
X-6785812Y8668572D01*
X-6785812Y8668572D02*
X-6871526Y8668572D01*
X-6871526Y8668572D02*
X-6985812Y8697144D01*
X-6985812Y8697144D02*
X-7042955Y8725715D01*
X-7042955Y8725715D02*
X-7100098Y8782858D01*
X-7100098Y8782858D02*
X-7128669Y8868572D01*
X-7128669Y8868572D02*
X-7128669Y8925715D01*
X-7128669Y8925715D02*
X-7100098Y9011429D01*
X-7100098Y9011429D02*
X-7071526Y9040001D01*
X-6528669Y9611429D02*
X-6528669Y9268572D01*
X-6528669Y9440001D02*
X-7128669Y9440001D01*
X-7128669Y9440001D02*
X-7042955Y9382858D01*
X-7042955Y9382858D02*
X-6985812Y9325715D01*
X-6985812Y9325715D02*
X-6957240Y9268572D01*
X-9861332Y-9344286D02*
X-9261332Y-9344286D01*
X-9261332Y-9344286D02*
X-9689903Y-9544286D01*
X-9689903Y-9544286D02*
X-9261332Y-9744286D01*
X-9261332Y-9744286D02*
X-9861332Y-9744286D01*
X-9861332Y-10030000D02*
X-9261332Y-10030000D01*
X-9861332Y-10372857D02*
X-9518475Y-10115714D01*
X-9261332Y-10372857D02*
X-9604189Y-10030000D01*
X-9318475Y-10601428D02*
X-9289903Y-10630000D01*
X-9289903Y-10630000D02*
X-9261332Y-10687143D01*
X-9261332Y-10687143D02*
X-9261332Y-10830000D01*
X-9261332Y-10830000D02*
X-9289903Y-10887143D01*
X-9289903Y-10887143D02*
X-9318475Y-10915714D01*
X-9318475Y-10915714D02*
X-9375618Y-10944285D01*
X-9375618Y-10944285D02*
X-9432760Y-10944285D01*
X-9432760Y-10944285D02*
X-9518475Y-10915714D01*
X-9518475Y-10915714D02*
X-9861332Y-10572857D01*
X-9861332Y-10572857D02*
X-9861332Y-10944285D01*
X-9250000Y-12854188D02*
X-9278572Y-12882760D01*
X-9278572Y-12882760D02*
X-9364286Y-12911331D01*
X-9364286Y-12911331D02*
X-9421429Y-12911331D01*
X-9421429Y-12911331D02*
X-9507143Y-12882760D01*
X-9507143Y-12882760D02*
X-9564286Y-12825617D01*
X-9564286Y-12825617D02*
X-9592857Y-12768474D01*
X-9592857Y-12768474D02*
X-9621429Y-12654188D01*
X-9621429Y-12654188D02*
X-9621429Y-12568474D01*
X-9621429Y-12568474D02*
X-9592857Y-12454188D01*
X-9592857Y-12454188D02*
X-9564286Y-12397045D01*
X-9564286Y-12397045D02*
X-9507143Y-12339902D01*
X-9507143Y-12339902D02*
X-9421429Y-12311331D01*
X-9421429Y-12311331D02*
X-9364286Y-12311331D01*
X-9364286Y-12311331D02*
X-9278572Y-12339902D01*
X-9278572Y-12339902D02*
X-9250000Y-12368474D01*
X-8735714Y-12511331D02*
X-8735714Y-12911331D01*
X-8878572Y-12282760D02*
X-9021429Y-12711331D01*
X-9021429Y-12711331D02*
X-8650000Y-12711331D01*
X-11508669Y11844286D02*
X-11794383Y11644286D01*
X-11508669Y11501429D02*
X-12108669Y11501429D01*
X-12108669Y11501429D02*
X-12108669Y11730000D01*
X-12108669Y11730000D02*
X-12080098Y11787143D01*
X-12080098Y11787143D02*
X-12051526Y11815714D01*
X-12051526Y11815714D02*
X-11994383Y11844286D01*
X-11994383Y11844286D02*
X-11908669Y11844286D01*
X-11908669Y11844286D02*
X-11851526Y11815714D01*
X-11851526Y11815714D02*
X-11822955Y11787143D01*
X-11822955Y11787143D02*
X-11794383Y11730000D01*
X-11794383Y11730000D02*
X-11794383Y11501429D01*
X-11508669Y12415714D02*
X-11508669Y12072857D01*
X-11508669Y12244286D02*
X-12108669Y12244286D01*
X-12108669Y12244286D02*
X-12022955Y12187143D01*
X-12022955Y12187143D02*
X-11965812Y12130000D01*
X-11965812Y12130000D02*
X-11937240Y12072857D01*
X-12051526Y12644286D02*
X-12080098Y12672858D01*
X-12080098Y12672858D02*
X-12108669Y12730000D01*
X-12108669Y12730000D02*
X-12108669Y12872858D01*
X-12108669Y12872858D02*
X-12080098Y12930000D01*
X-12080098Y12930000D02*
X-12051526Y12958572D01*
X-12051526Y12958572D02*
X-11994383Y12987143D01*
X-11994383Y12987143D02*
X-11937240Y12987143D01*
X-11937240Y12987143D02*
X-11851526Y12958572D01*
X-11851526Y12958572D02*
X-11508669Y12615715D01*
X-11508669Y12615715D02*
X-11508669Y12987143D01*
X11914285Y5865812D02*
X11885713Y5837240D01*
X11885713Y5837240D02*
X11799999Y5808669D01*
X11799999Y5808669D02*
X11742856Y5808669D01*
X11742856Y5808669D02*
X11657142Y5837240D01*
X11657142Y5837240D02*
X11599999Y5894383D01*
X11599999Y5894383D02*
X11571428Y5951526D01*
X11571428Y5951526D02*
X11542856Y6065812D01*
X11542856Y6065812D02*
X11542856Y6151526D01*
X11542856Y6151526D02*
X11571428Y6265812D01*
X11571428Y6265812D02*
X11599999Y6322955D01*
X11599999Y6322955D02*
X11657142Y6380098D01*
X11657142Y6380098D02*
X11742856Y6408669D01*
X11742856Y6408669D02*
X11799999Y6408669D01*
X11799999Y6408669D02*
X11885713Y6380098D01*
X11885713Y6380098D02*
X11914285Y6351526D01*
X12142856Y6351526D02*
X12171428Y6380098D01*
X12171428Y6380098D02*
X12228571Y6408669D01*
X12228571Y6408669D02*
X12371428Y6408669D01*
X12371428Y6408669D02*
X12428571Y6380098D01*
X12428571Y6380098D02*
X12457142Y6351526D01*
X12457142Y6351526D02*
X12485713Y6294383D01*
X12485713Y6294383D02*
X12485713Y6237240D01*
X12485713Y6237240D02*
X12457142Y6151526D01*
X12457142Y6151526D02*
X12114285Y5808669D01*
X12114285Y5808669D02*
X12485713Y5808669D01*
X12771428Y5808669D02*
X12885714Y5808669D01*
X12885714Y5808669D02*
X12942857Y5837240D01*
X12942857Y5837240D02*
X12971428Y5865812D01*
X12971428Y5865812D02*
X13028571Y5951526D01*
X13028571Y5951526D02*
X13057142Y6065812D01*
X13057142Y6065812D02*
X13057142Y6294383D01*
X13057142Y6294383D02*
X13028571Y6351526D01*
X13028571Y6351526D02*
X13000000Y6380098D01*
X13000000Y6380098D02*
X12942857Y6408669D01*
X12942857Y6408669D02*
X12828571Y6408669D01*
X12828571Y6408669D02*
X12771428Y6380098D01*
X12771428Y6380098D02*
X12742857Y6351526D01*
X12742857Y6351526D02*
X12714285Y6294383D01*
X12714285Y6294383D02*
X12714285Y6151526D01*
X12714285Y6151526D02*
X12742857Y6094383D01*
X12742857Y6094383D02*
X12771428Y6065812D01*
X12771428Y6065812D02*
X12828571Y6037240D01*
X12828571Y6037240D02*
X12942857Y6037240D01*
X12942857Y6037240D02*
X13000000Y6065812D01*
X13000000Y6065812D02*
X13028571Y6094383D01*
X13028571Y6094383D02*
X13057142Y6151526D01*
X-11435812Y1324286D02*
X-11407240Y1295714D01*
X-11407240Y1295714D02*
X-11378669Y1210000D01*
X-11378669Y1210000D02*
X-11378669Y1152857D01*
X-11378669Y1152857D02*
X-11407240Y1067143D01*
X-11407240Y1067143D02*
X-11464383Y1010000D01*
X-11464383Y1010000D02*
X-11521526Y981429D01*
X-11521526Y981429D02*
X-11635812Y952857D01*
X-11635812Y952857D02*
X-11721526Y952857D01*
X-11721526Y952857D02*
X-11835812Y981429D01*
X-11835812Y981429D02*
X-11892955Y1010000D01*
X-11892955Y1010000D02*
X-11950098Y1067143D01*
X-11950098Y1067143D02*
X-11978669Y1152857D01*
X-11978669Y1152857D02*
X-11978669Y1210000D01*
X-11978669Y1210000D02*
X-11950098Y1295714D01*
X-11950098Y1295714D02*
X-11921526Y1324286D01*
X-11921526Y1552857D02*
X-11950098Y1581429D01*
X-11950098Y1581429D02*
X-11978669Y1638571D01*
X-11978669Y1638571D02*
X-11978669Y1781429D01*
X-11978669Y1781429D02*
X-11950098Y1838571D01*
X-11950098Y1838571D02*
X-11921526Y1867143D01*
X-11921526Y1867143D02*
X-11864383Y1895714D01*
X-11864383Y1895714D02*
X-11807240Y1895714D01*
X-11807240Y1895714D02*
X-11721526Y1867143D01*
X-11721526Y1867143D02*
X-11378669Y1524286D01*
X-11378669Y1524286D02*
X-11378669Y1895714D01*
X-11978669Y2410000D02*
X-11978669Y2295715D01*
X-11978669Y2295715D02*
X-11950098Y2238572D01*
X-11950098Y2238572D02*
X-11921526Y2210000D01*
X-11921526Y2210000D02*
X-11835812Y2152858D01*
X-11835812Y2152858D02*
X-11721526Y2124286D01*
X-11721526Y2124286D02*
X-11492955Y2124286D01*
X-11492955Y2124286D02*
X-11435812Y2152858D01*
X-11435812Y2152858D02*
X-11407240Y2181429D01*
X-11407240Y2181429D02*
X-11378669Y2238572D01*
X-11378669Y2238572D02*
X-11378669Y2352858D01*
X-11378669Y2352858D02*
X-11407240Y2410000D01*
X-11407240Y2410000D02*
X-11435812Y2438572D01*
X-11435812Y2438572D02*
X-11492955Y2467143D01*
X-11492955Y2467143D02*
X-11635812Y2467143D01*
X-11635812Y2467143D02*
X-11692955Y2438572D01*
X-11692955Y2438572D02*
X-11721526Y2410000D01*
X-11721526Y2410000D02*
X-11750098Y2352858D01*
X-11750098Y2352858D02*
X-11750098Y2238572D01*
X-11750098Y2238572D02*
X-11721526Y2181429D01*
X-11721526Y2181429D02*
X-11692955Y2152858D01*
X-11692955Y2152858D02*
X-11635812Y2124286D01*
X17376954Y15655102D02*
X17332374Y15733688D01*
X17332374Y15733688D02*
X17226210Y15829279D01*
X17226210Y15829279D02*
X17164627Y15846282D01*
X17164627Y15846282D02*
X17124276Y15844167D01*
X17124276Y15844167D02*
X17064807Y15820820D01*
X17064807Y15820820D02*
X17026571Y15778354D01*
X17026571Y15778354D02*
X17009568Y15716771D01*
X17009568Y15716771D02*
X17011682Y15676420D01*
X17011682Y15676420D02*
X17035030Y15616951D01*
X17035030Y15616951D02*
X17100843Y15519247D01*
X17100843Y15519247D02*
X17124190Y15459778D01*
X17124190Y15459778D02*
X17126305Y15419427D01*
X17126305Y15419427D02*
X17109301Y15357844D01*
X17109301Y15357844D02*
X17071065Y15315378D01*
X17071065Y15315378D02*
X17011597Y15292031D01*
X17011597Y15292031D02*
X16971246Y15289916D01*
X16971246Y15289916D02*
X16909663Y15306920D01*
X16909663Y15306920D02*
X16803499Y15402510D01*
X16803499Y15402510D02*
X16758919Y15481096D01*
X16591172Y15593690D02*
X16886486Y16135167D01*
X16886486Y16135167D02*
X16514785Y15893149D01*
X16514785Y15893149D02*
X16716625Y16288111D01*
X16716625Y16288111D02*
X16208983Y15937814D01*
X16098590Y16114106D02*
X16058239Y16111991D01*
X16058239Y16111991D02*
X15996656Y16128994D01*
X15996656Y16128994D02*
X15890492Y16224584D01*
X15890492Y16224584D02*
X15867145Y16284053D01*
X15867145Y16284053D02*
X15865030Y16324404D01*
X15865030Y16324404D02*
X15882034Y16385987D01*
X15882034Y16385987D02*
X15920270Y16428453D01*
X15920270Y16428453D02*
X15998856Y16473033D01*
X15998856Y16473033D02*
X16483065Y16498409D01*
X16483065Y16498409D02*
X16207040Y16746943D01*
D13*
X15125264Y14092849D02*
X14965947Y13915909D01*
X14852735Y14146002D02*
X14965947Y13915909D01*
X14965947Y13915909D02*
X15206613Y13827368D01*
X14732330Y13869948D02*
X14965947Y13915909D01*
X14965947Y13915909D02*
X14944657Y13678768D01*
D16*
X13431331Y-7177142D02*
X13917045Y-7177142D01*
X13917045Y-7177142D02*
X13974188Y-7148571D01*
X13974188Y-7148571D02*
X14002760Y-7120000D01*
X14002760Y-7120000D02*
X14031331Y-7062857D01*
X14031331Y-7062857D02*
X14031331Y-6948571D01*
X14031331Y-6948571D02*
X14002760Y-6891428D01*
X14002760Y-6891428D02*
X13974188Y-6862857D01*
X13974188Y-6862857D02*
X13917045Y-6834285D01*
X13917045Y-6834285D02*
X13431331Y-6834285D01*
X13431331Y-6605714D02*
X13431331Y-6234286D01*
X13431331Y-6234286D02*
X13659902Y-6434286D01*
X13659902Y-6434286D02*
X13659902Y-6348571D01*
X13659902Y-6348571D02*
X13688474Y-6291429D01*
X13688474Y-6291429D02*
X13717045Y-6262857D01*
X13717045Y-6262857D02*
X13774188Y-6234286D01*
X13774188Y-6234286D02*
X13917045Y-6234286D01*
X13917045Y-6234286D02*
X13974188Y-6262857D01*
X13974188Y-6262857D02*
X14002760Y-6291429D01*
X14002760Y-6291429D02*
X14031331Y-6348571D01*
X14031331Y-6348571D02*
X14031331Y-6520000D01*
X14031331Y-6520000D02*
X14002760Y-6577143D01*
X14002760Y-6577143D02*
X13974188Y-6605714D01*
X5154285Y3335812D02*
X5125713Y3307240D01*
X5125713Y3307240D02*
X5039999Y3278669D01*
X5039999Y3278669D02*
X4982856Y3278669D01*
X4982856Y3278669D02*
X4897142Y3307240D01*
X4897142Y3307240D02*
X4839999Y3364383D01*
X4839999Y3364383D02*
X4811428Y3421526D01*
X4811428Y3421526D02*
X4782856Y3535812D01*
X4782856Y3535812D02*
X4782856Y3621526D01*
X4782856Y3621526D02*
X4811428Y3735812D01*
X4811428Y3735812D02*
X4839999Y3792955D01*
X4839999Y3792955D02*
X4897142Y3850098D01*
X4897142Y3850098D02*
X4982856Y3878669D01*
X4982856Y3878669D02*
X5039999Y3878669D01*
X5039999Y3878669D02*
X5125713Y3850098D01*
X5125713Y3850098D02*
X5154285Y3821526D01*
X5354285Y3878669D02*
X5725713Y3878669D01*
X5725713Y3878669D02*
X5525713Y3650098D01*
X5525713Y3650098D02*
X5611428Y3650098D01*
X5611428Y3650098D02*
X5668571Y3621526D01*
X5668571Y3621526D02*
X5697142Y3592955D01*
X5697142Y3592955D02*
X5725713Y3535812D01*
X5725713Y3535812D02*
X5725713Y3392955D01*
X5725713Y3392955D02*
X5697142Y3335812D01*
X5697142Y3335812D02*
X5668571Y3307240D01*
X5668571Y3307240D02*
X5611428Y3278669D01*
X5611428Y3278669D02*
X5439999Y3278669D01*
X5439999Y3278669D02*
X5382856Y3307240D01*
X5382856Y3307240D02*
X5354285Y3335812D01*
X5925714Y3878669D02*
X6297142Y3878669D01*
X6297142Y3878669D02*
X6097142Y3650098D01*
X6097142Y3650098D02*
X6182857Y3650098D01*
X6182857Y3650098D02*
X6240000Y3621526D01*
X6240000Y3621526D02*
X6268571Y3592955D01*
X6268571Y3592955D02*
X6297142Y3535812D01*
X6297142Y3535812D02*
X6297142Y3392955D01*
X6297142Y3392955D02*
X6268571Y3335812D01*
X6268571Y3335812D02*
X6240000Y3307240D01*
X6240000Y3307240D02*
X6182857Y3278669D01*
X6182857Y3278669D02*
X6011428Y3278669D01*
X6011428Y3278669D02*
X5954285Y3307240D01*
X5954285Y3307240D02*
X5925714Y3335812D01*
X12270000Y7205812D02*
X12241428Y7177240D01*
X12241428Y7177240D02*
X12155714Y7148669D01*
X12155714Y7148669D02*
X12098571Y7148669D01*
X12098571Y7148669D02*
X12012857Y7177240D01*
X12012857Y7177240D02*
X11955714Y7234383D01*
X11955714Y7234383D02*
X11927143Y7291526D01*
X11927143Y7291526D02*
X11898571Y7405812D01*
X11898571Y7405812D02*
X11898571Y7491526D01*
X11898571Y7491526D02*
X11927143Y7605812D01*
X11927143Y7605812D02*
X11955714Y7662955D01*
X11955714Y7662955D02*
X12012857Y7720098D01*
X12012857Y7720098D02*
X12098571Y7748669D01*
X12098571Y7748669D02*
X12155714Y7748669D01*
X12155714Y7748669D02*
X12241428Y7720098D01*
X12241428Y7720098D02*
X12270000Y7691526D01*
X12498571Y7691526D02*
X12527143Y7720098D01*
X12527143Y7720098D02*
X12584286Y7748669D01*
X12584286Y7748669D02*
X12727143Y7748669D01*
X12727143Y7748669D02*
X12784286Y7720098D01*
X12784286Y7720098D02*
X12812857Y7691526D01*
X12812857Y7691526D02*
X12841428Y7634383D01*
X12841428Y7634383D02*
X12841428Y7577240D01*
X12841428Y7577240D02*
X12812857Y7491526D01*
X12812857Y7491526D02*
X12470000Y7148669D01*
X12470000Y7148669D02*
X12841428Y7148669D01*
X13041429Y7748669D02*
X13412857Y7748669D01*
X13412857Y7748669D02*
X13212857Y7520098D01*
X13212857Y7520098D02*
X13298572Y7520098D01*
X13298572Y7520098D02*
X13355715Y7491526D01*
X13355715Y7491526D02*
X13384286Y7462955D01*
X13384286Y7462955D02*
X13412857Y7405812D01*
X13412857Y7405812D02*
X13412857Y7262955D01*
X13412857Y7262955D02*
X13384286Y7205812D01*
X13384286Y7205812D02*
X13355715Y7177240D01*
X13355715Y7177240D02*
X13298572Y7148669D01*
X13298572Y7148669D02*
X13127143Y7148669D01*
X13127143Y7148669D02*
X13070000Y7177240D01*
X13070000Y7177240D02*
X13041429Y7205812D01*
X-18325715Y6288669D02*
X-18525715Y6574383D01*
X-18668572Y6288669D02*
X-18668572Y6888669D01*
X-18668572Y6888669D02*
X-18440001Y6888669D01*
X-18440001Y6888669D02*
X-18382858Y6860098D01*
X-18382858Y6860098D02*
X-18354287Y6831526D01*
X-18354287Y6831526D02*
X-18325715Y6774383D01*
X-18325715Y6774383D02*
X-18325715Y6688669D01*
X-18325715Y6688669D02*
X-18354287Y6631526D01*
X-18354287Y6631526D02*
X-18382858Y6602955D01*
X-18382858Y6602955D02*
X-18440001Y6574383D01*
X-18440001Y6574383D02*
X-18668572Y6574383D01*
X-17754287Y6288669D02*
X-18097144Y6288669D01*
X-17925715Y6288669D02*
X-17925715Y6888669D01*
X-17925715Y6888669D02*
X-17982858Y6802955D01*
X-17982858Y6802955D02*
X-18040001Y6745812D01*
X-18040001Y6745812D02*
X-18097144Y6717240D01*
X-17382858Y6888669D02*
X-17325715Y6888669D01*
X-17325715Y6888669D02*
X-17268572Y6860098D01*
X-17268572Y6860098D02*
X-17240000Y6831526D01*
X-17240000Y6831526D02*
X-17211429Y6774383D01*
X-17211429Y6774383D02*
X-17182858Y6660098D01*
X-17182858Y6660098D02*
X-17182858Y6517240D01*
X-17182858Y6517240D02*
X-17211429Y6402955D01*
X-17211429Y6402955D02*
X-17240000Y6345812D01*
X-17240000Y6345812D02*
X-17268572Y6317240D01*
X-17268572Y6317240D02*
X-17325715Y6288669D01*
X-17325715Y6288669D02*
X-17382858Y6288669D01*
X-17382858Y6288669D02*
X-17440000Y6317240D01*
X-17440000Y6317240D02*
X-17468572Y6345812D01*
X-17468572Y6345812D02*
X-17497143Y6402955D01*
X-17497143Y6402955D02*
X-17525715Y6517240D01*
X-17525715Y6517240D02*
X-17525715Y6660098D01*
X-17525715Y6660098D02*
X-17497143Y6774383D01*
X-17497143Y6774383D02*
X-17468572Y6831526D01*
X-17468572Y6831526D02*
X-17440000Y6860098D01*
X-17440000Y6860098D02*
X-17382858Y6888669D01*
X-3668669Y-6179999D02*
X-3954383Y-6379999D01*
X-3668669Y-6522856D02*
X-4268669Y-6522856D01*
X-4268669Y-6522856D02*
X-4268669Y-6294285D01*
X-4268669Y-6294285D02*
X-4240098Y-6237142D01*
X-4240098Y-6237142D02*
X-4211526Y-6208571D01*
X-4211526Y-6208571D02*
X-4154383Y-6179999D01*
X-4154383Y-6179999D02*
X-4068669Y-6179999D01*
X-4068669Y-6179999D02*
X-4011526Y-6208571D01*
X-4011526Y-6208571D02*
X-3982955Y-6237142D01*
X-3982955Y-6237142D02*
X-3954383Y-6294285D01*
X-3954383Y-6294285D02*
X-3954383Y-6522856D01*
X-4268669Y-5979999D02*
X-4268669Y-5608571D01*
X-4268669Y-5608571D02*
X-4040098Y-5808571D01*
X-4040098Y-5808571D02*
X-4040098Y-5722856D01*
X-4040098Y-5722856D02*
X-4011526Y-5665714D01*
X-4011526Y-5665714D02*
X-3982955Y-5637142D01*
X-3982955Y-5637142D02*
X-3925812Y-5608571D01*
X-3925812Y-5608571D02*
X-3782955Y-5608571D01*
X-3782955Y-5608571D02*
X-3725812Y-5637142D01*
X-3725812Y-5637142D02*
X-3697240Y-5665714D01*
X-3697240Y-5665714D02*
X-3668669Y-5722856D01*
X-3668669Y-5722856D02*
X-3668669Y-5894285D01*
X-3668669Y-5894285D02*
X-3697240Y-5951428D01*
X-3697240Y-5951428D02*
X-3725812Y-5979999D01*
X-9925812Y1414286D02*
X-9897240Y1385714D01*
X-9897240Y1385714D02*
X-9868669Y1300000D01*
X-9868669Y1300000D02*
X-9868669Y1242857D01*
X-9868669Y1242857D02*
X-9897240Y1157143D01*
X-9897240Y1157143D02*
X-9954383Y1100000D01*
X-9954383Y1100000D02*
X-10011526Y1071429D01*
X-10011526Y1071429D02*
X-10125812Y1042857D01*
X-10125812Y1042857D02*
X-10211526Y1042857D01*
X-10211526Y1042857D02*
X-10325812Y1071429D01*
X-10325812Y1071429D02*
X-10382955Y1100000D01*
X-10382955Y1100000D02*
X-10440098Y1157143D01*
X-10440098Y1157143D02*
X-10468669Y1242857D01*
X-10468669Y1242857D02*
X-10468669Y1300000D01*
X-10468669Y1300000D02*
X-10440098Y1385714D01*
X-10440098Y1385714D02*
X-10411526Y1414286D01*
X-10411526Y1642857D02*
X-10440098Y1671429D01*
X-10440098Y1671429D02*
X-10468669Y1728571D01*
X-10468669Y1728571D02*
X-10468669Y1871429D01*
X-10468669Y1871429D02*
X-10440098Y1928571D01*
X-10440098Y1928571D02*
X-10411526Y1957143D01*
X-10411526Y1957143D02*
X-10354383Y1985714D01*
X-10354383Y1985714D02*
X-10297240Y1985714D01*
X-10297240Y1985714D02*
X-10211526Y1957143D01*
X-10211526Y1957143D02*
X-9868669Y1614286D01*
X-9868669Y1614286D02*
X-9868669Y1985714D01*
X-10468669Y2528572D02*
X-10468669Y2242858D01*
X-10468669Y2242858D02*
X-10182955Y2214286D01*
X-10182955Y2214286D02*
X-10211526Y2242858D01*
X-10211526Y2242858D02*
X-10240098Y2300000D01*
X-10240098Y2300000D02*
X-10240098Y2442858D01*
X-10240098Y2442858D02*
X-10211526Y2500000D01*
X-10211526Y2500000D02*
X-10182955Y2528572D01*
X-10182955Y2528572D02*
X-10125812Y2557143D01*
X-10125812Y2557143D02*
X-9982955Y2557143D01*
X-9982955Y2557143D02*
X-9925812Y2528572D01*
X-9925812Y2528572D02*
X-9897240Y2500000D01*
X-9897240Y2500000D02*
X-9868669Y2442858D01*
X-9868669Y2442858D02*
X-9868669Y2300000D01*
X-9868669Y2300000D02*
X-9897240Y2242858D01*
X-9897240Y2242858D02*
X-9925812Y2214286D01*
X14074188Y1004286D02*
X14102760Y975714D01*
X14102760Y975714D02*
X14131331Y890000D01*
X14131331Y890000D02*
X14131331Y832857D01*
X14131331Y832857D02*
X14102760Y747143D01*
X14102760Y747143D02*
X14045617Y690000D01*
X14045617Y690000D02*
X13988474Y661429D01*
X13988474Y661429D02*
X13874188Y632857D01*
X13874188Y632857D02*
X13788474Y632857D01*
X13788474Y632857D02*
X13674188Y661429D01*
X13674188Y661429D02*
X13617045Y690000D01*
X13617045Y690000D02*
X13559902Y747143D01*
X13559902Y747143D02*
X13531331Y832857D01*
X13531331Y832857D02*
X13531331Y890000D01*
X13531331Y890000D02*
X13559902Y975714D01*
X13559902Y975714D02*
X13588474Y1004286D01*
X13531331Y1204286D02*
X13531331Y1575714D01*
X13531331Y1575714D02*
X13759902Y1375714D01*
X13759902Y1375714D02*
X13759902Y1461429D01*
X13759902Y1461429D02*
X13788474Y1518571D01*
X13788474Y1518571D02*
X13817045Y1547143D01*
X13817045Y1547143D02*
X13874188Y1575714D01*
X13874188Y1575714D02*
X14017045Y1575714D01*
X14017045Y1575714D02*
X14074188Y1547143D01*
X14074188Y1547143D02*
X14102760Y1518571D01*
X14102760Y1518571D02*
X14131331Y1461429D01*
X14131331Y1461429D02*
X14131331Y1290000D01*
X14131331Y1290000D02*
X14102760Y1232857D01*
X14102760Y1232857D02*
X14074188Y1204286D01*
X14131331Y2147143D02*
X14131331Y1804286D01*
X14131331Y1975715D02*
X13531331Y1975715D01*
X13531331Y1975715D02*
X13617045Y1918572D01*
X13617045Y1918572D02*
X13674188Y1861429D01*
X13674188Y1861429D02*
X13702760Y1804286D01*
X6001331Y-2557142D02*
X5401331Y-2557142D01*
X5401331Y-2557142D02*
X6001331Y-2214285D01*
X6001331Y-2214285D02*
X5401331Y-2214285D01*
X5944188Y-1585714D02*
X5972760Y-1614286D01*
X5972760Y-1614286D02*
X6001331Y-1700000D01*
X6001331Y-1700000D02*
X6001331Y-1757143D01*
X6001331Y-1757143D02*
X5972760Y-1842857D01*
X5972760Y-1842857D02*
X5915617Y-1900000D01*
X5915617Y-1900000D02*
X5858474Y-1928571D01*
X5858474Y-1928571D02*
X5744188Y-1957143D01*
X5744188Y-1957143D02*
X5658474Y-1957143D01*
X5658474Y-1957143D02*
X5544188Y-1928571D01*
X5544188Y-1928571D02*
X5487045Y-1900000D01*
X5487045Y-1900000D02*
X5429902Y-1842857D01*
X5429902Y-1842857D02*
X5401331Y-1757143D01*
X5401331Y-1757143D02*
X5401331Y-1700000D01*
X5401331Y-1700000D02*
X5429902Y-1614286D01*
X5429902Y-1614286D02*
X5458474Y-1585714D01*
X5401331Y-1385714D02*
X5401331Y-1014286D01*
X5401331Y-1014286D02*
X5629902Y-1214286D01*
X5629902Y-1214286D02*
X5629902Y-1128571D01*
X5629902Y-1128571D02*
X5658474Y-1071429D01*
X5658474Y-1071429D02*
X5687045Y-1042857D01*
X5687045Y-1042857D02*
X5744188Y-1014286D01*
X5744188Y-1014286D02*
X5887045Y-1014286D01*
X5887045Y-1014286D02*
X5944188Y-1042857D01*
X5944188Y-1042857D02*
X5972760Y-1071429D01*
X5972760Y-1071429D02*
X6001331Y-1128571D01*
X6001331Y-1128571D02*
X6001331Y-1300000D01*
X6001331Y-1300000D02*
X5972760Y-1357143D01*
X5972760Y-1357143D02*
X5944188Y-1385714D01*
X-4895812Y17150001D02*
X-4867240Y17121429D01*
X-4867240Y17121429D02*
X-4838669Y17035715D01*
X-4838669Y17035715D02*
X-4838669Y16978572D01*
X-4838669Y16978572D02*
X-4867240Y16892858D01*
X-4867240Y16892858D02*
X-4924383Y16835715D01*
X-4924383Y16835715D02*
X-4981526Y16807144D01*
X-4981526Y16807144D02*
X-5095812Y16778572D01*
X-5095812Y16778572D02*
X-5181526Y16778572D01*
X-5181526Y16778572D02*
X-5295812Y16807144D01*
X-5295812Y16807144D02*
X-5352955Y16835715D01*
X-5352955Y16835715D02*
X-5410098Y16892858D01*
X-5410098Y16892858D02*
X-5438669Y16978572D01*
X-5438669Y16978572D02*
X-5438669Y17035715D01*
X-5438669Y17035715D02*
X-5410098Y17121429D01*
X-5410098Y17121429D02*
X-5381526Y17150001D01*
X-5438669Y17350001D02*
X-5438669Y17721429D01*
X-5438669Y17721429D02*
X-5210098Y17521429D01*
X-5210098Y17521429D02*
X-5210098Y17607144D01*
X-5210098Y17607144D02*
X-5181526Y17664286D01*
X-5181526Y17664286D02*
X-5152955Y17692858D01*
X-5152955Y17692858D02*
X-5095812Y17721429D01*
X-5095812Y17721429D02*
X-4952955Y17721429D01*
X-4952955Y17721429D02*
X-4895812Y17692858D01*
X-4895812Y17692858D02*
X-4867240Y17664286D01*
X-4867240Y17664286D02*
X-4838669Y17607144D01*
X-4838669Y17607144D02*
X-4838669Y17435715D01*
X-4838669Y17435715D02*
X-4867240Y17378572D01*
X-4867240Y17378572D02*
X-4895812Y17350001D01*
X12194285Y-1494188D02*
X12165713Y-1522760D01*
X12165713Y-1522760D02*
X12079999Y-1551331D01*
X12079999Y-1551331D02*
X12022856Y-1551331D01*
X12022856Y-1551331D02*
X11937142Y-1522760D01*
X11937142Y-1522760D02*
X11879999Y-1465617D01*
X11879999Y-1465617D02*
X11851428Y-1408474D01*
X11851428Y-1408474D02*
X11822856Y-1294188D01*
X11822856Y-1294188D02*
X11822856Y-1208474D01*
X11822856Y-1208474D02*
X11851428Y-1094188D01*
X11851428Y-1094188D02*
X11879999Y-1037045D01*
X11879999Y-1037045D02*
X11937142Y-979902D01*
X11937142Y-979902D02*
X12022856Y-951331D01*
X12022856Y-951331D02*
X12079999Y-951331D01*
X12079999Y-951331D02*
X12165713Y-979902D01*
X12165713Y-979902D02*
X12194285Y-1008474D01*
X12422856Y-1008474D02*
X12451428Y-979902D01*
X12451428Y-979902D02*
X12508571Y-951331D01*
X12508571Y-951331D02*
X12651428Y-951331D01*
X12651428Y-951331D02*
X12708571Y-979902D01*
X12708571Y-979902D02*
X12737142Y-1008474D01*
X12737142Y-1008474D02*
X12765713Y-1065617D01*
X12765713Y-1065617D02*
X12765713Y-1122760D01*
X12765713Y-1122760D02*
X12737142Y-1208474D01*
X12737142Y-1208474D02*
X12394285Y-1551331D01*
X12394285Y-1551331D02*
X12765713Y-1551331D01*
X13280000Y-1151331D02*
X13280000Y-1551331D01*
X13137142Y-922760D02*
X12994285Y-1351331D01*
X12994285Y-1351331D02*
X13365714Y-1351331D01*
X5598668Y6547143D02*
X5112954Y6547143D01*
X5112954Y6547143D02*
X5055811Y6518572D01*
X5055811Y6518572D02*
X5027240Y6490000D01*
X5027240Y6490000D02*
X4998668Y6432858D01*
X4998668Y6432858D02*
X4998668Y6318572D01*
X4998668Y6318572D02*
X5027240Y6261429D01*
X5027240Y6261429D02*
X5055811Y6232858D01*
X5055811Y6232858D02*
X5112954Y6204286D01*
X5112954Y6204286D02*
X5598668Y6204286D01*
X5398668Y5661429D02*
X4998668Y5661429D01*
X5627240Y5804287D02*
X5198668Y5947144D01*
X5198668Y5947144D02*
X5198668Y5575715D01*
X10924188Y-4355714D02*
X10952760Y-4384286D01*
X10952760Y-4384286D02*
X10981331Y-4470000D01*
X10981331Y-4470000D02*
X10981331Y-4527143D01*
X10981331Y-4527143D02*
X10952760Y-4612857D01*
X10952760Y-4612857D02*
X10895617Y-4670000D01*
X10895617Y-4670000D02*
X10838474Y-4698571D01*
X10838474Y-4698571D02*
X10724188Y-4727143D01*
X10724188Y-4727143D02*
X10638474Y-4727143D01*
X10638474Y-4727143D02*
X10524188Y-4698571D01*
X10524188Y-4698571D02*
X10467045Y-4670000D01*
X10467045Y-4670000D02*
X10409902Y-4612857D01*
X10409902Y-4612857D02*
X10381331Y-4527143D01*
X10381331Y-4527143D02*
X10381331Y-4470000D01*
X10381331Y-4470000D02*
X10409902Y-4384286D01*
X10409902Y-4384286D02*
X10438474Y-4355714D01*
X10981331Y-3784286D02*
X10981331Y-4127143D01*
X10981331Y-3955714D02*
X10381331Y-3955714D01*
X10381331Y-3955714D02*
X10467045Y-4012857D01*
X10467045Y-4012857D02*
X10524188Y-4070000D01*
X10524188Y-4070000D02*
X10552760Y-4127143D01*
X10381331Y-3584285D02*
X10381331Y-3212857D01*
X10381331Y-3212857D02*
X10609902Y-3412857D01*
X10609902Y-3412857D02*
X10609902Y-3327142D01*
X10609902Y-3327142D02*
X10638474Y-3270000D01*
X10638474Y-3270000D02*
X10667045Y-3241428D01*
X10667045Y-3241428D02*
X10724188Y-3212857D01*
X10724188Y-3212857D02*
X10867045Y-3212857D01*
X10867045Y-3212857D02*
X10924188Y-3241428D01*
X10924188Y-3241428D02*
X10952760Y-3270000D01*
X10952760Y-3270000D02*
X10981331Y-3327142D01*
X10981331Y-3327142D02*
X10981331Y-3498571D01*
X10981331Y-3498571D02*
X10952760Y-3555714D01*
X10952760Y-3555714D02*
X10924188Y-3584285D01*
X-17990001Y1958669D02*
X-17990001Y1530098D01*
X-17990001Y1530098D02*
X-18018572Y1444383D01*
X-18018572Y1444383D02*
X-18075715Y1387240D01*
X-18075715Y1387240D02*
X-18161429Y1358669D01*
X-18161429Y1358669D02*
X-18218572Y1358669D01*
X-17704286Y1358669D02*
X-17704286Y1958669D01*
X-17704286Y1958669D02*
X-17475715Y1958669D01*
X-17475715Y1958669D02*
X-17418572Y1930098D01*
X-17418572Y1930098D02*
X-17390001Y1901526D01*
X-17390001Y1901526D02*
X-17361429Y1844383D01*
X-17361429Y1844383D02*
X-17361429Y1758669D01*
X-17361429Y1758669D02*
X-17390001Y1701526D01*
X-17390001Y1701526D02*
X-17418572Y1672955D01*
X-17418572Y1672955D02*
X-17475715Y1644383D01*
X-17475715Y1644383D02*
X-17704286Y1644383D01*
X-17161429Y1958669D02*
X-16790001Y1958669D01*
X-16790001Y1958669D02*
X-16990001Y1730098D01*
X-16990001Y1730098D02*
X-16904286Y1730098D01*
X-16904286Y1730098D02*
X-16847143Y1701526D01*
X-16847143Y1701526D02*
X-16818572Y1672955D01*
X-16818572Y1672955D02*
X-16790001Y1615812D01*
X-16790001Y1615812D02*
X-16790001Y1472955D01*
X-16790001Y1472955D02*
X-16818572Y1415812D01*
X-16818572Y1415812D02*
X-16847143Y1387240D01*
X-16847143Y1387240D02*
X-16904286Y1358669D01*
X-16904286Y1358669D02*
X-17075715Y1358669D01*
X-17075715Y1358669D02*
X-17132858Y1387240D01*
X-17132858Y1387240D02*
X-17161429Y1415812D01*
X-2078669Y-6179999D02*
X-2364383Y-6379999D01*
X-2078669Y-6522856D02*
X-2678669Y-6522856D01*
X-2678669Y-6522856D02*
X-2678669Y-6294285D01*
X-2678669Y-6294285D02*
X-2650098Y-6237142D01*
X-2650098Y-6237142D02*
X-2621526Y-6208571D01*
X-2621526Y-6208571D02*
X-2564383Y-6179999D01*
X-2564383Y-6179999D02*
X-2478669Y-6179999D01*
X-2478669Y-6179999D02*
X-2421526Y-6208571D01*
X-2421526Y-6208571D02*
X-2392955Y-6237142D01*
X-2392955Y-6237142D02*
X-2364383Y-6294285D01*
X-2364383Y-6294285D02*
X-2364383Y-6522856D01*
X-2478669Y-5665714D02*
X-2078669Y-5665714D01*
X-2707240Y-5808571D02*
X-2278669Y-5951428D01*
X-2278669Y-5951428D02*
X-2278669Y-5579999D01*
X-4402857Y-23251331D02*
X-4402857Y-22651331D01*
X-4402857Y-22651331D02*
X-4174286Y-22651331D01*
X-4174286Y-22651331D02*
X-4117143Y-22679902D01*
X-4117143Y-22679902D02*
X-4088572Y-22708474D01*
X-4088572Y-22708474D02*
X-4060000Y-22765617D01*
X-4060000Y-22765617D02*
X-4060000Y-22851331D01*
X-4060000Y-22851331D02*
X-4088572Y-22908474D01*
X-4088572Y-22908474D02*
X-4117143Y-22937045D01*
X-4117143Y-22937045D02*
X-4174286Y-22965617D01*
X-4174286Y-22965617D02*
X-4402857Y-22965617D01*
X-3488572Y-23251331D02*
X-3831429Y-23251331D01*
X-3660000Y-23251331D02*
X-3660000Y-22651331D01*
X-3660000Y-22651331D02*
X-3717143Y-22737045D01*
X-3717143Y-22737045D02*
X-3774286Y-22794188D01*
X-3774286Y-22794188D02*
X-3831429Y-22822760D01*
X-12965812Y12884286D02*
X-12937240Y12855714D01*
X-12937240Y12855714D02*
X-12908669Y12770000D01*
X-12908669Y12770000D02*
X-12908669Y12712857D01*
X-12908669Y12712857D02*
X-12937240Y12627143D01*
X-12937240Y12627143D02*
X-12994383Y12570000D01*
X-12994383Y12570000D02*
X-13051526Y12541429D01*
X-13051526Y12541429D02*
X-13165812Y12512857D01*
X-13165812Y12512857D02*
X-13251526Y12512857D01*
X-13251526Y12512857D02*
X-13365812Y12541429D01*
X-13365812Y12541429D02*
X-13422955Y12570000D01*
X-13422955Y12570000D02*
X-13480098Y12627143D01*
X-13480098Y12627143D02*
X-13508669Y12712857D01*
X-13508669Y12712857D02*
X-13508669Y12770000D01*
X-13508669Y12770000D02*
X-13480098Y12855714D01*
X-13480098Y12855714D02*
X-13451526Y12884286D01*
X-13451526Y13112857D02*
X-13480098Y13141429D01*
X-13480098Y13141429D02*
X-13508669Y13198571D01*
X-13508669Y13198571D02*
X-13508669Y13341429D01*
X-13508669Y13341429D02*
X-13480098Y13398571D01*
X-13480098Y13398571D02*
X-13451526Y13427143D01*
X-13451526Y13427143D02*
X-13394383Y13455714D01*
X-13394383Y13455714D02*
X-13337240Y13455714D01*
X-13337240Y13455714D02*
X-13251526Y13427143D01*
X-13251526Y13427143D02*
X-12908669Y13084286D01*
X-12908669Y13084286D02*
X-12908669Y13455714D01*
X-13508669Y13655715D02*
X-13508669Y14055715D01*
X-13508669Y14055715D02*
X-12908669Y13798572D01*
X-2445812Y-11179999D02*
X-2417240Y-11208571D01*
X-2417240Y-11208571D02*
X-2388669Y-11294285D01*
X-2388669Y-11294285D02*
X-2388669Y-11351428D01*
X-2388669Y-11351428D02*
X-2417240Y-11437142D01*
X-2417240Y-11437142D02*
X-2474383Y-11494285D01*
X-2474383Y-11494285D02*
X-2531526Y-11522856D01*
X-2531526Y-11522856D02*
X-2645812Y-11551428D01*
X-2645812Y-11551428D02*
X-2731526Y-11551428D01*
X-2731526Y-11551428D02*
X-2845812Y-11522856D01*
X-2845812Y-11522856D02*
X-2902955Y-11494285D01*
X-2902955Y-11494285D02*
X-2960098Y-11437142D01*
X-2960098Y-11437142D02*
X-2988669Y-11351428D01*
X-2988669Y-11351428D02*
X-2988669Y-11294285D01*
X-2988669Y-11294285D02*
X-2960098Y-11208571D01*
X-2960098Y-11208571D02*
X-2931526Y-11179999D01*
X-2988669Y-10637142D02*
X-2988669Y-10922856D01*
X-2988669Y-10922856D02*
X-2702955Y-10951428D01*
X-2702955Y-10951428D02*
X-2731526Y-10922856D01*
X-2731526Y-10922856D02*
X-2760098Y-10865714D01*
X-2760098Y-10865714D02*
X-2760098Y-10722856D01*
X-2760098Y-10722856D02*
X-2731526Y-10665714D01*
X-2731526Y-10665714D02*
X-2702955Y-10637142D01*
X-2702955Y-10637142D02*
X-2645812Y-10608571D01*
X-2645812Y-10608571D02*
X-2502955Y-10608571D01*
X-2502955Y-10608571D02*
X-2445812Y-10637142D01*
X-2445812Y-10637142D02*
X-2417240Y-10665714D01*
X-2417240Y-10665714D02*
X-2388669Y-10722856D01*
X-2388669Y-10722856D02*
X-2388669Y-10865714D01*
X-2388669Y-10865714D02*
X-2417240Y-10922856D01*
X-2417240Y-10922856D02*
X-2445812Y-10951428D01*
X8082991Y22081126D02*
X8005090Y22126894D01*
X8005090Y22126894D02*
X7865354Y22156596D01*
X7865354Y22156596D02*
X7803520Y22140530D01*
X7803520Y22140530D02*
X7769632Y22118523D01*
X7769632Y22118523D02*
X7729805Y22068569D01*
X7729805Y22068569D02*
X7717924Y22012675D01*
X7717924Y22012675D02*
X7733990Y21950840D01*
X7733990Y21950840D02*
X7755997Y21916953D01*
X7755997Y21916953D02*
X7805951Y21877125D01*
X7805951Y21877125D02*
X7911799Y21825417D01*
X7911799Y21825417D02*
X7961753Y21785589D01*
X7961753Y21785589D02*
X7983759Y21751702D01*
X7983759Y21751702D02*
X7999826Y21689867D01*
X7999826Y21689867D02*
X7987945Y21633973D01*
X7987945Y21633973D02*
X7948117Y21584019D01*
X7948117Y21584019D02*
X7914230Y21562012D01*
X7914230Y21562012D02*
X7852396Y21545946D01*
X7852396Y21545946D02*
X7712660Y21575648D01*
X7712660Y21575648D02*
X7634759Y21621416D01*
X7433189Y21635051D02*
X7418201Y22251641D01*
X7418201Y22251641D02*
X7217307Y21856197D01*
X7217307Y21856197D02*
X7194624Y22299164D01*
X7194624Y22299164D02*
X6930142Y21741977D01*
X6523895Y22441732D02*
X6859259Y22370448D01*
X6691577Y22406090D02*
X6566830Y21819201D01*
X6566830Y21819201D02*
X6640545Y21891162D01*
X6640545Y21891162D02*
X6708320Y21935175D01*
X6708320Y21935175D02*
X6770154Y21951242D01*
D13*
X6475614Y19717831D02*
X6426112Y19484939D01*
X6213020Y19627598D02*
X6426112Y19484939D01*
X6426112Y19484939D02*
X6678805Y19528593D01*
X6246774Y19328326D02*
X6426112Y19484939D01*
X6426112Y19484939D02*
X6526245Y19268923D01*
D16*
X13320000Y3805812D02*
X13291428Y3777240D01*
X13291428Y3777240D02*
X13205714Y3748669D01*
X13205714Y3748669D02*
X13148571Y3748669D01*
X13148571Y3748669D02*
X13062857Y3777240D01*
X13062857Y3777240D02*
X13005714Y3834383D01*
X13005714Y3834383D02*
X12977143Y3891526D01*
X12977143Y3891526D02*
X12948571Y4005812D01*
X12948571Y4005812D02*
X12948571Y4091526D01*
X12948571Y4091526D02*
X12977143Y4205812D01*
X12977143Y4205812D02*
X13005714Y4262955D01*
X13005714Y4262955D02*
X13062857Y4320098D01*
X13062857Y4320098D02*
X13148571Y4348669D01*
X13148571Y4348669D02*
X13205714Y4348669D01*
X13205714Y4348669D02*
X13291428Y4320098D01*
X13291428Y4320098D02*
X13320000Y4291526D01*
X13605714Y3748669D02*
X13720000Y3748669D01*
X13720000Y3748669D02*
X13777143Y3777240D01*
X13777143Y3777240D02*
X13805714Y3805812D01*
X13805714Y3805812D02*
X13862857Y3891526D01*
X13862857Y3891526D02*
X13891428Y4005812D01*
X13891428Y4005812D02*
X13891428Y4234383D01*
X13891428Y4234383D02*
X13862857Y4291526D01*
X13862857Y4291526D02*
X13834286Y4320098D01*
X13834286Y4320098D02*
X13777143Y4348669D01*
X13777143Y4348669D02*
X13662857Y4348669D01*
X13662857Y4348669D02*
X13605714Y4320098D01*
X13605714Y4320098D02*
X13577143Y4291526D01*
X13577143Y4291526D02*
X13548571Y4234383D01*
X13548571Y4234383D02*
X13548571Y4091526D01*
X13548571Y4091526D02*
X13577143Y4034383D01*
X13577143Y4034383D02*
X13605714Y4005812D01*
X13605714Y4005812D02*
X13662857Y3977240D01*
X13662857Y3977240D02*
X13777143Y3977240D01*
X13777143Y3977240D02*
X13834286Y4005812D01*
X13834286Y4005812D02*
X13862857Y4034383D01*
X13862857Y4034383D02*
X13891428Y4091526D01*
X4394285Y-6101331D02*
X4194285Y-5815617D01*
X4051428Y-6101331D02*
X4051428Y-5501331D01*
X4051428Y-5501331D02*
X4279999Y-5501331D01*
X4279999Y-5501331D02*
X4337142Y-5529902D01*
X4337142Y-5529902D02*
X4365713Y-5558474D01*
X4365713Y-5558474D02*
X4394285Y-5615617D01*
X4394285Y-5615617D02*
X4394285Y-5701331D01*
X4394285Y-5701331D02*
X4365713Y-5758474D01*
X4365713Y-5758474D02*
X4337142Y-5787045D01*
X4337142Y-5787045D02*
X4279999Y-5815617D01*
X4279999Y-5815617D02*
X4051428Y-5815617D01*
X4965713Y-6101331D02*
X4622856Y-6101331D01*
X4794285Y-6101331D02*
X4794285Y-5501331D01*
X4794285Y-5501331D02*
X4737142Y-5587045D01*
X4737142Y-5587045D02*
X4679999Y-5644188D01*
X4679999Y-5644188D02*
X4622856Y-5672760D01*
X5508571Y-5501331D02*
X5222857Y-5501331D01*
X5222857Y-5501331D02*
X5194285Y-5787045D01*
X5194285Y-5787045D02*
X5222857Y-5758474D01*
X5222857Y-5758474D02*
X5280000Y-5729902D01*
X5280000Y-5729902D02*
X5422857Y-5729902D01*
X5422857Y-5729902D02*
X5480000Y-5758474D01*
X5480000Y-5758474D02*
X5508571Y-5787045D01*
X5508571Y-5787045D02*
X5537142Y-5844188D01*
X5537142Y-5844188D02*
X5537142Y-5987045D01*
X5537142Y-5987045D02*
X5508571Y-6044188D01*
X5508571Y-6044188D02*
X5480000Y-6072760D01*
X5480000Y-6072760D02*
X5422857Y-6101331D01*
X5422857Y-6101331D02*
X5280000Y-6101331D01*
X5280000Y-6101331D02*
X5222857Y-6072760D01*
X5222857Y-6072760D02*
X5194285Y-6044188D01*
X-15251332Y1718572D02*
X-15251332Y1347144D01*
X-15251332Y1347144D02*
X-15479903Y1547144D01*
X-15479903Y1547144D02*
X-15479903Y1461429D01*
X-15479903Y1461429D02*
X-15508475Y1404286D01*
X-15508475Y1404286D02*
X-15537046Y1375715D01*
X-15537046Y1375715D02*
X-15594189Y1347144D01*
X-15594189Y1347144D02*
X-15737046Y1347144D01*
X-15737046Y1347144D02*
X-15794189Y1375715D01*
X-15794189Y1375715D02*
X-15822760Y1404286D01*
X-15822760Y1404286D02*
X-15851332Y1461429D01*
X-15851332Y1461429D02*
X-15851332Y1632858D01*
X-15851332Y1632858D02*
X-15822760Y1690001D01*
X-15822760Y1690001D02*
X-15794189Y1718572D01*
X-15451332Y1147143D02*
X-15851332Y1004286D01*
X-15851332Y1004286D02*
X-15451332Y861429D01*
X-15251332Y690000D02*
X-15251332Y318572D01*
X-15251332Y318572D02*
X-15479903Y518572D01*
X-15479903Y518572D02*
X-15479903Y432857D01*
X-15479903Y432857D02*
X-15508475Y375714D01*
X-15508475Y375714D02*
X-15537046Y347143D01*
X-15537046Y347143D02*
X-15594189Y318572D01*
X-15594189Y318572D02*
X-15737046Y318572D01*
X-15737046Y318572D02*
X-15794189Y347143D01*
X-15794189Y347143D02*
X-15822760Y375714D01*
X-15822760Y375714D02*
X-15851332Y432857D01*
X-15851332Y432857D02*
X-15851332Y604286D01*
X-15851332Y604286D02*
X-15822760Y661429D01*
X-15822760Y661429D02*
X-15794189Y690000D01*
X-15251332Y-110000D02*
X-15679903Y-110000D01*
X-15679903Y-110000D02*
X-15765618Y-81429D01*
X-15765618Y-81429D02*
X-15822760Y-24286D01*
X-15822760Y-24286D02*
X-15851332Y61428D01*
X-15851332Y61428D02*
X-15851332Y118571D01*
X-15308475Y-367143D02*
X-15279903Y-395715D01*
X-15279903Y-395715D02*
X-15251332Y-452858D01*
X-15251332Y-452858D02*
X-15251332Y-595715D01*
X-15251332Y-595715D02*
X-15279903Y-652858D01*
X-15279903Y-652858D02*
X-15308475Y-681429D01*
X-15308475Y-681429D02*
X-15365618Y-710000D01*
X-15365618Y-710000D02*
X-15422760Y-710000D01*
X-15422760Y-710000D02*
X-15508475Y-681429D01*
X-15508475Y-681429D02*
X-15851332Y-338572D01*
X-15851332Y-338572D02*
X-15851332Y-710000D01*
X11824285Y3045812D02*
X11795713Y3017240D01*
X11795713Y3017240D02*
X11709999Y2988669D01*
X11709999Y2988669D02*
X11652856Y2988669D01*
X11652856Y2988669D02*
X11567142Y3017240D01*
X11567142Y3017240D02*
X11509999Y3074383D01*
X11509999Y3074383D02*
X11481428Y3131526D01*
X11481428Y3131526D02*
X11452856Y3245812D01*
X11452856Y3245812D02*
X11452856Y3331526D01*
X11452856Y3331526D02*
X11481428Y3445812D01*
X11481428Y3445812D02*
X11509999Y3502955D01*
X11509999Y3502955D02*
X11567142Y3560098D01*
X11567142Y3560098D02*
X11652856Y3588669D01*
X11652856Y3588669D02*
X11709999Y3588669D01*
X11709999Y3588669D02*
X11795713Y3560098D01*
X11795713Y3560098D02*
X11824285Y3531526D01*
X12395713Y2988669D02*
X12052856Y2988669D01*
X12224285Y2988669D02*
X12224285Y3588669D01*
X12224285Y3588669D02*
X12167142Y3502955D01*
X12167142Y3502955D02*
X12109999Y3445812D01*
X12109999Y3445812D02*
X12052856Y3417240D01*
X12767142Y3588669D02*
X12824285Y3588669D01*
X12824285Y3588669D02*
X12881428Y3560098D01*
X12881428Y3560098D02*
X12910000Y3531526D01*
X12910000Y3531526D02*
X12938571Y3474383D01*
X12938571Y3474383D02*
X12967142Y3360098D01*
X12967142Y3360098D02*
X12967142Y3217240D01*
X12967142Y3217240D02*
X12938571Y3102955D01*
X12938571Y3102955D02*
X12910000Y3045812D01*
X12910000Y3045812D02*
X12881428Y3017240D01*
X12881428Y3017240D02*
X12824285Y2988669D01*
X12824285Y2988669D02*
X12767142Y2988669D01*
X12767142Y2988669D02*
X12710000Y3017240D01*
X12710000Y3017240D02*
X12681428Y3045812D01*
X12681428Y3045812D02*
X12652857Y3102955D01*
X12652857Y3102955D02*
X12624285Y3217240D01*
X12624285Y3217240D02*
X12624285Y3360098D01*
X12624285Y3360098D02*
X12652857Y3474383D01*
X12652857Y3474383D02*
X12681428Y3531526D01*
X12681428Y3531526D02*
X12710000Y3560098D01*
X12710000Y3560098D02*
X12767142Y3588669D01*
X9531331Y-3889999D02*
X9245617Y-4089999D01*
X9531331Y-4232856D02*
X8931331Y-4232856D01*
X8931331Y-4232856D02*
X8931331Y-4004285D01*
X8931331Y-4004285D02*
X8959902Y-3947142D01*
X8959902Y-3947142D02*
X8988474Y-3918571D01*
X8988474Y-3918571D02*
X9045617Y-3889999D01*
X9045617Y-3889999D02*
X9131331Y-3889999D01*
X9131331Y-3889999D02*
X9188474Y-3918571D01*
X9188474Y-3918571D02*
X9217045Y-3947142D01*
X9217045Y-3947142D02*
X9245617Y-4004285D01*
X9245617Y-4004285D02*
X9245617Y-4232856D01*
X8931331Y-3689999D02*
X8931331Y-3289999D01*
X8931331Y-3289999D02*
X9531331Y-3547142D01*
%TO.C,JP1*%
X11410000Y4190000D02*
X11410000Y4790000D01*
X11110000Y4490000D02*
X11410000Y4190000D01*
X11110000Y4490000D02*
X11410000Y4790000D01*
X8940000Y1860000D02*
X8940000Y4660000D01*
X9640000Y5310000D02*
X10240000Y5310000D01*
X10240000Y1210000D02*
X9640000Y1210000D01*
X10940000Y4660000D02*
X10940000Y1860000D01*
X8940000Y4610000D02*
G75*
G02*
X9640000Y5310000I699999J1D01*
G01*
X9640000Y1210000D02*
G75*
G02*
X8940000Y1910000I0J700000D01*
G01*
X10240000Y5310000D02*
G75*
G02*
X10940000Y4610000I1J-699999D01*
G01*
X10940000Y1910000D02*
G75*
G02*
X10240000Y1210000I-700000J0D01*
G01*
%TO.C,D4*%
X-3815000Y-3640000D02*
X-4965000Y-3640000D01*
X-8165000Y3660000D02*
X-9315000Y3660000D01*
X-9315000Y-3640000D02*
X-9315000Y3660000D01*
X-3815000Y3660000D02*
X-4965000Y3660000D01*
X-3815000Y-3640000D02*
X-3815000Y3660000D01*
%TO.C,C2*%
X-7190000Y14813733D02*
X-7190000Y15106267D01*
X-6170000Y14813733D02*
X-6170000Y15106267D01*
%TO.C,C30*%
X1602164Y-6810000D02*
X1817836Y-6810000D01*
X1602164Y-7530000D02*
X1817836Y-7530000D01*
%TO.C,SW4*%
X-12709800Y-18630912D02*
X-10409801Y-14647196D01*
X-10409801Y-14647196D02*
X-6252878Y-17047195D01*
X-8552880Y-21030913D02*
X-12709800Y-18630912D01*
X-6252878Y-17047195D02*
X-8552880Y-21030913D01*
%TO.C,R1*%
X-5652500Y11312742D02*
X-5652500Y11787258D01*
X-4607500Y11312742D02*
X-4607500Y11787258D01*
%TO.C,R2*%
X-6734724Y-7227500D02*
X-6225276Y-7227500D01*
X-6734724Y-8272500D02*
X-6225276Y-8272500D01*
%TO.C,SW5*%
X-3450000Y3150000D02*
X-3200000Y3150000D01*
X-3450000Y-3150000D02*
X-3450000Y3150000D01*
X-3200000Y-3150000D02*
X-3450000Y-3150000D01*
X-1300000Y3150000D02*
X1300000Y3150000D01*
X1300000Y-3150000D02*
X-1300000Y-3150000D01*
X3200000Y3150000D02*
X3450000Y3150000D01*
X3450000Y3150000D02*
X3450000Y-3150000D01*
X3450000Y-3150000D02*
X3200000Y-3150000D01*
%TO.C,C21*%
X16523767Y-8170000D02*
X16231233Y-8170000D01*
X16523767Y-9190000D02*
X16231233Y-9190000D01*
%TO.C,C1*%
X-7210000Y11690580D02*
X-7210000Y11409420D01*
X-6190000Y11690580D02*
X-6190000Y11409420D01*
%TO.C,MK2*%
X-8692000Y-8805000D02*
X-5292000Y-8805000D01*
X-8692000Y-11655000D02*
X-8692000Y-8805000D01*
X-4992000Y-9105000D02*
X-4992000Y-11655000D01*
X-4992000Y-11655000D02*
X-8692000Y-11655000D01*
X-4712000Y-8805000D02*
X-4992000Y-8805000D01*
X-4992000Y-8525000D01*
X-4712000Y-8805000D01*
G36*
X-4712000Y-8805000D02*
G01*
X-4992000Y-8805000D01*
X-4992000Y-8525000D01*
X-4712000Y-8805000D01*
G37*
%TO.C,C4*%
X-6353733Y-12180000D02*
X-6646267Y-12180000D01*
X-6353733Y-13200000D02*
X-6646267Y-13200000D01*
%TO.C,R12*%
X-12302500Y14915276D02*
X-12302500Y15424724D01*
X-11257500Y14915276D02*
X-11257500Y15424724D01*
%TO.C,C29*%
X9482163Y6440000D02*
X9697836Y6440000D01*
X9482164Y5720000D02*
X9697837Y5720000D01*
%TO.C,C26*%
X-12180000Y-1171233D02*
X-12180000Y-1463767D01*
X-11160000Y-1171233D02*
X-11160000Y-1463767D01*
D17*
%TO.C,SW2*%
X8483366Y15373777D02*
X13957372Y10444962D01*
X8787285Y15711313D02*
X8483366Y15373777D01*
X13573643Y21027102D02*
X10478397Y17589483D01*
X13957372Y10444962D02*
X14261290Y10782497D01*
X15952401Y12660666D02*
X19047650Y16098287D01*
X19047650Y16098287D02*
X13573643Y21027102D01*
D16*
%TO.C,U3*%
X16130000Y-4080000D02*
X16130000Y-4480000D01*
X16130000Y-4480000D02*
X16530000Y-4280000D01*
X16530000Y-4280000D02*
X16130000Y-4080000D01*
X18720000Y10295000D02*
X19320000Y10295000D01*
X18720000Y10185000D02*
X18720000Y10295000D01*
X18720000Y-7245000D02*
X18720000Y-7355000D01*
X18720000Y-7355000D02*
X19320000Y-7355000D01*
%TO.C,C33*%
X7747836Y3898000D02*
X7532164Y3898000D01*
X7747836Y3178000D02*
X7532164Y3178000D01*
%TO.C,C23*%
X10220580Y7950000D02*
X9939420Y7950000D01*
X10220580Y6930000D02*
X9939420Y6930000D01*
%TO.C,R10*%
X-15434724Y7052500D02*
X-14925276Y7052500D01*
X-15434724Y6007500D02*
X-14925276Y6007500D01*
%TO.C,R3*%
X-4472000Y-8894724D02*
X-4472000Y-8385276D01*
X-3427000Y-8894724D02*
X-3427000Y-8385276D01*
%TO.C,C25*%
X-10630000Y-1153733D02*
X-10630000Y-1446267D01*
X-9610000Y-1153733D02*
X-9610000Y-1446267D01*
%TO.C,C31*%
X12457836Y1030000D02*
X12242164Y1030000D01*
X12457836Y1750000D02*
X12242164Y1750000D01*
%TO.C,NC3*%
X6347500Y-2529064D02*
X6347500Y-1074936D01*
X8167500Y-2529064D02*
X8167500Y-1074936D01*
%TO.C,C3*%
X-5620000Y14813733D02*
X-5620000Y15106267D01*
X-4600000Y14813733D02*
X-4600000Y15106267D01*
%TO.C,C24*%
X11646920Y658000D02*
X11928080Y658000D01*
X11646920Y-362000D02*
X11928080Y-362000D01*
%TO.C,U4*%
D18*
X8492400Y7597800D02*
X5800000Y7597800D01*
X5800000Y4143400D01*
X8492400Y4143400D01*
X8492400Y7597800D01*
D16*
%TO.C,C13*%
X10380000Y-1562164D02*
X10380000Y-1777836D01*
X11100000Y-1562164D02*
X11100000Y-1777836D01*
%TO.C,JP3*%
X-19795000Y900000D02*
X-16995000Y900000D01*
X-19795000Y-1100000D02*
X-19795000Y900000D01*
X-16995000Y900000D02*
X-16995000Y-1100000D01*
X-16995000Y-1100000D02*
X-19795000Y-1100000D01*
%TO.C,R4*%
X-2882000Y-8365276D02*
X-2882000Y-8874724D01*
X-1837000Y-8365276D02*
X-1837000Y-8874724D01*
%TO.C,P1*%
X-4700000Y-18310000D02*
X-4700000Y-20310000D01*
X-4700000Y-22210000D02*
X-4700000Y-24110000D01*
X-4700000Y-24110000D02*
X4700000Y-24110000D01*
X4700000Y-18310000D02*
X4700000Y-20310000D01*
X4700000Y-22210000D02*
X4700000Y-24110000D01*
%TO.C,C27*%
X-13530000Y15677836D02*
X-13530000Y15462164D01*
X-12810000Y15677836D02*
X-12810000Y15462164D01*
%TO.C,C5*%
X-4449500Y-11973733D02*
X-4449500Y-12266267D01*
X-3429500Y-11973733D02*
X-3429500Y-12266267D01*
D17*
%TO.C,SW1*%
X83096Y17506201D02*
X7288132Y15974723D01*
X177530Y17950475D02*
X83096Y17506201D01*
X1664742Y24947263D02*
X702990Y20422573D01*
X7288132Y15974723D02*
X7382565Y16418997D01*
X7908026Y18891095D02*
X8869778Y23415787D01*
X8869778Y23415787D02*
X1664742Y24947263D01*
D16*
%TO.C,C9*%
X12457836Y5360000D02*
X12242164Y5360000D01*
X12457836Y4640000D02*
X12242164Y4640000D01*
%TO.C,R15*%
X2307224Y-5337500D02*
X1797776Y-5337500D01*
X2307224Y-6382500D02*
X1797776Y-6382500D01*
%TO.C,C10*%
X12447836Y2720000D02*
X12232164Y2720000D01*
X12447836Y2000000D02*
X12232164Y2000000D01*
%TO.C,R7*%
X8727500Y-1447224D02*
X8727500Y-937776D01*
X9772500Y-1447224D02*
X9772500Y-937776D01*
%TD*%
M02*
