M48
; DRILL file {KiCad 8.0.5} date 2025-01-09T20:35:50+0100
; FORMAT={-:-/ absolute / metric / decimal}
; #@! TF.CreationDate,2025-01-09T20:35:50+01:00
; #@! TF.GenerationSoftware,Kicad,Pcbnew,8.0.5
; #@! TF.FileFunction,Plated,1,4,PTH
FMAT,2
METRIC
; #@! TA.AperFunction,Plated,PTH,ViaDrill
T1C0.200
; #@! TA.AperFunction,Plated,PTH,ComponentDrill
T2C0.200
; #@! TA.AperFunction,Plated,PTH,ComponentDrill
T3C0.620
; #@! TA.AperFunction,Plated,PTH,ComponentDrill
T4C0.991
; #@! TA.AperFunction,Plated,PTH,ComponentDrill
T5C1.295
%
G90
G05
T1
X-22.92Y0.06
X-22.81Y2.6
X-22.62Y-2.5
X-22.3Y5.38
X-21.082Y16.002
X-19.45Y13.82
X-19.2Y8.8
X-19.17Y5.25
X-19.11Y6.51
X-19.1Y15.41
X-17.14Y-1.3
X-16.27Y-5.49
X-15.9Y-9.93
X-15.74Y14.17
X-15.56Y-10.75
X-15.15Y-0.07
X-15.03Y-4.88
X-14.268Y7.2
X-14.18Y-11.8
X-13.92Y-5.49
X-13.78Y15.13
X-13.71Y1.23
X-13.6Y-0.2
X-13.36Y-7.58
X-13.0Y5.2
X-12.89Y-12.09
X-12.654Y14.257
X-12.44Y-7.76
X-11.67Y0.47
X-11.61Y2.54
X-10.25Y-6.61
X-10.12Y0.47
X-10.04Y-15.92
X-9.98Y11.17
X-9.53Y1.72
X-9.51Y-10.18
X-9.45Y-14.7
X-9.34Y-20.07
X-9.265Y14.115
X-8.57Y-10.9
X-8.29Y-17.96
X-8.17Y-6.57
X-8.14Y-12.69
X-7.98Y13.24
X-7.55Y10.68
X-7.47Y14.09
X-7.42Y15.83
X-7.4Y-7.02
X-6.64Y-18.18
X-6.34Y7.31
X-6.25Y9.33
X-5.81Y1.0
X-5.78Y-14.13
X-4.91Y1.46
X-4.89Y3.5
X-4.39Y11.51
X-4.34Y10.02
X-4.15Y-15.26
X-4.145Y12.715
X-4.06Y-6.81
X-4.046Y13.91
X-3.94Y-13.323
X-3.24Y-14.91
X-2.31Y-22.59
X-2.03Y-19.26
X-1.94Y10.11
X-1.72Y11.93
X-1.67Y15.4
X-1.33Y-10.12
X-1.24Y0.83
X-0.714Y9.164
X0.2Y-3.49
X1.58Y-19.31
X1.73Y-21.66
X2.53Y8.17
X2.71Y13.63
X2.74Y-7.17
X2.81Y-8.508
X3.29Y-3.97
X3.4Y4.45
X3.41Y13.64
X3.47Y9.78
X4.17Y-15.23
X4.46Y-8.38
X4.54Y9.58
X5.0Y10.4
X5.05Y-6.78
X5.16Y-5.28
X5.6Y-22.7
X5.69Y-18.06
X5.78Y-13.23
X6.01Y-8.27
X6.42Y-6.62
X6.42Y4.79
X6.61Y3.53
X6.84Y-13.96
X6.93Y-18.58
X7.39Y-10.78
X7.97Y-11.4
X7.98Y-13.96
X8.13Y-21.85
X8.47Y1.77
X8.99Y-12.05
X9.2Y0.0
X9.38Y-16.08
X9.46Y-4.94
X9.6Y9.93
X9.89Y6.82
X10.0Y0.7
X10.2Y-5.2
X10.56Y-0.48
X10.71Y-2.76
X10.8Y6.04
X10.84Y-16.12
X11.28Y-19.6
X11.34Y-17.5
X11.37Y9.81
X11.42Y5.61
X11.482Y1.83
X11.6Y-13.17
X11.66Y7.44
X12.2Y-3.6
X12.3Y-16.14
X12.39Y12.45
X12.46Y-0.65
X13.2Y-6.4
X13.4Y-17.5
X13.53Y-11.21
X13.535Y-2.463
X13.8Y-5.2
X14.05Y3.72
X14.12Y5.23
X14.319Y2.319
X14.4Y-0.4
X14.43Y3.13
X14.71Y-8.15
X14.75Y-17.71
X15.2Y-11.4
X16.13Y-1.8
X16.17Y2.75
X16.23Y1.25
X16.354Y-2.76
X16.38Y-3.74
X16.55Y4.26
X16.579Y5.011
X16.69Y-0.74
X17.19Y-13.86
X17.45Y1.45
X17.55Y-1.02
X18.01Y12.34
X18.322Y-8.7
X18.35Y-2.76
X18.6Y-13.2
X19.56Y4.56
X19.57Y-2.8
X19.79Y6.65
X19.99Y9.87
X20.172Y-5.397
X21.32Y-7.81
T2
X-11.645Y8.16
X-11.645Y6.76
X-10.945Y8.86
X-10.945Y7.46
X-10.945Y6.06
X-10.245Y8.16
X-10.245Y6.76
X-9.545Y8.86
X-9.545Y7.46
X-9.545Y6.06
X-8.845Y8.16
X-8.845Y6.76
T4
X2.345Y21.255
X6.747Y20.319
X12.317Y17.489
X15.661Y14.478
T5
X0.6Y19.08
X7.456Y17.623
X9.718Y16.479
X14.927Y11.788
T3
G00X-4.32Y-16.54
M15
G01X-4.32Y-17.62
M16
G05
G00X-4.32Y-20.97
M15
G01X-4.32Y-21.55
M16
G05
G00X4.32Y-16.54
M15
G01X4.32Y-17.62
M16
G05
G00X4.32Y-20.97
M15
G01X4.32Y-21.55
M16
G05
M30
