%TF.GenerationSoftware,KiCad,Pcbnew,8.0.5*%
%TF.CreationDate,2025-01-09T20:26:43+01:00*%
%TF.ProjectId,test,74657374-2e6b-4696-9361-645f70636258,rev?*%
%TF.SameCoordinates,PX517370cPY341b1c8*%
%TF.FileFunction,Legend,Bot*%
%TF.FilePolarity,Positive*%
%FSLAX46Y46*%
G04 Gerber Fmt 4.6, Leading zero omitted, Abs format (unit mm)*
G04 Created by KiCad (PCBNEW 8.0.5) date 2025-01-09 20:26:43*
%MOMM*%
%LPD*%
G01*
G04 APERTURE LIST*
%ADD10C,0.200000*%
%ADD11C,0.125000*%
%ADD12C,0.120000*%
%ADD13C,0.000000*%
%ADD14C,0.100000*%
%ADD15C,0.127000*%
%ADD16C,0.240000*%
G04 APERTURE END LIST*
D10*
G36*
X17630428Y-13656307D02*
G01*
X17489922Y-13796813D01*
X17349417Y-13515802D01*
X17630428Y-13656307D01*
G37*
G36*
X18533289Y-13157507D02*
G01*
X18351318Y-13339478D01*
X18288092Y-13360553D01*
X18253207Y-13360553D01*
X18189981Y-13339478D01*
X18122350Y-13271847D01*
X18101276Y-13208622D01*
X18101276Y-13181114D01*
X18150804Y-13082057D01*
X18304321Y-12928539D01*
X18533289Y-13157507D01*
G37*
G36*
X18162899Y-12787117D02*
G01*
X18014600Y-12935417D01*
X17951375Y-12956492D01*
X17916489Y-12956492D01*
X17853262Y-12935416D01*
X17819305Y-12901459D01*
X17798230Y-12838234D01*
X17798230Y-12803345D01*
X17819304Y-12740122D01*
X17967604Y-12591822D01*
X18162899Y-12787117D01*
G37*
G36*
X18973267Y-13157508D02*
G01*
X17059826Y-15070949D01*
X16054162Y-14065286D01*
X16072312Y-14047136D01*
X16253281Y-14047136D01*
X16253281Y-14086154D01*
X16268213Y-14122202D01*
X16295803Y-14149792D01*
X16331851Y-14164724D01*
X16370869Y-14164724D01*
X16406917Y-14149792D01*
X16422071Y-14137356D01*
X16553389Y-14006036D01*
X17189787Y-14642432D01*
X17204940Y-14654869D01*
X17240988Y-14669800D01*
X17280006Y-14669800D01*
X17316055Y-14654869D01*
X17343645Y-14627279D01*
X17358576Y-14591230D01*
X17358576Y-14552212D01*
X17343645Y-14516164D01*
X17331208Y-14501011D01*
X16694811Y-13864614D01*
X16826132Y-13733294D01*
X16838569Y-13718141D01*
X16853500Y-13682093D01*
X16853500Y-13643075D01*
X16838569Y-13607026D01*
X16810979Y-13579436D01*
X16774930Y-13564505D01*
X16735912Y-13564505D01*
X16699864Y-13579436D01*
X16684711Y-13591873D01*
X16280649Y-13995934D01*
X16268213Y-14011088D01*
X16253281Y-14047136D01*
X16072312Y-14047136D01*
X16839760Y-13279688D01*
X17026595Y-13279688D01*
X17027483Y-13292195D01*
X17026595Y-13304702D01*
X17028854Y-13311480D01*
X17029361Y-13318608D01*
X17036367Y-13336916D01*
X17507772Y-14279726D01*
X17518215Y-14296316D01*
X17547692Y-14321880D01*
X17584708Y-14334219D01*
X17623628Y-14331453D01*
X17658527Y-14314004D01*
X17684091Y-14284527D01*
X17696430Y-14247511D01*
X17693664Y-14208591D01*
X17686658Y-14190283D01*
X17584204Y-13985375D01*
X17818989Y-13750588D01*
X18023897Y-13853042D01*
X18042206Y-13860048D01*
X18081126Y-13862814D01*
X18118142Y-13850475D01*
X18147619Y-13824910D01*
X18165068Y-13790012D01*
X18167834Y-13751092D01*
X18155495Y-13714076D01*
X18129930Y-13684599D01*
X18113340Y-13674156D01*
X17170531Y-13202752D01*
X17152223Y-13195746D01*
X17145095Y-13195239D01*
X17138317Y-13192980D01*
X17125810Y-13193868D01*
X17113303Y-13192980D01*
X17106524Y-13195239D01*
X17099397Y-13195746D01*
X17088178Y-13201355D01*
X17076287Y-13205319D01*
X17070891Y-13209998D01*
X17064498Y-13213195D01*
X17056282Y-13222667D01*
X17046810Y-13230883D01*
X17043613Y-13237276D01*
X17038934Y-13242672D01*
X17034970Y-13254563D01*
X17029361Y-13265782D01*
X17028854Y-13272909D01*
X17026595Y-13279688D01*
X16839760Y-13279688D01*
X17332330Y-12787118D01*
X17598230Y-12787118D01*
X17598230Y-12854462D01*
X17599202Y-12864335D01*
X17599015Y-12866970D01*
X17599802Y-12870433D01*
X17600151Y-12873971D01*
X17601162Y-12876412D01*
X17603362Y-12886085D01*
X17637034Y-12987100D01*
X17645025Y-13005000D01*
X17647378Y-13007713D01*
X17648754Y-13011034D01*
X17661191Y-13026187D01*
X17728534Y-13093531D01*
X17743687Y-13105968D01*
X17747006Y-13107343D01*
X17749722Y-13109698D01*
X17767623Y-13117690D01*
X17868638Y-13151361D01*
X17878310Y-13153560D01*
X17880751Y-13154571D01*
X17884288Y-13154919D01*
X17887753Y-13155707D01*
X17890386Y-13155519D01*
X17900260Y-13156492D01*
X17901376Y-13156492D01*
X17901276Y-13157508D01*
X17901276Y-13224851D01*
X17902248Y-13234724D01*
X17902061Y-13237358D01*
X17902848Y-13240822D01*
X17903197Y-13244360D01*
X17904207Y-13246800D01*
X17906407Y-13256473D01*
X17940078Y-13357488D01*
X17948070Y-13375389D01*
X17950425Y-13378104D01*
X17951800Y-13381423D01*
X17964236Y-13396577D01*
X18065252Y-13497593D01*
X18080405Y-13510029D01*
X18083724Y-13511403D01*
X18086440Y-13513759D01*
X18104341Y-13521751D01*
X18205356Y-13555422D01*
X18215028Y-13557621D01*
X18217469Y-13558632D01*
X18221006Y-13558980D01*
X18224471Y-13559768D01*
X18227104Y-13559580D01*
X18236978Y-13560553D01*
X18304321Y-13560553D01*
X18314194Y-13559580D01*
X18316828Y-13559768D01*
X18320292Y-13558980D01*
X18323830Y-13558632D01*
X18326270Y-13557621D01*
X18335943Y-13555422D01*
X18436959Y-13521751D01*
X18454859Y-13513759D01*
X18457574Y-13511404D01*
X18460894Y-13510029D01*
X18476048Y-13497593D01*
X18745421Y-13228219D01*
X18757858Y-13213066D01*
X18772789Y-13177017D01*
X18772789Y-13137999D01*
X18764377Y-13117690D01*
X18757858Y-13101950D01*
X18745421Y-13086797D01*
X18038315Y-12379690D01*
X18023161Y-12367254D01*
X17987113Y-12352322D01*
X17948095Y-12352322D01*
X17912047Y-12367254D01*
X17896893Y-12379690D01*
X17661191Y-12615392D01*
X17648755Y-12630546D01*
X17647380Y-12633864D01*
X17645025Y-12636580D01*
X17637034Y-12654480D01*
X17603362Y-12755495D01*
X17601162Y-12765167D01*
X17600151Y-12767609D01*
X17599802Y-12771146D01*
X17599015Y-12774610D01*
X17599202Y-12777244D01*
X17598230Y-12787118D01*
X17332330Y-12787118D01*
X17967604Y-12151844D01*
X18973267Y-13157508D01*
G37*
G36*
X-6412203Y-13142178D02*
G01*
X-6288132Y-13213810D01*
X-6276523Y-13231393D01*
X-6500434Y-13619218D01*
X-6521464Y-13617956D01*
X-6645535Y-13546324D01*
X-6682254Y-13490709D01*
X-6691285Y-13457005D01*
X-6687293Y-13390483D01*
X-6568042Y-13183936D01*
X-6512427Y-13147216D01*
X-6478726Y-13138186D01*
X-6412203Y-13142178D01*
G37*
G36*
X-7195750Y-12689797D02*
G01*
X-7071679Y-12761429D01*
X-7044383Y-12802771D01*
X-7047351Y-12852219D01*
X-7069796Y-12891095D01*
X-7277761Y-12708330D01*
X-7245198Y-12686829D01*
X-7195750Y-12689797D01*
G37*
G36*
X-7956843Y-12580295D02*
G01*
X-7929548Y-12621635D01*
X-7932516Y-12671084D01*
X-7956529Y-12712676D01*
X-7997870Y-12739971D01*
X-8047320Y-12737003D01*
X-8212629Y-12641562D01*
X-8224238Y-12623979D01*
X-8138473Y-12475430D01*
X-7956843Y-12580295D01*
G37*
G36*
X-9422673Y-11404083D02*
G01*
X-9298602Y-11475715D01*
X-9271306Y-11517056D01*
X-9274274Y-11566506D01*
X-9296719Y-11605381D01*
X-9504685Y-11422615D01*
X-9472121Y-11401115D01*
X-9422673Y-11404083D01*
G37*
G36*
X-4814133Y-13320684D02*
G01*
X-5690950Y-14839375D01*
X-8077976Y-13461225D01*
X-6891897Y-13461225D01*
X-6891519Y-13471139D01*
X-6891863Y-13473757D01*
X-6891285Y-13477259D01*
X-6891149Y-13480814D01*
X-6890286Y-13483312D01*
X-6888670Y-13493098D01*
X-6871239Y-13558147D01*
X-6867747Y-13567427D01*
X-6867245Y-13570025D01*
X-6865586Y-13573170D01*
X-6864335Y-13576494D01*
X-6862727Y-13578589D01*
X-6858098Y-13587364D01*
X-6799429Y-13676223D01*
X-6787077Y-13691445D01*
X-6784100Y-13693457D01*
X-6781913Y-13696308D01*
X-6765978Y-13707727D01*
X-6605146Y-13800583D01*
X-6721812Y-14002656D01*
X-6729902Y-14020512D01*
X-6734995Y-14059196D01*
X-6724896Y-14096885D01*
X-6701144Y-14127840D01*
X-6667353Y-14147349D01*
X-6628669Y-14152442D01*
X-6590980Y-14142343D01*
X-6560025Y-14118591D01*
X-6548606Y-14102656D01*
X-6439458Y-13913606D01*
X-6108350Y-13913606D01*
X-6107972Y-13923519D01*
X-6108316Y-13926136D01*
X-6107738Y-13929638D01*
X-6107602Y-13933195D01*
X-6106739Y-13935694D01*
X-6105123Y-13945478D01*
X-6087694Y-14010526D01*
X-6084202Y-14019806D01*
X-6083699Y-14022406D01*
X-6082038Y-14025555D01*
X-6080789Y-14028873D01*
X-6079184Y-14030965D01*
X-6074552Y-14039745D01*
X-6015883Y-14128604D01*
X-6003531Y-14143826D01*
X-6000556Y-14145838D01*
X-5998367Y-14148690D01*
X-5982432Y-14160108D01*
X-5776235Y-14279155D01*
X-5767202Y-14283247D01*
X-5765011Y-14284729D01*
X-5761611Y-14285780D01*
X-5758379Y-14287245D01*
X-5755765Y-14287589D01*
X-5746283Y-14290522D01*
X-5598756Y-14320711D01*
X-5579258Y-14322740D01*
X-5540948Y-14315338D01*
X-5508387Y-14293839D01*
X-5486532Y-14261517D01*
X-5478709Y-14223291D01*
X-5486111Y-14184981D01*
X-5507610Y-14152420D01*
X-5539932Y-14130564D01*
X-5558660Y-14124771D01*
X-5690290Y-14097835D01*
X-5861989Y-13998704D01*
X-5898708Y-13943090D01*
X-5907738Y-13909388D01*
X-5903746Y-13842864D01*
X-5879733Y-13801274D01*
X-5824118Y-13764554D01*
X-5790417Y-13755524D01*
X-5711289Y-13760273D01*
X-5533073Y-13811254D01*
X-5531571Y-13811528D01*
X-5530921Y-13811844D01*
X-5522342Y-13813211D01*
X-5513788Y-13814772D01*
X-5513070Y-13814689D01*
X-5511562Y-13814930D01*
X-5405273Y-13821310D01*
X-5395358Y-13820931D01*
X-5392740Y-13821276D01*
X-5389239Y-13820697D01*
X-5385684Y-13820562D01*
X-5383185Y-13819698D01*
X-5373398Y-13818082D01*
X-5308350Y-13800652D01*
X-5299072Y-13797160D01*
X-5296473Y-13796658D01*
X-5293325Y-13794997D01*
X-5290003Y-13793747D01*
X-5287909Y-13792140D01*
X-5279134Y-13787511D01*
X-5190275Y-13728842D01*
X-5175053Y-13716490D01*
X-5173041Y-13713512D01*
X-5170190Y-13711326D01*
X-5158772Y-13695391D01*
X-5111152Y-13612913D01*
X-5103061Y-13595057D01*
X-5102593Y-13591494D01*
X-5101021Y-13588264D01*
X-5097935Y-13568905D01*
X-5091555Y-13462616D01*
X-5091934Y-13452700D01*
X-5091589Y-13450083D01*
X-5092168Y-13446581D01*
X-5092303Y-13443027D01*
X-5093168Y-13440526D01*
X-5094783Y-13430742D01*
X-5112213Y-13365693D01*
X-5115705Y-13356414D01*
X-5116207Y-13353816D01*
X-5117868Y-13350667D01*
X-5119118Y-13347346D01*
X-5120725Y-13345252D01*
X-5125354Y-13336477D01*
X-5184023Y-13247618D01*
X-5196375Y-13232396D01*
X-5199353Y-13230382D01*
X-5201540Y-13227532D01*
X-5217475Y-13216114D01*
X-5423671Y-13097067D01*
X-5432711Y-13092970D01*
X-5434895Y-13091494D01*
X-5438284Y-13090445D01*
X-5441527Y-13088976D01*
X-5444150Y-13088630D01*
X-5453623Y-13085700D01*
X-5601149Y-13055510D01*
X-5620647Y-13053481D01*
X-5658957Y-13060883D01*
X-5691518Y-13082381D01*
X-5713374Y-13114704D01*
X-5721197Y-13152929D01*
X-5713795Y-13191239D01*
X-5692297Y-13223800D01*
X-5659974Y-13245656D01*
X-5641247Y-13251450D01*
X-5509618Y-13278386D01*
X-5337918Y-13377517D01*
X-5301198Y-13433133D01*
X-5292168Y-13466831D01*
X-5296161Y-13533356D01*
X-5320173Y-13574946D01*
X-5375791Y-13611668D01*
X-5409489Y-13620697D01*
X-5488622Y-13615947D01*
X-5666833Y-13564967D01*
X-5668339Y-13564692D01*
X-5668987Y-13564377D01*
X-5677554Y-13563011D01*
X-5686118Y-13561449D01*
X-5686838Y-13561531D01*
X-5688345Y-13561291D01*
X-5794633Y-13554912D01*
X-5804547Y-13555290D01*
X-5807164Y-13554946D01*
X-5810667Y-13555524D01*
X-5814222Y-13555660D01*
X-5816721Y-13556523D01*
X-5826506Y-13558139D01*
X-5891555Y-13575569D01*
X-5900838Y-13579062D01*
X-5903433Y-13579564D01*
X-5906578Y-13581222D01*
X-5909902Y-13582474D01*
X-5911998Y-13584082D01*
X-5920772Y-13588711D01*
X-6009631Y-13647380D01*
X-6024853Y-13659732D01*
X-6026866Y-13662709D01*
X-6029716Y-13664896D01*
X-6041134Y-13680830D01*
X-6088753Y-13763309D01*
X-6096844Y-13781165D01*
X-6097314Y-13784727D01*
X-6098885Y-13787960D01*
X-6101971Y-13807318D01*
X-6108350Y-13913606D01*
X-6439458Y-13913606D01*
X-6048606Y-13236630D01*
X-6040515Y-13218774D01*
X-6035423Y-13180089D01*
X-6045521Y-13142401D01*
X-6069274Y-13111445D01*
X-6103065Y-13091936D01*
X-6131402Y-13088205D01*
X-6134237Y-13083912D01*
X-6146589Y-13068690D01*
X-6149567Y-13066677D01*
X-6151753Y-13063827D01*
X-6167688Y-13052408D01*
X-6332645Y-12957170D01*
X-6350501Y-12949080D01*
X-6354064Y-12948610D01*
X-6357296Y-12947039D01*
X-6376654Y-12943953D01*
X-6482942Y-12937574D01*
X-6492856Y-12937952D01*
X-6495473Y-12937608D01*
X-6498976Y-12938186D01*
X-6502531Y-12938322D01*
X-6505031Y-12939185D01*
X-6514814Y-12940801D01*
X-6579863Y-12958230D01*
X-6589151Y-12961725D01*
X-6591742Y-12962226D01*
X-6594884Y-12963882D01*
X-6598210Y-12965135D01*
X-6600307Y-12966743D01*
X-6609081Y-12971372D01*
X-6697939Y-13030041D01*
X-6713161Y-13042393D01*
X-6715174Y-13045370D01*
X-6718024Y-13047557D01*
X-6729442Y-13063492D01*
X-6872300Y-13310928D01*
X-6880391Y-13328784D01*
X-6880861Y-13332346D01*
X-6882432Y-13335579D01*
X-6885518Y-13354937D01*
X-6891897Y-13461225D01*
X-8077976Y-13461225D01*
X-8739431Y-13079334D01*
X-7658193Y-13079334D01*
X-7650792Y-13117644D01*
X-7641645Y-13134983D01*
X-7582976Y-13223842D01*
X-7570624Y-13239064D01*
X-7567647Y-13241076D01*
X-7565460Y-13243927D01*
X-7549525Y-13255346D01*
X-7384568Y-13350584D01*
X-7366712Y-13358674D01*
X-7363151Y-13359142D01*
X-7359918Y-13360715D01*
X-7340559Y-13363801D01*
X-7234271Y-13370180D01*
X-7230423Y-13370033D01*
X-7228830Y-13370359D01*
X-7226336Y-13369876D01*
X-7214682Y-13369432D01*
X-7202829Y-13365335D01*
X-7190520Y-13362957D01*
X-7180205Y-13357515D01*
X-7177804Y-13356686D01*
X-7176590Y-13355608D01*
X-7173181Y-13353811D01*
X-7084323Y-13295142D01*
X-7069101Y-13282790D01*
X-7067089Y-13279812D01*
X-7064238Y-13277626D01*
X-7052820Y-13261691D01*
X-6957638Y-13096830D01*
X-6957632Y-13096825D01*
X-6957630Y-13096817D01*
X-6862343Y-12931778D01*
X-6854252Y-12913922D01*
X-6853783Y-12910359D01*
X-6852211Y-12907127D01*
X-6849125Y-12887768D01*
X-6842746Y-12781480D01*
X-6842893Y-12777631D01*
X-6842567Y-12776039D01*
X-6843050Y-12773543D01*
X-6843494Y-12761891D01*
X-6847590Y-12750042D01*
X-6849968Y-12737729D01*
X-6855412Y-12727410D01*
X-6856240Y-12725013D01*
X-6857317Y-12723798D01*
X-6859115Y-12720390D01*
X-6917784Y-12631531D01*
X-6930136Y-12616309D01*
X-6933114Y-12614296D01*
X-6935300Y-12611446D01*
X-6951235Y-12600027D01*
X-7116192Y-12504789D01*
X-7134048Y-12496699D01*
X-7137611Y-12496229D01*
X-7140843Y-12494658D01*
X-7160201Y-12491572D01*
X-7266489Y-12485193D01*
X-7270342Y-12485340D01*
X-7271930Y-12485015D01*
X-7274419Y-12485495D01*
X-7286078Y-12485941D01*
X-7297934Y-12490038D01*
X-7310240Y-12492416D01*
X-7320556Y-12497857D01*
X-7322956Y-12498687D01*
X-7324171Y-12499764D01*
X-7327579Y-12501562D01*
X-7416437Y-12560231D01*
X-7431659Y-12572583D01*
X-7433672Y-12575560D01*
X-7436522Y-12577747D01*
X-7447940Y-12593681D01*
X-7495504Y-12676063D01*
X-7495508Y-12676069D01*
X-7495511Y-12676075D01*
X-7495559Y-12676160D01*
X-7503650Y-12694016D01*
X-7504929Y-12703728D01*
X-7508088Y-12713004D01*
X-7507451Y-12722884D01*
X-7508743Y-12732700D01*
X-7506208Y-12742161D01*
X-7505577Y-12751941D01*
X-7501207Y-12760827D01*
X-7498644Y-12770389D01*
X-7492681Y-12778161D01*
X-7488356Y-12786953D01*
X-7474970Y-12801275D01*
X-7474894Y-12801342D01*
X-7474892Y-12801344D01*
X-7474891Y-12801344D01*
X-7171776Y-13067730D01*
X-7214221Y-13141246D01*
X-7255563Y-13168543D01*
X-7305011Y-13165575D01*
X-7429082Y-13093943D01*
X-7474743Y-13024785D01*
X-7487095Y-13009563D01*
X-7519418Y-12987708D01*
X-7557644Y-12979885D01*
X-7595954Y-12987286D01*
X-7628515Y-13008785D01*
X-7650370Y-13041108D01*
X-7658193Y-13079334D01*
X-8739431Y-13079334D01*
X-9439270Y-12675282D01*
X-8465337Y-12675282D01*
X-8455238Y-12712971D01*
X-8431486Y-12743926D01*
X-8397695Y-12763435D01*
X-8369360Y-12767165D01*
X-8366523Y-12771461D01*
X-8354171Y-12786683D01*
X-8351194Y-12788695D01*
X-8349007Y-12791546D01*
X-8333072Y-12802965D01*
X-8126876Y-12922011D01*
X-8109021Y-12930102D01*
X-8105460Y-12930570D01*
X-8102227Y-12932143D01*
X-8082868Y-12935229D01*
X-7976580Y-12941609D01*
X-7972731Y-12941462D01*
X-7971138Y-12941788D01*
X-7968643Y-12941305D01*
X-7956991Y-12940861D01*
X-7945144Y-12936766D01*
X-7932828Y-12934387D01*
X-7922508Y-12928942D01*
X-7920113Y-12928115D01*
X-7918901Y-12927039D01*
X-7915489Y-12925240D01*
X-7826630Y-12866571D01*
X-7811408Y-12854219D01*
X-7809396Y-12851243D01*
X-7806544Y-12849055D01*
X-7795126Y-12833120D01*
X-7747508Y-12750641D01*
X-7739417Y-12732785D01*
X-7738949Y-12729224D01*
X-7737376Y-12725992D01*
X-7734290Y-12706633D01*
X-7727910Y-12600345D01*
X-7728058Y-12596491D01*
X-7727732Y-12594903D01*
X-7728213Y-12592414D01*
X-7728658Y-12580756D01*
X-7732756Y-12568901D01*
X-7735133Y-12556593D01*
X-7740576Y-12546275D01*
X-7741404Y-12543878D01*
X-7742480Y-12542664D01*
X-7744279Y-12539254D01*
X-7802948Y-12450396D01*
X-7815300Y-12435174D01*
X-7818278Y-12433161D01*
X-7820464Y-12430311D01*
X-7836399Y-12418893D01*
X-8022153Y-12311647D01*
X-8033762Y-12294065D01*
X-8028848Y-12285554D01*
X-7987506Y-12258258D01*
X-7938058Y-12261226D01*
X-7813986Y-12332859D01*
X-7768324Y-12402016D01*
X-7755972Y-12417238D01*
X-7723649Y-12439093D01*
X-7685423Y-12446915D01*
X-7647113Y-12439514D01*
X-7614552Y-12418016D01*
X-7592697Y-12385693D01*
X-7584875Y-12347467D01*
X-7592276Y-12309157D01*
X-7601422Y-12291818D01*
X-7660091Y-12202960D01*
X-7672443Y-12187738D01*
X-7675421Y-12185725D01*
X-7677607Y-12182875D01*
X-7693542Y-12171456D01*
X-7858500Y-12076218D01*
X-7876356Y-12068128D01*
X-7879918Y-12067659D01*
X-7883150Y-12066087D01*
X-7902509Y-12063001D01*
X-8008796Y-12056621D01*
X-8012650Y-12056768D01*
X-8014238Y-12056443D01*
X-8016727Y-12056923D01*
X-8028385Y-12057369D01*
X-8040240Y-12061466D01*
X-8052548Y-12063844D01*
X-8062866Y-12069286D01*
X-8065263Y-12070115D01*
X-8066477Y-12071191D01*
X-8069887Y-12072990D01*
X-8158745Y-12131659D01*
X-8173967Y-12144011D01*
X-8175980Y-12146986D01*
X-8178831Y-12149175D01*
X-8190249Y-12165110D01*
X-8452154Y-12618742D01*
X-8460244Y-12636598D01*
X-8465337Y-12675282D01*
X-9439270Y-12675282D01*
X-10224824Y-12221742D01*
X-9206145Y-12221742D01*
X-9205716Y-12260758D01*
X-9190389Y-12296639D01*
X-9162497Y-12323924D01*
X-9126287Y-12338458D01*
X-9087271Y-12338029D01*
X-9068576Y-12332133D01*
X-8760580Y-12200570D01*
X-8864547Y-12380647D01*
X-8872637Y-12398503D01*
X-8877730Y-12437187D01*
X-8867631Y-12474876D01*
X-8843879Y-12505831D01*
X-8810088Y-12525340D01*
X-8771404Y-12530433D01*
X-8733715Y-12520334D01*
X-8702760Y-12496582D01*
X-8691341Y-12480647D01*
X-8191341Y-11614622D01*
X-8183250Y-11596766D01*
X-8178158Y-11558081D01*
X-8188257Y-11520393D01*
X-8212009Y-11489437D01*
X-8245800Y-11469928D01*
X-8284484Y-11464836D01*
X-8322173Y-11474934D01*
X-8353128Y-11498687D01*
X-8364546Y-11514622D01*
X-8600979Y-11924134D01*
X-8677932Y-11636939D01*
X-8684837Y-11618592D01*
X-8708590Y-11587637D01*
X-8742381Y-11568128D01*
X-8781065Y-11563035D01*
X-8818754Y-11573133D01*
X-8849709Y-11596886D01*
X-8869218Y-11630677D01*
X-8874311Y-11669361D01*
X-8871118Y-11688703D01*
X-8788987Y-11995222D01*
X-9147140Y-12148209D01*
X-9164326Y-12157640D01*
X-9191611Y-12185532D01*
X-9206145Y-12221742D01*
X-10224824Y-12221742D01*
X-10921181Y-11819700D01*
X-10906124Y-11793620D01*
X-9885116Y-11793620D01*
X-9877714Y-11831930D01*
X-9868568Y-11849269D01*
X-9809899Y-11938127D01*
X-9797547Y-11953349D01*
X-9794570Y-11955361D01*
X-9792383Y-11958212D01*
X-9776448Y-11969631D01*
X-9611491Y-12064869D01*
X-9593635Y-12072959D01*
X-9590075Y-12073427D01*
X-9586842Y-12075000D01*
X-9567483Y-12078086D01*
X-9461195Y-12084466D01*
X-9457346Y-12084319D01*
X-9455753Y-12084645D01*
X-9453258Y-12084162D01*
X-9441606Y-12083718D01*
X-9429759Y-12079623D01*
X-9417443Y-12077244D01*
X-9407123Y-12071799D01*
X-9404728Y-12070972D01*
X-9403516Y-12069896D01*
X-9400104Y-12068097D01*
X-9311245Y-12009428D01*
X-9296023Y-11997076D01*
X-9294011Y-11994098D01*
X-9291160Y-11991912D01*
X-9279741Y-11975977D01*
X-9184558Y-11811113D01*
X-9184555Y-11811111D01*
X-9184554Y-11811107D01*
X-9089265Y-11646062D01*
X-9081174Y-11628206D01*
X-9080706Y-11624643D01*
X-9079134Y-11621413D01*
X-9076048Y-11602054D01*
X-9069668Y-11495766D01*
X-9069816Y-11491916D01*
X-9069489Y-11490323D01*
X-9069972Y-11487827D01*
X-9070416Y-11476177D01*
X-9074512Y-11464326D01*
X-9076891Y-11452013D01*
X-9082334Y-11441694D01*
X-9083162Y-11439299D01*
X-9084238Y-11438085D01*
X-9086037Y-11434675D01*
X-9144707Y-11345816D01*
X-9157060Y-11330594D01*
X-9160037Y-11328581D01*
X-9162223Y-11325732D01*
X-9178158Y-11314313D01*
X-9343115Y-11219075D01*
X-9360971Y-11210985D01*
X-9364533Y-11210516D01*
X-9367765Y-11208944D01*
X-9387124Y-11205858D01*
X-9493411Y-11199478D01*
X-9497265Y-11199625D01*
X-9498853Y-11199300D01*
X-9501342Y-11199780D01*
X-9513000Y-11200226D01*
X-9524855Y-11204323D01*
X-9537163Y-11206701D01*
X-9547481Y-11212143D01*
X-9549878Y-11212972D01*
X-9551092Y-11214048D01*
X-9554502Y-11215847D01*
X-9643360Y-11274516D01*
X-9658582Y-11286868D01*
X-9660596Y-11289845D01*
X-9663446Y-11292033D01*
X-9674864Y-11307968D01*
X-9722430Y-11390353D01*
X-9722431Y-11390355D01*
X-9722432Y-11390357D01*
X-9722483Y-11390446D01*
X-9730573Y-11408302D01*
X-9731852Y-11418014D01*
X-9735011Y-11427290D01*
X-9734374Y-11437171D01*
X-9735666Y-11446987D01*
X-9733131Y-11456448D01*
X-9732500Y-11466227D01*
X-9728130Y-11475113D01*
X-9725567Y-11484675D01*
X-9719603Y-11492447D01*
X-9715279Y-11501239D01*
X-9701893Y-11515561D01*
X-9701819Y-11515626D01*
X-9701815Y-11515631D01*
X-9701811Y-11515633D01*
X-9398699Y-11782016D01*
X-9441144Y-11855533D01*
X-9482485Y-11882828D01*
X-9531934Y-11879860D01*
X-9656005Y-11808227D01*
X-9701666Y-11739071D01*
X-9714018Y-11723849D01*
X-9746341Y-11701994D01*
X-9784567Y-11694171D01*
X-9822877Y-11701573D01*
X-9855438Y-11723071D01*
X-9877293Y-11755394D01*
X-9885116Y-11793620D01*
X-10906124Y-11793620D01*
X-10796562Y-11603854D01*
X-10321106Y-11603854D01*
X-10311007Y-11641543D01*
X-10287255Y-11672498D01*
X-10253464Y-11692007D01*
X-10214780Y-11697100D01*
X-10177091Y-11687001D01*
X-10146136Y-11663249D01*
X-10134717Y-11647314D01*
X-9801384Y-11069963D01*
X-9793294Y-11052107D01*
X-9788201Y-11013423D01*
X-9798300Y-10975734D01*
X-9822052Y-10944779D01*
X-9855843Y-10925270D01*
X-9894527Y-10920177D01*
X-9929865Y-10929646D01*
X-9969493Y-10869626D01*
X-9981845Y-10854404D01*
X-9984823Y-10852391D01*
X-9987009Y-10849541D01*
X-10002943Y-10838123D01*
X-10085422Y-10790504D01*
X-10103278Y-10782413D01*
X-10141962Y-10777320D01*
X-10179651Y-10787419D01*
X-10210606Y-10811171D01*
X-10230115Y-10844962D01*
X-10235208Y-10883646D01*
X-10225109Y-10921335D01*
X-10201357Y-10952290D01*
X-10185422Y-10963708D01*
X-10123388Y-10999524D01*
X-10086668Y-11055139D01*
X-10077638Y-11088840D01*
X-10081631Y-11155362D01*
X-10307923Y-11547314D01*
X-10316013Y-11565170D01*
X-10321106Y-11603854D01*
X-10796562Y-11603854D01*
X-10044364Y-10301009D01*
X-4814133Y-13320684D01*
G37*
D11*
X5452309Y2221930D02*
X4952309Y2221930D01*
X4952309Y2221930D02*
X4952309Y2102882D01*
X4952309Y2102882D02*
X4976119Y2031454D01*
X4976119Y2031454D02*
X5023738Y1983835D01*
X5023738Y1983835D02*
X5071357Y1960025D01*
X5071357Y1960025D02*
X5166595Y1936216D01*
X5166595Y1936216D02*
X5238023Y1936216D01*
X5238023Y1936216D02*
X5333261Y1960025D01*
X5333261Y1960025D02*
X5380880Y1983835D01*
X5380880Y1983835D02*
X5428500Y2031454D01*
X5428500Y2031454D02*
X5452309Y2102882D01*
X5452309Y2102882D02*
X5452309Y2221930D01*
X5428500Y1531454D02*
X5452309Y1579073D01*
X5452309Y1579073D02*
X5452309Y1674311D01*
X5452309Y1674311D02*
X5428500Y1721930D01*
X5428500Y1721930D02*
X5380880Y1745739D01*
X5380880Y1745739D02*
X5190404Y1745739D01*
X5190404Y1745739D02*
X5142785Y1721930D01*
X5142785Y1721930D02*
X5118976Y1674311D01*
X5118976Y1674311D02*
X5118976Y1579073D01*
X5118976Y1579073D02*
X5142785Y1531454D01*
X5142785Y1531454D02*
X5190404Y1507644D01*
X5190404Y1507644D02*
X5238023Y1507644D01*
X5238023Y1507644D02*
X5285642Y1745739D01*
X5428500Y1317168D02*
X5452309Y1269549D01*
X5452309Y1269549D02*
X5452309Y1174311D01*
X5452309Y1174311D02*
X5428500Y1126692D01*
X5428500Y1126692D02*
X5380880Y1102883D01*
X5380880Y1102883D02*
X5357071Y1102883D01*
X5357071Y1102883D02*
X5309452Y1126692D01*
X5309452Y1126692D02*
X5285642Y1174311D01*
X5285642Y1174311D02*
X5285642Y1245740D01*
X5285642Y1245740D02*
X5261833Y1293359D01*
X5261833Y1293359D02*
X5214214Y1317168D01*
X5214214Y1317168D02*
X5190404Y1317168D01*
X5190404Y1317168D02*
X5142785Y1293359D01*
X5142785Y1293359D02*
X5118976Y1245740D01*
X5118976Y1245740D02*
X5118976Y1174311D01*
X5118976Y1174311D02*
X5142785Y1126692D01*
X5452309Y888597D02*
X5118976Y888597D01*
X4952309Y888597D02*
X4976119Y912406D01*
X4976119Y912406D02*
X4999928Y888597D01*
X4999928Y888597D02*
X4976119Y864787D01*
X4976119Y864787D02*
X4952309Y888597D01*
X4952309Y888597D02*
X4999928Y888597D01*
X5118976Y436216D02*
X5523738Y436216D01*
X5523738Y436216D02*
X5571357Y460026D01*
X5571357Y460026D02*
X5595166Y483835D01*
X5595166Y483835D02*
X5618976Y531454D01*
X5618976Y531454D02*
X5618976Y602883D01*
X5618976Y602883D02*
X5595166Y650502D01*
X5428500Y436216D02*
X5452309Y483835D01*
X5452309Y483835D02*
X5452309Y579073D01*
X5452309Y579073D02*
X5428500Y626692D01*
X5428500Y626692D02*
X5404690Y650502D01*
X5404690Y650502D02*
X5357071Y674311D01*
X5357071Y674311D02*
X5214214Y674311D01*
X5214214Y674311D02*
X5166595Y650502D01*
X5166595Y650502D02*
X5142785Y626692D01*
X5142785Y626692D02*
X5118976Y579073D01*
X5118976Y579073D02*
X5118976Y483835D01*
X5118976Y483835D02*
X5142785Y436216D01*
X5118976Y198121D02*
X5452309Y198121D01*
X5166595Y198121D02*
X5142785Y174311D01*
X5142785Y174311D02*
X5118976Y126692D01*
X5118976Y126692D02*
X5118976Y55264D01*
X5118976Y55264D02*
X5142785Y7645D01*
X5142785Y7645D02*
X5190404Y-16165D01*
X5190404Y-16165D02*
X5452309Y-16165D01*
X5428500Y-444736D02*
X5452309Y-397117D01*
X5452309Y-397117D02*
X5452309Y-301879D01*
X5452309Y-301879D02*
X5428500Y-254260D01*
X5428500Y-254260D02*
X5380880Y-230451D01*
X5380880Y-230451D02*
X5190404Y-230451D01*
X5190404Y-230451D02*
X5142785Y-254260D01*
X5142785Y-254260D02*
X5118976Y-301879D01*
X5118976Y-301879D02*
X5118976Y-397117D01*
X5118976Y-397117D02*
X5142785Y-444736D01*
X5142785Y-444736D02*
X5190404Y-468546D01*
X5190404Y-468546D02*
X5238023Y-468546D01*
X5238023Y-468546D02*
X5285642Y-230451D01*
X5452309Y-897117D02*
X4952309Y-897117D01*
X5428500Y-897117D02*
X5452309Y-849498D01*
X5452309Y-849498D02*
X5452309Y-754260D01*
X5452309Y-754260D02*
X5428500Y-706641D01*
X5428500Y-706641D02*
X5404690Y-682831D01*
X5404690Y-682831D02*
X5357071Y-659022D01*
X5357071Y-659022D02*
X5214214Y-659022D01*
X5214214Y-659022D02*
X5166595Y-682831D01*
X5166595Y-682831D02*
X5142785Y-706641D01*
X5142785Y-706641D02*
X5118976Y-754260D01*
X5118976Y-754260D02*
X5118976Y-849498D01*
X5118976Y-849498D02*
X5142785Y-897117D01*
X5452309Y-1516164D02*
X4952309Y-1516164D01*
X5142785Y-1516164D02*
X5118976Y-1563783D01*
X5118976Y-1563783D02*
X5118976Y-1659021D01*
X5118976Y-1659021D02*
X5142785Y-1706640D01*
X5142785Y-1706640D02*
X5166595Y-1730450D01*
X5166595Y-1730450D02*
X5214214Y-1754259D01*
X5214214Y-1754259D02*
X5357071Y-1754259D01*
X5357071Y-1754259D02*
X5404690Y-1730450D01*
X5404690Y-1730450D02*
X5428500Y-1706640D01*
X5428500Y-1706640D02*
X5452309Y-1659021D01*
X5452309Y-1659021D02*
X5452309Y-1563783D01*
X5452309Y-1563783D02*
X5428500Y-1516164D01*
X5118976Y-1920926D02*
X5452309Y-2039974D01*
X5118976Y-2159021D02*
X5452309Y-2039974D01*
X5452309Y-2039974D02*
X5571357Y-1992355D01*
X5571357Y-1992355D02*
X5595166Y-1968545D01*
X5595166Y-1968545D02*
X5618976Y-1920926D01*
X18278716Y-1491833D02*
X17897764Y-1491833D01*
X18088240Y-1682309D02*
X18088240Y-1301357D01*
D10*
X15340326Y-13536266D02*
X14578422Y-13536266D01*
X14959374Y-13917219D02*
X14959374Y-13155314D01*
D12*
X20437142Y-4071331D02*
X20437142Y-3471331D01*
X20437142Y-3471331D02*
X20094285Y-4071331D01*
X20094285Y-4071331D02*
X20094285Y-3471331D01*
X19465714Y-4014188D02*
X19494286Y-4042760D01*
X19494286Y-4042760D02*
X19580000Y-4071331D01*
X19580000Y-4071331D02*
X19637143Y-4071331D01*
X19637143Y-4071331D02*
X19722857Y-4042760D01*
X19722857Y-4042760D02*
X19780000Y-3985617D01*
X19780000Y-3985617D02*
X19808571Y-3928474D01*
X19808571Y-3928474D02*
X19837143Y-3814188D01*
X19837143Y-3814188D02*
X19837143Y-3728474D01*
X19837143Y-3728474D02*
X19808571Y-3614188D01*
X19808571Y-3614188D02*
X19780000Y-3557045D01*
X19780000Y-3557045D02*
X19722857Y-3499902D01*
X19722857Y-3499902D02*
X19637143Y-3471331D01*
X19637143Y-3471331D02*
X19580000Y-3471331D01*
X19580000Y-3471331D02*
X19494286Y-3499902D01*
X19494286Y-3499902D02*
X19465714Y-3528474D01*
X18922857Y-3471331D02*
X19208571Y-3471331D01*
X19208571Y-3471331D02*
X19237143Y-3757045D01*
X19237143Y-3757045D02*
X19208571Y-3728474D01*
X19208571Y-3728474D02*
X19151429Y-3699902D01*
X19151429Y-3699902D02*
X19008571Y-3699902D01*
X19008571Y-3699902D02*
X18951429Y-3728474D01*
X18951429Y-3728474D02*
X18922857Y-3757045D01*
X18922857Y-3757045D02*
X18894286Y-3814188D01*
X18894286Y-3814188D02*
X18894286Y-3957045D01*
X18894286Y-3957045D02*
X18922857Y-4014188D01*
X18922857Y-4014188D02*
X18951429Y-4042760D01*
X18951429Y-4042760D02*
X19008571Y-4071331D01*
X19008571Y-4071331D02*
X19151429Y-4071331D01*
X19151429Y-4071331D02*
X19208571Y-4042760D01*
X19208571Y-4042760D02*
X19237143Y-4014188D01*
X8942856Y-21951331D02*
X8942856Y-21351331D01*
X8942856Y-21351331D02*
X8799999Y-21351331D01*
X8799999Y-21351331D02*
X8714285Y-21379902D01*
X8714285Y-21379902D02*
X8657142Y-21437045D01*
X8657142Y-21437045D02*
X8628571Y-21494188D01*
X8628571Y-21494188D02*
X8599999Y-21608474D01*
X8599999Y-21608474D02*
X8599999Y-21694188D01*
X8599999Y-21694188D02*
X8628571Y-21808474D01*
X8628571Y-21808474D02*
X8657142Y-21865617D01*
X8657142Y-21865617D02*
X8714285Y-21922760D01*
X8714285Y-21922760D02*
X8799999Y-21951331D01*
X8799999Y-21951331D02*
X8942856Y-21951331D01*
X8028571Y-21951331D02*
X8371428Y-21951331D01*
X8199999Y-21951331D02*
X8199999Y-21351331D01*
X8199999Y-21351331D02*
X8257142Y-21437045D01*
X8257142Y-21437045D02*
X8314285Y-21494188D01*
X8314285Y-21494188D02*
X8371428Y-21522760D01*
X6660000Y7638669D02*
X6660000Y7210098D01*
X6660000Y7210098D02*
X6688571Y7124383D01*
X6688571Y7124383D02*
X6745714Y7067240D01*
X6745714Y7067240D02*
X6831428Y7038669D01*
X6831428Y7038669D02*
X6888571Y7038669D01*
X6402857Y7581526D02*
X6374285Y7610098D01*
X6374285Y7610098D02*
X6317143Y7638669D01*
X6317143Y7638669D02*
X6174285Y7638669D01*
X6174285Y7638669D02*
X6117143Y7610098D01*
X6117143Y7610098D02*
X6088571Y7581526D01*
X6088571Y7581526D02*
X6060000Y7524383D01*
X6060000Y7524383D02*
X6060000Y7467240D01*
X6060000Y7467240D02*
X6088571Y7381526D01*
X6088571Y7381526D02*
X6431428Y7038669D01*
X6431428Y7038669D02*
X6060000Y7038669D01*
X15585714Y-2994188D02*
X15614286Y-3022760D01*
X15614286Y-3022760D02*
X15700000Y-3051331D01*
X15700000Y-3051331D02*
X15757143Y-3051331D01*
X15757143Y-3051331D02*
X15842857Y-3022760D01*
X15842857Y-3022760D02*
X15900000Y-2965617D01*
X15900000Y-2965617D02*
X15928571Y-2908474D01*
X15928571Y-2908474D02*
X15957143Y-2794188D01*
X15957143Y-2794188D02*
X15957143Y-2708474D01*
X15957143Y-2708474D02*
X15928571Y-2594188D01*
X15928571Y-2594188D02*
X15900000Y-2537045D01*
X15900000Y-2537045D02*
X15842857Y-2479902D01*
X15842857Y-2479902D02*
X15757143Y-2451331D01*
X15757143Y-2451331D02*
X15700000Y-2451331D01*
X15700000Y-2451331D02*
X15614286Y-2479902D01*
X15614286Y-2479902D02*
X15585714Y-2508474D01*
X15014286Y-3051331D02*
X15357143Y-3051331D01*
X15185714Y-3051331D02*
X15185714Y-2451331D01*
X15185714Y-2451331D02*
X15242857Y-2537045D01*
X15242857Y-2537045D02*
X15300000Y-2594188D01*
X15300000Y-2594188D02*
X15357143Y-2622760D01*
X14785714Y-2508474D02*
X14757142Y-2479902D01*
X14757142Y-2479902D02*
X14700000Y-2451331D01*
X14700000Y-2451331D02*
X14557142Y-2451331D01*
X14557142Y-2451331D02*
X14500000Y-2479902D01*
X14500000Y-2479902D02*
X14471428Y-2508474D01*
X14471428Y-2508474D02*
X14442857Y-2565617D01*
X14442857Y-2565617D02*
X14442857Y-2622760D01*
X14442857Y-2622760D02*
X14471428Y-2708474D01*
X14471428Y-2708474D02*
X14814285Y-3051331D01*
X14814285Y-3051331D02*
X14442857Y-3051331D01*
X20964188Y-6784285D02*
X20992760Y-6755713D01*
X20992760Y-6755713D02*
X21021331Y-6669999D01*
X21021331Y-6669999D02*
X21021331Y-6612856D01*
X21021331Y-6612856D02*
X20992760Y-6527142D01*
X20992760Y-6527142D02*
X20935617Y-6469999D01*
X20935617Y-6469999D02*
X20878474Y-6441428D01*
X20878474Y-6441428D02*
X20764188Y-6412856D01*
X20764188Y-6412856D02*
X20678474Y-6412856D01*
X20678474Y-6412856D02*
X20564188Y-6441428D01*
X20564188Y-6441428D02*
X20507045Y-6469999D01*
X20507045Y-6469999D02*
X20449902Y-6527142D01*
X20449902Y-6527142D02*
X20421331Y-6612856D01*
X20421331Y-6612856D02*
X20421331Y-6669999D01*
X20421331Y-6669999D02*
X20449902Y-6755713D01*
X20449902Y-6755713D02*
X20478474Y-6784285D01*
X21021331Y-7355713D02*
X21021331Y-7012856D01*
X21021331Y-7184285D02*
X20421331Y-7184285D01*
X20421331Y-7184285D02*
X20507045Y-7127142D01*
X20507045Y-7127142D02*
X20564188Y-7069999D01*
X20564188Y-7069999D02*
X20592760Y-7012856D01*
X21021331Y-7641428D02*
X21021331Y-7755714D01*
X21021331Y-7755714D02*
X20992760Y-7812857D01*
X20992760Y-7812857D02*
X20964188Y-7841428D01*
X20964188Y-7841428D02*
X20878474Y-7898571D01*
X20878474Y-7898571D02*
X20764188Y-7927142D01*
X20764188Y-7927142D02*
X20535617Y-7927142D01*
X20535617Y-7927142D02*
X20478474Y-7898571D01*
X20478474Y-7898571D02*
X20449902Y-7870000D01*
X20449902Y-7870000D02*
X20421331Y-7812857D01*
X20421331Y-7812857D02*
X20421331Y-7698571D01*
X20421331Y-7698571D02*
X20449902Y-7641428D01*
X20449902Y-7641428D02*
X20478474Y-7612857D01*
X20478474Y-7612857D02*
X20535617Y-7584285D01*
X20535617Y-7584285D02*
X20678474Y-7584285D01*
X20678474Y-7584285D02*
X20735617Y-7612857D01*
X20735617Y-7612857D02*
X20764188Y-7641428D01*
X20764188Y-7641428D02*
X20792760Y-7698571D01*
X20792760Y-7698571D02*
X20792760Y-7812857D01*
X20792760Y-7812857D02*
X20764188Y-7870000D01*
X20764188Y-7870000D02*
X20735617Y-7898571D01*
X20735617Y-7898571D02*
X20678474Y-7927142D01*
X19311331Y7098572D02*
X19311331Y6727144D01*
X19311331Y6727144D02*
X19539902Y6927144D01*
X19539902Y6927144D02*
X19539902Y6841429D01*
X19539902Y6841429D02*
X19568474Y6784286D01*
X19568474Y6784286D02*
X19597045Y6755715D01*
X19597045Y6755715D02*
X19654188Y6727144D01*
X19654188Y6727144D02*
X19797045Y6727144D01*
X19797045Y6727144D02*
X19854188Y6755715D01*
X19854188Y6755715D02*
X19882760Y6784286D01*
X19882760Y6784286D02*
X19911331Y6841429D01*
X19911331Y6841429D02*
X19911331Y7012858D01*
X19911331Y7012858D02*
X19882760Y7070001D01*
X19882760Y7070001D02*
X19854188Y7098572D01*
X19511331Y6527143D02*
X19911331Y6384286D01*
X19911331Y6384286D02*
X19511331Y6241429D01*
X19311331Y6070000D02*
X19311331Y5698572D01*
X19311331Y5698572D02*
X19539902Y5898572D01*
X19539902Y5898572D02*
X19539902Y5812857D01*
X19539902Y5812857D02*
X19568474Y5755714D01*
X19568474Y5755714D02*
X19597045Y5727143D01*
X19597045Y5727143D02*
X19654188Y5698572D01*
X19654188Y5698572D02*
X19797045Y5698572D01*
X19797045Y5698572D02*
X19854188Y5727143D01*
X19854188Y5727143D02*
X19882760Y5755714D01*
X19882760Y5755714D02*
X19911331Y5812857D01*
X19911331Y5812857D02*
X19911331Y5984286D01*
X19911331Y5984286D02*
X19882760Y6041429D01*
X19882760Y6041429D02*
X19854188Y6070000D01*
X19311331Y5270000D02*
X19739902Y5270000D01*
X19739902Y5270000D02*
X19825617Y5298571D01*
X19825617Y5298571D02*
X19882760Y5355714D01*
X19882760Y5355714D02*
X19911331Y5441428D01*
X19911331Y5441428D02*
X19911331Y5498571D01*
X19911331Y4670000D02*
X19911331Y5012857D01*
X19911331Y4841428D02*
X19311331Y4841428D01*
X19311331Y4841428D02*
X19397045Y4898571D01*
X19397045Y4898571D02*
X19454188Y4955714D01*
X19454188Y4955714D02*
X19482760Y5012857D01*
X-2438669Y-20519999D02*
X-2010098Y-20519999D01*
X-2010098Y-20519999D02*
X-1924383Y-20491428D01*
X-1924383Y-20491428D02*
X-1867240Y-20434285D01*
X-1867240Y-20434285D02*
X-1838669Y-20348571D01*
X-1838669Y-20348571D02*
X-1838669Y-20291428D01*
X-1838669Y-20805714D02*
X-2438669Y-20805714D01*
X-2438669Y-20805714D02*
X-2438669Y-21034285D01*
X-2438669Y-21034285D02*
X-2410098Y-21091428D01*
X-2410098Y-21091428D02*
X-2381526Y-21119999D01*
X-2381526Y-21119999D02*
X-2324383Y-21148571D01*
X-2324383Y-21148571D02*
X-2238669Y-21148571D01*
X-2238669Y-21148571D02*
X-2181526Y-21119999D01*
X-2181526Y-21119999D02*
X-2152955Y-21091428D01*
X-2152955Y-21091428D02*
X-2124383Y-21034285D01*
X-2124383Y-21034285D02*
X-2124383Y-20805714D01*
X-2381526Y-21377142D02*
X-2410098Y-21405714D01*
X-2410098Y-21405714D02*
X-2438669Y-21462857D01*
X-2438669Y-21462857D02*
X-2438669Y-21605714D01*
X-2438669Y-21605714D02*
X-2410098Y-21662857D01*
X-2410098Y-21662857D02*
X-2381526Y-21691428D01*
X-2381526Y-21691428D02*
X-2324383Y-21719999D01*
X-2324383Y-21719999D02*
X-2267240Y-21719999D01*
X-2267240Y-21719999D02*
X-2181526Y-21691428D01*
X-2181526Y-21691428D02*
X-1838669Y-21348571D01*
X-1838669Y-21348571D02*
X-1838669Y-21719999D01*
X7201331Y-16994285D02*
X6915617Y-16794285D01*
X7201331Y-16651428D02*
X6601331Y-16651428D01*
X6601331Y-16651428D02*
X6601331Y-16879999D01*
X6601331Y-16879999D02*
X6629902Y-16937142D01*
X6629902Y-16937142D02*
X6658474Y-16965713D01*
X6658474Y-16965713D02*
X6715617Y-16994285D01*
X6715617Y-16994285D02*
X6801331Y-16994285D01*
X6801331Y-16994285D02*
X6858474Y-16965713D01*
X6858474Y-16965713D02*
X6887045Y-16937142D01*
X6887045Y-16937142D02*
X6915617Y-16879999D01*
X6915617Y-16879999D02*
X6915617Y-16651428D01*
X7201331Y-17565713D02*
X7201331Y-17222856D01*
X7201331Y-17394285D02*
X6601331Y-17394285D01*
X6601331Y-17394285D02*
X6687045Y-17337142D01*
X6687045Y-17337142D02*
X6744188Y-17279999D01*
X6744188Y-17279999D02*
X6772760Y-17222856D01*
X6601331Y-18080000D02*
X6601331Y-17965714D01*
X6601331Y-17965714D02*
X6629902Y-17908571D01*
X6629902Y-17908571D02*
X6658474Y-17880000D01*
X6658474Y-17880000D02*
X6744188Y-17822857D01*
X6744188Y-17822857D02*
X6858474Y-17794285D01*
X6858474Y-17794285D02*
X7087045Y-17794285D01*
X7087045Y-17794285D02*
X7144188Y-17822857D01*
X7144188Y-17822857D02*
X7172760Y-17851428D01*
X7172760Y-17851428D02*
X7201331Y-17908571D01*
X7201331Y-17908571D02*
X7201331Y-18022857D01*
X7201331Y-18022857D02*
X7172760Y-18080000D01*
X7172760Y-18080000D02*
X7144188Y-18108571D01*
X7144188Y-18108571D02*
X7087045Y-18137142D01*
X7087045Y-18137142D02*
X6944188Y-18137142D01*
X6944188Y-18137142D02*
X6887045Y-18108571D01*
X6887045Y-18108571D02*
X6858474Y-18080000D01*
X6858474Y-18080000D02*
X6829902Y-18022857D01*
X6829902Y-18022857D02*
X6829902Y-17908571D01*
X6829902Y-17908571D02*
X6858474Y-17851428D01*
X6858474Y-17851428D02*
X6887045Y-17822857D01*
X6887045Y-17822857D02*
X6944188Y-17794285D01*
X-16121322Y-4055364D02*
X-15907036Y-4426518D01*
X-15907036Y-4426518D02*
X-15839435Y-4486463D01*
X-15839435Y-4486463D02*
X-15761377Y-4507379D01*
X-15761377Y-4507379D02*
X-15672860Y-4489265D01*
X-15672860Y-4489265D02*
X-15623373Y-4460694D01*
X-16068758Y-4717836D02*
X-16368758Y-4198221D01*
X-16368758Y-4198221D02*
X-16566706Y-4312507D01*
X-16566706Y-4312507D02*
X-16601908Y-4365822D01*
X-16601908Y-4365822D02*
X-16612366Y-4404851D01*
X-16612366Y-4404851D02*
X-16608538Y-4468624D01*
X-16608538Y-4468624D02*
X-16565681Y-4542855D01*
X-16565681Y-4542855D02*
X-16512366Y-4578056D01*
X-16512366Y-4578056D02*
X-16473336Y-4588514D01*
X-16473336Y-4588514D02*
X-16409564Y-4584686D01*
X-16409564Y-4584686D02*
X-16211615Y-4470401D01*
X-17011065Y-4799998D02*
X-16811065Y-5146408D01*
X-17001633Y-4530621D02*
X-16663629Y-4830346D01*
X-16663629Y-4830346D02*
X-16985296Y-5016060D01*
X11114188Y-16604285D02*
X11142760Y-16575713D01*
X11142760Y-16575713D02*
X11171331Y-16489999D01*
X11171331Y-16489999D02*
X11171331Y-16432856D01*
X11171331Y-16432856D02*
X11142760Y-16347142D01*
X11142760Y-16347142D02*
X11085617Y-16289999D01*
X11085617Y-16289999D02*
X11028474Y-16261428D01*
X11028474Y-16261428D02*
X10914188Y-16232856D01*
X10914188Y-16232856D02*
X10828474Y-16232856D01*
X10828474Y-16232856D02*
X10714188Y-16261428D01*
X10714188Y-16261428D02*
X10657045Y-16289999D01*
X10657045Y-16289999D02*
X10599902Y-16347142D01*
X10599902Y-16347142D02*
X10571331Y-16432856D01*
X10571331Y-16432856D02*
X10571331Y-16489999D01*
X10571331Y-16489999D02*
X10599902Y-16575713D01*
X10599902Y-16575713D02*
X10628474Y-16604285D01*
X11171331Y-17175713D02*
X11171331Y-16832856D01*
X11171331Y-17004285D02*
X10571331Y-17004285D01*
X10571331Y-17004285D02*
X10657045Y-16947142D01*
X10657045Y-16947142D02*
X10714188Y-16889999D01*
X10714188Y-16889999D02*
X10742760Y-16832856D01*
X10571331Y-17690000D02*
X10571331Y-17575714D01*
X10571331Y-17575714D02*
X10599902Y-17518571D01*
X10599902Y-17518571D02*
X10628474Y-17490000D01*
X10628474Y-17490000D02*
X10714188Y-17432857D01*
X10714188Y-17432857D02*
X10828474Y-17404285D01*
X10828474Y-17404285D02*
X11057045Y-17404285D01*
X11057045Y-17404285D02*
X11114188Y-17432857D01*
X11114188Y-17432857D02*
X11142760Y-17461428D01*
X11142760Y-17461428D02*
X11171331Y-17518571D01*
X11171331Y-17518571D02*
X11171331Y-17632857D01*
X11171331Y-17632857D02*
X11142760Y-17690000D01*
X11142760Y-17690000D02*
X11114188Y-17718571D01*
X11114188Y-17718571D02*
X11057045Y-17747142D01*
X11057045Y-17747142D02*
X10914188Y-17747142D01*
X10914188Y-17747142D02*
X10857045Y-17718571D01*
X10857045Y-17718571D02*
X10828474Y-17690000D01*
X10828474Y-17690000D02*
X10799902Y-17632857D01*
X10799902Y-17632857D02*
X10799902Y-17518571D01*
X10799902Y-17518571D02*
X10828474Y-17461428D01*
X10828474Y-17461428D02*
X10857045Y-17432857D01*
X10857045Y-17432857D02*
X10914188Y-17404285D01*
X8551331Y-17884285D02*
X8265617Y-17684285D01*
X8551331Y-17541428D02*
X7951331Y-17541428D01*
X7951331Y-17541428D02*
X7951331Y-17769999D01*
X7951331Y-17769999D02*
X7979902Y-17827142D01*
X7979902Y-17827142D02*
X8008474Y-17855713D01*
X8008474Y-17855713D02*
X8065617Y-17884285D01*
X8065617Y-17884285D02*
X8151331Y-17884285D01*
X8151331Y-17884285D02*
X8208474Y-17855713D01*
X8208474Y-17855713D02*
X8237045Y-17827142D01*
X8237045Y-17827142D02*
X8265617Y-17769999D01*
X8265617Y-17769999D02*
X8265617Y-17541428D01*
X8551331Y-18455713D02*
X8551331Y-18112856D01*
X8551331Y-18284285D02*
X7951331Y-18284285D01*
X7951331Y-18284285D02*
X8037045Y-18227142D01*
X8037045Y-18227142D02*
X8094188Y-18169999D01*
X8094188Y-18169999D02*
X8122760Y-18112856D01*
X8551331Y-19027142D02*
X8551331Y-18684285D01*
X8551331Y-18855714D02*
X7951331Y-18855714D01*
X7951331Y-18855714D02*
X8037045Y-18798571D01*
X8037045Y-18798571D02*
X8094188Y-18741428D01*
X8094188Y-18741428D02*
X8122760Y-18684285D01*
X-8436304Y-4745492D02*
X-8397275Y-4755950D01*
X-8397275Y-4755950D02*
X-8308758Y-4737837D01*
X-8308758Y-4737837D02*
X-8259271Y-4709265D01*
X-8259271Y-4709265D02*
X-8199326Y-4641665D01*
X-8199326Y-4641665D02*
X-8178410Y-4563606D01*
X-8178410Y-4563606D02*
X-8182238Y-4499833D01*
X-8182238Y-4499833D02*
X-8214637Y-4386573D01*
X-8214637Y-4386573D02*
X-8257494Y-4312342D01*
X-8257494Y-4312342D02*
X-8339381Y-4227654D01*
X-8339381Y-4227654D02*
X-8392696Y-4192452D01*
X-8392696Y-4192452D02*
X-8470755Y-4171536D01*
X-8470755Y-4171536D02*
X-8559271Y-4189650D01*
X-8559271Y-4189650D02*
X-8608758Y-4218221D01*
X-8608758Y-4218221D02*
X-8668703Y-4285822D01*
X-8668703Y-4285822D02*
X-8679161Y-4324851D01*
X-9153117Y-4532507D02*
X-9054143Y-4475364D01*
X-9054143Y-4475364D02*
X-8990370Y-4471536D01*
X-8990370Y-4471536D02*
X-8951340Y-4481994D01*
X-8951340Y-4481994D02*
X-8858996Y-4527654D01*
X-8858996Y-4527654D02*
X-8777110Y-4612342D01*
X-8777110Y-4612342D02*
X-8662824Y-4810291D01*
X-8662824Y-4810291D02*
X-8658996Y-4874064D01*
X-8658996Y-4874064D02*
X-8669454Y-4913093D01*
X-8669454Y-4913093D02*
X-8704655Y-4966408D01*
X-8704655Y-4966408D02*
X-8803630Y-5023551D01*
X-8803630Y-5023551D02*
X-8867403Y-5027379D01*
X-8867403Y-5027379D02*
X-8906432Y-5016921D01*
X-8906432Y-5016921D02*
X-8959747Y-4981720D01*
X-8959747Y-4981720D02*
X-9031176Y-4858002D01*
X-9031176Y-4858002D02*
X-9035003Y-4794229D01*
X-9035003Y-4794229D02*
X-9024546Y-4755199D01*
X-9024546Y-4755199D02*
X-8989344Y-4701884D01*
X-8989344Y-4701884D02*
X-8890370Y-4644742D01*
X-8890370Y-4644742D02*
X-8826597Y-4640914D01*
X-8826597Y-4640914D02*
X-8787568Y-4651372D01*
X-8787568Y-4651372D02*
X-8734253Y-4686573D01*
X-6686304Y-7595492D02*
X-6647275Y-7605950D01*
X-6647275Y-7605950D02*
X-6558758Y-7587837D01*
X-6558758Y-7587837D02*
X-6509271Y-7559265D01*
X-6509271Y-7559265D02*
X-6449326Y-7491665D01*
X-6449326Y-7491665D02*
X-6428410Y-7413606D01*
X-6428410Y-7413606D02*
X-6432238Y-7349833D01*
X-6432238Y-7349833D02*
X-6464637Y-7236573D01*
X-6464637Y-7236573D02*
X-6507494Y-7162342D01*
X-6507494Y-7162342D02*
X-6589381Y-7077654D01*
X-6589381Y-7077654D02*
X-6642696Y-7042452D01*
X-6642696Y-7042452D02*
X-6720755Y-7021536D01*
X-6720755Y-7021536D02*
X-6809271Y-7039650D01*
X-6809271Y-7039650D02*
X-6858758Y-7068221D01*
X-6858758Y-7068221D02*
X-6918703Y-7135822D01*
X-6918703Y-7135822D02*
X-6929161Y-7174851D01*
X-7130938Y-7225364D02*
X-7477348Y-7425364D01*
X-7477348Y-7425364D02*
X-6954655Y-7816408D01*
X6204188Y-11814285D02*
X6232760Y-11785713D01*
X6232760Y-11785713D02*
X6261331Y-11699999D01*
X6261331Y-11699999D02*
X6261331Y-11642856D01*
X6261331Y-11642856D02*
X6232760Y-11557142D01*
X6232760Y-11557142D02*
X6175617Y-11499999D01*
X6175617Y-11499999D02*
X6118474Y-11471428D01*
X6118474Y-11471428D02*
X6004188Y-11442856D01*
X6004188Y-11442856D02*
X5918474Y-11442856D01*
X5918474Y-11442856D02*
X5804188Y-11471428D01*
X5804188Y-11471428D02*
X5747045Y-11499999D01*
X5747045Y-11499999D02*
X5689902Y-11557142D01*
X5689902Y-11557142D02*
X5661331Y-11642856D01*
X5661331Y-11642856D02*
X5661331Y-11699999D01*
X5661331Y-11699999D02*
X5689902Y-11785713D01*
X5689902Y-11785713D02*
X5718474Y-11814285D01*
X6261331Y-12385713D02*
X6261331Y-12042856D01*
X6261331Y-12214285D02*
X5661331Y-12214285D01*
X5661331Y-12214285D02*
X5747045Y-12157142D01*
X5747045Y-12157142D02*
X5804188Y-12099999D01*
X5804188Y-12099999D02*
X5832760Y-12042856D01*
X5861331Y-12900000D02*
X6261331Y-12900000D01*
X5632760Y-12757142D02*
X6061331Y-12614285D01*
X6061331Y-12614285D02*
X6061331Y-12985714D01*
X-7366304Y-6145492D02*
X-7327275Y-6155950D01*
X-7327275Y-6155950D02*
X-7238758Y-6137837D01*
X-7238758Y-6137837D02*
X-7189271Y-6109265D01*
X-7189271Y-6109265D02*
X-7129326Y-6041665D01*
X-7129326Y-6041665D02*
X-7108410Y-5963606D01*
X-7108410Y-5963606D02*
X-7112238Y-5899833D01*
X-7112238Y-5899833D02*
X-7144637Y-5786573D01*
X-7144637Y-5786573D02*
X-7187494Y-5712342D01*
X-7187494Y-5712342D02*
X-7269381Y-5627654D01*
X-7269381Y-5627654D02*
X-7322696Y-5592452D01*
X-7322696Y-5592452D02*
X-7400755Y-5571536D01*
X-7400755Y-5571536D02*
X-7489271Y-5589650D01*
X-7489271Y-5589650D02*
X-7538758Y-5618221D01*
X-7538758Y-5618221D02*
X-7598703Y-5685822D01*
X-7598703Y-5685822D02*
X-7609161Y-5724851D01*
X-7806084Y-6069485D02*
X-7770883Y-6016170D01*
X-7770883Y-6016170D02*
X-7760425Y-5977141D01*
X-7760425Y-5977141D02*
X-7764253Y-5913368D01*
X-7764253Y-5913368D02*
X-7778538Y-5888624D01*
X-7778538Y-5888624D02*
X-7831853Y-5853423D01*
X-7831853Y-5853423D02*
X-7870883Y-5842965D01*
X-7870883Y-5842965D02*
X-7934655Y-5846793D01*
X-7934655Y-5846793D02*
X-8033630Y-5903936D01*
X-8033630Y-5903936D02*
X-8068831Y-5957251D01*
X-8068831Y-5957251D02*
X-8079289Y-5996280D01*
X-8079289Y-5996280D02*
X-8075461Y-6060053D01*
X-8075461Y-6060053D02*
X-8061176Y-6084797D01*
X-8061176Y-6084797D02*
X-8007861Y-6119998D01*
X-8007861Y-6119998D02*
X-7968831Y-6130456D01*
X-7968831Y-6130456D02*
X-7905058Y-6126628D01*
X-7905058Y-6126628D02*
X-7806084Y-6069485D01*
X-7806084Y-6069485D02*
X-7742311Y-6065657D01*
X-7742311Y-6065657D02*
X-7703282Y-6076115D01*
X-7703282Y-6076115D02*
X-7649967Y-6111317D01*
X-7649967Y-6111317D02*
X-7592824Y-6210291D01*
X-7592824Y-6210291D02*
X-7588996Y-6274064D01*
X-7588996Y-6274064D02*
X-7599454Y-6313093D01*
X-7599454Y-6313093D02*
X-7634655Y-6366408D01*
X-7634655Y-6366408D02*
X-7733630Y-6423551D01*
X-7733630Y-6423551D02*
X-7797403Y-6427379D01*
X-7797403Y-6427379D02*
X-7836432Y-6416921D01*
X-7836432Y-6416921D02*
X-7889747Y-6381720D01*
X-7889747Y-6381720D02*
X-7946890Y-6282745D01*
X-7946890Y-6282745D02*
X-7950718Y-6218972D01*
X-7950718Y-6218972D02*
X-7940260Y-6179943D01*
X-7940260Y-6179943D02*
X-7905058Y-6126628D01*
X13879883Y15780081D02*
X13849438Y16127509D01*
X14142526Y16000466D02*
X13756854Y16460092D01*
X13756854Y16460092D02*
X13581758Y16313169D01*
X13581758Y16313169D02*
X13556349Y16254552D01*
X13556349Y16254552D02*
X13552828Y16214299D01*
X13552828Y16214299D02*
X13567671Y16152160D01*
X13567671Y16152160D02*
X13622768Y16086499D01*
X13622768Y16086499D02*
X13681385Y16061090D01*
X13681385Y16061090D02*
X13721638Y16057569D01*
X13721638Y16057569D02*
X13783777Y16072412D01*
X13783777Y16072412D02*
X13958873Y16219335D01*
X13442143Y15412774D02*
X13704787Y15633158D01*
X13573465Y15522966D02*
X13187792Y15982593D01*
X13187792Y15982593D02*
X13286662Y15953663D01*
X13286662Y15953663D02*
X13367167Y15946619D01*
X13367167Y15946619D02*
X13429306Y15961463D01*
X12791062Y15388615D02*
X13048177Y15082197D01*
X12753574Y15655538D02*
X13138489Y15419060D01*
X13138489Y15419060D02*
X12853958Y15180310D01*
X-1182858Y22608669D02*
X-1182858Y22122955D01*
X-1182858Y22122955D02*
X-1211429Y22065812D01*
X-1211429Y22065812D02*
X-1240000Y22037240D01*
X-1240000Y22037240D02*
X-1297143Y22008669D01*
X-1297143Y22008669D02*
X-1411429Y22008669D01*
X-1411429Y22008669D02*
X-1468572Y22037240D01*
X-1468572Y22037240D02*
X-1497143Y22065812D01*
X-1497143Y22065812D02*
X-1525715Y22122955D01*
X-1525715Y22122955D02*
X-1525715Y22608669D01*
X-1782857Y22551526D02*
X-1811429Y22580098D01*
X-1811429Y22580098D02*
X-1868571Y22608669D01*
X-1868571Y22608669D02*
X-2011429Y22608669D01*
X-2011429Y22608669D02*
X-2068571Y22580098D01*
X-2068571Y22580098D02*
X-2097143Y22551526D01*
X-2097143Y22551526D02*
X-2125714Y22494383D01*
X-2125714Y22494383D02*
X-2125714Y22437240D01*
X-2125714Y22437240D02*
X-2097143Y22351526D01*
X-2097143Y22351526D02*
X-1754286Y22008669D01*
X-1754286Y22008669D02*
X-2125714Y22008669D01*
X-13118436Y-6116793D02*
X-12875579Y-6537434D01*
X-12875579Y-6537434D02*
X-12871751Y-6601207D01*
X-12871751Y-6601207D02*
X-12882209Y-6640236D01*
X-12882209Y-6640236D02*
X-12917411Y-6693551D01*
X-12917411Y-6693551D02*
X-13016385Y-6750694D01*
X-13016385Y-6750694D02*
X-13080158Y-6754522D01*
X-13080158Y-6754522D02*
X-13119187Y-6744064D01*
X-13119187Y-6744064D02*
X-13172502Y-6708862D01*
X-13172502Y-6708862D02*
X-13415359Y-6288221D01*
X-13634974Y-7107836D02*
X-13338051Y-6936408D01*
X-13486513Y-7022122D02*
X-13786513Y-6502507D01*
X-13786513Y-6502507D02*
X-13694169Y-6548166D01*
X-13694169Y-6548166D02*
X-13616110Y-6569082D01*
X-13616110Y-6569082D02*
X-13552337Y-6565254D01*
X-9722461Y-11555363D02*
X-9936747Y-11926517D01*
X-9936747Y-11926517D02*
X-9954860Y-12015034D01*
X-9954860Y-12015034D02*
X-9933944Y-12093092D01*
X-9933944Y-12093092D02*
X-9873999Y-12160693D01*
X-9873999Y-12160693D02*
X-9824512Y-12189264D01*
X-10542076Y-11774978D02*
X-10245153Y-11946407D01*
X-10393615Y-11860693D02*
X-10093615Y-11341078D01*
X-10093615Y-11341078D02*
X-10086985Y-11443880D01*
X-10086985Y-11443880D02*
X-10066069Y-11521938D01*
X-10066069Y-11521938D02*
X-10030868Y-11575253D01*
X3061331Y-13070000D02*
X2775617Y-12870000D01*
X3061331Y-12727143D02*
X2461331Y-12727143D01*
X2461331Y-12727143D02*
X2461331Y-12955714D01*
X2461331Y-12955714D02*
X2489902Y-13012857D01*
X2489902Y-13012857D02*
X2518474Y-13041428D01*
X2518474Y-13041428D02*
X2575617Y-13070000D01*
X2575617Y-13070000D02*
X2661331Y-13070000D01*
X2661331Y-13070000D02*
X2718474Y-13041428D01*
X2718474Y-13041428D02*
X2747045Y-13012857D01*
X2747045Y-13012857D02*
X2775617Y-12955714D01*
X2775617Y-12955714D02*
X2775617Y-12727143D01*
X3061331Y-13355714D02*
X3061331Y-13470000D01*
X3061331Y-13470000D02*
X3032760Y-13527143D01*
X3032760Y-13527143D02*
X3004188Y-13555714D01*
X3004188Y-13555714D02*
X2918474Y-13612857D01*
X2918474Y-13612857D02*
X2804188Y-13641428D01*
X2804188Y-13641428D02*
X2575617Y-13641428D01*
X2575617Y-13641428D02*
X2518474Y-13612857D01*
X2518474Y-13612857D02*
X2489902Y-13584286D01*
X2489902Y-13584286D02*
X2461331Y-13527143D01*
X2461331Y-13527143D02*
X2461331Y-13412857D01*
X2461331Y-13412857D02*
X2489902Y-13355714D01*
X2489902Y-13355714D02*
X2518474Y-13327143D01*
X2518474Y-13327143D02*
X2575617Y-13298571D01*
X2575617Y-13298571D02*
X2718474Y-13298571D01*
X2718474Y-13298571D02*
X2775617Y-13327143D01*
X2775617Y-13327143D02*
X2804188Y-13355714D01*
X2804188Y-13355714D02*
X2832760Y-13412857D01*
X2832760Y-13412857D02*
X2832760Y-13527143D01*
X2832760Y-13527143D02*
X2804188Y-13584286D01*
X2804188Y-13584286D02*
X2775617Y-13612857D01*
X2775617Y-13612857D02*
X2718474Y-13641428D01*
X17511331Y5647143D02*
X16911331Y5647143D01*
X16911331Y5647143D02*
X17511331Y5304286D01*
X17511331Y5304286D02*
X16911331Y5304286D01*
X17454188Y4675715D02*
X17482760Y4704287D01*
X17482760Y4704287D02*
X17511331Y4790001D01*
X17511331Y4790001D02*
X17511331Y4847144D01*
X17511331Y4847144D02*
X17482760Y4932858D01*
X17482760Y4932858D02*
X17425617Y4990001D01*
X17425617Y4990001D02*
X17368474Y5018572D01*
X17368474Y5018572D02*
X17254188Y5047144D01*
X17254188Y5047144D02*
X17168474Y5047144D01*
X17168474Y5047144D02*
X17054188Y5018572D01*
X17054188Y5018572D02*
X16997045Y4990001D01*
X16997045Y4990001D02*
X16939902Y4932858D01*
X16939902Y4932858D02*
X16911331Y4847144D01*
X16911331Y4847144D02*
X16911331Y4790001D01*
X16911331Y4790001D02*
X16939902Y4704287D01*
X16939902Y4704287D02*
X16968474Y4675715D01*
X17511331Y4104287D02*
X17511331Y4447144D01*
X17511331Y4275715D02*
X16911331Y4275715D01*
X16911331Y4275715D02*
X16997045Y4332858D01*
X16997045Y4332858D02*
X17054188Y4390001D01*
X17054188Y4390001D02*
X17082760Y4447144D01*
X15565714Y-2024188D02*
X15594286Y-2052760D01*
X15594286Y-2052760D02*
X15680000Y-2081331D01*
X15680000Y-2081331D02*
X15737143Y-2081331D01*
X15737143Y-2081331D02*
X15822857Y-2052760D01*
X15822857Y-2052760D02*
X15880000Y-1995617D01*
X15880000Y-1995617D02*
X15908571Y-1938474D01*
X15908571Y-1938474D02*
X15937143Y-1824188D01*
X15937143Y-1824188D02*
X15937143Y-1738474D01*
X15937143Y-1738474D02*
X15908571Y-1624188D01*
X15908571Y-1624188D02*
X15880000Y-1567045D01*
X15880000Y-1567045D02*
X15822857Y-1509902D01*
X15822857Y-1509902D02*
X15737143Y-1481331D01*
X15737143Y-1481331D02*
X15680000Y-1481331D01*
X15680000Y-1481331D02*
X15594286Y-1509902D01*
X15594286Y-1509902D02*
X15565714Y-1538474D01*
X14994286Y-2081331D02*
X15337143Y-2081331D01*
X15165714Y-2081331D02*
X15165714Y-1481331D01*
X15165714Y-1481331D02*
X15222857Y-1567045D01*
X15222857Y-1567045D02*
X15280000Y-1624188D01*
X15280000Y-1624188D02*
X15337143Y-1652760D01*
X14422857Y-2081331D02*
X14765714Y-2081331D01*
X14594285Y-2081331D02*
X14594285Y-1481331D01*
X14594285Y-1481331D02*
X14651428Y-1567045D01*
X14651428Y-1567045D02*
X14708571Y-1624188D01*
X14708571Y-1624188D02*
X14765714Y-1652760D01*
X8094188Y-14014285D02*
X8122760Y-13985713D01*
X8122760Y-13985713D02*
X8151331Y-13899999D01*
X8151331Y-13899999D02*
X8151331Y-13842856D01*
X8151331Y-13842856D02*
X8122760Y-13757142D01*
X8122760Y-13757142D02*
X8065617Y-13699999D01*
X8065617Y-13699999D02*
X8008474Y-13671428D01*
X8008474Y-13671428D02*
X7894188Y-13642856D01*
X7894188Y-13642856D02*
X7808474Y-13642856D01*
X7808474Y-13642856D02*
X7694188Y-13671428D01*
X7694188Y-13671428D02*
X7637045Y-13699999D01*
X7637045Y-13699999D02*
X7579902Y-13757142D01*
X7579902Y-13757142D02*
X7551331Y-13842856D01*
X7551331Y-13842856D02*
X7551331Y-13899999D01*
X7551331Y-13899999D02*
X7579902Y-13985713D01*
X7579902Y-13985713D02*
X7608474Y-14014285D01*
X8151331Y-14585713D02*
X8151331Y-14242856D01*
X8151331Y-14414285D02*
X7551331Y-14414285D01*
X7551331Y-14414285D02*
X7637045Y-14357142D01*
X7637045Y-14357142D02*
X7694188Y-14299999D01*
X7694188Y-14299999D02*
X7722760Y-14242856D01*
X7551331Y-15128571D02*
X7551331Y-14842857D01*
X7551331Y-14842857D02*
X7837045Y-14814285D01*
X7837045Y-14814285D02*
X7808474Y-14842857D01*
X7808474Y-14842857D02*
X7779902Y-14900000D01*
X7779902Y-14900000D02*
X7779902Y-15042857D01*
X7779902Y-15042857D02*
X7808474Y-15100000D01*
X7808474Y-15100000D02*
X7837045Y-15128571D01*
X7837045Y-15128571D02*
X7894188Y-15157142D01*
X7894188Y-15157142D02*
X8037045Y-15157142D01*
X8037045Y-15157142D02*
X8094188Y-15128571D01*
X8094188Y-15128571D02*
X8122760Y-15100000D01*
X8122760Y-15100000D02*
X8151331Y-15042857D01*
X8151331Y-15042857D02*
X8151331Y-14900000D01*
X8151331Y-14900000D02*
X8122760Y-14842857D01*
X8122760Y-14842857D02*
X8094188Y-14814285D01*
X14533152Y14933855D02*
X14573404Y14930334D01*
X14573404Y14930334D02*
X14657431Y14963543D01*
X14657431Y14963543D02*
X14701204Y15000273D01*
X14701204Y15000273D02*
X14748500Y15077256D01*
X14748500Y15077256D02*
X14755543Y15157761D01*
X14755543Y15157761D02*
X14740700Y15219900D01*
X14740700Y15219900D02*
X14689125Y15325814D01*
X14689125Y15325814D02*
X14634029Y15391475D01*
X14634029Y15391475D02*
X14538681Y15460657D01*
X14538681Y15460657D02*
X14480063Y15486066D01*
X14480063Y15486066D02*
X14399558Y15493109D01*
X14399558Y15493109D02*
X14315532Y15459900D01*
X14315532Y15459900D02*
X14271758Y15423169D01*
X14271758Y15423169D02*
X14224462Y15346186D01*
X14224462Y15346186D02*
X14220941Y15305934D01*
X14045845Y15159011D02*
X14005593Y15162533D01*
X14005593Y15162533D02*
X13943453Y15147689D01*
X13943453Y15147689D02*
X13834018Y15055862D01*
X13834018Y15055862D02*
X13808610Y14997244D01*
X13808610Y14997244D02*
X13805088Y14956992D01*
X13805088Y14956992D02*
X13819932Y14894853D01*
X13819932Y14894853D02*
X13856663Y14851079D01*
X13856663Y14851079D02*
X13933646Y14803783D01*
X13933646Y14803783D02*
X14416674Y14761524D01*
X14416674Y14761524D02*
X14132143Y14522774D01*
X13649114Y14565033D02*
X13674523Y14623651D01*
X13674523Y14623651D02*
X13678045Y14663903D01*
X13678045Y14663903D02*
X13663201Y14726043D01*
X13663201Y14726043D02*
X13644836Y14747930D01*
X13644836Y14747930D02*
X13586218Y14773338D01*
X13586218Y14773338D02*
X13545966Y14776860D01*
X13545966Y14776860D02*
X13483826Y14762016D01*
X13483826Y14762016D02*
X13396278Y14688555D01*
X13396278Y14688555D02*
X13370870Y14629937D01*
X13370870Y14629937D02*
X13367348Y14589685D01*
X13367348Y14589685D02*
X13382192Y14527545D01*
X13382192Y14527545D02*
X13400557Y14505658D01*
X13400557Y14505658D02*
X13459175Y14480250D01*
X13459175Y14480250D02*
X13499427Y14476728D01*
X13499427Y14476728D02*
X13561567Y14491572D01*
X13561567Y14491572D02*
X13649114Y14565033D01*
X13649114Y14565033D02*
X13711254Y14579877D01*
X13711254Y14579877D02*
X13751506Y14576355D01*
X13751506Y14576355D02*
X13810124Y14550947D01*
X13810124Y14550947D02*
X13883585Y14463399D01*
X13883585Y14463399D02*
X13898429Y14401259D01*
X13898429Y14401259D02*
X13894907Y14361007D01*
X13894907Y14361007D02*
X13869499Y14302389D01*
X13869499Y14302389D02*
X13781951Y14228928D01*
X13781951Y14228928D02*
X13719812Y14214084D01*
X13719812Y14214084D02*
X13679559Y14217606D01*
X13679559Y14217606D02*
X13620941Y14243014D01*
X13620941Y14243014D02*
X13547480Y14330562D01*
X13547480Y14330562D02*
X13532636Y14392702D01*
X13532636Y14392702D02*
X13536158Y14432954D01*
X13536158Y14432954D02*
X13561567Y14491572D01*
X7287142Y-5681331D02*
X7287142Y-6167045D01*
X7287142Y-6167045D02*
X7258571Y-6224188D01*
X7258571Y-6224188D02*
X7230000Y-6252760D01*
X7230000Y-6252760D02*
X7172857Y-6281331D01*
X7172857Y-6281331D02*
X7058571Y-6281331D01*
X7058571Y-6281331D02*
X7001428Y-6252760D01*
X7001428Y-6252760D02*
X6972857Y-6224188D01*
X6972857Y-6224188D02*
X6944285Y-6167045D01*
X6944285Y-6167045D02*
X6944285Y-5681331D01*
X6372857Y-5681331D02*
X6658571Y-5681331D01*
X6658571Y-5681331D02*
X6687143Y-5967045D01*
X6687143Y-5967045D02*
X6658571Y-5938474D01*
X6658571Y-5938474D02*
X6601429Y-5909902D01*
X6601429Y-5909902D02*
X6458571Y-5909902D01*
X6458571Y-5909902D02*
X6401429Y-5938474D01*
X6401429Y-5938474D02*
X6372857Y-5967045D01*
X6372857Y-5967045D02*
X6344286Y-6024188D01*
X6344286Y-6024188D02*
X6344286Y-6167045D01*
X6344286Y-6167045D02*
X6372857Y-6224188D01*
X6372857Y-6224188D02*
X6401429Y-6252760D01*
X6401429Y-6252760D02*
X6458571Y-6281331D01*
X6458571Y-6281331D02*
X6601429Y-6281331D01*
X6601429Y-6281331D02*
X6658571Y-6252760D01*
X6658571Y-6252760D02*
X6687143Y-6224188D01*
X-11602163Y-16511626D02*
X-11749599Y-16195564D01*
X-11430735Y-16214703D02*
X-11950350Y-15914703D01*
X-11950350Y-15914703D02*
X-12064636Y-16112652D01*
X-12064636Y-16112652D02*
X-12068463Y-16176425D01*
X-12068463Y-16176425D02*
X-12058006Y-16215454D01*
X-12058006Y-16215454D02*
X-12022804Y-16268769D01*
X-12022804Y-16268769D02*
X-11948573Y-16311626D01*
X-11948573Y-16311626D02*
X-11884801Y-16315454D01*
X-11884801Y-16315454D02*
X-11845771Y-16304996D01*
X-11845771Y-16304996D02*
X-11792456Y-16269795D01*
X-11792456Y-16269795D02*
X-11678170Y-16071846D01*
X-11887878Y-17006498D02*
X-11716449Y-16709575D01*
X-11802163Y-16858037D02*
X-12321778Y-16558037D01*
X-12321778Y-16558037D02*
X-12218976Y-16551407D01*
X-12218976Y-16551407D02*
X-12140918Y-16530491D01*
X-12140918Y-16530491D02*
X-12087603Y-16495289D01*
X-12507493Y-16879704D02*
X-12693207Y-17201370D01*
X-12693207Y-17201370D02*
X-12395259Y-17142451D01*
X-12395259Y-17142451D02*
X-12438116Y-17216682D01*
X-12438116Y-17216682D02*
X-12441944Y-17280454D01*
X-12441944Y-17280454D02*
X-12431486Y-17319484D01*
X-12431486Y-17319484D02*
X-12396284Y-17372799D01*
X-12396284Y-17372799D02*
X-12272566Y-17444227D01*
X-12272566Y-17444227D02*
X-12208793Y-17448055D01*
X-12208793Y-17448055D02*
X-12169764Y-17437597D01*
X-12169764Y-17437597D02*
X-12116449Y-17402396D01*
X-12116449Y-17402396D02*
X-12030735Y-17253934D01*
X-12030735Y-17253934D02*
X-12026907Y-17190161D01*
X-12026907Y-17190161D02*
X-12037365Y-17151132D01*
X8105714Y-4354188D02*
X8134286Y-4382760D01*
X8134286Y-4382760D02*
X8220000Y-4411331D01*
X8220000Y-4411331D02*
X8277143Y-4411331D01*
X8277143Y-4411331D02*
X8362857Y-4382760D01*
X8362857Y-4382760D02*
X8420000Y-4325617D01*
X8420000Y-4325617D02*
X8448571Y-4268474D01*
X8448571Y-4268474D02*
X8477143Y-4154188D01*
X8477143Y-4154188D02*
X8477143Y-4068474D01*
X8477143Y-4068474D02*
X8448571Y-3954188D01*
X8448571Y-3954188D02*
X8420000Y-3897045D01*
X8420000Y-3897045D02*
X8362857Y-3839902D01*
X8362857Y-3839902D02*
X8277143Y-3811331D01*
X8277143Y-3811331D02*
X8220000Y-3811331D01*
X8220000Y-3811331D02*
X8134286Y-3839902D01*
X8134286Y-3839902D02*
X8105714Y-3868474D01*
X7534286Y-4411331D02*
X7877143Y-4411331D01*
X7705714Y-4411331D02*
X7705714Y-3811331D01*
X7705714Y-3811331D02*
X7762857Y-3897045D01*
X7762857Y-3897045D02*
X7820000Y-3954188D01*
X7820000Y-3954188D02*
X7877143Y-3982760D01*
X7191428Y-4068474D02*
X7248571Y-4039902D01*
X7248571Y-4039902D02*
X7277142Y-4011331D01*
X7277142Y-4011331D02*
X7305714Y-3954188D01*
X7305714Y-3954188D02*
X7305714Y-3925617D01*
X7305714Y-3925617D02*
X7277142Y-3868474D01*
X7277142Y-3868474D02*
X7248571Y-3839902D01*
X7248571Y-3839902D02*
X7191428Y-3811331D01*
X7191428Y-3811331D02*
X7077142Y-3811331D01*
X7077142Y-3811331D02*
X7020000Y-3839902D01*
X7020000Y-3839902D02*
X6991428Y-3868474D01*
X6991428Y-3868474D02*
X6962857Y-3925617D01*
X6962857Y-3925617D02*
X6962857Y-3954188D01*
X6962857Y-3954188D02*
X6991428Y-4011331D01*
X6991428Y-4011331D02*
X7020000Y-4039902D01*
X7020000Y-4039902D02*
X7077142Y-4068474D01*
X7077142Y-4068474D02*
X7191428Y-4068474D01*
X7191428Y-4068474D02*
X7248571Y-4097045D01*
X7248571Y-4097045D02*
X7277142Y-4125617D01*
X7277142Y-4125617D02*
X7305714Y-4182760D01*
X7305714Y-4182760D02*
X7305714Y-4297045D01*
X7305714Y-4297045D02*
X7277142Y-4354188D01*
X7277142Y-4354188D02*
X7248571Y-4382760D01*
X7248571Y-4382760D02*
X7191428Y-4411331D01*
X7191428Y-4411331D02*
X7077142Y-4411331D01*
X7077142Y-4411331D02*
X7020000Y-4382760D01*
X7020000Y-4382760D02*
X6991428Y-4354188D01*
X6991428Y-4354188D02*
X6962857Y-4297045D01*
X6962857Y-4297045D02*
X6962857Y-4182760D01*
X6962857Y-4182760D02*
X6991428Y-4125617D01*
X6991428Y-4125617D02*
X7020000Y-4097045D01*
X7020000Y-4097045D02*
X7077142Y-4068474D01*
X20954188Y-9564285D02*
X20982760Y-9535713D01*
X20982760Y-9535713D02*
X21011331Y-9449999D01*
X21011331Y-9449999D02*
X21011331Y-9392856D01*
X21011331Y-9392856D02*
X20982760Y-9307142D01*
X20982760Y-9307142D02*
X20925617Y-9249999D01*
X20925617Y-9249999D02*
X20868474Y-9221428D01*
X20868474Y-9221428D02*
X20754188Y-9192856D01*
X20754188Y-9192856D02*
X20668474Y-9192856D01*
X20668474Y-9192856D02*
X20554188Y-9221428D01*
X20554188Y-9221428D02*
X20497045Y-9249999D01*
X20497045Y-9249999D02*
X20439902Y-9307142D01*
X20439902Y-9307142D02*
X20411331Y-9392856D01*
X20411331Y-9392856D02*
X20411331Y-9449999D01*
X20411331Y-9449999D02*
X20439902Y-9535713D01*
X20439902Y-9535713D02*
X20468474Y-9564285D01*
X20468474Y-9792856D02*
X20439902Y-9821428D01*
X20439902Y-9821428D02*
X20411331Y-9878571D01*
X20411331Y-9878571D02*
X20411331Y-10021428D01*
X20411331Y-10021428D02*
X20439902Y-10078571D01*
X20439902Y-10078571D02*
X20468474Y-10107142D01*
X20468474Y-10107142D02*
X20525617Y-10135713D01*
X20525617Y-10135713D02*
X20582760Y-10135713D01*
X20582760Y-10135713D02*
X20668474Y-10107142D01*
X20668474Y-10107142D02*
X21011331Y-9764285D01*
X21011331Y-9764285D02*
X21011331Y-10135713D01*
X20468474Y-10364285D02*
X20439902Y-10392857D01*
X20439902Y-10392857D02*
X20411331Y-10450000D01*
X20411331Y-10450000D02*
X20411331Y-10592857D01*
X20411331Y-10592857D02*
X20439902Y-10650000D01*
X20439902Y-10650000D02*
X20468474Y-10678571D01*
X20468474Y-10678571D02*
X20525617Y-10707142D01*
X20525617Y-10707142D02*
X20582760Y-10707142D01*
X20582760Y-10707142D02*
X20668474Y-10678571D01*
X20668474Y-10678571D02*
X21011331Y-10335714D01*
X21011331Y-10335714D02*
X21011331Y-10707142D01*
X4781331Y-12650000D02*
X4495617Y-12450000D01*
X4781331Y-12307143D02*
X4181331Y-12307143D01*
X4181331Y-12307143D02*
X4181331Y-12535714D01*
X4181331Y-12535714D02*
X4209902Y-12592857D01*
X4209902Y-12592857D02*
X4238474Y-12621428D01*
X4238474Y-12621428D02*
X4295617Y-12650000D01*
X4295617Y-12650000D02*
X4381331Y-12650000D01*
X4381331Y-12650000D02*
X4438474Y-12621428D01*
X4438474Y-12621428D02*
X4467045Y-12592857D01*
X4467045Y-12592857D02*
X4495617Y-12535714D01*
X4495617Y-12535714D02*
X4495617Y-12307143D01*
X4438474Y-12992857D02*
X4409902Y-12935714D01*
X4409902Y-12935714D02*
X4381331Y-12907143D01*
X4381331Y-12907143D02*
X4324188Y-12878571D01*
X4324188Y-12878571D02*
X4295617Y-12878571D01*
X4295617Y-12878571D02*
X4238474Y-12907143D01*
X4238474Y-12907143D02*
X4209902Y-12935714D01*
X4209902Y-12935714D02*
X4181331Y-12992857D01*
X4181331Y-12992857D02*
X4181331Y-13107143D01*
X4181331Y-13107143D02*
X4209902Y-13164286D01*
X4209902Y-13164286D02*
X4238474Y-13192857D01*
X4238474Y-13192857D02*
X4295617Y-13221428D01*
X4295617Y-13221428D02*
X4324188Y-13221428D01*
X4324188Y-13221428D02*
X4381331Y-13192857D01*
X4381331Y-13192857D02*
X4409902Y-13164286D01*
X4409902Y-13164286D02*
X4438474Y-13107143D01*
X4438474Y-13107143D02*
X4438474Y-12992857D01*
X4438474Y-12992857D02*
X4467045Y-12935714D01*
X4467045Y-12935714D02*
X4495617Y-12907143D01*
X4495617Y-12907143D02*
X4552760Y-12878571D01*
X4552760Y-12878571D02*
X4667045Y-12878571D01*
X4667045Y-12878571D02*
X4724188Y-12907143D01*
X4724188Y-12907143D02*
X4752760Y-12935714D01*
X4752760Y-12935714D02*
X4781331Y-12992857D01*
X4781331Y-12992857D02*
X4781331Y-13107143D01*
X4781331Y-13107143D02*
X4752760Y-13164286D01*
X4752760Y-13164286D02*
X4724188Y-13192857D01*
X4724188Y-13192857D02*
X4667045Y-13221428D01*
X4667045Y-13221428D02*
X4552760Y-13221428D01*
X4552760Y-13221428D02*
X4495617Y-13192857D01*
X4495617Y-13192857D02*
X4467045Y-13164286D01*
X4467045Y-13164286D02*
X4438474Y-13107143D01*
X14309999Y-7371331D02*
X14595713Y-7371331D01*
X14595713Y-7371331D02*
X14595713Y-6771331D01*
X13795714Y-7371331D02*
X14138571Y-7371331D01*
X13967142Y-7371331D02*
X13967142Y-6771331D01*
X13967142Y-6771331D02*
X14024285Y-6857045D01*
X14024285Y-6857045D02*
X14081428Y-6914188D01*
X14081428Y-6914188D02*
X14138571Y-6942760D01*
X13864188Y-13974285D02*
X13892760Y-13945713D01*
X13892760Y-13945713D02*
X13921331Y-13859999D01*
X13921331Y-13859999D02*
X13921331Y-13802856D01*
X13921331Y-13802856D02*
X13892760Y-13717142D01*
X13892760Y-13717142D02*
X13835617Y-13659999D01*
X13835617Y-13659999D02*
X13778474Y-13631428D01*
X13778474Y-13631428D02*
X13664188Y-13602856D01*
X13664188Y-13602856D02*
X13578474Y-13602856D01*
X13578474Y-13602856D02*
X13464188Y-13631428D01*
X13464188Y-13631428D02*
X13407045Y-13659999D01*
X13407045Y-13659999D02*
X13349902Y-13717142D01*
X13349902Y-13717142D02*
X13321331Y-13802856D01*
X13321331Y-13802856D02*
X13321331Y-13859999D01*
X13321331Y-13859999D02*
X13349902Y-13945713D01*
X13349902Y-13945713D02*
X13378474Y-13974285D01*
X13921331Y-14545713D02*
X13921331Y-14202856D01*
X13921331Y-14374285D02*
X13321331Y-14374285D01*
X13321331Y-14374285D02*
X13407045Y-14317142D01*
X13407045Y-14317142D02*
X13464188Y-14259999D01*
X13464188Y-14259999D02*
X13492760Y-14202856D01*
X13321331Y-14745714D02*
X13321331Y-15145714D01*
X13321331Y-15145714D02*
X13921331Y-14888571D01*
X16689999Y-12131331D02*
X16975713Y-12131331D01*
X16975713Y-12131331D02*
X16975713Y-11531331D01*
X16518571Y-11588474D02*
X16489999Y-11559902D01*
X16489999Y-11559902D02*
X16432857Y-11531331D01*
X16432857Y-11531331D02*
X16289999Y-11531331D01*
X16289999Y-11531331D02*
X16232857Y-11559902D01*
X16232857Y-11559902D02*
X16204285Y-11588474D01*
X16204285Y-11588474D02*
X16175714Y-11645617D01*
X16175714Y-11645617D02*
X16175714Y-11702760D01*
X16175714Y-11702760D02*
X16204285Y-11788474D01*
X16204285Y-11788474D02*
X16547142Y-12131331D01*
X16547142Y-12131331D02*
X16175714Y-12131331D01*
X-7581650Y-19123055D02*
X-7542621Y-19112597D01*
X-7542621Y-19112597D02*
X-7475020Y-19052652D01*
X-7475020Y-19052652D02*
X-7446449Y-19003165D01*
X-7446449Y-19003165D02*
X-7428335Y-18914649D01*
X-7428335Y-18914649D02*
X-7449251Y-18836590D01*
X-7449251Y-18836590D02*
X-7484453Y-18783275D01*
X-7484453Y-18783275D02*
X-7569141Y-18701388D01*
X-7569141Y-18701388D02*
X-7643372Y-18658531D01*
X-7643372Y-18658531D02*
X-7756632Y-18626132D01*
X-7756632Y-18626132D02*
X-7820405Y-18622304D01*
X-7820405Y-18622304D02*
X-7898463Y-18643220D01*
X-7898463Y-18643220D02*
X-7966064Y-18703165D01*
X-7966064Y-18703165D02*
X-7994636Y-18752652D01*
X-7994636Y-18752652D02*
X-8012749Y-18841169D01*
X-8012749Y-18841169D02*
X-8002291Y-18880198D01*
X-8151778Y-19024832D02*
X-8337493Y-19346498D01*
X-8337493Y-19346498D02*
X-8039544Y-19287579D01*
X-8039544Y-19287579D02*
X-8082401Y-19361810D01*
X-8082401Y-19361810D02*
X-8086229Y-19425582D01*
X-8086229Y-19425582D02*
X-8075771Y-19464612D01*
X-8075771Y-19464612D02*
X-8040570Y-19517927D01*
X-8040570Y-19517927D02*
X-7916852Y-19589355D01*
X-7916852Y-19589355D02*
X-7853079Y-19593183D01*
X-7853079Y-19593183D02*
X-7814050Y-19582725D01*
X-7814050Y-19582725D02*
X-7760735Y-19547524D01*
X-7760735Y-19547524D02*
X-7675020Y-19399062D01*
X-7675020Y-19399062D02*
X-7671193Y-19335289D01*
X-7671193Y-19335289D02*
X-7681650Y-19296260D01*
X-8421431Y-19891883D02*
X-8075021Y-20091883D01*
X-8547951Y-19653879D02*
X-8105369Y-19744447D01*
X-8105369Y-19744447D02*
X-8291083Y-20066114D01*
X19745714Y-8924188D02*
X19774286Y-8952760D01*
X19774286Y-8952760D02*
X19860000Y-8981331D01*
X19860000Y-8981331D02*
X19917143Y-8981331D01*
X19917143Y-8981331D02*
X20002857Y-8952760D01*
X20002857Y-8952760D02*
X20060000Y-8895617D01*
X20060000Y-8895617D02*
X20088571Y-8838474D01*
X20088571Y-8838474D02*
X20117143Y-8724188D01*
X20117143Y-8724188D02*
X20117143Y-8638474D01*
X20117143Y-8638474D02*
X20088571Y-8524188D01*
X20088571Y-8524188D02*
X20060000Y-8467045D01*
X20060000Y-8467045D02*
X20002857Y-8409902D01*
X20002857Y-8409902D02*
X19917143Y-8381331D01*
X19917143Y-8381331D02*
X19860000Y-8381331D01*
X19860000Y-8381331D02*
X19774286Y-8409902D01*
X19774286Y-8409902D02*
X19745714Y-8438474D01*
X19517143Y-8438474D02*
X19488571Y-8409902D01*
X19488571Y-8409902D02*
X19431429Y-8381331D01*
X19431429Y-8381331D02*
X19288571Y-8381331D01*
X19288571Y-8381331D02*
X19231429Y-8409902D01*
X19231429Y-8409902D02*
X19202857Y-8438474D01*
X19202857Y-8438474D02*
X19174286Y-8495617D01*
X19174286Y-8495617D02*
X19174286Y-8552760D01*
X19174286Y-8552760D02*
X19202857Y-8638474D01*
X19202857Y-8638474D02*
X19545714Y-8981331D01*
X19545714Y-8981331D02*
X19174286Y-8981331D01*
X18802857Y-8381331D02*
X18745714Y-8381331D01*
X18745714Y-8381331D02*
X18688571Y-8409902D01*
X18688571Y-8409902D02*
X18660000Y-8438474D01*
X18660000Y-8438474D02*
X18631428Y-8495617D01*
X18631428Y-8495617D02*
X18602857Y-8609902D01*
X18602857Y-8609902D02*
X18602857Y-8752760D01*
X18602857Y-8752760D02*
X18631428Y-8867045D01*
X18631428Y-8867045D02*
X18660000Y-8924188D01*
X18660000Y-8924188D02*
X18688571Y-8952760D01*
X18688571Y-8952760D02*
X18745714Y-8981331D01*
X18745714Y-8981331D02*
X18802857Y-8981331D01*
X18802857Y-8981331D02*
X18860000Y-8952760D01*
X18860000Y-8952760D02*
X18888571Y-8924188D01*
X18888571Y-8924188D02*
X18917142Y-8867045D01*
X18917142Y-8867045D02*
X18945714Y-8752760D01*
X18945714Y-8752760D02*
X18945714Y-8609902D01*
X18945714Y-8609902D02*
X18917142Y-8495617D01*
X18917142Y-8495617D02*
X18888571Y-8438474D01*
X18888571Y-8438474D02*
X18860000Y-8409902D01*
X18860000Y-8409902D02*
X18802857Y-8381331D01*
%TO.C,NC5*%
X15672936Y-3490000D02*
X17127064Y-3490000D01*
X15672936Y-5310000D02*
X17127064Y-5310000D01*
D13*
%TO.C,G\u002A\u002A\u002A*%
G36*
X10820960Y-1240918D02*
G01*
X10836005Y-1257059D01*
X10850000Y-1290121D01*
X10838294Y-1321236D01*
X10801408Y-1349877D01*
X10755960Y-1356498D01*
X10729682Y-1338878D01*
X10720000Y-1290121D01*
X10720365Y-1280632D01*
X10737911Y-1235361D01*
X10774712Y-1220530D01*
X10820960Y-1240918D01*
G37*
G36*
X9033552Y1215341D02*
G01*
X9068398Y1184879D01*
X9084521Y1156597D01*
X9087519Y1138438D01*
X9077860Y1111515D01*
X9053539Y1086817D01*
X9010148Y1079044D01*
X8966380Y1090778D01*
X8939695Y1120839D01*
X8936492Y1154918D01*
X8955554Y1194367D01*
X8991922Y1216506D01*
X9033552Y1215341D01*
G37*
G36*
X9063476Y-1071492D02*
G01*
X9075385Y-1089457D01*
X9088395Y-1135924D01*
X9066000Y-1176121D01*
X9056103Y-1184633D01*
X9010730Y-1199306D01*
X8967972Y-1185662D01*
X8940096Y-1150871D01*
X8939370Y-1102103D01*
X8946669Y-1085544D01*
X8981765Y-1053266D01*
X9025742Y-1047338D01*
X9063476Y-1071492D01*
G37*
G36*
X10783894Y1392121D02*
G01*
X10817678Y1369344D01*
X10840992Y1344771D01*
X10848215Y1323697D01*
X10837860Y1291515D01*
X10825157Y1274816D01*
X10786555Y1261131D01*
X10743763Y1267116D01*
X10716189Y1292598D01*
X10712826Y1318740D01*
X10729109Y1365100D01*
X10764107Y1394582D01*
X10783894Y1392121D01*
G37*
G36*
X9698409Y789599D02*
G01*
X9760909Y750789D01*
X9767513Y743910D01*
X9804084Y680708D01*
X9800989Y613363D01*
X9758222Y541414D01*
X9745175Y526697D01*
X9696281Y490055D01*
X9637267Y479879D01*
X9599751Y484963D01*
X9535108Y518225D01*
X9488137Y573423D01*
X9470000Y639879D01*
X9474392Y675984D01*
X9506439Y737068D01*
X9561144Y778915D01*
X9628478Y797700D01*
X9698409Y789599D01*
G37*
G36*
X9655801Y-447759D02*
G01*
X9713369Y-470908D01*
X9765000Y-511214D01*
X9765797Y-512128D01*
X9797043Y-561941D01*
X9810000Y-610121D01*
X9806393Y-636001D01*
X9775103Y-695184D01*
X9721079Y-744707D01*
X9655801Y-772482D01*
X9616208Y-776255D01*
X9576442Y-763110D01*
X9530801Y-723999D01*
X9486626Y-665607D01*
X9470000Y-610121D01*
X9486285Y-555272D01*
X9530801Y-496242D01*
X9568648Y-462433D01*
X9608205Y-444811D01*
X9655801Y-447759D01*
G37*
G36*
X9066000Y1715879D02*
G01*
X9077478Y1701836D01*
X9088947Y1661094D01*
X9070000Y1629879D01*
X9066636Y1625396D01*
X9058139Y1589440D01*
X9052221Y1527164D01*
X9050000Y1448699D01*
X9049601Y1373110D01*
X9046878Y1320412D01*
X9039585Y1292600D01*
X9025482Y1281736D01*
X9002326Y1279879D01*
X8992429Y1280050D01*
X8974174Y1284267D01*
X8962352Y1299660D01*
X8954966Y1333428D01*
X8950023Y1392768D01*
X8945528Y1484879D01*
X8943743Y1540377D01*
X8944020Y1623436D01*
X8948121Y1684602D01*
X8955650Y1714879D01*
X8975313Y1731117D01*
X9021792Y1737961D01*
X9066000Y1715879D01*
G37*
G36*
X9020689Y-1261035D02*
G01*
X9037380Y-1269182D01*
X9046110Y-1292754D01*
X9049457Y-1339943D01*
X9050000Y-1418940D01*
X9050084Y-1433828D01*
X9053449Y-1509906D01*
X9060855Y-1565474D01*
X9071107Y-1590805D01*
X9086500Y-1615626D01*
X9077671Y-1653681D01*
X9045000Y-1687875D01*
X9037038Y-1692210D01*
X8991751Y-1695643D01*
X8955362Y-1669719D01*
X8941428Y-1622941D01*
X8941582Y-1618097D01*
X8942825Y-1572094D01*
X8944549Y-1501718D01*
X8946428Y-1420121D01*
X8948187Y-1354707D01*
X8951983Y-1301090D01*
X8960063Y-1272891D01*
X8975158Y-1261954D01*
X9000000Y-1260121D01*
X9020689Y-1261035D01*
G37*
G36*
X9426030Y-1218458D02*
G01*
X9426818Y-1279300D01*
X9428772Y-1414044D01*
X9431010Y-1516223D01*
X9434111Y-1591226D01*
X9438653Y-1644437D01*
X9445215Y-1681243D01*
X9454375Y-1707031D01*
X9466711Y-1727187D01*
X9482802Y-1747098D01*
X9517709Y-1811324D01*
X9521713Y-1879903D01*
X9496261Y-1940459D01*
X9445403Y-1983647D01*
X9373189Y-2000121D01*
X9361003Y-1999778D01*
X9286613Y-1979564D01*
X9235938Y-1934431D01*
X9212648Y-1873135D01*
X9220415Y-1804433D01*
X9262911Y-1737082D01*
X9315822Y-1681854D01*
X9317911Y-1215987D01*
X9320000Y-750121D01*
X9370000Y-750121D01*
X9420000Y-750121D01*
X9426030Y-1218458D01*
G37*
G36*
X10191375Y2097241D02*
G01*
X10253546Y2069895D01*
X10295294Y2020878D01*
X10312819Y1960154D01*
X10302321Y1897691D01*
X10260000Y1843453D01*
X10210000Y1804123D01*
X10210000Y1405255D01*
X10210000Y1006387D01*
X10300000Y922032D01*
X10318051Y904996D01*
X10364593Y857750D01*
X10384976Y826455D01*
X10382552Y803291D01*
X10360672Y780438D01*
X10341794Y766919D01*
X10322150Y764146D01*
X10297048Y778372D01*
X10259373Y813826D01*
X10202007Y874739D01*
X10104789Y979599D01*
X10108493Y1377911D01*
X10112197Y1776223D01*
X10057098Y1827314D01*
X10037670Y1847937D01*
X10003576Y1914647D01*
X10002453Y1982192D01*
X10030831Y2041577D01*
X10085242Y2083804D01*
X10162215Y2099879D01*
X10191375Y2097241D01*
G37*
G36*
X10358972Y-739268D02*
G01*
X10367972Y-747049D01*
X10385110Y-769568D01*
X10381673Y-794327D01*
X10354393Y-829253D01*
X10300000Y-882273D01*
X10210000Y-966628D01*
X10210000Y-1371074D01*
X10210000Y-1775520D01*
X10260000Y-1808281D01*
X10260488Y-1808603D01*
X10300641Y-1856535D01*
X10313390Y-1919847D01*
X10298891Y-1985053D01*
X10257302Y-2038669D01*
X10251017Y-2043469D01*
X10182026Y-2075942D01*
X10115079Y-2068719D01*
X10048461Y-2021659D01*
X10024596Y-1995254D01*
X9994570Y-1936392D01*
X10003023Y-1879001D01*
X10050000Y-1817044D01*
X10110000Y-1757044D01*
X10110000Y-1342899D01*
X10110000Y-928754D01*
X10218972Y-821135D01*
X10219897Y-820222D01*
X10276757Y-766170D01*
X10314074Y-737476D01*
X10339071Y-729916D01*
X10358972Y-739268D01*
G37*
G36*
X8039441Y214029D02*
G01*
X8109158Y187694D01*
X8167249Y147390D01*
X8199562Y101259D01*
X8210611Y79707D01*
X8233384Y66967D01*
X8277132Y61220D01*
X8351347Y59879D01*
X8351663Y59879D01*
X8424923Y58668D01*
X8466738Y53501D01*
X8485600Y42057D01*
X8490000Y22019D01*
X8484279Y-4523D01*
X8458189Y-25830D01*
X8405146Y-36931D01*
X8318825Y-40121D01*
X8299704Y-40250D01*
X8240624Y-44727D01*
X8205136Y-58850D01*
X8180180Y-87038D01*
X8147978Y-125767D01*
X8080726Y-167627D01*
X8006317Y-179703D01*
X7933395Y-164494D01*
X7870605Y-124496D01*
X7826592Y-62206D01*
X7810000Y19879D01*
X7819170Y81260D01*
X7857391Y152571D01*
X7918111Y201612D01*
X7993461Y219805D01*
X8039441Y214029D01*
G37*
G36*
X11128464Y-506884D02*
G01*
X11159464Y-532442D01*
X11182264Y-565941D01*
X11174522Y-601346D01*
X11127669Y-634225D01*
X11112756Y-643468D01*
X11067198Y-679963D01*
X11008004Y-733890D01*
X10944146Y-797280D01*
X10921136Y-821150D01*
X10867289Y-878753D01*
X10834441Y-920551D01*
X10817403Y-956251D01*
X10810985Y-995557D01*
X10810000Y-1048176D01*
X10809535Y-1088769D01*
X10805079Y-1134668D01*
X10793135Y-1155322D01*
X10770381Y-1160121D01*
X10753574Y-1157137D01*
X10724313Y-1125251D01*
X10712647Y-1060369D01*
X10719199Y-964864D01*
X10723016Y-941865D01*
X10733850Y-903189D01*
X10753568Y-865286D01*
X10787170Y-821047D01*
X10839659Y-763361D01*
X10916037Y-685121D01*
X10928601Y-672464D01*
X10996676Y-605075D01*
X11053924Y-550327D01*
X11094654Y-513562D01*
X11113176Y-500121D01*
X11128464Y-506884D01*
G37*
G36*
X7144713Y1059825D02*
G01*
X7275157Y1059275D01*
X7373101Y1057838D01*
X7443491Y1055159D01*
X7491270Y1050879D01*
X7521384Y1044644D01*
X7538778Y1036096D01*
X7548398Y1024879D01*
X7562555Y996937D01*
X7565270Y957910D01*
X7536900Y916454D01*
X7531985Y911437D01*
X7516270Y900665D01*
X7491962Y892647D01*
X7453826Y886984D01*
X7396630Y883276D01*
X7315137Y881122D01*
X7204115Y880124D01*
X7058328Y879879D01*
X6939550Y880094D01*
X6819013Y881171D01*
X6729520Y883456D01*
X6666044Y887281D01*
X6623556Y892977D01*
X6597027Y900875D01*
X6581428Y911308D01*
X6562932Y935740D01*
X6551500Y988611D01*
X6573999Y1035879D01*
X6580871Y1039990D01*
X6614833Y1047532D01*
X6677112Y1053149D01*
X6770624Y1056983D01*
X6898284Y1059179D01*
X7063006Y1059879D01*
X7144713Y1059825D01*
G37*
G36*
X10790319Y1180202D02*
G01*
X10805382Y1143352D01*
X10810233Y1072740D01*
X10810564Y1043277D01*
X10814375Y1004056D01*
X10826558Y969981D01*
X10852074Y932677D01*
X10895882Y883768D01*
X10962943Y814879D01*
X11014633Y763797D01*
X11072877Y710032D01*
X11117293Y673410D01*
X11141043Y659879D01*
X11151188Y658114D01*
X11176754Y634879D01*
X11182667Y619410D01*
X11185885Y590077D01*
X11166000Y563879D01*
X11151532Y551645D01*
X11115634Y542196D01*
X11072524Y562519D01*
X11015520Y614879D01*
X10992616Y638806D01*
X10898683Y737202D01*
X10828277Y812249D01*
X10778007Y868564D01*
X10744481Y910762D01*
X10724309Y943458D01*
X10714098Y971268D01*
X10710459Y998807D01*
X10710000Y1030690D01*
X10711570Y1072819D01*
X10724274Y1142222D01*
X10747916Y1181904D01*
X10780305Y1186995D01*
X10790319Y1180202D01*
G37*
G36*
X12248868Y2316382D02*
G01*
X12337422Y2315309D01*
X12397989Y2313461D01*
X12424567Y2310894D01*
X12425495Y2310435D01*
X12436875Y2284378D01*
X12445122Y2227707D01*
X12450298Y2149069D01*
X12452463Y2057110D01*
X12451678Y1960475D01*
X12448004Y1867810D01*
X12441502Y1787762D01*
X12432234Y1728975D01*
X12420259Y1700095D01*
X12393921Y1687392D01*
X12347498Y1687009D01*
X12306784Y1704445D01*
X12288419Y1735261D01*
X12287960Y1748461D01*
X12286671Y1799058D01*
X12285077Y1873172D01*
X12283419Y1959879D01*
X12280000Y2149879D01*
X11901502Y2155334D01*
X11850349Y2156190D01*
X11706545Y2160275D01*
X11598541Y2166274D01*
X11527727Y2174088D01*
X11495490Y2183622D01*
X11479179Y2210598D01*
X11473988Y2258168D01*
X11480000Y2309879D01*
X11939567Y2315267D01*
X12011819Y2315990D01*
X12138333Y2316627D01*
X12248868Y2316382D01*
G37*
G36*
X9441587Y2018546D02*
G01*
X9495644Y1963547D01*
X9498778Y1958424D01*
X9525420Y1896876D01*
X9519755Y1843506D01*
X9480604Y1784245D01*
X9473616Y1775877D01*
X9459629Y1757006D01*
X9449070Y1735454D01*
X9441421Y1705891D01*
X9436160Y1662986D01*
X9432767Y1601407D01*
X9430722Y1515823D01*
X9429505Y1400901D01*
X9428596Y1251312D01*
X9427782Y1137623D01*
X9426052Y1009158D01*
X9423383Y913175D01*
X9419496Y845282D01*
X9414113Y801089D01*
X9406953Y776207D01*
X9397737Y766244D01*
X9377977Y764301D01*
X9339745Y780091D01*
X9332404Y789170D01*
X9324345Y811996D01*
X9318405Y851088D01*
X9314291Y911192D01*
X9311713Y997055D01*
X9310379Y1113420D01*
X9310000Y1265035D01*
X9310000Y1725293D01*
X9260000Y1771631D01*
X9243514Y1789168D01*
X9212446Y1855035D01*
X9217625Y1925440D01*
X9259090Y1990789D01*
X9305655Y2024435D01*
X9374999Y2039217D01*
X9441587Y2018546D01*
G37*
G36*
X10834258Y-439034D02*
G01*
X10846535Y-466901D01*
X10846541Y-473873D01*
X10826450Y-515017D01*
X10774824Y-580276D01*
X10691809Y-669458D01*
X10530000Y-835233D01*
X10530000Y-1111920D01*
X10530000Y-1388606D01*
X10614164Y-1474363D01*
X10654069Y-1511546D01*
X10700911Y-1546588D01*
X10732629Y-1560121D01*
X10739664Y-1560937D01*
X10780705Y-1578542D01*
X10828465Y-1611898D01*
X10861681Y-1647058D01*
X10890675Y-1715462D01*
X10882568Y-1786081D01*
X10837079Y-1851075D01*
X10785038Y-1886480D01*
X10713179Y-1897602D01*
X10631430Y-1870860D01*
X10597527Y-1847801D01*
X10556870Y-1788859D01*
X10549890Y-1718819D01*
X10578943Y-1647698D01*
X10592452Y-1622998D01*
X10590025Y-1599523D01*
X10567003Y-1568060D01*
X10518943Y-1519084D01*
X10430000Y-1431792D01*
X10430000Y-1115076D01*
X10430000Y-798361D01*
X10604490Y-614241D01*
X10638709Y-578490D01*
X10715638Y-502289D01*
X10771848Y-454879D01*
X10810375Y-434411D01*
X10834258Y-439034D01*
G37*
G36*
X10788533Y1917713D02*
G01*
X10856896Y1870126D01*
X10872030Y1850667D01*
X10888721Y1791059D01*
X10879386Y1724673D01*
X10848854Y1663012D01*
X10801950Y1617580D01*
X10743502Y1599879D01*
X10732525Y1598757D01*
X10679026Y1571855D01*
X10612547Y1510326D01*
X10530000Y1420773D01*
X10530000Y1144799D01*
X10530000Y868824D01*
X10690702Y700385D01*
X10749577Y636035D01*
X10800949Y574254D01*
X10834708Y526913D01*
X10845498Y500912D01*
X10835934Y481784D01*
X10802239Y464380D01*
X10762929Y467849D01*
X10736786Y493477D01*
X10727242Y509367D01*
X10692684Y551606D01*
X10640247Y608355D01*
X10576876Y671865D01*
X10430000Y813850D01*
X10430000Y1129089D01*
X10430000Y1444328D01*
X10509381Y1539140D01*
X10552372Y1592656D01*
X10573429Y1628965D01*
X10576299Y1659466D01*
X10565267Y1696198D01*
X10560535Y1710039D01*
X10554318Y1788458D01*
X10585529Y1854804D01*
X10652606Y1905334D01*
X10715699Y1925997D01*
X10788533Y1917713D01*
G37*
G36*
X10565970Y-140542D02*
G01*
X10597358Y-154145D01*
X10601445Y-159738D01*
X10605691Y-192550D01*
X10594251Y-208924D01*
X10558364Y-251187D01*
X10501748Y-314560D01*
X10428150Y-394911D01*
X10341318Y-488110D01*
X10245000Y-590029D01*
X9890000Y-963128D01*
X9890636Y-1206624D01*
X9890679Y-1218893D01*
X9892668Y-1330199D01*
X9897892Y-1408246D01*
X9906999Y-1459130D01*
X9920636Y-1488943D01*
X9934873Y-1511543D01*
X9948981Y-1572738D01*
X9933609Y-1628952D01*
X9896218Y-1673336D01*
X9844273Y-1699041D01*
X9785237Y-1699219D01*
X9726574Y-1667021D01*
X9702251Y-1630392D01*
X9693365Y-1575241D01*
X9703796Y-1519882D01*
X9730749Y-1477210D01*
X9771428Y-1460121D01*
X9772752Y-1459498D01*
X9779603Y-1434221D01*
X9785070Y-1376821D01*
X9788690Y-1293980D01*
X9790000Y-1192381D01*
X9790000Y-924642D01*
X10163171Y-532381D01*
X10165746Y-529675D01*
X10264933Y-426336D01*
X10355796Y-333341D01*
X10434526Y-254456D01*
X10497315Y-193447D01*
X10540355Y-154080D01*
X10559837Y-140121D01*
X10565970Y-140542D01*
G37*
G36*
X8203686Y1929561D02*
G01*
X8255207Y1905478D01*
X8274606Y1892940D01*
X8327960Y1836273D01*
X8346440Y1770883D01*
X8327627Y1703518D01*
X8322382Y1694336D01*
X8310386Y1666264D01*
X8313880Y1640866D01*
X8336851Y1607553D01*
X8383287Y1555736D01*
X8470000Y1461593D01*
X8470000Y1213836D01*
X8470072Y1169080D01*
X8471284Y1077297D01*
X8474818Y1015042D01*
X8481739Y974759D01*
X8493111Y948890D01*
X8510000Y929879D01*
X8515874Y924577D01*
X8542528Y898684D01*
X8547741Y880282D01*
X8537860Y851515D01*
X8511377Y823683D01*
X8468587Y827553D01*
X8416289Y863366D01*
X8398979Y881387D01*
X8385517Y903987D01*
X8377024Y936564D01*
X8372364Y986621D01*
X8370401Y1061665D01*
X8370000Y1169202D01*
X8370000Y1431551D01*
X8285000Y1513705D01*
X8246483Y1546977D01*
X8185669Y1587891D01*
X8135024Y1609453D01*
X8076325Y1633832D01*
X8027515Y1689100D01*
X8010000Y1765644D01*
X8017612Y1827064D01*
X8052613Y1883690D01*
X8120163Y1919934D01*
X8157927Y1930399D01*
X8203686Y1929561D01*
G37*
G36*
X8536754Y-805121D02*
G01*
X8545888Y-832670D01*
X8540566Y-858498D01*
X8510000Y-890121D01*
X8502784Y-897101D01*
X8488143Y-917855D01*
X8478609Y-948373D01*
X8473116Y-996211D01*
X8470601Y-1068927D01*
X8470000Y-1174077D01*
X8470000Y-1421834D01*
X8383422Y-1515977D01*
X8380354Y-1519316D01*
X8335196Y-1570584D01*
X8313499Y-1604225D01*
X8310922Y-1630612D01*
X8323127Y-1660121D01*
X8324342Y-1662450D01*
X8347044Y-1727817D01*
X8336818Y-1783478D01*
X8291538Y-1841659D01*
X8267150Y-1862536D01*
X8198962Y-1893508D01*
X8130009Y-1894383D01*
X8069434Y-1868232D01*
X8026382Y-1818124D01*
X8010000Y-1747130D01*
X8010020Y-1745022D01*
X8025828Y-1682219D01*
X8064166Y-1622427D01*
X8114861Y-1577707D01*
X8167739Y-1560121D01*
X8191964Y-1552405D01*
X8238309Y-1521531D01*
X8288777Y-1475121D01*
X8368999Y-1390121D01*
X8369499Y-1137818D01*
X8369650Y-1095903D01*
X8371089Y-1000907D01*
X8374890Y-935092D01*
X8382151Y-890468D01*
X8393972Y-859040D01*
X8411451Y-832818D01*
X8424896Y-817629D01*
X8469382Y-787000D01*
X8510387Y-782008D01*
X8536754Y-805121D01*
G37*
G36*
X9858398Y1370821D02*
G01*
X9920909Y1330789D01*
X9934829Y1315036D01*
X9965774Y1248967D01*
X9964344Y1179733D01*
X9930000Y1119879D01*
X9914184Y1102814D01*
X9898053Y1077179D01*
X9893829Y1048952D01*
X9903856Y1014466D01*
X9930479Y970057D01*
X9976042Y912059D01*
X10042889Y836807D01*
X10133366Y740636D01*
X10249816Y619879D01*
X10335169Y531153D01*
X10423782Y437356D01*
X10499229Y355669D01*
X10557784Y290191D01*
X10595724Y245019D01*
X10609325Y224252D01*
X10605269Y209708D01*
X10577653Y186212D01*
X10558266Y191272D01*
X10521931Y216791D01*
X10466704Y264616D01*
X10390582Y336572D01*
X10291566Y434484D01*
X10167653Y560178D01*
X10154905Y573227D01*
X10040884Y690706D01*
X9952274Y783876D01*
X9886206Y856096D01*
X9839813Y910728D01*
X9810227Y951133D01*
X9794578Y980671D01*
X9790000Y1002704D01*
X9789980Y1005271D01*
X9776650Y1053837D01*
X9732423Y1088626D01*
X9732403Y1088636D01*
X9688102Y1119171D01*
X9662423Y1150776D01*
X9653535Y1181071D01*
X9654465Y1253123D01*
X9683121Y1313490D01*
X9731799Y1356806D01*
X9792793Y1377705D01*
X9858398Y1370821D01*
G37*
G36*
X7137017Y-180316D02*
G01*
X7262380Y-181470D01*
X7370788Y-183521D01*
X7456478Y-186309D01*
X7513691Y-189673D01*
X7536666Y-193454D01*
X7538025Y-196229D01*
X7542723Y-229463D01*
X7546525Y-292899D01*
X7549071Y-378806D01*
X7550000Y-479454D01*
X7549967Y-506863D01*
X7548469Y-619950D01*
X7543538Y-699839D01*
X7533536Y-752165D01*
X7516822Y-782564D01*
X7491758Y-796671D01*
X7456703Y-800121D01*
X7428713Y-795853D01*
X7398174Y-771549D01*
X7379744Y-721712D01*
X7372036Y-641787D01*
X7373665Y-527215D01*
X7381848Y-340121D01*
X7265924Y-340121D01*
X7150000Y-340121D01*
X7150000Y-517672D01*
X7147587Y-614659D01*
X7138038Y-681764D01*
X7118315Y-720558D01*
X7085384Y-736880D01*
X7036209Y-736566D01*
X6980000Y-730121D01*
X6974275Y-535121D01*
X6968551Y-340121D01*
X6851089Y-340121D01*
X6733627Y-340121D01*
X6744388Y-526624D01*
X6744573Y-529859D01*
X6747901Y-641193D01*
X6741925Y-718621D01*
X6724827Y-767409D01*
X6694791Y-792820D01*
X6650000Y-800121D01*
X6608427Y-793071D01*
X6572200Y-764231D01*
X6565168Y-735463D01*
X6559316Y-673633D01*
X6555854Y-590772D01*
X6554757Y-496998D01*
X6556001Y-402428D01*
X6559561Y-317180D01*
X6565412Y-251371D01*
X6573531Y-215121D01*
X6577633Y-208646D01*
X6590045Y-198945D01*
X6612976Y-191712D01*
X6651337Y-186592D01*
X6710044Y-183227D01*
X6794010Y-181264D01*
X6908147Y-180347D01*
X7057370Y-180121D01*
X7137017Y-180316D01*
G37*
G36*
X12438949Y1080752D02*
G01*
X12462160Y1050344D01*
X12463100Y1003623D01*
X12431562Y957715D01*
X12370764Y920196D01*
X12310000Y895027D01*
X12310000Y669084D01*
X12310000Y443142D01*
X12378967Y400518D01*
X12394677Y390048D01*
X12443305Y341985D01*
X12463439Y293782D01*
X12455883Y253224D01*
X12421444Y228098D01*
X12360927Y226191D01*
X12323539Y236788D01*
X12256580Y261536D01*
X12168649Y297193D01*
X12066178Y340841D01*
X11955603Y389559D01*
X11843356Y440429D01*
X11735872Y490531D01*
X11639585Y536946D01*
X11560928Y576756D01*
X11506335Y607040D01*
X11482240Y624879D01*
X11471019Y651379D01*
X11473737Y662107D01*
X11810537Y662107D01*
X11815976Y656713D01*
X11849057Y637576D01*
X11903534Y610424D01*
X11969373Y579983D01*
X12036540Y550979D01*
X12095000Y528138D01*
X12097560Y527259D01*
X12114810Y526332D01*
X12124608Y542738D01*
X12128991Y584024D01*
X12130000Y657740D01*
X12129986Y665092D01*
X12128390Y733279D01*
X12124663Y781556D01*
X12119543Y799879D01*
X12101068Y795107D01*
X12055542Y777884D01*
X11994962Y752488D01*
X11929749Y723565D01*
X11870326Y695763D01*
X11827114Y673727D01*
X11810537Y662107D01*
X11473737Y662107D01*
X11482039Y694879D01*
X11500543Y709571D01*
X11551072Y738639D01*
X11626484Y777561D01*
X11720264Y823334D01*
X11825900Y872956D01*
X11936878Y923425D01*
X12046685Y971739D01*
X12119543Y1002529D01*
X12148808Y1014896D01*
X12236734Y1049893D01*
X12303949Y1073728D01*
X12316115Y1077518D01*
X12376160Y1093142D01*
X12413122Y1094012D01*
X12438949Y1080752D01*
G37*
G36*
X6983913Y2300760D02*
G01*
X7027611Y2269762D01*
X7077110Y2212917D01*
X7109929Y2136229D01*
X7131432Y2029840D01*
X7143353Y1954892D01*
X7160566Y1885706D01*
X7183242Y1844639D01*
X7215566Y1824945D01*
X7261724Y1819879D01*
X7307613Y1823969D01*
X7337564Y1844432D01*
X7362349Y1892418D01*
X7370703Y1915474D01*
X7382518Y2006318D01*
X7364445Y2092574D01*
X7318610Y2161185D01*
X7317991Y2161770D01*
X7284075Y2207278D01*
X7270000Y2252662D01*
X7270372Y2259726D01*
X7291989Y2303970D01*
X7336815Y2330265D01*
X7390768Y2329635D01*
X7424482Y2309923D01*
X7472924Y2259060D01*
X7516673Y2191570D01*
X7546501Y2119879D01*
X7563338Y2043759D01*
X7564037Y1954089D01*
X7539323Y1857963D01*
X7527738Y1828316D01*
X7468961Y1730837D01*
X7392961Y1663175D01*
X7305747Y1626944D01*
X7213329Y1623758D01*
X7121716Y1655231D01*
X7036917Y1722979D01*
X7029830Y1731232D01*
X6988482Y1805265D01*
X6960489Y1902291D01*
X6950111Y2008305D01*
X6937492Y2082808D01*
X6903889Y2134516D01*
X6856729Y2158279D01*
X6803440Y2150400D01*
X6751451Y2107182D01*
X6743151Y2095853D01*
X6712822Y2018943D01*
X6719647Y1937569D01*
X6763246Y1859668D01*
X6791311Y1822687D01*
X6805482Y1784375D01*
X6797885Y1743134D01*
X6765939Y1698019D01*
X6716612Y1680178D01*
X6662155Y1691963D01*
X6614217Y1733956D01*
X6593924Y1766008D01*
X6552105Y1874003D01*
X6538521Y1991305D01*
X6553594Y2105809D01*
X6597749Y2205410D01*
X6625223Y2240294D01*
X6704229Y2301183D01*
X6797129Y2333233D01*
X6893749Y2333929D01*
X6983913Y2300760D01*
G37*
G36*
X7094726Y799585D02*
G01*
X7214259Y775843D01*
X7326047Y717462D01*
X7423053Y629223D01*
X7498234Y515905D01*
X7525590Y445021D01*
X7544559Y359619D01*
X7551562Y276547D01*
X7545681Y207427D01*
X7526000Y163879D01*
X7520345Y159961D01*
X7474801Y148818D01*
X7389781Y142117D01*
X7265504Y139879D01*
X7221022Y139947D01*
X7123994Y142199D01*
X7059189Y150974D01*
X7020908Y170699D01*
X7003454Y205805D01*
X7001129Y260722D01*
X7008234Y339879D01*
X7015802Y400076D01*
X7026820Y435050D01*
X7047610Y450287D01*
X7085012Y456148D01*
X7115895Y457529D01*
X7149546Y445706D01*
X7170829Y407699D01*
X7182239Y363373D01*
X7181443Y326431D01*
X7183328Y312006D01*
X7211403Y302622D01*
X7273172Y299879D01*
X7375089Y299879D01*
X7365125Y403571D01*
X7362847Y424792D01*
X7350112Y484875D01*
X7323378Y531728D01*
X7273355Y583571D01*
X7240192Y613391D01*
X7195410Y644065D01*
X7147810Y657138D01*
X7078860Y659879D01*
X7064781Y659722D01*
X6955589Y643828D01*
X6871603Y599988D01*
X6807373Y525504D01*
X6795572Y503561D01*
X6771414Y421225D01*
X6768901Y334380D01*
X6789277Y261229D01*
X6793859Y252247D01*
X6801508Y214652D01*
X6778494Y178216D01*
X6744482Y149830D01*
X6700734Y140673D01*
X6663135Y161448D01*
X6633976Y206337D01*
X6615548Y269520D01*
X6610143Y345180D01*
X6620053Y427497D01*
X6647569Y510654D01*
X6681375Y569845D01*
X6761267Y659796D01*
X6861437Y732870D01*
X6971233Y781939D01*
X7079999Y799879D01*
X7094726Y799585D01*
G37*
G36*
X11798940Y-1623936D02*
G01*
X11891701Y-1655789D01*
X11962436Y-1720497D01*
X12011511Y-1818471D01*
X12039292Y-1950121D01*
X12048515Y-2011342D01*
X12073693Y-2095503D01*
X12110574Y-2144343D01*
X12160461Y-2160121D01*
X12220336Y-2143773D01*
X12264082Y-2099203D01*
X12288670Y-2035132D01*
X12292352Y-1960286D01*
X12273378Y-1883392D01*
X12230000Y-1813176D01*
X12193869Y-1770201D01*
X12174358Y-1735866D01*
X12178212Y-1708645D01*
X12203099Y-1676695D01*
X12212221Y-1667280D01*
X12263493Y-1638464D01*
X12316188Y-1649258D01*
X12370529Y-1699772D01*
X12426736Y-1790121D01*
X12432662Y-1802141D01*
X12464439Y-1914382D01*
X12462848Y-2037300D01*
X12427858Y-2160665D01*
X12399122Y-2217833D01*
X12358062Y-2264912D01*
X12296484Y-2301822D01*
X12295654Y-2302223D01*
X12189273Y-2333930D01*
X12086024Y-2326180D01*
X11988673Y-2279176D01*
X11950237Y-2246181D01*
X11907934Y-2184752D01*
X11879133Y-2100410D01*
X11860214Y-1984858D01*
X11848579Y-1910529D01*
X11830656Y-1859882D01*
X11803555Y-1829858D01*
X11753603Y-1804795D01*
X11700936Y-1809286D01*
X11651451Y-1852818D01*
X11646817Y-1858953D01*
X11614560Y-1935281D01*
X11619021Y-2020382D01*
X11660000Y-2108218D01*
X11672693Y-2127864D01*
X11699373Y-2177281D01*
X11710000Y-2210548D01*
X11695952Y-2239612D01*
X11660000Y-2271960D01*
X11630239Y-2289531D01*
X11599356Y-2293168D01*
X11560416Y-2272232D01*
X11512599Y-2228761D01*
X11465974Y-2142917D01*
X11438576Y-2023617D01*
X11435223Y-1994728D01*
X11434732Y-1935442D01*
X11448387Y-1879697D01*
X11479771Y-1808798D01*
X11504760Y-1762693D01*
X11570232Y-1681452D01*
X11649133Y-1635021D01*
X11745993Y-1620195D01*
X11798940Y-1623936D01*
G37*
G36*
X7136270Y-1420257D02*
G01*
X7283924Y-1421610D01*
X7395809Y-1424529D01*
X7474841Y-1429159D01*
X7523933Y-1435641D01*
X7546000Y-1444121D01*
X7560332Y-1460949D01*
X7568113Y-1494218D01*
X7549296Y-1541435D01*
X7545681Y-1547588D01*
X7533175Y-1560406D01*
X7511232Y-1569344D01*
X7473740Y-1575095D01*
X7414587Y-1578347D01*
X7327660Y-1579792D01*
X7206847Y-1580121D01*
X7136454Y-1580134D01*
X7026442Y-1581195D01*
X6954006Y-1585735D01*
X6917539Y-1596275D01*
X6915431Y-1615337D01*
X6946073Y-1645441D01*
X7007857Y-1689110D01*
X7099174Y-1748865D01*
X7135337Y-1772408D01*
X7209466Y-1820812D01*
X7271216Y-1861322D01*
X7310000Y-1887000D01*
X7320857Y-1894280D01*
X7375246Y-1930682D01*
X7434494Y-1970265D01*
X7457247Y-1986133D01*
X7525967Y-2048229D01*
X7557474Y-2106345D01*
X7550717Y-2158779D01*
X7550196Y-2159747D01*
X7541500Y-2172686D01*
X7527938Y-2182518D01*
X7504489Y-2189671D01*
X7466136Y-2194568D01*
X7407859Y-2197636D01*
X7324639Y-2199300D01*
X7211458Y-2199986D01*
X7063296Y-2200121D01*
X7043598Y-2200117D01*
X6890992Y-2199635D01*
X6773371Y-2197856D01*
X6686236Y-2194086D01*
X6625085Y-2187633D01*
X6585417Y-2177803D01*
X6562732Y-2163903D01*
X6552528Y-2145240D01*
X6550306Y-2121120D01*
X6551256Y-2101450D01*
X6558853Y-2073716D01*
X6578744Y-2053838D01*
X6616470Y-2040176D01*
X6677573Y-2031094D01*
X6767593Y-2024955D01*
X6892071Y-2020121D01*
X7195701Y-2010121D01*
X6877850Y-1800121D01*
X6837921Y-1773677D01*
X6734943Y-1704454D01*
X6660046Y-1651735D01*
X6608843Y-1611921D01*
X6576950Y-1581412D01*
X6559982Y-1556609D01*
X6553554Y-1533911D01*
X6551377Y-1511842D01*
X6552040Y-1482218D01*
X6561791Y-1459772D01*
X6585047Y-1443509D01*
X6626224Y-1432435D01*
X6689736Y-1425555D01*
X6780000Y-1421872D01*
X6901433Y-1420393D01*
X7058448Y-1420121D01*
X7136270Y-1420257D01*
G37*
G36*
X12146666Y-183391D02*
G01*
X12248868Y-183618D01*
X12337422Y-184691D01*
X12397989Y-186539D01*
X12424567Y-189106D01*
X12429629Y-193030D01*
X12439138Y-218706D01*
X12445438Y-270992D01*
X12448925Y-354334D01*
X12450000Y-473178D01*
X12449946Y-509655D01*
X12448639Y-615336D01*
X12444846Y-691961D01*
X12437592Y-748041D01*
X12425901Y-792085D01*
X12408797Y-832604D01*
X12384277Y-873923D01*
X12317182Y-940366D01*
X12235223Y-979956D01*
X12147302Y-990857D01*
X12062319Y-971230D01*
X11989175Y-919237D01*
X11938183Y-864651D01*
X11881805Y-905719D01*
X11846255Y-925430D01*
X11763275Y-945006D01*
X11675350Y-940795D01*
X11600621Y-912367D01*
X11594813Y-908517D01*
X11547576Y-871558D01*
X11513859Y-829388D01*
X11491690Y-775083D01*
X11479100Y-701720D01*
X11474119Y-602374D01*
X11474369Y-551902D01*
X11633148Y-551902D01*
X11639140Y-649060D01*
X11659226Y-713454D01*
X11695245Y-749128D01*
X11749032Y-760121D01*
X11795790Y-752079D01*
X11838571Y-728692D01*
X11849197Y-714251D01*
X11861513Y-675836D01*
X11868068Y-612865D01*
X11870000Y-517694D01*
X11870000Y-340121D01*
X12030000Y-340121D01*
X12030000Y-519005D01*
X12030234Y-567665D01*
X12032910Y-639898D01*
X12040317Y-687953D01*
X12054603Y-722347D01*
X12077918Y-753598D01*
X12109015Y-785690D01*
X12140672Y-798739D01*
X12182493Y-789381D01*
X12226782Y-763306D01*
X12264280Y-719788D01*
X12268577Y-708726D01*
X12278617Y-658675D01*
X12285713Y-589193D01*
X12289466Y-512105D01*
X12289476Y-439236D01*
X12285342Y-382411D01*
X12276666Y-353454D01*
X12259645Y-347744D01*
X12211786Y-342246D01*
X12146666Y-340121D01*
X12030000Y-340121D01*
X11870000Y-340121D01*
X11870000Y-338124D01*
X11755000Y-344122D01*
X11640000Y-350121D01*
X11634119Y-507288D01*
X11633148Y-551902D01*
X11474369Y-551902D01*
X11474774Y-470121D01*
X11480000Y-190121D01*
X11870000Y-185549D01*
X11939567Y-184733D01*
X12011819Y-184010D01*
X12138333Y-183373D01*
X12146666Y-183391D01*
G37*
G36*
X8717425Y2099583D02*
G01*
X8788791Y2079881D01*
X8840256Y2035864D01*
X8867292Y1976724D01*
X8865372Y1911654D01*
X8829968Y1849846D01*
X8823129Y1842085D01*
X8810152Y1821512D01*
X8800805Y1792447D01*
X8794350Y1748587D01*
X8790050Y1683632D01*
X8787169Y1591280D01*
X8784968Y1465230D01*
X8780000Y1123227D01*
X9130000Y752023D01*
X9480000Y380820D01*
X9813076Y384395D01*
X9938726Y384993D01*
X10039685Y383374D01*
X10110013Y379118D01*
X10154535Y371919D01*
X10178076Y361476D01*
X10188967Y349777D01*
X10207597Y298835D01*
X10204150Y239685D01*
X10178571Y191308D01*
X10176963Y189762D01*
X10129046Y166451D01*
X10068400Y160823D01*
X10017994Y175186D01*
X9998903Y194436D01*
X9972290Y234879D01*
X9968315Y242208D01*
X9959103Y254586D01*
X9944315Y263904D01*
X9919033Y270596D01*
X9878340Y275097D01*
X9817318Y277841D01*
X9731048Y279263D01*
X9614614Y279798D01*
X9463098Y279879D01*
X8977603Y279879D01*
X8888801Y366727D01*
X8877115Y378134D01*
X8831614Y420199D01*
X8800579Y439329D01*
X8772522Y440043D01*
X8735956Y426859D01*
X8700796Y416288D01*
X8632019Y418794D01*
X8573866Y448052D01*
X8531843Y496315D01*
X8511460Y555836D01*
X8518223Y618868D01*
X8557641Y677664D01*
X8605943Y709327D01*
X8674269Y723944D01*
X8740558Y712522D01*
X8793747Y677425D01*
X8822772Y621016D01*
X8838889Y584025D01*
X8877503Y528359D01*
X8928658Y471201D01*
X9023206Y378075D01*
X9181603Y383977D01*
X9340000Y389879D01*
X9077576Y659879D01*
X8999886Y740135D01*
X8914840Y828708D01*
X8839560Y907851D01*
X8780115Y971179D01*
X8742576Y1012304D01*
X8670000Y1094728D01*
X8670000Y1438842D01*
X8670000Y1782956D01*
X8608173Y1844783D01*
X8575207Y1881416D01*
X8556137Y1921345D01*
X8558410Y1966933D01*
X8583179Y2035351D01*
X8633304Y2083791D01*
X8706810Y2099879D01*
X8717425Y2099583D01*
G37*
G36*
X8187373Y738023D02*
G01*
X8251641Y727219D01*
X8288804Y701732D01*
X8305959Y655928D01*
X8310202Y584176D01*
X8310405Y469879D01*
X8513386Y264879D01*
X8716368Y59879D01*
X9722670Y59879D01*
X10728972Y59879D01*
X10759824Y119541D01*
X10799419Y174033D01*
X10868657Y220693D01*
X10948404Y238581D01*
X11029087Y227696D01*
X11101132Y188037D01*
X11154968Y119601D01*
X11168866Y90880D01*
X11186501Y39178D01*
X11183996Y-7169D01*
X11162112Y-68149D01*
X11116577Y-140538D01*
X11047025Y-185542D01*
X10952453Y-200121D01*
X10929585Y-199718D01*
X10879561Y-191878D01*
X10837666Y-167967D01*
X10787704Y-120121D01*
X10711602Y-40121D01*
X9699078Y-40121D01*
X8686554Y-40121D01*
X8498424Y-235121D01*
X8310293Y-430121D01*
X8310146Y-543986D01*
X8309534Y-571882D01*
X8297360Y-644944D01*
X8264958Y-690356D01*
X8206275Y-713591D01*
X8115256Y-720121D01*
X8098921Y-720009D01*
X8035293Y-714380D01*
X7988221Y-695097D01*
X7938433Y-655073D01*
X7917638Y-635014D01*
X7883516Y-589827D01*
X7880867Y-555073D01*
X7898836Y-530932D01*
X7938282Y-519311D01*
X7980367Y-532960D01*
X8010000Y-570121D01*
X8011383Y-573680D01*
X8029618Y-603491D01*
X8061266Y-616966D01*
X8119504Y-620121D01*
X8210000Y-620121D01*
X8210000Y-496293D01*
X8210000Y-372466D01*
X8400000Y-190622D01*
X8413402Y-177728D01*
X8482470Y-108994D01*
X8538567Y-49410D01*
X8576231Y-4984D01*
X8590000Y18281D01*
X8589495Y20740D01*
X8570906Y48461D01*
X8529503Y96314D01*
X8470721Y158287D01*
X8400000Y228369D01*
X8210000Y411398D01*
X8210000Y525639D01*
X8210000Y639879D01*
X8114742Y639879D01*
X8112867Y639878D01*
X8052532Y636449D01*
X8019017Y623126D01*
X7999742Y594996D01*
X7995767Y586739D01*
X7961806Y550364D01*
X7922737Y548316D01*
X7888955Y581831D01*
X7886414Y586700D01*
X7877556Y616730D01*
X7890430Y644537D01*
X7930316Y683037D01*
X7948014Y697858D01*
X7990924Y724588D01*
X8040792Y736903D01*
X8114025Y739879D01*
X8187373Y738023D01*
G37*
G36*
X10158450Y-147266D02*
G01*
X10193328Y-179975D01*
X10210000Y-238133D01*
X10207316Y-276003D01*
X10195558Y-305066D01*
X10169578Y-325119D01*
X10124232Y-337547D01*
X10054376Y-343732D01*
X9954863Y-345060D01*
X9820549Y-342915D01*
X9497336Y-335710D01*
X9277861Y-562915D01*
X9252904Y-588768D01*
X9161946Y-683215D01*
X9070622Y-778342D01*
X8988332Y-864348D01*
X8924477Y-931428D01*
X8790567Y-1072735D01*
X8785283Y-1421428D01*
X8785168Y-1429067D01*
X8783502Y-1552996D01*
X8783235Y-1643381D01*
X8784999Y-1706350D01*
X8789426Y-1748028D01*
X8797147Y-1774541D01*
X8808795Y-1792014D01*
X8825000Y-1806572D01*
X8838801Y-1820171D01*
X8866141Y-1878825D01*
X8866695Y-1948719D01*
X8839425Y-2014872D01*
X8837441Y-2017545D01*
X8794470Y-2050935D01*
X8735897Y-2072210D01*
X8732300Y-2072876D01*
X8683133Y-2077154D01*
X8647264Y-2062750D01*
X8606472Y-2022693D01*
X8582108Y-1992733D01*
X8554279Y-1933131D01*
X8563530Y-1877275D01*
X8610000Y-1817044D01*
X8670000Y-1757044D01*
X8670000Y-1406947D01*
X8670000Y-1056850D01*
X8855000Y-856373D01*
X8932984Y-772958D01*
X9024660Y-676934D01*
X9112496Y-586767D01*
X9185000Y-514367D01*
X9227169Y-472497D01*
X9280207Y-417392D01*
X9316529Y-376493D01*
X9330000Y-356479D01*
X9328843Y-354488D01*
X9302183Y-347177D01*
X9247454Y-342053D01*
X9174248Y-340121D01*
X9018496Y-340121D01*
X8926708Y-435121D01*
X8882945Y-485113D01*
X8842593Y-541882D01*
X8822170Y-584757D01*
X8816642Y-600345D01*
X8778784Y-648122D01*
X8722117Y-685208D01*
X8662527Y-700121D01*
X8656054Y-699235D01*
X8617914Y-681559D01*
X8571534Y-648343D01*
X8548318Y-625876D01*
X8513075Y-561430D01*
X8516570Y-494179D01*
X8559090Y-429211D01*
X8592404Y-404526D01*
X8655377Y-382543D01*
X8718509Y-381819D01*
X8766125Y-404246D01*
X8772610Y-409160D01*
X8795482Y-408673D01*
X8831072Y-384955D01*
X8885812Y-334246D01*
X8981373Y-240121D01*
X9470944Y-240121D01*
X9556834Y-240108D01*
X9689692Y-239846D01*
X9789998Y-238916D01*
X9862610Y-236890D01*
X9912386Y-233343D01*
X9944181Y-227846D01*
X9962853Y-219975D01*
X9973259Y-209303D01*
X9980257Y-195403D01*
X9988299Y-180323D01*
X10034887Y-138795D01*
X10096061Y-126572D01*
X10158450Y-147266D01*
G37*
D14*
%TO.C,D1*%
X8150000Y-20670000D02*
G75*
G02*
X8050000Y-20670000I-50000J0D01*
G01*
X8050000Y-20670000D02*
G75*
G02*
X8150000Y-20670000I50000J0D01*
G01*
D15*
%TO.C,J2*%
X-1610000Y15627950D02*
X-90000Y15627950D01*
X-1610000Y8177050D02*
X-1610000Y15632950D01*
X1210000Y8172050D02*
X-1610000Y8172050D01*
X2310000Y15627950D02*
X5660000Y15627950D01*
X5360000Y8172050D02*
X2510000Y8172050D01*
X7960000Y15627950D02*
X9180000Y15627950D01*
X9180000Y15627950D02*
X9180000Y8172050D01*
X9180000Y8172050D02*
X8260000Y8172050D01*
D16*
X8665080Y8840000D02*
G75*
G02*
X8425080Y8840000I-120000J0D01*
G01*
X8425080Y8840000D02*
G75*
G02*
X8665080Y8840000I120000J0D01*
G01*
D12*
%TO.C,C12*%
X17427836Y-2420000D02*
X17212164Y-2420000D01*
X17427836Y-3140000D02*
X17212164Y-3140000D01*
%TO.C,C19*%
X18910000Y-6406267D02*
X18910000Y-6113733D01*
X19930000Y-6406267D02*
X19930000Y-6113733D01*
%TO.C,JP2*%
X-1190000Y-19690000D02*
X810000Y-19690000D01*
X-1190000Y-22490000D02*
X-1190000Y-19690000D01*
X810000Y-19690000D02*
X810000Y-22490000D01*
X810000Y-22490000D02*
X-1190000Y-22490000D01*
%TO.C,R16*%
X6397500Y-20095276D02*
X6397500Y-20604724D01*
X7442500Y-20095276D02*
X7442500Y-20604724D01*
%TO.C,JP4*%
X-17884566Y-6471475D02*
X-15459695Y-5071475D01*
X-16884567Y-8203525D02*
X-17884566Y-6471475D01*
X-15459695Y-5071475D02*
X-14459696Y-6803525D01*
X-14459696Y-6803525D02*
X-16884567Y-8203525D01*
%TO.C,C16*%
X10320000Y-14233733D02*
X10320000Y-14526267D01*
X11340000Y-14233733D02*
X11340000Y-14526267D01*
%TO.C,R11*%
X8957500Y-18022776D02*
X8957500Y-18532224D01*
X10002500Y-18022776D02*
X10002500Y-18532224D01*
%TO.C,C6*%
X-10898329Y-5305194D02*
X-11151671Y-5451461D01*
X-10388329Y-6188539D02*
X-10641671Y-6334806D01*
%TO.C,C7*%
X-9168329Y-8325194D02*
X-9421671Y-8471461D01*
X-8658329Y-9208539D02*
X-8911671Y-9354806D01*
%TO.C,C14*%
X5500000Y-9890580D02*
X5500000Y-9609420D01*
X6520000Y-9890580D02*
X6520000Y-9609420D01*
%TO.C,C8*%
X-10014302Y-6522845D02*
X-10466804Y-6784097D01*
X-9279302Y-7795903D02*
X-9731804Y-8057155D01*
D13*
%TO.C,G\u002A\u002A\u002A*%
G36*
X455950Y-7343054D02*
G01*
X455950Y-7531449D01*
X-607924Y-7531449D01*
X-1671798Y-7531449D01*
X-1671798Y-7343054D01*
X-1671798Y-7154660D01*
X-607924Y-7154660D01*
X455950Y-7154660D01*
X455950Y-7343054D01*
G37*
G36*
X2201357Y-7489510D02*
G01*
X2244120Y-7496656D01*
X2255878Y-7503104D01*
X2273402Y-7530753D01*
X2265775Y-7537374D01*
X2219828Y-7546175D01*
X2135554Y-7551698D01*
X2016669Y-7553613D01*
X1977662Y-7553513D01*
X1874793Y-7551582D01*
X1809290Y-7546734D01*
X1775837Y-7538374D01*
X1769120Y-7525908D01*
X1772317Y-7522387D01*
X1807733Y-7511376D01*
X1872684Y-7501647D01*
X1955847Y-7493899D01*
X2045896Y-7488828D01*
X2131508Y-7487133D01*
X2201357Y-7489510D01*
G37*
G36*
X2273402Y-4308426D02*
G01*
X2273139Y-4346183D01*
X2269443Y-4421251D01*
X2260620Y-4459781D01*
X2245697Y-4467357D01*
X2234491Y-4455638D01*
X2219799Y-4404964D01*
X2211393Y-4321443D01*
X2204795Y-4184677D01*
X1984212Y-4184677D01*
X1933946Y-4184218D01*
X1843608Y-4180274D01*
X1784695Y-4172824D01*
X1763629Y-4162513D01*
X1773481Y-4155580D01*
X1821640Y-4147429D01*
X1905102Y-4142197D01*
X2018516Y-4140349D01*
X2273402Y-4140349D01*
X2273402Y-4308426D01*
G37*
G36*
X455950Y-2101257D02*
G01*
X455950Y-2876998D01*
X300802Y-2876998D01*
X145654Y-2876998D01*
X145654Y-2289651D01*
X145654Y-1702304D01*
X-175725Y-1702304D01*
X-497104Y-1702304D01*
X-497104Y-2134503D01*
X-497104Y-2566702D01*
X-652252Y-2566702D01*
X-807401Y-2566702D01*
X-807401Y-2134503D01*
X-807401Y-1702304D01*
X-1073001Y-1702304D01*
X-1338602Y-1702304D01*
X-1344511Y-2284110D01*
X-1350420Y-2865916D01*
X-1511109Y-2872428D01*
X-1671798Y-2878940D01*
X-1671798Y-2102228D01*
X-1671798Y-1325515D01*
X-607924Y-1325515D01*
X455950Y-1325515D01*
X455950Y-2101257D01*
G37*
G36*
X1790761Y-3499852D02*
G01*
X1803041Y-3530731D01*
X1807957Y-3586248D01*
X1807957Y-3674904D01*
X2042527Y-3674904D01*
X2053694Y-3674913D01*
X2159380Y-3676470D01*
X2226696Y-3681160D01*
X2261065Y-3689651D01*
X2267908Y-3702609D01*
X2263427Y-3708594D01*
X2226317Y-3721844D01*
X2150546Y-3731055D01*
X2033339Y-3736631D01*
X1807957Y-3742947D01*
X1807957Y-3819746D01*
X1807787Y-3829259D01*
X1800502Y-3877075D01*
X1785793Y-3896545D01*
X1782127Y-3894335D01*
X1772389Y-3860830D01*
X1765954Y-3792649D01*
X1763629Y-3697068D01*
X1763875Y-3664071D01*
X1767597Y-3576433D01*
X1775173Y-3518515D01*
X1785793Y-3497592D01*
X1790761Y-3499852D01*
G37*
G36*
X2098245Y-1570176D02*
G01*
X2191986Y-1574364D01*
X2252156Y-1581621D01*
X2273402Y-1591483D01*
X2265924Y-1599467D01*
X2225799Y-1609661D01*
X2162582Y-1613647D01*
X2051762Y-1613647D01*
X2051762Y-1746632D01*
X2049407Y-1806689D01*
X2041404Y-1859428D01*
X2029598Y-1879616D01*
X2019500Y-1865144D01*
X2010770Y-1816712D01*
X2007434Y-1745357D01*
X2007434Y-1611099D01*
X1913236Y-1617914D01*
X1819039Y-1624730D01*
X1812441Y-1763255D01*
X1809523Y-1807608D01*
X1799872Y-1873831D01*
X1787881Y-1898274D01*
X1776125Y-1882400D01*
X1767183Y-1827671D01*
X1763629Y-1735550D01*
X1763629Y-1569319D01*
X2018516Y-1569319D01*
X2098245Y-1570176D01*
G37*
G36*
X2210442Y-954081D02*
G01*
X2244120Y-958262D01*
X2273081Y-976308D01*
X2268516Y-995411D01*
X2229884Y-1009638D01*
X2162582Y-1015218D01*
X2051762Y-1015218D01*
X2051762Y-1148202D01*
X2049407Y-1208259D01*
X2041404Y-1260998D01*
X2029598Y-1281187D01*
X2019500Y-1266714D01*
X2010770Y-1218282D01*
X2007434Y-1146928D01*
X2007434Y-1012669D01*
X1913236Y-1019485D01*
X1819039Y-1026300D01*
X1812441Y-1164825D01*
X1806657Y-1230525D01*
X1796185Y-1283166D01*
X1783803Y-1303351D01*
X1783161Y-1303297D01*
X1772739Y-1280419D01*
X1767552Y-1220834D01*
X1768238Y-1131579D01*
X1774711Y-959808D01*
X1994774Y-953417D01*
X2054805Y-952116D01*
X2143621Y-951961D01*
X2210442Y-954081D01*
G37*
G36*
X2268758Y-510986D02*
G01*
X2264845Y-579701D01*
X2255166Y-653149D01*
X2242876Y-687550D01*
X2230084Y-681680D01*
X2218901Y-634316D01*
X2211438Y-544232D01*
X2204885Y-394625D01*
X2117241Y-394625D01*
X2029598Y-394625D01*
X2029598Y-527609D01*
X2027243Y-587666D01*
X2019239Y-640405D01*
X2007434Y-660593D01*
X1997424Y-646468D01*
X1988634Y-598444D01*
X1985270Y-527609D01*
X1985270Y-394625D01*
X1896613Y-394625D01*
X1807957Y-394625D01*
X1807957Y-538691D01*
X1805305Y-608480D01*
X1797375Y-662402D01*
X1785793Y-682757D01*
X1783810Y-682166D01*
X1773298Y-654960D01*
X1766221Y-593255D01*
X1763629Y-505445D01*
X1763629Y-328133D01*
X2019412Y-328133D01*
X2275195Y-328133D01*
X2268758Y-510986D01*
G37*
G36*
X2268758Y-4877304D02*
G01*
X2264845Y-4946019D01*
X2255166Y-5019467D01*
X2242876Y-5053868D01*
X2230084Y-5047998D01*
X2218901Y-5000633D01*
X2211438Y-4910550D01*
X2204885Y-4760942D01*
X2117241Y-4760942D01*
X2029598Y-4760942D01*
X2029598Y-4893927D01*
X2027243Y-4953984D01*
X2019239Y-5006723D01*
X2007434Y-5026911D01*
X1997424Y-5012785D01*
X1988634Y-4964762D01*
X1985270Y-4893927D01*
X1985270Y-4760942D01*
X1896613Y-4760942D01*
X1807957Y-4760942D01*
X1807957Y-4905009D01*
X1805305Y-4974798D01*
X1797375Y-5028720D01*
X1785793Y-5049075D01*
X1783810Y-5048484D01*
X1773298Y-5021278D01*
X1766221Y-4959572D01*
X1763629Y-4871763D01*
X1763629Y-4694450D01*
X2019412Y-4694450D01*
X2275195Y-4694450D01*
X2268758Y-4877304D01*
G37*
G36*
X2222596Y-5882544D02*
G01*
X2247295Y-5924555D01*
X2267848Y-5979980D01*
X2272881Y-6062159D01*
X2255382Y-6141496D01*
X2218763Y-6204741D01*
X2166434Y-6238647D01*
X2118297Y-6243441D01*
X2072310Y-6223322D01*
X2033397Y-6169943D01*
X1995802Y-6077880D01*
X1965521Y-6003294D01*
X1928325Y-5951349D01*
X1888575Y-5940603D01*
X1843893Y-5969359D01*
X1818159Y-6012005D01*
X1809449Y-6084244D01*
X1830181Y-6157390D01*
X1833765Y-6165352D01*
X1835431Y-6201497D01*
X1818580Y-6223393D01*
X1792801Y-6216002D01*
X1782169Y-6197600D01*
X1770582Y-6140870D01*
X1768452Y-6068774D01*
X1775792Y-5999220D01*
X1792614Y-5950111D01*
X1838217Y-5900849D01*
X1895281Y-5882678D01*
X1952498Y-5904218D01*
X2005170Y-5963481D01*
X2048595Y-6058475D01*
X2074936Y-6120432D01*
X2115104Y-6169127D01*
X2157953Y-6177783D01*
X2199904Y-6144369D01*
X2214105Y-6120639D01*
X2226670Y-6043147D01*
X2197201Y-5952635D01*
X2180123Y-5907401D01*
X2187730Y-5878383D01*
X2189307Y-5877410D01*
X2207293Y-5869950D01*
X2222596Y-5882544D01*
G37*
G36*
X1963611Y-5315498D02*
G01*
X2012136Y-5381259D01*
X2050560Y-5485879D01*
X2060088Y-5519344D01*
X2084916Y-5576033D01*
X2116501Y-5598062D01*
X2162010Y-5592276D01*
X2197442Y-5564180D01*
X2219175Y-5506346D01*
X2219820Y-5434271D01*
X2197220Y-5362064D01*
X2176236Y-5317908D01*
X2175164Y-5297240D01*
X2195973Y-5292880D01*
X2222328Y-5304169D01*
X2250547Y-5342749D01*
X2257570Y-5362982D01*
X2270790Y-5447106D01*
X2264949Y-5531428D01*
X2240834Y-5595482D01*
X2198944Y-5638683D01*
X2141733Y-5656285D01*
X2084403Y-5634297D01*
X2031716Y-5574896D01*
X1988436Y-5480256D01*
X1967377Y-5424892D01*
X1938136Y-5380159D01*
X1902369Y-5363399D01*
X1862224Y-5369535D01*
X1827180Y-5407556D01*
X1813200Y-5470279D01*
X1824393Y-5547977D01*
X1833832Y-5581997D01*
X1836108Y-5616158D01*
X1819336Y-5625340D01*
X1799823Y-5618786D01*
X1775190Y-5581040D01*
X1763174Y-5520999D01*
X1764287Y-5451674D01*
X1779044Y-5386074D01*
X1807957Y-5337208D01*
X1846143Y-5306618D01*
X1907456Y-5290113D01*
X1963611Y-5315498D01*
G37*
G36*
X2018105Y-2123459D02*
G01*
X2026768Y-2125114D01*
X2118071Y-2142558D01*
X2199706Y-2191984D01*
X2251680Y-2265007D01*
X2254693Y-2272787D01*
X2272879Y-2376158D01*
X2255015Y-2476318D01*
X2205057Y-2561954D01*
X2126960Y-2621754D01*
X2116723Y-2626525D01*
X2045132Y-2650995D01*
X1981547Y-2648612D01*
X1904528Y-2619123D01*
X1831747Y-2566742D01*
X1780795Y-2480251D01*
X1764452Y-2371584D01*
X1814432Y-2371584D01*
X1831389Y-2456207D01*
X1885425Y-2535364D01*
X1917253Y-2561311D01*
X1995313Y-2590053D01*
X2075516Y-2582075D01*
X2146700Y-2539860D01*
X2197704Y-2465891D01*
X2208220Y-2440332D01*
X2224113Y-2392034D01*
X2223620Y-2356003D01*
X2208121Y-2311815D01*
X2179830Y-2261798D01*
X2111776Y-2203497D01*
X2026768Y-2180526D01*
X1935305Y-2197291D01*
X1885821Y-2226179D01*
X1833071Y-2291555D01*
X1814432Y-2371584D01*
X1764452Y-2371584D01*
X1763629Y-2366109D01*
X1767562Y-2312214D01*
X1789413Y-2256916D01*
X1838987Y-2198778D01*
X1890209Y-2153645D01*
X1943240Y-2129375D01*
X2013310Y-2123421D01*
X2018105Y-2123459D01*
G37*
G36*
X1929859Y-2899162D02*
G01*
X2018516Y-2899162D01*
X2109244Y-2899682D01*
X2191415Y-2902346D01*
X2241564Y-2908088D01*
X2266593Y-2917809D01*
X2273402Y-2932408D01*
X2273262Y-2935436D01*
X2253203Y-2958445D01*
X2195828Y-2965654D01*
X2175729Y-2965798D01*
X2136068Y-2971825D01*
X2120775Y-2996302D01*
X2118254Y-3052161D01*
X2118254Y-3052416D01*
X2124178Y-3112022D01*
X2148553Y-3156876D01*
X2201369Y-3205398D01*
X2224559Y-3225161D01*
X2261482Y-3266365D01*
X2265890Y-3288421D01*
X2239641Y-3285977D01*
X2184597Y-3253681D01*
X2115403Y-3204410D01*
X2065531Y-3251263D01*
X2026209Y-3279022D01*
X1948743Y-3299454D01*
X1871530Y-3286127D01*
X1809566Y-3239716D01*
X1782368Y-3193464D01*
X1767747Y-3131340D01*
X1763629Y-3040240D01*
X1763629Y-2965654D01*
X1807957Y-2965654D01*
X1807957Y-3041786D01*
X1818410Y-3130105D01*
X1849303Y-3201320D01*
X1895029Y-3243350D01*
X1949925Y-3251164D01*
X2008327Y-3219733D01*
X2021168Y-3206134D01*
X2044761Y-3154262D01*
X2051762Y-3073040D01*
X2051762Y-2965654D01*
X1929859Y-2965654D01*
X1807957Y-2965654D01*
X1763629Y-2965654D01*
X1763629Y-2899162D01*
X1929859Y-2899162D01*
G37*
G36*
X2273402Y-6785967D02*
G01*
X2273328Y-6787460D01*
X2252815Y-6816764D01*
X2206910Y-6844363D01*
X2196840Y-6848601D01*
X2165090Y-6866128D01*
X2148243Y-6891671D01*
X2141589Y-6937329D01*
X2140418Y-7015208D01*
X2140453Y-7038664D01*
X2142498Y-7107077D01*
X2151121Y-7146099D01*
X2171024Y-7167639D01*
X2206910Y-7183608D01*
X2239909Y-7201512D01*
X2268866Y-7230269D01*
X2276858Y-7255102D01*
X2256779Y-7264486D01*
X2223319Y-7254959D01*
X2161936Y-7229520D01*
X2083341Y-7193079D01*
X1997134Y-7150511D01*
X1912919Y-7106690D01*
X1840296Y-7066491D01*
X1788869Y-7034790D01*
X1768238Y-7016460D01*
X1768235Y-7015985D01*
X1843483Y-7015985D01*
X1914226Y-7052568D01*
X1914989Y-7052962D01*
X1980956Y-7084814D01*
X2040529Y-7110274D01*
X2068586Y-7119703D01*
X2087701Y-7115790D01*
X2094951Y-7086007D01*
X2096090Y-7021127D01*
X2095371Y-6980040D01*
X2087369Y-6932117D01*
X2064242Y-6915413D01*
X2018356Y-6927118D01*
X1942081Y-6964422D01*
X1843483Y-7015985D01*
X1768235Y-7015985D01*
X1768216Y-7012499D01*
X1786434Y-6989552D01*
X1836373Y-6956760D01*
X1920517Y-6912801D01*
X2041354Y-6856353D01*
X2064242Y-6846303D01*
X2201369Y-6786094D01*
X2242183Y-6770010D01*
X2267463Y-6767799D01*
X2273402Y-6785967D01*
G37*
G36*
X442277Y-4476013D02*
G01*
X449266Y-4510172D01*
X454127Y-4574659D01*
X455950Y-4659267D01*
X455950Y-4845723D01*
X295261Y-4906375D01*
X295043Y-4906457D01*
X200493Y-4942251D01*
X107021Y-4977810D01*
X34833Y-5005447D01*
X-64905Y-5043868D01*
X-64905Y-5494495D01*
X-64905Y-5945122D01*
X195523Y-6043927D01*
X455950Y-6142732D01*
X455950Y-6338399D01*
X455823Y-6379534D01*
X454745Y-6458728D01*
X452804Y-6513567D01*
X450289Y-6534066D01*
X447870Y-6533223D01*
X414621Y-6520068D01*
X345438Y-6492191D01*
X244182Y-6451161D01*
X114716Y-6398550D01*
X-39101Y-6335926D01*
X-213407Y-6264860D01*
X-404342Y-6186922D01*
X-608044Y-6103682D01*
X-1660716Y-5673299D01*
X-1660716Y-5493193D01*
X-1190380Y-5493193D01*
X-1186492Y-5495703D01*
X-1149492Y-5513058D01*
X-1081542Y-5541797D01*
X-990688Y-5578579D01*
X-884975Y-5620063D01*
X-869066Y-5626218D01*
X-751845Y-5671677D01*
X-640014Y-5715217D01*
X-545563Y-5752161D01*
X-480481Y-5777833D01*
X-364120Y-5824170D01*
X-364120Y-5489661D01*
X-364131Y-5458671D01*
X-364678Y-5339150D01*
X-366590Y-5256433D01*
X-370617Y-5204326D01*
X-377512Y-5176634D01*
X-388025Y-5167161D01*
X-402907Y-5169714D01*
X-545267Y-5223454D01*
X-739427Y-5297921D01*
X-901530Y-5361652D01*
X-1029627Y-5413845D01*
X-1121767Y-5453701D01*
X-1176002Y-5480417D01*
X-1190380Y-5493193D01*
X-1660716Y-5493193D01*
X-1660716Y-5492594D01*
X-1660716Y-5311889D01*
X-619006Y-4892643D01*
X-565708Y-4871201D01*
X-388025Y-4799855D01*
X-365296Y-4790728D01*
X-178355Y-4715899D01*
X-8834Y-4648281D01*
X139320Y-4589437D01*
X262161Y-4540932D01*
X355741Y-4504332D01*
X416112Y-4481201D01*
X439327Y-4473104D01*
X442277Y-4476013D01*
G37*
G36*
X442388Y3921007D02*
G01*
X448948Y3886670D01*
X452137Y3821944D01*
X451303Y3736285D01*
X444868Y3540915D01*
X184441Y3443158D01*
X-75987Y3345401D01*
X-75987Y2898241D01*
X-75987Y2451080D01*
X184441Y2350333D01*
X444868Y2249586D01*
X451272Y2057847D01*
X452191Y2020018D01*
X451537Y1941193D01*
X447342Y1886474D01*
X440190Y1865941D01*
X437539Y1866610D01*
X403207Y1879213D01*
X332901Y1906579D01*
X230551Y1947134D01*
X100088Y1999301D01*
X-54559Y2061507D01*
X-229459Y2132175D01*
X-420682Y2209731D01*
X-624299Y2292599D01*
X-1671301Y2719424D01*
X-1671550Y2897625D01*
X-1671572Y2913186D01*
X-1193323Y2913186D01*
X-1187721Y2907702D01*
X-1149598Y2888028D01*
X-1082284Y2857279D01*
X-993030Y2818468D01*
X-889090Y2774605D01*
X-777715Y2728702D01*
X-666157Y2683772D01*
X-561668Y2642825D01*
X-471501Y2608874D01*
X-402907Y2584930D01*
X-399486Y2583916D01*
X-385562Y2584126D01*
X-375847Y2597532D01*
X-369594Y2630359D01*
X-366054Y2688835D01*
X-364478Y2779184D01*
X-364120Y2907633D01*
X-364422Y2971045D01*
X-366464Y3077317D01*
X-370114Y3161230D01*
X-374999Y3215462D01*
X-380743Y3232691D01*
X-380763Y3232678D01*
X-405968Y3221822D01*
X-465799Y3197872D01*
X-553475Y3163487D01*
X-662214Y3121326D01*
X-785237Y3074049D01*
X-908344Y3026697D01*
X-1017721Y2984171D01*
X-1106253Y2949273D01*
X-1167075Y2924710D01*
X-1193323Y2913186D01*
X-1671572Y2913186D01*
X-1671798Y3075826D01*
X-626416Y3496054D01*
X-571019Y3518323D01*
X-380743Y3594808D01*
X-370153Y3599065D01*
X-182714Y3674406D01*
X-12658Y3742756D01*
X136057Y3802524D01*
X259472Y3852120D01*
X353632Y3889953D01*
X414578Y3914433D01*
X438352Y3923969D01*
X442388Y3921007D01*
G37*
G36*
X-1026763Y1201187D02*
G01*
X-607924Y1201187D01*
X455950Y1201187D01*
X455950Y1012792D01*
X455950Y824398D01*
X10762Y824398D01*
X-434426Y824398D01*
X-426978Y464232D01*
X-424947Y378423D01*
X-417673Y224319D01*
X-402194Y107109D01*
X-373362Y21724D01*
X-326032Y-36906D01*
X-255057Y-73849D01*
X-155292Y-94173D01*
X-21590Y-102948D01*
X151195Y-105241D01*
X478114Y-106492D01*
X478114Y-294887D01*
X478114Y-483281D01*
X140112Y-483157D01*
X87958Y-482875D01*
X-34637Y-480192D01*
X-143730Y-475134D01*
X-229048Y-468263D01*
X-280316Y-460142D01*
X-381108Y-415459D01*
X-472783Y-330673D01*
X-537456Y-211656D01*
X-580180Y-97123D01*
X-595531Y-167016D01*
X-601673Y-188102D01*
X-632196Y-256057D01*
X-674252Y-324388D01*
X-685227Y-338928D01*
X-758893Y-409842D01*
X-851680Y-455357D01*
X-970720Y-477947D01*
X-1123147Y-480086D01*
X-1221491Y-473889D01*
X-1291926Y-462698D01*
X-1347127Y-442965D01*
X-1401750Y-411059D01*
X-1425461Y-393998D01*
X-1494810Y-331694D01*
X-1548733Y-266992D01*
X-1583488Y-208454D01*
X-1611609Y-145055D01*
X-1633258Y-71967D01*
X-1649218Y16577D01*
X-1660270Y126345D01*
X-1667196Y263103D01*
X-1670778Y432619D01*
X-1671798Y640660D01*
X-1671798Y824398D01*
X-1361502Y824398D01*
X-1361378Y497478D01*
X-1361299Y460830D01*
X-1358743Y308341D01*
X-1351550Y191879D01*
X-1338318Y104646D01*
X-1317640Y39844D01*
X-1288113Y-9324D01*
X-1248333Y-49657D01*
X-1237513Y-58498D01*
X-1189038Y-88505D01*
X-1131883Y-102831D01*
X-1048404Y-106492D01*
X-1007027Y-105464D01*
X-891079Y-86326D01*
X-806323Y-41171D01*
X-747544Y32408D01*
X-743884Y39588D01*
X-729326Y79342D01*
X-718503Y134438D01*
X-710628Y212121D01*
X-704910Y319637D01*
X-700563Y464232D01*
X-692025Y824398D01*
X-1026763Y824398D01*
X-1361502Y824398D01*
X-1671798Y824398D01*
X-1671798Y1201187D01*
X-1026763Y1201187D01*
G37*
G36*
X-1643191Y7445933D02*
G01*
X-1612625Y7436006D01*
X-1544461Y7414162D01*
X-1442883Y7381734D01*
X-1312074Y7340054D01*
X-1156219Y7290455D01*
X-979502Y7234269D01*
X-786107Y7172828D01*
X-580219Y7107466D01*
X455950Y6778631D01*
X455950Y6599365D01*
X455950Y6420098D01*
X-308149Y6166120D01*
X-310543Y6165324D01*
X-484283Y6107019D01*
X-643206Y6052639D01*
X-782758Y6003823D01*
X-898386Y5962209D01*
X-985536Y5929437D01*
X-1039654Y5907145D01*
X-1056185Y5896970D01*
X-1037143Y5888736D01*
X-980052Y5868009D01*
X-889965Y5836790D01*
X-771781Y5796739D01*
X-630398Y5749513D01*
X-470714Y5696772D01*
X-297627Y5640172D01*
X444868Y5398546D01*
X451262Y5219757D01*
X457656Y5040967D01*
X-593926Y4694724D01*
X-636237Y4680797D01*
X-840468Y4613677D01*
X-1031007Y4551229D01*
X-1203798Y4494771D01*
X-1354782Y4445623D01*
X-1479904Y4405101D01*
X-1575105Y4374525D01*
X-1636328Y4355212D01*
X-1659516Y4348482D01*
X-1662171Y4352313D01*
X-1666713Y4388468D01*
X-1668496Y4454582D01*
X-1667120Y4540595D01*
X-1660716Y4732708D01*
X-877712Y4959739D01*
X-871345Y4961586D01*
X-693354Y5013396D01*
X-529255Y5061525D01*
X-383831Y5104544D01*
X-261867Y5141021D01*
X-168148Y5169526D01*
X-107458Y5188628D01*
X-84582Y5196897D01*
X-84769Y5197467D01*
X-109301Y5208488D01*
X-170747Y5231373D01*
X-264603Y5264566D01*
X-386360Y5306514D01*
X-531512Y5355660D01*
X-695554Y5410450D01*
X-873979Y5469327D01*
X-1673500Y5731632D01*
X-1667109Y5897685D01*
X-1660716Y6063737D01*
X-907139Y6309729D01*
X-748099Y6361720D01*
X-582955Y6415877D01*
X-434482Y6464744D01*
X-307778Y6506635D01*
X-207937Y6539865D01*
X-140057Y6562748D01*
X-109233Y6573601D01*
X-108253Y6581718D01*
X-135338Y6596838D01*
X-193616Y6619444D01*
X-285416Y6650319D01*
X-413066Y6690243D01*
X-578897Y6739998D01*
X-785237Y6800366D01*
X-903625Y6834675D01*
X-1072151Y6883438D01*
X-1226512Y6928013D01*
X-1361025Y6966766D01*
X-1470012Y6998060D01*
X-1547792Y7020259D01*
X-1588683Y7031728D01*
X-1671798Y7054204D01*
X-1671798Y7255198D01*
X-1670904Y7334460D01*
X-1666570Y7404272D01*
X-1657903Y7439672D01*
X-1644093Y7446246D01*
X-1643191Y7445933D01*
G37*
G36*
X2051228Y5697885D02*
G01*
X2049680Y3944321D01*
X2475915Y3702866D01*
X2527117Y3673763D01*
X2650151Y3603015D01*
X2759429Y3539050D01*
X2848720Y3485581D01*
X2911788Y3446321D01*
X2942401Y3424984D01*
X2942608Y3424796D01*
X2975311Y3368482D01*
X2979882Y3297853D01*
X2954947Y3233847D01*
X2949729Y3229100D01*
X2914614Y3212684D01*
X2847409Y3191102D01*
X2745817Y3163759D01*
X2607541Y3130061D01*
X2430284Y3089412D01*
X2211750Y3041216D01*
X2096563Y3016206D01*
X1933200Y2980857D01*
X1787176Y2949405D01*
X1663683Y2922961D01*
X1567916Y2902635D01*
X1505069Y2889538D01*
X1480337Y2884781D01*
X1489625Y2880301D01*
X1535470Y2862153D01*
X1615744Y2831487D01*
X1726362Y2789831D01*
X1863242Y2738715D01*
X2022301Y2679668D01*
X2199456Y2614218D01*
X2390624Y2543894D01*
X2528295Y2493097D01*
X2714338Y2423602D01*
X2885407Y2358723D01*
X3037049Y2300203D01*
X3164812Y2249783D01*
X3264243Y2209205D01*
X3330890Y2180212D01*
X3360301Y2164544D01*
X3388607Y2127991D01*
X3401999Y2059756D01*
X3375776Y1991447D01*
X3372270Y1988136D01*
X3334811Y1966633D01*
X3262855Y1932280D01*
X3161827Y1887441D01*
X3037151Y1834482D01*
X2894254Y1775767D01*
X2738560Y1713661D01*
X2129336Y1474156D01*
X2123500Y728160D01*
X2117664Y-17836D01*
X1973893Y-17836D01*
X1830121Y-17836D01*
X1830121Y812059D01*
X1830125Y874013D01*
X1830259Y1076496D01*
X1830752Y1240165D01*
X1831829Y1369359D01*
X1833713Y1468419D01*
X1836628Y1541686D01*
X1840798Y1593500D01*
X1846445Y1628202D01*
X1853795Y1650131D01*
X1863070Y1663629D01*
X1874495Y1673034D01*
X1882542Y1677737D01*
X1929678Y1699876D01*
X2008996Y1733888D01*
X2113767Y1776987D01*
X2237266Y1826389D01*
X2372765Y1879309D01*
X2432145Y1902325D01*
X2558401Y1951954D01*
X2666955Y1995571D01*
X2751875Y2030737D01*
X2807228Y2055017D01*
X2827083Y2065971D01*
X2809848Y2074455D01*
X2754847Y2096763D01*
X2666045Y2131216D01*
X2547531Y2176272D01*
X2403391Y2230389D01*
X2237711Y2292024D01*
X2054581Y2359634D01*
X1858085Y2431678D01*
X1681875Y2496473D01*
X1493984Y2566501D01*
X1321896Y2631621D01*
X1169928Y2690151D01*
X1042398Y2740406D01*
X943625Y2780706D01*
X877926Y2809366D01*
X849621Y2824703D01*
X817728Y2873858D01*
X817884Y2938637D01*
X860444Y3003463D01*
X861430Y3004417D01*
X883004Y3019555D01*
X918918Y3035754D01*
X973331Y3054110D01*
X1050404Y3075722D01*
X1154294Y3101688D01*
X1289163Y3133104D01*
X1459170Y3171069D01*
X1668474Y3216680D01*
X1823952Y3250675D01*
X1986967Y3287207D01*
X2130743Y3320380D01*
X2250453Y3349035D01*
X2341271Y3372014D01*
X2398371Y3388158D01*
X2416923Y3396310D01*
X2409038Y3402813D01*
X2368606Y3429037D01*
X2300221Y3470509D01*
X2210735Y3523105D01*
X2107003Y3582705D01*
X2052305Y3614342D01*
X1950846Y3676003D01*
X1865265Y3731873D01*
X1803252Y3776826D01*
X1772495Y3805734D01*
X1767604Y3815289D01*
X1762073Y3834095D01*
X1757396Y3862844D01*
X1753546Y3904401D01*
X1750494Y3961632D01*
X1748213Y4037401D01*
X1746673Y4134574D01*
X1745848Y4256016D01*
X1745708Y4404592D01*
X1746225Y4583167D01*
X1747372Y4794607D01*
X1749120Y5041777D01*
X1751441Y5327541D01*
X1754307Y5654765D01*
X1770419Y7451448D01*
X1911597Y7451448D01*
X2052775Y7451448D01*
X2051228Y5697885D01*
G37*
D12*
%TO.C,R14*%
X11076773Y14603992D02*
X10686514Y14276525D01*
X11748486Y13803475D02*
X11358227Y13476008D01*
%TO.C,U2*%
X-20945000Y22820000D02*
X-2545000Y22820000D01*
X-20945000Y16620000D02*
X-20945000Y22820000D01*
X-20945000Y-2030000D02*
X-20945000Y-3030000D01*
X-19445000Y-3030000D02*
X-20945000Y-3030000D01*
X-4045000Y-3030000D02*
X-2545000Y-3030000D01*
X-2545000Y16620000D02*
X-2545000Y22820000D01*
X-2545000Y-3030000D02*
X-2545000Y-2030000D01*
X-2045000Y15945000D02*
X-2545000Y15945000D01*
X-2545000Y16445000D01*
X-2045000Y15945000D01*
G36*
X-2045000Y15945000D02*
G01*
X-2545000Y15945000D01*
X-2545000Y16445000D01*
X-2045000Y15945000D01*
G37*
%TO.C,U1*%
X-15715834Y-9537039D02*
X-15628334Y-9688593D01*
X-15657987Y-9157231D02*
X-15454472Y-9039731D01*
X-14255834Y-12065833D02*
X-14493334Y-11654471D01*
X-13844472Y-11828333D02*
X-14255834Y-12065833D01*
X-13488594Y-7904731D02*
X-13077232Y-7667231D01*
X-13077232Y-7667231D02*
X-12839732Y-8078593D01*
X-11878594Y-10693333D02*
X-11467232Y-10455833D01*
X-11467232Y-10455833D02*
X-11704732Y-10044471D01*
X-15865834Y-9277231D02*
X-16031621Y-9650077D01*
X-16271623Y-9234386D01*
X-15865834Y-9277231D01*
G36*
X-15865834Y-9277231D02*
G01*
X-16031621Y-9650077D01*
X-16271623Y-9234386D01*
X-15865834Y-9277231D01*
G37*
%TO.C,R9*%
X2277500Y-10535276D02*
X2277500Y-11044724D01*
X3322500Y-10535276D02*
X3322500Y-11044724D01*
%TO.C,NC1*%
X16340000Y2257064D02*
X16340000Y802936D01*
X18160000Y2257064D02*
X18160000Y802936D01*
%TO.C,C11*%
X17407836Y-1440000D02*
X17192164Y-1440000D01*
X17407836Y-2160000D02*
X17192164Y-2160000D01*
%TO.C,C15*%
X8690000Y-14243733D02*
X8690000Y-14536267D01*
X9710000Y-14243733D02*
X9710000Y-14536267D01*
%TO.C,C28*%
X12015989Y13536460D02*
X12181204Y13675092D01*
X12478796Y12984908D02*
X12644011Y13123540D01*
%TO.C,U5*%
X7950000Y-6150000D02*
X8375000Y-6150000D01*
X7950000Y-6575000D02*
X7950000Y-6150000D01*
X7950000Y-11130000D02*
X7950000Y-10945000D01*
X8250000Y-11370000D02*
X8375000Y-11370000D01*
X13170000Y-6150000D02*
X12745000Y-6150000D01*
X13170000Y-6575000D02*
X13170000Y-6150000D01*
X13170000Y-10945000D02*
X13170000Y-11370000D01*
X13170000Y-11370000D02*
X12745000Y-11370000D01*
X8190000Y-11700000D02*
X7710000Y-11700000D01*
X7950000Y-11370000D01*
X8190000Y-11700000D01*
G36*
X8190000Y-11700000D02*
G01*
X7710000Y-11700000D01*
X7950000Y-11370000D01*
X8190000Y-11700000D01*
G37*
%TO.C,R13*%
X-11539860Y-17339347D02*
X-11285137Y-16898153D01*
X-10634863Y-17861847D02*
X-10380140Y-17420653D01*
%TO.C,C18*%
X10473767Y-3620000D02*
X10181233Y-3620000D01*
X10473767Y-4640000D02*
X10181233Y-4640000D01*
%TO.C,C22*%
X18840000Y-10993733D02*
X18840000Y-11286267D01*
X19860000Y-10993733D02*
X19860000Y-11286267D01*
%TO.C,R8*%
X3967500Y-10115276D02*
X3967500Y-10624724D01*
X5012500Y-10115276D02*
X5012500Y-10624724D01*
%TO.C,L1*%
X17100242Y-6500000D02*
X16279758Y-6500000D01*
X17100242Y-7620000D02*
X16279758Y-7620000D01*
%TO.C,C17*%
X11790000Y-14231233D02*
X11790000Y-14523767D01*
X12810000Y-14231233D02*
X12810000Y-14523767D01*
%TO.C,L2*%
X17030242Y-9780000D02*
X16209758Y-9780000D01*
X17030242Y-10900000D02*
X16209758Y-10900000D01*
%TO.C,C34*%
X-9147851Y-18516611D02*
X-9255687Y-18703389D01*
X-8524313Y-18876611D02*
X-8632149Y-19063389D01*
%TO.C,C20*%
X16526267Y-8190000D02*
X16233733Y-8190000D01*
X16526267Y-9210000D02*
X16233733Y-9210000D01*
%TD*%
M02*
