%TF.GenerationSoftware,KiCad,Pcbnew,8.0.5*%
%TF.CreationDate,2025-01-06T18:17:11+01:00*%
%TF.ProjectId,test,74657374-2e6b-4696-9361-645f70636258,rev?*%
%TF.SameCoordinates,Original*%
%TF.FileFunction,Copper,L3,Inr*%
%TF.FilePolarity,Positive*%
%FSLAX46Y46*%
G04 Gerber Fmt 4.6, Leading zero omitted, Abs format (unit mm)*
G04 Created by KiCad (PCBNEW 8.0.5) date 2025-01-06 18:17:11*
%MOMM*%
%LPD*%
G01*
G04 APERTURE LIST*
%TA.AperFunction,HeatsinkPad*%
%ADD10C,0.600000*%
%TD*%
%TA.AperFunction,ComponentPad*%
%ADD11C,1.803400*%
%TD*%
%TA.AperFunction,ComponentPad*%
%ADD12C,1.498600*%
%TD*%
%TA.AperFunction,ComponentPad*%
%ADD13O,1.000000X2.100000*%
%TD*%
%TA.AperFunction,ComponentPad*%
%ADD14O,1.000000X1.600000*%
%TD*%
%TA.AperFunction,ViaPad*%
%ADD15C,0.350000*%
%TD*%
%TA.AperFunction,ViaPad*%
%ADD16C,0.800000*%
%TD*%
%TA.AperFunction,Conductor*%
%ADD17C,0.160000*%
%TD*%
G04 APERTURE END LIST*
D10*
%TO.N,GND*%
%TO.C,U2*%
X74077500Y-47647000D03*
X74077500Y-46247000D03*
X74777500Y-48347000D03*
X74777500Y-46947000D03*
X74777500Y-45547000D03*
X75477500Y-47647000D03*
X75477500Y-46247000D03*
X76177500Y-48347000D03*
X76177500Y-46947000D03*
X76177500Y-45547000D03*
X76877500Y-47647000D03*
X76877500Y-46247000D03*
%TD*%
D11*
%TO.N,*%
%TO.C,SW2*%
X100334583Y-42849049D03*
X95125137Y-38158443D03*
D12*
%TO.N,GND*%
X101068272Y-40158637D03*
%TO.N,SW_L2*%
X97724119Y-37147548D03*
%TD*%
D13*
%TO.N,*%
%TO.C,P1*%
X81087500Y-71717000D03*
D14*
X81087500Y-75897000D03*
D13*
X89727500Y-71717000D03*
D14*
%TO.N,Net-(P1-SHIELD)*%
X89727500Y-75897000D03*
%TD*%
D11*
%TO.N,*%
%TO.C,SW1*%
X92863932Y-37014357D03*
X86007116Y-35556897D03*
D12*
%TO.N,GND*%
X92154119Y-34317548D03*
%TO.N,SW_L3*%
X87752453Y-33381944D03*
%TD*%
D15*
%TO.N,LEDCNTRL*%
X75877500Y-52917000D03*
%TO.N,SW_L1*%
X69587500Y-58067000D03*
%TO.N,+3V3*%
X75367500Y-70557000D03*
X82257500Y-65887000D03*
%TO.N,PMIC_PWRON*%
X83097500Y-77227000D03*
%TO.N,Net-(JP2-A)*%
X76067500Y-74707000D03*
%TO.N,GND*%
X81467500Y-68547000D03*
%TO.N,SPK_N*%
X73367500Y-67407000D03*
%TO.N,WS_AMP*%
X71227500Y-66437000D03*
%TO.N,BCLK_AMP*%
X69507500Y-64567000D03*
%TO.N,GND*%
X78767500Y-72817000D03*
X77117500Y-72597000D03*
X75287500Y-54167000D03*
X73737500Y-54167000D03*
X71697500Y-53407000D03*
%TO.N,I2SDAT_MIC*%
X66667500Y-49387000D03*
%TO.N,GPIO0*%
X78707500Y-45337000D03*
X84427500Y-45097000D03*
%TO.N,GND*%
X97797500Y-42187000D03*
%TO.N,+3V3*%
X95317500Y-41787000D03*
X72753583Y-40379524D03*
%TO.N,GND*%
X71627500Y-39507000D03*
%TO.N,RXD*%
X88117500Y-41007000D03*
X77427500Y-41397000D03*
%TO.N,TXD*%
X88817500Y-40997000D03*
X76367500Y-40247000D03*
%TO.N,GND*%
X80497500Y-53177000D03*
X83737500Y-39237000D03*
X97177500Y-57397000D03*
X96117500Y-57397000D03*
D16*
X81257500Y-69897000D03*
D15*
X77857500Y-43957000D03*
X77987500Y-38807000D03*
X72517500Y-66727000D03*
X69137500Y-60127000D03*
X92017500Y-51107000D03*
X97707500Y-70777000D03*
D16*
X102677500Y-50847000D03*
D15*
X90597500Y-63607000D03*
X76837500Y-65537000D03*
X77887500Y-63477000D03*
X80517500Y-51137000D03*
D16*
X82167500Y-69547000D03*
D15*
X81457500Y-61687000D03*
D16*
X104807500Y-58837000D03*
D15*
X88697500Y-58607000D03*
X96667500Y-52387000D03*
X101807500Y-58437000D03*
X92037500Y-49867000D03*
X88147500Y-61807000D03*
D16*
X89577500Y-69867000D03*
D15*
X78007500Y-61657000D03*
X69847500Y-65387000D03*
D16*
X104967500Y-50077000D03*
D15*
X96667500Y-53297000D03*
D16*
X96687500Y-74237000D03*
D15*
X77267500Y-67327000D03*
X97287500Y-48877000D03*
X66307500Y-39227000D03*
X95677500Y-54487000D03*
X94787500Y-70717000D03*
X95947500Y-48577000D03*
X76147500Y-59747000D03*
X98217500Y-57397000D03*
X76667500Y-62287000D03*
D16*
X96747500Y-72137000D03*
X88677500Y-69527000D03*
D15*
X64127500Y-39227000D03*
X81697500Y-39237000D03*
X97067500Y-47197000D03*
X81007497Y-38816997D03*
X94867500Y-59577000D03*
D16*
X98807500Y-72137000D03*
D15*
X96247500Y-70757000D03*
X92337500Y-73217000D03*
%TO.N,EN*%
X81607500Y-41767000D03*
%TO.N,+3V3*%
X81427500Y-40547000D03*
%TO.N,VSYS*%
X75897500Y-64817000D03*
X100117500Y-62787000D03*
%TO.N,+2V8*%
X99807500Y-57437000D03*
D16*
%TO.N,VBUS*%
X92127500Y-68167000D03*
X93297500Y-68157000D03*
D15*
%TO.N,SPK_P*%
X77027500Y-69097000D03*
%TO.N,CAM_PWDN*%
X88807500Y-51837000D03*
X84807500Y-49637000D03*
X101607500Y-55437000D03*
%TO.N,CAM_RESET*%
X93007500Y-55837000D03*
X99007500Y-55637000D03*
%TO.N,PMIC_PWRON*%
X98937500Y-65847000D03*
%TO.N,CAM_SCL*%
X102007500Y-57437000D03*
%TO.N,BCLK_AMP*%
X72047500Y-62217000D03*
%TO.N,WS_AMP*%
X72967500Y-62397000D03*
%TO.N,CAM_Y3*%
X98407500Y-48237000D03*
X84207500Y-51837000D03*
%TO.N,BCLK_MIC*%
X70377500Y-59517000D03*
%TO.N,CAM_Y5*%
X99407500Y-49437000D03*
X91407500Y-52637000D03*
X84207500Y-54437000D03*
%TO.N,CAM_Y6*%
X99407500Y-50437000D03*
X91807500Y-53437000D03*
X84207500Y-55837000D03*
%TO.N,WS_MIC*%
X71487500Y-60127000D03*
%TO.N,CAM_Y4*%
X81607500Y-43037000D03*
X99607500Y-48237000D03*
%TO.N,CAM_Y8*%
X81407500Y-44437000D03*
X97807500Y-48637000D03*
X99607500Y-52437000D03*
%TO.N,CAM_VSYNC*%
X99807500Y-55837000D03*
X67607500Y-46837000D03*
%TO.N,CAM_Y9*%
X102007500Y-53437000D03*
X80407500Y-46437000D03*
%TO.N,CAM_HREF*%
X93607500Y-53637000D03*
X84807500Y-53437000D03*
X99207500Y-54837000D03*
%TO.N,CAM_Y7*%
X85207500Y-57037000D03*
X91007500Y-55437000D03*
X99607500Y-51437000D03*
%TO.N,+1V5*%
X97807500Y-58437000D03*
X99807500Y-54437000D03*
%TO.N,Net-(JP3-A)*%
X68267500Y-55937000D03*
%TD*%
D17*
%TO.N,CAM_PWDN*%
X97607500Y-51837000D02*
X92607500Y-51837000D01*
X103607500Y-53037000D02*
X103407500Y-52837000D01*
X103807500Y-54437000D02*
X103807500Y-53237000D01*
X99807500Y-53037000D02*
X99007500Y-53037000D01*
X102807500Y-55437000D02*
X103807500Y-54437000D01*
X100007500Y-52837000D02*
X99807500Y-53037000D01*
X103807500Y-53237000D02*
X103607500Y-53037000D01*
X101607500Y-55437000D02*
X102807500Y-55437000D01*
X98807500Y-53037000D02*
X97607500Y-51837000D01*
X99007500Y-53037000D02*
X98807500Y-53037000D01*
X92607500Y-51837000D02*
X88807500Y-51837000D01*
X103407500Y-52837000D02*
X100007500Y-52837000D01*
%TO.N,CAM_Y3*%
X91207500Y-48037000D02*
X91207500Y-48237000D01*
X98207500Y-48037000D02*
X91207500Y-48037000D01*
X98407500Y-48237000D02*
X98207500Y-48037000D01*
X87607500Y-51837000D02*
X84207500Y-51837000D01*
X91207500Y-48237000D02*
X87607500Y-51837000D01*
%TO.N,CAM_Y4*%
X90207500Y-42837000D02*
X83607500Y-42837000D01*
X99607500Y-48237000D02*
X99607500Y-44837000D01*
X83407500Y-43037000D02*
X81607500Y-43037000D01*
X83607500Y-42837000D02*
X83407500Y-43037000D01*
X91007500Y-43637000D02*
X90207500Y-42837000D01*
X98407500Y-43637000D02*
X91007500Y-43637000D01*
X99607500Y-44837000D02*
X98407500Y-43637000D01*
%TO.N,CAM_Y8*%
X97807500Y-50637000D02*
X99607500Y-52437000D01*
X97807500Y-48637000D02*
X97807500Y-50637000D01*
%TO.N,CAM_VSYNC*%
X78607500Y-55037000D02*
X78607500Y-51037000D01*
X77807500Y-50237000D02*
X73407500Y-50237000D01*
X78207500Y-50637000D02*
X77807500Y-50237000D01*
X101007500Y-57037000D02*
X101007500Y-57437000D01*
X96407500Y-59637000D02*
X95607500Y-58837000D01*
X91807500Y-58237000D02*
X90807500Y-59237000D01*
X99007500Y-59637000D02*
X96407500Y-59637000D01*
X84607500Y-59237000D02*
X83807500Y-59237000D01*
X79607500Y-55037000D02*
X78607500Y-55037000D01*
X101007500Y-57437000D02*
X101007500Y-57637000D01*
X101207500Y-55837000D02*
X101707500Y-56337000D01*
X73407500Y-50237000D02*
X70807500Y-47637000D01*
X70807500Y-47637000D02*
X70807500Y-47037000D01*
X95007500Y-58237000D02*
X91807500Y-58237000D01*
X99807500Y-55837000D02*
X101207500Y-55837000D01*
X82207500Y-57637000D02*
X79607500Y-55037000D01*
X90807500Y-59237000D02*
X84607500Y-59237000D01*
X101007500Y-57637000D02*
X99007500Y-59637000D01*
X83807500Y-59237000D02*
X82207500Y-57637000D01*
X67807500Y-47037000D02*
X67607500Y-46837000D01*
X70807500Y-47037000D02*
X67807500Y-47037000D01*
X95607500Y-58837000D02*
X95007500Y-58237000D01*
X78607500Y-51037000D02*
X78207500Y-50637000D01*
X101707500Y-56337000D02*
X101007500Y-57037000D01*
%TO.N,CAM_Y9*%
X87807500Y-58037000D02*
X88607500Y-57237000D01*
X84607500Y-58037000D02*
X87807500Y-58037000D01*
X79207500Y-54237000D02*
X82807500Y-54237000D01*
X82807500Y-54237000D02*
X82807500Y-56237000D01*
X79207500Y-47637000D02*
X79207500Y-54237000D01*
X98407500Y-53637000D02*
X98407500Y-53437000D01*
X88607500Y-57237000D02*
X94807500Y-57237000D01*
X82807500Y-56237000D02*
X84607500Y-58037000D01*
X98407500Y-53437000D02*
X102007500Y-53437000D01*
X80407500Y-46437000D02*
X79207500Y-47637000D01*
X94807500Y-57237000D02*
X98407500Y-53637000D01*
%TO.N,CAM_HREF*%
X84807500Y-53437000D02*
X90407500Y-53437000D01*
X90407500Y-53437000D02*
X91407500Y-54437000D01*
X92807500Y-54437000D02*
X93607500Y-53637000D01*
X91407500Y-54437000D02*
X92807500Y-54437000D01*
%TO.N,+1V5*%
X98207500Y-54837000D02*
X99007500Y-54037000D01*
X98807500Y-56837000D02*
X98207500Y-56237000D01*
X98207500Y-58037000D02*
X98807500Y-58037000D01*
X98807500Y-58037000D02*
X98807500Y-56837000D01*
X98207500Y-56237000D02*
X98207500Y-54837000D01*
X99007500Y-54037000D02*
X99407500Y-54037000D01*
X99407500Y-54037000D02*
X99807500Y-54437000D01*
X97807500Y-58437000D02*
X98207500Y-58037000D01*
%TD*%
M02*
