%TF.GenerationSoftware,KiCad,Pcbnew,8.0.5*%
%TF.CreationDate,2025-01-08T19:59:39+01:00*%
%TF.ProjectId,test,74657374-2e6b-4696-9361-645f70636258,rev?*%
%TF.SameCoordinates,PX517370cPY341b1c8*%
%TF.FileFunction,Legend,Top*%
%TF.FilePolarity,Positive*%
%FSLAX46Y46*%
G04 Gerber Fmt 4.6, Leading zero omitted, Abs format (unit mm)*
G04 Created by KiCad (PCBNEW 8.0.5) date 2025-01-08 19:59:39*
%MOMM*%
%LPD*%
G01*
G04 APERTURE LIST*
%ADD10C,0.125000*%
%ADD11C,0.150000*%
%ADD12C,0.120000*%
%ADD13C,0.152400*%
%ADD14C,0.100000*%
G04 APERTURE END LIST*
D10*
X-15428717Y-2261833D02*
X-15047764Y-2261833D01*
X-15238241Y-2452309D02*
X-15238241Y-2071357D01*
X-3216812Y-4752309D02*
X-3502526Y-4752309D01*
X-3359669Y-4752309D02*
X-3359669Y-4252309D01*
X-3359669Y-4252309D02*
X-3407288Y-4323738D01*
X-3407288Y-4323738D02*
X-3454907Y-4371357D01*
X-3454907Y-4371357D02*
X-3502526Y-4395166D01*
D11*
X14042628Y594286D02*
X14071200Y565714D01*
X14071200Y565714D02*
X14099771Y480000D01*
X14099771Y480000D02*
X14099771Y422857D01*
X14099771Y422857D02*
X14071200Y337143D01*
X14071200Y337143D02*
X14014057Y280000D01*
X14014057Y280000D02*
X13956914Y251429D01*
X13956914Y251429D02*
X13842628Y222857D01*
X13842628Y222857D02*
X13756914Y222857D01*
X13756914Y222857D02*
X13642628Y251429D01*
X13642628Y251429D02*
X13585485Y280000D01*
X13585485Y280000D02*
X13528342Y337143D01*
X13528342Y337143D02*
X13499771Y422857D01*
X13499771Y422857D02*
X13499771Y480000D01*
X13499771Y480000D02*
X13528342Y565714D01*
X13528342Y565714D02*
X13556914Y594286D01*
X13499771Y794286D02*
X13499771Y1165714D01*
X13499771Y1165714D02*
X13728342Y965714D01*
X13728342Y965714D02*
X13728342Y1051429D01*
X13728342Y1051429D02*
X13756914Y1108571D01*
X13756914Y1108571D02*
X13785485Y1137143D01*
X13785485Y1137143D02*
X13842628Y1165714D01*
X13842628Y1165714D02*
X13985485Y1165714D01*
X13985485Y1165714D02*
X14042628Y1137143D01*
X14042628Y1137143D02*
X14071200Y1108571D01*
X14071200Y1108571D02*
X14099771Y1051429D01*
X14099771Y1051429D02*
X14099771Y880000D01*
X14099771Y880000D02*
X14071200Y822857D01*
X14071200Y822857D02*
X14042628Y794286D01*
X14099771Y1737143D02*
X14099771Y1394286D01*
X14099771Y1565715D02*
X13499771Y1565715D01*
X13499771Y1565715D02*
X13585485Y1508572D01*
X13585485Y1508572D02*
X13642628Y1451429D01*
X13642628Y1451429D02*
X13671200Y1394286D01*
X11184285Y5857372D02*
X11155713Y5828800D01*
X11155713Y5828800D02*
X11069999Y5800229D01*
X11069999Y5800229D02*
X11012856Y5800229D01*
X11012856Y5800229D02*
X10927142Y5828800D01*
X10927142Y5828800D02*
X10869999Y5885943D01*
X10869999Y5885943D02*
X10841428Y5943086D01*
X10841428Y5943086D02*
X10812856Y6057372D01*
X10812856Y6057372D02*
X10812856Y6143086D01*
X10812856Y6143086D02*
X10841428Y6257372D01*
X10841428Y6257372D02*
X10869999Y6314515D01*
X10869999Y6314515D02*
X10927142Y6371658D01*
X10927142Y6371658D02*
X11012856Y6400229D01*
X11012856Y6400229D02*
X11069999Y6400229D01*
X11069999Y6400229D02*
X11155713Y6371658D01*
X11155713Y6371658D02*
X11184285Y6343086D01*
X11412856Y6343086D02*
X11441428Y6371658D01*
X11441428Y6371658D02*
X11498571Y6400229D01*
X11498571Y6400229D02*
X11641428Y6400229D01*
X11641428Y6400229D02*
X11698571Y6371658D01*
X11698571Y6371658D02*
X11727142Y6343086D01*
X11727142Y6343086D02*
X11755713Y6285943D01*
X11755713Y6285943D02*
X11755713Y6228800D01*
X11755713Y6228800D02*
X11727142Y6143086D01*
X11727142Y6143086D02*
X11384285Y5800229D01*
X11384285Y5800229D02*
X11755713Y5800229D01*
X12041428Y5800229D02*
X12155714Y5800229D01*
X12155714Y5800229D02*
X12212857Y5828800D01*
X12212857Y5828800D02*
X12241428Y5857372D01*
X12241428Y5857372D02*
X12298571Y5943086D01*
X12298571Y5943086D02*
X12327142Y6057372D01*
X12327142Y6057372D02*
X12327142Y6285943D01*
X12327142Y6285943D02*
X12298571Y6343086D01*
X12298571Y6343086D02*
X12270000Y6371658D01*
X12270000Y6371658D02*
X12212857Y6400229D01*
X12212857Y6400229D02*
X12098571Y6400229D01*
X12098571Y6400229D02*
X12041428Y6371658D01*
X12041428Y6371658D02*
X12012857Y6343086D01*
X12012857Y6343086D02*
X11984285Y6285943D01*
X11984285Y6285943D02*
X11984285Y6143086D01*
X11984285Y6143086D02*
X12012857Y6085943D01*
X12012857Y6085943D02*
X12041428Y6057372D01*
X12041428Y6057372D02*
X12098571Y6028800D01*
X12098571Y6028800D02*
X12212857Y6028800D01*
X12212857Y6028800D02*
X12270000Y6057372D01*
X12270000Y6057372D02*
X12298571Y6085943D01*
X12298571Y6085943D02*
X12327142Y6143086D01*
X-12987372Y13304286D02*
X-12958800Y13275714D01*
X-12958800Y13275714D02*
X-12930229Y13190000D01*
X-12930229Y13190000D02*
X-12930229Y13132857D01*
X-12930229Y13132857D02*
X-12958800Y13047143D01*
X-12958800Y13047143D02*
X-13015943Y12990000D01*
X-13015943Y12990000D02*
X-13073086Y12961429D01*
X-13073086Y12961429D02*
X-13187372Y12932857D01*
X-13187372Y12932857D02*
X-13273086Y12932857D01*
X-13273086Y12932857D02*
X-13387372Y12961429D01*
X-13387372Y12961429D02*
X-13444515Y12990000D01*
X-13444515Y12990000D02*
X-13501658Y13047143D01*
X-13501658Y13047143D02*
X-13530229Y13132857D01*
X-13530229Y13132857D02*
X-13530229Y13190000D01*
X-13530229Y13190000D02*
X-13501658Y13275714D01*
X-13501658Y13275714D02*
X-13473086Y13304286D01*
X-13473086Y13532857D02*
X-13501658Y13561429D01*
X-13501658Y13561429D02*
X-13530229Y13618571D01*
X-13530229Y13618571D02*
X-13530229Y13761429D01*
X-13530229Y13761429D02*
X-13501658Y13818571D01*
X-13501658Y13818571D02*
X-13473086Y13847143D01*
X-13473086Y13847143D02*
X-13415943Y13875714D01*
X-13415943Y13875714D02*
X-13358800Y13875714D01*
X-13358800Y13875714D02*
X-13273086Y13847143D01*
X-13273086Y13847143D02*
X-12930229Y13504286D01*
X-12930229Y13504286D02*
X-12930229Y13875714D01*
X-13530229Y14075715D02*
X-13530229Y14475715D01*
X-13530229Y14475715D02*
X-12930229Y14218572D01*
X12032628Y-2095714D02*
X12061200Y-2124286D01*
X12061200Y-2124286D02*
X12089771Y-2210000D01*
X12089771Y-2210000D02*
X12089771Y-2267143D01*
X12089771Y-2267143D02*
X12061200Y-2352857D01*
X12061200Y-2352857D02*
X12004057Y-2410000D01*
X12004057Y-2410000D02*
X11946914Y-2438571D01*
X11946914Y-2438571D02*
X11832628Y-2467143D01*
X11832628Y-2467143D02*
X11746914Y-2467143D01*
X11746914Y-2467143D02*
X11632628Y-2438571D01*
X11632628Y-2438571D02*
X11575485Y-2410000D01*
X11575485Y-2410000D02*
X11518342Y-2352857D01*
X11518342Y-2352857D02*
X11489771Y-2267143D01*
X11489771Y-2267143D02*
X11489771Y-2210000D01*
X11489771Y-2210000D02*
X11518342Y-2124286D01*
X11518342Y-2124286D02*
X11546914Y-2095714D01*
X12089771Y-1524286D02*
X12089771Y-1867143D01*
X12089771Y-1695714D02*
X11489771Y-1695714D01*
X11489771Y-1695714D02*
X11575485Y-1752857D01*
X11575485Y-1752857D02*
X11632628Y-1810000D01*
X11632628Y-1810000D02*
X11661200Y-1867143D01*
X11489771Y-1324285D02*
X11489771Y-952857D01*
X11489771Y-952857D02*
X11718342Y-1152857D01*
X11718342Y-1152857D02*
X11718342Y-1067142D01*
X11718342Y-1067142D02*
X11746914Y-1010000D01*
X11746914Y-1010000D02*
X11775485Y-981428D01*
X11775485Y-981428D02*
X11832628Y-952857D01*
X11832628Y-952857D02*
X11975485Y-952857D01*
X11975485Y-952857D02*
X12032628Y-981428D01*
X12032628Y-981428D02*
X12061200Y-1010000D01*
X12061200Y-1010000D02*
X12089771Y-1067142D01*
X12089771Y-1067142D02*
X12089771Y-1238571D01*
X12089771Y-1238571D02*
X12061200Y-1295714D01*
X12061200Y-1295714D02*
X12032628Y-1324285D01*
X13992628Y2394286D02*
X14021200Y2365714D01*
X14021200Y2365714D02*
X14049771Y2280000D01*
X14049771Y2280000D02*
X14049771Y2222857D01*
X14049771Y2222857D02*
X14021200Y2137143D01*
X14021200Y2137143D02*
X13964057Y2080000D01*
X13964057Y2080000D02*
X13906914Y2051429D01*
X13906914Y2051429D02*
X13792628Y2022857D01*
X13792628Y2022857D02*
X13706914Y2022857D01*
X13706914Y2022857D02*
X13592628Y2051429D01*
X13592628Y2051429D02*
X13535485Y2080000D01*
X13535485Y2080000D02*
X13478342Y2137143D01*
X13478342Y2137143D02*
X13449771Y2222857D01*
X13449771Y2222857D02*
X13449771Y2280000D01*
X13449771Y2280000D02*
X13478342Y2365714D01*
X13478342Y2365714D02*
X13506914Y2394286D01*
X14049771Y2965714D02*
X14049771Y2622857D01*
X14049771Y2794286D02*
X13449771Y2794286D01*
X13449771Y2794286D02*
X13535485Y2737143D01*
X13535485Y2737143D02*
X13592628Y2680000D01*
X13592628Y2680000D02*
X13621200Y2622857D01*
X13449771Y3337143D02*
X13449771Y3394286D01*
X13449771Y3394286D02*
X13478342Y3451429D01*
X13478342Y3451429D02*
X13506914Y3480000D01*
X13506914Y3480000D02*
X13564057Y3508572D01*
X13564057Y3508572D02*
X13678342Y3537143D01*
X13678342Y3537143D02*
X13821200Y3537143D01*
X13821200Y3537143D02*
X13935485Y3508572D01*
X13935485Y3508572D02*
X13992628Y3480000D01*
X13992628Y3480000D02*
X14021200Y3451429D01*
X14021200Y3451429D02*
X14049771Y3394286D01*
X14049771Y3394286D02*
X14049771Y3337143D01*
X14049771Y3337143D02*
X14021200Y3280000D01*
X14021200Y3280000D02*
X13992628Y3251429D01*
X13992628Y3251429D02*
X13935485Y3222858D01*
X13935485Y3222858D02*
X13821200Y3194286D01*
X13821200Y3194286D02*
X13678342Y3194286D01*
X13678342Y3194286D02*
X13564057Y3222858D01*
X13564057Y3222858D02*
X13506914Y3251429D01*
X13506914Y3251429D02*
X13478342Y3280000D01*
X13478342Y3280000D02*
X13449771Y3337143D01*
X-4850229Y9350001D02*
X-5135943Y9150001D01*
X-4850229Y9007144D02*
X-5450229Y9007144D01*
X-5450229Y9007144D02*
X-5450229Y9235715D01*
X-5450229Y9235715D02*
X-5421658Y9292858D01*
X-5421658Y9292858D02*
X-5393086Y9321429D01*
X-5393086Y9321429D02*
X-5335943Y9350001D01*
X-5335943Y9350001D02*
X-5250229Y9350001D01*
X-5250229Y9350001D02*
X-5193086Y9321429D01*
X-5193086Y9321429D02*
X-5164515Y9292858D01*
X-5164515Y9292858D02*
X-5135943Y9235715D01*
X-5135943Y9235715D02*
X-5135943Y9007144D01*
X-4850229Y9921429D02*
X-4850229Y9578572D01*
X-4850229Y9750001D02*
X-5450229Y9750001D01*
X-5450229Y9750001D02*
X-5364515Y9692858D01*
X-5364515Y9692858D02*
X-5307372Y9635715D01*
X-5307372Y9635715D02*
X-5278800Y9578572D01*
X-6487372Y9260001D02*
X-6458800Y9231429D01*
X-6458800Y9231429D02*
X-6430229Y9145715D01*
X-6430229Y9145715D02*
X-6430229Y9088572D01*
X-6430229Y9088572D02*
X-6458800Y9002858D01*
X-6458800Y9002858D02*
X-6515943Y8945715D01*
X-6515943Y8945715D02*
X-6573086Y8917144D01*
X-6573086Y8917144D02*
X-6687372Y8888572D01*
X-6687372Y8888572D02*
X-6773086Y8888572D01*
X-6773086Y8888572D02*
X-6887372Y8917144D01*
X-6887372Y8917144D02*
X-6944515Y8945715D01*
X-6944515Y8945715D02*
X-7001658Y9002858D01*
X-7001658Y9002858D02*
X-7030229Y9088572D01*
X-7030229Y9088572D02*
X-7030229Y9145715D01*
X-7030229Y9145715D02*
X-7001658Y9231429D01*
X-7001658Y9231429D02*
X-6973086Y9260001D01*
X-6430229Y9831429D02*
X-6430229Y9488572D01*
X-6430229Y9660001D02*
X-7030229Y9660001D01*
X-7030229Y9660001D02*
X-6944515Y9602858D01*
X-6944515Y9602858D02*
X-6887372Y9545715D01*
X-6887372Y9545715D02*
X-6858800Y9488572D01*
X-6477372Y17150001D02*
X-6448800Y17121429D01*
X-6448800Y17121429D02*
X-6420229Y17035715D01*
X-6420229Y17035715D02*
X-6420229Y16978572D01*
X-6420229Y16978572D02*
X-6448800Y16892858D01*
X-6448800Y16892858D02*
X-6505943Y16835715D01*
X-6505943Y16835715D02*
X-6563086Y16807144D01*
X-6563086Y16807144D02*
X-6677372Y16778572D01*
X-6677372Y16778572D02*
X-6763086Y16778572D01*
X-6763086Y16778572D02*
X-6877372Y16807144D01*
X-6877372Y16807144D02*
X-6934515Y16835715D01*
X-6934515Y16835715D02*
X-6991658Y16892858D01*
X-6991658Y16892858D02*
X-7020229Y16978572D01*
X-7020229Y16978572D02*
X-7020229Y17035715D01*
X-7020229Y17035715D02*
X-6991658Y17121429D01*
X-6991658Y17121429D02*
X-6963086Y17150001D01*
X-6963086Y17378572D02*
X-6991658Y17407144D01*
X-6991658Y17407144D02*
X-7020229Y17464286D01*
X-7020229Y17464286D02*
X-7020229Y17607144D01*
X-7020229Y17607144D02*
X-6991658Y17664286D01*
X-6991658Y17664286D02*
X-6963086Y17692858D01*
X-6963086Y17692858D02*
X-6905943Y17721429D01*
X-6905943Y17721429D02*
X-6848800Y17721429D01*
X-6848800Y17721429D02*
X-6763086Y17692858D01*
X-6763086Y17692858D02*
X-6420229Y17350001D01*
X-6420229Y17350001D02*
X-6420229Y17721429D01*
X364285Y-5152628D02*
X335713Y-5181200D01*
X335713Y-5181200D02*
X249999Y-5209771D01*
X249999Y-5209771D02*
X192856Y-5209771D01*
X192856Y-5209771D02*
X107142Y-5181200D01*
X107142Y-5181200D02*
X49999Y-5124057D01*
X49999Y-5124057D02*
X21428Y-5066914D01*
X21428Y-5066914D02*
X-7144Y-4952628D01*
X-7144Y-4952628D02*
X-7144Y-4866914D01*
X-7144Y-4866914D02*
X21428Y-4752628D01*
X21428Y-4752628D02*
X49999Y-4695485D01*
X49999Y-4695485D02*
X107142Y-4638342D01*
X107142Y-4638342D02*
X192856Y-4609771D01*
X192856Y-4609771D02*
X249999Y-4609771D01*
X249999Y-4609771D02*
X335713Y-4638342D01*
X335713Y-4638342D02*
X364285Y-4666914D01*
X564285Y-4609771D02*
X935713Y-4609771D01*
X935713Y-4609771D02*
X735713Y-4838342D01*
X735713Y-4838342D02*
X821428Y-4838342D01*
X821428Y-4838342D02*
X878571Y-4866914D01*
X878571Y-4866914D02*
X907142Y-4895485D01*
X907142Y-4895485D02*
X935713Y-4952628D01*
X935713Y-4952628D02*
X935713Y-5095485D01*
X935713Y-5095485D02*
X907142Y-5152628D01*
X907142Y-5152628D02*
X878571Y-5181200D01*
X878571Y-5181200D02*
X821428Y-5209771D01*
X821428Y-5209771D02*
X649999Y-5209771D01*
X649999Y-5209771D02*
X592856Y-5181200D01*
X592856Y-5181200D02*
X564285Y-5152628D01*
X1307142Y-4609771D02*
X1364285Y-4609771D01*
X1364285Y-4609771D02*
X1421428Y-4638342D01*
X1421428Y-4638342D02*
X1450000Y-4666914D01*
X1450000Y-4666914D02*
X1478571Y-4724057D01*
X1478571Y-4724057D02*
X1507142Y-4838342D01*
X1507142Y-4838342D02*
X1507142Y-4981200D01*
X1507142Y-4981200D02*
X1478571Y-5095485D01*
X1478571Y-5095485D02*
X1450000Y-5152628D01*
X1450000Y-5152628D02*
X1421428Y-5181200D01*
X1421428Y-5181200D02*
X1364285Y-5209771D01*
X1364285Y-5209771D02*
X1307142Y-5209771D01*
X1307142Y-5209771D02*
X1250000Y-5181200D01*
X1250000Y-5181200D02*
X1221428Y-5152628D01*
X1221428Y-5152628D02*
X1192857Y-5095485D01*
X1192857Y-5095485D02*
X1164285Y-4981200D01*
X1164285Y-4981200D02*
X1164285Y-4838342D01*
X1164285Y-4838342D02*
X1192857Y-4724057D01*
X1192857Y-4724057D02*
X1221428Y-4666914D01*
X1221428Y-4666914D02*
X1250000Y-4638342D01*
X1250000Y-4638342D02*
X1307142Y-4609771D01*
X-6520229Y-592856D02*
X-7120229Y-592856D01*
X-7120229Y-592856D02*
X-7120229Y-449999D01*
X-7120229Y-449999D02*
X-7091658Y-364285D01*
X-7091658Y-364285D02*
X-7034515Y-307142D01*
X-7034515Y-307142D02*
X-6977372Y-278571D01*
X-6977372Y-278571D02*
X-6863086Y-249999D01*
X-6863086Y-249999D02*
X-6777372Y-249999D01*
X-6777372Y-249999D02*
X-6663086Y-278571D01*
X-6663086Y-278571D02*
X-6605943Y-307142D01*
X-6605943Y-307142D02*
X-6548800Y-364285D01*
X-6548800Y-364285D02*
X-6520229Y-449999D01*
X-6520229Y-449999D02*
X-6520229Y-592856D01*
X-6920229Y264286D02*
X-6520229Y264286D01*
X-7148800Y121429D02*
X-6720229Y-21428D01*
X-6720229Y-21428D02*
X-6720229Y350001D01*
D10*
X-8235191Y-3437142D02*
X-8235191Y-3722856D01*
X-8235191Y-3579999D02*
X-8735191Y-3579999D01*
X-8735191Y-3579999D02*
X-8663762Y-3627618D01*
X-8663762Y-3627618D02*
X-8616143Y-3675237D01*
X-8616143Y-3675237D02*
X-8592334Y-3722856D01*
D11*
X-6490000Y-6789771D02*
X-6690000Y-6504057D01*
X-6832857Y-6789771D02*
X-6832857Y-6189771D01*
X-6832857Y-6189771D02*
X-6604286Y-6189771D01*
X-6604286Y-6189771D02*
X-6547143Y-6218342D01*
X-6547143Y-6218342D02*
X-6518572Y-6246914D01*
X-6518572Y-6246914D02*
X-6490000Y-6304057D01*
X-6490000Y-6304057D02*
X-6490000Y-6389771D01*
X-6490000Y-6389771D02*
X-6518572Y-6446914D01*
X-6518572Y-6446914D02*
X-6547143Y-6475485D01*
X-6547143Y-6475485D02*
X-6604286Y-6504057D01*
X-6604286Y-6504057D02*
X-6832857Y-6504057D01*
X-6261429Y-6246914D02*
X-6232857Y-6218342D01*
X-6232857Y-6218342D02*
X-6175714Y-6189771D01*
X-6175714Y-6189771D02*
X-6032857Y-6189771D01*
X-6032857Y-6189771D02*
X-5975714Y-6218342D01*
X-5975714Y-6218342D02*
X-5947143Y-6246914D01*
X-5947143Y-6246914D02*
X-5918572Y-6304057D01*
X-5918572Y-6304057D02*
X-5918572Y-6361200D01*
X-5918572Y-6361200D02*
X-5947143Y-6446914D01*
X-5947143Y-6446914D02*
X-6290000Y-6789771D01*
X-6290000Y-6789771D02*
X-5918572Y-6789771D01*
X4801200Y470000D02*
X4829771Y555714D01*
X4829771Y555714D02*
X4829771Y698572D01*
X4829771Y698572D02*
X4801200Y755714D01*
X4801200Y755714D02*
X4772628Y784286D01*
X4772628Y784286D02*
X4715485Y812857D01*
X4715485Y812857D02*
X4658342Y812857D01*
X4658342Y812857D02*
X4601200Y784286D01*
X4601200Y784286D02*
X4572628Y755714D01*
X4572628Y755714D02*
X4544057Y698572D01*
X4544057Y698572D02*
X4515485Y584286D01*
X4515485Y584286D02*
X4486914Y527143D01*
X4486914Y527143D02*
X4458342Y498572D01*
X4458342Y498572D02*
X4401200Y470000D01*
X4401200Y470000D02*
X4344057Y470000D01*
X4344057Y470000D02*
X4286914Y498572D01*
X4286914Y498572D02*
X4258342Y527143D01*
X4258342Y527143D02*
X4229771Y584286D01*
X4229771Y584286D02*
X4229771Y727143D01*
X4229771Y727143D02*
X4258342Y812857D01*
X4229771Y1012858D02*
X4829771Y1155715D01*
X4829771Y1155715D02*
X4401200Y1270001D01*
X4401200Y1270001D02*
X4829771Y1384286D01*
X4829771Y1384286D02*
X4229771Y1527143D01*
X4229771Y2041429D02*
X4229771Y1755715D01*
X4229771Y1755715D02*
X4515485Y1727143D01*
X4515485Y1727143D02*
X4486914Y1755715D01*
X4486914Y1755715D02*
X4458342Y1812857D01*
X4458342Y1812857D02*
X4458342Y1955715D01*
X4458342Y1955715D02*
X4486914Y2012857D01*
X4486914Y2012857D02*
X4515485Y2041429D01*
X4515485Y2041429D02*
X4572628Y2070000D01*
X4572628Y2070000D02*
X4715485Y2070000D01*
X4715485Y2070000D02*
X4772628Y2041429D01*
X4772628Y2041429D02*
X4801200Y2012857D01*
X4801200Y2012857D02*
X4829771Y1955715D01*
X4829771Y1955715D02*
X4829771Y1812857D01*
X4829771Y1812857D02*
X4801200Y1755715D01*
X4801200Y1755715D02*
X4772628Y1727143D01*
X18814285Y-8932628D02*
X18785713Y-8961200D01*
X18785713Y-8961200D02*
X18699999Y-8989771D01*
X18699999Y-8989771D02*
X18642856Y-8989771D01*
X18642856Y-8989771D02*
X18557142Y-8961200D01*
X18557142Y-8961200D02*
X18499999Y-8904057D01*
X18499999Y-8904057D02*
X18471428Y-8846914D01*
X18471428Y-8846914D02*
X18442856Y-8732628D01*
X18442856Y-8732628D02*
X18442856Y-8646914D01*
X18442856Y-8646914D02*
X18471428Y-8532628D01*
X18471428Y-8532628D02*
X18499999Y-8475485D01*
X18499999Y-8475485D02*
X18557142Y-8418342D01*
X18557142Y-8418342D02*
X18642856Y-8389771D01*
X18642856Y-8389771D02*
X18699999Y-8389771D01*
X18699999Y-8389771D02*
X18785713Y-8418342D01*
X18785713Y-8418342D02*
X18814285Y-8446914D01*
X19042856Y-8446914D02*
X19071428Y-8418342D01*
X19071428Y-8418342D02*
X19128571Y-8389771D01*
X19128571Y-8389771D02*
X19271428Y-8389771D01*
X19271428Y-8389771D02*
X19328571Y-8418342D01*
X19328571Y-8418342D02*
X19357142Y-8446914D01*
X19357142Y-8446914D02*
X19385713Y-8504057D01*
X19385713Y-8504057D02*
X19385713Y-8561200D01*
X19385713Y-8561200D02*
X19357142Y-8646914D01*
X19357142Y-8646914D02*
X19014285Y-8989771D01*
X19014285Y-8989771D02*
X19385713Y-8989771D01*
X19957142Y-8989771D02*
X19614285Y-8989771D01*
X19785714Y-8989771D02*
X19785714Y-8389771D01*
X19785714Y-8389771D02*
X19728571Y-8475485D01*
X19728571Y-8475485D02*
X19671428Y-8532628D01*
X19671428Y-8532628D02*
X19614285Y-8561200D01*
X-9669772Y-10444286D02*
X-9069772Y-10444286D01*
X-9069772Y-10444286D02*
X-9498343Y-10644286D01*
X-9498343Y-10644286D02*
X-9069772Y-10844286D01*
X-9069772Y-10844286D02*
X-9669772Y-10844286D01*
X-9669772Y-11130000D02*
X-9069772Y-11130000D01*
X-9669772Y-11472857D02*
X-9326915Y-11215714D01*
X-9069772Y-11472857D02*
X-9412629Y-11130000D01*
X-9126915Y-11701428D02*
X-9098343Y-11730000D01*
X-9098343Y-11730000D02*
X-9069772Y-11787143D01*
X-9069772Y-11787143D02*
X-9069772Y-11930000D01*
X-9069772Y-11930000D02*
X-9098343Y-11987143D01*
X-9098343Y-11987143D02*
X-9126915Y-12015714D01*
X-9126915Y-12015714D02*
X-9184058Y-12044285D01*
X-9184058Y-12044285D02*
X-9241200Y-12044285D01*
X-9241200Y-12044285D02*
X-9326915Y-12015714D01*
X-9326915Y-12015714D02*
X-9669772Y-11672857D01*
X-9669772Y-11672857D02*
X-9669772Y-12044285D01*
X-5660000Y-14272628D02*
X-5688572Y-14301200D01*
X-5688572Y-14301200D02*
X-5774286Y-14329771D01*
X-5774286Y-14329771D02*
X-5831429Y-14329771D01*
X-5831429Y-14329771D02*
X-5917143Y-14301200D01*
X-5917143Y-14301200D02*
X-5974286Y-14244057D01*
X-5974286Y-14244057D02*
X-6002857Y-14186914D01*
X-6002857Y-14186914D02*
X-6031429Y-14072628D01*
X-6031429Y-14072628D02*
X-6031429Y-13986914D01*
X-6031429Y-13986914D02*
X-6002857Y-13872628D01*
X-6002857Y-13872628D02*
X-5974286Y-13815485D01*
X-5974286Y-13815485D02*
X-5917143Y-13758342D01*
X-5917143Y-13758342D02*
X-5831429Y-13729771D01*
X-5831429Y-13729771D02*
X-5774286Y-13729771D01*
X-5774286Y-13729771D02*
X-5688572Y-13758342D01*
X-5688572Y-13758342D02*
X-5660000Y-13786914D01*
X-5145714Y-13929771D02*
X-5145714Y-14329771D01*
X-5288572Y-13701200D02*
X-5431429Y-14129771D01*
X-5431429Y-14129771D02*
X-5060000Y-14129771D01*
X-10260229Y15584286D02*
X-10545943Y15384286D01*
X-10260229Y15241429D02*
X-10860229Y15241429D01*
X-10860229Y15241429D02*
X-10860229Y15470000D01*
X-10860229Y15470000D02*
X-10831658Y15527143D01*
X-10831658Y15527143D02*
X-10803086Y15555714D01*
X-10803086Y15555714D02*
X-10745943Y15584286D01*
X-10745943Y15584286D02*
X-10660229Y15584286D01*
X-10660229Y15584286D02*
X-10603086Y15555714D01*
X-10603086Y15555714D02*
X-10574515Y15527143D01*
X-10574515Y15527143D02*
X-10545943Y15470000D01*
X-10545943Y15470000D02*
X-10545943Y15241429D01*
X-10260229Y16155714D02*
X-10260229Y15812857D01*
X-10260229Y15984286D02*
X-10860229Y15984286D01*
X-10860229Y15984286D02*
X-10774515Y15927143D01*
X-10774515Y15927143D02*
X-10717372Y15870000D01*
X-10717372Y15870000D02*
X-10688800Y15812857D01*
X-10803086Y16384286D02*
X-10831658Y16412858D01*
X-10831658Y16412858D02*
X-10860229Y16470000D01*
X-10860229Y16470000D02*
X-10860229Y16612858D01*
X-10860229Y16612858D02*
X-10831658Y16670000D01*
X-10831658Y16670000D02*
X-10803086Y16698572D01*
X-10803086Y16698572D02*
X-10745943Y16727143D01*
X-10745943Y16727143D02*
X-10688800Y16727143D01*
X-10688800Y16727143D02*
X-10603086Y16698572D01*
X-10603086Y16698572D02*
X-10260229Y16355715D01*
X-10260229Y16355715D02*
X-10260229Y16727143D01*
X-11437372Y1324286D02*
X-11408800Y1295714D01*
X-11408800Y1295714D02*
X-11380229Y1210000D01*
X-11380229Y1210000D02*
X-11380229Y1152857D01*
X-11380229Y1152857D02*
X-11408800Y1067143D01*
X-11408800Y1067143D02*
X-11465943Y1010000D01*
X-11465943Y1010000D02*
X-11523086Y981429D01*
X-11523086Y981429D02*
X-11637372Y952857D01*
X-11637372Y952857D02*
X-11723086Y952857D01*
X-11723086Y952857D02*
X-11837372Y981429D01*
X-11837372Y981429D02*
X-11894515Y1010000D01*
X-11894515Y1010000D02*
X-11951658Y1067143D01*
X-11951658Y1067143D02*
X-11980229Y1152857D01*
X-11980229Y1152857D02*
X-11980229Y1210000D01*
X-11980229Y1210000D02*
X-11951658Y1295714D01*
X-11951658Y1295714D02*
X-11923086Y1324286D01*
X-11923086Y1552857D02*
X-11951658Y1581429D01*
X-11951658Y1581429D02*
X-11980229Y1638571D01*
X-11980229Y1638571D02*
X-11980229Y1781429D01*
X-11980229Y1781429D02*
X-11951658Y1838571D01*
X-11951658Y1838571D02*
X-11923086Y1867143D01*
X-11923086Y1867143D02*
X-11865943Y1895714D01*
X-11865943Y1895714D02*
X-11808800Y1895714D01*
X-11808800Y1895714D02*
X-11723086Y1867143D01*
X-11723086Y1867143D02*
X-11380229Y1524286D01*
X-11380229Y1524286D02*
X-11380229Y1895714D01*
X-11980229Y2410000D02*
X-11980229Y2295715D01*
X-11980229Y2295715D02*
X-11951658Y2238572D01*
X-11951658Y2238572D02*
X-11923086Y2210000D01*
X-11923086Y2210000D02*
X-11837372Y2152858D01*
X-11837372Y2152858D02*
X-11723086Y2124286D01*
X-11723086Y2124286D02*
X-11494515Y2124286D01*
X-11494515Y2124286D02*
X-11437372Y2152858D01*
X-11437372Y2152858D02*
X-11408800Y2181429D01*
X-11408800Y2181429D02*
X-11380229Y2238572D01*
X-11380229Y2238572D02*
X-11380229Y2352858D01*
X-11380229Y2352858D02*
X-11408800Y2410000D01*
X-11408800Y2410000D02*
X-11437372Y2438572D01*
X-11437372Y2438572D02*
X-11494515Y2467143D01*
X-11494515Y2467143D02*
X-11637372Y2467143D01*
X-11637372Y2467143D02*
X-11694515Y2438572D01*
X-11694515Y2438572D02*
X-11723086Y2410000D01*
X-11723086Y2410000D02*
X-11751658Y2352858D01*
X-11751658Y2352858D02*
X-11751658Y2238572D01*
X-11751658Y2238572D02*
X-11723086Y2181429D01*
X-11723086Y2181429D02*
X-11694515Y2152858D01*
X-11694515Y2152858D02*
X-11637372Y2124286D01*
X17375910Y15653942D02*
X17331330Y15732529D01*
X17331330Y15732529D02*
X17225166Y15828119D01*
X17225166Y15828119D02*
X17163583Y15845123D01*
X17163583Y15845123D02*
X17123232Y15843008D01*
X17123232Y15843008D02*
X17063763Y15819660D01*
X17063763Y15819660D02*
X17025527Y15777195D01*
X17025527Y15777195D02*
X17008524Y15715612D01*
X17008524Y15715612D02*
X17010639Y15675261D01*
X17010639Y15675261D02*
X17033986Y15615792D01*
X17033986Y15615792D02*
X17099799Y15518087D01*
X17099799Y15518087D02*
X17123146Y15458619D01*
X17123146Y15458619D02*
X17125261Y15418268D01*
X17125261Y15418268D02*
X17108258Y15356684D01*
X17108258Y15356684D02*
X17070022Y15314219D01*
X17070022Y15314219D02*
X17010553Y15290872D01*
X17010553Y15290872D02*
X16970202Y15288757D01*
X16970202Y15288757D02*
X16908619Y15305760D01*
X16908619Y15305760D02*
X16802455Y15401350D01*
X16802455Y15401350D02*
X16757875Y15479937D01*
X16590128Y15592531D02*
X16885443Y16134008D01*
X16885443Y16134008D02*
X16513741Y15891989D01*
X16513741Y15891989D02*
X16715581Y16286952D01*
X16715581Y16286952D02*
X16207939Y15936655D01*
X16097546Y16112946D02*
X16057196Y16110832D01*
X16057196Y16110832D02*
X15995612Y16127835D01*
X15995612Y16127835D02*
X15889449Y16223425D01*
X15889449Y16223425D02*
X15866101Y16282894D01*
X15866101Y16282894D02*
X15863986Y16323245D01*
X15863986Y16323245D02*
X15880990Y16384828D01*
X15880990Y16384828D02*
X15919226Y16427293D01*
X15919226Y16427293D02*
X15997813Y16471874D01*
X15997813Y16471874D02*
X16482021Y16497250D01*
X16482021Y16497250D02*
X16205996Y16745784D01*
X15125264Y14092849D02*
X14965947Y13915909D01*
X14852735Y14146002D02*
X14965947Y13915909D01*
X14965947Y13915909D02*
X15206613Y13827368D01*
X14732330Y13869948D02*
X14965947Y13915909D01*
X14965947Y13915909D02*
X14944657Y13678768D01*
X16899771Y1062858D02*
X17385485Y1062858D01*
X17385485Y1062858D02*
X17442628Y1091429D01*
X17442628Y1091429D02*
X17471200Y1120000D01*
X17471200Y1120000D02*
X17499771Y1177143D01*
X17499771Y1177143D02*
X17499771Y1291429D01*
X17499771Y1291429D02*
X17471200Y1348572D01*
X17471200Y1348572D02*
X17442628Y1377143D01*
X17442628Y1377143D02*
X17385485Y1405715D01*
X17385485Y1405715D02*
X16899771Y1405715D01*
X16899771Y1634286D02*
X16899771Y2005714D01*
X16899771Y2005714D02*
X17128342Y1805714D01*
X17128342Y1805714D02*
X17128342Y1891429D01*
X17128342Y1891429D02*
X17156914Y1948571D01*
X17156914Y1948571D02*
X17185485Y1977143D01*
X17185485Y1977143D02*
X17242628Y2005714D01*
X17242628Y2005714D02*
X17385485Y2005714D01*
X17385485Y2005714D02*
X17442628Y1977143D01*
X17442628Y1977143D02*
X17471200Y1948571D01*
X17471200Y1948571D02*
X17499771Y1891429D01*
X17499771Y1891429D02*
X17499771Y1720000D01*
X17499771Y1720000D02*
X17471200Y1662857D01*
X17471200Y1662857D02*
X17442628Y1634286D01*
X5154285Y3337372D02*
X5125713Y3308800D01*
X5125713Y3308800D02*
X5039999Y3280229D01*
X5039999Y3280229D02*
X4982856Y3280229D01*
X4982856Y3280229D02*
X4897142Y3308800D01*
X4897142Y3308800D02*
X4839999Y3365943D01*
X4839999Y3365943D02*
X4811428Y3423086D01*
X4811428Y3423086D02*
X4782856Y3537372D01*
X4782856Y3537372D02*
X4782856Y3623086D01*
X4782856Y3623086D02*
X4811428Y3737372D01*
X4811428Y3737372D02*
X4839999Y3794515D01*
X4839999Y3794515D02*
X4897142Y3851658D01*
X4897142Y3851658D02*
X4982856Y3880229D01*
X4982856Y3880229D02*
X5039999Y3880229D01*
X5039999Y3880229D02*
X5125713Y3851658D01*
X5125713Y3851658D02*
X5154285Y3823086D01*
X5354285Y3880229D02*
X5725713Y3880229D01*
X5725713Y3880229D02*
X5525713Y3651658D01*
X5525713Y3651658D02*
X5611428Y3651658D01*
X5611428Y3651658D02*
X5668571Y3623086D01*
X5668571Y3623086D02*
X5697142Y3594515D01*
X5697142Y3594515D02*
X5725713Y3537372D01*
X5725713Y3537372D02*
X5725713Y3394515D01*
X5725713Y3394515D02*
X5697142Y3337372D01*
X5697142Y3337372D02*
X5668571Y3308800D01*
X5668571Y3308800D02*
X5611428Y3280229D01*
X5611428Y3280229D02*
X5439999Y3280229D01*
X5439999Y3280229D02*
X5382856Y3308800D01*
X5382856Y3308800D02*
X5354285Y3337372D01*
X5925714Y3880229D02*
X6297142Y3880229D01*
X6297142Y3880229D02*
X6097142Y3651658D01*
X6097142Y3651658D02*
X6182857Y3651658D01*
X6182857Y3651658D02*
X6240000Y3623086D01*
X6240000Y3623086D02*
X6268571Y3594515D01*
X6268571Y3594515D02*
X6297142Y3537372D01*
X6297142Y3537372D02*
X6297142Y3394515D01*
X6297142Y3394515D02*
X6268571Y3337372D01*
X6268571Y3337372D02*
X6240000Y3308800D01*
X6240000Y3308800D02*
X6182857Y3280229D01*
X6182857Y3280229D02*
X6011428Y3280229D01*
X6011428Y3280229D02*
X5954285Y3308800D01*
X5954285Y3308800D02*
X5925714Y3337372D01*
X12474285Y7247372D02*
X12445713Y7218800D01*
X12445713Y7218800D02*
X12359999Y7190229D01*
X12359999Y7190229D02*
X12302856Y7190229D01*
X12302856Y7190229D02*
X12217142Y7218800D01*
X12217142Y7218800D02*
X12159999Y7275943D01*
X12159999Y7275943D02*
X12131428Y7333086D01*
X12131428Y7333086D02*
X12102856Y7447372D01*
X12102856Y7447372D02*
X12102856Y7533086D01*
X12102856Y7533086D02*
X12131428Y7647372D01*
X12131428Y7647372D02*
X12159999Y7704515D01*
X12159999Y7704515D02*
X12217142Y7761658D01*
X12217142Y7761658D02*
X12302856Y7790229D01*
X12302856Y7790229D02*
X12359999Y7790229D01*
X12359999Y7790229D02*
X12445713Y7761658D01*
X12445713Y7761658D02*
X12474285Y7733086D01*
X12702856Y7733086D02*
X12731428Y7761658D01*
X12731428Y7761658D02*
X12788571Y7790229D01*
X12788571Y7790229D02*
X12931428Y7790229D01*
X12931428Y7790229D02*
X12988571Y7761658D01*
X12988571Y7761658D02*
X13017142Y7733086D01*
X13017142Y7733086D02*
X13045713Y7675943D01*
X13045713Y7675943D02*
X13045713Y7618800D01*
X13045713Y7618800D02*
X13017142Y7533086D01*
X13017142Y7533086D02*
X12674285Y7190229D01*
X12674285Y7190229D02*
X13045713Y7190229D01*
X13245714Y7790229D02*
X13617142Y7790229D01*
X13617142Y7790229D02*
X13417142Y7561658D01*
X13417142Y7561658D02*
X13502857Y7561658D01*
X13502857Y7561658D02*
X13560000Y7533086D01*
X13560000Y7533086D02*
X13588571Y7504515D01*
X13588571Y7504515D02*
X13617142Y7447372D01*
X13617142Y7447372D02*
X13617142Y7304515D01*
X13617142Y7304515D02*
X13588571Y7247372D01*
X13588571Y7247372D02*
X13560000Y7218800D01*
X13560000Y7218800D02*
X13502857Y7190229D01*
X13502857Y7190229D02*
X13331428Y7190229D01*
X13331428Y7190229D02*
X13274285Y7218800D01*
X13274285Y7218800D02*
X13245714Y7247372D01*
X-15565715Y7690229D02*
X-15765715Y7975943D01*
X-15908572Y7690229D02*
X-15908572Y8290229D01*
X-15908572Y8290229D02*
X-15680001Y8290229D01*
X-15680001Y8290229D02*
X-15622858Y8261658D01*
X-15622858Y8261658D02*
X-15594287Y8233086D01*
X-15594287Y8233086D02*
X-15565715Y8175943D01*
X-15565715Y8175943D02*
X-15565715Y8090229D01*
X-15565715Y8090229D02*
X-15594287Y8033086D01*
X-15594287Y8033086D02*
X-15622858Y8004515D01*
X-15622858Y8004515D02*
X-15680001Y7975943D01*
X-15680001Y7975943D02*
X-15908572Y7975943D01*
X-14994287Y7690229D02*
X-15337144Y7690229D01*
X-15165715Y7690229D02*
X-15165715Y8290229D01*
X-15165715Y8290229D02*
X-15222858Y8204515D01*
X-15222858Y8204515D02*
X-15280001Y8147372D01*
X-15280001Y8147372D02*
X-15337144Y8118800D01*
X-14622858Y8290229D02*
X-14565715Y8290229D01*
X-14565715Y8290229D02*
X-14508572Y8261658D01*
X-14508572Y8261658D02*
X-14480000Y8233086D01*
X-14480000Y8233086D02*
X-14451429Y8175943D01*
X-14451429Y8175943D02*
X-14422858Y8061658D01*
X-14422858Y8061658D02*
X-14422858Y7918800D01*
X-14422858Y7918800D02*
X-14451429Y7804515D01*
X-14451429Y7804515D02*
X-14480000Y7747372D01*
X-14480000Y7747372D02*
X-14508572Y7718800D01*
X-14508572Y7718800D02*
X-14565715Y7690229D01*
X-14565715Y7690229D02*
X-14622858Y7690229D01*
X-14622858Y7690229D02*
X-14680000Y7718800D01*
X-14680000Y7718800D02*
X-14708572Y7747372D01*
X-14708572Y7747372D02*
X-14737143Y7804515D01*
X-14737143Y7804515D02*
X-14765715Y7918800D01*
X-14765715Y7918800D02*
X-14765715Y8061658D01*
X-14765715Y8061658D02*
X-14737143Y8175943D01*
X-14737143Y8175943D02*
X-14708572Y8233086D01*
X-14708572Y8233086D02*
X-14680000Y8261658D01*
X-14680000Y8261658D02*
X-14622858Y8290229D01*
X-4879729Y-7852499D02*
X-5165443Y-8052499D01*
X-4879729Y-8195356D02*
X-5479729Y-8195356D01*
X-5479729Y-8195356D02*
X-5479729Y-7966785D01*
X-5479729Y-7966785D02*
X-5451158Y-7909642D01*
X-5451158Y-7909642D02*
X-5422586Y-7881071D01*
X-5422586Y-7881071D02*
X-5365443Y-7852499D01*
X-5365443Y-7852499D02*
X-5279729Y-7852499D01*
X-5279729Y-7852499D02*
X-5222586Y-7881071D01*
X-5222586Y-7881071D02*
X-5194015Y-7909642D01*
X-5194015Y-7909642D02*
X-5165443Y-7966785D01*
X-5165443Y-7966785D02*
X-5165443Y-8195356D01*
X-5479729Y-7652499D02*
X-5479729Y-7281071D01*
X-5479729Y-7281071D02*
X-5251158Y-7481071D01*
X-5251158Y-7481071D02*
X-5251158Y-7395356D01*
X-5251158Y-7395356D02*
X-5222586Y-7338214D01*
X-5222586Y-7338214D02*
X-5194015Y-7309642D01*
X-5194015Y-7309642D02*
X-5136872Y-7281071D01*
X-5136872Y-7281071D02*
X-4994015Y-7281071D01*
X-4994015Y-7281071D02*
X-4936872Y-7309642D01*
X-4936872Y-7309642D02*
X-4908300Y-7338214D01*
X-4908300Y-7338214D02*
X-4879729Y-7395356D01*
X-4879729Y-7395356D02*
X-4879729Y-7566785D01*
X-4879729Y-7566785D02*
X-4908300Y-7623928D01*
X-4908300Y-7623928D02*
X-4936872Y-7652499D01*
X-9927372Y1414286D02*
X-9898800Y1385714D01*
X-9898800Y1385714D02*
X-9870229Y1300000D01*
X-9870229Y1300000D02*
X-9870229Y1242857D01*
X-9870229Y1242857D02*
X-9898800Y1157143D01*
X-9898800Y1157143D02*
X-9955943Y1100000D01*
X-9955943Y1100000D02*
X-10013086Y1071429D01*
X-10013086Y1071429D02*
X-10127372Y1042857D01*
X-10127372Y1042857D02*
X-10213086Y1042857D01*
X-10213086Y1042857D02*
X-10327372Y1071429D01*
X-10327372Y1071429D02*
X-10384515Y1100000D01*
X-10384515Y1100000D02*
X-10441658Y1157143D01*
X-10441658Y1157143D02*
X-10470229Y1242857D01*
X-10470229Y1242857D02*
X-10470229Y1300000D01*
X-10470229Y1300000D02*
X-10441658Y1385714D01*
X-10441658Y1385714D02*
X-10413086Y1414286D01*
X-10413086Y1642857D02*
X-10441658Y1671429D01*
X-10441658Y1671429D02*
X-10470229Y1728571D01*
X-10470229Y1728571D02*
X-10470229Y1871429D01*
X-10470229Y1871429D02*
X-10441658Y1928571D01*
X-10441658Y1928571D02*
X-10413086Y1957143D01*
X-10413086Y1957143D02*
X-10355943Y1985714D01*
X-10355943Y1985714D02*
X-10298800Y1985714D01*
X-10298800Y1985714D02*
X-10213086Y1957143D01*
X-10213086Y1957143D02*
X-9870229Y1614286D01*
X-9870229Y1614286D02*
X-9870229Y1985714D01*
X-10470229Y2528572D02*
X-10470229Y2242858D01*
X-10470229Y2242858D02*
X-10184515Y2214286D01*
X-10184515Y2214286D02*
X-10213086Y2242858D01*
X-10213086Y2242858D02*
X-10241658Y2300000D01*
X-10241658Y2300000D02*
X-10241658Y2442858D01*
X-10241658Y2442858D02*
X-10213086Y2500000D01*
X-10213086Y2500000D02*
X-10184515Y2528572D01*
X-10184515Y2528572D02*
X-10127372Y2557143D01*
X-10127372Y2557143D02*
X-9984515Y2557143D01*
X-9984515Y2557143D02*
X-9927372Y2528572D01*
X-9927372Y2528572D02*
X-9898800Y2500000D01*
X-9898800Y2500000D02*
X-9870229Y2442858D01*
X-9870229Y2442858D02*
X-9870229Y2300000D01*
X-9870229Y2300000D02*
X-9898800Y2242858D01*
X-9898800Y2242858D02*
X-9927372Y2214286D01*
X5999771Y-2557142D02*
X5399771Y-2557142D01*
X5399771Y-2557142D02*
X5999771Y-2214285D01*
X5999771Y-2214285D02*
X5399771Y-2214285D01*
X5942628Y-1585714D02*
X5971200Y-1614286D01*
X5971200Y-1614286D02*
X5999771Y-1700000D01*
X5999771Y-1700000D02*
X5999771Y-1757143D01*
X5999771Y-1757143D02*
X5971200Y-1842857D01*
X5971200Y-1842857D02*
X5914057Y-1900000D01*
X5914057Y-1900000D02*
X5856914Y-1928571D01*
X5856914Y-1928571D02*
X5742628Y-1957143D01*
X5742628Y-1957143D02*
X5656914Y-1957143D01*
X5656914Y-1957143D02*
X5542628Y-1928571D01*
X5542628Y-1928571D02*
X5485485Y-1900000D01*
X5485485Y-1900000D02*
X5428342Y-1842857D01*
X5428342Y-1842857D02*
X5399771Y-1757143D01*
X5399771Y-1757143D02*
X5399771Y-1700000D01*
X5399771Y-1700000D02*
X5428342Y-1614286D01*
X5428342Y-1614286D02*
X5456914Y-1585714D01*
X5399771Y-1385714D02*
X5399771Y-1014286D01*
X5399771Y-1014286D02*
X5628342Y-1214286D01*
X5628342Y-1214286D02*
X5628342Y-1128571D01*
X5628342Y-1128571D02*
X5656914Y-1071429D01*
X5656914Y-1071429D02*
X5685485Y-1042857D01*
X5685485Y-1042857D02*
X5742628Y-1014286D01*
X5742628Y-1014286D02*
X5885485Y-1014286D01*
X5885485Y-1014286D02*
X5942628Y-1042857D01*
X5942628Y-1042857D02*
X5971200Y-1071429D01*
X5971200Y-1071429D02*
X5999771Y-1128571D01*
X5999771Y-1128571D02*
X5999771Y-1300000D01*
X5999771Y-1300000D02*
X5971200Y-1357143D01*
X5971200Y-1357143D02*
X5942628Y-1385714D01*
X-4897372Y17150001D02*
X-4868800Y17121429D01*
X-4868800Y17121429D02*
X-4840229Y17035715D01*
X-4840229Y17035715D02*
X-4840229Y16978572D01*
X-4840229Y16978572D02*
X-4868800Y16892858D01*
X-4868800Y16892858D02*
X-4925943Y16835715D01*
X-4925943Y16835715D02*
X-4983086Y16807144D01*
X-4983086Y16807144D02*
X-5097372Y16778572D01*
X-5097372Y16778572D02*
X-5183086Y16778572D01*
X-5183086Y16778572D02*
X-5297372Y16807144D01*
X-5297372Y16807144D02*
X-5354515Y16835715D01*
X-5354515Y16835715D02*
X-5411658Y16892858D01*
X-5411658Y16892858D02*
X-5440229Y16978572D01*
X-5440229Y16978572D02*
X-5440229Y17035715D01*
X-5440229Y17035715D02*
X-5411658Y17121429D01*
X-5411658Y17121429D02*
X-5383086Y17150001D01*
X-5440229Y17350001D02*
X-5440229Y17721429D01*
X-5440229Y17721429D02*
X-5211658Y17521429D01*
X-5211658Y17521429D02*
X-5211658Y17607144D01*
X-5211658Y17607144D02*
X-5183086Y17664286D01*
X-5183086Y17664286D02*
X-5154515Y17692858D01*
X-5154515Y17692858D02*
X-5097372Y17721429D01*
X-5097372Y17721429D02*
X-4954515Y17721429D01*
X-4954515Y17721429D02*
X-4897372Y17692858D01*
X-4897372Y17692858D02*
X-4868800Y17664286D01*
X-4868800Y17664286D02*
X-4840229Y17607144D01*
X-4840229Y17607144D02*
X-4840229Y17435715D01*
X-4840229Y17435715D02*
X-4868800Y17378572D01*
X-4868800Y17378572D02*
X-4897372Y17350001D01*
X13444285Y-582628D02*
X13415713Y-611200D01*
X13415713Y-611200D02*
X13329999Y-639771D01*
X13329999Y-639771D02*
X13272856Y-639771D01*
X13272856Y-639771D02*
X13187142Y-611200D01*
X13187142Y-611200D02*
X13129999Y-554057D01*
X13129999Y-554057D02*
X13101428Y-496914D01*
X13101428Y-496914D02*
X13072856Y-382628D01*
X13072856Y-382628D02*
X13072856Y-296914D01*
X13072856Y-296914D02*
X13101428Y-182628D01*
X13101428Y-182628D02*
X13129999Y-125485D01*
X13129999Y-125485D02*
X13187142Y-68342D01*
X13187142Y-68342D02*
X13272856Y-39771D01*
X13272856Y-39771D02*
X13329999Y-39771D01*
X13329999Y-39771D02*
X13415713Y-68342D01*
X13415713Y-68342D02*
X13444285Y-96914D01*
X13672856Y-96914D02*
X13701428Y-68342D01*
X13701428Y-68342D02*
X13758571Y-39771D01*
X13758571Y-39771D02*
X13901428Y-39771D01*
X13901428Y-39771D02*
X13958571Y-68342D01*
X13958571Y-68342D02*
X13987142Y-96914D01*
X13987142Y-96914D02*
X14015713Y-154057D01*
X14015713Y-154057D02*
X14015713Y-211200D01*
X14015713Y-211200D02*
X13987142Y-296914D01*
X13987142Y-296914D02*
X13644285Y-639771D01*
X13644285Y-639771D02*
X14015713Y-639771D01*
X14530000Y-239771D02*
X14530000Y-639771D01*
X14387142Y-11200D02*
X14244285Y-439771D01*
X14244285Y-439771D02*
X14615714Y-439771D01*
X7432857Y7500229D02*
X7432857Y7014515D01*
X7432857Y7014515D02*
X7461428Y6957372D01*
X7461428Y6957372D02*
X7490000Y6928800D01*
X7490000Y6928800D02*
X7547142Y6900229D01*
X7547142Y6900229D02*
X7661428Y6900229D01*
X7661428Y6900229D02*
X7718571Y6928800D01*
X7718571Y6928800D02*
X7747142Y6957372D01*
X7747142Y6957372D02*
X7775714Y7014515D01*
X7775714Y7014515D02*
X7775714Y7500229D01*
X8318571Y7300229D02*
X8318571Y6900229D01*
X8175713Y7528800D02*
X8032856Y7100229D01*
X8032856Y7100229D02*
X8404285Y7100229D01*
X-18895001Y-1569771D02*
X-18895001Y-1998342D01*
X-18895001Y-1998342D02*
X-18923572Y-2084057D01*
X-18923572Y-2084057D02*
X-18980715Y-2141200D01*
X-18980715Y-2141200D02*
X-19066429Y-2169771D01*
X-19066429Y-2169771D02*
X-19123572Y-2169771D01*
X-18609286Y-2169771D02*
X-18609286Y-1569771D01*
X-18609286Y-1569771D02*
X-18380715Y-1569771D01*
X-18380715Y-1569771D02*
X-18323572Y-1598342D01*
X-18323572Y-1598342D02*
X-18295001Y-1626914D01*
X-18295001Y-1626914D02*
X-18266429Y-1684057D01*
X-18266429Y-1684057D02*
X-18266429Y-1769771D01*
X-18266429Y-1769771D02*
X-18295001Y-1826914D01*
X-18295001Y-1826914D02*
X-18323572Y-1855485D01*
X-18323572Y-1855485D02*
X-18380715Y-1884057D01*
X-18380715Y-1884057D02*
X-18609286Y-1884057D01*
X-18066429Y-1569771D02*
X-17695001Y-1569771D01*
X-17695001Y-1569771D02*
X-17895001Y-1798342D01*
X-17895001Y-1798342D02*
X-17809286Y-1798342D01*
X-17809286Y-1798342D02*
X-17752143Y-1826914D01*
X-17752143Y-1826914D02*
X-17723572Y-1855485D01*
X-17723572Y-1855485D02*
X-17695001Y-1912628D01*
X-17695001Y-1912628D02*
X-17695001Y-2055485D01*
X-17695001Y-2055485D02*
X-17723572Y-2112628D01*
X-17723572Y-2112628D02*
X-17752143Y-2141200D01*
X-17752143Y-2141200D02*
X-17809286Y-2169771D01*
X-17809286Y-2169771D02*
X-17980715Y-2169771D01*
X-17980715Y-2169771D02*
X-18037858Y-2141200D01*
X-18037858Y-2141200D02*
X-18066429Y-2112628D01*
X-2070229Y-6309999D02*
X-2355943Y-6509999D01*
X-2070229Y-6652856D02*
X-2670229Y-6652856D01*
X-2670229Y-6652856D02*
X-2670229Y-6424285D01*
X-2670229Y-6424285D02*
X-2641658Y-6367142D01*
X-2641658Y-6367142D02*
X-2613086Y-6338571D01*
X-2613086Y-6338571D02*
X-2555943Y-6309999D01*
X-2555943Y-6309999D02*
X-2470229Y-6309999D01*
X-2470229Y-6309999D02*
X-2413086Y-6338571D01*
X-2413086Y-6338571D02*
X-2384515Y-6367142D01*
X-2384515Y-6367142D02*
X-2355943Y-6424285D01*
X-2355943Y-6424285D02*
X-2355943Y-6652856D01*
X-2470229Y-5795714D02*
X-2070229Y-5795714D01*
X-2698800Y-5938571D02*
X-2270229Y-6081428D01*
X-2270229Y-6081428D02*
X-2270229Y-5709999D01*
X-4402857Y-23249771D02*
X-4402857Y-22649771D01*
X-4402857Y-22649771D02*
X-4174286Y-22649771D01*
X-4174286Y-22649771D02*
X-4117143Y-22678342D01*
X-4117143Y-22678342D02*
X-4088572Y-22706914D01*
X-4088572Y-22706914D02*
X-4060000Y-22764057D01*
X-4060000Y-22764057D02*
X-4060000Y-22849771D01*
X-4060000Y-22849771D02*
X-4088572Y-22906914D01*
X-4088572Y-22906914D02*
X-4117143Y-22935485D01*
X-4117143Y-22935485D02*
X-4174286Y-22964057D01*
X-4174286Y-22964057D02*
X-4402857Y-22964057D01*
X-3488572Y-23249771D02*
X-3831429Y-23249771D01*
X-3660000Y-23249771D02*
X-3660000Y-22649771D01*
X-3660000Y-22649771D02*
X-3717143Y-22735485D01*
X-3717143Y-22735485D02*
X-3774286Y-22792628D01*
X-3774286Y-22792628D02*
X-3831429Y-22821200D01*
X-2397372Y-11139999D02*
X-2368800Y-11168571D01*
X-2368800Y-11168571D02*
X-2340229Y-11254285D01*
X-2340229Y-11254285D02*
X-2340229Y-11311428D01*
X-2340229Y-11311428D02*
X-2368800Y-11397142D01*
X-2368800Y-11397142D02*
X-2425943Y-11454285D01*
X-2425943Y-11454285D02*
X-2483086Y-11482856D01*
X-2483086Y-11482856D02*
X-2597372Y-11511428D01*
X-2597372Y-11511428D02*
X-2683086Y-11511428D01*
X-2683086Y-11511428D02*
X-2797372Y-11482856D01*
X-2797372Y-11482856D02*
X-2854515Y-11454285D01*
X-2854515Y-11454285D02*
X-2911658Y-11397142D01*
X-2911658Y-11397142D02*
X-2940229Y-11311428D01*
X-2940229Y-11311428D02*
X-2940229Y-11254285D01*
X-2940229Y-11254285D02*
X-2911658Y-11168571D01*
X-2911658Y-11168571D02*
X-2883086Y-11139999D01*
X-2940229Y-10597142D02*
X-2940229Y-10882856D01*
X-2940229Y-10882856D02*
X-2654515Y-10911428D01*
X-2654515Y-10911428D02*
X-2683086Y-10882856D01*
X-2683086Y-10882856D02*
X-2711658Y-10825714D01*
X-2711658Y-10825714D02*
X-2711658Y-10682856D01*
X-2711658Y-10682856D02*
X-2683086Y-10625714D01*
X-2683086Y-10625714D02*
X-2654515Y-10597142D01*
X-2654515Y-10597142D02*
X-2597372Y-10568571D01*
X-2597372Y-10568571D02*
X-2454515Y-10568571D01*
X-2454515Y-10568571D02*
X-2397372Y-10597142D01*
X-2397372Y-10597142D02*
X-2368800Y-10625714D01*
X-2368800Y-10625714D02*
X-2340229Y-10682856D01*
X-2340229Y-10682856D02*
X-2340229Y-10825714D01*
X-2340229Y-10825714D02*
X-2368800Y-10882856D01*
X-2368800Y-10882856D02*
X-2397372Y-10911428D01*
X8082666Y22079600D02*
X8004765Y22125368D01*
X8004765Y22125368D02*
X7865030Y22155070D01*
X7865030Y22155070D02*
X7803195Y22139004D01*
X7803195Y22139004D02*
X7769308Y22116997D01*
X7769308Y22116997D02*
X7729480Y22067043D01*
X7729480Y22067043D02*
X7717600Y22011149D01*
X7717600Y22011149D02*
X7733666Y21949314D01*
X7733666Y21949314D02*
X7755673Y21915427D01*
X7755673Y21915427D02*
X7805627Y21875599D01*
X7805627Y21875599D02*
X7911475Y21823891D01*
X7911475Y21823891D02*
X7961428Y21784063D01*
X7961428Y21784063D02*
X7983435Y21750176D01*
X7983435Y21750176D02*
X7999501Y21688341D01*
X7999501Y21688341D02*
X7987621Y21632447D01*
X7987621Y21632447D02*
X7947793Y21582493D01*
X7947793Y21582493D02*
X7913906Y21560487D01*
X7913906Y21560487D02*
X7852071Y21544420D01*
X7852071Y21544420D02*
X7712336Y21574122D01*
X7712336Y21574122D02*
X7634435Y21619890D01*
X7432865Y21633525D02*
X7417876Y22250115D01*
X7417876Y22250115D02*
X7216983Y21854671D01*
X7216983Y21854671D02*
X7194300Y22297638D01*
X7194300Y22297638D02*
X6929817Y21740451D01*
X6523570Y22440206D02*
X6858935Y22368922D01*
X6691253Y22404564D02*
X6566506Y21817676D01*
X6566506Y21817676D02*
X6640221Y21889636D01*
X6640221Y21889636D02*
X6707996Y21933650D01*
X6707996Y21933650D02*
X6769830Y21949716D01*
X6475614Y19717831D02*
X6426112Y19484939D01*
X6213020Y19627598D02*
X6426112Y19484939D01*
X6426112Y19484939D02*
X6678805Y19528593D01*
X6246774Y19328326D02*
X6426112Y19484939D01*
X6426112Y19484939D02*
X6526245Y19268923D01*
X13690000Y4707372D02*
X13661428Y4678800D01*
X13661428Y4678800D02*
X13575714Y4650229D01*
X13575714Y4650229D02*
X13518571Y4650229D01*
X13518571Y4650229D02*
X13432857Y4678800D01*
X13432857Y4678800D02*
X13375714Y4735943D01*
X13375714Y4735943D02*
X13347143Y4793086D01*
X13347143Y4793086D02*
X13318571Y4907372D01*
X13318571Y4907372D02*
X13318571Y4993086D01*
X13318571Y4993086D02*
X13347143Y5107372D01*
X13347143Y5107372D02*
X13375714Y5164515D01*
X13375714Y5164515D02*
X13432857Y5221658D01*
X13432857Y5221658D02*
X13518571Y5250229D01*
X13518571Y5250229D02*
X13575714Y5250229D01*
X13575714Y5250229D02*
X13661428Y5221658D01*
X13661428Y5221658D02*
X13690000Y5193086D01*
X13975714Y4650229D02*
X14090000Y4650229D01*
X14090000Y4650229D02*
X14147143Y4678800D01*
X14147143Y4678800D02*
X14175714Y4707372D01*
X14175714Y4707372D02*
X14232857Y4793086D01*
X14232857Y4793086D02*
X14261428Y4907372D01*
X14261428Y4907372D02*
X14261428Y5135943D01*
X14261428Y5135943D02*
X14232857Y5193086D01*
X14232857Y5193086D02*
X14204286Y5221658D01*
X14204286Y5221658D02*
X14147143Y5250229D01*
X14147143Y5250229D02*
X14032857Y5250229D01*
X14032857Y5250229D02*
X13975714Y5221658D01*
X13975714Y5221658D02*
X13947143Y5193086D01*
X13947143Y5193086D02*
X13918571Y5135943D01*
X13918571Y5135943D02*
X13918571Y4993086D01*
X13918571Y4993086D02*
X13947143Y4935943D01*
X13947143Y4935943D02*
X13975714Y4907372D01*
X13975714Y4907372D02*
X14032857Y4878800D01*
X14032857Y4878800D02*
X14147143Y4878800D01*
X14147143Y4878800D02*
X14204286Y4907372D01*
X14204286Y4907372D02*
X14232857Y4935943D01*
X14232857Y4935943D02*
X14261428Y4993086D01*
X11409771Y3110000D02*
X11838342Y3110000D01*
X11838342Y3110000D02*
X11924057Y3081429D01*
X11924057Y3081429D02*
X11981200Y3024286D01*
X11981200Y3024286D02*
X12009771Y2938572D01*
X12009771Y2938572D02*
X12009771Y2881429D01*
X12009771Y3395715D02*
X11409771Y3395715D01*
X11409771Y3395715D02*
X11409771Y3624286D01*
X11409771Y3624286D02*
X11438342Y3681429D01*
X11438342Y3681429D02*
X11466914Y3710000D01*
X11466914Y3710000D02*
X11524057Y3738572D01*
X11524057Y3738572D02*
X11609771Y3738572D01*
X11609771Y3738572D02*
X11666914Y3710000D01*
X11666914Y3710000D02*
X11695485Y3681429D01*
X11695485Y3681429D02*
X11724057Y3624286D01*
X11724057Y3624286D02*
X11724057Y3395715D01*
X12009771Y4310000D02*
X12009771Y3967143D01*
X12009771Y4138572D02*
X11409771Y4138572D01*
X11409771Y4138572D02*
X11495485Y4081429D01*
X11495485Y4081429D02*
X11552628Y4024286D01*
X11552628Y4024286D02*
X11581200Y3967143D01*
X834285Y-8249771D02*
X634285Y-7964057D01*
X491428Y-8249771D02*
X491428Y-7649771D01*
X491428Y-7649771D02*
X719999Y-7649771D01*
X719999Y-7649771D02*
X777142Y-7678342D01*
X777142Y-7678342D02*
X805713Y-7706914D01*
X805713Y-7706914D02*
X834285Y-7764057D01*
X834285Y-7764057D02*
X834285Y-7849771D01*
X834285Y-7849771D02*
X805713Y-7906914D01*
X805713Y-7906914D02*
X777142Y-7935485D01*
X777142Y-7935485D02*
X719999Y-7964057D01*
X719999Y-7964057D02*
X491428Y-7964057D01*
X1405713Y-8249771D02*
X1062856Y-8249771D01*
X1234285Y-8249771D02*
X1234285Y-7649771D01*
X1234285Y-7649771D02*
X1177142Y-7735485D01*
X1177142Y-7735485D02*
X1119999Y-7792628D01*
X1119999Y-7792628D02*
X1062856Y-7821200D01*
X1948571Y-7649771D02*
X1662857Y-7649771D01*
X1662857Y-7649771D02*
X1634285Y-7935485D01*
X1634285Y-7935485D02*
X1662857Y-7906914D01*
X1662857Y-7906914D02*
X1720000Y-7878342D01*
X1720000Y-7878342D02*
X1862857Y-7878342D01*
X1862857Y-7878342D02*
X1920000Y-7906914D01*
X1920000Y-7906914D02*
X1948571Y-7935485D01*
X1948571Y-7935485D02*
X1977142Y-7992628D01*
X1977142Y-7992628D02*
X1977142Y-8135485D01*
X1977142Y-8135485D02*
X1948571Y-8192628D01*
X1948571Y-8192628D02*
X1920000Y-8221200D01*
X1920000Y-8221200D02*
X1862857Y-8249771D01*
X1862857Y-8249771D02*
X1720000Y-8249771D01*
X1720000Y-8249771D02*
X1662857Y-8221200D01*
X1662857Y-8221200D02*
X1634285Y-8192628D01*
X-15049772Y2718572D02*
X-15049772Y2347144D01*
X-15049772Y2347144D02*
X-15278343Y2547144D01*
X-15278343Y2547144D02*
X-15278343Y2461429D01*
X-15278343Y2461429D02*
X-15306915Y2404286D01*
X-15306915Y2404286D02*
X-15335486Y2375715D01*
X-15335486Y2375715D02*
X-15392629Y2347144D01*
X-15392629Y2347144D02*
X-15535486Y2347144D01*
X-15535486Y2347144D02*
X-15592629Y2375715D01*
X-15592629Y2375715D02*
X-15621200Y2404286D01*
X-15621200Y2404286D02*
X-15649772Y2461429D01*
X-15649772Y2461429D02*
X-15649772Y2632858D01*
X-15649772Y2632858D02*
X-15621200Y2690001D01*
X-15621200Y2690001D02*
X-15592629Y2718572D01*
X-15249772Y2147143D02*
X-15649772Y2004286D01*
X-15649772Y2004286D02*
X-15249772Y1861429D01*
X-15049772Y1690000D02*
X-15049772Y1318572D01*
X-15049772Y1318572D02*
X-15278343Y1518572D01*
X-15278343Y1518572D02*
X-15278343Y1432857D01*
X-15278343Y1432857D02*
X-15306915Y1375714D01*
X-15306915Y1375714D02*
X-15335486Y1347143D01*
X-15335486Y1347143D02*
X-15392629Y1318572D01*
X-15392629Y1318572D02*
X-15535486Y1318572D01*
X-15535486Y1318572D02*
X-15592629Y1347143D01*
X-15592629Y1347143D02*
X-15621200Y1375714D01*
X-15621200Y1375714D02*
X-15649772Y1432857D01*
X-15649772Y1432857D02*
X-15649772Y1604286D01*
X-15649772Y1604286D02*
X-15621200Y1661429D01*
X-15621200Y1661429D02*
X-15592629Y1690000D01*
X-15049772Y890000D02*
X-15478343Y890000D01*
X-15478343Y890000D02*
X-15564058Y918571D01*
X-15564058Y918571D02*
X-15621200Y975714D01*
X-15621200Y975714D02*
X-15649772Y1061428D01*
X-15649772Y1061428D02*
X-15649772Y1118571D01*
X-15106915Y632857D02*
X-15078343Y604285D01*
X-15078343Y604285D02*
X-15049772Y547142D01*
X-15049772Y547142D02*
X-15049772Y404285D01*
X-15049772Y404285D02*
X-15078343Y347142D01*
X-15078343Y347142D02*
X-15106915Y318571D01*
X-15106915Y318571D02*
X-15164058Y290000D01*
X-15164058Y290000D02*
X-15221200Y290000D01*
X-15221200Y290000D02*
X-15306915Y318571D01*
X-15306915Y318571D02*
X-15649772Y661428D01*
X-15649772Y661428D02*
X-15649772Y290000D01*
X10520000Y-3319771D02*
X10320000Y-3034057D01*
X10177143Y-3319771D02*
X10177143Y-2719771D01*
X10177143Y-2719771D02*
X10405714Y-2719771D01*
X10405714Y-2719771D02*
X10462857Y-2748342D01*
X10462857Y-2748342D02*
X10491428Y-2776914D01*
X10491428Y-2776914D02*
X10520000Y-2834057D01*
X10520000Y-2834057D02*
X10520000Y-2919771D01*
X10520000Y-2919771D02*
X10491428Y-2976914D01*
X10491428Y-2976914D02*
X10462857Y-3005485D01*
X10462857Y-3005485D02*
X10405714Y-3034057D01*
X10405714Y-3034057D02*
X10177143Y-3034057D01*
X10720000Y-2719771D02*
X11120000Y-2719771D01*
X11120000Y-2719771D02*
X10862857Y-3319771D01*
D12*
%TO.C,C31*%
X12457836Y1030000D02*
X12242164Y1030000D01*
X12457836Y1750000D02*
X12242164Y1750000D01*
%TO.C,C29*%
X9482163Y6440000D02*
X9697836Y6440000D01*
X9482164Y5720000D02*
X9697837Y5720000D01*
%TO.C,C27*%
X-12810000Y15677836D02*
X-12810000Y15462164D01*
X-13530000Y15677836D02*
X-13530000Y15462164D01*
%TO.C,C13*%
X11100000Y-1562164D02*
X11100000Y-1777836D01*
X10380000Y-1562164D02*
X10380000Y-1777836D01*
%TO.C,C10*%
X12447836Y2000000D02*
X12232164Y2000000D01*
X12447836Y2720000D02*
X12232164Y2720000D01*
%TO.C,R1*%
X-5652500Y11312742D02*
X-5652500Y11787258D01*
X-4607500Y11312742D02*
X-4607500Y11787258D01*
%TO.C,C1*%
X-6190000Y11690580D02*
X-6190000Y11409420D01*
X-7210000Y11690580D02*
X-7210000Y11409420D01*
%TO.C,C2*%
X-7190000Y14813733D02*
X-7190000Y15106267D01*
X-6170000Y14813733D02*
X-6170000Y15106267D01*
%TO.C,C30*%
X1602164Y-6810000D02*
X1817836Y-6810000D01*
X1602164Y-7530000D02*
X1817836Y-7530000D01*
%TO.C,D4*%
X-9315000Y-3640000D02*
X-9315000Y3660000D01*
X-3815000Y3660000D02*
X-4965000Y3660000D01*
X-3815000Y-3640000D02*
X-3815000Y3660000D01*
%TO.C,SW4*%
X-12709800Y-18630912D02*
X-10409801Y-14647196D01*
X-10409801Y-14647196D02*
X-6252878Y-17047195D01*
X-8552880Y-21030913D02*
X-12709800Y-18630912D01*
X-6252878Y-17047195D02*
X-8552880Y-21030913D01*
%TO.C,R2*%
X-6734724Y-7227500D02*
X-6225276Y-7227500D01*
X-6734724Y-8272500D02*
X-6225276Y-8272500D01*
%TO.C,SW5*%
X-3450000Y3150000D02*
X-3200000Y3150000D01*
X-3450000Y-3150000D02*
X-3450000Y3150000D01*
X-3200000Y-3150000D02*
X-3450000Y-3150000D01*
X-1300000Y3150000D02*
X1300000Y3150000D01*
X1300000Y-3150000D02*
X-1300000Y-3150000D01*
X3200000Y3150000D02*
X3450000Y3150000D01*
X3450000Y3150000D02*
X3450000Y-3150000D01*
X3450000Y-3150000D02*
X3200000Y-3150000D01*
%TO.C,C21*%
X16523767Y-8170000D02*
X16231233Y-8170000D01*
X16523767Y-9190000D02*
X16231233Y-9190000D01*
%TO.C,MK2*%
X-8692000Y-8805000D02*
X-5292000Y-8805000D01*
X-8692000Y-11655000D02*
X-8692000Y-8805000D01*
X-4992000Y-9105000D02*
X-4992000Y-11655000D01*
X-4992000Y-11655000D02*
X-8692000Y-11655000D01*
X-4712000Y-8805000D02*
X-4992000Y-8805000D01*
X-4992000Y-8525000D01*
X-4712000Y-8805000D01*
G36*
X-4712000Y-8805000D02*
G01*
X-4992000Y-8805000D01*
X-4992000Y-8525000D01*
X-4712000Y-8805000D01*
G37*
%TO.C,C4*%
X-6353733Y-12180000D02*
X-6646267Y-12180000D01*
X-6353733Y-13200000D02*
X-6646267Y-13200000D01*
%TO.C,R12*%
X-12302500Y14915276D02*
X-12302500Y15424724D01*
X-11257500Y14915276D02*
X-11257500Y15424724D01*
%TO.C,C26*%
X-12180000Y-1171233D02*
X-12180000Y-1463767D01*
X-11160000Y-1171233D02*
X-11160000Y-1463767D01*
D13*
%TO.C,SW2*%
X8483366Y15373777D02*
X13957372Y10444962D01*
X8787285Y15711313D02*
X8483366Y15373777D01*
X13573643Y21027102D02*
X10478397Y17589483D01*
X13957372Y10444962D02*
X14261290Y10782497D01*
X15952401Y12660666D02*
X19047650Y16098287D01*
X19047650Y16098287D02*
X13573643Y21027102D01*
D12*
%TO.C,U3*%
X16185000Y-4050000D02*
X16185000Y-4450000D01*
X16185000Y-4450000D02*
X16585000Y-4250000D01*
X16585000Y-4250000D02*
X16185000Y-4050000D01*
X18775000Y10325000D02*
X19375000Y10325000D01*
X18775000Y10215000D02*
X18775000Y10325000D01*
X18775000Y-7215000D02*
X18775000Y-7325000D01*
X18775000Y-7325000D02*
X19375000Y-7325000D01*
%TO.C,C33*%
X7747836Y3898000D02*
X7532164Y3898000D01*
X7747836Y3178000D02*
X7532164Y3178000D01*
%TO.C,C23*%
X10220580Y7950000D02*
X9939420Y7950000D01*
X10220580Y6930000D02*
X9939420Y6930000D01*
%TO.C,R10*%
X-15434724Y7052500D02*
X-14925276Y7052500D01*
X-15434724Y6007500D02*
X-14925276Y6007500D01*
%TO.C,R3*%
X-4472000Y-8894724D02*
X-4472000Y-8385276D01*
X-3427000Y-8894724D02*
X-3427000Y-8385276D01*
%TO.C,C25*%
X-10630000Y-1153733D02*
X-10630000Y-1446267D01*
X-9610000Y-1153733D02*
X-9610000Y-1446267D01*
%TO.C,NC3*%
X6347500Y-2529064D02*
X6347500Y-1074936D01*
X8167500Y-2529064D02*
X8167500Y-1074936D01*
%TO.C,C3*%
X-5620000Y14813733D02*
X-5620000Y15106267D01*
X-4600000Y14813733D02*
X-4600000Y15106267D01*
%TO.C,C24*%
X11646920Y658000D02*
X11928080Y658000D01*
X11646920Y-362000D02*
X11928080Y-362000D01*
%TO.C,U4*%
D14*
X8410000Y6708800D02*
X6682800Y6708800D01*
X6682800Y4168800D01*
X8410000Y4168800D01*
X8410000Y6708800D01*
D12*
%TO.C,JP3*%
X-19795000Y900000D02*
X-16995000Y900000D01*
X-19795000Y-1100000D02*
X-19795000Y900000D01*
X-16995000Y900000D02*
X-16995000Y-1100000D01*
X-16995000Y-1100000D02*
X-19795000Y-1100000D01*
%TO.C,R4*%
X-2882000Y-8365276D02*
X-2882000Y-8874724D01*
X-1837000Y-8365276D02*
X-1837000Y-8874724D01*
%TO.C,P1*%
X-4700000Y-18310000D02*
X-4700000Y-20310000D01*
X-4700000Y-22210000D02*
X-4700000Y-24110000D01*
X-4700000Y-24110000D02*
X4700000Y-24110000D01*
X4700000Y-18310000D02*
X4700000Y-20310000D01*
X4700000Y-22210000D02*
X4700000Y-24110000D01*
%TO.C,C5*%
X-4449500Y-11973733D02*
X-4449500Y-12266267D01*
X-3429500Y-11973733D02*
X-3429500Y-12266267D01*
D13*
%TO.C,SW1*%
X83096Y17506201D02*
X7288132Y15974723D01*
X177530Y17950475D02*
X83096Y17506201D01*
X1664742Y24947263D02*
X702990Y20422573D01*
X7288132Y15974723D02*
X7382565Y16418997D01*
X7908026Y18891095D02*
X8869778Y23415787D01*
X8869778Y23415787D02*
X1664742Y24947263D01*
D12*
%TO.C,C9*%
X12457836Y5360000D02*
X12242164Y5360000D01*
X12457836Y4640000D02*
X12242164Y4640000D01*
%TO.C,JP1*%
X8440000Y4760000D02*
X8440000Y4160000D01*
X8740000Y4460000D02*
X8440000Y4760000D01*
X8740000Y4460000D02*
X8440000Y4160000D01*
X8940000Y1860000D02*
X8940000Y4660000D01*
X9640000Y5310000D02*
X10240000Y5310000D01*
X10240000Y1210000D02*
X9640000Y1210000D01*
X10940000Y4660000D02*
X10940000Y1860000D01*
X8940000Y4610000D02*
G75*
G02*
X9640000Y5310000I699999J1D01*
G01*
X9640000Y1210000D02*
G75*
G02*
X8940000Y1910000I0J700000D01*
G01*
X10240000Y5310000D02*
G75*
G02*
X10940000Y4610000I1J-699999D01*
G01*
X10940000Y1910000D02*
G75*
G02*
X10240000Y1210000I-700000J0D01*
G01*
%TO.C,R15*%
X2307224Y-5337500D02*
X1797776Y-5337500D01*
X2307224Y-6382500D02*
X1797776Y-6382500D01*
%TO.C,R7*%
X8727500Y-1447224D02*
X8727500Y-937776D01*
X9772500Y-1447224D02*
X9772500Y-937776D01*
%TD*%
M02*
