%TF.GenerationSoftware,KiCad,Pcbnew,8.0.5*%
%TF.CreationDate,2025-01-06T18:17:11+01:00*%
%TF.ProjectId,test,74657374-2e6b-4696-9361-645f70636258,rev?*%
%TF.SameCoordinates,Original*%
%TF.FileFunction,Soldermask,Bot*%
%TF.FilePolarity,Negative*%
%FSLAX46Y46*%
G04 Gerber Fmt 4.6, Leading zero omitted, Abs format (unit mm)*
G04 Created by KiCad (PCBNEW 8.0.5) date 2025-01-06 18:17:11*
%MOMM*%
%LPD*%
G01*
G04 APERTURE LIST*
G04 Aperture macros list*
%AMRoundRect*
0 Rectangle with rounded corners*
0 $1 Rounding radius*
0 $2 $3 $4 $5 $6 $7 $8 $9 X,Y pos of 4 corners*
0 Add a 4 corners polygon primitive as box body*
4,1,4,$2,$3,$4,$5,$6,$7,$8,$9,$2,$3,0*
0 Add four circle primitives for the rounded corners*
1,1,$1+$1,$2,$3*
1,1,$1+$1,$4,$5*
1,1,$1+$1,$6,$7*
1,1,$1+$1,$8,$9*
0 Add four rect primitives between the rounded corners*
20,1,$1+$1,$2,$3,$4,$5,0*
20,1,$1+$1,$4,$5,$6,$7,0*
20,1,$1+$1,$6,$7,$8,$9,0*
20,1,$1+$1,$8,$9,$2,$3,0*%
%AMRotRect*
0 Rectangle, with rotation*
0 The origin of the aperture is its center*
0 $1 length*
0 $2 width*
0 $3 Rotation angle, in degrees counterclockwise*
0 Add horizontal line*
21,1,$1,$2,0,0,$3*%
%AMFreePoly0*
4,1,6,0.500000,-0.750000,-0.650000,-0.750000,-0.150000,0.000000,-0.650000,0.750000,0.500000,0.750000,0.500000,-0.750000,0.500000,-0.750000,$1*%
%AMFreePoly1*
4,1,6,1.000000,0.000000,0.500000,-0.750000,-0.500000,-0.750000,-0.500000,0.750000,0.500000,0.750000,1.000000,0.000000,1.000000,0.000000,$1*%
G04 Aperture macros list end*
%ADD10C,0.600000*%
%ADD11R,3.900000X3.900000*%
%ADD12R,1.500000X0.900000*%
%ADD13R,0.900000X1.500000*%
%ADD14C,0.800000*%
%ADD15C,0.500000*%
%ADD16C,1.803400*%
%ADD17C,1.498600*%
%ADD18RoundRect,0.237500X-0.038849X-0.342632X0.344173X-0.021239X0.038849X0.342632X-0.344173X0.021239X0*%
%ADD19RoundRect,0.140000X-0.002028X0.220218X-0.216520X0.040237X0.002028X-0.220218X0.216520X-0.040237X0*%
%ADD20O,1.000000X2.100000*%
%ADD21O,1.000000X1.600000*%
%ADD22C,0.650000*%
%ADD23RoundRect,0.250000X0.312500X0.625000X-0.312500X0.625000X-0.312500X-0.625000X0.312500X-0.625000X0*%
%ADD24RoundRect,0.100000X-0.130000X-0.100000X0.130000X-0.100000X0.130000X0.100000X-0.130000X0.100000X0*%
%ADD25C,2.374900*%
%ADD26C,0.990600*%
%ADD27C,0.991400*%
%ADD28RoundRect,0.237500X-0.237500X0.300000X-0.237500X-0.300000X0.237500X-0.300000X0.237500X0.300000X0*%
%ADD29RoundRect,0.100000X-0.900000X0.900000X-0.900000X-0.900000X0.900000X-0.900000X0.900000X0.900000X0*%
%ADD30FreePoly0,270.000000*%
%ADD31FreePoly1,270.000000*%
%ADD32RoundRect,0.237500X0.237500X-0.250000X0.237500X0.250000X-0.237500X0.250000X-0.237500X-0.250000X0*%
%ADD33FreePoly1,210.000000*%
%ADD34FreePoly0,210.000000*%
%ADD35RoundRect,0.237500X0.237500X-0.300000X0.237500X0.300000X-0.237500X0.300000X-0.237500X-0.300000X0*%
%ADD36RoundRect,0.237500X-0.141058X-0.355681X0.378558X-0.055681X0.141058X0.355681X-0.378558X0.055681X0*%
%ADD37RoundRect,0.225000X-0.250000X0.225000X-0.250000X-0.225000X0.250000X-0.225000X0.250000X0.225000X0*%
%ADD38RoundRect,0.062500X-0.229127X0.271859X0.120873X-0.334359X0.229127X-0.271859X-0.120873X0.334359X0*%
%ADD39RoundRect,0.062500X-0.334359X-0.120873X-0.271859X-0.229127X0.334359X0.120873X0.271859X0.229127X0*%
%ADD40RotRect,1.230000X1.230000X300.000000*%
%ADD41RoundRect,0.237500X-0.250000X-0.237500X0.250000X-0.237500X0.250000X0.237500X-0.250000X0.237500X0*%
%ADD42RoundRect,0.250000X0.625000X-0.312500X0.625000X0.312500X-0.625000X0.312500X-0.625000X-0.312500X0*%
%ADD43RoundRect,0.062500X-0.350000X-0.062500X0.350000X-0.062500X0.350000X0.062500X-0.350000X0.062500X0*%
%ADD44RoundRect,0.062500X-0.062500X-0.350000X0.062500X-0.350000X0.062500X0.350000X-0.062500X0.350000X0*%
%ADD45R,3.600000X3.600000*%
%ADD46RoundRect,0.237500X-0.080681X0.335256X-0.330681X-0.097756X0.080681X-0.335256X0.330681X0.097756X0*%
%ADD47RoundRect,0.237500X-0.300000X-0.237500X0.300000X-0.237500X0.300000X0.237500X-0.300000X0.237500X0*%
%ADD48RoundRect,0.140000X0.077224X-0.206244X0.217224X0.036244X-0.077224X0.206244X-0.217224X-0.036244X0*%
%ADD49RoundRect,0.250000X-0.275000X-0.350000X0.275000X-0.350000X0.275000X0.350000X-0.275000X0.350000X0*%
%ADD50RoundRect,0.100000X0.000000X-1.272792X1.272792X0.000000X0.000000X1.272792X-1.272792X0.000000X0*%
G04 APERTURE END LIST*
D10*
%TO.C,U2*%
X74077500Y-47647000D03*
X74077500Y-46247000D03*
X74777500Y-48347000D03*
X74777500Y-46947000D03*
X74777500Y-45547000D03*
X75477500Y-47647000D03*
D11*
X75477500Y-46947000D03*
D10*
X75477500Y-46247000D03*
X76177500Y-48347000D03*
X76177500Y-46947000D03*
X76177500Y-45547000D03*
X76877500Y-47647000D03*
X76877500Y-46247000D03*
D12*
X65227500Y-39227000D03*
X65227500Y-40497000D03*
X65227500Y-41767000D03*
X65227500Y-43037000D03*
X65227500Y-44307000D03*
X65227500Y-45577000D03*
X65227500Y-46847000D03*
X65227500Y-48117000D03*
X65227500Y-49387000D03*
X65227500Y-50657000D03*
X65227500Y-51927000D03*
X65227500Y-53197000D03*
X65227500Y-54467000D03*
X65227500Y-55737000D03*
D13*
X66992500Y-56987000D03*
X68262500Y-56987000D03*
X69532500Y-56987000D03*
X70802500Y-56987000D03*
X72072500Y-56987000D03*
X73342500Y-56987000D03*
X74612500Y-56987000D03*
X75882500Y-56987000D03*
X77152500Y-56987000D03*
X78422500Y-56987000D03*
X79692500Y-56987000D03*
X80962500Y-56987000D03*
D12*
X82727500Y-55737000D03*
X82727500Y-54467000D03*
X82727500Y-53197000D03*
X82727500Y-51927000D03*
X82727500Y-50657000D03*
X82727500Y-49387000D03*
X82727500Y-48117000D03*
X82727500Y-46847000D03*
X82727500Y-45577000D03*
X82727500Y-44307000D03*
X82727500Y-43037000D03*
X82727500Y-41767000D03*
X82727500Y-40497000D03*
X82727500Y-39227000D03*
%TD*%
D14*
%TO.C,SW4*%
X76292500Y-71821535D03*
X74992500Y-74073201D03*
%TD*%
D15*
%TO.C,MK2*%
X77855500Y-64867000D03*
%TD*%
D16*
%TO.C,SW2*%
X100334583Y-42849049D03*
X95125137Y-38158443D03*
D17*
X101068272Y-40158637D03*
X97724119Y-37147548D03*
%TD*%
D18*
%TO.C,R14*%
X95925984Y-41183544D03*
X97324016Y-40010456D03*
%TD*%
D19*
%TO.C,C29*%
X98065201Y-41108462D03*
X97329799Y-41725538D03*
%TD*%
D20*
%TO.C,P1*%
X81087500Y-71717000D03*
D21*
X81087500Y-75897000D03*
D22*
X82517500Y-72247000D03*
X88297500Y-72247000D03*
D20*
X89727500Y-71717000D03*
D21*
X89727500Y-75897000D03*
%TD*%
D16*
%TO.C,SW1*%
X92863932Y-37014357D03*
X86007116Y-35556897D03*
D17*
X92154119Y-34317548D03*
X87752453Y-33381944D03*
%TD*%
D23*
%TO.C,NC5*%
X103270000Y-59037000D03*
X100345000Y-59037000D03*
%TD*%
D24*
%TO.C,D1*%
X94577500Y-75144500D03*
X95217500Y-75144500D03*
%TD*%
D25*
%TO.C,J2*%
X92227500Y-45277000D03*
D26*
X92227500Y-42737000D03*
D25*
X92227500Y-40197000D03*
X86512500Y-45277000D03*
X86512500Y-40197000D03*
D26*
X84607500Y-43752000D03*
X84607500Y-41722000D03*
D27*
X90957500Y-43372000D03*
X89687500Y-43372000D03*
X88417500Y-43372000D03*
X87147500Y-43372000D03*
X85877500Y-43372000D03*
X85877500Y-42102000D03*
X87147500Y-42102000D03*
X88417500Y-42102000D03*
X89687500Y-42102000D03*
X90957500Y-42102000D03*
%TD*%
D28*
%TO.C,C19*%
X104827500Y-60034500D03*
X104827500Y-61759500D03*
%TD*%
D29*
%TO.C,3v3J1*%
X104977500Y-51693400D03*
X104977500Y-55960600D03*
%TD*%
D30*
%TO.C,JP2*%
X85217500Y-76452000D03*
D31*
X85217500Y-75002000D03*
%TD*%
D32*
%TO.C,R16*%
X92327500Y-75899500D03*
X92327500Y-74074500D03*
%TD*%
D33*
%TO.C,JP4*%
X69863238Y-60911999D03*
D34*
X68607500Y-61637001D03*
%TD*%
D35*
%TO.C,C16*%
X96237500Y-69879500D03*
X96237500Y-68154500D03*
%TD*%
D32*
%TO.C,R11*%
X94887500Y-73827000D03*
X94887500Y-72002000D03*
%TD*%
D36*
%TO.C,C6*%
X73940892Y-61000040D03*
X75434786Y-60137540D03*
%TD*%
%TO.C,C7*%
X75600553Y-63868250D03*
X77094447Y-63005750D03*
%TD*%
D37*
%TO.C,C14*%
X91417500Y-63612000D03*
X91417500Y-65162000D03*
%TD*%
D36*
%TO.C,C8*%
X74787500Y-62437000D03*
X76281394Y-61574500D03*
%TD*%
D38*
%TO.C,U1*%
X70372699Y-63633620D03*
X70805709Y-63383620D03*
X71238724Y-63133619D03*
X71671737Y-62883621D03*
D39*
X72610879Y-63135264D03*
X72860879Y-63568274D03*
X73110880Y-64001289D03*
X73360878Y-64434302D03*
D38*
X73109235Y-65373444D03*
X72676225Y-65623444D03*
X72243210Y-65873445D03*
X71810197Y-66123443D03*
D39*
X70871055Y-65871800D03*
X70621055Y-65438790D03*
X70371054Y-65005775D03*
X70121056Y-64572762D03*
D40*
X71740967Y-64503532D03*
%TD*%
D41*
%TO.C,R9*%
X86207500Y-48437000D03*
X88032500Y-48437000D03*
%TD*%
D42*
%TO.C,NC1*%
X102677500Y-54887000D03*
X102677500Y-51962000D03*
%TD*%
D35*
%TO.C,C15*%
X94607500Y-69889500D03*
X94607500Y-68164500D03*
%TD*%
D43*
%TO.C,U5*%
X93530000Y-65197000D03*
X93530000Y-64797000D03*
X93530000Y-64397000D03*
X93530000Y-63997000D03*
X93530000Y-63597000D03*
X93530000Y-63197000D03*
X93530000Y-62797000D03*
X93530000Y-62397000D03*
X93530000Y-61997000D03*
X93530000Y-61597000D03*
D44*
X94167500Y-60959500D03*
X94567500Y-60959500D03*
X94967500Y-60959500D03*
X95367500Y-60959500D03*
X95767500Y-60959500D03*
X96167500Y-60959500D03*
X96567500Y-60959500D03*
X96967500Y-60959500D03*
X97367500Y-60959500D03*
X97767500Y-60959500D03*
D43*
X98405000Y-61597000D03*
X98405000Y-61997000D03*
X98405000Y-62397000D03*
X98405000Y-62797000D03*
X98405000Y-63197000D03*
X98405000Y-63597000D03*
X98405000Y-63997000D03*
X98405000Y-64397000D03*
X98405000Y-64797000D03*
X98405000Y-65197000D03*
D44*
X97767500Y-65834500D03*
X97367500Y-65834500D03*
X96967500Y-65834500D03*
X96567500Y-65834500D03*
X96167500Y-65834500D03*
X95767500Y-65834500D03*
X95367500Y-65834500D03*
X94967500Y-65834500D03*
X94567500Y-65834500D03*
X94167500Y-65834500D03*
D45*
X95967500Y-63397000D03*
%TD*%
D46*
%TO.C,R13*%
X74903750Y-71226752D03*
X73991250Y-72807248D03*
%TD*%
D47*
%TO.C,C18*%
X94872500Y-58767000D03*
X96597500Y-58767000D03*
%TD*%
D35*
%TO.C,C22*%
X104757500Y-66639500D03*
X104757500Y-64914500D03*
%TD*%
D41*
%TO.C,R8*%
X115105000Y-57907000D03*
X116930000Y-57907000D03*
%TD*%
D48*
%TO.C,C28*%
X76247500Y-73842692D03*
X76727500Y-73011308D03*
%TD*%
D49*
%TO.C,L1*%
X100947500Y-61697000D03*
X103247500Y-61697000D03*
%TD*%
D35*
%TO.C,C17*%
X97707500Y-69877000D03*
X97707500Y-68152000D03*
%TD*%
D50*
%TO.C,BAT1*%
X97784738Y-73151604D03*
X100802104Y-70134238D03*
%TD*%
D49*
%TO.C,L2*%
X100877500Y-64977000D03*
X103177500Y-64977000D03*
%TD*%
D47*
%TO.C,C20*%
X100925000Y-63337000D03*
X102650000Y-63337000D03*
%TD*%
M02*
