%TF.GenerationSoftware,KiCad,Pcbnew,8.0.5*%
%TF.CreationDate,2025-01-06T18:17:11+01:00*%
%TF.ProjectId,test,74657374-2e6b-4696-9361-645f70636258,rev?*%
%TF.SameCoordinates,Original*%
%TF.FileFunction,Copper,L4,Bot*%
%TF.FilePolarity,Positive*%
%FSLAX46Y46*%
G04 Gerber Fmt 4.6, Leading zero omitted, Abs format (unit mm)*
G04 Created by KiCad (PCBNEW 8.0.5) date 2025-01-06 18:17:11*
%MOMM*%
%LPD*%
G01*
G04 APERTURE LIST*
G04 Aperture macros list*
%AMRoundRect*
0 Rectangle with rounded corners*
0 $1 Rounding radius*
0 $2 $3 $4 $5 $6 $7 $8 $9 X,Y pos of 4 corners*
0 Add a 4 corners polygon primitive as box body*
4,1,4,$2,$3,$4,$5,$6,$7,$8,$9,$2,$3,0*
0 Add four circle primitives for the rounded corners*
1,1,$1+$1,$2,$3*
1,1,$1+$1,$4,$5*
1,1,$1+$1,$6,$7*
1,1,$1+$1,$8,$9*
0 Add four rect primitives between the rounded corners*
20,1,$1+$1,$2,$3,$4,$5,0*
20,1,$1+$1,$4,$5,$6,$7,0*
20,1,$1+$1,$6,$7,$8,$9,0*
20,1,$1+$1,$8,$9,$2,$3,0*%
%AMRotRect*
0 Rectangle, with rotation*
0 The origin of the aperture is its center*
0 $1 length*
0 $2 width*
0 $3 Rotation angle, in degrees counterclockwise*
0 Add horizontal line*
21,1,$1,$2,0,0,$3*%
%AMFreePoly0*
4,1,6,0.500000,-0.750000,-0.650000,-0.750000,-0.150000,0.000000,-0.650000,0.750000,0.500000,0.750000,0.500000,-0.750000,0.500000,-0.750000,$1*%
%AMFreePoly1*
4,1,6,1.000000,0.000000,0.500000,-0.750000,-0.500000,-0.750000,-0.500000,0.750000,0.500000,0.750000,1.000000,0.000000,1.000000,0.000000,$1*%
G04 Aperture macros list end*
%TA.AperFunction,HeatsinkPad*%
%ADD10C,0.600000*%
%TD*%
%TA.AperFunction,SMDPad,CuDef*%
%ADD11R,3.900000X3.900000*%
%TD*%
%TA.AperFunction,SMDPad,CuDef*%
%ADD12R,1.500000X0.900000*%
%TD*%
%TA.AperFunction,SMDPad,CuDef*%
%ADD13R,0.900000X1.500000*%
%TD*%
%TA.AperFunction,ComponentPad*%
%ADD14C,1.803400*%
%TD*%
%TA.AperFunction,ComponentPad*%
%ADD15C,1.498600*%
%TD*%
%TA.AperFunction,SMDPad,CuDef*%
%ADD16RoundRect,0.237500X-0.038849X-0.342632X0.344173X-0.021239X0.038849X0.342632X-0.344173X0.021239X0*%
%TD*%
%TA.AperFunction,SMDPad,CuDef*%
%ADD17RoundRect,0.140000X-0.002028X0.220218X-0.216520X0.040237X0.002028X-0.220218X0.216520X-0.040237X0*%
%TD*%
%TA.AperFunction,ComponentPad*%
%ADD18O,1.000000X2.100000*%
%TD*%
%TA.AperFunction,ComponentPad*%
%ADD19O,1.000000X1.600000*%
%TD*%
%TA.AperFunction,SMDPad,CuDef*%
%ADD20RoundRect,0.250000X0.312500X0.625000X-0.312500X0.625000X-0.312500X-0.625000X0.312500X-0.625000X0*%
%TD*%
%TA.AperFunction,SMDPad,CuDef*%
%ADD21RoundRect,0.100000X-0.130000X-0.100000X0.130000X-0.100000X0.130000X0.100000X-0.130000X0.100000X0*%
%TD*%
%TA.AperFunction,SMDPad,CuDef*%
%ADD22C,0.787400*%
%TD*%
%TA.AperFunction,SMDPad,CuDef*%
%ADD23RoundRect,0.237500X-0.237500X0.300000X-0.237500X-0.300000X0.237500X-0.300000X0.237500X0.300000X0*%
%TD*%
%TA.AperFunction,SMDPad,CuDef*%
%ADD24RoundRect,0.100000X-0.900000X0.900000X-0.900000X-0.900000X0.900000X-0.900000X0.900000X0.900000X0*%
%TD*%
%TA.AperFunction,SMDPad,CuDef*%
%ADD25FreePoly0,270.000000*%
%TD*%
%TA.AperFunction,SMDPad,CuDef*%
%ADD26FreePoly1,270.000000*%
%TD*%
%TA.AperFunction,SMDPad,CuDef*%
%ADD27RoundRect,0.237500X0.237500X-0.250000X0.237500X0.250000X-0.237500X0.250000X-0.237500X-0.250000X0*%
%TD*%
%TA.AperFunction,SMDPad,CuDef*%
%ADD28FreePoly1,210.000000*%
%TD*%
%TA.AperFunction,SMDPad,CuDef*%
%ADD29FreePoly0,210.000000*%
%TD*%
%TA.AperFunction,SMDPad,CuDef*%
%ADD30RoundRect,0.237500X0.237500X-0.300000X0.237500X0.300000X-0.237500X0.300000X-0.237500X-0.300000X0*%
%TD*%
%TA.AperFunction,SMDPad,CuDef*%
%ADD31RoundRect,0.237500X-0.141058X-0.355681X0.378558X-0.055681X0.141058X0.355681X-0.378558X0.055681X0*%
%TD*%
%TA.AperFunction,SMDPad,CuDef*%
%ADD32RoundRect,0.225000X-0.250000X0.225000X-0.250000X-0.225000X0.250000X-0.225000X0.250000X0.225000X0*%
%TD*%
%TA.AperFunction,SMDPad,CuDef*%
%ADD33RoundRect,0.062500X-0.229127X0.271859X0.120873X-0.334359X0.229127X-0.271859X-0.120873X0.334359X0*%
%TD*%
%TA.AperFunction,SMDPad,CuDef*%
%ADD34RoundRect,0.062500X-0.334359X-0.120873X-0.271859X-0.229127X0.334359X0.120873X0.271859X0.229127X0*%
%TD*%
%TA.AperFunction,HeatsinkPad*%
%ADD35RotRect,1.230000X1.230000X300.000000*%
%TD*%
%TA.AperFunction,SMDPad,CuDef*%
%ADD36RoundRect,0.237500X-0.250000X-0.237500X0.250000X-0.237500X0.250000X0.237500X-0.250000X0.237500X0*%
%TD*%
%TA.AperFunction,SMDPad,CuDef*%
%ADD37RoundRect,0.250000X0.625000X-0.312500X0.625000X0.312500X-0.625000X0.312500X-0.625000X-0.312500X0*%
%TD*%
%TA.AperFunction,SMDPad,CuDef*%
%ADD38RoundRect,0.062500X-0.350000X-0.062500X0.350000X-0.062500X0.350000X0.062500X-0.350000X0.062500X0*%
%TD*%
%TA.AperFunction,SMDPad,CuDef*%
%ADD39RoundRect,0.062500X-0.062500X-0.350000X0.062500X-0.350000X0.062500X0.350000X-0.062500X0.350000X0*%
%TD*%
%TA.AperFunction,HeatsinkPad*%
%ADD40R,3.600000X3.600000*%
%TD*%
%TA.AperFunction,SMDPad,CuDef*%
%ADD41RoundRect,0.237500X-0.080681X0.335256X-0.330681X-0.097756X0.080681X-0.335256X0.330681X0.097756X0*%
%TD*%
%TA.AperFunction,SMDPad,CuDef*%
%ADD42RoundRect,0.237500X-0.300000X-0.237500X0.300000X-0.237500X0.300000X0.237500X-0.300000X0.237500X0*%
%TD*%
%TA.AperFunction,SMDPad,CuDef*%
%ADD43RoundRect,0.140000X0.077224X-0.206244X0.217224X0.036244X-0.077224X0.206244X-0.217224X-0.036244X0*%
%TD*%
%TA.AperFunction,SMDPad,CuDef*%
%ADD44RoundRect,0.250000X-0.275000X-0.350000X0.275000X-0.350000X0.275000X0.350000X-0.275000X0.350000X0*%
%TD*%
%TA.AperFunction,SMDPad,CuDef*%
%ADD45RoundRect,0.100000X0.000000X-1.272792X1.272792X0.000000X0.000000X1.272792X-1.272792X0.000000X0*%
%TD*%
%TA.AperFunction,ViaPad*%
%ADD46C,0.350000*%
%TD*%
%TA.AperFunction,ViaPad*%
%ADD47C,0.800000*%
%TD*%
%TA.AperFunction,Conductor*%
%ADD48C,0.250000*%
%TD*%
%TA.AperFunction,Conductor*%
%ADD49C,0.500000*%
%TD*%
%TA.AperFunction,Conductor*%
%ADD50C,0.200000*%
%TD*%
%TA.AperFunction,Conductor*%
%ADD51C,0.400000*%
%TD*%
%TA.AperFunction,Conductor*%
%ADD52C,0.160000*%
%TD*%
%TA.AperFunction,Conductor*%
%ADD53C,1.000000*%
%TD*%
G04 APERTURE END LIST*
D10*
%TO.P,U2,41,GND*%
%TO.N,GND*%
X74077500Y-47647000D03*
X74077500Y-46247000D03*
X74777500Y-48347000D03*
X74777500Y-46947000D03*
X74777500Y-45547000D03*
X75477500Y-47647000D03*
D11*
X75477500Y-46947000D03*
D10*
X75477500Y-46247000D03*
X76177500Y-48347000D03*
X76177500Y-46947000D03*
X76177500Y-45547000D03*
X76877500Y-47647000D03*
X76877500Y-46247000D03*
D12*
%TO.P,U2,40,GND*%
X65227500Y-39227000D03*
%TO.P,U2,39,IO1*%
%TO.N,SW_L3*%
X65227500Y-40497000D03*
%TO.P,U2,38,IO2*%
%TO.N,SW_L2*%
X65227500Y-41767000D03*
%TO.P,U2,37,TXD0*%
%TO.N,TXD*%
X65227500Y-43037000D03*
%TO.P,U2,36,RXD0*%
%TO.N,RXD*%
X65227500Y-44307000D03*
%TO.P,U2,35,IO42*%
%TO.N,CAM_RESET*%
X65227500Y-45577000D03*
%TO.P,U2,34,IO41*%
%TO.N,CAM_VSYNC*%
X65227500Y-46847000D03*
%TO.P,U2,33,IO40*%
%TO.N,PMIC_IRQ*%
X65227500Y-48117000D03*
%TO.P,U2,32,IO39*%
%TO.N,I2SDAT_MIC*%
X65227500Y-49387000D03*
%TO.P,U2,31,IO38*%
%TO.N,I2SDAT_AMP*%
X65227500Y-50657000D03*
%TO.P,U2,30,IO37*%
%TO.N,unconnected-(U2-IO37-Pad30)*%
X65227500Y-51927000D03*
%TO.P,U2,29,IO36*%
%TO.N,unconnected-(U2-IO36-Pad29)*%
X65227500Y-53197000D03*
%TO.P,U2,28,IO35*%
%TO.N,unconnected-(U2-IO35-Pad28)*%
X65227500Y-54467000D03*
%TO.P,U2,27,IO0*%
%TO.N,GPIO0*%
X65227500Y-55737000D03*
D13*
%TO.P,U2,26,IO45*%
%TO.N,BCLK_MIC*%
X66992500Y-56987000D03*
%TO.P,U2,25,IO48*%
%TO.N,Net-(JP3-A)*%
X68262500Y-56987000D03*
%TO.P,U2,24,IO47*%
%TO.N,SW_L1*%
X69532500Y-56987000D03*
%TO.P,U2,23,IO21*%
%TO.N,WS_MIC*%
X70802500Y-56987000D03*
%TO.P,U2,22,IO14*%
%TO.N,SDMODE_AMP*%
X72072500Y-56987000D03*
%TO.P,U2,21,IO13*%
%TO.N,BCLK_AMP*%
X73342500Y-56987000D03*
%TO.P,U2,20,IO12*%
%TO.N,WS_AMP*%
X74612500Y-56987000D03*
%TO.P,U2,19,IO11*%
%TO.N,LEDCNTRL*%
X75882500Y-56987000D03*
%TO.P,U2,18,IO10*%
%TO.N,CAM_MCLK*%
X77152500Y-56987000D03*
%TO.P,U2,17,IO9*%
%TO.N,CAM_PCLK*%
X78422500Y-56987000D03*
%TO.P,U2,16,IO46*%
%TO.N,GPIO46*%
X79692500Y-56987000D03*
%TO.P,U2,15,IO3*%
%TO.N,CAM_Y7*%
X80962500Y-56987000D03*
D12*
%TO.P,U2,14,IO20*%
%TO.N,CAM_Y6*%
X82727500Y-55737000D03*
%TO.P,U2,13,IO19*%
%TO.N,CAM_Y5*%
X82727500Y-54467000D03*
%TO.P,U2,12,IO8*%
%TO.N,CAM_HREF*%
X82727500Y-53197000D03*
%TO.P,U2,11,IO18*%
%TO.N,CAM_Y3*%
X82727500Y-51927000D03*
%TO.P,U2,10,IO17*%
%TO.N,CAM_Y2*%
X82727500Y-50657000D03*
%TO.P,U2,9,IO16*%
%TO.N,CAM_PWDN*%
X82727500Y-49387000D03*
%TO.P,U2,8,IO15*%
%TO.N,CAM_SDA*%
X82727500Y-48117000D03*
%TO.P,U2,7,IO7*%
%TO.N,CAM_SCL*%
X82727500Y-46847000D03*
%TO.P,U2,6,IO6*%
%TO.N,CAM_Y9*%
X82727500Y-45577000D03*
%TO.P,U2,5,IO5*%
%TO.N,CAM_Y8*%
X82727500Y-44307000D03*
%TO.P,U2,4,IO4*%
%TO.N,CAM_Y4*%
X82727500Y-43037000D03*
%TO.P,U2,3,EN*%
%TO.N,EN*%
X82727500Y-41767000D03*
%TO.P,U2,2,3V3*%
%TO.N,+3V3*%
X82727500Y-40497000D03*
%TO.P,U2,1,GND*%
%TO.N,GND*%
X82727500Y-39227000D03*
%TD*%
D14*
%TO.P,SW2,*%
%TO.N,*%
X100334583Y-42849049D03*
X95125137Y-38158443D03*
D15*
%TO.P,SW2,1,1*%
%TO.N,GND*%
X101068272Y-40158637D03*
%TO.P,SW2,2,2*%
%TO.N,SW_L2*%
X97724119Y-37147548D03*
%TD*%
D16*
%TO.P,R14,1*%
%TO.N,+3V3*%
X95925984Y-41183544D03*
%TO.P,R14,2*%
%TO.N,SW_L2*%
X97324016Y-40010456D03*
%TD*%
D17*
%TO.P,C29,1*%
%TO.N,SW_L2*%
X98065201Y-41108462D03*
%TO.P,C29,2*%
%TO.N,GND*%
X97329799Y-41725538D03*
%TD*%
D18*
%TO.P,P1,*%
%TO.N,*%
X81087500Y-71717000D03*
D19*
X81087500Y-75897000D03*
D18*
X89727500Y-71717000D03*
D19*
%TO.P,P1,S1,SHIELD*%
%TO.N,Net-(P1-SHIELD)*%
X89727500Y-75897000D03*
%TD*%
D14*
%TO.P,SW1,*%
%TO.N,*%
X92863932Y-37014357D03*
X86007116Y-35556897D03*
D15*
%TO.P,SW1,1,1*%
%TO.N,GND*%
X92154119Y-34317548D03*
%TO.P,SW1,2,2*%
%TO.N,SW_L3*%
X87752453Y-33381944D03*
%TD*%
D20*
%TO.P,NC5,1*%
%TO.N,Net-(U5-FB1)*%
X103270000Y-59037000D03*
%TO.P,NC5,2*%
%TO.N,+3V3*%
X100345000Y-59037000D03*
%TD*%
D21*
%TO.P,D1,1,K*%
%TO.N,Net-(D1-K)*%
X94577500Y-75144500D03*
%TO.P,D1,2,A*%
%TO.N,Net-(D1-A)*%
X95217500Y-75144500D03*
%TD*%
D22*
%TO.P,J2,1,Pin_1*%
%TO.N,GND*%
X90957500Y-43372000D03*
%TO.P,J2,2,Pin_2*%
%TO.N,+3V3*%
X89687500Y-43372000D03*
%TO.P,J2,3,Pin_3*%
%TO.N,VSYS*%
X88417500Y-43372000D03*
%TO.P,J2,4,Pin_4*%
%TO.N,GPIO46*%
X87147500Y-43372000D03*
%TO.P,J2,5,Pin_5*%
%TO.N,GPIO0*%
X85877500Y-43372000D03*
%TO.P,J2,6,Pin_6*%
%TO.N,EN*%
X85877500Y-42102000D03*
%TO.P,J2,7,Pin_7*%
%TO.N,RXD*%
X87147500Y-42102000D03*
%TO.P,J2,8,Pin_8*%
%TO.N,TXD*%
X88417500Y-42102000D03*
%TO.P,J2,9,Pin_9*%
%TO.N,GND*%
X89687500Y-42102000D03*
%TO.P,J2,10,Pin_10*%
X90957500Y-42102000D03*
%TD*%
D23*
%TO.P,C19,1*%
%TO.N,GND*%
X104827500Y-60034500D03*
%TO.P,C19,2*%
%TO.N,Net-(U5-FB1)*%
X104827500Y-61759500D03*
%TD*%
D24*
%TO.P,3v3J1,1,Pin_1*%
%TO.N,GND*%
X104977500Y-51693400D03*
%TO.P,3v3J1,2,Pin_2*%
%TO.N,+3V3*%
X104977500Y-55960600D03*
%TD*%
D25*
%TO.P,JP2,2,B*%
%TO.N,PMIC_PWRON*%
X85217500Y-76452000D03*
D26*
%TO.P,JP2,1,A*%
%TO.N,Net-(JP2-A)*%
X85217500Y-75002000D03*
%TD*%
D27*
%TO.P,R16,1*%
%TO.N,Net-(P1-SHIELD)*%
X92327500Y-75899500D03*
%TO.P,R16,2*%
%TO.N,GND*%
X92327500Y-74074500D03*
%TD*%
D28*
%TO.P,JP4,1,A*%
%TO.N,GND*%
X69863238Y-60911999D03*
D29*
%TO.P,JP4,2,B*%
%TO.N,Net-(JP4-B)*%
X68607500Y-61637001D03*
%TD*%
D30*
%TO.P,C16,1*%
%TO.N,GND*%
X96237500Y-69879500D03*
%TO.P,C16,2*%
%TO.N,VSYS*%
X96237500Y-68154500D03*
%TD*%
D27*
%TO.P,R11,1*%
%TO.N,Net-(D1-A)*%
X94887500Y-73827000D03*
%TO.P,R11,2*%
%TO.N,VSYS*%
X94887500Y-72002000D03*
%TD*%
D31*
%TO.P,C6,1*%
%TO.N,VSYS*%
X73940892Y-61000040D03*
%TO.P,C6,2*%
%TO.N,GND*%
X75434786Y-60137540D03*
%TD*%
%TO.P,C7,1*%
%TO.N,VSYS*%
X75600553Y-63868250D03*
%TO.P,C7,2*%
%TO.N,GND*%
X77094447Y-63005750D03*
%TD*%
D32*
%TO.P,C14,1*%
%TO.N,GND*%
X91417500Y-63612000D03*
%TO.P,C14,2*%
%TO.N,Net-(U5-VREF)*%
X91417500Y-65162000D03*
%TD*%
D31*
%TO.P,C8,1*%
%TO.N,VSYS*%
X74787500Y-62437000D03*
%TO.P,C8,2*%
%TO.N,GND*%
X76281394Y-61574500D03*
%TD*%
D33*
%TO.P,U1,1,DIN*%
%TO.N,I2SDAT_AMP*%
X70372699Y-63633620D03*
%TO.P,U1,2,GAIN_SLOT*%
%TO.N,Net-(JP4-B)*%
X70805709Y-63383620D03*
%TO.P,U1,3,GND*%
%TO.N,GND*%
X71238724Y-63133619D03*
%TO.P,U1,4,~{SD_MODE}*%
%TO.N,SDMODE_AMP*%
X71671737Y-62883621D03*
D34*
%TO.P,U1,5,NC*%
%TO.N,unconnected-(U1-NC-Pad5)*%
X72610879Y-63135264D03*
%TO.P,U1,6,NC*%
%TO.N,unconnected-(U1-NC-Pad6)*%
X72860879Y-63568274D03*
%TO.P,U1,7,VDD*%
%TO.N,VSYS*%
X73110880Y-64001289D03*
%TO.P,U1,8,VDD*%
X73360878Y-64434302D03*
D33*
%TO.P,U1,9,OUTP*%
%TO.N,SPK_P*%
X73109235Y-65373444D03*
%TO.P,U1,10,OUTN*%
%TO.N,SPK_N*%
X72676225Y-65623444D03*
%TO.P,U1,11,GND*%
%TO.N,GND*%
X72243210Y-65873445D03*
%TO.P,U1,12,NC*%
%TO.N,unconnected-(U1-NC-Pad12)*%
X71810197Y-66123443D03*
D34*
%TO.P,U1,13,NC*%
%TO.N,unconnected-(U1-NC-Pad13)*%
X70871055Y-65871800D03*
%TO.P,U1,14,LRCLK*%
%TO.N,WS_AMP*%
X70621055Y-65438790D03*
%TO.P,U1,15,GND*%
%TO.N,GND*%
X70371054Y-65005775D03*
%TO.P,U1,16,BCLK*%
%TO.N,BCLK_AMP*%
X70121056Y-64572762D03*
D35*
%TO.P,U1,17,PAD*%
%TO.N,unconnected-(U1-PAD-Pad17)*%
X71740967Y-64503532D03*
%TD*%
D36*
%TO.P,R9,1*%
%TO.N,CAM_SDA*%
X86207500Y-48437000D03*
%TO.P,R9,2*%
%TO.N,+3V3*%
X88032500Y-48437000D03*
%TD*%
D37*
%TO.P,NC1,1*%
%TO.N,CAM_PWDN*%
X102677500Y-54887000D03*
%TO.P,NC1,2*%
%TO.N,GND*%
X102677500Y-51962000D03*
%TD*%
D30*
%TO.P,C15,1*%
%TO.N,GND*%
X94607500Y-69889500D03*
%TO.P,C15,2*%
%TO.N,VBUS*%
X94607500Y-68164500D03*
%TD*%
D38*
%TO.P,U5,1,CHGLED*%
%TO.N,Net-(D1-K)*%
X93530000Y-65197000D03*
%TO.P,U5,2,VREF*%
%TO.N,Net-(U5-VREF)*%
X93530000Y-64797000D03*
%TO.P,U5,3,GND*%
%TO.N,GND*%
X93530000Y-64397000D03*
%TO.P,U5,4,FB3*%
%TO.N,unconnected-(U5-FB3-Pad4)*%
X93530000Y-63997000D03*
%TO.P,U5,5,LX3*%
%TO.N,unconnected-(U5-LX3-Pad5)*%
X93530000Y-63597000D03*
%TO.P,U5,6,VIN3*%
%TO.N,unconnected-(U5-VIN3-Pad6)*%
X93530000Y-63197000D03*
%TO.P,U5,7,VIN4*%
%TO.N,unconnected-(U5-VIN4-Pad7)*%
X93530000Y-62797000D03*
%TO.P,U5,8,LX4*%
%TO.N,unconnected-(U5-LX4-Pad8)*%
X93530000Y-62397000D03*
%TO.P,U5,9,FB4*%
%TO.N,unconnected-(U5-FB4-Pad9)*%
X93530000Y-61997000D03*
%TO.P,U5,10,CPULDOS*%
%TO.N,unconnected-(U5-CPULDOS-Pad10)*%
X93530000Y-61597000D03*
D39*
%TO.P,U5,11,DLDO2/DC4SW*%
%TO.N,unconnected-(U5-DLDO2{slash}DC4SW-Pad11)*%
X94167500Y-60959500D03*
%TO.P,U5,12,BLDO1*%
%TO.N,unconnected-(U5-BLDO1-Pad12)*%
X94567500Y-60959500D03*
%TO.P,U5,13,BLDOIN*%
%TO.N,unconnected-(U5-BLDOIN-Pad13)*%
X94967500Y-60959500D03*
%TO.P,U5,14,BLDO2*%
%TO.N,unconnected-(U5-BLDO2-Pad14)*%
X95367500Y-60959500D03*
%TO.P,U5,15,ALDO4*%
%TO.N,unconnected-(U5-ALDO4-Pad15)*%
X95767500Y-60959500D03*
%TO.P,U5,16,ALDO3*%
%TO.N,unconnected-(U5-ALDO3-Pad16)*%
X96167500Y-60959500D03*
%TO.P,U5,17,ALDOIN*%
%TO.N,VSYS*%
X96567500Y-60959500D03*
%TO.P,U5,18,ALDO1*%
%TO.N,+1V5*%
X96967500Y-60959500D03*
%TO.P,U5,19,ALDO2*%
%TO.N,+2V8*%
X97367500Y-60959500D03*
%TO.P,U5,20,DLDO1/DC1SW*%
%TO.N,unconnected-(U5-DLDO1{slash}DC1SW-Pad20)*%
X97767500Y-60959500D03*
D38*
%TO.P,U5,21,FB1*%
%TO.N,Net-(U5-FB1)*%
X98405000Y-61597000D03*
%TO.P,U5,22,LX1*%
%TO.N,Net-(U5-LX1)*%
X98405000Y-61997000D03*
%TO.P,U5,23,VIN1*%
%TO.N,VSYS*%
X98405000Y-62397000D03*
%TO.P,U5,24,VIN2*%
X98405000Y-62797000D03*
%TO.P,U5,25,LX2*%
%TO.N,Net-(U5-LX2)*%
X98405000Y-63197000D03*
%TO.P,U5,26,FB2*%
%TO.N,+3V3CAM*%
X98405000Y-63597000D03*
%TO.P,U5,27,VBACKUP*%
%TO.N,unconnected-(U5-VBACKUP-Pad27)*%
X98405000Y-63997000D03*
%TO.P,U5,28,VRTC*%
%TO.N,unconnected-(U5-VRTC-Pad28)*%
X98405000Y-64397000D03*
%TO.P,U5,29,PWROK*%
%TO.N,unconnected-(U5-PWROK-Pad29)*%
X98405000Y-64797000D03*
%TO.P,U5,30,PWRON*%
%TO.N,PMIC_PWRON*%
X98405000Y-65197000D03*
D39*
%TO.P,U5,31,TS*%
%TO.N,unconnected-(U5-TS-Pad31)*%
X97767500Y-65834500D03*
%TO.P,U5,32,GPIO1/FB5/RTC/LDO2*%
%TO.N,unconnected-(U5-GPIO1{slash}FB5{slash}RTC{slash}LDO2-Pad32)*%
X97367500Y-65834500D03*
%TO.P,U5,33,BAT*%
%TO.N,VBAT*%
X96967500Y-65834500D03*
%TO.P,U5,34,VSYS*%
%TO.N,VSYS*%
X96567500Y-65834500D03*
%TO.P,U5,35,SW*%
%TO.N,unconnected-(U5-SW-Pad35)*%
X96167500Y-65834500D03*
%TO.P,U5,36,VMID*%
%TO.N,VSYS*%
X95767500Y-65834500D03*
%TO.P,U5,37,VBUS*%
%TO.N,VBUS*%
X95367500Y-65834500D03*
%TO.P,U5,38,IRQ*%
%TO.N,PMIC_IRQ*%
X94967500Y-65834500D03*
%TO.P,U5,39,SDA*%
%TO.N,CAM_SDA*%
X94567500Y-65834500D03*
%TO.P,U5,40,SCK*%
%TO.N,CAM_SCL*%
X94167500Y-65834500D03*
D40*
%TO.P,U5,41,EP*%
%TO.N,GND*%
X95967500Y-63397000D03*
%TD*%
D41*
%TO.P,R13,1*%
%TO.N,+3V3*%
X74903750Y-71226752D03*
%TO.P,R13,2*%
%TO.N,Net-(JP2-A)*%
X73991250Y-72807248D03*
%TD*%
D42*
%TO.P,C18,1*%
%TO.N,GND*%
X94872500Y-58767000D03*
%TO.P,C18,2*%
%TO.N,VSYS*%
X96597500Y-58767000D03*
%TD*%
D30*
%TO.P,C22,1*%
%TO.N,GND*%
X104757500Y-66639500D03*
%TO.P,C22,2*%
%TO.N,+3V3CAM*%
X104757500Y-64914500D03*
%TD*%
D36*
%TO.P,R8,1*%
%TO.N,CAM_SCL*%
X115105000Y-57907000D03*
%TO.P,R8,2*%
%TO.N,+3V3*%
X116930000Y-57907000D03*
%TD*%
D43*
%TO.P,C28,1*%
%TO.N,Net-(JP2-A)*%
X76247500Y-73842692D03*
%TO.P,C28,2*%
%TO.N,GND*%
X76727500Y-73011308D03*
%TD*%
D44*
%TO.P,L1,1,1*%
%TO.N,Net-(U5-LX1)*%
X100947500Y-61697000D03*
%TO.P,L1,2,2*%
%TO.N,Net-(U5-FB1)*%
X103247500Y-61697000D03*
%TD*%
D30*
%TO.P,C17,1*%
%TO.N,GND*%
X97707500Y-69877000D03*
%TO.P,C17,2*%
%TO.N,VSYS*%
X97707500Y-68152000D03*
%TD*%
D45*
%TO.P,BAT1,1,Pin_1*%
%TO.N,GND*%
X97784738Y-73151604D03*
%TO.P,BAT1,2,Pin_2*%
%TO.N,VBAT*%
X100802104Y-70134238D03*
%TD*%
D44*
%TO.P,L2,1,1*%
%TO.N,Net-(U5-LX2)*%
X100877500Y-64977000D03*
%TO.P,L2,2,2*%
%TO.N,+3V3CAM*%
X103177500Y-64977000D03*
%TD*%
D42*
%TO.P,C20,1*%
%TO.N,VSYS*%
X100925000Y-63337000D03*
%TO.P,C20,2*%
%TO.N,GND*%
X102650000Y-63337000D03*
%TD*%
D46*
%TO.N,LEDCNTRL*%
X75877500Y-52917000D03*
%TO.N,SW_L1*%
X69587500Y-58067000D03*
%TO.N,+3V3*%
X75367500Y-70557000D03*
X82257500Y-65887000D03*
%TO.N,PMIC_PWRON*%
X83097500Y-77227000D03*
%TO.N,Net-(JP2-A)*%
X76067500Y-74707000D03*
%TO.N,GND*%
X81467500Y-68547000D03*
%TO.N,SPK_N*%
X73367500Y-67407000D03*
%TO.N,WS_AMP*%
X71227500Y-66437000D03*
%TO.N,BCLK_AMP*%
X69507500Y-64567000D03*
%TO.N,GND*%
X78767500Y-72817000D03*
X77117500Y-72597000D03*
X75287500Y-54167000D03*
X73737500Y-54167000D03*
X71697500Y-53407000D03*
%TO.N,I2SDAT_MIC*%
X66667500Y-49387000D03*
%TO.N,GPIO0*%
X78707500Y-45337000D03*
X84427500Y-45097000D03*
%TO.N,GND*%
X97797500Y-42187000D03*
%TO.N,+3V3*%
X95317500Y-41787000D03*
X72753583Y-40379524D03*
%TO.N,GND*%
X71627500Y-39507000D03*
%TO.N,RXD*%
X88117500Y-41007000D03*
X77427500Y-41397000D03*
%TO.N,TXD*%
X88817500Y-40997000D03*
X76367500Y-40247000D03*
%TO.N,GND*%
X80497500Y-53177000D03*
X83737500Y-39237000D03*
X97177500Y-57397000D03*
X96117500Y-57397000D03*
D47*
X81257500Y-69897000D03*
D46*
X77857500Y-43957000D03*
X77987500Y-38807000D03*
X72517500Y-66727000D03*
X69137500Y-60127000D03*
X92017500Y-51107000D03*
X97707500Y-70777000D03*
D47*
X102677500Y-50847000D03*
D46*
X90597500Y-63607000D03*
X76837500Y-65537000D03*
X77887500Y-63477000D03*
X80517500Y-51137000D03*
D47*
X82167500Y-69547000D03*
D46*
X81457500Y-61687000D03*
D47*
X104807500Y-58837000D03*
D46*
X88697500Y-58607000D03*
X96667500Y-52387000D03*
X101807500Y-58437000D03*
X92037500Y-49867000D03*
X88147500Y-61807000D03*
D47*
X89577500Y-69867000D03*
D46*
X78007500Y-61657000D03*
X69847500Y-65387000D03*
D47*
X104967500Y-50077000D03*
D46*
X96667500Y-53297000D03*
D47*
X96687500Y-74237000D03*
D46*
X77267500Y-67327000D03*
X97287500Y-48877000D03*
X66307500Y-39227000D03*
X95677500Y-54487000D03*
X94787500Y-70717000D03*
X95947500Y-48577000D03*
X76147500Y-59747000D03*
X98217500Y-57397000D03*
X76667500Y-62287000D03*
D47*
X96747500Y-72137000D03*
X88677500Y-69527000D03*
D46*
X64127500Y-39227000D03*
X81697500Y-39237000D03*
X97067500Y-47197000D03*
X81007497Y-38816997D03*
X94867500Y-59577000D03*
D47*
X98807500Y-72137000D03*
D46*
X96247500Y-70757000D03*
X92337500Y-73217000D03*
%TO.N,EN*%
X81607500Y-41767000D03*
%TO.N,+3V3*%
X81427500Y-40547000D03*
%TO.N,VSYS*%
X75897500Y-64817000D03*
X100117500Y-62787000D03*
%TO.N,+2V8*%
X99807500Y-57437000D03*
D47*
%TO.N,VBUS*%
X92127500Y-68167000D03*
X93297500Y-68157000D03*
D46*
%TO.N,SPK_P*%
X77027500Y-69097000D03*
%TO.N,CAM_PWDN*%
X88807500Y-51837000D03*
X84807500Y-49637000D03*
X101607500Y-55437000D03*
%TO.N,CAM_RESET*%
X93007500Y-55837000D03*
X99007500Y-55637000D03*
%TO.N,PMIC_PWRON*%
X98937500Y-65847000D03*
%TO.N,CAM_SCL*%
X102007500Y-57437000D03*
%TO.N,BCLK_AMP*%
X72047500Y-62217000D03*
%TO.N,WS_AMP*%
X72967500Y-62397000D03*
%TO.N,CAM_Y3*%
X98407500Y-48237000D03*
X84207500Y-51837000D03*
%TO.N,BCLK_MIC*%
X70377500Y-59517000D03*
%TO.N,CAM_Y5*%
X99407500Y-49437000D03*
X91407500Y-52637000D03*
X84207500Y-54437000D03*
%TO.N,CAM_Y6*%
X99407500Y-50437000D03*
X91807500Y-53437000D03*
X84207500Y-55837000D03*
%TO.N,WS_MIC*%
X71487500Y-60127000D03*
%TO.N,CAM_Y4*%
X81607500Y-43037000D03*
X99607500Y-48237000D03*
%TO.N,CAM_Y8*%
X81407500Y-44437000D03*
X97807500Y-48637000D03*
X99607500Y-52437000D03*
%TO.N,CAM_VSYNC*%
X99807500Y-55837000D03*
X67607500Y-46837000D03*
%TO.N,CAM_Y9*%
X102007500Y-53437000D03*
X80407500Y-46437000D03*
%TO.N,CAM_HREF*%
X93607500Y-53637000D03*
X84807500Y-53437000D03*
X99207500Y-54837000D03*
%TO.N,CAM_Y7*%
X85207500Y-57037000D03*
X91007500Y-55437000D03*
X99607500Y-51437000D03*
%TO.N,+1V5*%
X97807500Y-58437000D03*
X99807500Y-54437000D03*
%TO.N,Net-(JP3-A)*%
X68267500Y-55937000D03*
%TD*%
D48*
%TO.N,LEDCNTRL*%
X75882500Y-52929071D02*
X75877500Y-52917000D01*
X75882500Y-56987000D02*
X75882500Y-52929071D01*
%TO.N,SW_L1*%
X69532500Y-57934219D02*
G75*
G03*
X69587505Y-58066995I187800J19D01*
G01*
X69532500Y-56987000D02*
X69532500Y-57934219D01*
D49*
%TO.N,GND*%
X75756960Y-60137540D02*
X76147500Y-59747000D01*
X75434786Y-60137540D02*
X75756960Y-60137540D01*
D48*
%TO.N,+3V3*%
X75049415Y-70875084D02*
X75367500Y-70557000D01*
X74903750Y-71226752D02*
G75*
G02*
X75049436Y-70875105I497350J-48D01*
G01*
%TO.N,PMIC_PWRON*%
X83734129Y-76452000D02*
X85217500Y-76452000D01*
X83097500Y-77227000D02*
X83099741Y-77224759D01*
X83287500Y-76637000D02*
G75*
G02*
X83734129Y-76452012I446600J-446600D01*
G01*
X83099741Y-77010592D02*
G75*
G02*
X83287527Y-76637027I673559J-104608D01*
G01*
X83099741Y-77224759D02*
X83099741Y-77010592D01*
%TO.N,Net-(JP2-A)*%
X76125073Y-74649427D02*
G75*
G03*
X76247471Y-74353863I-295573J295527D01*
G01*
X76067500Y-74707000D02*
X76125073Y-74649427D01*
X76247500Y-74353863D02*
X76247500Y-73842692D01*
%TO.N,SPK_N*%
X73157500Y-66900016D02*
G75*
G03*
X73367504Y-67406996I717000J16D01*
G01*
X72748549Y-65798049D02*
G75*
G02*
X73157482Y-66785344I-987249J-987251D01*
G01*
X73157500Y-66785344D02*
X73157500Y-66817000D01*
X72748549Y-65798048D02*
X72837500Y-65887000D01*
X73157500Y-66817000D02*
X73157500Y-66900016D01*
X72676225Y-65623444D02*
G75*
G03*
X72748582Y-65798015I246875J44D01*
G01*
X72837500Y-65887000D02*
X72748549Y-65798049D01*
D50*
%TO.N,WS_AMP*%
X71084486Y-66580015D02*
X71227500Y-66437000D01*
X70171927Y-66033546D02*
X70177500Y-66047000D01*
X70491637Y-65492397D02*
X70171927Y-65812107D01*
X70681347Y-66747000D02*
G75*
G03*
X71084457Y-66579986I-47J570100D01*
G01*
X70177500Y-66047000D02*
X70177500Y-66158300D01*
X70171927Y-65812107D02*
X70171927Y-66033546D01*
X70367500Y-66617000D02*
G75*
G03*
X70681347Y-66746980I313800J313800D01*
G01*
X70177500Y-66158300D02*
G75*
G03*
X70367500Y-66617000I648700J0D01*
G01*
X70621055Y-65438790D02*
G75*
G03*
X70491662Y-65492422I45J-183010D01*
G01*
%TO.N,BCLK_AMP*%
X69513262Y-64572762D02*
X69507500Y-64567000D01*
X70121056Y-64572762D02*
X69513262Y-64572762D01*
D48*
%TO.N,GND*%
X69858489Y-65387000D02*
X69847500Y-65387000D01*
X70371054Y-65005775D02*
G75*
G03*
X70175341Y-65070184I3546J-340325D01*
G01*
X70175326Y-65070163D02*
X69858489Y-65387000D01*
D51*
X76744688Y-72969811D02*
X77117500Y-72597000D01*
X76727500Y-73011308D02*
G75*
G02*
X76744681Y-72969804I58700J8D01*
G01*
D50*
%TO.N,Net-(JP2-A)*%
X74488271Y-72607248D02*
X73961250Y-72607248D01*
X75545785Y-73045285D02*
G75*
G03*
X74488271Y-72607269I-1057485J-1057515D01*
G01*
X76179836Y-73679335D02*
X75577500Y-73077000D01*
X76247500Y-73842692D02*
G75*
G03*
X76179827Y-73679344I-231000J-8D01*
G01*
X75577500Y-73077000D02*
X75545785Y-73045285D01*
X81997500Y-74537000D02*
G75*
G03*
X80321293Y-73842695I-1676200J-1676200D01*
G01*
X83120109Y-75002000D02*
G75*
G02*
X81997497Y-74537003I-9J1587600D01*
G01*
X85217500Y-75002000D02*
X83120109Y-75002000D01*
X80321293Y-73842692D02*
X76247500Y-73842692D01*
D51*
%TO.N,SPK_P*%
X74917500Y-66177000D02*
X74377858Y-66177000D01*
X75607500Y-66477000D02*
X75583272Y-66452772D01*
X75921017Y-66790517D02*
X75607500Y-66477000D01*
X77027500Y-69093699D02*
X76675936Y-68742135D01*
X76267500Y-67627000D02*
G75*
G03*
X75921025Y-66790510I-1183000J0D01*
G01*
X76675936Y-68742135D02*
G75*
G02*
X76267509Y-67627000I1329864J1119435D01*
G01*
X75583272Y-66452772D02*
G75*
G03*
X74917500Y-66176987I-665772J-665728D01*
G01*
X77027500Y-69097000D02*
X77027500Y-69093699D01*
X75921018Y-66790517D02*
X75921017Y-66790517D01*
D48*
%TO.N,I2SDAT_MIC*%
X65227500Y-49387000D02*
X66667500Y-49387000D01*
D52*
%TO.N,GPIO0*%
X84632353Y-45012147D02*
G75*
G02*
X84427500Y-45097002I-204853J204847D01*
G01*
X84707500Y-44937000D02*
X84632353Y-45012147D01*
X84712206Y-44925639D02*
X84707500Y-44937000D01*
X85369172Y-44268673D02*
X84712206Y-44925639D01*
X85670222Y-43967623D02*
X85369172Y-44268673D01*
X85767066Y-43822689D02*
X85670222Y-43967623D01*
X85875355Y-43465711D02*
X85838790Y-43649533D01*
X85838790Y-43649533D02*
X85767066Y-43822689D01*
X85877500Y-43372000D02*
X85875355Y-43465711D01*
X78407500Y-48184747D02*
X78407500Y-46048919D01*
X77949754Y-49264746D02*
X77967500Y-49247000D01*
X68735317Y-49897000D02*
X76423358Y-49897000D01*
X66977500Y-54684276D02*
X66977500Y-51485111D01*
X66627500Y-55507000D02*
X66642386Y-55493312D01*
X65227500Y-55737000D02*
X66072231Y-55737000D01*
X78407500Y-46048919D02*
G75*
G02*
X78705768Y-45328715I1018600J19D01*
G01*
X77967500Y-49247000D02*
G75*
G03*
X78407548Y-48184747I-1062200J1062300D01*
G01*
X76423358Y-49897000D02*
G75*
G03*
X77949765Y-49264757I42J2158600D01*
G01*
X67407500Y-50447000D02*
G75*
G02*
X68735317Y-49897007I1327800J-1327800D01*
G01*
X66977500Y-51485111D02*
G75*
G02*
X67407497Y-50446997I1468100J11D01*
G01*
X66642386Y-55493312D02*
G75*
G03*
X66977497Y-54684276I-808986J809012D01*
G01*
X66072231Y-55737000D02*
G75*
G03*
X66627491Y-55506991I-31J785300D01*
G01*
D48*
%TO.N,SW_L2*%
X97724119Y-39044522D02*
G75*
G02*
X97324001Y-40010441I-1366019J22D01*
G01*
X97724119Y-37147548D02*
X97724119Y-39044522D01*
X97812890Y-40499331D02*
X97324016Y-40010456D01*
X98065201Y-41108462D02*
G75*
G03*
X97812863Y-40499358I-861401J-38D01*
G01*
D51*
%TO.N,GND*%
X97340449Y-41729950D02*
X97797500Y-42187000D01*
X97329799Y-41725538D02*
X97340449Y-41729950D01*
%TO.N,+3V3*%
X95917400Y-41187099D02*
X95317500Y-41787000D01*
X95925984Y-41183544D02*
X95917400Y-41187099D01*
D52*
%TO.N,SW_L2*%
X95259753Y-40017000D02*
X97317472Y-40017000D01*
X93464276Y-38843777D02*
X94197500Y-39577000D01*
X75995698Y-38268802D02*
X76122144Y-38142356D01*
X74787500Y-41067000D02*
X74871398Y-40983102D01*
X65227500Y-41767000D02*
X73097551Y-41767000D01*
X91154412Y-37887000D02*
G75*
G02*
X93464282Y-38843771I-12J-3266700D01*
G01*
X76738627Y-37887000D02*
X91154412Y-37887000D01*
X76122144Y-38142356D02*
G75*
G02*
X76738627Y-37887008I616456J-616444D01*
G01*
X97317472Y-40017000D02*
X97324016Y-40010456D01*
X75677500Y-39037000D02*
G75*
G02*
X75995697Y-38268801I1086400J0D01*
G01*
X94197500Y-39577000D02*
G75*
G03*
X95259753Y-40017048I1062300J1062200D01*
G01*
X74871398Y-40983102D02*
G75*
G03*
X75677501Y-39037000I-1946098J1946102D01*
G01*
X73097551Y-41767000D02*
G75*
G03*
X74787514Y-41067014I49J2389900D01*
G01*
%TO.N,RXD*%
X87235888Y-41888612D02*
G75*
G03*
X87147507Y-42102000I213412J-213388D01*
G01*
X88117500Y-41007000D02*
X87235888Y-41888612D01*
%TO.N,TXD*%
X88817500Y-40997000D02*
G75*
G03*
X88417494Y-41962685I965700J-965700D01*
G01*
X88417500Y-41962685D02*
X88417500Y-42102000D01*
%TO.N,RXD*%
X77331089Y-41397000D02*
X77427500Y-41397000D01*
X75532500Y-42142000D02*
G75*
G02*
X77331089Y-41396995I1798600J-1798600D01*
G01*
X74512500Y-43162000D02*
X75532500Y-42142000D01*
X65227500Y-44307000D02*
X71748226Y-44307000D01*
X71748226Y-44307000D02*
G75*
G03*
X74512493Y-43161993I-26J3909300D01*
G01*
%TO.N,TXD*%
X74593308Y-42061193D02*
X74662500Y-41992000D01*
X74662500Y-41992000D02*
X76367500Y-40287000D01*
X72237500Y-43037000D02*
G75*
G03*
X74593304Y-42061189I0J3331600D01*
G01*
X65227500Y-43037000D02*
X72237500Y-43037000D01*
X76367500Y-40287000D02*
X76367500Y-40247000D01*
%TO.N,EN*%
X83967500Y-42577000D02*
X83157500Y-41767000D01*
X85067500Y-42577000D02*
X83967500Y-42577000D01*
X85542500Y-42102000D02*
X85067500Y-42577000D01*
X83157500Y-41767000D02*
X82727500Y-41767000D01*
X85877500Y-42102000D02*
X85542500Y-42102000D01*
D49*
%TO.N,GND*%
X94872500Y-59572000D02*
X94867500Y-59577000D01*
D53*
X97784738Y-73151604D02*
X97798664Y-73145835D01*
D49*
X96237500Y-69879500D02*
X96237500Y-70732858D01*
D48*
X70957500Y-62534036D02*
X70957500Y-62006261D01*
D49*
X77643799Y-63233299D02*
X77887500Y-63477000D01*
D48*
X93530000Y-64397000D02*
X92789632Y-64397000D01*
D49*
X83727500Y-39227000D02*
X83737500Y-39237000D01*
D53*
X96707716Y-74228626D02*
X96687500Y-74237000D01*
D49*
X94872500Y-58767000D02*
X94872500Y-59572000D01*
D48*
X93530000Y-64397000D02*
X95967500Y-64397000D01*
X72517500Y-66535639D02*
X72517500Y-66727000D01*
D49*
X92327500Y-74074500D02*
X92327500Y-73241142D01*
X91417500Y-63612000D02*
X90609571Y-63612000D01*
D48*
X70138238Y-60637000D02*
X69863238Y-60912000D01*
D53*
X97746100Y-73135599D02*
X96747500Y-72137000D01*
D49*
X82727500Y-39227000D02*
X81707500Y-39227000D01*
X97707500Y-69877000D02*
X97707500Y-70777000D01*
D48*
X95967500Y-64397000D02*
X95967500Y-63397000D01*
D53*
X97784738Y-73151604D02*
X96707716Y-74228626D01*
D49*
X97784738Y-73151604D02*
X97764523Y-73159978D01*
X94777500Y-69877000D02*
X94777500Y-70692858D01*
X65227500Y-39227000D02*
X66307500Y-39227000D01*
D48*
X70959362Y-62535898D02*
X70957500Y-62534036D01*
D49*
X81707500Y-39227000D02*
X81697500Y-39237000D01*
X104977500Y-51693400D02*
X104977500Y-50101142D01*
D48*
X104827500Y-58857000D02*
X104807500Y-58837000D01*
D49*
X102677500Y-51962000D02*
X102677500Y-50847000D01*
D48*
X92427500Y-64247000D02*
X92057665Y-63877165D01*
D53*
X97798664Y-73145835D02*
X98807500Y-72137000D01*
D49*
X65227500Y-39227000D02*
X64127500Y-39227000D01*
X82727500Y-39227000D02*
X83727500Y-39227000D01*
D48*
X69863238Y-60911999D02*
X69863238Y-60852738D01*
X104827500Y-60034500D02*
X104827500Y-58857000D01*
D51*
X76281394Y-61574500D02*
X76281394Y-61900894D01*
D49*
X90609571Y-63612000D02*
X90597500Y-63607000D01*
D48*
X70957500Y-62006261D02*
G75*
G03*
X69863238Y-60912000I-1094300J-39D01*
G01*
D49*
X77094447Y-63005750D02*
G75*
G02*
X77643786Y-63233312I-47J-776950D01*
G01*
X94777500Y-70692858D02*
G75*
G03*
X94787488Y-70717012I34100J-42D01*
G01*
X92327500Y-73241142D02*
G75*
G02*
X92337488Y-73216988I34100J42D01*
G01*
D48*
X71199553Y-63039053D02*
G75*
G02*
X70959392Y-62535895I599947J595253D01*
G01*
X69863238Y-60852738D02*
G75*
G03*
X69137500Y-60126962I-725738J38D01*
G01*
X72243210Y-65873445D02*
G75*
G02*
X72517467Y-66535639I-662210J-662155D01*
G01*
D53*
X97784738Y-73151604D02*
G75*
G02*
X97746089Y-73135610I-38J54604D01*
G01*
D49*
X104977500Y-50101142D02*
G75*
G03*
X104967512Y-50076988I-34100J42D01*
G01*
D51*
X76281394Y-61900894D02*
G75*
G03*
X76667500Y-62287006I386106J-6D01*
G01*
D48*
X92057665Y-63877165D02*
G75*
G03*
X91417500Y-63611991I-640165J-640135D01*
G01*
X92789632Y-64397000D02*
G75*
G02*
X92427491Y-64247009I-32J512100D01*
G01*
%TO.N,VBAT*%
X96967500Y-65834500D02*
X96967500Y-66349721D01*
D51*
X100330023Y-69662156D02*
X100802104Y-70134238D01*
X99267500Y-67052563D02*
X99267500Y-67097000D01*
X97927500Y-66697000D02*
X98940221Y-66697000D01*
D48*
X97371347Y-66697000D02*
X97927500Y-66697000D01*
X96967500Y-66349721D02*
G75*
G03*
X97057506Y-66566994I307300J21D01*
G01*
D51*
X99157500Y-66787000D02*
G75*
G02*
X99267515Y-67052563I-265600J-265600D01*
G01*
X98940221Y-66697000D02*
G75*
G02*
X99157494Y-66787006I-21J-307300D01*
G01*
X99267500Y-67097000D02*
G75*
G03*
X100330018Y-69662161I3627700J0D01*
G01*
D48*
X97057500Y-66567000D02*
G75*
G03*
X97371347Y-66696980I313800J313800D01*
G01*
D49*
%TO.N,EN*%
X82727500Y-41767000D02*
X81607500Y-41767000D01*
%TO.N,+3V3*%
X81477500Y-40497000D02*
X81427500Y-40547000D01*
X82727500Y-40497000D02*
X81477500Y-40497000D01*
D50*
%TO.N,VSYS*%
X95767500Y-65834500D02*
X95767500Y-66547000D01*
D48*
X100107500Y-62797000D02*
X100117500Y-62787000D01*
X96210000Y-68127000D02*
X95737500Y-68127000D01*
X74780428Y-62454072D02*
X74787500Y-62437000D01*
X96657500Y-67017000D02*
X97647396Y-68006896D01*
D49*
X96567500Y-59817000D02*
X96567500Y-58797000D01*
D48*
X98405000Y-62797000D02*
X100107500Y-62797000D01*
D52*
X96567500Y-65834500D02*
X96567500Y-66657000D01*
D48*
X73930532Y-64233968D02*
X74834013Y-64233968D01*
D51*
X100925000Y-63334500D02*
X100925000Y-63337000D01*
D48*
X96237500Y-68154500D02*
X96237500Y-68106116D01*
D51*
X100128561Y-62798061D02*
X100447942Y-62798061D01*
D49*
X75163422Y-62812921D02*
X74787500Y-62437000D01*
D48*
X95447500Y-68417000D02*
X95447500Y-71441999D01*
D52*
X96567500Y-66657000D02*
X96567500Y-66799721D01*
D49*
X74358334Y-62007834D02*
X74787500Y-62437000D01*
D51*
X96237500Y-68154500D02*
X97701465Y-68154500D01*
X96567500Y-60187000D02*
X96567500Y-59817000D01*
D48*
X73925458Y-64239042D02*
X73930532Y-64233968D01*
D49*
X75600553Y-63868250D02*
X75600553Y-64520053D01*
D51*
X97701465Y-68154500D02*
X97707500Y-68152000D01*
D48*
X73722830Y-64239042D02*
X73925458Y-64239042D01*
X73319699Y-63914801D02*
X74780428Y-62454072D01*
X96567500Y-60959500D02*
X96567500Y-60187000D01*
D49*
X75600553Y-64520053D02*
X75897500Y-64817000D01*
D48*
X96237500Y-68154500D02*
X96180000Y-68154500D01*
D51*
X100117500Y-62787000D02*
X100128561Y-62798061D01*
D48*
X73410931Y-64413570D02*
X73447500Y-64377000D01*
X95767500Y-66971437D02*
X95767500Y-66547000D01*
X98405000Y-62397000D02*
X98897500Y-62397000D01*
X73447500Y-64377000D02*
G75*
G02*
X73722830Y-64239045I349900J-354600D01*
G01*
X74834013Y-64233968D02*
G75*
G03*
X75600551Y-63868248I-139213J1277968D01*
G01*
X95737500Y-68127000D02*
G75*
G03*
X95447500Y-68417000I0J-290000D01*
G01*
D51*
X100447942Y-62798061D02*
G75*
G02*
X100925052Y-63334500I-65042J-538239D01*
G01*
D48*
X96237500Y-68154500D02*
G75*
G03*
X96210000Y-68127000I-27500J0D01*
G01*
X97647396Y-68006896D02*
G75*
G02*
X97707502Y-68152000I-145096J-145104D01*
G01*
X98897500Y-62397000D02*
G75*
G02*
X99247500Y-62747000I0J-350000D01*
G01*
X96237500Y-68106116D02*
G75*
G03*
X95877505Y-67236995I-1229100J16D01*
G01*
X73110880Y-64001289D02*
G75*
G03*
X73319700Y-63914802I20J295289D01*
G01*
X95877500Y-67237000D02*
G75*
G02*
X95767485Y-66971437I265600J265600D01*
G01*
D49*
X73940892Y-61000040D02*
G75*
G03*
X74358360Y-62007808I1425208J40D01*
G01*
D48*
X95447500Y-71441999D02*
G75*
G02*
X94887500Y-72002000I-560000J-1D01*
G01*
D49*
X96567500Y-58797000D02*
G75*
G02*
X96597500Y-58767000I30000J0D01*
G01*
D52*
X96567500Y-66799721D02*
G75*
G03*
X96657506Y-67016994I307300J21D01*
G01*
D49*
X75600553Y-63868250D02*
G75*
G03*
X75163395Y-62812948I-1492453J-50D01*
G01*
D48*
X73360878Y-64434302D02*
G75*
G03*
X73410945Y-64413584I22J70802D01*
G01*
D52*
%TO.N,+2V8*%
X97607500Y-60242880D02*
X97607500Y-60037000D01*
X98607500Y-58637000D02*
X99807500Y-57437000D01*
X98607500Y-59037000D02*
X98607500Y-58637000D01*
X97607500Y-60037000D02*
X98607500Y-59037000D01*
X97367500Y-60959500D02*
X97367500Y-60482880D01*
X97367500Y-60482880D02*
X97607500Y-60242880D01*
D48*
%TO.N,Net-(U5-VREF)*%
X93530000Y-64797000D02*
X92783063Y-64797000D01*
X91901876Y-65162000D02*
X91417500Y-65162000D01*
X92517500Y-64907000D02*
G75*
G02*
X91901876Y-65161990I-615600J615600D01*
G01*
X92783063Y-64797000D02*
G75*
G03*
X92517511Y-64907011I37J-375600D01*
G01*
D53*
%TO.N,VBUS*%
X93297500Y-68157000D02*
X92151642Y-68157000D01*
X94600000Y-68157000D02*
X93297500Y-68157000D01*
D48*
X95367500Y-65834500D02*
X95367500Y-66722614D01*
X95367500Y-66722614D02*
G75*
G02*
X94777496Y-68146996I-2014400J14D01*
G01*
D53*
X92151642Y-68157000D02*
G75*
G03*
X92127488Y-68166988I-42J-34100D01*
G01*
D48*
%TO.N,Net-(JP4-B)*%
X70729051Y-63198551D02*
X70135490Y-62604990D01*
X68585758Y-61963070D02*
X68560938Y-61938250D01*
X69657500Y-62407000D02*
G75*
G02*
X68585752Y-61963076I0J1515700D01*
G01*
X70805709Y-63383620D02*
G75*
G03*
X70729057Y-63198545I-261709J20D01*
G01*
X70135490Y-62604990D02*
G75*
G03*
X69657500Y-62407006I-477990J-478010D01*
G01*
D52*
%TO.N,Net-(D1-K)*%
X93097500Y-65197000D02*
X93530000Y-65197000D01*
X91197500Y-70677000D02*
X91197500Y-67767000D01*
X92577500Y-66387000D02*
X92577500Y-65717000D01*
X93227500Y-71617000D02*
X92137500Y-71617000D01*
X93787500Y-74354500D02*
X93787500Y-72177000D01*
X92137500Y-71617000D02*
G75*
G02*
X91197500Y-70677000I0J940000D01*
G01*
X92577500Y-65717000D02*
G75*
G02*
X93097500Y-65197000I520000J0D01*
G01*
X91867500Y-67097000D02*
G75*
G03*
X92577500Y-66387000I0J710000D01*
G01*
X93787500Y-72177000D02*
G75*
G03*
X93227500Y-71617000I-560000J0D01*
G01*
X91197500Y-67767000D02*
G75*
G02*
X91867500Y-67097000I670000J0D01*
G01*
X94577500Y-75144500D02*
G75*
G02*
X93787500Y-74354500I0J790000D01*
G01*
D50*
%TO.N,Net-(D1-A)*%
X95217500Y-75144500D02*
X95217500Y-74157000D01*
X95217500Y-74157000D02*
G75*
G03*
X94887500Y-73827000I-330000J0D01*
G01*
D48*
%TO.N,+3V3CAM*%
X99837500Y-65277000D02*
X99837500Y-65637000D01*
X98405000Y-63597000D02*
X98877500Y-63597000D01*
D49*
X103177500Y-64977000D02*
X104695000Y-64977000D01*
D48*
X99157500Y-63877000D02*
X99157500Y-64597000D01*
X103987500Y-65367000D02*
X103987500Y-64957000D01*
X100217500Y-66017000D02*
X103337500Y-66017000D01*
X99157500Y-64597000D02*
G75*
G03*
X99557500Y-64997000I400000J0D01*
G01*
X98877500Y-63597000D02*
G75*
G02*
X99157500Y-63877000I0J-280000D01*
G01*
X99837500Y-65637000D02*
G75*
G03*
X100217500Y-66017000I380000J0D01*
G01*
X99557500Y-64997000D02*
G75*
G02*
X99837500Y-65277000I0J-280000D01*
G01*
D49*
X104695000Y-64977000D02*
G75*
G03*
X104757500Y-64914500I0J62500D01*
G01*
D48*
X103337500Y-66017000D02*
G75*
G03*
X103987500Y-65367000I0J650000D01*
G01*
%TO.N,Net-(U5-FB1)*%
X99937500Y-60527000D02*
X103237500Y-60527000D01*
X98405000Y-61597000D02*
X98867500Y-61597000D01*
D49*
X103247500Y-61697000D02*
X103247500Y-59059500D01*
X103247500Y-61697000D02*
X104765000Y-61697000D01*
D48*
X99497500Y-60967000D02*
G75*
G02*
X99937500Y-60527000I440000J0D01*
G01*
D49*
X103247500Y-59059500D02*
G75*
G02*
X103270000Y-59037000I22500J0D01*
G01*
D48*
X98867500Y-61597000D02*
G75*
G03*
X99497500Y-60967000I0J630000D01*
G01*
D49*
X104765000Y-61697000D02*
G75*
G02*
X104827500Y-61759500I0J-62500D01*
G01*
D48*
%TO.N,SPK_P*%
X73583935Y-65848145D02*
X73109235Y-65373444D01*
X74377858Y-66177000D02*
G75*
G02*
X73583951Y-65848129I42J1122800D01*
G01*
D51*
%TO.N,Net-(U5-LX1)*%
X99227500Y-61997000D02*
X99827500Y-61997000D01*
D48*
X98405000Y-61997000D02*
X99227500Y-61997000D01*
D49*
X100647500Y-61997000D02*
X99827500Y-61997000D01*
X100947500Y-61697000D02*
G75*
G02*
X100647500Y-61997000I-300000J0D01*
G01*
D48*
%TO.N,Net-(U5-LX2)*%
X98405000Y-63197000D02*
X98907500Y-63197000D01*
X99667500Y-63437000D02*
X99667500Y-63617000D01*
D51*
X100137500Y-64557000D02*
X100457500Y-64557000D01*
D48*
X99107500Y-63197000D02*
X99427500Y-63197000D01*
X98907500Y-63197000D02*
X99107500Y-63197000D01*
D51*
X99667500Y-63617000D02*
X99667500Y-64087000D01*
X99667500Y-64087000D02*
G75*
G03*
X100137500Y-64557000I470000J0D01*
G01*
D48*
X99427500Y-63197000D02*
G75*
G02*
X99667500Y-63437000I0J-240000D01*
G01*
D51*
X100457500Y-64557000D02*
G75*
G02*
X100877500Y-64977000I0J-420000D01*
G01*
D52*
%TO.N,CAM_PWDN*%
X102157500Y-54887000D02*
X101607500Y-55437000D01*
X102677500Y-54887000D02*
X102057500Y-54887000D01*
X102677500Y-54887000D02*
X102157500Y-54887000D01*
X84557500Y-49387000D02*
X84807500Y-49637000D01*
X82727500Y-49387000D02*
X84557500Y-49387000D01*
%TO.N,CAM_RESET*%
X98807500Y-55837000D02*
X99007500Y-55637000D01*
X93007500Y-55837000D02*
X98807500Y-55837000D01*
D50*
%TO.N,PMIC_PWRON*%
X98405000Y-65197000D02*
X98777500Y-65197000D01*
X98927500Y-65347000D02*
X98927500Y-65837000D01*
X98927500Y-65837000D02*
G75*
G03*
X98937500Y-65847000I10000J0D01*
G01*
X98777500Y-65197000D02*
G75*
G02*
X98927500Y-65347000I0J-150000D01*
G01*
D49*
%TO.N,Net-(P1-SHIELD)*%
X92327500Y-75899500D02*
X89733535Y-75899500D01*
X89733535Y-75899500D02*
X89727500Y-75897000D01*
D48*
%TO.N,I2SDAT_MIC*%
X65187500Y-49427000D02*
G75*
G03*
X65227500Y-49387000I0J40000D01*
G01*
D52*
%TO.N,CAM_SDA*%
X85887500Y-48117000D02*
X86207500Y-48437000D01*
%TO.N,CAM_SCL*%
X87007500Y-56837000D02*
X94607500Y-56837000D01*
X100607500Y-56437000D02*
X100807500Y-56637000D01*
X95007500Y-56437000D02*
X99207500Y-56437000D01*
X99207500Y-56437000D02*
X100607500Y-56437000D01*
X101607500Y-57037000D02*
X101607500Y-56637000D01*
X102007500Y-57437000D02*
X101607500Y-57037000D01*
X94607500Y-56837000D02*
X95007500Y-56437000D01*
X101607500Y-56637000D02*
X100807500Y-56637000D01*
D50*
%TO.N,SDMODE_AMP*%
X71671737Y-62883621D02*
X71438294Y-62650178D01*
X72072500Y-56987000D02*
X72072500Y-60442000D01*
X71438294Y-62650178D02*
X71438294Y-61076206D01*
X71438294Y-61076206D02*
G75*
G02*
X71807500Y-60706994I369206J6D01*
G01*
X72072500Y-60442000D02*
G75*
G02*
X71807500Y-60707000I-265000J0D01*
G01*
%TO.N,BCLK_AMP*%
X73342500Y-58312000D02*
X73342500Y-56987000D01*
X72047500Y-62217000D02*
X72047500Y-61297000D01*
X72587500Y-60757000D02*
X72587500Y-59067000D01*
X72317500Y-61027000D02*
G75*
G03*
X72587500Y-60757000I0J270000D01*
G01*
X72587500Y-59067000D02*
G75*
G02*
X73127500Y-58527000I540000J0D01*
G01*
X73127500Y-58527000D02*
G75*
G03*
X73342500Y-58312000I0J215000D01*
G01*
X72047500Y-61297000D02*
G75*
G02*
X72317500Y-61027000I270000J0D01*
G01*
%TO.N,I2SDAT_AMP*%
X63597500Y-51207000D02*
X63597500Y-56967000D01*
X67287500Y-59177000D02*
X67287500Y-61317000D01*
X66527500Y-58807000D02*
X66917500Y-58807000D01*
X64103434Y-57535601D02*
X65256101Y-57535601D01*
X65227500Y-50657000D02*
X64147500Y-50657000D01*
X69297500Y-63327000D02*
X70066079Y-63327000D01*
X65256101Y-57535601D02*
X66527500Y-58807000D01*
X66917500Y-58807000D02*
G75*
G02*
X67287500Y-59177000I0J-370000D01*
G01*
X64147500Y-50657000D02*
G75*
G03*
X63597500Y-51207000I0J-550000D01*
G01*
X70066079Y-63327000D02*
G75*
G02*
X70372700Y-63633620I21J-306600D01*
G01*
X67287500Y-61317000D02*
G75*
G03*
X69297500Y-63327000I2010000J0D01*
G01*
X63597500Y-56967000D02*
G75*
G03*
X64103444Y-57535520I574300J1700D01*
G01*
%TO.N,WS_AMP*%
X73700653Y-59687000D02*
X73677500Y-59687000D01*
X74612500Y-56987000D02*
X74612500Y-58775153D01*
X73027500Y-60337000D02*
X73027500Y-62337000D01*
X74612500Y-58775153D02*
G75*
G02*
X73700653Y-59687000I-911800J-47D01*
G01*
X73677500Y-59687000D02*
G75*
G03*
X73027500Y-60337000I0J-650000D01*
G01*
X73027500Y-62337000D02*
G75*
G02*
X72967500Y-62397000I-60000J0D01*
G01*
D52*
%TO.N,CAM_Y3*%
X84117500Y-51927000D02*
X84207500Y-51837000D01*
X82727500Y-51927000D02*
X84117500Y-51927000D01*
D50*
%TO.N,BCLK_MIC*%
X68057500Y-59067000D02*
X68057500Y-58987000D01*
X66992500Y-57922000D02*
X66992500Y-56987000D01*
X70376110Y-59515610D02*
X68448439Y-59515610D01*
X70377500Y-59517000D02*
X70376110Y-59515610D01*
X67407500Y-58337000D02*
G75*
G02*
X66992500Y-57922000I0J415000D01*
G01*
X68057500Y-58987000D02*
G75*
G03*
X67407500Y-58337000I-650000J0D01*
G01*
X68448439Y-59515610D02*
G75*
G02*
X68057462Y-59067000I64061J450510D01*
G01*
D52*
%TO.N,CAM_Y5*%
X93007500Y-49437000D02*
X93007500Y-51037000D01*
X99407500Y-49437000D02*
X93007500Y-49437000D01*
X82727500Y-54467000D02*
X84177500Y-54467000D01*
X93007500Y-51037000D02*
X91407500Y-52637000D01*
%TO.N,CAM_Y6*%
X93607500Y-50437000D02*
X93607500Y-51437000D01*
X92007500Y-53037000D02*
X91807500Y-53237000D01*
X82727500Y-55737000D02*
X82827500Y-55837000D01*
X93607500Y-51437000D02*
X92007500Y-53037000D01*
X99407500Y-50437000D02*
X93607500Y-50437000D01*
X82827500Y-55837000D02*
X84207500Y-55837000D01*
X91807500Y-53237000D02*
X91807500Y-53437000D01*
D50*
%TO.N,WS_MIC*%
X71516281Y-60098219D02*
X71516281Y-59193183D01*
X70802500Y-58532000D02*
X70802500Y-56987000D01*
X71487500Y-60127000D02*
X71516281Y-60098219D01*
X71516281Y-59193183D02*
G75*
G03*
X71107500Y-58836974I-410581J-58517D01*
G01*
X71107500Y-58837000D02*
G75*
G02*
X70802500Y-58532000I0J305000D01*
G01*
D52*
%TO.N,CAM_Y4*%
X82727500Y-43037000D02*
X81607500Y-43037000D01*
%TO.N,CAM_Y8*%
X82597500Y-44437000D02*
X81407500Y-44437000D01*
%TO.N,CAM_VSYNC*%
X67597500Y-46847000D02*
X67607500Y-46837000D01*
X65227500Y-46847000D02*
X67597500Y-46847000D01*
%TO.N,CAM_Y9*%
X81267500Y-45577000D02*
X80407500Y-46437000D01*
X82727500Y-45577000D02*
X81267500Y-45577000D01*
%TO.N,CAM_HREF*%
X94007500Y-53237000D02*
X93607500Y-53637000D01*
X99207500Y-54837000D02*
X97007500Y-54837000D01*
X95407500Y-53237000D02*
X94007500Y-53237000D01*
X82967500Y-53437000D02*
X84807500Y-53437000D01*
X97007500Y-54837000D02*
X95407500Y-53237000D01*
X82727500Y-53197000D02*
X82967500Y-53437000D01*
%TO.N,CAM_Y7*%
X95007500Y-51437000D02*
X91107500Y-55337000D01*
X99607500Y-51437000D02*
X95007500Y-51437000D01*
X80962500Y-56987000D02*
X85357500Y-56987000D01*
%TO.N,+1V5*%
X96967500Y-60277000D02*
X97207500Y-60037000D01*
X96967500Y-60959500D02*
X96967500Y-60277000D01*
X97207500Y-59637000D02*
X97807500Y-59037000D01*
X97207500Y-60037000D02*
X97207500Y-59637000D01*
X97807500Y-59037000D02*
X97807500Y-58437000D01*
D51*
%TO.N,Net-(JP3-A)*%
X68262500Y-55942000D02*
X68267500Y-55937000D01*
X68262500Y-56987000D02*
X68262500Y-55942000D01*
%TD*%
M02*
