%TF.GenerationSoftware,KiCad,Pcbnew,8.0.5*%
%TF.CreationDate,2025-01-09T20:15:46+01:00*%
%TF.ProjectId,test,74657374-2e6b-4696-9361-645f70636258,rev?*%
%TF.SameCoordinates,PX517370cPY341b1c8*%
%TF.FileFunction,Paste,Bot*%
%TF.FilePolarity,Positive*%
%FSLAX46Y46*%
G04 Gerber Fmt 4.6, Leading zero omitted, Abs format (unit mm)*
G04 Created by KiCad (PCBNEW 8.0.5) date 2025-01-09 20:15:46*
%MOMM*%
%LPD*%
G01*
G04 APERTURE LIST*
G04 Aperture macros list*
%AMRoundRect*
0 Rectangle with rounded corners*
0 $1 Rounding radius*
0 $2 $3 $4 $5 $6 $7 $8 $9 X,Y pos of 4 corners*
0 Add a 4 corners polygon primitive as box body*
4,1,4,$2,$3,$4,$5,$6,$7,$8,$9,$2,$3,0*
0 Add four circle primitives for the rounded corners*
1,1,$1+$1,$2,$3*
1,1,$1+$1,$4,$5*
1,1,$1+$1,$6,$7*
1,1,$1+$1,$8,$9*
0 Add four rect primitives between the rounded corners*
20,1,$1+$1,$2,$3,$4,$5,0*
20,1,$1+$1,$4,$5,$6,$7,0*
20,1,$1+$1,$6,$7,$8,$9,0*
20,1,$1+$1,$8,$9,$2,$3,0*%
G04 Aperture macros list end*
%ADD10RoundRect,0.250000X0.312500X0.625000X-0.312500X0.625000X-0.312500X-0.625000X0.312500X-0.625000X0*%
%ADD11RoundRect,0.147500X-0.147500X-0.172500X0.147500X-0.172500X0.147500X0.172500X-0.147500X0.172500X0*%
%ADD12RoundRect,0.140000X-0.140000X-0.170000X0.140000X-0.170000X0.140000X0.170000X-0.140000X0.170000X0*%
%ADD13RoundRect,0.237500X-0.237500X0.300000X-0.237500X-0.300000X0.237500X-0.300000X0.237500X0.300000X0*%
%ADD14RoundRect,0.100000X-0.900000X0.900000X-0.900000X-0.900000X0.900000X-0.900000X0.900000X0.900000X0*%
%ADD15RoundRect,0.237500X0.237500X-0.250000X0.237500X0.250000X-0.237500X0.250000X-0.237500X-0.250000X0*%
%ADD16RoundRect,0.237500X0.237500X-0.300000X0.237500X0.300000X-0.237500X0.300000X-0.237500X-0.300000X0*%
%ADD17RoundRect,0.237500X-0.141058X-0.355681X0.378558X-0.055681X0.141058X0.355681X-0.378558X0.055681X0*%
%ADD18RoundRect,0.225000X-0.250000X0.225000X-0.250000X-0.225000X0.250000X-0.225000X0.250000X0.225000X0*%
%ADD19RoundRect,0.250000X0.020994X-0.536362X0.454006X-0.286362X-0.020994X0.536362X-0.454006X0.286362X0*%
%ADD20RoundRect,0.237500X-0.038849X-0.342632X0.344173X-0.021239X0.038849X0.342632X-0.344173X0.021239X0*%
%ADD21R,0.900000X0.900000*%
%ADD22R,1.500000X0.900000*%
%ADD23R,0.900000X1.500000*%
%ADD24RoundRect,0.125000X-0.170753X0.045753X-0.045753X-0.170753X0.170753X-0.045753X0.045753X0.170753X0*%
%ADD25RoundRect,0.062500X-0.229127X0.271859X0.120873X-0.334359X0.229127X-0.271859X-0.120873X0.334359X0*%
%ADD26RoundRect,0.062500X-0.334359X-0.120873X-0.271859X-0.229127X0.334359X0.120873X0.271859X0.229127X0*%
%ADD27RoundRect,0.100000X-1.229423X-0.329423X0.329423X-1.229423X1.229423X0.329423X-0.329423X1.229423X0*%
%ADD28RoundRect,0.250000X0.625000X-0.312500X0.625000X0.312500X-0.625000X0.312500X-0.625000X-0.312500X0*%
%ADD29RoundRect,0.140000X-0.002028X0.220218X-0.216520X0.040237X0.002028X-0.220218X0.216520X-0.040237X0*%
%ADD30RoundRect,0.242500X-0.242500X-0.242500X0.242500X-0.242500X0.242500X0.242500X-0.242500X0.242500X0*%
%ADD31RoundRect,0.062500X-0.350000X-0.062500X0.350000X-0.062500X0.350000X0.062500X-0.350000X0.062500X0*%
%ADD32RoundRect,0.062500X-0.062500X-0.350000X0.062500X-0.350000X0.062500X0.350000X-0.062500X0.350000X0*%
%ADD33RoundRect,0.237500X-0.080681X0.335256X-0.330681X-0.097756X0.080681X-0.335256X0.330681X0.097756X0*%
%ADD34RoundRect,0.237500X-0.300000X-0.237500X0.300000X-0.237500X0.300000X0.237500X-0.300000X0.237500X0*%
%ADD35RoundRect,0.250000X-0.275000X-0.350000X0.275000X-0.350000X0.275000X0.350000X-0.275000X0.350000X0*%
%ADD36RoundRect,0.100000X0.000000X-1.272792X1.272792X0.000000X0.000000X1.272792X-1.272792X0.000000X0*%
%ADD37RoundRect,0.140000X0.077224X-0.206244X0.217224X0.036244X-0.077224X0.206244X-0.217224X-0.036244X0*%
G04 APERTURE END LIST*
D10*
%TO.C,NC5*%
X17862500Y-4400000D03*
X14937500Y-4400000D03*
%TD*%
D11*
%TO.C,D1*%
X8705000Y-20670000D03*
X9675000Y-20670000D03*
%TD*%
D12*
%TO.C,C12*%
X16840000Y-2780000D03*
X17800000Y-2780000D03*
%TD*%
D13*
%TO.C,C19*%
X19420000Y-5397500D03*
X19420000Y-7122500D03*
%TD*%
D14*
%TO.C,3v3J1*%
X19570000Y2943600D03*
X19570000Y-1323600D03*
%TD*%
D15*
%TO.C,R16*%
X6920000Y-21262500D03*
X6920000Y-19437500D03*
%TD*%
D16*
%TO.C,C16*%
X10830000Y-15242500D03*
X10830000Y-13517500D03*
%TD*%
D15*
%TO.C,R11*%
X9480000Y-19190000D03*
X9480000Y-17365000D03*
%TD*%
D17*
%TO.C,C6*%
X-11516947Y-6251250D03*
X-10023053Y-5388750D03*
%TD*%
%TO.C,C7*%
X-9786947Y-9271250D03*
X-8293053Y-8408750D03*
%TD*%
D18*
%TO.C,C14*%
X6010000Y-8975000D03*
X6010000Y-10525000D03*
%TD*%
D19*
%TO.C,C8*%
X-10695777Y-7765000D03*
X-9050329Y-6815000D03*
%TD*%
D20*
%TO.C,R14*%
X10518484Y13453456D03*
X11916516Y14626544D03*
%TD*%
D21*
%TO.C,U2*%
X-8845000Y6060000D03*
X-8845000Y7460000D03*
X-8845000Y8860000D03*
X-10245000Y6060000D03*
X-10245000Y7460000D03*
X-10245000Y8860000D03*
X-11645000Y6060000D03*
X-11645000Y7460000D03*
X-11645000Y8860000D03*
D22*
X-2995000Y15180000D03*
X-2995000Y13910000D03*
X-2995000Y12640000D03*
X-2995000Y11370000D03*
X-2995000Y10100000D03*
X-2995000Y8830000D03*
X-2995000Y7560000D03*
X-2995000Y6290000D03*
X-2995000Y5020000D03*
X-2995000Y3750000D03*
X-2995000Y2480000D03*
X-2995000Y1210000D03*
X-2995000Y-60000D03*
X-2995000Y-1330000D03*
D23*
X-4760000Y-2580000D03*
X-6030000Y-2580000D03*
X-7300000Y-2580000D03*
X-8570000Y-2580000D03*
X-9840000Y-2580000D03*
X-11110000Y-2580000D03*
X-12380000Y-2580000D03*
X-13650000Y-2580000D03*
X-14920000Y-2580000D03*
X-16190000Y-2580000D03*
X-17460000Y-2580000D03*
X-18730000Y-2580000D03*
D22*
X-20495000Y-1330000D03*
X-20495000Y-60000D03*
X-20495000Y1210000D03*
X-20495000Y2480000D03*
X-20495000Y3750000D03*
X-20495000Y5020000D03*
X-20495000Y6290000D03*
X-20495000Y7560000D03*
X-20495000Y8830000D03*
X-20495000Y10100000D03*
X-20495000Y11370000D03*
X-20495000Y12640000D03*
X-20495000Y13910000D03*
X-20495000Y15180000D03*
%TD*%
D24*
%TO.C,U1*%
X-13553066Y-9443064D03*
X-14090001Y-9753065D03*
X-13243065Y-9979999D03*
X-13780000Y-10290000D03*
D25*
X-15034801Y-8996620D03*
X-14601791Y-8746620D03*
X-14168776Y-8496619D03*
X-13735763Y-8246621D03*
D26*
X-12796621Y-8498264D03*
X-12546621Y-8931274D03*
X-12296620Y-9364289D03*
X-12046622Y-9797302D03*
D25*
X-12298265Y-10736444D03*
X-12731275Y-10986444D03*
X-13164290Y-11236445D03*
X-13597303Y-11486443D03*
D26*
X-14536445Y-11234800D03*
X-14786445Y-10801790D03*
X-15036446Y-10368775D03*
X-15286444Y-9935762D03*
%TD*%
D27*
%TO.C,J1*%
X-11027753Y-13353201D03*
X-7332249Y-15486800D03*
%TD*%
D15*
%TO.C,R9*%
X2800000Y-11702500D03*
X2800000Y-9877500D03*
%TD*%
D28*
%TO.C,NC1*%
X17250000Y67500D03*
X17250000Y2992500D03*
%TD*%
D12*
%TO.C,C11*%
X16820000Y-1800000D03*
X17780000Y-1800000D03*
%TD*%
D16*
%TO.C,C15*%
X9200000Y-15252500D03*
X9200000Y-13527500D03*
%TD*%
D29*
%TO.C,C28*%
X12697701Y13638538D03*
X11962299Y13021462D03*
%TD*%
D30*
%TO.C,U5*%
X9360000Y-7560000D03*
X9360000Y-8760000D03*
X9360000Y-9960000D03*
X10560000Y-7560000D03*
X10560000Y-8760000D03*
X10560000Y-9960000D03*
X11760000Y-7560000D03*
X11760000Y-8760000D03*
X11760000Y-9960000D03*
D31*
X8122500Y-10560000D03*
X8122500Y-10160000D03*
X8122500Y-9760000D03*
X8122500Y-9360000D03*
X8122500Y-8960000D03*
X8122500Y-8560000D03*
X8122500Y-8160000D03*
X8122500Y-7760000D03*
X8122500Y-7360000D03*
X8122500Y-6960000D03*
D32*
X8760000Y-6322500D03*
X9160000Y-6322500D03*
X9560000Y-6322500D03*
X9960000Y-6322500D03*
X10360000Y-6322500D03*
X10760000Y-6322500D03*
X11160000Y-6322500D03*
X11560000Y-6322500D03*
X11960000Y-6322500D03*
X12360000Y-6322500D03*
D31*
X12997500Y-6960000D03*
X12997500Y-7360000D03*
X12997500Y-7760000D03*
X12997500Y-8160000D03*
X12997500Y-8560000D03*
X12997500Y-8960000D03*
X12997500Y-9360000D03*
X12997500Y-9760000D03*
X12997500Y-10160000D03*
X12997500Y-10560000D03*
D32*
X12360000Y-11197500D03*
X11960000Y-11197500D03*
X11560000Y-11197500D03*
X11160000Y-11197500D03*
X10760000Y-11197500D03*
X10360000Y-11197500D03*
X9960000Y-11197500D03*
X9560000Y-11197500D03*
X9160000Y-11197500D03*
X8760000Y-11197500D03*
%TD*%
D33*
%TO.C,R13*%
X-10503750Y-16589752D03*
X-11416250Y-18170248D03*
%TD*%
D34*
%TO.C,C18*%
X9465000Y-4130000D03*
X11190000Y-4130000D03*
%TD*%
D16*
%TO.C,C22*%
X19350000Y-12002500D03*
X19350000Y-10277500D03*
%TD*%
D15*
%TO.C,R8*%
X4490000Y-11282500D03*
X4490000Y-9457500D03*
%TD*%
D35*
%TO.C,L1*%
X15540000Y-7060000D03*
X17840000Y-7060000D03*
%TD*%
D16*
%TO.C,C17*%
X12300000Y-15240000D03*
X12300000Y-13515000D03*
%TD*%
D36*
%TO.C,BAT1*%
X12377238Y-18514604D03*
X15394604Y-15497238D03*
%TD*%
D35*
%TO.C,L2*%
X15470000Y-10340000D03*
X17770000Y-10340000D03*
%TD*%
D37*
%TO.C,C34*%
X-9130000Y-19205692D03*
X-8650000Y-18374308D03*
%TD*%
D34*
%TO.C,C20*%
X15517500Y-8700000D03*
X17242500Y-8700000D03*
%TD*%
M02*
