%TF.GenerationSoftware,KiCad,Pcbnew,8.0.5*%
%TF.CreationDate,2025-01-08T19:59:39+01:00*%
%TF.ProjectId,test,74657374-2e6b-4696-9361-645f70636258,rev?*%
%TF.SameCoordinates,PX517370cPY341b1c8*%
%TF.FileFunction,Legend,Bot*%
%TF.FilePolarity,Positive*%
%FSLAX46Y46*%
G04 Gerber Fmt 4.6, Leading zero omitted, Abs format (unit mm)*
G04 Created by KiCad (PCBNEW 8.0.5) date 2025-01-08 19:59:39*
%MOMM*%
%LPD*%
G01*
G04 APERTURE LIST*
%ADD10C,0.125000*%
%ADD11C,0.120000*%
%ADD12C,0.100000*%
%ADD13C,0.127000*%
%ADD14C,0.240000*%
G04 APERTURE END LIST*
D10*
X18278716Y-1491833D02*
X17897764Y-1491833D01*
X18088240Y-1682309D02*
X18088240Y-1301357D01*
D11*
X9182856Y-21951331D02*
X9182856Y-21351331D01*
X9182856Y-21351331D02*
X9039999Y-21351331D01*
X9039999Y-21351331D02*
X8954285Y-21379902D01*
X8954285Y-21379902D02*
X8897142Y-21437045D01*
X8897142Y-21437045D02*
X8868571Y-21494188D01*
X8868571Y-21494188D02*
X8839999Y-21608474D01*
X8839999Y-21608474D02*
X8839999Y-21694188D01*
X8839999Y-21694188D02*
X8868571Y-21808474D01*
X8868571Y-21808474D02*
X8897142Y-21865617D01*
X8897142Y-21865617D02*
X8954285Y-21922760D01*
X8954285Y-21922760D02*
X9039999Y-21951331D01*
X9039999Y-21951331D02*
X9182856Y-21951331D01*
X8268571Y-21951331D02*
X8611428Y-21951331D01*
X8439999Y-21951331D02*
X8439999Y-21351331D01*
X8439999Y-21351331D02*
X8497142Y-21437045D01*
X8497142Y-21437045D02*
X8554285Y-21494188D01*
X8554285Y-21494188D02*
X8611428Y-21522760D01*
X-9261650Y-20253055D02*
X-9222621Y-20242597D01*
X-9222621Y-20242597D02*
X-9155020Y-20182652D01*
X-9155020Y-20182652D02*
X-9126449Y-20133165D01*
X-9126449Y-20133165D02*
X-9108335Y-20044649D01*
X-9108335Y-20044649D02*
X-9129251Y-19966590D01*
X-9129251Y-19966590D02*
X-9164453Y-19913275D01*
X-9164453Y-19913275D02*
X-9249141Y-19831388D01*
X-9249141Y-19831388D02*
X-9323372Y-19788531D01*
X-9323372Y-19788531D02*
X-9436632Y-19756132D01*
X-9436632Y-19756132D02*
X-9500405Y-19752304D01*
X-9500405Y-19752304D02*
X-9578463Y-19773220D01*
X-9578463Y-19773220D02*
X-9646064Y-19833165D01*
X-9646064Y-19833165D02*
X-9674636Y-19882652D01*
X-9674636Y-19882652D02*
X-9692749Y-19971169D01*
X-9692749Y-19971169D02*
X-9682291Y-20010198D01*
X-9831778Y-20154832D02*
X-10017493Y-20476498D01*
X-10017493Y-20476498D02*
X-9719544Y-20417579D01*
X-9719544Y-20417579D02*
X-9762401Y-20491810D01*
X-9762401Y-20491810D02*
X-9766229Y-20555582D01*
X-9766229Y-20555582D02*
X-9755771Y-20594612D01*
X-9755771Y-20594612D02*
X-9720570Y-20647927D01*
X-9720570Y-20647927D02*
X-9596852Y-20719355D01*
X-9596852Y-20719355D02*
X-9533079Y-20723183D01*
X-9533079Y-20723183D02*
X-9494050Y-20712725D01*
X-9494050Y-20712725D02*
X-9440735Y-20677524D01*
X-9440735Y-20677524D02*
X-9355020Y-20529062D01*
X-9355020Y-20529062D02*
X-9351193Y-20465289D01*
X-9351193Y-20465289D02*
X-9361650Y-20426260D01*
X-10101431Y-21021883D02*
X-9755021Y-21221883D01*
X-10227951Y-20783879D02*
X-9785369Y-20874447D01*
X-9785369Y-20874447D02*
X-9971083Y-21196114D01*
X11433152Y12183855D02*
X11473404Y12180334D01*
X11473404Y12180334D02*
X11557431Y12213543D01*
X11557431Y12213543D02*
X11601204Y12250273D01*
X11601204Y12250273D02*
X11648500Y12327256D01*
X11648500Y12327256D02*
X11655543Y12407761D01*
X11655543Y12407761D02*
X11640700Y12469900D01*
X11640700Y12469900D02*
X11589125Y12575814D01*
X11589125Y12575814D02*
X11534029Y12641475D01*
X11534029Y12641475D02*
X11438681Y12710657D01*
X11438681Y12710657D02*
X11380063Y12736066D01*
X11380063Y12736066D02*
X11299558Y12743109D01*
X11299558Y12743109D02*
X11215532Y12709900D01*
X11215532Y12709900D02*
X11171758Y12673169D01*
X11171758Y12673169D02*
X11124462Y12596186D01*
X11124462Y12596186D02*
X11120941Y12555934D01*
X10945845Y12409011D02*
X10905593Y12412533D01*
X10905593Y12412533D02*
X10843453Y12397689D01*
X10843453Y12397689D02*
X10734018Y12305862D01*
X10734018Y12305862D02*
X10708610Y12247244D01*
X10708610Y12247244D02*
X10705088Y12206992D01*
X10705088Y12206992D02*
X10719932Y12144853D01*
X10719932Y12144853D02*
X10756663Y12101079D01*
X10756663Y12101079D02*
X10833646Y12053783D01*
X10833646Y12053783D02*
X11316674Y12011524D01*
X11316674Y12011524D02*
X11032143Y11772774D01*
X10549114Y11815033D02*
X10574523Y11873651D01*
X10574523Y11873651D02*
X10578045Y11913903D01*
X10578045Y11913903D02*
X10563201Y11976043D01*
X10563201Y11976043D02*
X10544836Y11997930D01*
X10544836Y11997930D02*
X10486218Y12023338D01*
X10486218Y12023338D02*
X10445966Y12026860D01*
X10445966Y12026860D02*
X10383826Y12012016D01*
X10383826Y12012016D02*
X10296278Y11938555D01*
X10296278Y11938555D02*
X10270870Y11879937D01*
X10270870Y11879937D02*
X10267348Y11839685D01*
X10267348Y11839685D02*
X10282192Y11777545D01*
X10282192Y11777545D02*
X10300557Y11755658D01*
X10300557Y11755658D02*
X10359175Y11730250D01*
X10359175Y11730250D02*
X10399427Y11726728D01*
X10399427Y11726728D02*
X10461567Y11741572D01*
X10461567Y11741572D02*
X10549114Y11815033D01*
X10549114Y11815033D02*
X10611254Y11829877D01*
X10611254Y11829877D02*
X10651506Y11826355D01*
X10651506Y11826355D02*
X10710124Y11800947D01*
X10710124Y11800947D02*
X10783585Y11713399D01*
X10783585Y11713399D02*
X10798429Y11651259D01*
X10798429Y11651259D02*
X10794907Y11611007D01*
X10794907Y11611007D02*
X10769499Y11552389D01*
X10769499Y11552389D02*
X10681951Y11478928D01*
X10681951Y11478928D02*
X10619812Y11464084D01*
X10619812Y11464084D02*
X10579559Y11467606D01*
X10579559Y11467606D02*
X10520941Y11493014D01*
X10520941Y11493014D02*
X10447480Y11580562D01*
X10447480Y11580562D02*
X10432636Y11642702D01*
X10432636Y11642702D02*
X10436158Y11682954D01*
X10436158Y11682954D02*
X10461567Y11741572D01*
X19625714Y-3044188D02*
X19654286Y-3072760D01*
X19654286Y-3072760D02*
X19740000Y-3101331D01*
X19740000Y-3101331D02*
X19797143Y-3101331D01*
X19797143Y-3101331D02*
X19882857Y-3072760D01*
X19882857Y-3072760D02*
X19940000Y-3015617D01*
X19940000Y-3015617D02*
X19968571Y-2958474D01*
X19968571Y-2958474D02*
X19997143Y-2844188D01*
X19997143Y-2844188D02*
X19997143Y-2758474D01*
X19997143Y-2758474D02*
X19968571Y-2644188D01*
X19968571Y-2644188D02*
X19940000Y-2587045D01*
X19940000Y-2587045D02*
X19882857Y-2529902D01*
X19882857Y-2529902D02*
X19797143Y-2501331D01*
X19797143Y-2501331D02*
X19740000Y-2501331D01*
X19740000Y-2501331D02*
X19654286Y-2529902D01*
X19654286Y-2529902D02*
X19625714Y-2558474D01*
X19054286Y-3101331D02*
X19397143Y-3101331D01*
X19225714Y-3101331D02*
X19225714Y-2501331D01*
X19225714Y-2501331D02*
X19282857Y-2587045D01*
X19282857Y-2587045D02*
X19340000Y-2644188D01*
X19340000Y-2644188D02*
X19397143Y-2672760D01*
X18825714Y-2558474D02*
X18797142Y-2529902D01*
X18797142Y-2529902D02*
X18740000Y-2501331D01*
X18740000Y-2501331D02*
X18597142Y-2501331D01*
X18597142Y-2501331D02*
X18540000Y-2529902D01*
X18540000Y-2529902D02*
X18511428Y-2558474D01*
X18511428Y-2558474D02*
X18482857Y-2615617D01*
X18482857Y-2615617D02*
X18482857Y-2672760D01*
X18482857Y-2672760D02*
X18511428Y-2758474D01*
X18511428Y-2758474D02*
X18854285Y-3101331D01*
X18854285Y-3101331D02*
X18482857Y-3101331D01*
X15825714Y-1984188D02*
X15854286Y-2012760D01*
X15854286Y-2012760D02*
X15940000Y-2041331D01*
X15940000Y-2041331D02*
X15997143Y-2041331D01*
X15997143Y-2041331D02*
X16082857Y-2012760D01*
X16082857Y-2012760D02*
X16140000Y-1955617D01*
X16140000Y-1955617D02*
X16168571Y-1898474D01*
X16168571Y-1898474D02*
X16197143Y-1784188D01*
X16197143Y-1784188D02*
X16197143Y-1698474D01*
X16197143Y-1698474D02*
X16168571Y-1584188D01*
X16168571Y-1584188D02*
X16140000Y-1527045D01*
X16140000Y-1527045D02*
X16082857Y-1469902D01*
X16082857Y-1469902D02*
X15997143Y-1441331D01*
X15997143Y-1441331D02*
X15940000Y-1441331D01*
X15940000Y-1441331D02*
X15854286Y-1469902D01*
X15854286Y-1469902D02*
X15825714Y-1498474D01*
X15254286Y-2041331D02*
X15597143Y-2041331D01*
X15425714Y-2041331D02*
X15425714Y-1441331D01*
X15425714Y-1441331D02*
X15482857Y-1527045D01*
X15482857Y-1527045D02*
X15540000Y-1584188D01*
X15540000Y-1584188D02*
X15597143Y-1612760D01*
X14682857Y-2041331D02*
X15025714Y-2041331D01*
X14854285Y-2041331D02*
X14854285Y-1441331D01*
X14854285Y-1441331D02*
X14911428Y-1527045D01*
X14911428Y-1527045D02*
X14968571Y-1584188D01*
X14968571Y-1584188D02*
X15025714Y-1612760D01*
X-7366304Y-6145492D02*
X-7327275Y-6155950D01*
X-7327275Y-6155950D02*
X-7238758Y-6137837D01*
X-7238758Y-6137837D02*
X-7189271Y-6109265D01*
X-7189271Y-6109265D02*
X-7129326Y-6041665D01*
X-7129326Y-6041665D02*
X-7108410Y-5963606D01*
X-7108410Y-5963606D02*
X-7112238Y-5899833D01*
X-7112238Y-5899833D02*
X-7144637Y-5786573D01*
X-7144637Y-5786573D02*
X-7187494Y-5712342D01*
X-7187494Y-5712342D02*
X-7269381Y-5627654D01*
X-7269381Y-5627654D02*
X-7322696Y-5592452D01*
X-7322696Y-5592452D02*
X-7400755Y-5571536D01*
X-7400755Y-5571536D02*
X-7489271Y-5589650D01*
X-7489271Y-5589650D02*
X-7538758Y-5618221D01*
X-7538758Y-5618221D02*
X-7598703Y-5685822D01*
X-7598703Y-5685822D02*
X-7609161Y-5724851D01*
X-7806084Y-6069485D02*
X-7770883Y-6016170D01*
X-7770883Y-6016170D02*
X-7760425Y-5977141D01*
X-7760425Y-5977141D02*
X-7764253Y-5913368D01*
X-7764253Y-5913368D02*
X-7778538Y-5888624D01*
X-7778538Y-5888624D02*
X-7831853Y-5853423D01*
X-7831853Y-5853423D02*
X-7870883Y-5842965D01*
X-7870883Y-5842965D02*
X-7934655Y-5846793D01*
X-7934655Y-5846793D02*
X-8033630Y-5903936D01*
X-8033630Y-5903936D02*
X-8068831Y-5957251D01*
X-8068831Y-5957251D02*
X-8079289Y-5996280D01*
X-8079289Y-5996280D02*
X-8075461Y-6060053D01*
X-8075461Y-6060053D02*
X-8061176Y-6084797D01*
X-8061176Y-6084797D02*
X-8007861Y-6119998D01*
X-8007861Y-6119998D02*
X-7968831Y-6130456D01*
X-7968831Y-6130456D02*
X-7905058Y-6126628D01*
X-7905058Y-6126628D02*
X-7806084Y-6069485D01*
X-7806084Y-6069485D02*
X-7742311Y-6065657D01*
X-7742311Y-6065657D02*
X-7703282Y-6076115D01*
X-7703282Y-6076115D02*
X-7649967Y-6111317D01*
X-7649967Y-6111317D02*
X-7592824Y-6210291D01*
X-7592824Y-6210291D02*
X-7588996Y-6274064D01*
X-7588996Y-6274064D02*
X-7599454Y-6313093D01*
X-7599454Y-6313093D02*
X-7634655Y-6366408D01*
X-7634655Y-6366408D02*
X-7733630Y-6423551D01*
X-7733630Y-6423551D02*
X-7797403Y-6427379D01*
X-7797403Y-6427379D02*
X-7836432Y-6416921D01*
X-7836432Y-6416921D02*
X-7889747Y-6381720D01*
X-7889747Y-6381720D02*
X-7946890Y-6282745D01*
X-7946890Y-6282745D02*
X-7950718Y-6218972D01*
X-7950718Y-6218972D02*
X-7940260Y-6179943D01*
X-7940260Y-6179943D02*
X-7905058Y-6126628D01*
X17157142Y-4671331D02*
X17157142Y-4071331D01*
X17157142Y-4071331D02*
X16814285Y-4671331D01*
X16814285Y-4671331D02*
X16814285Y-4071331D01*
X16185714Y-4614188D02*
X16214286Y-4642760D01*
X16214286Y-4642760D02*
X16300000Y-4671331D01*
X16300000Y-4671331D02*
X16357143Y-4671331D01*
X16357143Y-4671331D02*
X16442857Y-4642760D01*
X16442857Y-4642760D02*
X16500000Y-4585617D01*
X16500000Y-4585617D02*
X16528571Y-4528474D01*
X16528571Y-4528474D02*
X16557143Y-4414188D01*
X16557143Y-4414188D02*
X16557143Y-4328474D01*
X16557143Y-4328474D02*
X16528571Y-4214188D01*
X16528571Y-4214188D02*
X16500000Y-4157045D01*
X16500000Y-4157045D02*
X16442857Y-4099902D01*
X16442857Y-4099902D02*
X16357143Y-4071331D01*
X16357143Y-4071331D02*
X16300000Y-4071331D01*
X16300000Y-4071331D02*
X16214286Y-4099902D01*
X16214286Y-4099902D02*
X16185714Y-4128474D01*
X15642857Y-4071331D02*
X15928571Y-4071331D01*
X15928571Y-4071331D02*
X15957143Y-4357045D01*
X15957143Y-4357045D02*
X15928571Y-4328474D01*
X15928571Y-4328474D02*
X15871429Y-4299902D01*
X15871429Y-4299902D02*
X15728571Y-4299902D01*
X15728571Y-4299902D02*
X15671429Y-4328474D01*
X15671429Y-4328474D02*
X15642857Y-4357045D01*
X15642857Y-4357045D02*
X15614286Y-4414188D01*
X15614286Y-4414188D02*
X15614286Y-4557045D01*
X15614286Y-4557045D02*
X15642857Y-4614188D01*
X15642857Y-4614188D02*
X15671429Y-4642760D01*
X15671429Y-4642760D02*
X15728571Y-4671331D01*
X15728571Y-4671331D02*
X15871429Y-4671331D01*
X15871429Y-4671331D02*
X15928571Y-4642760D01*
X15928571Y-4642760D02*
X15957143Y-4614188D01*
X6660000Y7638669D02*
X6660000Y7210098D01*
X6660000Y7210098D02*
X6688571Y7124383D01*
X6688571Y7124383D02*
X6745714Y7067240D01*
X6745714Y7067240D02*
X6831428Y7038669D01*
X6831428Y7038669D02*
X6888571Y7038669D01*
X6402857Y7581526D02*
X6374285Y7610098D01*
X6374285Y7610098D02*
X6317143Y7638669D01*
X6317143Y7638669D02*
X6174285Y7638669D01*
X6174285Y7638669D02*
X6117143Y7610098D01*
X6117143Y7610098D02*
X6088571Y7581526D01*
X6088571Y7581526D02*
X6060000Y7524383D01*
X6060000Y7524383D02*
X6060000Y7467240D01*
X6060000Y7467240D02*
X6088571Y7381526D01*
X6088571Y7381526D02*
X6431428Y7038669D01*
X6431428Y7038669D02*
X6060000Y7038669D01*
X20874188Y-5874285D02*
X20902760Y-5845713D01*
X20902760Y-5845713D02*
X20931331Y-5759999D01*
X20931331Y-5759999D02*
X20931331Y-5702856D01*
X20931331Y-5702856D02*
X20902760Y-5617142D01*
X20902760Y-5617142D02*
X20845617Y-5559999D01*
X20845617Y-5559999D02*
X20788474Y-5531428D01*
X20788474Y-5531428D02*
X20674188Y-5502856D01*
X20674188Y-5502856D02*
X20588474Y-5502856D01*
X20588474Y-5502856D02*
X20474188Y-5531428D01*
X20474188Y-5531428D02*
X20417045Y-5559999D01*
X20417045Y-5559999D02*
X20359902Y-5617142D01*
X20359902Y-5617142D02*
X20331331Y-5702856D01*
X20331331Y-5702856D02*
X20331331Y-5759999D01*
X20331331Y-5759999D02*
X20359902Y-5845713D01*
X20359902Y-5845713D02*
X20388474Y-5874285D01*
X20931331Y-6445713D02*
X20931331Y-6102856D01*
X20931331Y-6274285D02*
X20331331Y-6274285D01*
X20331331Y-6274285D02*
X20417045Y-6217142D01*
X20417045Y-6217142D02*
X20474188Y-6159999D01*
X20474188Y-6159999D02*
X20502760Y-6102856D01*
X20931331Y-6731428D02*
X20931331Y-6845714D01*
X20931331Y-6845714D02*
X20902760Y-6902857D01*
X20902760Y-6902857D02*
X20874188Y-6931428D01*
X20874188Y-6931428D02*
X20788474Y-6988571D01*
X20788474Y-6988571D02*
X20674188Y-7017142D01*
X20674188Y-7017142D02*
X20445617Y-7017142D01*
X20445617Y-7017142D02*
X20388474Y-6988571D01*
X20388474Y-6988571D02*
X20359902Y-6960000D01*
X20359902Y-6960000D02*
X20331331Y-6902857D01*
X20331331Y-6902857D02*
X20331331Y-6788571D01*
X20331331Y-6788571D02*
X20359902Y-6731428D01*
X20359902Y-6731428D02*
X20388474Y-6702857D01*
X20388474Y-6702857D02*
X20445617Y-6674285D01*
X20445617Y-6674285D02*
X20588474Y-6674285D01*
X20588474Y-6674285D02*
X20645617Y-6702857D01*
X20645617Y-6702857D02*
X20674188Y-6731428D01*
X20674188Y-6731428D02*
X20702760Y-6788571D01*
X20702760Y-6788571D02*
X20702760Y-6902857D01*
X20702760Y-6902857D02*
X20674188Y-6960000D01*
X20674188Y-6960000D02*
X20645617Y-6988571D01*
X20645617Y-6988571D02*
X20588474Y-7017142D01*
X19971331Y6798572D02*
X19971331Y6427144D01*
X19971331Y6427144D02*
X20199902Y6627144D01*
X20199902Y6627144D02*
X20199902Y6541429D01*
X20199902Y6541429D02*
X20228474Y6484286D01*
X20228474Y6484286D02*
X20257045Y6455715D01*
X20257045Y6455715D02*
X20314188Y6427144D01*
X20314188Y6427144D02*
X20457045Y6427144D01*
X20457045Y6427144D02*
X20514188Y6455715D01*
X20514188Y6455715D02*
X20542760Y6484286D01*
X20542760Y6484286D02*
X20571331Y6541429D01*
X20571331Y6541429D02*
X20571331Y6712858D01*
X20571331Y6712858D02*
X20542760Y6770001D01*
X20542760Y6770001D02*
X20514188Y6798572D01*
X20171331Y6227143D02*
X20571331Y6084286D01*
X20571331Y6084286D02*
X20171331Y5941429D01*
X19971331Y5770000D02*
X19971331Y5398572D01*
X19971331Y5398572D02*
X20199902Y5598572D01*
X20199902Y5598572D02*
X20199902Y5512857D01*
X20199902Y5512857D02*
X20228474Y5455714D01*
X20228474Y5455714D02*
X20257045Y5427143D01*
X20257045Y5427143D02*
X20314188Y5398572D01*
X20314188Y5398572D02*
X20457045Y5398572D01*
X20457045Y5398572D02*
X20514188Y5427143D01*
X20514188Y5427143D02*
X20542760Y5455714D01*
X20542760Y5455714D02*
X20571331Y5512857D01*
X20571331Y5512857D02*
X20571331Y5684286D01*
X20571331Y5684286D02*
X20542760Y5741429D01*
X20542760Y5741429D02*
X20514188Y5770000D01*
X19971331Y4970000D02*
X20399902Y4970000D01*
X20399902Y4970000D02*
X20485617Y4998571D01*
X20485617Y4998571D02*
X20542760Y5055714D01*
X20542760Y5055714D02*
X20571331Y5141428D01*
X20571331Y5141428D02*
X20571331Y5198571D01*
X20571331Y4370000D02*
X20571331Y4712857D01*
X20571331Y4541428D02*
X19971331Y4541428D01*
X19971331Y4541428D02*
X20057045Y4598571D01*
X20057045Y4598571D02*
X20114188Y4655714D01*
X20114188Y4655714D02*
X20142760Y4712857D01*
X-2438669Y-20519999D02*
X-2010098Y-20519999D01*
X-2010098Y-20519999D02*
X-1924383Y-20491428D01*
X-1924383Y-20491428D02*
X-1867240Y-20434285D01*
X-1867240Y-20434285D02*
X-1838669Y-20348571D01*
X-1838669Y-20348571D02*
X-1838669Y-20291428D01*
X-1838669Y-20805714D02*
X-2438669Y-20805714D01*
X-2438669Y-20805714D02*
X-2438669Y-21034285D01*
X-2438669Y-21034285D02*
X-2410098Y-21091428D01*
X-2410098Y-21091428D02*
X-2381526Y-21119999D01*
X-2381526Y-21119999D02*
X-2324383Y-21148571D01*
X-2324383Y-21148571D02*
X-2238669Y-21148571D01*
X-2238669Y-21148571D02*
X-2181526Y-21119999D01*
X-2181526Y-21119999D02*
X-2152955Y-21091428D01*
X-2152955Y-21091428D02*
X-2124383Y-21034285D01*
X-2124383Y-21034285D02*
X-2124383Y-20805714D01*
X-2381526Y-21377142D02*
X-2410098Y-21405714D01*
X-2410098Y-21405714D02*
X-2438669Y-21462857D01*
X-2438669Y-21462857D02*
X-2438669Y-21605714D01*
X-2438669Y-21605714D02*
X-2410098Y-21662857D01*
X-2410098Y-21662857D02*
X-2381526Y-21691428D01*
X-2381526Y-21691428D02*
X-2324383Y-21719999D01*
X-2324383Y-21719999D02*
X-2267240Y-21719999D01*
X-2267240Y-21719999D02*
X-2181526Y-21691428D01*
X-2181526Y-21691428D02*
X-1838669Y-21348571D01*
X-1838669Y-21348571D02*
X-1838669Y-21719999D01*
X5971331Y-19974285D02*
X5685617Y-19774285D01*
X5971331Y-19631428D02*
X5371331Y-19631428D01*
X5371331Y-19631428D02*
X5371331Y-19859999D01*
X5371331Y-19859999D02*
X5399902Y-19917142D01*
X5399902Y-19917142D02*
X5428474Y-19945713D01*
X5428474Y-19945713D02*
X5485617Y-19974285D01*
X5485617Y-19974285D02*
X5571331Y-19974285D01*
X5571331Y-19974285D02*
X5628474Y-19945713D01*
X5628474Y-19945713D02*
X5657045Y-19917142D01*
X5657045Y-19917142D02*
X5685617Y-19859999D01*
X5685617Y-19859999D02*
X5685617Y-19631428D01*
X5971331Y-20545713D02*
X5971331Y-20202856D01*
X5971331Y-20374285D02*
X5371331Y-20374285D01*
X5371331Y-20374285D02*
X5457045Y-20317142D01*
X5457045Y-20317142D02*
X5514188Y-20259999D01*
X5514188Y-20259999D02*
X5542760Y-20202856D01*
X5371331Y-21060000D02*
X5371331Y-20945714D01*
X5371331Y-20945714D02*
X5399902Y-20888571D01*
X5399902Y-20888571D02*
X5428474Y-20860000D01*
X5428474Y-20860000D02*
X5514188Y-20802857D01*
X5514188Y-20802857D02*
X5628474Y-20774285D01*
X5628474Y-20774285D02*
X5857045Y-20774285D01*
X5857045Y-20774285D02*
X5914188Y-20802857D01*
X5914188Y-20802857D02*
X5942760Y-20831428D01*
X5942760Y-20831428D02*
X5971331Y-20888571D01*
X5971331Y-20888571D02*
X5971331Y-21002857D01*
X5971331Y-21002857D02*
X5942760Y-21060000D01*
X5942760Y-21060000D02*
X5914188Y-21088571D01*
X5914188Y-21088571D02*
X5857045Y-21117142D01*
X5857045Y-21117142D02*
X5714188Y-21117142D01*
X5714188Y-21117142D02*
X5657045Y-21088571D01*
X5657045Y-21088571D02*
X5628474Y-21060000D01*
X5628474Y-21060000D02*
X5599902Y-21002857D01*
X5599902Y-21002857D02*
X5599902Y-20888571D01*
X5599902Y-20888571D02*
X5628474Y-20831428D01*
X5628474Y-20831428D02*
X5657045Y-20802857D01*
X5657045Y-20802857D02*
X5714188Y-20774285D01*
X-16771323Y-4365364D02*
X-16557037Y-4736518D01*
X-16557037Y-4736518D02*
X-16489436Y-4796463D01*
X-16489436Y-4796463D02*
X-16411378Y-4817379D01*
X-16411378Y-4817379D02*
X-16322861Y-4799265D01*
X-16322861Y-4799265D02*
X-16273374Y-4770694D01*
X-16718759Y-5027836D02*
X-17018759Y-4508221D01*
X-17018759Y-4508221D02*
X-17216707Y-4622507D01*
X-17216707Y-4622507D02*
X-17251909Y-4675822D01*
X-17251909Y-4675822D02*
X-17262367Y-4714851D01*
X-17262367Y-4714851D02*
X-17258539Y-4778624D01*
X-17258539Y-4778624D02*
X-17215682Y-4852855D01*
X-17215682Y-4852855D02*
X-17162367Y-4888056D01*
X-17162367Y-4888056D02*
X-17123337Y-4898514D01*
X-17123337Y-4898514D02*
X-17059565Y-4894686D01*
X-17059565Y-4894686D02*
X-16861616Y-4780401D01*
X-17661066Y-5109998D02*
X-17461066Y-5456408D01*
X-17651634Y-4840621D02*
X-17313630Y-5140346D01*
X-17313630Y-5140346D02*
X-17635297Y-5326060D01*
X11054188Y-16644285D02*
X11082760Y-16615713D01*
X11082760Y-16615713D02*
X11111331Y-16529999D01*
X11111331Y-16529999D02*
X11111331Y-16472856D01*
X11111331Y-16472856D02*
X11082760Y-16387142D01*
X11082760Y-16387142D02*
X11025617Y-16329999D01*
X11025617Y-16329999D02*
X10968474Y-16301428D01*
X10968474Y-16301428D02*
X10854188Y-16272856D01*
X10854188Y-16272856D02*
X10768474Y-16272856D01*
X10768474Y-16272856D02*
X10654188Y-16301428D01*
X10654188Y-16301428D02*
X10597045Y-16329999D01*
X10597045Y-16329999D02*
X10539902Y-16387142D01*
X10539902Y-16387142D02*
X10511331Y-16472856D01*
X10511331Y-16472856D02*
X10511331Y-16529999D01*
X10511331Y-16529999D02*
X10539902Y-16615713D01*
X10539902Y-16615713D02*
X10568474Y-16644285D01*
X11111331Y-17215713D02*
X11111331Y-16872856D01*
X11111331Y-17044285D02*
X10511331Y-17044285D01*
X10511331Y-17044285D02*
X10597045Y-16987142D01*
X10597045Y-16987142D02*
X10654188Y-16929999D01*
X10654188Y-16929999D02*
X10682760Y-16872856D01*
X10511331Y-17730000D02*
X10511331Y-17615714D01*
X10511331Y-17615714D02*
X10539902Y-17558571D01*
X10539902Y-17558571D02*
X10568474Y-17530000D01*
X10568474Y-17530000D02*
X10654188Y-17472857D01*
X10654188Y-17472857D02*
X10768474Y-17444285D01*
X10768474Y-17444285D02*
X10997045Y-17444285D01*
X10997045Y-17444285D02*
X11054188Y-17472857D01*
X11054188Y-17472857D02*
X11082760Y-17501428D01*
X11082760Y-17501428D02*
X11111331Y-17558571D01*
X11111331Y-17558571D02*
X11111331Y-17672857D01*
X11111331Y-17672857D02*
X11082760Y-17730000D01*
X11082760Y-17730000D02*
X11054188Y-17758571D01*
X11054188Y-17758571D02*
X10997045Y-17787142D01*
X10997045Y-17787142D02*
X10854188Y-17787142D01*
X10854188Y-17787142D02*
X10797045Y-17758571D01*
X10797045Y-17758571D02*
X10768474Y-17730000D01*
X10768474Y-17730000D02*
X10739902Y-17672857D01*
X10739902Y-17672857D02*
X10739902Y-17558571D01*
X10739902Y-17558571D02*
X10768474Y-17501428D01*
X10768474Y-17501428D02*
X10797045Y-17472857D01*
X10797045Y-17472857D02*
X10854188Y-17444285D01*
X8551331Y-17884285D02*
X8265617Y-17684285D01*
X8551331Y-17541428D02*
X7951331Y-17541428D01*
X7951331Y-17541428D02*
X7951331Y-17769999D01*
X7951331Y-17769999D02*
X7979902Y-17827142D01*
X7979902Y-17827142D02*
X8008474Y-17855713D01*
X8008474Y-17855713D02*
X8065617Y-17884285D01*
X8065617Y-17884285D02*
X8151331Y-17884285D01*
X8151331Y-17884285D02*
X8208474Y-17855713D01*
X8208474Y-17855713D02*
X8237045Y-17827142D01*
X8237045Y-17827142D02*
X8265617Y-17769999D01*
X8265617Y-17769999D02*
X8265617Y-17541428D01*
X8551331Y-18455713D02*
X8551331Y-18112856D01*
X8551331Y-18284285D02*
X7951331Y-18284285D01*
X7951331Y-18284285D02*
X8037045Y-18227142D01*
X8037045Y-18227142D02*
X8094188Y-18169999D01*
X8094188Y-18169999D02*
X8122760Y-18112856D01*
X8551331Y-19027142D02*
X8551331Y-18684285D01*
X8551331Y-18855714D02*
X7951331Y-18855714D01*
X7951331Y-18855714D02*
X8037045Y-18798571D01*
X8037045Y-18798571D02*
X8094188Y-18741428D01*
X8094188Y-18741428D02*
X8122760Y-18684285D01*
X-8436304Y-4745492D02*
X-8397275Y-4755950D01*
X-8397275Y-4755950D02*
X-8308758Y-4737837D01*
X-8308758Y-4737837D02*
X-8259271Y-4709265D01*
X-8259271Y-4709265D02*
X-8199326Y-4641665D01*
X-8199326Y-4641665D02*
X-8178410Y-4563606D01*
X-8178410Y-4563606D02*
X-8182238Y-4499833D01*
X-8182238Y-4499833D02*
X-8214637Y-4386573D01*
X-8214637Y-4386573D02*
X-8257494Y-4312342D01*
X-8257494Y-4312342D02*
X-8339381Y-4227654D01*
X-8339381Y-4227654D02*
X-8392696Y-4192452D01*
X-8392696Y-4192452D02*
X-8470755Y-4171536D01*
X-8470755Y-4171536D02*
X-8559271Y-4189650D01*
X-8559271Y-4189650D02*
X-8608758Y-4218221D01*
X-8608758Y-4218221D02*
X-8668703Y-4285822D01*
X-8668703Y-4285822D02*
X-8679161Y-4324851D01*
X-9153117Y-4532507D02*
X-9054143Y-4475364D01*
X-9054143Y-4475364D02*
X-8990370Y-4471536D01*
X-8990370Y-4471536D02*
X-8951340Y-4481994D01*
X-8951340Y-4481994D02*
X-8858996Y-4527654D01*
X-8858996Y-4527654D02*
X-8777110Y-4612342D01*
X-8777110Y-4612342D02*
X-8662824Y-4810291D01*
X-8662824Y-4810291D02*
X-8658996Y-4874064D01*
X-8658996Y-4874064D02*
X-8669454Y-4913093D01*
X-8669454Y-4913093D02*
X-8704655Y-4966408D01*
X-8704655Y-4966408D02*
X-8803630Y-5023551D01*
X-8803630Y-5023551D02*
X-8867403Y-5027379D01*
X-8867403Y-5027379D02*
X-8906432Y-5016921D01*
X-8906432Y-5016921D02*
X-8959747Y-4981720D01*
X-8959747Y-4981720D02*
X-9031176Y-4858002D01*
X-9031176Y-4858002D02*
X-9035003Y-4794229D01*
X-9035003Y-4794229D02*
X-9024546Y-4755199D01*
X-9024546Y-4755199D02*
X-8989344Y-4701884D01*
X-8989344Y-4701884D02*
X-8890370Y-4644742D01*
X-8890370Y-4644742D02*
X-8826597Y-4640914D01*
X-8826597Y-4640914D02*
X-8787568Y-4651372D01*
X-8787568Y-4651372D02*
X-8734253Y-4686573D01*
X-6686304Y-7595492D02*
X-6647275Y-7605950D01*
X-6647275Y-7605950D02*
X-6558758Y-7587837D01*
X-6558758Y-7587837D02*
X-6509271Y-7559265D01*
X-6509271Y-7559265D02*
X-6449326Y-7491665D01*
X-6449326Y-7491665D02*
X-6428410Y-7413606D01*
X-6428410Y-7413606D02*
X-6432238Y-7349833D01*
X-6432238Y-7349833D02*
X-6464637Y-7236573D01*
X-6464637Y-7236573D02*
X-6507494Y-7162342D01*
X-6507494Y-7162342D02*
X-6589381Y-7077654D01*
X-6589381Y-7077654D02*
X-6642696Y-7042452D01*
X-6642696Y-7042452D02*
X-6720755Y-7021536D01*
X-6720755Y-7021536D02*
X-6809271Y-7039650D01*
X-6809271Y-7039650D02*
X-6858758Y-7068221D01*
X-6858758Y-7068221D02*
X-6918703Y-7135822D01*
X-6918703Y-7135822D02*
X-6929161Y-7174851D01*
X-7130938Y-7225364D02*
X-7477348Y-7425364D01*
X-7477348Y-7425364D02*
X-6954655Y-7816408D01*
X6204188Y-11814285D02*
X6232760Y-11785713D01*
X6232760Y-11785713D02*
X6261331Y-11699999D01*
X6261331Y-11699999D02*
X6261331Y-11642856D01*
X6261331Y-11642856D02*
X6232760Y-11557142D01*
X6232760Y-11557142D02*
X6175617Y-11499999D01*
X6175617Y-11499999D02*
X6118474Y-11471428D01*
X6118474Y-11471428D02*
X6004188Y-11442856D01*
X6004188Y-11442856D02*
X5918474Y-11442856D01*
X5918474Y-11442856D02*
X5804188Y-11471428D01*
X5804188Y-11471428D02*
X5747045Y-11499999D01*
X5747045Y-11499999D02*
X5689902Y-11557142D01*
X5689902Y-11557142D02*
X5661331Y-11642856D01*
X5661331Y-11642856D02*
X5661331Y-11699999D01*
X5661331Y-11699999D02*
X5689902Y-11785713D01*
X5689902Y-11785713D02*
X5718474Y-11814285D01*
X6261331Y-12385713D02*
X6261331Y-12042856D01*
X6261331Y-12214285D02*
X5661331Y-12214285D01*
X5661331Y-12214285D02*
X5747045Y-12157142D01*
X5747045Y-12157142D02*
X5804188Y-12099999D01*
X5804188Y-12099999D02*
X5832760Y-12042856D01*
X5861331Y-12900000D02*
X6261331Y-12900000D01*
X5632760Y-12757142D02*
X6061331Y-12614285D01*
X6061331Y-12614285D02*
X6061331Y-12985714D01*
X9559883Y12240081D02*
X9529438Y12587509D01*
X9822526Y12460466D02*
X9436854Y12920092D01*
X9436854Y12920092D02*
X9261758Y12773169D01*
X9261758Y12773169D02*
X9236349Y12714552D01*
X9236349Y12714552D02*
X9232828Y12674299D01*
X9232828Y12674299D02*
X9247671Y12612160D01*
X9247671Y12612160D02*
X9302768Y12546499D01*
X9302768Y12546499D02*
X9361385Y12521090D01*
X9361385Y12521090D02*
X9401638Y12517569D01*
X9401638Y12517569D02*
X9463777Y12532412D01*
X9463777Y12532412D02*
X9638873Y12679335D01*
X9122143Y11872774D02*
X9384787Y12093158D01*
X9253465Y11982966D02*
X8867792Y12442593D01*
X8867792Y12442593D02*
X8966662Y12413663D01*
X8966662Y12413663D02*
X9047167Y12406619D01*
X9047167Y12406619D02*
X9109306Y12421463D01*
X8471062Y11848615D02*
X8728177Y11542197D01*
X8433574Y12115538D02*
X8818489Y11879060D01*
X8818489Y11879060D02*
X8533958Y11640310D01*
X-916332Y-1937142D02*
X-1402046Y-1937142D01*
X-1402046Y-1937142D02*
X-1459189Y-1908571D01*
X-1459189Y-1908571D02*
X-1487760Y-1880000D01*
X-1487760Y-1880000D02*
X-1516332Y-1822857D01*
X-1516332Y-1822857D02*
X-1516332Y-1708571D01*
X-1516332Y-1708571D02*
X-1487760Y-1651428D01*
X-1487760Y-1651428D02*
X-1459189Y-1622857D01*
X-1459189Y-1622857D02*
X-1402046Y-1594285D01*
X-1402046Y-1594285D02*
X-916332Y-1594285D01*
X-973475Y-1337143D02*
X-944903Y-1308571D01*
X-944903Y-1308571D02*
X-916332Y-1251429D01*
X-916332Y-1251429D02*
X-916332Y-1108571D01*
X-916332Y-1108571D02*
X-944903Y-1051429D01*
X-944903Y-1051429D02*
X-973475Y-1022857D01*
X-973475Y-1022857D02*
X-1030618Y-994286D01*
X-1030618Y-994286D02*
X-1087760Y-994286D01*
X-1087760Y-994286D02*
X-1173475Y-1022857D01*
X-1173475Y-1022857D02*
X-1516332Y-1365714D01*
X-1516332Y-1365714D02*
X-1516332Y-994286D01*
X-13356794Y-12901563D02*
X-13777435Y-13144420D01*
X-13777435Y-13144420D02*
X-13841208Y-13148248D01*
X-13841208Y-13148248D02*
X-13880237Y-13137790D01*
X-13880237Y-13137790D02*
X-13933552Y-13102588D01*
X-13933552Y-13102588D02*
X-13990695Y-13003614D01*
X-13990695Y-13003614D02*
X-13994523Y-12939841D01*
X-13994523Y-12939841D02*
X-13984065Y-12900812D01*
X-13984065Y-12900812D02*
X-13948863Y-12847497D01*
X-13948863Y-12847497D02*
X-13528222Y-12604640D01*
X-14347837Y-12385025D02*
X-14176409Y-12681948D01*
X-14262123Y-12533486D02*
X-13742508Y-12233486D01*
X-13742508Y-12233486D02*
X-13788167Y-12325830D01*
X-13788167Y-12325830D02*
X-13809083Y-12403889D01*
X-13809083Y-12403889D02*
X-13805255Y-12467662D01*
X-9497540Y-14584635D02*
X-9283254Y-14213481D01*
X-9283254Y-14213481D02*
X-9265141Y-14124964D01*
X-9265141Y-14124964D02*
X-9286057Y-14046906D01*
X-9286057Y-14046906D02*
X-9346002Y-13979305D01*
X-9346002Y-13979305D02*
X-9395489Y-13950734D01*
X-8677925Y-14365020D02*
X-8974848Y-14193591D01*
X-8826386Y-14279305D02*
X-9126386Y-14798920D01*
X-9126386Y-14798920D02*
X-9133016Y-14696118D01*
X-9133016Y-14696118D02*
X-9153932Y-14618060D01*
X-9153932Y-14618060D02*
X-9189133Y-14564745D01*
X3061331Y-13070000D02*
X2775617Y-12870000D01*
X3061331Y-12727143D02*
X2461331Y-12727143D01*
X2461331Y-12727143D02*
X2461331Y-12955714D01*
X2461331Y-12955714D02*
X2489902Y-13012857D01*
X2489902Y-13012857D02*
X2518474Y-13041428D01*
X2518474Y-13041428D02*
X2575617Y-13070000D01*
X2575617Y-13070000D02*
X2661331Y-13070000D01*
X2661331Y-13070000D02*
X2718474Y-13041428D01*
X2718474Y-13041428D02*
X2747045Y-13012857D01*
X2747045Y-13012857D02*
X2775617Y-12955714D01*
X2775617Y-12955714D02*
X2775617Y-12727143D01*
X3061331Y-13355714D02*
X3061331Y-13470000D01*
X3061331Y-13470000D02*
X3032760Y-13527143D01*
X3032760Y-13527143D02*
X3004188Y-13555714D01*
X3004188Y-13555714D02*
X2918474Y-13612857D01*
X2918474Y-13612857D02*
X2804188Y-13641428D01*
X2804188Y-13641428D02*
X2575617Y-13641428D01*
X2575617Y-13641428D02*
X2518474Y-13612857D01*
X2518474Y-13612857D02*
X2489902Y-13584286D01*
X2489902Y-13584286D02*
X2461331Y-13527143D01*
X2461331Y-13527143D02*
X2461331Y-13412857D01*
X2461331Y-13412857D02*
X2489902Y-13355714D01*
X2489902Y-13355714D02*
X2518474Y-13327143D01*
X2518474Y-13327143D02*
X2575617Y-13298571D01*
X2575617Y-13298571D02*
X2718474Y-13298571D01*
X2718474Y-13298571D02*
X2775617Y-13327143D01*
X2775617Y-13327143D02*
X2804188Y-13355714D01*
X2804188Y-13355714D02*
X2832760Y-13412857D01*
X2832760Y-13412857D02*
X2832760Y-13527143D01*
X2832760Y-13527143D02*
X2804188Y-13584286D01*
X2804188Y-13584286D02*
X2775617Y-13612857D01*
X2775617Y-13612857D02*
X2718474Y-13641428D01*
X17521331Y5517143D02*
X16921331Y5517143D01*
X16921331Y5517143D02*
X17521331Y5174286D01*
X17521331Y5174286D02*
X16921331Y5174286D01*
X17464188Y4545715D02*
X17492760Y4574287D01*
X17492760Y4574287D02*
X17521331Y4660001D01*
X17521331Y4660001D02*
X17521331Y4717144D01*
X17521331Y4717144D02*
X17492760Y4802858D01*
X17492760Y4802858D02*
X17435617Y4860001D01*
X17435617Y4860001D02*
X17378474Y4888572D01*
X17378474Y4888572D02*
X17264188Y4917144D01*
X17264188Y4917144D02*
X17178474Y4917144D01*
X17178474Y4917144D02*
X17064188Y4888572D01*
X17064188Y4888572D02*
X17007045Y4860001D01*
X17007045Y4860001D02*
X16949902Y4802858D01*
X16949902Y4802858D02*
X16921331Y4717144D01*
X16921331Y4717144D02*
X16921331Y4660001D01*
X16921331Y4660001D02*
X16949902Y4574287D01*
X16949902Y4574287D02*
X16978474Y4545715D01*
X17521331Y3974287D02*
X17521331Y4317144D01*
X17521331Y4145715D02*
X16921331Y4145715D01*
X16921331Y4145715D02*
X17007045Y4202858D01*
X17007045Y4202858D02*
X17064188Y4260001D01*
X17064188Y4260001D02*
X17092760Y4317144D01*
X8174188Y-14884285D02*
X8202760Y-14855713D01*
X8202760Y-14855713D02*
X8231331Y-14769999D01*
X8231331Y-14769999D02*
X8231331Y-14712856D01*
X8231331Y-14712856D02*
X8202760Y-14627142D01*
X8202760Y-14627142D02*
X8145617Y-14569999D01*
X8145617Y-14569999D02*
X8088474Y-14541428D01*
X8088474Y-14541428D02*
X7974188Y-14512856D01*
X7974188Y-14512856D02*
X7888474Y-14512856D01*
X7888474Y-14512856D02*
X7774188Y-14541428D01*
X7774188Y-14541428D02*
X7717045Y-14569999D01*
X7717045Y-14569999D02*
X7659902Y-14627142D01*
X7659902Y-14627142D02*
X7631331Y-14712856D01*
X7631331Y-14712856D02*
X7631331Y-14769999D01*
X7631331Y-14769999D02*
X7659902Y-14855713D01*
X7659902Y-14855713D02*
X7688474Y-14884285D01*
X8231331Y-15455713D02*
X8231331Y-15112856D01*
X8231331Y-15284285D02*
X7631331Y-15284285D01*
X7631331Y-15284285D02*
X7717045Y-15227142D01*
X7717045Y-15227142D02*
X7774188Y-15169999D01*
X7774188Y-15169999D02*
X7802760Y-15112856D01*
X7631331Y-15998571D02*
X7631331Y-15712857D01*
X7631331Y-15712857D02*
X7917045Y-15684285D01*
X7917045Y-15684285D02*
X7888474Y-15712857D01*
X7888474Y-15712857D02*
X7859902Y-15770000D01*
X7859902Y-15770000D02*
X7859902Y-15912857D01*
X7859902Y-15912857D02*
X7888474Y-15970000D01*
X7888474Y-15970000D02*
X7917045Y-15998571D01*
X7917045Y-15998571D02*
X7974188Y-16027142D01*
X7974188Y-16027142D02*
X8117045Y-16027142D01*
X8117045Y-16027142D02*
X8174188Y-15998571D01*
X8174188Y-15998571D02*
X8202760Y-15970000D01*
X8202760Y-15970000D02*
X8231331Y-15912857D01*
X8231331Y-15912857D02*
X8231331Y-15770000D01*
X8231331Y-15770000D02*
X8202760Y-15712857D01*
X8202760Y-15712857D02*
X8174188Y-15684285D01*
X7287142Y-5681331D02*
X7287142Y-6167045D01*
X7287142Y-6167045D02*
X7258571Y-6224188D01*
X7258571Y-6224188D02*
X7230000Y-6252760D01*
X7230000Y-6252760D02*
X7172857Y-6281331D01*
X7172857Y-6281331D02*
X7058571Y-6281331D01*
X7058571Y-6281331D02*
X7001428Y-6252760D01*
X7001428Y-6252760D02*
X6972857Y-6224188D01*
X6972857Y-6224188D02*
X6944285Y-6167045D01*
X6944285Y-6167045D02*
X6944285Y-5681331D01*
X6372857Y-5681331D02*
X6658571Y-5681331D01*
X6658571Y-5681331D02*
X6687143Y-5967045D01*
X6687143Y-5967045D02*
X6658571Y-5938474D01*
X6658571Y-5938474D02*
X6601429Y-5909902D01*
X6601429Y-5909902D02*
X6458571Y-5909902D01*
X6458571Y-5909902D02*
X6401429Y-5938474D01*
X6401429Y-5938474D02*
X6372857Y-5967045D01*
X6372857Y-5967045D02*
X6344286Y-6024188D01*
X6344286Y-6024188D02*
X6344286Y-6167045D01*
X6344286Y-6167045D02*
X6372857Y-6224188D01*
X6372857Y-6224188D02*
X6401429Y-6252760D01*
X6401429Y-6252760D02*
X6458571Y-6281331D01*
X6458571Y-6281331D02*
X6601429Y-6281331D01*
X6601429Y-6281331D02*
X6658571Y-6252760D01*
X6658571Y-6252760D02*
X6687143Y-6224188D01*
X-11741627Y-19867837D02*
X-11425565Y-19720401D01*
X-11444704Y-20039265D02*
X-11144704Y-19519650D01*
X-11144704Y-19519650D02*
X-11342653Y-19405364D01*
X-11342653Y-19405364D02*
X-11406426Y-19401537D01*
X-11406426Y-19401537D02*
X-11445455Y-19411994D01*
X-11445455Y-19411994D02*
X-11498770Y-19447196D01*
X-11498770Y-19447196D02*
X-11541627Y-19521427D01*
X-11541627Y-19521427D02*
X-11545455Y-19585199D01*
X-11545455Y-19585199D02*
X-11534997Y-19624229D01*
X-11534997Y-19624229D02*
X-11499796Y-19677544D01*
X-11499796Y-19677544D02*
X-11301847Y-19791830D01*
X-12236499Y-19582122D02*
X-11939576Y-19753551D01*
X-12088038Y-19667837D02*
X-11788038Y-19148222D01*
X-11788038Y-19148222D02*
X-11781408Y-19251024D01*
X-11781408Y-19251024D02*
X-11760492Y-19329082D01*
X-11760492Y-19329082D02*
X-11725290Y-19382397D01*
X-12109705Y-18962507D02*
X-12431371Y-18776793D01*
X-12431371Y-18776793D02*
X-12372452Y-19074741D01*
X-12372452Y-19074741D02*
X-12446683Y-19031884D01*
X-12446683Y-19031884D02*
X-12510455Y-19028056D01*
X-12510455Y-19028056D02*
X-12549485Y-19038514D01*
X-12549485Y-19038514D02*
X-12602800Y-19073716D01*
X-12602800Y-19073716D02*
X-12674228Y-19197434D01*
X-12674228Y-19197434D02*
X-12678056Y-19261207D01*
X-12678056Y-19261207D02*
X-12667598Y-19300236D01*
X-12667598Y-19300236D02*
X-12632397Y-19353551D01*
X-12632397Y-19353551D02*
X-12483935Y-19439265D01*
X-12483935Y-19439265D02*
X-12420162Y-19443093D01*
X-12420162Y-19443093D02*
X-12381133Y-19432635D01*
X8105714Y-4354188D02*
X8134286Y-4382760D01*
X8134286Y-4382760D02*
X8220000Y-4411331D01*
X8220000Y-4411331D02*
X8277143Y-4411331D01*
X8277143Y-4411331D02*
X8362857Y-4382760D01*
X8362857Y-4382760D02*
X8420000Y-4325617D01*
X8420000Y-4325617D02*
X8448571Y-4268474D01*
X8448571Y-4268474D02*
X8477143Y-4154188D01*
X8477143Y-4154188D02*
X8477143Y-4068474D01*
X8477143Y-4068474D02*
X8448571Y-3954188D01*
X8448571Y-3954188D02*
X8420000Y-3897045D01*
X8420000Y-3897045D02*
X8362857Y-3839902D01*
X8362857Y-3839902D02*
X8277143Y-3811331D01*
X8277143Y-3811331D02*
X8220000Y-3811331D01*
X8220000Y-3811331D02*
X8134286Y-3839902D01*
X8134286Y-3839902D02*
X8105714Y-3868474D01*
X7534286Y-4411331D02*
X7877143Y-4411331D01*
X7705714Y-4411331D02*
X7705714Y-3811331D01*
X7705714Y-3811331D02*
X7762857Y-3897045D01*
X7762857Y-3897045D02*
X7820000Y-3954188D01*
X7820000Y-3954188D02*
X7877143Y-3982760D01*
X7191428Y-4068474D02*
X7248571Y-4039902D01*
X7248571Y-4039902D02*
X7277142Y-4011331D01*
X7277142Y-4011331D02*
X7305714Y-3954188D01*
X7305714Y-3954188D02*
X7305714Y-3925617D01*
X7305714Y-3925617D02*
X7277142Y-3868474D01*
X7277142Y-3868474D02*
X7248571Y-3839902D01*
X7248571Y-3839902D02*
X7191428Y-3811331D01*
X7191428Y-3811331D02*
X7077142Y-3811331D01*
X7077142Y-3811331D02*
X7020000Y-3839902D01*
X7020000Y-3839902D02*
X6991428Y-3868474D01*
X6991428Y-3868474D02*
X6962857Y-3925617D01*
X6962857Y-3925617D02*
X6962857Y-3954188D01*
X6962857Y-3954188D02*
X6991428Y-4011331D01*
X6991428Y-4011331D02*
X7020000Y-4039902D01*
X7020000Y-4039902D02*
X7077142Y-4068474D01*
X7077142Y-4068474D02*
X7191428Y-4068474D01*
X7191428Y-4068474D02*
X7248571Y-4097045D01*
X7248571Y-4097045D02*
X7277142Y-4125617D01*
X7277142Y-4125617D02*
X7305714Y-4182760D01*
X7305714Y-4182760D02*
X7305714Y-4297045D01*
X7305714Y-4297045D02*
X7277142Y-4354188D01*
X7277142Y-4354188D02*
X7248571Y-4382760D01*
X7248571Y-4382760D02*
X7191428Y-4411331D01*
X7191428Y-4411331D02*
X7077142Y-4411331D01*
X7077142Y-4411331D02*
X7020000Y-4382760D01*
X7020000Y-4382760D02*
X6991428Y-4354188D01*
X6991428Y-4354188D02*
X6962857Y-4297045D01*
X6962857Y-4297045D02*
X6962857Y-4182760D01*
X6962857Y-4182760D02*
X6991428Y-4125617D01*
X6991428Y-4125617D02*
X7020000Y-4097045D01*
X7020000Y-4097045D02*
X7077142Y-4068474D01*
X18314188Y-11694285D02*
X18342760Y-11665713D01*
X18342760Y-11665713D02*
X18371331Y-11579999D01*
X18371331Y-11579999D02*
X18371331Y-11522856D01*
X18371331Y-11522856D02*
X18342760Y-11437142D01*
X18342760Y-11437142D02*
X18285617Y-11379999D01*
X18285617Y-11379999D02*
X18228474Y-11351428D01*
X18228474Y-11351428D02*
X18114188Y-11322856D01*
X18114188Y-11322856D02*
X18028474Y-11322856D01*
X18028474Y-11322856D02*
X17914188Y-11351428D01*
X17914188Y-11351428D02*
X17857045Y-11379999D01*
X17857045Y-11379999D02*
X17799902Y-11437142D01*
X17799902Y-11437142D02*
X17771331Y-11522856D01*
X17771331Y-11522856D02*
X17771331Y-11579999D01*
X17771331Y-11579999D02*
X17799902Y-11665713D01*
X17799902Y-11665713D02*
X17828474Y-11694285D01*
X17828474Y-11922856D02*
X17799902Y-11951428D01*
X17799902Y-11951428D02*
X17771331Y-12008571D01*
X17771331Y-12008571D02*
X17771331Y-12151428D01*
X17771331Y-12151428D02*
X17799902Y-12208571D01*
X17799902Y-12208571D02*
X17828474Y-12237142D01*
X17828474Y-12237142D02*
X17885617Y-12265713D01*
X17885617Y-12265713D02*
X17942760Y-12265713D01*
X17942760Y-12265713D02*
X18028474Y-12237142D01*
X18028474Y-12237142D02*
X18371331Y-11894285D01*
X18371331Y-11894285D02*
X18371331Y-12265713D01*
X17828474Y-12494285D02*
X17799902Y-12522857D01*
X17799902Y-12522857D02*
X17771331Y-12580000D01*
X17771331Y-12580000D02*
X17771331Y-12722857D01*
X17771331Y-12722857D02*
X17799902Y-12780000D01*
X17799902Y-12780000D02*
X17828474Y-12808571D01*
X17828474Y-12808571D02*
X17885617Y-12837142D01*
X17885617Y-12837142D02*
X17942760Y-12837142D01*
X17942760Y-12837142D02*
X18028474Y-12808571D01*
X18028474Y-12808571D02*
X18371331Y-12465714D01*
X18371331Y-12465714D02*
X18371331Y-12837142D01*
X4781331Y-12650000D02*
X4495617Y-12450000D01*
X4781331Y-12307143D02*
X4181331Y-12307143D01*
X4181331Y-12307143D02*
X4181331Y-12535714D01*
X4181331Y-12535714D02*
X4209902Y-12592857D01*
X4209902Y-12592857D02*
X4238474Y-12621428D01*
X4238474Y-12621428D02*
X4295617Y-12650000D01*
X4295617Y-12650000D02*
X4381331Y-12650000D01*
X4381331Y-12650000D02*
X4438474Y-12621428D01*
X4438474Y-12621428D02*
X4467045Y-12592857D01*
X4467045Y-12592857D02*
X4495617Y-12535714D01*
X4495617Y-12535714D02*
X4495617Y-12307143D01*
X4438474Y-12992857D02*
X4409902Y-12935714D01*
X4409902Y-12935714D02*
X4381331Y-12907143D01*
X4381331Y-12907143D02*
X4324188Y-12878571D01*
X4324188Y-12878571D02*
X4295617Y-12878571D01*
X4295617Y-12878571D02*
X4238474Y-12907143D01*
X4238474Y-12907143D02*
X4209902Y-12935714D01*
X4209902Y-12935714D02*
X4181331Y-12992857D01*
X4181331Y-12992857D02*
X4181331Y-13107143D01*
X4181331Y-13107143D02*
X4209902Y-13164286D01*
X4209902Y-13164286D02*
X4238474Y-13192857D01*
X4238474Y-13192857D02*
X4295617Y-13221428D01*
X4295617Y-13221428D02*
X4324188Y-13221428D01*
X4324188Y-13221428D02*
X4381331Y-13192857D01*
X4381331Y-13192857D02*
X4409902Y-13164286D01*
X4409902Y-13164286D02*
X4438474Y-13107143D01*
X4438474Y-13107143D02*
X4438474Y-12992857D01*
X4438474Y-12992857D02*
X4467045Y-12935714D01*
X4467045Y-12935714D02*
X4495617Y-12907143D01*
X4495617Y-12907143D02*
X4552760Y-12878571D01*
X4552760Y-12878571D02*
X4667045Y-12878571D01*
X4667045Y-12878571D02*
X4724188Y-12907143D01*
X4724188Y-12907143D02*
X4752760Y-12935714D01*
X4752760Y-12935714D02*
X4781331Y-12992857D01*
X4781331Y-12992857D02*
X4781331Y-13107143D01*
X4781331Y-13107143D02*
X4752760Y-13164286D01*
X4752760Y-13164286D02*
X4724188Y-13192857D01*
X4724188Y-13192857D02*
X4667045Y-13221428D01*
X4667045Y-13221428D02*
X4552760Y-13221428D01*
X4552760Y-13221428D02*
X4495617Y-13192857D01*
X4495617Y-13192857D02*
X4467045Y-13164286D01*
X4467045Y-13164286D02*
X4438474Y-13107143D01*
X14309999Y-7371331D02*
X14595713Y-7371331D01*
X14595713Y-7371331D02*
X14595713Y-6771331D01*
X13795714Y-7371331D02*
X14138571Y-7371331D01*
X13967142Y-7371331D02*
X13967142Y-6771331D01*
X13967142Y-6771331D02*
X14024285Y-6857045D01*
X14024285Y-6857045D02*
X14081428Y-6914188D01*
X14081428Y-6914188D02*
X14138571Y-6942760D01*
X13834188Y-13984285D02*
X13862760Y-13955713D01*
X13862760Y-13955713D02*
X13891331Y-13869999D01*
X13891331Y-13869999D02*
X13891331Y-13812856D01*
X13891331Y-13812856D02*
X13862760Y-13727142D01*
X13862760Y-13727142D02*
X13805617Y-13669999D01*
X13805617Y-13669999D02*
X13748474Y-13641428D01*
X13748474Y-13641428D02*
X13634188Y-13612856D01*
X13634188Y-13612856D02*
X13548474Y-13612856D01*
X13548474Y-13612856D02*
X13434188Y-13641428D01*
X13434188Y-13641428D02*
X13377045Y-13669999D01*
X13377045Y-13669999D02*
X13319902Y-13727142D01*
X13319902Y-13727142D02*
X13291331Y-13812856D01*
X13291331Y-13812856D02*
X13291331Y-13869999D01*
X13291331Y-13869999D02*
X13319902Y-13955713D01*
X13319902Y-13955713D02*
X13348474Y-13984285D01*
X13891331Y-14555713D02*
X13891331Y-14212856D01*
X13891331Y-14384285D02*
X13291331Y-14384285D01*
X13291331Y-14384285D02*
X13377045Y-14327142D01*
X13377045Y-14327142D02*
X13434188Y-14269999D01*
X13434188Y-14269999D02*
X13462760Y-14212856D01*
X13291331Y-14755714D02*
X13291331Y-15155714D01*
X13291331Y-15155714D02*
X13891331Y-14898571D01*
X12865195Y-17095551D02*
X12905601Y-17014739D01*
X12905601Y-17014739D02*
X12905601Y-16974333D01*
X12905601Y-16974333D02*
X12885398Y-16913723D01*
X12885398Y-16913723D02*
X12824789Y-16853114D01*
X12824789Y-16853114D02*
X12764179Y-16832911D01*
X12764179Y-16832911D02*
X12723773Y-16832911D01*
X12723773Y-16832911D02*
X12663164Y-16853114D01*
X12663164Y-16853114D02*
X12501540Y-17014739D01*
X12501540Y-17014739D02*
X12925804Y-17439003D01*
X12925804Y-17439003D02*
X13067225Y-17297581D01*
X13067225Y-17297581D02*
X13087428Y-17236972D01*
X13087428Y-17236972D02*
X13087428Y-17196566D01*
X13087428Y-17196566D02*
X13067225Y-17135957D01*
X13067225Y-17135957D02*
X13026819Y-17095551D01*
X13026819Y-17095551D02*
X12966210Y-17075348D01*
X12966210Y-17075348D02*
X12925804Y-17075348D01*
X12925804Y-17075348D02*
X12865195Y-17095551D01*
X12865195Y-17095551D02*
X12723773Y-17236972D01*
X13026819Y-16731896D02*
X13228850Y-16529865D01*
X12865195Y-16651084D02*
X13430880Y-16933926D01*
X13430880Y-16933926D02*
X13148037Y-16368241D01*
X13653114Y-16711693D02*
X13895550Y-16469256D01*
X13350068Y-16166210D02*
X13774332Y-16590474D01*
X13834941Y-15681337D02*
X13592505Y-15923774D01*
X13713723Y-15802555D02*
X14137987Y-16226819D01*
X14137987Y-16226819D02*
X14036972Y-16206616D01*
X14036972Y-16206616D02*
X13956160Y-16206616D01*
X13956160Y-16206616D02*
X13895551Y-16226819D01*
X16729999Y-12101331D02*
X17015713Y-12101331D01*
X17015713Y-12101331D02*
X17015713Y-11501331D01*
X16558571Y-11558474D02*
X16529999Y-11529902D01*
X16529999Y-11529902D02*
X16472857Y-11501331D01*
X16472857Y-11501331D02*
X16329999Y-11501331D01*
X16329999Y-11501331D02*
X16272857Y-11529902D01*
X16272857Y-11529902D02*
X16244285Y-11558474D01*
X16244285Y-11558474D02*
X16215714Y-11615617D01*
X16215714Y-11615617D02*
X16215714Y-11672760D01*
X16215714Y-11672760D02*
X16244285Y-11758474D01*
X16244285Y-11758474D02*
X16587142Y-12101331D01*
X16587142Y-12101331D02*
X16215714Y-12101331D01*
X19305714Y-8924188D02*
X19334286Y-8952760D01*
X19334286Y-8952760D02*
X19420000Y-8981331D01*
X19420000Y-8981331D02*
X19477143Y-8981331D01*
X19477143Y-8981331D02*
X19562857Y-8952760D01*
X19562857Y-8952760D02*
X19620000Y-8895617D01*
X19620000Y-8895617D02*
X19648571Y-8838474D01*
X19648571Y-8838474D02*
X19677143Y-8724188D01*
X19677143Y-8724188D02*
X19677143Y-8638474D01*
X19677143Y-8638474D02*
X19648571Y-8524188D01*
X19648571Y-8524188D02*
X19620000Y-8467045D01*
X19620000Y-8467045D02*
X19562857Y-8409902D01*
X19562857Y-8409902D02*
X19477143Y-8381331D01*
X19477143Y-8381331D02*
X19420000Y-8381331D01*
X19420000Y-8381331D02*
X19334286Y-8409902D01*
X19334286Y-8409902D02*
X19305714Y-8438474D01*
X19077143Y-8438474D02*
X19048571Y-8409902D01*
X19048571Y-8409902D02*
X18991429Y-8381331D01*
X18991429Y-8381331D02*
X18848571Y-8381331D01*
X18848571Y-8381331D02*
X18791429Y-8409902D01*
X18791429Y-8409902D02*
X18762857Y-8438474D01*
X18762857Y-8438474D02*
X18734286Y-8495617D01*
X18734286Y-8495617D02*
X18734286Y-8552760D01*
X18734286Y-8552760D02*
X18762857Y-8638474D01*
X18762857Y-8638474D02*
X19105714Y-8981331D01*
X19105714Y-8981331D02*
X18734286Y-8981331D01*
X18362857Y-8381331D02*
X18305714Y-8381331D01*
X18305714Y-8381331D02*
X18248571Y-8409902D01*
X18248571Y-8409902D02*
X18220000Y-8438474D01*
X18220000Y-8438474D02*
X18191428Y-8495617D01*
X18191428Y-8495617D02*
X18162857Y-8609902D01*
X18162857Y-8609902D02*
X18162857Y-8752760D01*
X18162857Y-8752760D02*
X18191428Y-8867045D01*
X18191428Y-8867045D02*
X18220000Y-8924188D01*
X18220000Y-8924188D02*
X18248571Y-8952760D01*
X18248571Y-8952760D02*
X18305714Y-8981331D01*
X18305714Y-8981331D02*
X18362857Y-8981331D01*
X18362857Y-8981331D02*
X18420000Y-8952760D01*
X18420000Y-8952760D02*
X18448571Y-8924188D01*
X18448571Y-8924188D02*
X18477142Y-8867045D01*
X18477142Y-8867045D02*
X18505714Y-8752760D01*
X18505714Y-8752760D02*
X18505714Y-8609902D01*
X18505714Y-8609902D02*
X18477142Y-8495617D01*
X18477142Y-8495617D02*
X18448571Y-8438474D01*
X18448571Y-8438474D02*
X18420000Y-8409902D01*
X18420000Y-8409902D02*
X18362857Y-8381331D01*
D12*
%TO.C,D1*%
X8150000Y-20670000D02*
G75*
G02*
X8050000Y-20670000I-50000J0D01*
G01*
X8050000Y-20670000D02*
G75*
G02*
X8150000Y-20670000I50000J0D01*
G01*
D11*
%TO.C,C34*%
X-8524313Y-18876611D02*
X-8632149Y-19063389D01*
X-9147851Y-18516611D02*
X-9255687Y-18703389D01*
%TO.C,C28*%
X12015989Y13536460D02*
X12181204Y13675092D01*
X12478796Y12984908D02*
X12644011Y13123540D01*
%TO.C,C12*%
X17427836Y-3140000D02*
X17212164Y-3140000D01*
X17427836Y-2420000D02*
X17212164Y-2420000D01*
%TO.C,C11*%
X17407836Y-2160000D02*
X17192164Y-2160000D01*
X17407836Y-1440000D02*
X17192164Y-1440000D01*
%TO.C,C8*%
X-9279302Y-7795903D02*
X-9731804Y-8057155D01*
X-10014302Y-6522845D02*
X-10466804Y-6784097D01*
%TO.C,NC5*%
X15672936Y-3490000D02*
X17127064Y-3490000D01*
X15672936Y-5310000D02*
X17127064Y-5310000D01*
D13*
%TO.C,J2*%
X-1610000Y15627950D02*
X-90000Y15627950D01*
X-1610000Y8177050D02*
X-1610000Y15632950D01*
X1210000Y8172050D02*
X-1610000Y8172050D01*
X2310000Y15627950D02*
X5660000Y15627950D01*
X5360000Y8172050D02*
X2510000Y8172050D01*
X7960000Y15627950D02*
X9180000Y15627950D01*
X9180000Y15627950D02*
X9180000Y8172050D01*
X9180000Y8172050D02*
X8260000Y8172050D01*
D14*
X8665080Y8840000D02*
G75*
G02*
X8425080Y8840000I-120000J0D01*
G01*
X8425080Y8840000D02*
G75*
G02*
X8665080Y8840000I120000J0D01*
G01*
D11*
%TO.C,C19*%
X18910000Y-6406267D02*
X18910000Y-6113733D01*
X19930000Y-6406267D02*
X19930000Y-6113733D01*
%TO.C,JP2*%
X-1190000Y-19690000D02*
X810000Y-19690000D01*
X-1190000Y-22490000D02*
X-1190000Y-19690000D01*
X810000Y-19690000D02*
X810000Y-22490000D01*
X810000Y-22490000D02*
X-1190000Y-22490000D01*
%TO.C,R16*%
X6397500Y-20095276D02*
X6397500Y-20604724D01*
X7442500Y-20095276D02*
X7442500Y-20604724D01*
%TO.C,JP4*%
X-17884566Y-6471475D02*
X-15459695Y-5071475D01*
X-16884567Y-8203525D02*
X-17884566Y-6471475D01*
X-15459695Y-5071475D02*
X-14459696Y-6803525D01*
X-14459696Y-6803525D02*
X-16884567Y-8203525D01*
%TO.C,C16*%
X10320000Y-14233733D02*
X10320000Y-14526267D01*
X11340000Y-14233733D02*
X11340000Y-14526267D01*
%TO.C,R11*%
X8957500Y-18022776D02*
X8957500Y-18532224D01*
X10002500Y-18022776D02*
X10002500Y-18532224D01*
%TO.C,C6*%
X-10898329Y-5305194D02*
X-11151671Y-5451461D01*
X-10388329Y-6188539D02*
X-10641671Y-6334806D01*
%TO.C,C7*%
X-9168329Y-8325194D02*
X-9421671Y-8471461D01*
X-8658329Y-9208539D02*
X-8911671Y-9354806D01*
%TO.C,C14*%
X5500000Y-9890580D02*
X5500000Y-9609420D01*
X6520000Y-9890580D02*
X6520000Y-9609420D01*
%TO.C,R14*%
X11076773Y14603992D02*
X10686514Y14276525D01*
X11748486Y13803475D02*
X11358227Y13476008D01*
%TO.C,U2*%
X-20945000Y22820000D02*
X-2545000Y22820000D01*
X-20945000Y16620000D02*
X-20945000Y22820000D01*
X-20945000Y-2030000D02*
X-20945000Y-3030000D01*
X-19445000Y-3030000D02*
X-20945000Y-3030000D01*
X-4045000Y-3030000D02*
X-2545000Y-3030000D01*
X-2545000Y16620000D02*
X-2545000Y22820000D01*
X-2545000Y-3030000D02*
X-2545000Y-2030000D01*
X-2045000Y15945000D02*
X-2545000Y15945000D01*
X-2545000Y16445000D01*
X-2045000Y15945000D01*
G36*
X-2045000Y15945000D02*
G01*
X-2545000Y15945000D01*
X-2545000Y16445000D01*
X-2045000Y15945000D01*
G37*
%TO.C,U1*%
X-15715834Y-9537039D02*
X-15628334Y-9688593D01*
X-15657987Y-9157231D02*
X-15454472Y-9039731D01*
X-14255834Y-12065833D02*
X-14493334Y-11654471D01*
X-13844472Y-11828333D02*
X-14255834Y-12065833D01*
X-13488594Y-7904731D02*
X-13077232Y-7667231D01*
X-13077232Y-7667231D02*
X-12839732Y-8078593D01*
X-11878594Y-10693333D02*
X-11467232Y-10455833D01*
X-11467232Y-10455833D02*
X-11704732Y-10044471D01*
X-15865834Y-9277231D02*
X-16031621Y-9650077D01*
X-16271623Y-9234386D01*
X-15865834Y-9277231D01*
G36*
X-15865834Y-9277231D02*
G01*
X-16031621Y-9650077D01*
X-16271623Y-9234386D01*
X-15865834Y-9277231D01*
G37*
%TO.C,R9*%
X2277500Y-10535276D02*
X2277500Y-11044724D01*
X3322500Y-10535276D02*
X3322500Y-11044724D01*
%TO.C,NC1*%
X16340000Y2257064D02*
X16340000Y802936D01*
X18160000Y2257064D02*
X18160000Y802936D01*
%TO.C,C15*%
X8690000Y-14243733D02*
X8690000Y-14536267D01*
X9710000Y-14243733D02*
X9710000Y-14536267D01*
%TO.C,U5*%
X7950000Y-6150000D02*
X8375000Y-6150000D01*
X7950000Y-6575000D02*
X7950000Y-6150000D01*
X7950000Y-11130000D02*
X7950000Y-10945000D01*
X8250000Y-11370000D02*
X8375000Y-11370000D01*
X13170000Y-6150000D02*
X12745000Y-6150000D01*
X13170000Y-6575000D02*
X13170000Y-6150000D01*
X13170000Y-10945000D02*
X13170000Y-11370000D01*
X13170000Y-11370000D02*
X12745000Y-11370000D01*
X8190000Y-11700000D02*
X7710000Y-11700000D01*
X7950000Y-11370000D01*
X8190000Y-11700000D01*
G36*
X8190000Y-11700000D02*
G01*
X7710000Y-11700000D01*
X7950000Y-11370000D01*
X8190000Y-11700000D01*
G37*
%TO.C,R13*%
X-11539860Y-17339347D02*
X-11285137Y-16898153D01*
X-10634863Y-17861847D02*
X-10380140Y-17420653D01*
%TO.C,C18*%
X10473767Y-3620000D02*
X10181233Y-3620000D01*
X10473767Y-4640000D02*
X10181233Y-4640000D01*
%TO.C,C22*%
X18840000Y-10993733D02*
X18840000Y-11286267D01*
X19860000Y-10993733D02*
X19860000Y-11286267D01*
%TO.C,R8*%
X3967500Y-10115276D02*
X3967500Y-10624724D01*
X5012500Y-10115276D02*
X5012500Y-10624724D01*
%TO.C,L1*%
X17100242Y-6500000D02*
X16279758Y-6500000D01*
X17100242Y-7620000D02*
X16279758Y-7620000D01*
%TO.C,C17*%
X11790000Y-14231233D02*
X11790000Y-14523767D01*
X12810000Y-14231233D02*
X12810000Y-14523767D01*
%TO.C,L2*%
X17030242Y-9780000D02*
X16209758Y-9780000D01*
X17030242Y-10900000D02*
X16209758Y-10900000D01*
%TO.C,C20*%
X16526267Y-8190000D02*
X16233733Y-8190000D01*
X16526267Y-9210000D02*
X16233733Y-9210000D01*
%TD*%
M02*
