%TF.GenerationSoftware,KiCad,Pcbnew,8.0.5*%
%TF.CreationDate,2025-01-09T20:15:31+01:00*%
%TF.ProjectId,test,74657374-2e6b-4696-9361-645f70636258,rev?*%
%TF.SameCoordinates,PX517370cPY341b1c8*%
%TF.FileFunction,Drillmap*%
%TF.FilePolarity,Positive*%
%FSLAX45Y45*%
G04 Gerber Fmt 4.5, Leading zero omitted, Abs format (unit mm)*
G04 Created by KiCad (PCBNEW 8.0.5) date 2025-01-09 20:15:31*
%MOMM*%
%LPD*%
G01*
G04 APERTURE LIST*
%ADD10C,0.100000*%
%ADD11C,0.200000*%
%ADD12C,0.210000*%
%ADD13C,0.237490*%
G04 APERTURE END LIST*
D10*
X-1344164Y-1598574D02*
X-1480000Y-1759000D01*
X0Y2400000D02*
G75*
G02*
X2108884Y1145692I0J-2400000D01*
G01*
X-1483930Y-1886181D02*
G75*
G02*
X-1480000Y-1759000I79930J61181D01*
G01*
X-2068000Y-363000D02*
X-2266000Y-398000D01*
X-1360172Y-1465220D02*
G75*
G02*
X-1344164Y-1598574I-67828J-75780D01*
G01*
X-2266000Y-398000D02*
G75*
G02*
X-2376831Y-332996I-17000J98000D01*
G01*
X2108884Y1145692D02*
X2109000Y-569000D01*
X2209031Y-668861D02*
G75*
G02*
X2282072Y-742689I5969J-67139D01*
G01*
X-2200000Y2200000D02*
G75*
G02*
X-2000000Y2400000I200000J0D01*
G01*
X468000Y-2354000D02*
X-469000Y-2354000D01*
X2282072Y-742689D02*
G75*
G02*
X468000Y-2354001I-2282002J742329D01*
G01*
X-468937Y-2353684D02*
G75*
G02*
X-1483930Y-1886181I468937J2353684D01*
G01*
X-1360172Y-1465220D02*
G75*
G02*
X-1950742Y-437658I1360172J1465220D01*
G01*
X2209000Y-669000D02*
G75*
G02*
X2109000Y-569000I0J100000D01*
G01*
X-2200000Y960000D02*
X-2200000Y2200000D01*
X0Y2400000D02*
X-2000000Y2400000D01*
X-2068000Y-363000D02*
G75*
G02*
X-1950742Y-437658I20000J-98000D01*
G01*
X-2376831Y-332996D02*
G75*
G02*
X-2199735Y959884I2376831J332996D01*
G01*
D11*
D10*
X-780200Y-998000D02*
X-730200Y-1048000D01*
X-730200Y-998000D02*
X-780200Y-1048000D01*
X-256500Y-1761000D02*
G75*
G02*
X-321500Y-1761000I-32500J0D01*
G01*
X-321500Y-1761000D02*
G75*
G02*
X-256500Y-1761000I32500J0D01*
G01*
X321500Y-1761000D02*
G75*
G02*
X256500Y-1761000I-32500J0D01*
G01*
X256500Y-1761000D02*
G75*
G02*
X321500Y-1761000I32500J0D01*
G01*
X-1041500Y-1903620D02*
X-1041500Y-1983620D01*
X-1081500Y-1943620D02*
X-1001500Y-1943620D01*
X-911500Y-1678453D02*
X-911500Y-1758453D01*
X-951500Y-1718453D02*
X-871500Y-1718453D01*
X-44977Y1256477D02*
X-44977Y1326523D01*
X-115023Y1326523D01*
X-115023Y1256477D01*
X-44977Y1256477D01*
X-44977Y1053477D02*
X-44977Y1123523D01*
X-115023Y1123523D01*
X-115023Y1053477D01*
X-44977Y1053477D01*
X717023Y1154977D02*
X717023Y1225023D01*
X646977Y1225023D01*
X646977Y1154977D01*
X717023Y1154977D01*
D12*
X0Y-1359000D02*
X105000Y-1254000D01*
X0Y-1149000D01*
X-105000Y-1254000D01*
X0Y-1359000D01*
D13*
X-8245Y1562745D02*
X229245Y1325255D01*
X229245Y1562745D02*
X-8245Y1325255D01*
X229245Y1444000D02*
G75*
G02*
X-8245Y1444000I-118745J0D01*
G01*
X-8245Y1444000D02*
G75*
G02*
X229245Y1444000I118745J0D01*
G01*
X-8245Y1054745D02*
X229245Y817255D01*
X229245Y1054745D02*
X-8245Y817255D01*
X229245Y936000D02*
G75*
G02*
X-8245Y936000I-118745J0D01*
G01*
X-8245Y936000D02*
G75*
G02*
X229245Y936000I118745J0D01*
G01*
X563255Y1562745D02*
X800745Y1325255D01*
X800745Y1562745D02*
X563255Y1325255D01*
X800745Y1444000D02*
G75*
G02*
X563255Y1444000I-118745J0D01*
G01*
X563255Y1444000D02*
G75*
G02*
X800745Y1444000I118745J0D01*
G01*
X563255Y1054745D02*
X800745Y817255D01*
X800745Y1054745D02*
X563255Y817255D01*
X800745Y936000D02*
G75*
G02*
X563255Y936000I-118745J0D01*
G01*
X563255Y936000D02*
G75*
G02*
X800745Y936000I118745J0D01*
G01*
D11*
X-2144267Y-2670484D02*
X-2144267Y-2470484D01*
X-2144267Y-2470484D02*
X-2096648Y-2470484D01*
X-2096648Y-2470484D02*
X-2068077Y-2480008D01*
X-2068077Y-2480008D02*
X-2049029Y-2499055D01*
X-2049029Y-2499055D02*
X-2039505Y-2518103D01*
X-2039505Y-2518103D02*
X-2029982Y-2556198D01*
X-2029982Y-2556198D02*
X-2029982Y-2584770D01*
X-2029982Y-2584770D02*
X-2039505Y-2622865D01*
X-2039505Y-2622865D02*
X-2049029Y-2641912D01*
X-2049029Y-2641912D02*
X-2068077Y-2660960D01*
X-2068077Y-2660960D02*
X-2096648Y-2670484D01*
X-2096648Y-2670484D02*
X-2144267Y-2670484D01*
X-1944267Y-2670484D02*
X-1944267Y-2537150D01*
X-1944267Y-2575246D02*
X-1934743Y-2556198D01*
X-1934743Y-2556198D02*
X-1925220Y-2546674D01*
X-1925220Y-2546674D02*
X-1906172Y-2537150D01*
X-1906172Y-2537150D02*
X-1887124Y-2537150D01*
X-1820458Y-2670484D02*
X-1820458Y-2537150D01*
X-1820458Y-2470484D02*
X-1829982Y-2480008D01*
X-1829982Y-2480008D02*
X-1820458Y-2489531D01*
X-1820458Y-2489531D02*
X-1810934Y-2480008D01*
X-1810934Y-2480008D02*
X-1820458Y-2470484D01*
X-1820458Y-2470484D02*
X-1820458Y-2489531D01*
X-1696648Y-2670484D02*
X-1715696Y-2660960D01*
X-1715696Y-2660960D02*
X-1725220Y-2641912D01*
X-1725220Y-2641912D02*
X-1725220Y-2470484D01*
X-1591886Y-2670484D02*
X-1610934Y-2660960D01*
X-1610934Y-2660960D02*
X-1620458Y-2641912D01*
X-1620458Y-2641912D02*
X-1620458Y-2470484D01*
X-1363315Y-2670484D02*
X-1363315Y-2470484D01*
X-1363315Y-2470484D02*
X-1296648Y-2613341D01*
X-1296648Y-2613341D02*
X-1229982Y-2470484D01*
X-1229982Y-2470484D02*
X-1229982Y-2670484D01*
X-1049029Y-2670484D02*
X-1049029Y-2565722D01*
X-1049029Y-2565722D02*
X-1058553Y-2546674D01*
X-1058553Y-2546674D02*
X-1077601Y-2537150D01*
X-1077601Y-2537150D02*
X-1115696Y-2537150D01*
X-1115696Y-2537150D02*
X-1134744Y-2546674D01*
X-1049029Y-2660960D02*
X-1068077Y-2670484D01*
X-1068077Y-2670484D02*
X-1115696Y-2670484D01*
X-1115696Y-2670484D02*
X-1134744Y-2660960D01*
X-1134744Y-2660960D02*
X-1144267Y-2641912D01*
X-1144267Y-2641912D02*
X-1144267Y-2622865D01*
X-1144267Y-2622865D02*
X-1134744Y-2603817D01*
X-1134744Y-2603817D02*
X-1115696Y-2594293D01*
X-1115696Y-2594293D02*
X-1068077Y-2594293D01*
X-1068077Y-2594293D02*
X-1049029Y-2584770D01*
X-953791Y-2537150D02*
X-953791Y-2737150D01*
X-953791Y-2546674D02*
X-934743Y-2537150D01*
X-934743Y-2537150D02*
X-896648Y-2537150D01*
X-896648Y-2537150D02*
X-877601Y-2546674D01*
X-877601Y-2546674D02*
X-868077Y-2556198D01*
X-868077Y-2556198D02*
X-858553Y-2575246D01*
X-858553Y-2575246D02*
X-858553Y-2632389D01*
X-858553Y-2632389D02*
X-868077Y-2651436D01*
X-868077Y-2651436D02*
X-877601Y-2660960D01*
X-877601Y-2660960D02*
X-896648Y-2670484D01*
X-896648Y-2670484D02*
X-934743Y-2670484D01*
X-934743Y-2670484D02*
X-953791Y-2660960D01*
X-772839Y-2651436D02*
X-763315Y-2660960D01*
X-763315Y-2660960D02*
X-772839Y-2670484D01*
X-772839Y-2670484D02*
X-782362Y-2660960D01*
X-782362Y-2660960D02*
X-772839Y-2651436D01*
X-772839Y-2651436D02*
X-772839Y-2670484D01*
X-772839Y-2546674D02*
X-763315Y-2556198D01*
X-763315Y-2556198D02*
X-772839Y-2565722D01*
X-772839Y-2565722D02*
X-782362Y-2556198D01*
X-782362Y-2556198D02*
X-772839Y-2546674D01*
X-772839Y-2546674D02*
X-772839Y-2565722D01*
D10*
X-2455044Y-2974000D02*
X-2405044Y-3024000D01*
X-2405044Y-2974000D02*
X-2455044Y-3024000D01*
D11*
X-2106172Y-2890484D02*
X-2087124Y-2890484D01*
X-2087124Y-2890484D02*
X-2068077Y-2900008D01*
X-2068077Y-2900008D02*
X-2058553Y-2909531D01*
X-2058553Y-2909531D02*
X-2049029Y-2928579D01*
X-2049029Y-2928579D02*
X-2039505Y-2966674D01*
X-2039505Y-2966674D02*
X-2039505Y-3014293D01*
X-2039505Y-3014293D02*
X-2049029Y-3052388D01*
X-2049029Y-3052388D02*
X-2058553Y-3071436D01*
X-2058553Y-3071436D02*
X-2068077Y-3080960D01*
X-2068077Y-3080960D02*
X-2087124Y-3090484D01*
X-2087124Y-3090484D02*
X-2106172Y-3090484D01*
X-2106172Y-3090484D02*
X-2125220Y-3080960D01*
X-2125220Y-3080960D02*
X-2134744Y-3071436D01*
X-2134744Y-3071436D02*
X-2144267Y-3052388D01*
X-2144267Y-3052388D02*
X-2153791Y-3014293D01*
X-2153791Y-3014293D02*
X-2153791Y-2966674D01*
X-2153791Y-2966674D02*
X-2144267Y-2928579D01*
X-2144267Y-2928579D02*
X-2134744Y-2909531D01*
X-2134744Y-2909531D02*
X-2125220Y-2900008D01*
X-2125220Y-2900008D02*
X-2106172Y-2890484D01*
X-1953791Y-3071436D02*
X-1944267Y-3080960D01*
X-1944267Y-3080960D02*
X-1953791Y-3090484D01*
X-1953791Y-3090484D02*
X-1963315Y-3080960D01*
X-1963315Y-3080960D02*
X-1953791Y-3071436D01*
X-1953791Y-3071436D02*
X-1953791Y-3090484D01*
X-1763315Y-2890484D02*
X-1858553Y-2890484D01*
X-1858553Y-2890484D02*
X-1868077Y-2985722D01*
X-1868077Y-2985722D02*
X-1858553Y-2976198D01*
X-1858553Y-2976198D02*
X-1839505Y-2966674D01*
X-1839505Y-2966674D02*
X-1791886Y-2966674D01*
X-1791886Y-2966674D02*
X-1772839Y-2976198D01*
X-1772839Y-2976198D02*
X-1763315Y-2985722D01*
X-1763315Y-2985722D02*
X-1753791Y-3004769D01*
X-1753791Y-3004769D02*
X-1753791Y-3052388D01*
X-1753791Y-3052388D02*
X-1763315Y-3071436D01*
X-1763315Y-3071436D02*
X-1772839Y-3080960D01*
X-1772839Y-3080960D02*
X-1791886Y-3090484D01*
X-1791886Y-3090484D02*
X-1839505Y-3090484D01*
X-1839505Y-3090484D02*
X-1858553Y-3080960D01*
X-1858553Y-3080960D02*
X-1868077Y-3071436D01*
X-1629982Y-2890484D02*
X-1610934Y-2890484D01*
X-1610934Y-2890484D02*
X-1591886Y-2900008D01*
X-1591886Y-2900008D02*
X-1582362Y-2909531D01*
X-1582362Y-2909531D02*
X-1572839Y-2928579D01*
X-1572839Y-2928579D02*
X-1563315Y-2966674D01*
X-1563315Y-2966674D02*
X-1563315Y-3014293D01*
X-1563315Y-3014293D02*
X-1572839Y-3052388D01*
X-1572839Y-3052388D02*
X-1582362Y-3071436D01*
X-1582362Y-3071436D02*
X-1591886Y-3080960D01*
X-1591886Y-3080960D02*
X-1610934Y-3090484D01*
X-1610934Y-3090484D02*
X-1629982Y-3090484D01*
X-1629982Y-3090484D02*
X-1649029Y-3080960D01*
X-1649029Y-3080960D02*
X-1658553Y-3071436D01*
X-1658553Y-3071436D02*
X-1668077Y-3052388D01*
X-1668077Y-3052388D02*
X-1677601Y-3014293D01*
X-1677601Y-3014293D02*
X-1677601Y-2966674D01*
X-1677601Y-2966674D02*
X-1668077Y-2928579D01*
X-1668077Y-2928579D02*
X-1658553Y-2909531D01*
X-1658553Y-2909531D02*
X-1649029Y-2900008D01*
X-1649029Y-2900008D02*
X-1629982Y-2890484D01*
X-1439505Y-2890484D02*
X-1420458Y-2890484D01*
X-1420458Y-2890484D02*
X-1401410Y-2900008D01*
X-1401410Y-2900008D02*
X-1391886Y-2909531D01*
X-1391886Y-2909531D02*
X-1382363Y-2928579D01*
X-1382363Y-2928579D02*
X-1372839Y-2966674D01*
X-1372839Y-2966674D02*
X-1372839Y-3014293D01*
X-1372839Y-3014293D02*
X-1382363Y-3052388D01*
X-1382363Y-3052388D02*
X-1391886Y-3071436D01*
X-1391886Y-3071436D02*
X-1401410Y-3080960D01*
X-1401410Y-3080960D02*
X-1420458Y-3090484D01*
X-1420458Y-3090484D02*
X-1439505Y-3090484D01*
X-1439505Y-3090484D02*
X-1458553Y-3080960D01*
X-1458553Y-3080960D02*
X-1468077Y-3071436D01*
X-1468077Y-3071436D02*
X-1477601Y-3052388D01*
X-1477601Y-3052388D02*
X-1487124Y-3014293D01*
X-1487124Y-3014293D02*
X-1487124Y-2966674D01*
X-1487124Y-2966674D02*
X-1477601Y-2928579D01*
X-1477601Y-2928579D02*
X-1468077Y-2909531D01*
X-1468077Y-2909531D02*
X-1458553Y-2900008D01*
X-1458553Y-2900008D02*
X-1439505Y-2890484D01*
X-1287124Y-3090484D02*
X-1287124Y-2957150D01*
X-1287124Y-2976198D02*
X-1277601Y-2966674D01*
X-1277601Y-2966674D02*
X-1258553Y-2957150D01*
X-1258553Y-2957150D02*
X-1229982Y-2957150D01*
X-1229982Y-2957150D02*
X-1210934Y-2966674D01*
X-1210934Y-2966674D02*
X-1201410Y-2985722D01*
X-1201410Y-2985722D02*
X-1201410Y-3090484D01*
X-1201410Y-2985722D02*
X-1191886Y-2966674D01*
X-1191886Y-2966674D02*
X-1172839Y-2957150D01*
X-1172839Y-2957150D02*
X-1144267Y-2957150D01*
X-1144267Y-2957150D02*
X-1125220Y-2966674D01*
X-1125220Y-2966674D02*
X-1115696Y-2985722D01*
X-1115696Y-2985722D02*
X-1115696Y-3090484D01*
X-1020458Y-3090484D02*
X-1020458Y-2957150D01*
X-1020458Y-2976198D02*
X-1010934Y-2966674D01*
X-1010934Y-2966674D02*
X-991886Y-2957150D01*
X-991886Y-2957150D02*
X-963315Y-2957150D01*
X-963315Y-2957150D02*
X-944267Y-2966674D01*
X-944267Y-2966674D02*
X-934743Y-2985722D01*
X-934743Y-2985722D02*
X-934743Y-3090484D01*
X-934743Y-2985722D02*
X-925220Y-2966674D01*
X-925220Y-2966674D02*
X-906172Y-2957150D01*
X-906172Y-2957150D02*
X-877601Y-2957150D01*
X-877601Y-2957150D02*
X-858553Y-2966674D01*
X-858553Y-2966674D02*
X-849029Y-2985722D01*
X-849029Y-2985722D02*
X-849029Y-3090484D01*
X-458553Y-2880960D02*
X-629981Y-3138103D01*
X-201410Y-2890484D02*
X-182362Y-2890484D01*
X-182362Y-2890484D02*
X-163315Y-2900008D01*
X-163315Y-2900008D02*
X-153791Y-2909531D01*
X-153791Y-2909531D02*
X-144267Y-2928579D01*
X-144267Y-2928579D02*
X-134743Y-2966674D01*
X-134743Y-2966674D02*
X-134743Y-3014293D01*
X-134743Y-3014293D02*
X-144267Y-3052388D01*
X-144267Y-3052388D02*
X-153791Y-3071436D01*
X-153791Y-3071436D02*
X-163315Y-3080960D01*
X-163315Y-3080960D02*
X-182362Y-3090484D01*
X-182362Y-3090484D02*
X-201410Y-3090484D01*
X-201410Y-3090484D02*
X-220458Y-3080960D01*
X-220458Y-3080960D02*
X-229981Y-3071436D01*
X-229981Y-3071436D02*
X-239505Y-3052388D01*
X-239505Y-3052388D02*
X-249029Y-3014293D01*
X-249029Y-3014293D02*
X-249029Y-2966674D01*
X-249029Y-2966674D02*
X-239505Y-2928579D01*
X-239505Y-2928579D02*
X-229981Y-2909531D01*
X-229981Y-2909531D02*
X-220458Y-2900008D01*
X-220458Y-2900008D02*
X-201410Y-2890484D01*
X-49029Y-3071436D02*
X-39505Y-3080960D01*
X-39505Y-3080960D02*
X-49029Y-3090484D01*
X-49029Y-3090484D02*
X-58553Y-3080960D01*
X-58553Y-3080960D02*
X-49029Y-3071436D01*
X-49029Y-3071436D02*
X-49029Y-3090484D01*
X84304Y-2890484D02*
X103352Y-2890484D01*
X103352Y-2890484D02*
X122400Y-2900008D01*
X122400Y-2900008D02*
X131923Y-2909531D01*
X131923Y-2909531D02*
X141447Y-2928579D01*
X141447Y-2928579D02*
X150971Y-2966674D01*
X150971Y-2966674D02*
X150971Y-3014293D01*
X150971Y-3014293D02*
X141447Y-3052388D01*
X141447Y-3052388D02*
X131923Y-3071436D01*
X131923Y-3071436D02*
X122400Y-3080960D01*
X122400Y-3080960D02*
X103352Y-3090484D01*
X103352Y-3090484D02*
X84304Y-3090484D01*
X84304Y-3090484D02*
X65257Y-3080960D01*
X65257Y-3080960D02*
X55733Y-3071436D01*
X55733Y-3071436D02*
X46209Y-3052388D01*
X46209Y-3052388D02*
X36685Y-3014293D01*
X36685Y-3014293D02*
X36685Y-2966674D01*
X36685Y-2966674D02*
X46209Y-2928579D01*
X46209Y-2928579D02*
X55733Y-2909531D01*
X55733Y-2909531D02*
X65257Y-2900008D01*
X65257Y-2900008D02*
X84304Y-2890484D01*
X341447Y-3090484D02*
X227161Y-3090484D01*
X284304Y-3090484D02*
X284304Y-2890484D01*
X284304Y-2890484D02*
X265257Y-2919055D01*
X265257Y-2919055D02*
X246209Y-2938103D01*
X246209Y-2938103D02*
X227161Y-2947627D01*
X436685Y-3090484D02*
X474780Y-3090484D01*
X474780Y-3090484D02*
X493828Y-3080960D01*
X493828Y-3080960D02*
X503352Y-3071436D01*
X503352Y-3071436D02*
X522400Y-3042865D01*
X522400Y-3042865D02*
X531923Y-3004769D01*
X531923Y-3004769D02*
X531923Y-2928579D01*
X531923Y-2928579D02*
X522400Y-2909531D01*
X522400Y-2909531D02*
X512876Y-2900008D01*
X512876Y-2900008D02*
X493828Y-2890484D01*
X493828Y-2890484D02*
X455733Y-2890484D01*
X455733Y-2890484D02*
X436685Y-2900008D01*
X436685Y-2900008D02*
X427161Y-2909531D01*
X427161Y-2909531D02*
X417638Y-2928579D01*
X417638Y-2928579D02*
X417638Y-2976198D01*
X417638Y-2976198D02*
X427161Y-2995246D01*
X427161Y-2995246D02*
X436685Y-3004769D01*
X436685Y-3004769D02*
X455733Y-3014293D01*
X455733Y-3014293D02*
X493828Y-3014293D01*
X493828Y-3014293D02*
X512876Y-3004769D01*
X512876Y-3004769D02*
X522400Y-2995246D01*
X522400Y-2995246D02*
X531923Y-2976198D01*
X598590Y-2890484D02*
X731923Y-2890484D01*
X731923Y-2890484D02*
X646209Y-3090484D01*
X798590Y-2890484D02*
X798590Y-2928579D01*
X874781Y-2890484D02*
X874781Y-2928579D01*
X1170019Y-3166674D02*
X1160495Y-3157150D01*
X1160495Y-3157150D02*
X1141447Y-3128579D01*
X1141447Y-3128579D02*
X1131924Y-3109531D01*
X1131924Y-3109531D02*
X1122400Y-3080960D01*
X1122400Y-3080960D02*
X1112876Y-3033341D01*
X1112876Y-3033341D02*
X1112876Y-2995246D01*
X1112876Y-2995246D02*
X1122400Y-2947627D01*
X1122400Y-2947627D02*
X1131924Y-2919055D01*
X1131924Y-2919055D02*
X1141447Y-2900008D01*
X1141447Y-2900008D02*
X1160495Y-2871436D01*
X1160495Y-2871436D02*
X1170019Y-2861912D01*
X1350971Y-3090484D02*
X1236685Y-3090484D01*
X1293828Y-3090484D02*
X1293828Y-2890484D01*
X1293828Y-2890484D02*
X1274781Y-2919055D01*
X1274781Y-2919055D02*
X1255733Y-2938103D01*
X1255733Y-2938103D02*
X1236685Y-2947627D01*
X1589066Y-3090484D02*
X1589066Y-2890484D01*
X1674781Y-3090484D02*
X1674781Y-2985722D01*
X1674781Y-2985722D02*
X1665257Y-2966674D01*
X1665257Y-2966674D02*
X1646209Y-2957150D01*
X1646209Y-2957150D02*
X1617638Y-2957150D01*
X1617638Y-2957150D02*
X1598590Y-2966674D01*
X1598590Y-2966674D02*
X1589066Y-2976198D01*
X1798590Y-3090484D02*
X1779543Y-3080960D01*
X1779543Y-3080960D02*
X1770019Y-3071436D01*
X1770019Y-3071436D02*
X1760495Y-3052388D01*
X1760495Y-3052388D02*
X1760495Y-2995246D01*
X1760495Y-2995246D02*
X1770019Y-2976198D01*
X1770019Y-2976198D02*
X1779543Y-2966674D01*
X1779543Y-2966674D02*
X1798590Y-2957150D01*
X1798590Y-2957150D02*
X1827162Y-2957150D01*
X1827162Y-2957150D02*
X1846209Y-2966674D01*
X1846209Y-2966674D02*
X1855733Y-2976198D01*
X1855733Y-2976198D02*
X1865257Y-2995246D01*
X1865257Y-2995246D02*
X1865257Y-3052388D01*
X1865257Y-3052388D02*
X1855733Y-3071436D01*
X1855733Y-3071436D02*
X1846209Y-3080960D01*
X1846209Y-3080960D02*
X1827162Y-3090484D01*
X1827162Y-3090484D02*
X1798590Y-3090484D01*
X1979543Y-3090484D02*
X1960495Y-3080960D01*
X1960495Y-3080960D02*
X1950971Y-3061912D01*
X1950971Y-3061912D02*
X1950971Y-2890484D01*
X2131924Y-3080960D02*
X2112876Y-3090484D01*
X2112876Y-3090484D02*
X2074781Y-3090484D01*
X2074781Y-3090484D02*
X2055733Y-3080960D01*
X2055733Y-3080960D02*
X2046209Y-3061912D01*
X2046209Y-3061912D02*
X2046209Y-2985722D01*
X2046209Y-2985722D02*
X2055733Y-2966674D01*
X2055733Y-2966674D02*
X2074781Y-2957150D01*
X2074781Y-2957150D02*
X2112876Y-2957150D01*
X2112876Y-2957150D02*
X2131924Y-2966674D01*
X2131924Y-2966674D02*
X2141447Y-2985722D01*
X2141447Y-2985722D02*
X2141447Y-3004769D01*
X2141447Y-3004769D02*
X2046209Y-3023817D01*
X2208114Y-3166674D02*
X2217638Y-3157150D01*
X2217638Y-3157150D02*
X2236686Y-3128579D01*
X2236686Y-3128579D02*
X2246209Y-3109531D01*
X2246209Y-3109531D02*
X2255733Y-3080960D01*
X2255733Y-3080960D02*
X2265257Y-3033341D01*
X2265257Y-3033341D02*
X2265257Y-2995246D01*
X2265257Y-2995246D02*
X2255733Y-2947627D01*
X2255733Y-2947627D02*
X2246209Y-2919055D01*
X2246209Y-2919055D02*
X2236686Y-2900008D01*
X2236686Y-2900008D02*
X2217638Y-2871436D01*
X2217638Y-2871436D02*
X2208114Y-2861912D01*
X2570019Y-3166674D02*
X2560495Y-3157150D01*
X2560495Y-3157150D02*
X2541447Y-3128579D01*
X2541447Y-3128579D02*
X2531924Y-3109531D01*
X2531924Y-3109531D02*
X2522400Y-3080960D01*
X2522400Y-3080960D02*
X2512876Y-3033341D01*
X2512876Y-3033341D02*
X2512876Y-2995246D01*
X2512876Y-2995246D02*
X2522400Y-2947627D01*
X2522400Y-2947627D02*
X2531924Y-2919055D01*
X2531924Y-2919055D02*
X2541447Y-2900008D01*
X2541447Y-2900008D02*
X2560495Y-2871436D01*
X2560495Y-2871436D02*
X2570019Y-2861912D01*
X2646209Y-2957150D02*
X2646209Y-3090484D01*
X2646209Y-2976198D02*
X2655733Y-2966674D01*
X2655733Y-2966674D02*
X2674781Y-2957150D01*
X2674781Y-2957150D02*
X2703352Y-2957150D01*
X2703352Y-2957150D02*
X2722400Y-2966674D01*
X2722400Y-2966674D02*
X2731924Y-2985722D01*
X2731924Y-2985722D02*
X2731924Y-3090484D01*
X2855733Y-3090484D02*
X2836685Y-3080960D01*
X2836685Y-3080960D02*
X2827162Y-3071436D01*
X2827162Y-3071436D02*
X2817638Y-3052388D01*
X2817638Y-3052388D02*
X2817638Y-2995246D01*
X2817638Y-2995246D02*
X2827162Y-2976198D01*
X2827162Y-2976198D02*
X2836685Y-2966674D01*
X2836685Y-2966674D02*
X2855733Y-2957150D01*
X2855733Y-2957150D02*
X2884305Y-2957150D01*
X2884305Y-2957150D02*
X2903352Y-2966674D01*
X2903352Y-2966674D02*
X2912876Y-2976198D01*
X2912876Y-2976198D02*
X2922400Y-2995246D01*
X2922400Y-2995246D02*
X2922400Y-3052388D01*
X2922400Y-3052388D02*
X2912876Y-3071436D01*
X2912876Y-3071436D02*
X2903352Y-3080960D01*
X2903352Y-3080960D02*
X2884305Y-3090484D01*
X2884305Y-3090484D02*
X2855733Y-3090484D01*
X2979543Y-2957150D02*
X3055733Y-2957150D01*
X3008114Y-2890484D02*
X3008114Y-3061912D01*
X3008114Y-3061912D02*
X3017638Y-3080960D01*
X3017638Y-3080960D02*
X3036685Y-3090484D01*
X3036685Y-3090484D02*
X3055733Y-3090484D01*
X3274781Y-2957150D02*
X3274781Y-3157150D01*
X3274781Y-2966674D02*
X3293828Y-2957150D01*
X3293828Y-2957150D02*
X3331924Y-2957150D01*
X3331924Y-2957150D02*
X3350971Y-2966674D01*
X3350971Y-2966674D02*
X3360495Y-2976198D01*
X3360495Y-2976198D02*
X3370019Y-2995246D01*
X3370019Y-2995246D02*
X3370019Y-3052388D01*
X3370019Y-3052388D02*
X3360495Y-3071436D01*
X3360495Y-3071436D02*
X3350971Y-3080960D01*
X3350971Y-3080960D02*
X3331924Y-3090484D01*
X3331924Y-3090484D02*
X3293828Y-3090484D01*
X3293828Y-3090484D02*
X3274781Y-3080960D01*
X3484305Y-3090484D02*
X3465257Y-3080960D01*
X3465257Y-3080960D02*
X3455733Y-3061912D01*
X3455733Y-3061912D02*
X3455733Y-2890484D01*
X3646209Y-3090484D02*
X3646209Y-2985722D01*
X3646209Y-2985722D02*
X3636686Y-2966674D01*
X3636686Y-2966674D02*
X3617638Y-2957150D01*
X3617638Y-2957150D02*
X3579543Y-2957150D01*
X3579543Y-2957150D02*
X3560495Y-2966674D01*
X3646209Y-3080960D02*
X3627162Y-3090484D01*
X3627162Y-3090484D02*
X3579543Y-3090484D01*
X3579543Y-3090484D02*
X3560495Y-3080960D01*
X3560495Y-3080960D02*
X3550971Y-3061912D01*
X3550971Y-3061912D02*
X3550971Y-3042865D01*
X3550971Y-3042865D02*
X3560495Y-3023817D01*
X3560495Y-3023817D02*
X3579543Y-3014293D01*
X3579543Y-3014293D02*
X3627162Y-3014293D01*
X3627162Y-3014293D02*
X3646209Y-3004769D01*
X3712876Y-2957150D02*
X3789066Y-2957150D01*
X3741447Y-2890484D02*
X3741447Y-3061912D01*
X3741447Y-3061912D02*
X3750971Y-3080960D01*
X3750971Y-3080960D02*
X3770019Y-3090484D01*
X3770019Y-3090484D02*
X3789066Y-3090484D01*
X3931924Y-3080960D02*
X3912876Y-3090484D01*
X3912876Y-3090484D02*
X3874781Y-3090484D01*
X3874781Y-3090484D02*
X3855733Y-3080960D01*
X3855733Y-3080960D02*
X3846209Y-3061912D01*
X3846209Y-3061912D02*
X3846209Y-2985722D01*
X3846209Y-2985722D02*
X3855733Y-2966674D01*
X3855733Y-2966674D02*
X3874781Y-2957150D01*
X3874781Y-2957150D02*
X3912876Y-2957150D01*
X3912876Y-2957150D02*
X3931924Y-2966674D01*
X3931924Y-2966674D02*
X3941447Y-2985722D01*
X3941447Y-2985722D02*
X3941447Y-3004769D01*
X3941447Y-3004769D02*
X3846209Y-3023817D01*
X4112876Y-3090484D02*
X4112876Y-2890484D01*
X4112876Y-3080960D02*
X4093828Y-3090484D01*
X4093828Y-3090484D02*
X4055733Y-3090484D01*
X4055733Y-3090484D02*
X4036686Y-3080960D01*
X4036686Y-3080960D02*
X4027162Y-3071436D01*
X4027162Y-3071436D02*
X4017638Y-3052388D01*
X4017638Y-3052388D02*
X4017638Y-2995246D01*
X4017638Y-2995246D02*
X4027162Y-2976198D01*
X4027162Y-2976198D02*
X4036686Y-2966674D01*
X4036686Y-2966674D02*
X4055733Y-2957150D01*
X4055733Y-2957150D02*
X4093828Y-2957150D01*
X4093828Y-2957150D02*
X4112876Y-2966674D01*
X4189067Y-3166674D02*
X4198590Y-3157150D01*
X4198590Y-3157150D02*
X4217638Y-3128579D01*
X4217638Y-3128579D02*
X4227162Y-3109531D01*
X4227162Y-3109531D02*
X4236686Y-3080960D01*
X4236686Y-3080960D02*
X4246209Y-3033341D01*
X4246209Y-3033341D02*
X4246209Y-2995246D01*
X4246209Y-2995246D02*
X4236686Y-2947627D01*
X4236686Y-2947627D02*
X4227162Y-2919055D01*
X4227162Y-2919055D02*
X4217638Y-2900008D01*
X4217638Y-2900008D02*
X4198590Y-2871436D01*
X4198590Y-2871436D02*
X4189067Y-2861912D01*
D10*
X-2405044Y-3263000D02*
G75*
G02*
X-2470044Y-3263000I-32500J0D01*
G01*
X-2470044Y-3263000D02*
G75*
G02*
X-2405044Y-3263000I32500J0D01*
G01*
D11*
X-2106172Y-3154484D02*
X-2087124Y-3154484D01*
X-2087124Y-3154484D02*
X-2068077Y-3164008D01*
X-2068077Y-3164008D02*
X-2058553Y-3173531D01*
X-2058553Y-3173531D02*
X-2049029Y-3192579D01*
X-2049029Y-3192579D02*
X-2039505Y-3230674D01*
X-2039505Y-3230674D02*
X-2039505Y-3278293D01*
X-2039505Y-3278293D02*
X-2049029Y-3316388D01*
X-2049029Y-3316388D02*
X-2058553Y-3335436D01*
X-2058553Y-3335436D02*
X-2068077Y-3344960D01*
X-2068077Y-3344960D02*
X-2087124Y-3354484D01*
X-2087124Y-3354484D02*
X-2106172Y-3354484D01*
X-2106172Y-3354484D02*
X-2125220Y-3344960D01*
X-2125220Y-3344960D02*
X-2134744Y-3335436D01*
X-2134744Y-3335436D02*
X-2144267Y-3316388D01*
X-2144267Y-3316388D02*
X-2153791Y-3278293D01*
X-2153791Y-3278293D02*
X-2153791Y-3230674D01*
X-2153791Y-3230674D02*
X-2144267Y-3192579D01*
X-2144267Y-3192579D02*
X-2134744Y-3173531D01*
X-2134744Y-3173531D02*
X-2125220Y-3164008D01*
X-2125220Y-3164008D02*
X-2106172Y-3154484D01*
X-1953791Y-3335436D02*
X-1944267Y-3344960D01*
X-1944267Y-3344960D02*
X-1953791Y-3354484D01*
X-1953791Y-3354484D02*
X-1963315Y-3344960D01*
X-1963315Y-3344960D02*
X-1953791Y-3335436D01*
X-1953791Y-3335436D02*
X-1953791Y-3354484D01*
X-1772839Y-3154484D02*
X-1810934Y-3154484D01*
X-1810934Y-3154484D02*
X-1829982Y-3164008D01*
X-1829982Y-3164008D02*
X-1839505Y-3173531D01*
X-1839505Y-3173531D02*
X-1858553Y-3202103D01*
X-1858553Y-3202103D02*
X-1868077Y-3240198D01*
X-1868077Y-3240198D02*
X-1868077Y-3316388D01*
X-1868077Y-3316388D02*
X-1858553Y-3335436D01*
X-1858553Y-3335436D02*
X-1849029Y-3344960D01*
X-1849029Y-3344960D02*
X-1829982Y-3354484D01*
X-1829982Y-3354484D02*
X-1791886Y-3354484D01*
X-1791886Y-3354484D02*
X-1772839Y-3344960D01*
X-1772839Y-3344960D02*
X-1763315Y-3335436D01*
X-1763315Y-3335436D02*
X-1753791Y-3316388D01*
X-1753791Y-3316388D02*
X-1753791Y-3268769D01*
X-1753791Y-3268769D02*
X-1763315Y-3249722D01*
X-1763315Y-3249722D02*
X-1772839Y-3240198D01*
X-1772839Y-3240198D02*
X-1791886Y-3230674D01*
X-1791886Y-3230674D02*
X-1829982Y-3230674D01*
X-1829982Y-3230674D02*
X-1849029Y-3240198D01*
X-1849029Y-3240198D02*
X-1858553Y-3249722D01*
X-1858553Y-3249722D02*
X-1868077Y-3268769D01*
X-1572839Y-3154484D02*
X-1668077Y-3154484D01*
X-1668077Y-3154484D02*
X-1677601Y-3249722D01*
X-1677601Y-3249722D02*
X-1668077Y-3240198D01*
X-1668077Y-3240198D02*
X-1649029Y-3230674D01*
X-1649029Y-3230674D02*
X-1601410Y-3230674D01*
X-1601410Y-3230674D02*
X-1582362Y-3240198D01*
X-1582362Y-3240198D02*
X-1572839Y-3249722D01*
X-1572839Y-3249722D02*
X-1563315Y-3268769D01*
X-1563315Y-3268769D02*
X-1563315Y-3316388D01*
X-1563315Y-3316388D02*
X-1572839Y-3335436D01*
X-1572839Y-3335436D02*
X-1582362Y-3344960D01*
X-1582362Y-3344960D02*
X-1601410Y-3354484D01*
X-1601410Y-3354484D02*
X-1649029Y-3354484D01*
X-1649029Y-3354484D02*
X-1668077Y-3344960D01*
X-1668077Y-3344960D02*
X-1677601Y-3335436D01*
X-1439505Y-3154484D02*
X-1420458Y-3154484D01*
X-1420458Y-3154484D02*
X-1401410Y-3164008D01*
X-1401410Y-3164008D02*
X-1391886Y-3173531D01*
X-1391886Y-3173531D02*
X-1382363Y-3192579D01*
X-1382363Y-3192579D02*
X-1372839Y-3230674D01*
X-1372839Y-3230674D02*
X-1372839Y-3278293D01*
X-1372839Y-3278293D02*
X-1382363Y-3316388D01*
X-1382363Y-3316388D02*
X-1391886Y-3335436D01*
X-1391886Y-3335436D02*
X-1401410Y-3344960D01*
X-1401410Y-3344960D02*
X-1420458Y-3354484D01*
X-1420458Y-3354484D02*
X-1439505Y-3354484D01*
X-1439505Y-3354484D02*
X-1458553Y-3344960D01*
X-1458553Y-3344960D02*
X-1468077Y-3335436D01*
X-1468077Y-3335436D02*
X-1477601Y-3316388D01*
X-1477601Y-3316388D02*
X-1487124Y-3278293D01*
X-1487124Y-3278293D02*
X-1487124Y-3230674D01*
X-1487124Y-3230674D02*
X-1477601Y-3192579D01*
X-1477601Y-3192579D02*
X-1468077Y-3173531D01*
X-1468077Y-3173531D02*
X-1458553Y-3164008D01*
X-1458553Y-3164008D02*
X-1439505Y-3154484D01*
X-1287124Y-3354484D02*
X-1287124Y-3221150D01*
X-1287124Y-3240198D02*
X-1277601Y-3230674D01*
X-1277601Y-3230674D02*
X-1258553Y-3221150D01*
X-1258553Y-3221150D02*
X-1229982Y-3221150D01*
X-1229982Y-3221150D02*
X-1210934Y-3230674D01*
X-1210934Y-3230674D02*
X-1201410Y-3249722D01*
X-1201410Y-3249722D02*
X-1201410Y-3354484D01*
X-1201410Y-3249722D02*
X-1191886Y-3230674D01*
X-1191886Y-3230674D02*
X-1172839Y-3221150D01*
X-1172839Y-3221150D02*
X-1144267Y-3221150D01*
X-1144267Y-3221150D02*
X-1125220Y-3230674D01*
X-1125220Y-3230674D02*
X-1115696Y-3249722D01*
X-1115696Y-3249722D02*
X-1115696Y-3354484D01*
X-1020458Y-3354484D02*
X-1020458Y-3221150D01*
X-1020458Y-3240198D02*
X-1010934Y-3230674D01*
X-1010934Y-3230674D02*
X-991886Y-3221150D01*
X-991886Y-3221150D02*
X-963315Y-3221150D01*
X-963315Y-3221150D02*
X-944267Y-3230674D01*
X-944267Y-3230674D02*
X-934743Y-3249722D01*
X-934743Y-3249722D02*
X-934743Y-3354484D01*
X-934743Y-3249722D02*
X-925220Y-3230674D01*
X-925220Y-3230674D02*
X-906172Y-3221150D01*
X-906172Y-3221150D02*
X-877601Y-3221150D01*
X-877601Y-3221150D02*
X-858553Y-3230674D01*
X-858553Y-3230674D02*
X-849029Y-3249722D01*
X-849029Y-3249722D02*
X-849029Y-3354484D01*
X-458553Y-3144960D02*
X-629981Y-3402103D01*
X-201410Y-3154484D02*
X-182362Y-3154484D01*
X-182362Y-3154484D02*
X-163315Y-3164008D01*
X-163315Y-3164008D02*
X-153791Y-3173531D01*
X-153791Y-3173531D02*
X-144267Y-3192579D01*
X-144267Y-3192579D02*
X-134743Y-3230674D01*
X-134743Y-3230674D02*
X-134743Y-3278293D01*
X-134743Y-3278293D02*
X-144267Y-3316388D01*
X-144267Y-3316388D02*
X-153791Y-3335436D01*
X-153791Y-3335436D02*
X-163315Y-3344960D01*
X-163315Y-3344960D02*
X-182362Y-3354484D01*
X-182362Y-3354484D02*
X-201410Y-3354484D01*
X-201410Y-3354484D02*
X-220458Y-3344960D01*
X-220458Y-3344960D02*
X-229981Y-3335436D01*
X-229981Y-3335436D02*
X-239505Y-3316388D01*
X-239505Y-3316388D02*
X-249029Y-3278293D01*
X-249029Y-3278293D02*
X-249029Y-3230674D01*
X-249029Y-3230674D02*
X-239505Y-3192579D01*
X-239505Y-3192579D02*
X-229981Y-3173531D01*
X-229981Y-3173531D02*
X-220458Y-3164008D01*
X-220458Y-3164008D02*
X-201410Y-3154484D01*
X-49029Y-3335436D02*
X-39505Y-3344960D01*
X-39505Y-3344960D02*
X-49029Y-3354484D01*
X-49029Y-3354484D02*
X-58553Y-3344960D01*
X-58553Y-3344960D02*
X-49029Y-3335436D01*
X-49029Y-3335436D02*
X-49029Y-3354484D01*
X84304Y-3154484D02*
X103352Y-3154484D01*
X103352Y-3154484D02*
X122400Y-3164008D01*
X122400Y-3164008D02*
X131923Y-3173531D01*
X131923Y-3173531D02*
X141447Y-3192579D01*
X141447Y-3192579D02*
X150971Y-3230674D01*
X150971Y-3230674D02*
X150971Y-3278293D01*
X150971Y-3278293D02*
X141447Y-3316388D01*
X141447Y-3316388D02*
X131923Y-3335436D01*
X131923Y-3335436D02*
X122400Y-3344960D01*
X122400Y-3344960D02*
X103352Y-3354484D01*
X103352Y-3354484D02*
X84304Y-3354484D01*
X84304Y-3354484D02*
X65257Y-3344960D01*
X65257Y-3344960D02*
X55733Y-3335436D01*
X55733Y-3335436D02*
X46209Y-3316388D01*
X46209Y-3316388D02*
X36685Y-3278293D01*
X36685Y-3278293D02*
X36685Y-3230674D01*
X36685Y-3230674D02*
X46209Y-3192579D01*
X46209Y-3192579D02*
X55733Y-3173531D01*
X55733Y-3173531D02*
X65257Y-3164008D01*
X65257Y-3164008D02*
X84304Y-3154484D01*
X227161Y-3173531D02*
X236685Y-3164008D01*
X236685Y-3164008D02*
X255733Y-3154484D01*
X255733Y-3154484D02*
X303352Y-3154484D01*
X303352Y-3154484D02*
X322400Y-3164008D01*
X322400Y-3164008D02*
X331923Y-3173531D01*
X331923Y-3173531D02*
X341447Y-3192579D01*
X341447Y-3192579D02*
X341447Y-3211627D01*
X341447Y-3211627D02*
X331923Y-3240198D01*
X331923Y-3240198D02*
X217638Y-3354484D01*
X217638Y-3354484D02*
X341447Y-3354484D01*
X522400Y-3154484D02*
X427161Y-3154484D01*
X427161Y-3154484D02*
X417638Y-3249722D01*
X417638Y-3249722D02*
X427161Y-3240198D01*
X427161Y-3240198D02*
X446209Y-3230674D01*
X446209Y-3230674D02*
X493828Y-3230674D01*
X493828Y-3230674D02*
X512876Y-3240198D01*
X512876Y-3240198D02*
X522400Y-3249722D01*
X522400Y-3249722D02*
X531923Y-3268769D01*
X531923Y-3268769D02*
X531923Y-3316388D01*
X531923Y-3316388D02*
X522400Y-3335436D01*
X522400Y-3335436D02*
X512876Y-3344960D01*
X512876Y-3344960D02*
X493828Y-3354484D01*
X493828Y-3354484D02*
X446209Y-3354484D01*
X446209Y-3354484D02*
X427161Y-3344960D01*
X427161Y-3344960D02*
X417638Y-3335436D01*
X703352Y-3154484D02*
X665257Y-3154484D01*
X665257Y-3154484D02*
X646209Y-3164008D01*
X646209Y-3164008D02*
X636685Y-3173531D01*
X636685Y-3173531D02*
X617638Y-3202103D01*
X617638Y-3202103D02*
X608114Y-3240198D01*
X608114Y-3240198D02*
X608114Y-3316388D01*
X608114Y-3316388D02*
X617638Y-3335436D01*
X617638Y-3335436D02*
X627162Y-3344960D01*
X627162Y-3344960D02*
X646209Y-3354484D01*
X646209Y-3354484D02*
X684304Y-3354484D01*
X684304Y-3354484D02*
X703352Y-3344960D01*
X703352Y-3344960D02*
X712876Y-3335436D01*
X712876Y-3335436D02*
X722400Y-3316388D01*
X722400Y-3316388D02*
X722400Y-3268769D01*
X722400Y-3268769D02*
X712876Y-3249722D01*
X712876Y-3249722D02*
X703352Y-3240198D01*
X703352Y-3240198D02*
X684304Y-3230674D01*
X684304Y-3230674D02*
X646209Y-3230674D01*
X646209Y-3230674D02*
X627162Y-3240198D01*
X627162Y-3240198D02*
X617638Y-3249722D01*
X617638Y-3249722D02*
X608114Y-3268769D01*
X798590Y-3154484D02*
X798590Y-3192579D01*
X874781Y-3154484D02*
X874781Y-3192579D01*
X1170019Y-3430674D02*
X1160495Y-3421150D01*
X1160495Y-3421150D02*
X1141447Y-3392579D01*
X1141447Y-3392579D02*
X1131924Y-3373531D01*
X1131924Y-3373531D02*
X1122400Y-3344960D01*
X1122400Y-3344960D02*
X1112876Y-3297341D01*
X1112876Y-3297341D02*
X1112876Y-3259246D01*
X1112876Y-3259246D02*
X1122400Y-3211627D01*
X1122400Y-3211627D02*
X1131924Y-3183055D01*
X1131924Y-3183055D02*
X1141447Y-3164008D01*
X1141447Y-3164008D02*
X1160495Y-3135436D01*
X1160495Y-3135436D02*
X1170019Y-3125912D01*
X1236685Y-3173531D02*
X1246209Y-3164008D01*
X1246209Y-3164008D02*
X1265257Y-3154484D01*
X1265257Y-3154484D02*
X1312876Y-3154484D01*
X1312876Y-3154484D02*
X1331924Y-3164008D01*
X1331924Y-3164008D02*
X1341447Y-3173531D01*
X1341447Y-3173531D02*
X1350971Y-3192579D01*
X1350971Y-3192579D02*
X1350971Y-3211627D01*
X1350971Y-3211627D02*
X1341447Y-3240198D01*
X1341447Y-3240198D02*
X1227162Y-3354484D01*
X1227162Y-3354484D02*
X1350971Y-3354484D01*
X1589066Y-3354484D02*
X1589066Y-3154484D01*
X1674781Y-3354484D02*
X1674781Y-3249722D01*
X1674781Y-3249722D02*
X1665257Y-3230674D01*
X1665257Y-3230674D02*
X1646209Y-3221150D01*
X1646209Y-3221150D02*
X1617638Y-3221150D01*
X1617638Y-3221150D02*
X1598590Y-3230674D01*
X1598590Y-3230674D02*
X1589066Y-3240198D01*
X1798590Y-3354484D02*
X1779543Y-3344960D01*
X1779543Y-3344960D02*
X1770019Y-3335436D01*
X1770019Y-3335436D02*
X1760495Y-3316388D01*
X1760495Y-3316388D02*
X1760495Y-3259246D01*
X1760495Y-3259246D02*
X1770019Y-3240198D01*
X1770019Y-3240198D02*
X1779543Y-3230674D01*
X1779543Y-3230674D02*
X1798590Y-3221150D01*
X1798590Y-3221150D02*
X1827162Y-3221150D01*
X1827162Y-3221150D02*
X1846209Y-3230674D01*
X1846209Y-3230674D02*
X1855733Y-3240198D01*
X1855733Y-3240198D02*
X1865257Y-3259246D01*
X1865257Y-3259246D02*
X1865257Y-3316388D01*
X1865257Y-3316388D02*
X1855733Y-3335436D01*
X1855733Y-3335436D02*
X1846209Y-3344960D01*
X1846209Y-3344960D02*
X1827162Y-3354484D01*
X1827162Y-3354484D02*
X1798590Y-3354484D01*
X1979543Y-3354484D02*
X1960495Y-3344960D01*
X1960495Y-3344960D02*
X1950971Y-3325912D01*
X1950971Y-3325912D02*
X1950971Y-3154484D01*
X2131924Y-3344960D02*
X2112876Y-3354484D01*
X2112876Y-3354484D02*
X2074781Y-3354484D01*
X2074781Y-3354484D02*
X2055733Y-3344960D01*
X2055733Y-3344960D02*
X2046209Y-3325912D01*
X2046209Y-3325912D02*
X2046209Y-3249722D01*
X2046209Y-3249722D02*
X2055733Y-3230674D01*
X2055733Y-3230674D02*
X2074781Y-3221150D01*
X2074781Y-3221150D02*
X2112876Y-3221150D01*
X2112876Y-3221150D02*
X2131924Y-3230674D01*
X2131924Y-3230674D02*
X2141447Y-3249722D01*
X2141447Y-3249722D02*
X2141447Y-3268769D01*
X2141447Y-3268769D02*
X2046209Y-3287817D01*
X2217638Y-3344960D02*
X2236686Y-3354484D01*
X2236686Y-3354484D02*
X2274781Y-3354484D01*
X2274781Y-3354484D02*
X2293828Y-3344960D01*
X2293828Y-3344960D02*
X2303352Y-3325912D01*
X2303352Y-3325912D02*
X2303352Y-3316388D01*
X2303352Y-3316388D02*
X2293828Y-3297341D01*
X2293828Y-3297341D02*
X2274781Y-3287817D01*
X2274781Y-3287817D02*
X2246209Y-3287817D01*
X2246209Y-3287817D02*
X2227162Y-3278293D01*
X2227162Y-3278293D02*
X2217638Y-3259246D01*
X2217638Y-3259246D02*
X2217638Y-3249722D01*
X2217638Y-3249722D02*
X2227162Y-3230674D01*
X2227162Y-3230674D02*
X2246209Y-3221150D01*
X2246209Y-3221150D02*
X2274781Y-3221150D01*
X2274781Y-3221150D02*
X2293828Y-3230674D01*
X2370019Y-3430674D02*
X2379543Y-3421150D01*
X2379543Y-3421150D02*
X2398590Y-3392579D01*
X2398590Y-3392579D02*
X2408114Y-3373531D01*
X2408114Y-3373531D02*
X2417638Y-3344960D01*
X2417638Y-3344960D02*
X2427162Y-3297341D01*
X2427162Y-3297341D02*
X2427162Y-3259246D01*
X2427162Y-3259246D02*
X2417638Y-3211627D01*
X2417638Y-3211627D02*
X2408114Y-3183055D01*
X2408114Y-3183055D02*
X2398590Y-3164008D01*
X2398590Y-3164008D02*
X2379543Y-3135436D01*
X2379543Y-3135436D02*
X2370019Y-3125912D01*
X2731924Y-3430674D02*
X2722400Y-3421150D01*
X2722400Y-3421150D02*
X2703352Y-3392579D01*
X2703352Y-3392579D02*
X2693828Y-3373531D01*
X2693828Y-3373531D02*
X2684305Y-3344960D01*
X2684305Y-3344960D02*
X2674781Y-3297341D01*
X2674781Y-3297341D02*
X2674781Y-3259246D01*
X2674781Y-3259246D02*
X2684305Y-3211627D01*
X2684305Y-3211627D02*
X2693828Y-3183055D01*
X2693828Y-3183055D02*
X2703352Y-3164008D01*
X2703352Y-3164008D02*
X2722400Y-3135436D01*
X2722400Y-3135436D02*
X2731924Y-3125912D01*
X2808114Y-3221150D02*
X2808114Y-3354484D01*
X2808114Y-3240198D02*
X2817638Y-3230674D01*
X2817638Y-3230674D02*
X2836685Y-3221150D01*
X2836685Y-3221150D02*
X2865257Y-3221150D01*
X2865257Y-3221150D02*
X2884305Y-3230674D01*
X2884305Y-3230674D02*
X2893828Y-3249722D01*
X2893828Y-3249722D02*
X2893828Y-3354484D01*
X3017638Y-3354484D02*
X2998590Y-3344960D01*
X2998590Y-3344960D02*
X2989066Y-3335436D01*
X2989066Y-3335436D02*
X2979543Y-3316388D01*
X2979543Y-3316388D02*
X2979543Y-3259246D01*
X2979543Y-3259246D02*
X2989066Y-3240198D01*
X2989066Y-3240198D02*
X2998590Y-3230674D01*
X2998590Y-3230674D02*
X3017638Y-3221150D01*
X3017638Y-3221150D02*
X3046209Y-3221150D01*
X3046209Y-3221150D02*
X3065257Y-3230674D01*
X3065257Y-3230674D02*
X3074781Y-3240198D01*
X3074781Y-3240198D02*
X3084305Y-3259246D01*
X3084305Y-3259246D02*
X3084305Y-3316388D01*
X3084305Y-3316388D02*
X3074781Y-3335436D01*
X3074781Y-3335436D02*
X3065257Y-3344960D01*
X3065257Y-3344960D02*
X3046209Y-3354484D01*
X3046209Y-3354484D02*
X3017638Y-3354484D01*
X3141447Y-3221150D02*
X3217638Y-3221150D01*
X3170019Y-3154484D02*
X3170019Y-3325912D01*
X3170019Y-3325912D02*
X3179543Y-3344960D01*
X3179543Y-3344960D02*
X3198590Y-3354484D01*
X3198590Y-3354484D02*
X3217638Y-3354484D01*
X3436686Y-3221150D02*
X3436686Y-3421150D01*
X3436686Y-3230674D02*
X3455733Y-3221150D01*
X3455733Y-3221150D02*
X3493828Y-3221150D01*
X3493828Y-3221150D02*
X3512876Y-3230674D01*
X3512876Y-3230674D02*
X3522400Y-3240198D01*
X3522400Y-3240198D02*
X3531924Y-3259246D01*
X3531924Y-3259246D02*
X3531924Y-3316388D01*
X3531924Y-3316388D02*
X3522400Y-3335436D01*
X3522400Y-3335436D02*
X3512876Y-3344960D01*
X3512876Y-3344960D02*
X3493828Y-3354484D01*
X3493828Y-3354484D02*
X3455733Y-3354484D01*
X3455733Y-3354484D02*
X3436686Y-3344960D01*
X3646209Y-3354484D02*
X3627162Y-3344960D01*
X3627162Y-3344960D02*
X3617638Y-3325912D01*
X3617638Y-3325912D02*
X3617638Y-3154484D01*
X3808114Y-3354484D02*
X3808114Y-3249722D01*
X3808114Y-3249722D02*
X3798590Y-3230674D01*
X3798590Y-3230674D02*
X3779543Y-3221150D01*
X3779543Y-3221150D02*
X3741447Y-3221150D01*
X3741447Y-3221150D02*
X3722400Y-3230674D01*
X3808114Y-3344960D02*
X3789067Y-3354484D01*
X3789067Y-3354484D02*
X3741447Y-3354484D01*
X3741447Y-3354484D02*
X3722400Y-3344960D01*
X3722400Y-3344960D02*
X3712876Y-3325912D01*
X3712876Y-3325912D02*
X3712876Y-3306865D01*
X3712876Y-3306865D02*
X3722400Y-3287817D01*
X3722400Y-3287817D02*
X3741447Y-3278293D01*
X3741447Y-3278293D02*
X3789067Y-3278293D01*
X3789067Y-3278293D02*
X3808114Y-3268769D01*
X3874781Y-3221150D02*
X3950971Y-3221150D01*
X3903352Y-3154484D02*
X3903352Y-3325912D01*
X3903352Y-3325912D02*
X3912876Y-3344960D01*
X3912876Y-3344960D02*
X3931924Y-3354484D01*
X3931924Y-3354484D02*
X3950971Y-3354484D01*
X4093828Y-3344960D02*
X4074781Y-3354484D01*
X4074781Y-3354484D02*
X4036686Y-3354484D01*
X4036686Y-3354484D02*
X4017638Y-3344960D01*
X4017638Y-3344960D02*
X4008114Y-3325912D01*
X4008114Y-3325912D02*
X4008114Y-3249722D01*
X4008114Y-3249722D02*
X4017638Y-3230674D01*
X4017638Y-3230674D02*
X4036686Y-3221150D01*
X4036686Y-3221150D02*
X4074781Y-3221150D01*
X4074781Y-3221150D02*
X4093828Y-3230674D01*
X4093828Y-3230674D02*
X4103352Y-3249722D01*
X4103352Y-3249722D02*
X4103352Y-3268769D01*
X4103352Y-3268769D02*
X4008114Y-3287817D01*
X4274781Y-3354484D02*
X4274781Y-3154484D01*
X4274781Y-3344960D02*
X4255733Y-3354484D01*
X4255733Y-3354484D02*
X4217638Y-3354484D01*
X4217638Y-3354484D02*
X4198590Y-3344960D01*
X4198590Y-3344960D02*
X4189067Y-3335436D01*
X4189067Y-3335436D02*
X4179543Y-3316388D01*
X4179543Y-3316388D02*
X4179543Y-3259246D01*
X4179543Y-3259246D02*
X4189067Y-3240198D01*
X4189067Y-3240198D02*
X4198590Y-3230674D01*
X4198590Y-3230674D02*
X4217638Y-3221150D01*
X4217638Y-3221150D02*
X4255733Y-3221150D01*
X4255733Y-3221150D02*
X4274781Y-3230674D01*
X4350971Y-3430674D02*
X4360495Y-3421150D01*
X4360495Y-3421150D02*
X4379543Y-3392579D01*
X4379543Y-3392579D02*
X4389067Y-3373531D01*
X4389067Y-3373531D02*
X4398590Y-3344960D01*
X4398590Y-3344960D02*
X4408114Y-3297341D01*
X4408114Y-3297341D02*
X4408114Y-3259246D01*
X4408114Y-3259246D02*
X4398590Y-3211627D01*
X4398590Y-3211627D02*
X4389067Y-3183055D01*
X4389067Y-3183055D02*
X4379543Y-3164008D01*
X4379543Y-3164008D02*
X4360495Y-3135436D01*
X4360495Y-3135436D02*
X4350971Y-3125912D01*
D10*
X-2445044Y-3487000D02*
X-2445044Y-3567000D01*
X-2485044Y-3527000D02*
X-2405044Y-3527000D01*
D11*
X-2106172Y-3418484D02*
X-2087124Y-3418484D01*
X-2087124Y-3418484D02*
X-2068077Y-3428008D01*
X-2068077Y-3428008D02*
X-2058553Y-3437531D01*
X-2058553Y-3437531D02*
X-2049029Y-3456579D01*
X-2049029Y-3456579D02*
X-2039505Y-3494674D01*
X-2039505Y-3494674D02*
X-2039505Y-3542293D01*
X-2039505Y-3542293D02*
X-2049029Y-3580388D01*
X-2049029Y-3580388D02*
X-2058553Y-3599436D01*
X-2058553Y-3599436D02*
X-2068077Y-3608960D01*
X-2068077Y-3608960D02*
X-2087124Y-3618484D01*
X-2087124Y-3618484D02*
X-2106172Y-3618484D01*
X-2106172Y-3618484D02*
X-2125220Y-3608960D01*
X-2125220Y-3608960D02*
X-2134744Y-3599436D01*
X-2134744Y-3599436D02*
X-2144267Y-3580388D01*
X-2144267Y-3580388D02*
X-2153791Y-3542293D01*
X-2153791Y-3542293D02*
X-2153791Y-3494674D01*
X-2153791Y-3494674D02*
X-2144267Y-3456579D01*
X-2144267Y-3456579D02*
X-2134744Y-3437531D01*
X-2134744Y-3437531D02*
X-2125220Y-3428008D01*
X-2125220Y-3428008D02*
X-2106172Y-3418484D01*
X-1953791Y-3599436D02*
X-1944267Y-3608960D01*
X-1944267Y-3608960D02*
X-1953791Y-3618484D01*
X-1953791Y-3618484D02*
X-1963315Y-3608960D01*
X-1963315Y-3608960D02*
X-1953791Y-3599436D01*
X-1953791Y-3599436D02*
X-1953791Y-3618484D01*
X-1829982Y-3504198D02*
X-1849029Y-3494674D01*
X-1849029Y-3494674D02*
X-1858553Y-3485150D01*
X-1858553Y-3485150D02*
X-1868077Y-3466103D01*
X-1868077Y-3466103D02*
X-1868077Y-3456579D01*
X-1868077Y-3456579D02*
X-1858553Y-3437531D01*
X-1858553Y-3437531D02*
X-1849029Y-3428008D01*
X-1849029Y-3428008D02*
X-1829982Y-3418484D01*
X-1829982Y-3418484D02*
X-1791886Y-3418484D01*
X-1791886Y-3418484D02*
X-1772839Y-3428008D01*
X-1772839Y-3428008D02*
X-1763315Y-3437531D01*
X-1763315Y-3437531D02*
X-1753791Y-3456579D01*
X-1753791Y-3456579D02*
X-1753791Y-3466103D01*
X-1753791Y-3466103D02*
X-1763315Y-3485150D01*
X-1763315Y-3485150D02*
X-1772839Y-3494674D01*
X-1772839Y-3494674D02*
X-1791886Y-3504198D01*
X-1791886Y-3504198D02*
X-1829982Y-3504198D01*
X-1829982Y-3504198D02*
X-1849029Y-3513722D01*
X-1849029Y-3513722D02*
X-1858553Y-3523246D01*
X-1858553Y-3523246D02*
X-1868077Y-3542293D01*
X-1868077Y-3542293D02*
X-1868077Y-3580388D01*
X-1868077Y-3580388D02*
X-1858553Y-3599436D01*
X-1858553Y-3599436D02*
X-1849029Y-3608960D01*
X-1849029Y-3608960D02*
X-1829982Y-3618484D01*
X-1829982Y-3618484D02*
X-1791886Y-3618484D01*
X-1791886Y-3618484D02*
X-1772839Y-3608960D01*
X-1772839Y-3608960D02*
X-1763315Y-3599436D01*
X-1763315Y-3599436D02*
X-1753791Y-3580388D01*
X-1753791Y-3580388D02*
X-1753791Y-3542293D01*
X-1753791Y-3542293D02*
X-1763315Y-3523246D01*
X-1763315Y-3523246D02*
X-1772839Y-3513722D01*
X-1772839Y-3513722D02*
X-1791886Y-3504198D01*
X-1629982Y-3418484D02*
X-1610934Y-3418484D01*
X-1610934Y-3418484D02*
X-1591886Y-3428008D01*
X-1591886Y-3428008D02*
X-1582362Y-3437531D01*
X-1582362Y-3437531D02*
X-1572839Y-3456579D01*
X-1572839Y-3456579D02*
X-1563315Y-3494674D01*
X-1563315Y-3494674D02*
X-1563315Y-3542293D01*
X-1563315Y-3542293D02*
X-1572839Y-3580388D01*
X-1572839Y-3580388D02*
X-1582362Y-3599436D01*
X-1582362Y-3599436D02*
X-1591886Y-3608960D01*
X-1591886Y-3608960D02*
X-1610934Y-3618484D01*
X-1610934Y-3618484D02*
X-1629982Y-3618484D01*
X-1629982Y-3618484D02*
X-1649029Y-3608960D01*
X-1649029Y-3608960D02*
X-1658553Y-3599436D01*
X-1658553Y-3599436D02*
X-1668077Y-3580388D01*
X-1668077Y-3580388D02*
X-1677601Y-3542293D01*
X-1677601Y-3542293D02*
X-1677601Y-3494674D01*
X-1677601Y-3494674D02*
X-1668077Y-3456579D01*
X-1668077Y-3456579D02*
X-1658553Y-3437531D01*
X-1658553Y-3437531D02*
X-1649029Y-3428008D01*
X-1649029Y-3428008D02*
X-1629982Y-3418484D01*
X-1439505Y-3418484D02*
X-1420458Y-3418484D01*
X-1420458Y-3418484D02*
X-1401410Y-3428008D01*
X-1401410Y-3428008D02*
X-1391886Y-3437531D01*
X-1391886Y-3437531D02*
X-1382363Y-3456579D01*
X-1382363Y-3456579D02*
X-1372839Y-3494674D01*
X-1372839Y-3494674D02*
X-1372839Y-3542293D01*
X-1372839Y-3542293D02*
X-1382363Y-3580388D01*
X-1382363Y-3580388D02*
X-1391886Y-3599436D01*
X-1391886Y-3599436D02*
X-1401410Y-3608960D01*
X-1401410Y-3608960D02*
X-1420458Y-3618484D01*
X-1420458Y-3618484D02*
X-1439505Y-3618484D01*
X-1439505Y-3618484D02*
X-1458553Y-3608960D01*
X-1458553Y-3608960D02*
X-1468077Y-3599436D01*
X-1468077Y-3599436D02*
X-1477601Y-3580388D01*
X-1477601Y-3580388D02*
X-1487124Y-3542293D01*
X-1487124Y-3542293D02*
X-1487124Y-3494674D01*
X-1487124Y-3494674D02*
X-1477601Y-3456579D01*
X-1477601Y-3456579D02*
X-1468077Y-3437531D01*
X-1468077Y-3437531D02*
X-1458553Y-3428008D01*
X-1458553Y-3428008D02*
X-1439505Y-3418484D01*
X-1287124Y-3618484D02*
X-1287124Y-3485150D01*
X-1287124Y-3504198D02*
X-1277601Y-3494674D01*
X-1277601Y-3494674D02*
X-1258553Y-3485150D01*
X-1258553Y-3485150D02*
X-1229982Y-3485150D01*
X-1229982Y-3485150D02*
X-1210934Y-3494674D01*
X-1210934Y-3494674D02*
X-1201410Y-3513722D01*
X-1201410Y-3513722D02*
X-1201410Y-3618484D01*
X-1201410Y-3513722D02*
X-1191886Y-3494674D01*
X-1191886Y-3494674D02*
X-1172839Y-3485150D01*
X-1172839Y-3485150D02*
X-1144267Y-3485150D01*
X-1144267Y-3485150D02*
X-1125220Y-3494674D01*
X-1125220Y-3494674D02*
X-1115696Y-3513722D01*
X-1115696Y-3513722D02*
X-1115696Y-3618484D01*
X-1020458Y-3618484D02*
X-1020458Y-3485150D01*
X-1020458Y-3504198D02*
X-1010934Y-3494674D01*
X-1010934Y-3494674D02*
X-991886Y-3485150D01*
X-991886Y-3485150D02*
X-963315Y-3485150D01*
X-963315Y-3485150D02*
X-944267Y-3494674D01*
X-944267Y-3494674D02*
X-934743Y-3513722D01*
X-934743Y-3513722D02*
X-934743Y-3618484D01*
X-934743Y-3513722D02*
X-925220Y-3494674D01*
X-925220Y-3494674D02*
X-906172Y-3485150D01*
X-906172Y-3485150D02*
X-877601Y-3485150D01*
X-877601Y-3485150D02*
X-858553Y-3494674D01*
X-858553Y-3494674D02*
X-849029Y-3513722D01*
X-849029Y-3513722D02*
X-849029Y-3618484D01*
X-458553Y-3408960D02*
X-629981Y-3666103D01*
X-201410Y-3418484D02*
X-182362Y-3418484D01*
X-182362Y-3418484D02*
X-163315Y-3428008D01*
X-163315Y-3428008D02*
X-153791Y-3437531D01*
X-153791Y-3437531D02*
X-144267Y-3456579D01*
X-144267Y-3456579D02*
X-134743Y-3494674D01*
X-134743Y-3494674D02*
X-134743Y-3542293D01*
X-134743Y-3542293D02*
X-144267Y-3580388D01*
X-144267Y-3580388D02*
X-153791Y-3599436D01*
X-153791Y-3599436D02*
X-163315Y-3608960D01*
X-163315Y-3608960D02*
X-182362Y-3618484D01*
X-182362Y-3618484D02*
X-201410Y-3618484D01*
X-201410Y-3618484D02*
X-220458Y-3608960D01*
X-220458Y-3608960D02*
X-229981Y-3599436D01*
X-229981Y-3599436D02*
X-239505Y-3580388D01*
X-239505Y-3580388D02*
X-249029Y-3542293D01*
X-249029Y-3542293D02*
X-249029Y-3494674D01*
X-249029Y-3494674D02*
X-239505Y-3456579D01*
X-239505Y-3456579D02*
X-229981Y-3437531D01*
X-229981Y-3437531D02*
X-220458Y-3428008D01*
X-220458Y-3428008D02*
X-201410Y-3418484D01*
X-49029Y-3599436D02*
X-39505Y-3608960D01*
X-39505Y-3608960D02*
X-49029Y-3618484D01*
X-49029Y-3618484D02*
X-58553Y-3608960D01*
X-58553Y-3608960D02*
X-49029Y-3599436D01*
X-49029Y-3599436D02*
X-49029Y-3618484D01*
X84304Y-3418484D02*
X103352Y-3418484D01*
X103352Y-3418484D02*
X122400Y-3428008D01*
X122400Y-3428008D02*
X131923Y-3437531D01*
X131923Y-3437531D02*
X141447Y-3456579D01*
X141447Y-3456579D02*
X150971Y-3494674D01*
X150971Y-3494674D02*
X150971Y-3542293D01*
X150971Y-3542293D02*
X141447Y-3580388D01*
X141447Y-3580388D02*
X131923Y-3599436D01*
X131923Y-3599436D02*
X122400Y-3608960D01*
X122400Y-3608960D02*
X103352Y-3618484D01*
X103352Y-3618484D02*
X84304Y-3618484D01*
X84304Y-3618484D02*
X65257Y-3608960D01*
X65257Y-3608960D02*
X55733Y-3599436D01*
X55733Y-3599436D02*
X46209Y-3580388D01*
X46209Y-3580388D02*
X36685Y-3542293D01*
X36685Y-3542293D02*
X36685Y-3494674D01*
X36685Y-3494674D02*
X46209Y-3456579D01*
X46209Y-3456579D02*
X55733Y-3437531D01*
X55733Y-3437531D02*
X65257Y-3428008D01*
X65257Y-3428008D02*
X84304Y-3418484D01*
X217638Y-3418484D02*
X341447Y-3418484D01*
X341447Y-3418484D02*
X274781Y-3494674D01*
X274781Y-3494674D02*
X303352Y-3494674D01*
X303352Y-3494674D02*
X322400Y-3504198D01*
X322400Y-3504198D02*
X331923Y-3513722D01*
X331923Y-3513722D02*
X341447Y-3532769D01*
X341447Y-3532769D02*
X341447Y-3580388D01*
X341447Y-3580388D02*
X331923Y-3599436D01*
X331923Y-3599436D02*
X322400Y-3608960D01*
X322400Y-3608960D02*
X303352Y-3618484D01*
X303352Y-3618484D02*
X246209Y-3618484D01*
X246209Y-3618484D02*
X227161Y-3608960D01*
X227161Y-3608960D02*
X217638Y-3599436D01*
X531923Y-3618484D02*
X417638Y-3618484D01*
X474780Y-3618484D02*
X474780Y-3418484D01*
X474780Y-3418484D02*
X455733Y-3447055D01*
X455733Y-3447055D02*
X436685Y-3466103D01*
X436685Y-3466103D02*
X417638Y-3475627D01*
X712876Y-3418484D02*
X617638Y-3418484D01*
X617638Y-3418484D02*
X608114Y-3513722D01*
X608114Y-3513722D02*
X617638Y-3504198D01*
X617638Y-3504198D02*
X636685Y-3494674D01*
X636685Y-3494674D02*
X684304Y-3494674D01*
X684304Y-3494674D02*
X703352Y-3504198D01*
X703352Y-3504198D02*
X712876Y-3513722D01*
X712876Y-3513722D02*
X722400Y-3532769D01*
X722400Y-3532769D02*
X722400Y-3580388D01*
X722400Y-3580388D02*
X712876Y-3599436D01*
X712876Y-3599436D02*
X703352Y-3608960D01*
X703352Y-3608960D02*
X684304Y-3618484D01*
X684304Y-3618484D02*
X636685Y-3618484D01*
X636685Y-3618484D02*
X617638Y-3608960D01*
X617638Y-3608960D02*
X608114Y-3599436D01*
X798590Y-3418484D02*
X798590Y-3456579D01*
X874781Y-3418484D02*
X874781Y-3456579D01*
X1170019Y-3694674D02*
X1160495Y-3685150D01*
X1160495Y-3685150D02*
X1141447Y-3656579D01*
X1141447Y-3656579D02*
X1131924Y-3637531D01*
X1131924Y-3637531D02*
X1122400Y-3608960D01*
X1122400Y-3608960D02*
X1112876Y-3561341D01*
X1112876Y-3561341D02*
X1112876Y-3523246D01*
X1112876Y-3523246D02*
X1122400Y-3475627D01*
X1122400Y-3475627D02*
X1131924Y-3447055D01*
X1131924Y-3447055D02*
X1141447Y-3428008D01*
X1141447Y-3428008D02*
X1160495Y-3399436D01*
X1160495Y-3399436D02*
X1170019Y-3389912D01*
X1236685Y-3437531D02*
X1246209Y-3428008D01*
X1246209Y-3428008D02*
X1265257Y-3418484D01*
X1265257Y-3418484D02*
X1312876Y-3418484D01*
X1312876Y-3418484D02*
X1331924Y-3428008D01*
X1331924Y-3428008D02*
X1341447Y-3437531D01*
X1341447Y-3437531D02*
X1350971Y-3456579D01*
X1350971Y-3456579D02*
X1350971Y-3475627D01*
X1350971Y-3475627D02*
X1341447Y-3504198D01*
X1341447Y-3504198D02*
X1227162Y-3618484D01*
X1227162Y-3618484D02*
X1350971Y-3618484D01*
X1589066Y-3618484D02*
X1589066Y-3418484D01*
X1674781Y-3618484D02*
X1674781Y-3513722D01*
X1674781Y-3513722D02*
X1665257Y-3494674D01*
X1665257Y-3494674D02*
X1646209Y-3485150D01*
X1646209Y-3485150D02*
X1617638Y-3485150D01*
X1617638Y-3485150D02*
X1598590Y-3494674D01*
X1598590Y-3494674D02*
X1589066Y-3504198D01*
X1798590Y-3618484D02*
X1779543Y-3608960D01*
X1779543Y-3608960D02*
X1770019Y-3599436D01*
X1770019Y-3599436D02*
X1760495Y-3580388D01*
X1760495Y-3580388D02*
X1760495Y-3523246D01*
X1760495Y-3523246D02*
X1770019Y-3504198D01*
X1770019Y-3504198D02*
X1779543Y-3494674D01*
X1779543Y-3494674D02*
X1798590Y-3485150D01*
X1798590Y-3485150D02*
X1827162Y-3485150D01*
X1827162Y-3485150D02*
X1846209Y-3494674D01*
X1846209Y-3494674D02*
X1855733Y-3504198D01*
X1855733Y-3504198D02*
X1865257Y-3523246D01*
X1865257Y-3523246D02*
X1865257Y-3580388D01*
X1865257Y-3580388D02*
X1855733Y-3599436D01*
X1855733Y-3599436D02*
X1846209Y-3608960D01*
X1846209Y-3608960D02*
X1827162Y-3618484D01*
X1827162Y-3618484D02*
X1798590Y-3618484D01*
X1979543Y-3618484D02*
X1960495Y-3608960D01*
X1960495Y-3608960D02*
X1950971Y-3589912D01*
X1950971Y-3589912D02*
X1950971Y-3418484D01*
X2131924Y-3608960D02*
X2112876Y-3618484D01*
X2112876Y-3618484D02*
X2074781Y-3618484D01*
X2074781Y-3618484D02*
X2055733Y-3608960D01*
X2055733Y-3608960D02*
X2046209Y-3589912D01*
X2046209Y-3589912D02*
X2046209Y-3513722D01*
X2046209Y-3513722D02*
X2055733Y-3494674D01*
X2055733Y-3494674D02*
X2074781Y-3485150D01*
X2074781Y-3485150D02*
X2112876Y-3485150D01*
X2112876Y-3485150D02*
X2131924Y-3494674D01*
X2131924Y-3494674D02*
X2141447Y-3513722D01*
X2141447Y-3513722D02*
X2141447Y-3532769D01*
X2141447Y-3532769D02*
X2046209Y-3551817D01*
X2217638Y-3608960D02*
X2236686Y-3618484D01*
X2236686Y-3618484D02*
X2274781Y-3618484D01*
X2274781Y-3618484D02*
X2293828Y-3608960D01*
X2293828Y-3608960D02*
X2303352Y-3589912D01*
X2303352Y-3589912D02*
X2303352Y-3580388D01*
X2303352Y-3580388D02*
X2293828Y-3561341D01*
X2293828Y-3561341D02*
X2274781Y-3551817D01*
X2274781Y-3551817D02*
X2246209Y-3551817D01*
X2246209Y-3551817D02*
X2227162Y-3542293D01*
X2227162Y-3542293D02*
X2217638Y-3523246D01*
X2217638Y-3523246D02*
X2217638Y-3513722D01*
X2217638Y-3513722D02*
X2227162Y-3494674D01*
X2227162Y-3494674D02*
X2246209Y-3485150D01*
X2246209Y-3485150D02*
X2274781Y-3485150D01*
X2274781Y-3485150D02*
X2293828Y-3494674D01*
X2370019Y-3694674D02*
X2379543Y-3685150D01*
X2379543Y-3685150D02*
X2398590Y-3656579D01*
X2398590Y-3656579D02*
X2408114Y-3637531D01*
X2408114Y-3637531D02*
X2417638Y-3608960D01*
X2417638Y-3608960D02*
X2427162Y-3561341D01*
X2427162Y-3561341D02*
X2427162Y-3523246D01*
X2427162Y-3523246D02*
X2417638Y-3475627D01*
X2417638Y-3475627D02*
X2408114Y-3447055D01*
X2408114Y-3447055D02*
X2398590Y-3428008D01*
X2398590Y-3428008D02*
X2379543Y-3399436D01*
X2379543Y-3399436D02*
X2370019Y-3389912D01*
X2731924Y-3694674D02*
X2722400Y-3685150D01*
X2722400Y-3685150D02*
X2703352Y-3656579D01*
X2703352Y-3656579D02*
X2693828Y-3637531D01*
X2693828Y-3637531D02*
X2684305Y-3608960D01*
X2684305Y-3608960D02*
X2674781Y-3561341D01*
X2674781Y-3561341D02*
X2674781Y-3523246D01*
X2674781Y-3523246D02*
X2684305Y-3475627D01*
X2684305Y-3475627D02*
X2693828Y-3447055D01*
X2693828Y-3447055D02*
X2703352Y-3428008D01*
X2703352Y-3428008D02*
X2722400Y-3399436D01*
X2722400Y-3399436D02*
X2731924Y-3389912D01*
X2808114Y-3485150D02*
X2808114Y-3618484D01*
X2808114Y-3504198D02*
X2817638Y-3494674D01*
X2817638Y-3494674D02*
X2836685Y-3485150D01*
X2836685Y-3485150D02*
X2865257Y-3485150D01*
X2865257Y-3485150D02*
X2884305Y-3494674D01*
X2884305Y-3494674D02*
X2893828Y-3513722D01*
X2893828Y-3513722D02*
X2893828Y-3618484D01*
X3017638Y-3618484D02*
X2998590Y-3608960D01*
X2998590Y-3608960D02*
X2989066Y-3599436D01*
X2989066Y-3599436D02*
X2979543Y-3580388D01*
X2979543Y-3580388D02*
X2979543Y-3523246D01*
X2979543Y-3523246D02*
X2989066Y-3504198D01*
X2989066Y-3504198D02*
X2998590Y-3494674D01*
X2998590Y-3494674D02*
X3017638Y-3485150D01*
X3017638Y-3485150D02*
X3046209Y-3485150D01*
X3046209Y-3485150D02*
X3065257Y-3494674D01*
X3065257Y-3494674D02*
X3074781Y-3504198D01*
X3074781Y-3504198D02*
X3084305Y-3523246D01*
X3084305Y-3523246D02*
X3084305Y-3580388D01*
X3084305Y-3580388D02*
X3074781Y-3599436D01*
X3074781Y-3599436D02*
X3065257Y-3608960D01*
X3065257Y-3608960D02*
X3046209Y-3618484D01*
X3046209Y-3618484D02*
X3017638Y-3618484D01*
X3141447Y-3485150D02*
X3217638Y-3485150D01*
X3170019Y-3418484D02*
X3170019Y-3589912D01*
X3170019Y-3589912D02*
X3179543Y-3608960D01*
X3179543Y-3608960D02*
X3198590Y-3618484D01*
X3198590Y-3618484D02*
X3217638Y-3618484D01*
X3436686Y-3485150D02*
X3436686Y-3685150D01*
X3436686Y-3494674D02*
X3455733Y-3485150D01*
X3455733Y-3485150D02*
X3493828Y-3485150D01*
X3493828Y-3485150D02*
X3512876Y-3494674D01*
X3512876Y-3494674D02*
X3522400Y-3504198D01*
X3522400Y-3504198D02*
X3531924Y-3523246D01*
X3531924Y-3523246D02*
X3531924Y-3580388D01*
X3531924Y-3580388D02*
X3522400Y-3599436D01*
X3522400Y-3599436D02*
X3512876Y-3608960D01*
X3512876Y-3608960D02*
X3493828Y-3618484D01*
X3493828Y-3618484D02*
X3455733Y-3618484D01*
X3455733Y-3618484D02*
X3436686Y-3608960D01*
X3646209Y-3618484D02*
X3627162Y-3608960D01*
X3627162Y-3608960D02*
X3617638Y-3589912D01*
X3617638Y-3589912D02*
X3617638Y-3418484D01*
X3808114Y-3618484D02*
X3808114Y-3513722D01*
X3808114Y-3513722D02*
X3798590Y-3494674D01*
X3798590Y-3494674D02*
X3779543Y-3485150D01*
X3779543Y-3485150D02*
X3741447Y-3485150D01*
X3741447Y-3485150D02*
X3722400Y-3494674D01*
X3808114Y-3608960D02*
X3789067Y-3618484D01*
X3789067Y-3618484D02*
X3741447Y-3618484D01*
X3741447Y-3618484D02*
X3722400Y-3608960D01*
X3722400Y-3608960D02*
X3712876Y-3589912D01*
X3712876Y-3589912D02*
X3712876Y-3570865D01*
X3712876Y-3570865D02*
X3722400Y-3551817D01*
X3722400Y-3551817D02*
X3741447Y-3542293D01*
X3741447Y-3542293D02*
X3789067Y-3542293D01*
X3789067Y-3542293D02*
X3808114Y-3532769D01*
X3874781Y-3485150D02*
X3950971Y-3485150D01*
X3903352Y-3418484D02*
X3903352Y-3589912D01*
X3903352Y-3589912D02*
X3912876Y-3608960D01*
X3912876Y-3608960D02*
X3931924Y-3618484D01*
X3931924Y-3618484D02*
X3950971Y-3618484D01*
X4093828Y-3608960D02*
X4074781Y-3618484D01*
X4074781Y-3618484D02*
X4036686Y-3618484D01*
X4036686Y-3618484D02*
X4017638Y-3608960D01*
X4017638Y-3608960D02*
X4008114Y-3589912D01*
X4008114Y-3589912D02*
X4008114Y-3513722D01*
X4008114Y-3513722D02*
X4017638Y-3494674D01*
X4017638Y-3494674D02*
X4036686Y-3485150D01*
X4036686Y-3485150D02*
X4074781Y-3485150D01*
X4074781Y-3485150D02*
X4093828Y-3494674D01*
X4093828Y-3494674D02*
X4103352Y-3513722D01*
X4103352Y-3513722D02*
X4103352Y-3532769D01*
X4103352Y-3532769D02*
X4008114Y-3551817D01*
X4274781Y-3618484D02*
X4274781Y-3418484D01*
X4274781Y-3608960D02*
X4255733Y-3618484D01*
X4255733Y-3618484D02*
X4217638Y-3618484D01*
X4217638Y-3618484D02*
X4198590Y-3608960D01*
X4198590Y-3608960D02*
X4189067Y-3599436D01*
X4189067Y-3599436D02*
X4179543Y-3580388D01*
X4179543Y-3580388D02*
X4179543Y-3523246D01*
X4179543Y-3523246D02*
X4189067Y-3504198D01*
X4189067Y-3504198D02*
X4198590Y-3494674D01*
X4198590Y-3494674D02*
X4217638Y-3485150D01*
X4217638Y-3485150D02*
X4255733Y-3485150D01*
X4255733Y-3485150D02*
X4274781Y-3494674D01*
X4350971Y-3694674D02*
X4360495Y-3685150D01*
X4360495Y-3685150D02*
X4379543Y-3656579D01*
X4379543Y-3656579D02*
X4389067Y-3637531D01*
X4389067Y-3637531D02*
X4398590Y-3608960D01*
X4398590Y-3608960D02*
X4408114Y-3561341D01*
X4408114Y-3561341D02*
X4408114Y-3523246D01*
X4408114Y-3523246D02*
X4398590Y-3475627D01*
X4398590Y-3475627D02*
X4389067Y-3447055D01*
X4389067Y-3447055D02*
X4379543Y-3428008D01*
X4379543Y-3428008D02*
X4360495Y-3399436D01*
X4360495Y-3399436D02*
X4350971Y-3389912D01*
D10*
X-2419551Y-3826023D02*
X-2419551Y-3755977D01*
X-2489597Y-3755977D01*
X-2489597Y-3826023D01*
X-2419551Y-3826023D01*
D11*
X-2106172Y-3682484D02*
X-2087124Y-3682484D01*
X-2087124Y-3682484D02*
X-2068077Y-3692008D01*
X-2068077Y-3692008D02*
X-2058553Y-3701531D01*
X-2058553Y-3701531D02*
X-2049029Y-3720579D01*
X-2049029Y-3720579D02*
X-2039505Y-3758674D01*
X-2039505Y-3758674D02*
X-2039505Y-3806293D01*
X-2039505Y-3806293D02*
X-2049029Y-3844388D01*
X-2049029Y-3844388D02*
X-2058553Y-3863436D01*
X-2058553Y-3863436D02*
X-2068077Y-3872960D01*
X-2068077Y-3872960D02*
X-2087124Y-3882484D01*
X-2087124Y-3882484D02*
X-2106172Y-3882484D01*
X-2106172Y-3882484D02*
X-2125220Y-3872960D01*
X-2125220Y-3872960D02*
X-2134744Y-3863436D01*
X-2134744Y-3863436D02*
X-2144267Y-3844388D01*
X-2144267Y-3844388D02*
X-2153791Y-3806293D01*
X-2153791Y-3806293D02*
X-2153791Y-3758674D01*
X-2153791Y-3758674D02*
X-2144267Y-3720579D01*
X-2144267Y-3720579D02*
X-2134744Y-3701531D01*
X-2134744Y-3701531D02*
X-2125220Y-3692008D01*
X-2125220Y-3692008D02*
X-2106172Y-3682484D01*
X-1953791Y-3863436D02*
X-1944267Y-3872960D01*
X-1944267Y-3872960D02*
X-1953791Y-3882484D01*
X-1953791Y-3882484D02*
X-1963315Y-3872960D01*
X-1963315Y-3872960D02*
X-1953791Y-3863436D01*
X-1953791Y-3863436D02*
X-1953791Y-3882484D01*
X-1849029Y-3882484D02*
X-1810934Y-3882484D01*
X-1810934Y-3882484D02*
X-1791886Y-3872960D01*
X-1791886Y-3872960D02*
X-1782362Y-3863436D01*
X-1782362Y-3863436D02*
X-1763315Y-3834865D01*
X-1763315Y-3834865D02*
X-1753791Y-3796769D01*
X-1753791Y-3796769D02*
X-1753791Y-3720579D01*
X-1753791Y-3720579D02*
X-1763315Y-3701531D01*
X-1763315Y-3701531D02*
X-1772839Y-3692008D01*
X-1772839Y-3692008D02*
X-1791886Y-3682484D01*
X-1791886Y-3682484D02*
X-1829982Y-3682484D01*
X-1829982Y-3682484D02*
X-1849029Y-3692008D01*
X-1849029Y-3692008D02*
X-1858553Y-3701531D01*
X-1858553Y-3701531D02*
X-1868077Y-3720579D01*
X-1868077Y-3720579D02*
X-1868077Y-3768198D01*
X-1868077Y-3768198D02*
X-1858553Y-3787246D01*
X-1858553Y-3787246D02*
X-1849029Y-3796769D01*
X-1849029Y-3796769D02*
X-1829982Y-3806293D01*
X-1829982Y-3806293D02*
X-1791886Y-3806293D01*
X-1791886Y-3806293D02*
X-1772839Y-3796769D01*
X-1772839Y-3796769D02*
X-1763315Y-3787246D01*
X-1763315Y-3787246D02*
X-1753791Y-3768198D01*
X-1658553Y-3882484D02*
X-1620458Y-3882484D01*
X-1620458Y-3882484D02*
X-1601410Y-3872960D01*
X-1601410Y-3872960D02*
X-1591886Y-3863436D01*
X-1591886Y-3863436D02*
X-1572839Y-3834865D01*
X-1572839Y-3834865D02*
X-1563315Y-3796769D01*
X-1563315Y-3796769D02*
X-1563315Y-3720579D01*
X-1563315Y-3720579D02*
X-1572839Y-3701531D01*
X-1572839Y-3701531D02*
X-1582362Y-3692008D01*
X-1582362Y-3692008D02*
X-1601410Y-3682484D01*
X-1601410Y-3682484D02*
X-1639505Y-3682484D01*
X-1639505Y-3682484D02*
X-1658553Y-3692008D01*
X-1658553Y-3692008D02*
X-1668077Y-3701531D01*
X-1668077Y-3701531D02*
X-1677601Y-3720579D01*
X-1677601Y-3720579D02*
X-1677601Y-3768198D01*
X-1677601Y-3768198D02*
X-1668077Y-3787246D01*
X-1668077Y-3787246D02*
X-1658553Y-3796769D01*
X-1658553Y-3796769D02*
X-1639505Y-3806293D01*
X-1639505Y-3806293D02*
X-1601410Y-3806293D01*
X-1601410Y-3806293D02*
X-1582362Y-3796769D01*
X-1582362Y-3796769D02*
X-1572839Y-3787246D01*
X-1572839Y-3787246D02*
X-1563315Y-3768198D01*
X-1372839Y-3882484D02*
X-1487124Y-3882484D01*
X-1429982Y-3882484D02*
X-1429982Y-3682484D01*
X-1429982Y-3682484D02*
X-1449029Y-3711055D01*
X-1449029Y-3711055D02*
X-1468077Y-3730103D01*
X-1468077Y-3730103D02*
X-1487124Y-3739627D01*
X-1287124Y-3882484D02*
X-1287124Y-3749150D01*
X-1287124Y-3768198D02*
X-1277601Y-3758674D01*
X-1277601Y-3758674D02*
X-1258553Y-3749150D01*
X-1258553Y-3749150D02*
X-1229982Y-3749150D01*
X-1229982Y-3749150D02*
X-1210934Y-3758674D01*
X-1210934Y-3758674D02*
X-1201410Y-3777722D01*
X-1201410Y-3777722D02*
X-1201410Y-3882484D01*
X-1201410Y-3777722D02*
X-1191886Y-3758674D01*
X-1191886Y-3758674D02*
X-1172839Y-3749150D01*
X-1172839Y-3749150D02*
X-1144267Y-3749150D01*
X-1144267Y-3749150D02*
X-1125220Y-3758674D01*
X-1125220Y-3758674D02*
X-1115696Y-3777722D01*
X-1115696Y-3777722D02*
X-1115696Y-3882484D01*
X-1020458Y-3882484D02*
X-1020458Y-3749150D01*
X-1020458Y-3768198D02*
X-1010934Y-3758674D01*
X-1010934Y-3758674D02*
X-991886Y-3749150D01*
X-991886Y-3749150D02*
X-963315Y-3749150D01*
X-963315Y-3749150D02*
X-944267Y-3758674D01*
X-944267Y-3758674D02*
X-934743Y-3777722D01*
X-934743Y-3777722D02*
X-934743Y-3882484D01*
X-934743Y-3777722D02*
X-925220Y-3758674D01*
X-925220Y-3758674D02*
X-906172Y-3749150D01*
X-906172Y-3749150D02*
X-877601Y-3749150D01*
X-877601Y-3749150D02*
X-858553Y-3758674D01*
X-858553Y-3758674D02*
X-849029Y-3777722D01*
X-849029Y-3777722D02*
X-849029Y-3882484D01*
X-458553Y-3672960D02*
X-629981Y-3930103D01*
X-201410Y-3682484D02*
X-182362Y-3682484D01*
X-182362Y-3682484D02*
X-163315Y-3692008D01*
X-163315Y-3692008D02*
X-153791Y-3701531D01*
X-153791Y-3701531D02*
X-144267Y-3720579D01*
X-144267Y-3720579D02*
X-134743Y-3758674D01*
X-134743Y-3758674D02*
X-134743Y-3806293D01*
X-134743Y-3806293D02*
X-144267Y-3844388D01*
X-144267Y-3844388D02*
X-153791Y-3863436D01*
X-153791Y-3863436D02*
X-163315Y-3872960D01*
X-163315Y-3872960D02*
X-182362Y-3882484D01*
X-182362Y-3882484D02*
X-201410Y-3882484D01*
X-201410Y-3882484D02*
X-220458Y-3872960D01*
X-220458Y-3872960D02*
X-229981Y-3863436D01*
X-229981Y-3863436D02*
X-239505Y-3844388D01*
X-239505Y-3844388D02*
X-249029Y-3806293D01*
X-249029Y-3806293D02*
X-249029Y-3758674D01*
X-249029Y-3758674D02*
X-239505Y-3720579D01*
X-239505Y-3720579D02*
X-229981Y-3701531D01*
X-229981Y-3701531D02*
X-220458Y-3692008D01*
X-220458Y-3692008D02*
X-201410Y-3682484D01*
X-49029Y-3863436D02*
X-39505Y-3872960D01*
X-39505Y-3872960D02*
X-49029Y-3882484D01*
X-49029Y-3882484D02*
X-58553Y-3872960D01*
X-58553Y-3872960D02*
X-49029Y-3863436D01*
X-49029Y-3863436D02*
X-49029Y-3882484D01*
X84304Y-3682484D02*
X103352Y-3682484D01*
X103352Y-3682484D02*
X122400Y-3692008D01*
X122400Y-3692008D02*
X131923Y-3701531D01*
X131923Y-3701531D02*
X141447Y-3720579D01*
X141447Y-3720579D02*
X150971Y-3758674D01*
X150971Y-3758674D02*
X150971Y-3806293D01*
X150971Y-3806293D02*
X141447Y-3844388D01*
X141447Y-3844388D02*
X131923Y-3863436D01*
X131923Y-3863436D02*
X122400Y-3872960D01*
X122400Y-3872960D02*
X103352Y-3882484D01*
X103352Y-3882484D02*
X84304Y-3882484D01*
X84304Y-3882484D02*
X65257Y-3872960D01*
X65257Y-3872960D02*
X55733Y-3863436D01*
X55733Y-3863436D02*
X46209Y-3844388D01*
X46209Y-3844388D02*
X36685Y-3806293D01*
X36685Y-3806293D02*
X36685Y-3758674D01*
X36685Y-3758674D02*
X46209Y-3720579D01*
X46209Y-3720579D02*
X55733Y-3701531D01*
X55733Y-3701531D02*
X65257Y-3692008D01*
X65257Y-3692008D02*
X84304Y-3682484D01*
X217638Y-3682484D02*
X341447Y-3682484D01*
X341447Y-3682484D02*
X274781Y-3758674D01*
X274781Y-3758674D02*
X303352Y-3758674D01*
X303352Y-3758674D02*
X322400Y-3768198D01*
X322400Y-3768198D02*
X331923Y-3777722D01*
X331923Y-3777722D02*
X341447Y-3796769D01*
X341447Y-3796769D02*
X341447Y-3844388D01*
X341447Y-3844388D02*
X331923Y-3863436D01*
X331923Y-3863436D02*
X322400Y-3872960D01*
X322400Y-3872960D02*
X303352Y-3882484D01*
X303352Y-3882484D02*
X246209Y-3882484D01*
X246209Y-3882484D02*
X227161Y-3872960D01*
X227161Y-3872960D02*
X217638Y-3863436D01*
X436685Y-3882484D02*
X474780Y-3882484D01*
X474780Y-3882484D02*
X493828Y-3872960D01*
X493828Y-3872960D02*
X503352Y-3863436D01*
X503352Y-3863436D02*
X522400Y-3834865D01*
X522400Y-3834865D02*
X531923Y-3796769D01*
X531923Y-3796769D02*
X531923Y-3720579D01*
X531923Y-3720579D02*
X522400Y-3701531D01*
X522400Y-3701531D02*
X512876Y-3692008D01*
X512876Y-3692008D02*
X493828Y-3682484D01*
X493828Y-3682484D02*
X455733Y-3682484D01*
X455733Y-3682484D02*
X436685Y-3692008D01*
X436685Y-3692008D02*
X427161Y-3701531D01*
X427161Y-3701531D02*
X417638Y-3720579D01*
X417638Y-3720579D02*
X417638Y-3768198D01*
X417638Y-3768198D02*
X427161Y-3787246D01*
X427161Y-3787246D02*
X436685Y-3796769D01*
X436685Y-3796769D02*
X455733Y-3806293D01*
X455733Y-3806293D02*
X493828Y-3806293D01*
X493828Y-3806293D02*
X512876Y-3796769D01*
X512876Y-3796769D02*
X522400Y-3787246D01*
X522400Y-3787246D02*
X531923Y-3768198D01*
X655733Y-3682484D02*
X674781Y-3682484D01*
X674781Y-3682484D02*
X693828Y-3692008D01*
X693828Y-3692008D02*
X703352Y-3701531D01*
X703352Y-3701531D02*
X712876Y-3720579D01*
X712876Y-3720579D02*
X722400Y-3758674D01*
X722400Y-3758674D02*
X722400Y-3806293D01*
X722400Y-3806293D02*
X712876Y-3844388D01*
X712876Y-3844388D02*
X703352Y-3863436D01*
X703352Y-3863436D02*
X693828Y-3872960D01*
X693828Y-3872960D02*
X674781Y-3882484D01*
X674781Y-3882484D02*
X655733Y-3882484D01*
X655733Y-3882484D02*
X636685Y-3872960D01*
X636685Y-3872960D02*
X627162Y-3863436D01*
X627162Y-3863436D02*
X617638Y-3844388D01*
X617638Y-3844388D02*
X608114Y-3806293D01*
X608114Y-3806293D02*
X608114Y-3758674D01*
X608114Y-3758674D02*
X617638Y-3720579D01*
X617638Y-3720579D02*
X627162Y-3701531D01*
X627162Y-3701531D02*
X636685Y-3692008D01*
X636685Y-3692008D02*
X655733Y-3682484D01*
X798590Y-3682484D02*
X798590Y-3720579D01*
X874781Y-3682484D02*
X874781Y-3720579D01*
X1170019Y-3958674D02*
X1160495Y-3949150D01*
X1160495Y-3949150D02*
X1141447Y-3920579D01*
X1141447Y-3920579D02*
X1131924Y-3901531D01*
X1131924Y-3901531D02*
X1122400Y-3872960D01*
X1122400Y-3872960D02*
X1112876Y-3825341D01*
X1112876Y-3825341D02*
X1112876Y-3787246D01*
X1112876Y-3787246D02*
X1122400Y-3739627D01*
X1122400Y-3739627D02*
X1131924Y-3711055D01*
X1131924Y-3711055D02*
X1141447Y-3692008D01*
X1141447Y-3692008D02*
X1160495Y-3663436D01*
X1160495Y-3663436D02*
X1170019Y-3653912D01*
X1227162Y-3682484D02*
X1350971Y-3682484D01*
X1350971Y-3682484D02*
X1284304Y-3758674D01*
X1284304Y-3758674D02*
X1312876Y-3758674D01*
X1312876Y-3758674D02*
X1331924Y-3768198D01*
X1331924Y-3768198D02*
X1341447Y-3777722D01*
X1341447Y-3777722D02*
X1350971Y-3796769D01*
X1350971Y-3796769D02*
X1350971Y-3844388D01*
X1350971Y-3844388D02*
X1341447Y-3863436D01*
X1341447Y-3863436D02*
X1331924Y-3872960D01*
X1331924Y-3872960D02*
X1312876Y-3882484D01*
X1312876Y-3882484D02*
X1255733Y-3882484D01*
X1255733Y-3882484D02*
X1236685Y-3872960D01*
X1236685Y-3872960D02*
X1227162Y-3863436D01*
X1589066Y-3882484D02*
X1589066Y-3682484D01*
X1674781Y-3882484D02*
X1674781Y-3777722D01*
X1674781Y-3777722D02*
X1665257Y-3758674D01*
X1665257Y-3758674D02*
X1646209Y-3749150D01*
X1646209Y-3749150D02*
X1617638Y-3749150D01*
X1617638Y-3749150D02*
X1598590Y-3758674D01*
X1598590Y-3758674D02*
X1589066Y-3768198D01*
X1798590Y-3882484D02*
X1779543Y-3872960D01*
X1779543Y-3872960D02*
X1770019Y-3863436D01*
X1770019Y-3863436D02*
X1760495Y-3844388D01*
X1760495Y-3844388D02*
X1760495Y-3787246D01*
X1760495Y-3787246D02*
X1770019Y-3768198D01*
X1770019Y-3768198D02*
X1779543Y-3758674D01*
X1779543Y-3758674D02*
X1798590Y-3749150D01*
X1798590Y-3749150D02*
X1827162Y-3749150D01*
X1827162Y-3749150D02*
X1846209Y-3758674D01*
X1846209Y-3758674D02*
X1855733Y-3768198D01*
X1855733Y-3768198D02*
X1865257Y-3787246D01*
X1865257Y-3787246D02*
X1865257Y-3844388D01*
X1865257Y-3844388D02*
X1855733Y-3863436D01*
X1855733Y-3863436D02*
X1846209Y-3872960D01*
X1846209Y-3872960D02*
X1827162Y-3882484D01*
X1827162Y-3882484D02*
X1798590Y-3882484D01*
X1979543Y-3882484D02*
X1960495Y-3872960D01*
X1960495Y-3872960D02*
X1950971Y-3853912D01*
X1950971Y-3853912D02*
X1950971Y-3682484D01*
X2131924Y-3872960D02*
X2112876Y-3882484D01*
X2112876Y-3882484D02*
X2074781Y-3882484D01*
X2074781Y-3882484D02*
X2055733Y-3872960D01*
X2055733Y-3872960D02*
X2046209Y-3853912D01*
X2046209Y-3853912D02*
X2046209Y-3777722D01*
X2046209Y-3777722D02*
X2055733Y-3758674D01*
X2055733Y-3758674D02*
X2074781Y-3749150D01*
X2074781Y-3749150D02*
X2112876Y-3749150D01*
X2112876Y-3749150D02*
X2131924Y-3758674D01*
X2131924Y-3758674D02*
X2141447Y-3777722D01*
X2141447Y-3777722D02*
X2141447Y-3796769D01*
X2141447Y-3796769D02*
X2046209Y-3815817D01*
X2217638Y-3872960D02*
X2236686Y-3882484D01*
X2236686Y-3882484D02*
X2274781Y-3882484D01*
X2274781Y-3882484D02*
X2293828Y-3872960D01*
X2293828Y-3872960D02*
X2303352Y-3853912D01*
X2303352Y-3853912D02*
X2303352Y-3844388D01*
X2303352Y-3844388D02*
X2293828Y-3825341D01*
X2293828Y-3825341D02*
X2274781Y-3815817D01*
X2274781Y-3815817D02*
X2246209Y-3815817D01*
X2246209Y-3815817D02*
X2227162Y-3806293D01*
X2227162Y-3806293D02*
X2217638Y-3787246D01*
X2217638Y-3787246D02*
X2217638Y-3777722D01*
X2217638Y-3777722D02*
X2227162Y-3758674D01*
X2227162Y-3758674D02*
X2246209Y-3749150D01*
X2246209Y-3749150D02*
X2274781Y-3749150D01*
X2274781Y-3749150D02*
X2293828Y-3758674D01*
X2370019Y-3958674D02*
X2379543Y-3949150D01*
X2379543Y-3949150D02*
X2398590Y-3920579D01*
X2398590Y-3920579D02*
X2408114Y-3901531D01*
X2408114Y-3901531D02*
X2417638Y-3872960D01*
X2417638Y-3872960D02*
X2427162Y-3825341D01*
X2427162Y-3825341D02*
X2427162Y-3787246D01*
X2427162Y-3787246D02*
X2417638Y-3739627D01*
X2417638Y-3739627D02*
X2408114Y-3711055D01*
X2408114Y-3711055D02*
X2398590Y-3692008D01*
X2398590Y-3692008D02*
X2379543Y-3663436D01*
X2379543Y-3663436D02*
X2370019Y-3653912D01*
X2731924Y-3958674D02*
X2722400Y-3949150D01*
X2722400Y-3949150D02*
X2703352Y-3920579D01*
X2703352Y-3920579D02*
X2693828Y-3901531D01*
X2693828Y-3901531D02*
X2684305Y-3872960D01*
X2684305Y-3872960D02*
X2674781Y-3825341D01*
X2674781Y-3825341D02*
X2674781Y-3787246D01*
X2674781Y-3787246D02*
X2684305Y-3739627D01*
X2684305Y-3739627D02*
X2693828Y-3711055D01*
X2693828Y-3711055D02*
X2703352Y-3692008D01*
X2703352Y-3692008D02*
X2722400Y-3663436D01*
X2722400Y-3663436D02*
X2731924Y-3653912D01*
X2808114Y-3749150D02*
X2808114Y-3882484D01*
X2808114Y-3768198D02*
X2817638Y-3758674D01*
X2817638Y-3758674D02*
X2836685Y-3749150D01*
X2836685Y-3749150D02*
X2865257Y-3749150D01*
X2865257Y-3749150D02*
X2884305Y-3758674D01*
X2884305Y-3758674D02*
X2893828Y-3777722D01*
X2893828Y-3777722D02*
X2893828Y-3882484D01*
X3017638Y-3882484D02*
X2998590Y-3872960D01*
X2998590Y-3872960D02*
X2989066Y-3863436D01*
X2989066Y-3863436D02*
X2979543Y-3844388D01*
X2979543Y-3844388D02*
X2979543Y-3787246D01*
X2979543Y-3787246D02*
X2989066Y-3768198D01*
X2989066Y-3768198D02*
X2998590Y-3758674D01*
X2998590Y-3758674D02*
X3017638Y-3749150D01*
X3017638Y-3749150D02*
X3046209Y-3749150D01*
X3046209Y-3749150D02*
X3065257Y-3758674D01*
X3065257Y-3758674D02*
X3074781Y-3768198D01*
X3074781Y-3768198D02*
X3084305Y-3787246D01*
X3084305Y-3787246D02*
X3084305Y-3844388D01*
X3084305Y-3844388D02*
X3074781Y-3863436D01*
X3074781Y-3863436D02*
X3065257Y-3872960D01*
X3065257Y-3872960D02*
X3046209Y-3882484D01*
X3046209Y-3882484D02*
X3017638Y-3882484D01*
X3141447Y-3749150D02*
X3217638Y-3749150D01*
X3170019Y-3682484D02*
X3170019Y-3853912D01*
X3170019Y-3853912D02*
X3179543Y-3872960D01*
X3179543Y-3872960D02*
X3198590Y-3882484D01*
X3198590Y-3882484D02*
X3217638Y-3882484D01*
X3436686Y-3749150D02*
X3436686Y-3949150D01*
X3436686Y-3758674D02*
X3455733Y-3749150D01*
X3455733Y-3749150D02*
X3493828Y-3749150D01*
X3493828Y-3749150D02*
X3512876Y-3758674D01*
X3512876Y-3758674D02*
X3522400Y-3768198D01*
X3522400Y-3768198D02*
X3531924Y-3787246D01*
X3531924Y-3787246D02*
X3531924Y-3844388D01*
X3531924Y-3844388D02*
X3522400Y-3863436D01*
X3522400Y-3863436D02*
X3512876Y-3872960D01*
X3512876Y-3872960D02*
X3493828Y-3882484D01*
X3493828Y-3882484D02*
X3455733Y-3882484D01*
X3455733Y-3882484D02*
X3436686Y-3872960D01*
X3646209Y-3882484D02*
X3627162Y-3872960D01*
X3627162Y-3872960D02*
X3617638Y-3853912D01*
X3617638Y-3853912D02*
X3617638Y-3682484D01*
X3808114Y-3882484D02*
X3808114Y-3777722D01*
X3808114Y-3777722D02*
X3798590Y-3758674D01*
X3798590Y-3758674D02*
X3779543Y-3749150D01*
X3779543Y-3749150D02*
X3741447Y-3749150D01*
X3741447Y-3749150D02*
X3722400Y-3758674D01*
X3808114Y-3872960D02*
X3789067Y-3882484D01*
X3789067Y-3882484D02*
X3741447Y-3882484D01*
X3741447Y-3882484D02*
X3722400Y-3872960D01*
X3722400Y-3872960D02*
X3712876Y-3853912D01*
X3712876Y-3853912D02*
X3712876Y-3834865D01*
X3712876Y-3834865D02*
X3722400Y-3815817D01*
X3722400Y-3815817D02*
X3741447Y-3806293D01*
X3741447Y-3806293D02*
X3789067Y-3806293D01*
X3789067Y-3806293D02*
X3808114Y-3796769D01*
X3874781Y-3749150D02*
X3950971Y-3749150D01*
X3903352Y-3682484D02*
X3903352Y-3853912D01*
X3903352Y-3853912D02*
X3912876Y-3872960D01*
X3912876Y-3872960D02*
X3931924Y-3882484D01*
X3931924Y-3882484D02*
X3950971Y-3882484D01*
X4093828Y-3872960D02*
X4074781Y-3882484D01*
X4074781Y-3882484D02*
X4036686Y-3882484D01*
X4036686Y-3882484D02*
X4017638Y-3872960D01*
X4017638Y-3872960D02*
X4008114Y-3853912D01*
X4008114Y-3853912D02*
X4008114Y-3777722D01*
X4008114Y-3777722D02*
X4017638Y-3758674D01*
X4017638Y-3758674D02*
X4036686Y-3749150D01*
X4036686Y-3749150D02*
X4074781Y-3749150D01*
X4074781Y-3749150D02*
X4093828Y-3758674D01*
X4093828Y-3758674D02*
X4103352Y-3777722D01*
X4103352Y-3777722D02*
X4103352Y-3796769D01*
X4103352Y-3796769D02*
X4008114Y-3815817D01*
X4274781Y-3882484D02*
X4274781Y-3682484D01*
X4274781Y-3872960D02*
X4255733Y-3882484D01*
X4255733Y-3882484D02*
X4217638Y-3882484D01*
X4217638Y-3882484D02*
X4198590Y-3872960D01*
X4198590Y-3872960D02*
X4189067Y-3863436D01*
X4189067Y-3863436D02*
X4179543Y-3844388D01*
X4179543Y-3844388D02*
X4179543Y-3787246D01*
X4179543Y-3787246D02*
X4189067Y-3768198D01*
X4189067Y-3768198D02*
X4198590Y-3758674D01*
X4198590Y-3758674D02*
X4217638Y-3749150D01*
X4217638Y-3749150D02*
X4255733Y-3749150D01*
X4255733Y-3749150D02*
X4274781Y-3758674D01*
X4350971Y-3958674D02*
X4360495Y-3949150D01*
X4360495Y-3949150D02*
X4379543Y-3920579D01*
X4379543Y-3920579D02*
X4389067Y-3901531D01*
X4389067Y-3901531D02*
X4398590Y-3872960D01*
X4398590Y-3872960D02*
X4408114Y-3825341D01*
X4408114Y-3825341D02*
X4408114Y-3787246D01*
X4408114Y-3787246D02*
X4398590Y-3739627D01*
X4398590Y-3739627D02*
X4389067Y-3711055D01*
X4389067Y-3711055D02*
X4379543Y-3692008D01*
X4379543Y-3692008D02*
X4360495Y-3663436D01*
X4360495Y-3663436D02*
X4350971Y-3653912D01*
X-2505044Y-4155000D02*
X-2405044Y-4055000D01*
X-2505044Y-3955000D01*
X-2605044Y-4055000D01*
X-2505044Y-4155000D01*
X-2153791Y-3965531D02*
X-2144267Y-3956008D01*
X-2144267Y-3956008D02*
X-2125220Y-3946484D01*
X-2125220Y-3946484D02*
X-2077601Y-3946484D01*
X-2077601Y-3946484D02*
X-2058553Y-3956008D01*
X-2058553Y-3956008D02*
X-2049029Y-3965531D01*
X-2049029Y-3965531D02*
X-2039505Y-3984579D01*
X-2039505Y-3984579D02*
X-2039505Y-4003627D01*
X-2039505Y-4003627D02*
X-2049029Y-4032198D01*
X-2049029Y-4032198D02*
X-2163315Y-4146484D01*
X-2163315Y-4146484D02*
X-2039505Y-4146484D01*
X-1953791Y-4127436D02*
X-1944267Y-4136960D01*
X-1944267Y-4136960D02*
X-1953791Y-4146484D01*
X-1953791Y-4146484D02*
X-1963315Y-4136960D01*
X-1963315Y-4136960D02*
X-1953791Y-4127436D01*
X-1953791Y-4127436D02*
X-1953791Y-4146484D01*
X-1753791Y-4146484D02*
X-1868077Y-4146484D01*
X-1810934Y-4146484D02*
X-1810934Y-3946484D01*
X-1810934Y-3946484D02*
X-1829982Y-3975055D01*
X-1829982Y-3975055D02*
X-1849029Y-3994103D01*
X-1849029Y-3994103D02*
X-1868077Y-4003627D01*
X-1629982Y-3946484D02*
X-1610934Y-3946484D01*
X-1610934Y-3946484D02*
X-1591886Y-3956008D01*
X-1591886Y-3956008D02*
X-1582362Y-3965531D01*
X-1582362Y-3965531D02*
X-1572839Y-3984579D01*
X-1572839Y-3984579D02*
X-1563315Y-4022674D01*
X-1563315Y-4022674D02*
X-1563315Y-4070293D01*
X-1563315Y-4070293D02*
X-1572839Y-4108388D01*
X-1572839Y-4108388D02*
X-1582362Y-4127436D01*
X-1582362Y-4127436D02*
X-1591886Y-4136960D01*
X-1591886Y-4136960D02*
X-1610934Y-4146484D01*
X-1610934Y-4146484D02*
X-1629982Y-4146484D01*
X-1629982Y-4146484D02*
X-1649029Y-4136960D01*
X-1649029Y-4136960D02*
X-1658553Y-4127436D01*
X-1658553Y-4127436D02*
X-1668077Y-4108388D01*
X-1668077Y-4108388D02*
X-1677601Y-4070293D01*
X-1677601Y-4070293D02*
X-1677601Y-4022674D01*
X-1677601Y-4022674D02*
X-1668077Y-3984579D01*
X-1668077Y-3984579D02*
X-1658553Y-3965531D01*
X-1658553Y-3965531D02*
X-1649029Y-3956008D01*
X-1649029Y-3956008D02*
X-1629982Y-3946484D01*
X-1439505Y-3946484D02*
X-1420458Y-3946484D01*
X-1420458Y-3946484D02*
X-1401410Y-3956008D01*
X-1401410Y-3956008D02*
X-1391886Y-3965531D01*
X-1391886Y-3965531D02*
X-1382363Y-3984579D01*
X-1382363Y-3984579D02*
X-1372839Y-4022674D01*
X-1372839Y-4022674D02*
X-1372839Y-4070293D01*
X-1372839Y-4070293D02*
X-1382363Y-4108388D01*
X-1382363Y-4108388D02*
X-1391886Y-4127436D01*
X-1391886Y-4127436D02*
X-1401410Y-4136960D01*
X-1401410Y-4136960D02*
X-1420458Y-4146484D01*
X-1420458Y-4146484D02*
X-1439505Y-4146484D01*
X-1439505Y-4146484D02*
X-1458553Y-4136960D01*
X-1458553Y-4136960D02*
X-1468077Y-4127436D01*
X-1468077Y-4127436D02*
X-1477601Y-4108388D01*
X-1477601Y-4108388D02*
X-1487124Y-4070293D01*
X-1487124Y-4070293D02*
X-1487124Y-4022674D01*
X-1487124Y-4022674D02*
X-1477601Y-3984579D01*
X-1477601Y-3984579D02*
X-1468077Y-3965531D01*
X-1468077Y-3965531D02*
X-1458553Y-3956008D01*
X-1458553Y-3956008D02*
X-1439505Y-3946484D01*
X-1287124Y-4146484D02*
X-1287124Y-4013150D01*
X-1287124Y-4032198D02*
X-1277601Y-4022674D01*
X-1277601Y-4022674D02*
X-1258553Y-4013150D01*
X-1258553Y-4013150D02*
X-1229982Y-4013150D01*
X-1229982Y-4013150D02*
X-1210934Y-4022674D01*
X-1210934Y-4022674D02*
X-1201410Y-4041722D01*
X-1201410Y-4041722D02*
X-1201410Y-4146484D01*
X-1201410Y-4041722D02*
X-1191886Y-4022674D01*
X-1191886Y-4022674D02*
X-1172839Y-4013150D01*
X-1172839Y-4013150D02*
X-1144267Y-4013150D01*
X-1144267Y-4013150D02*
X-1125220Y-4022674D01*
X-1125220Y-4022674D02*
X-1115696Y-4041722D01*
X-1115696Y-4041722D02*
X-1115696Y-4146484D01*
X-1020458Y-4146484D02*
X-1020458Y-4013150D01*
X-1020458Y-4032198D02*
X-1010934Y-4022674D01*
X-1010934Y-4022674D02*
X-991886Y-4013150D01*
X-991886Y-4013150D02*
X-963315Y-4013150D01*
X-963315Y-4013150D02*
X-944267Y-4022674D01*
X-944267Y-4022674D02*
X-934743Y-4041722D01*
X-934743Y-4041722D02*
X-934743Y-4146484D01*
X-934743Y-4041722D02*
X-925220Y-4022674D01*
X-925220Y-4022674D02*
X-906172Y-4013150D01*
X-906172Y-4013150D02*
X-877601Y-4013150D01*
X-877601Y-4013150D02*
X-858553Y-4022674D01*
X-858553Y-4022674D02*
X-849029Y-4041722D01*
X-849029Y-4041722D02*
X-849029Y-4146484D01*
X-458553Y-3936960D02*
X-629981Y-4194103D01*
X-201410Y-3946484D02*
X-182362Y-3946484D01*
X-182362Y-3946484D02*
X-163315Y-3956008D01*
X-163315Y-3956008D02*
X-153791Y-3965531D01*
X-153791Y-3965531D02*
X-144267Y-3984579D01*
X-144267Y-3984579D02*
X-134743Y-4022674D01*
X-134743Y-4022674D02*
X-134743Y-4070293D01*
X-134743Y-4070293D02*
X-144267Y-4108388D01*
X-144267Y-4108388D02*
X-153791Y-4127436D01*
X-153791Y-4127436D02*
X-163315Y-4136960D01*
X-163315Y-4136960D02*
X-182362Y-4146484D01*
X-182362Y-4146484D02*
X-201410Y-4146484D01*
X-201410Y-4146484D02*
X-220458Y-4136960D01*
X-220458Y-4136960D02*
X-229981Y-4127436D01*
X-229981Y-4127436D02*
X-239505Y-4108388D01*
X-239505Y-4108388D02*
X-249029Y-4070293D01*
X-249029Y-4070293D02*
X-249029Y-4022674D01*
X-249029Y-4022674D02*
X-239505Y-3984579D01*
X-239505Y-3984579D02*
X-229981Y-3965531D01*
X-229981Y-3965531D02*
X-220458Y-3956008D01*
X-220458Y-3956008D02*
X-201410Y-3946484D01*
X-49029Y-4127436D02*
X-39505Y-4136960D01*
X-39505Y-4136960D02*
X-49029Y-4146484D01*
X-49029Y-4146484D02*
X-58553Y-4136960D01*
X-58553Y-4136960D02*
X-49029Y-4127436D01*
X-49029Y-4127436D02*
X-49029Y-4146484D01*
X84304Y-3946484D02*
X103352Y-3946484D01*
X103352Y-3946484D02*
X122400Y-3956008D01*
X122400Y-3956008D02*
X131923Y-3965531D01*
X131923Y-3965531D02*
X141447Y-3984579D01*
X141447Y-3984579D02*
X150971Y-4022674D01*
X150971Y-4022674D02*
X150971Y-4070293D01*
X150971Y-4070293D02*
X141447Y-4108388D01*
X141447Y-4108388D02*
X131923Y-4127436D01*
X131923Y-4127436D02*
X122400Y-4136960D01*
X122400Y-4136960D02*
X103352Y-4146484D01*
X103352Y-4146484D02*
X84304Y-4146484D01*
X84304Y-4146484D02*
X65257Y-4136960D01*
X65257Y-4136960D02*
X55733Y-4127436D01*
X55733Y-4127436D02*
X46209Y-4108388D01*
X46209Y-4108388D02*
X36685Y-4070293D01*
X36685Y-4070293D02*
X36685Y-4022674D01*
X36685Y-4022674D02*
X46209Y-3984579D01*
X46209Y-3984579D02*
X55733Y-3965531D01*
X55733Y-3965531D02*
X65257Y-3956008D01*
X65257Y-3956008D02*
X84304Y-3946484D01*
X265257Y-4032198D02*
X246209Y-4022674D01*
X246209Y-4022674D02*
X236685Y-4013150D01*
X236685Y-4013150D02*
X227161Y-3994103D01*
X227161Y-3994103D02*
X227161Y-3984579D01*
X227161Y-3984579D02*
X236685Y-3965531D01*
X236685Y-3965531D02*
X246209Y-3956008D01*
X246209Y-3956008D02*
X265257Y-3946484D01*
X265257Y-3946484D02*
X303352Y-3946484D01*
X303352Y-3946484D02*
X322400Y-3956008D01*
X322400Y-3956008D02*
X331923Y-3965531D01*
X331923Y-3965531D02*
X341447Y-3984579D01*
X341447Y-3984579D02*
X341447Y-3994103D01*
X341447Y-3994103D02*
X331923Y-4013150D01*
X331923Y-4013150D02*
X322400Y-4022674D01*
X322400Y-4022674D02*
X303352Y-4032198D01*
X303352Y-4032198D02*
X265257Y-4032198D01*
X265257Y-4032198D02*
X246209Y-4041722D01*
X246209Y-4041722D02*
X236685Y-4051246D01*
X236685Y-4051246D02*
X227161Y-4070293D01*
X227161Y-4070293D02*
X227161Y-4108388D01*
X227161Y-4108388D02*
X236685Y-4127436D01*
X236685Y-4127436D02*
X246209Y-4136960D01*
X246209Y-4136960D02*
X265257Y-4146484D01*
X265257Y-4146484D02*
X303352Y-4146484D01*
X303352Y-4146484D02*
X322400Y-4136960D01*
X322400Y-4136960D02*
X331923Y-4127436D01*
X331923Y-4127436D02*
X341447Y-4108388D01*
X341447Y-4108388D02*
X341447Y-4070293D01*
X341447Y-4070293D02*
X331923Y-4051246D01*
X331923Y-4051246D02*
X322400Y-4041722D01*
X322400Y-4041722D02*
X303352Y-4032198D01*
X417638Y-3965531D02*
X427161Y-3956008D01*
X427161Y-3956008D02*
X446209Y-3946484D01*
X446209Y-3946484D02*
X493828Y-3946484D01*
X493828Y-3946484D02*
X512876Y-3956008D01*
X512876Y-3956008D02*
X522400Y-3965531D01*
X522400Y-3965531D02*
X531923Y-3984579D01*
X531923Y-3984579D02*
X531923Y-4003627D01*
X531923Y-4003627D02*
X522400Y-4032198D01*
X522400Y-4032198D02*
X408114Y-4146484D01*
X408114Y-4146484D02*
X531923Y-4146484D01*
X598590Y-3946484D02*
X731923Y-3946484D01*
X731923Y-3946484D02*
X646209Y-4146484D01*
X798590Y-3946484D02*
X798590Y-3984579D01*
X874781Y-3946484D02*
X874781Y-3984579D01*
X1170019Y-4222674D02*
X1160495Y-4213150D01*
X1160495Y-4213150D02*
X1141447Y-4184579D01*
X1141447Y-4184579D02*
X1131924Y-4165531D01*
X1131924Y-4165531D02*
X1122400Y-4136960D01*
X1122400Y-4136960D02*
X1112876Y-4089341D01*
X1112876Y-4089341D02*
X1112876Y-4051246D01*
X1112876Y-4051246D02*
X1122400Y-4003627D01*
X1122400Y-4003627D02*
X1131924Y-3975055D01*
X1131924Y-3975055D02*
X1141447Y-3956008D01*
X1141447Y-3956008D02*
X1160495Y-3927436D01*
X1160495Y-3927436D02*
X1170019Y-3917912D01*
X1350971Y-4146484D02*
X1236685Y-4146484D01*
X1293828Y-4146484D02*
X1293828Y-3946484D01*
X1293828Y-3946484D02*
X1274781Y-3975055D01*
X1274781Y-3975055D02*
X1255733Y-3994103D01*
X1255733Y-3994103D02*
X1236685Y-4003627D01*
X1589066Y-4146484D02*
X1589066Y-3946484D01*
X1674781Y-4146484D02*
X1674781Y-4041722D01*
X1674781Y-4041722D02*
X1665257Y-4022674D01*
X1665257Y-4022674D02*
X1646209Y-4013150D01*
X1646209Y-4013150D02*
X1617638Y-4013150D01*
X1617638Y-4013150D02*
X1598590Y-4022674D01*
X1598590Y-4022674D02*
X1589066Y-4032198D01*
X1798590Y-4146484D02*
X1779543Y-4136960D01*
X1779543Y-4136960D02*
X1770019Y-4127436D01*
X1770019Y-4127436D02*
X1760495Y-4108388D01*
X1760495Y-4108388D02*
X1760495Y-4051246D01*
X1760495Y-4051246D02*
X1770019Y-4032198D01*
X1770019Y-4032198D02*
X1779543Y-4022674D01*
X1779543Y-4022674D02*
X1798590Y-4013150D01*
X1798590Y-4013150D02*
X1827162Y-4013150D01*
X1827162Y-4013150D02*
X1846209Y-4022674D01*
X1846209Y-4022674D02*
X1855733Y-4032198D01*
X1855733Y-4032198D02*
X1865257Y-4051246D01*
X1865257Y-4051246D02*
X1865257Y-4108388D01*
X1865257Y-4108388D02*
X1855733Y-4127436D01*
X1855733Y-4127436D02*
X1846209Y-4136960D01*
X1846209Y-4136960D02*
X1827162Y-4146484D01*
X1827162Y-4146484D02*
X1798590Y-4146484D01*
X1979543Y-4146484D02*
X1960495Y-4136960D01*
X1960495Y-4136960D02*
X1950971Y-4117912D01*
X1950971Y-4117912D02*
X1950971Y-3946484D01*
X2131924Y-4136960D02*
X2112876Y-4146484D01*
X2112876Y-4146484D02*
X2074781Y-4146484D01*
X2074781Y-4146484D02*
X2055733Y-4136960D01*
X2055733Y-4136960D02*
X2046209Y-4117912D01*
X2046209Y-4117912D02*
X2046209Y-4041722D01*
X2046209Y-4041722D02*
X2055733Y-4022674D01*
X2055733Y-4022674D02*
X2074781Y-4013150D01*
X2074781Y-4013150D02*
X2112876Y-4013150D01*
X2112876Y-4013150D02*
X2131924Y-4022674D01*
X2131924Y-4022674D02*
X2141447Y-4041722D01*
X2141447Y-4041722D02*
X2141447Y-4060769D01*
X2141447Y-4060769D02*
X2046209Y-4079817D01*
X2208114Y-4222674D02*
X2217638Y-4213150D01*
X2217638Y-4213150D02*
X2236686Y-4184579D01*
X2236686Y-4184579D02*
X2246209Y-4165531D01*
X2246209Y-4165531D02*
X2255733Y-4136960D01*
X2255733Y-4136960D02*
X2265257Y-4089341D01*
X2265257Y-4089341D02*
X2265257Y-4051246D01*
X2265257Y-4051246D02*
X2255733Y-4003627D01*
X2255733Y-4003627D02*
X2246209Y-3975055D01*
X2246209Y-3975055D02*
X2236686Y-3956008D01*
X2236686Y-3956008D02*
X2217638Y-3927436D01*
X2217638Y-3927436D02*
X2208114Y-3917912D01*
X2570019Y-4222674D02*
X2560495Y-4213150D01*
X2560495Y-4213150D02*
X2541447Y-4184579D01*
X2541447Y-4184579D02*
X2531924Y-4165531D01*
X2531924Y-4165531D02*
X2522400Y-4136960D01*
X2522400Y-4136960D02*
X2512876Y-4089341D01*
X2512876Y-4089341D02*
X2512876Y-4051246D01*
X2512876Y-4051246D02*
X2522400Y-4003627D01*
X2522400Y-4003627D02*
X2531924Y-3975055D01*
X2531924Y-3975055D02*
X2541447Y-3956008D01*
X2541447Y-3956008D02*
X2560495Y-3927436D01*
X2560495Y-3927436D02*
X2570019Y-3917912D01*
X2646209Y-4013150D02*
X2646209Y-4146484D01*
X2646209Y-4032198D02*
X2655733Y-4022674D01*
X2655733Y-4022674D02*
X2674781Y-4013150D01*
X2674781Y-4013150D02*
X2703352Y-4013150D01*
X2703352Y-4013150D02*
X2722400Y-4022674D01*
X2722400Y-4022674D02*
X2731924Y-4041722D01*
X2731924Y-4041722D02*
X2731924Y-4146484D01*
X2855733Y-4146484D02*
X2836685Y-4136960D01*
X2836685Y-4136960D02*
X2827162Y-4127436D01*
X2827162Y-4127436D02*
X2817638Y-4108388D01*
X2817638Y-4108388D02*
X2817638Y-4051246D01*
X2817638Y-4051246D02*
X2827162Y-4032198D01*
X2827162Y-4032198D02*
X2836685Y-4022674D01*
X2836685Y-4022674D02*
X2855733Y-4013150D01*
X2855733Y-4013150D02*
X2884305Y-4013150D01*
X2884305Y-4013150D02*
X2903352Y-4022674D01*
X2903352Y-4022674D02*
X2912876Y-4032198D01*
X2912876Y-4032198D02*
X2922400Y-4051246D01*
X2922400Y-4051246D02*
X2922400Y-4108388D01*
X2922400Y-4108388D02*
X2912876Y-4127436D01*
X2912876Y-4127436D02*
X2903352Y-4136960D01*
X2903352Y-4136960D02*
X2884305Y-4146484D01*
X2884305Y-4146484D02*
X2855733Y-4146484D01*
X2979543Y-4013150D02*
X3055733Y-4013150D01*
X3008114Y-3946484D02*
X3008114Y-4117912D01*
X3008114Y-4117912D02*
X3017638Y-4136960D01*
X3017638Y-4136960D02*
X3036685Y-4146484D01*
X3036685Y-4146484D02*
X3055733Y-4146484D01*
X3274781Y-4013150D02*
X3274781Y-4213150D01*
X3274781Y-4022674D02*
X3293828Y-4013150D01*
X3293828Y-4013150D02*
X3331924Y-4013150D01*
X3331924Y-4013150D02*
X3350971Y-4022674D01*
X3350971Y-4022674D02*
X3360495Y-4032198D01*
X3360495Y-4032198D02*
X3370019Y-4051246D01*
X3370019Y-4051246D02*
X3370019Y-4108388D01*
X3370019Y-4108388D02*
X3360495Y-4127436D01*
X3360495Y-4127436D02*
X3350971Y-4136960D01*
X3350971Y-4136960D02*
X3331924Y-4146484D01*
X3331924Y-4146484D02*
X3293828Y-4146484D01*
X3293828Y-4146484D02*
X3274781Y-4136960D01*
X3484305Y-4146484D02*
X3465257Y-4136960D01*
X3465257Y-4136960D02*
X3455733Y-4117912D01*
X3455733Y-4117912D02*
X3455733Y-3946484D01*
X3646209Y-4146484D02*
X3646209Y-4041722D01*
X3646209Y-4041722D02*
X3636686Y-4022674D01*
X3636686Y-4022674D02*
X3617638Y-4013150D01*
X3617638Y-4013150D02*
X3579543Y-4013150D01*
X3579543Y-4013150D02*
X3560495Y-4022674D01*
X3646209Y-4136960D02*
X3627162Y-4146484D01*
X3627162Y-4146484D02*
X3579543Y-4146484D01*
X3579543Y-4146484D02*
X3560495Y-4136960D01*
X3560495Y-4136960D02*
X3550971Y-4117912D01*
X3550971Y-4117912D02*
X3550971Y-4098865D01*
X3550971Y-4098865D02*
X3560495Y-4079817D01*
X3560495Y-4079817D02*
X3579543Y-4070293D01*
X3579543Y-4070293D02*
X3627162Y-4070293D01*
X3627162Y-4070293D02*
X3646209Y-4060769D01*
X3712876Y-4013150D02*
X3789066Y-4013150D01*
X3741447Y-3946484D02*
X3741447Y-4117912D01*
X3741447Y-4117912D02*
X3750971Y-4136960D01*
X3750971Y-4136960D02*
X3770019Y-4146484D01*
X3770019Y-4146484D02*
X3789066Y-4146484D01*
X3931924Y-4136960D02*
X3912876Y-4146484D01*
X3912876Y-4146484D02*
X3874781Y-4146484D01*
X3874781Y-4146484D02*
X3855733Y-4136960D01*
X3855733Y-4136960D02*
X3846209Y-4117912D01*
X3846209Y-4117912D02*
X3846209Y-4041722D01*
X3846209Y-4041722D02*
X3855733Y-4022674D01*
X3855733Y-4022674D02*
X3874781Y-4013150D01*
X3874781Y-4013150D02*
X3912876Y-4013150D01*
X3912876Y-4013150D02*
X3931924Y-4022674D01*
X3931924Y-4022674D02*
X3941447Y-4041722D01*
X3941447Y-4041722D02*
X3941447Y-4060769D01*
X3941447Y-4060769D02*
X3846209Y-4079817D01*
X4112876Y-4146484D02*
X4112876Y-3946484D01*
X4112876Y-4136960D02*
X4093828Y-4146484D01*
X4093828Y-4146484D02*
X4055733Y-4146484D01*
X4055733Y-4146484D02*
X4036686Y-4136960D01*
X4036686Y-4136960D02*
X4027162Y-4127436D01*
X4027162Y-4127436D02*
X4017638Y-4108388D01*
X4017638Y-4108388D02*
X4017638Y-4051246D01*
X4017638Y-4051246D02*
X4027162Y-4032198D01*
X4027162Y-4032198D02*
X4036686Y-4022674D01*
X4036686Y-4022674D02*
X4055733Y-4013150D01*
X4055733Y-4013150D02*
X4093828Y-4013150D01*
X4093828Y-4013150D02*
X4112876Y-4022674D01*
X4189067Y-4222674D02*
X4198590Y-4213150D01*
X4198590Y-4213150D02*
X4217638Y-4184579D01*
X4217638Y-4184579D02*
X4227162Y-4165531D01*
X4227162Y-4165531D02*
X4236686Y-4136960D01*
X4236686Y-4136960D02*
X4246209Y-4089341D01*
X4246209Y-4089341D02*
X4246209Y-4051246D01*
X4246209Y-4051246D02*
X4236686Y-4003627D01*
X4236686Y-4003627D02*
X4227162Y-3975055D01*
X4227162Y-3975055D02*
X4217638Y-3956008D01*
X4217638Y-3956008D02*
X4198590Y-3927436D01*
X4198590Y-3927436D02*
X4189067Y-3917912D01*
X-2605044Y-4275000D02*
X-2405044Y-4475000D01*
X-2405044Y-4275000D02*
X-2605044Y-4475000D01*
X-2405044Y-4375000D02*
G75*
G02*
X-2605044Y-4375000I-100000J0D01*
G01*
X-2605044Y-4375000D02*
G75*
G02*
X-2405044Y-4375000I100000J0D01*
G01*
X-2153791Y-4285531D02*
X-2144267Y-4276008D01*
X-2144267Y-4276008D02*
X-2125220Y-4266484D01*
X-2125220Y-4266484D02*
X-2077601Y-4266484D01*
X-2077601Y-4266484D02*
X-2058553Y-4276008D01*
X-2058553Y-4276008D02*
X-2049029Y-4285531D01*
X-2049029Y-4285531D02*
X-2039505Y-4304579D01*
X-2039505Y-4304579D02*
X-2039505Y-4323627D01*
X-2039505Y-4323627D02*
X-2049029Y-4352198D01*
X-2049029Y-4352198D02*
X-2163315Y-4466484D01*
X-2163315Y-4466484D02*
X-2039505Y-4466484D01*
X-1953791Y-4447436D02*
X-1944267Y-4456960D01*
X-1944267Y-4456960D02*
X-1953791Y-4466484D01*
X-1953791Y-4466484D02*
X-1963315Y-4456960D01*
X-1963315Y-4456960D02*
X-1953791Y-4447436D01*
X-1953791Y-4447436D02*
X-1953791Y-4466484D01*
X-1877601Y-4266484D02*
X-1753791Y-4266484D01*
X-1753791Y-4266484D02*
X-1820458Y-4342674D01*
X-1820458Y-4342674D02*
X-1791886Y-4342674D01*
X-1791886Y-4342674D02*
X-1772839Y-4352198D01*
X-1772839Y-4352198D02*
X-1763315Y-4361722D01*
X-1763315Y-4361722D02*
X-1753791Y-4380770D01*
X-1753791Y-4380770D02*
X-1753791Y-4428389D01*
X-1753791Y-4428389D02*
X-1763315Y-4447436D01*
X-1763315Y-4447436D02*
X-1772839Y-4456960D01*
X-1772839Y-4456960D02*
X-1791886Y-4466484D01*
X-1791886Y-4466484D02*
X-1849029Y-4466484D01*
X-1849029Y-4466484D02*
X-1868077Y-4456960D01*
X-1868077Y-4456960D02*
X-1877601Y-4447436D01*
X-1687124Y-4266484D02*
X-1553791Y-4266484D01*
X-1553791Y-4266484D02*
X-1639505Y-4466484D01*
X-1382363Y-4266484D02*
X-1477601Y-4266484D01*
X-1477601Y-4266484D02*
X-1487124Y-4361722D01*
X-1487124Y-4361722D02*
X-1477601Y-4352198D01*
X-1477601Y-4352198D02*
X-1458553Y-4342674D01*
X-1458553Y-4342674D02*
X-1410934Y-4342674D01*
X-1410934Y-4342674D02*
X-1391886Y-4352198D01*
X-1391886Y-4352198D02*
X-1382363Y-4361722D01*
X-1382363Y-4361722D02*
X-1372839Y-4380770D01*
X-1372839Y-4380770D02*
X-1372839Y-4428389D01*
X-1372839Y-4428389D02*
X-1382363Y-4447436D01*
X-1382363Y-4447436D02*
X-1391886Y-4456960D01*
X-1391886Y-4456960D02*
X-1410934Y-4466484D01*
X-1410934Y-4466484D02*
X-1458553Y-4466484D01*
X-1458553Y-4466484D02*
X-1477601Y-4456960D01*
X-1477601Y-4456960D02*
X-1487124Y-4447436D01*
X-1287124Y-4466484D02*
X-1287124Y-4333150D01*
X-1287124Y-4352198D02*
X-1277601Y-4342674D01*
X-1277601Y-4342674D02*
X-1258553Y-4333150D01*
X-1258553Y-4333150D02*
X-1229982Y-4333150D01*
X-1229982Y-4333150D02*
X-1210934Y-4342674D01*
X-1210934Y-4342674D02*
X-1201410Y-4361722D01*
X-1201410Y-4361722D02*
X-1201410Y-4466484D01*
X-1201410Y-4361722D02*
X-1191886Y-4342674D01*
X-1191886Y-4342674D02*
X-1172839Y-4333150D01*
X-1172839Y-4333150D02*
X-1144267Y-4333150D01*
X-1144267Y-4333150D02*
X-1125220Y-4342674D01*
X-1125220Y-4342674D02*
X-1115696Y-4361722D01*
X-1115696Y-4361722D02*
X-1115696Y-4466484D01*
X-1020458Y-4466484D02*
X-1020458Y-4333150D01*
X-1020458Y-4352198D02*
X-1010934Y-4342674D01*
X-1010934Y-4342674D02*
X-991886Y-4333150D01*
X-991886Y-4333150D02*
X-963315Y-4333150D01*
X-963315Y-4333150D02*
X-944267Y-4342674D01*
X-944267Y-4342674D02*
X-934743Y-4361722D01*
X-934743Y-4361722D02*
X-934743Y-4466484D01*
X-934743Y-4361722D02*
X-925220Y-4342674D01*
X-925220Y-4342674D02*
X-906172Y-4333150D01*
X-906172Y-4333150D02*
X-877601Y-4333150D01*
X-877601Y-4333150D02*
X-858553Y-4342674D01*
X-858553Y-4342674D02*
X-849029Y-4361722D01*
X-849029Y-4361722D02*
X-849029Y-4466484D01*
X-458553Y-4256960D02*
X-629981Y-4514103D01*
X-201410Y-4266484D02*
X-182362Y-4266484D01*
X-182362Y-4266484D02*
X-163315Y-4276008D01*
X-163315Y-4276008D02*
X-153791Y-4285531D01*
X-153791Y-4285531D02*
X-144267Y-4304579D01*
X-144267Y-4304579D02*
X-134743Y-4342674D01*
X-134743Y-4342674D02*
X-134743Y-4390293D01*
X-134743Y-4390293D02*
X-144267Y-4428389D01*
X-144267Y-4428389D02*
X-153791Y-4447436D01*
X-153791Y-4447436D02*
X-163315Y-4456960D01*
X-163315Y-4456960D02*
X-182362Y-4466484D01*
X-182362Y-4466484D02*
X-201410Y-4466484D01*
X-201410Y-4466484D02*
X-220458Y-4456960D01*
X-220458Y-4456960D02*
X-229981Y-4447436D01*
X-229981Y-4447436D02*
X-239505Y-4428389D01*
X-239505Y-4428389D02*
X-249029Y-4390293D01*
X-249029Y-4390293D02*
X-249029Y-4342674D01*
X-249029Y-4342674D02*
X-239505Y-4304579D01*
X-239505Y-4304579D02*
X-229981Y-4285531D01*
X-229981Y-4285531D02*
X-220458Y-4276008D01*
X-220458Y-4276008D02*
X-201410Y-4266484D01*
X-49029Y-4447436D02*
X-39505Y-4456960D01*
X-39505Y-4456960D02*
X-49029Y-4466484D01*
X-49029Y-4466484D02*
X-58553Y-4456960D01*
X-58553Y-4456960D02*
X-49029Y-4447436D01*
X-49029Y-4447436D02*
X-49029Y-4466484D01*
X84304Y-4266484D02*
X103352Y-4266484D01*
X103352Y-4266484D02*
X122400Y-4276008D01*
X122400Y-4276008D02*
X131923Y-4285531D01*
X131923Y-4285531D02*
X141447Y-4304579D01*
X141447Y-4304579D02*
X150971Y-4342674D01*
X150971Y-4342674D02*
X150971Y-4390293D01*
X150971Y-4390293D02*
X141447Y-4428389D01*
X141447Y-4428389D02*
X131923Y-4447436D01*
X131923Y-4447436D02*
X122400Y-4456960D01*
X122400Y-4456960D02*
X103352Y-4466484D01*
X103352Y-4466484D02*
X84304Y-4466484D01*
X84304Y-4466484D02*
X65257Y-4456960D01*
X65257Y-4456960D02*
X55733Y-4447436D01*
X55733Y-4447436D02*
X46209Y-4428389D01*
X46209Y-4428389D02*
X36685Y-4390293D01*
X36685Y-4390293D02*
X36685Y-4342674D01*
X36685Y-4342674D02*
X46209Y-4304579D01*
X46209Y-4304579D02*
X55733Y-4285531D01*
X55733Y-4285531D02*
X65257Y-4276008D01*
X65257Y-4276008D02*
X84304Y-4266484D01*
X246209Y-4466484D02*
X284304Y-4466484D01*
X284304Y-4466484D02*
X303352Y-4456960D01*
X303352Y-4456960D02*
X312876Y-4447436D01*
X312876Y-4447436D02*
X331923Y-4418865D01*
X331923Y-4418865D02*
X341447Y-4380770D01*
X341447Y-4380770D02*
X341447Y-4304579D01*
X341447Y-4304579D02*
X331923Y-4285531D01*
X331923Y-4285531D02*
X322400Y-4276008D01*
X322400Y-4276008D02*
X303352Y-4266484D01*
X303352Y-4266484D02*
X265257Y-4266484D01*
X265257Y-4266484D02*
X246209Y-4276008D01*
X246209Y-4276008D02*
X236685Y-4285531D01*
X236685Y-4285531D02*
X227161Y-4304579D01*
X227161Y-4304579D02*
X227161Y-4352198D01*
X227161Y-4352198D02*
X236685Y-4371246D01*
X236685Y-4371246D02*
X246209Y-4380770D01*
X246209Y-4380770D02*
X265257Y-4390293D01*
X265257Y-4390293D02*
X303352Y-4390293D01*
X303352Y-4390293D02*
X322400Y-4380770D01*
X322400Y-4380770D02*
X331923Y-4371246D01*
X331923Y-4371246D02*
X341447Y-4352198D01*
X408114Y-4266484D02*
X531923Y-4266484D01*
X531923Y-4266484D02*
X465257Y-4342674D01*
X465257Y-4342674D02*
X493828Y-4342674D01*
X493828Y-4342674D02*
X512876Y-4352198D01*
X512876Y-4352198D02*
X522400Y-4361722D01*
X522400Y-4361722D02*
X531923Y-4380770D01*
X531923Y-4380770D02*
X531923Y-4428389D01*
X531923Y-4428389D02*
X522400Y-4447436D01*
X522400Y-4447436D02*
X512876Y-4456960D01*
X512876Y-4456960D02*
X493828Y-4466484D01*
X493828Y-4466484D02*
X436685Y-4466484D01*
X436685Y-4466484D02*
X417638Y-4456960D01*
X417638Y-4456960D02*
X408114Y-4447436D01*
X712876Y-4266484D02*
X617638Y-4266484D01*
X617638Y-4266484D02*
X608114Y-4361722D01*
X608114Y-4361722D02*
X617638Y-4352198D01*
X617638Y-4352198D02*
X636685Y-4342674D01*
X636685Y-4342674D02*
X684304Y-4342674D01*
X684304Y-4342674D02*
X703352Y-4352198D01*
X703352Y-4352198D02*
X712876Y-4361722D01*
X712876Y-4361722D02*
X722400Y-4380770D01*
X722400Y-4380770D02*
X722400Y-4428389D01*
X722400Y-4428389D02*
X712876Y-4447436D01*
X712876Y-4447436D02*
X703352Y-4456960D01*
X703352Y-4456960D02*
X684304Y-4466484D01*
X684304Y-4466484D02*
X636685Y-4466484D01*
X636685Y-4466484D02*
X617638Y-4456960D01*
X617638Y-4456960D02*
X608114Y-4447436D01*
X798590Y-4266484D02*
X798590Y-4304579D01*
X874781Y-4266484D02*
X874781Y-4304579D01*
X1170019Y-4542674D02*
X1160495Y-4533150D01*
X1160495Y-4533150D02*
X1141447Y-4504579D01*
X1141447Y-4504579D02*
X1131924Y-4485531D01*
X1131924Y-4485531D02*
X1122400Y-4456960D01*
X1122400Y-4456960D02*
X1112876Y-4409341D01*
X1112876Y-4409341D02*
X1112876Y-4371246D01*
X1112876Y-4371246D02*
X1122400Y-4323627D01*
X1122400Y-4323627D02*
X1131924Y-4295055D01*
X1131924Y-4295055D02*
X1141447Y-4276008D01*
X1141447Y-4276008D02*
X1160495Y-4247436D01*
X1160495Y-4247436D02*
X1170019Y-4237912D01*
X1331924Y-4333150D02*
X1331924Y-4466484D01*
X1284304Y-4256960D02*
X1236685Y-4399817D01*
X1236685Y-4399817D02*
X1360495Y-4399817D01*
X1589066Y-4466484D02*
X1589066Y-4266484D01*
X1674781Y-4466484D02*
X1674781Y-4361722D01*
X1674781Y-4361722D02*
X1665257Y-4342674D01*
X1665257Y-4342674D02*
X1646209Y-4333150D01*
X1646209Y-4333150D02*
X1617638Y-4333150D01*
X1617638Y-4333150D02*
X1598590Y-4342674D01*
X1598590Y-4342674D02*
X1589066Y-4352198D01*
X1798590Y-4466484D02*
X1779543Y-4456960D01*
X1779543Y-4456960D02*
X1770019Y-4447436D01*
X1770019Y-4447436D02*
X1760495Y-4428389D01*
X1760495Y-4428389D02*
X1760495Y-4371246D01*
X1760495Y-4371246D02*
X1770019Y-4352198D01*
X1770019Y-4352198D02*
X1779543Y-4342674D01*
X1779543Y-4342674D02*
X1798590Y-4333150D01*
X1798590Y-4333150D02*
X1827162Y-4333150D01*
X1827162Y-4333150D02*
X1846209Y-4342674D01*
X1846209Y-4342674D02*
X1855733Y-4352198D01*
X1855733Y-4352198D02*
X1865257Y-4371246D01*
X1865257Y-4371246D02*
X1865257Y-4428389D01*
X1865257Y-4428389D02*
X1855733Y-4447436D01*
X1855733Y-4447436D02*
X1846209Y-4456960D01*
X1846209Y-4456960D02*
X1827162Y-4466484D01*
X1827162Y-4466484D02*
X1798590Y-4466484D01*
X1979543Y-4466484D02*
X1960495Y-4456960D01*
X1960495Y-4456960D02*
X1950971Y-4437912D01*
X1950971Y-4437912D02*
X1950971Y-4266484D01*
X2131924Y-4456960D02*
X2112876Y-4466484D01*
X2112876Y-4466484D02*
X2074781Y-4466484D01*
X2074781Y-4466484D02*
X2055733Y-4456960D01*
X2055733Y-4456960D02*
X2046209Y-4437912D01*
X2046209Y-4437912D02*
X2046209Y-4361722D01*
X2046209Y-4361722D02*
X2055733Y-4342674D01*
X2055733Y-4342674D02*
X2074781Y-4333150D01*
X2074781Y-4333150D02*
X2112876Y-4333150D01*
X2112876Y-4333150D02*
X2131924Y-4342674D01*
X2131924Y-4342674D02*
X2141447Y-4361722D01*
X2141447Y-4361722D02*
X2141447Y-4380770D01*
X2141447Y-4380770D02*
X2046209Y-4399817D01*
X2217638Y-4456960D02*
X2236686Y-4466484D01*
X2236686Y-4466484D02*
X2274781Y-4466484D01*
X2274781Y-4466484D02*
X2293828Y-4456960D01*
X2293828Y-4456960D02*
X2303352Y-4437912D01*
X2303352Y-4437912D02*
X2303352Y-4428389D01*
X2303352Y-4428389D02*
X2293828Y-4409341D01*
X2293828Y-4409341D02*
X2274781Y-4399817D01*
X2274781Y-4399817D02*
X2246209Y-4399817D01*
X2246209Y-4399817D02*
X2227162Y-4390293D01*
X2227162Y-4390293D02*
X2217638Y-4371246D01*
X2217638Y-4371246D02*
X2217638Y-4361722D01*
X2217638Y-4361722D02*
X2227162Y-4342674D01*
X2227162Y-4342674D02*
X2246209Y-4333150D01*
X2246209Y-4333150D02*
X2274781Y-4333150D01*
X2274781Y-4333150D02*
X2293828Y-4342674D01*
X2370019Y-4542674D02*
X2379543Y-4533150D01*
X2379543Y-4533150D02*
X2398590Y-4504579D01*
X2398590Y-4504579D02*
X2408114Y-4485531D01*
X2408114Y-4485531D02*
X2417638Y-4456960D01*
X2417638Y-4456960D02*
X2427162Y-4409341D01*
X2427162Y-4409341D02*
X2427162Y-4371246D01*
X2427162Y-4371246D02*
X2417638Y-4323627D01*
X2417638Y-4323627D02*
X2408114Y-4295055D01*
X2408114Y-4295055D02*
X2398590Y-4276008D01*
X2398590Y-4276008D02*
X2379543Y-4247436D01*
X2379543Y-4247436D02*
X2370019Y-4237912D01*
X2731924Y-4542674D02*
X2722400Y-4533150D01*
X2722400Y-4533150D02*
X2703352Y-4504579D01*
X2703352Y-4504579D02*
X2693828Y-4485531D01*
X2693828Y-4485531D02*
X2684305Y-4456960D01*
X2684305Y-4456960D02*
X2674781Y-4409341D01*
X2674781Y-4409341D02*
X2674781Y-4371246D01*
X2674781Y-4371246D02*
X2684305Y-4323627D01*
X2684305Y-4323627D02*
X2693828Y-4295055D01*
X2693828Y-4295055D02*
X2703352Y-4276008D01*
X2703352Y-4276008D02*
X2722400Y-4247436D01*
X2722400Y-4247436D02*
X2731924Y-4237912D01*
X2808114Y-4333150D02*
X2808114Y-4466484D01*
X2808114Y-4352198D02*
X2817638Y-4342674D01*
X2817638Y-4342674D02*
X2836685Y-4333150D01*
X2836685Y-4333150D02*
X2865257Y-4333150D01*
X2865257Y-4333150D02*
X2884305Y-4342674D01*
X2884305Y-4342674D02*
X2893828Y-4361722D01*
X2893828Y-4361722D02*
X2893828Y-4466484D01*
X3017638Y-4466484D02*
X2998590Y-4456960D01*
X2998590Y-4456960D02*
X2989066Y-4447436D01*
X2989066Y-4447436D02*
X2979543Y-4428389D01*
X2979543Y-4428389D02*
X2979543Y-4371246D01*
X2979543Y-4371246D02*
X2989066Y-4352198D01*
X2989066Y-4352198D02*
X2998590Y-4342674D01*
X2998590Y-4342674D02*
X3017638Y-4333150D01*
X3017638Y-4333150D02*
X3046209Y-4333150D01*
X3046209Y-4333150D02*
X3065257Y-4342674D01*
X3065257Y-4342674D02*
X3074781Y-4352198D01*
X3074781Y-4352198D02*
X3084305Y-4371246D01*
X3084305Y-4371246D02*
X3084305Y-4428389D01*
X3084305Y-4428389D02*
X3074781Y-4447436D01*
X3074781Y-4447436D02*
X3065257Y-4456960D01*
X3065257Y-4456960D02*
X3046209Y-4466484D01*
X3046209Y-4466484D02*
X3017638Y-4466484D01*
X3141447Y-4333150D02*
X3217638Y-4333150D01*
X3170019Y-4266484D02*
X3170019Y-4437912D01*
X3170019Y-4437912D02*
X3179543Y-4456960D01*
X3179543Y-4456960D02*
X3198590Y-4466484D01*
X3198590Y-4466484D02*
X3217638Y-4466484D01*
X3436686Y-4333150D02*
X3436686Y-4533150D01*
X3436686Y-4342674D02*
X3455733Y-4333150D01*
X3455733Y-4333150D02*
X3493828Y-4333150D01*
X3493828Y-4333150D02*
X3512876Y-4342674D01*
X3512876Y-4342674D02*
X3522400Y-4352198D01*
X3522400Y-4352198D02*
X3531924Y-4371246D01*
X3531924Y-4371246D02*
X3531924Y-4428389D01*
X3531924Y-4428389D02*
X3522400Y-4447436D01*
X3522400Y-4447436D02*
X3512876Y-4456960D01*
X3512876Y-4456960D02*
X3493828Y-4466484D01*
X3493828Y-4466484D02*
X3455733Y-4466484D01*
X3455733Y-4466484D02*
X3436686Y-4456960D01*
X3646209Y-4466484D02*
X3627162Y-4456960D01*
X3627162Y-4456960D02*
X3617638Y-4437912D01*
X3617638Y-4437912D02*
X3617638Y-4266484D01*
X3808114Y-4466484D02*
X3808114Y-4361722D01*
X3808114Y-4361722D02*
X3798590Y-4342674D01*
X3798590Y-4342674D02*
X3779543Y-4333150D01*
X3779543Y-4333150D02*
X3741447Y-4333150D01*
X3741447Y-4333150D02*
X3722400Y-4342674D01*
X3808114Y-4456960D02*
X3789067Y-4466484D01*
X3789067Y-4466484D02*
X3741447Y-4466484D01*
X3741447Y-4466484D02*
X3722400Y-4456960D01*
X3722400Y-4456960D02*
X3712876Y-4437912D01*
X3712876Y-4437912D02*
X3712876Y-4418865D01*
X3712876Y-4418865D02*
X3722400Y-4399817D01*
X3722400Y-4399817D02*
X3741447Y-4390293D01*
X3741447Y-4390293D02*
X3789067Y-4390293D01*
X3789067Y-4390293D02*
X3808114Y-4380770D01*
X3874781Y-4333150D02*
X3950971Y-4333150D01*
X3903352Y-4266484D02*
X3903352Y-4437912D01*
X3903352Y-4437912D02*
X3912876Y-4456960D01*
X3912876Y-4456960D02*
X3931924Y-4466484D01*
X3931924Y-4466484D02*
X3950971Y-4466484D01*
X4093828Y-4456960D02*
X4074781Y-4466484D01*
X4074781Y-4466484D02*
X4036686Y-4466484D01*
X4036686Y-4466484D02*
X4017638Y-4456960D01*
X4017638Y-4456960D02*
X4008114Y-4437912D01*
X4008114Y-4437912D02*
X4008114Y-4361722D01*
X4008114Y-4361722D02*
X4017638Y-4342674D01*
X4017638Y-4342674D02*
X4036686Y-4333150D01*
X4036686Y-4333150D02*
X4074781Y-4333150D01*
X4074781Y-4333150D02*
X4093828Y-4342674D01*
X4093828Y-4342674D02*
X4103352Y-4361722D01*
X4103352Y-4361722D02*
X4103352Y-4380770D01*
X4103352Y-4380770D02*
X4008114Y-4399817D01*
X4274781Y-4466484D02*
X4274781Y-4266484D01*
X4274781Y-4456960D02*
X4255733Y-4466484D01*
X4255733Y-4466484D02*
X4217638Y-4466484D01*
X4217638Y-4466484D02*
X4198590Y-4456960D01*
X4198590Y-4456960D02*
X4189067Y-4447436D01*
X4189067Y-4447436D02*
X4179543Y-4428389D01*
X4179543Y-4428389D02*
X4179543Y-4371246D01*
X4179543Y-4371246D02*
X4189067Y-4352198D01*
X4189067Y-4352198D02*
X4198590Y-4342674D01*
X4198590Y-4342674D02*
X4217638Y-4333150D01*
X4217638Y-4333150D02*
X4255733Y-4333150D01*
X4255733Y-4333150D02*
X4274781Y-4342674D01*
X4350971Y-4542674D02*
X4360495Y-4533150D01*
X4360495Y-4533150D02*
X4379543Y-4504579D01*
X4379543Y-4504579D02*
X4389067Y-4485531D01*
X4389067Y-4485531D02*
X4398590Y-4456960D01*
X4398590Y-4456960D02*
X4408114Y-4409341D01*
X4408114Y-4409341D02*
X4408114Y-4371246D01*
X4408114Y-4371246D02*
X4398590Y-4323627D01*
X4398590Y-4323627D02*
X4389067Y-4295055D01*
X4389067Y-4295055D02*
X4379543Y-4276008D01*
X4379543Y-4276008D02*
X4360495Y-4247436D01*
X4360495Y-4247436D02*
X4350971Y-4237912D01*
M02*
