%TF.GenerationSoftware,KiCad,Pcbnew,8.0.5*%
%TF.CreationDate,2025-01-06T18:17:11+01:00*%
%TF.ProjectId,test,74657374-2e6b-4696-9361-645f70636258,rev?*%
%TF.SameCoordinates,Original*%
%TF.FileFunction,Legend,Bot*%
%TF.FilePolarity,Positive*%
%FSLAX46Y46*%
G04 Gerber Fmt 4.6, Leading zero omitted, Abs format (unit mm)*
G04 Created by KiCad (PCBNEW 8.0.5) date 2025-01-06 18:17:11*
%MOMM*%
%LPD*%
G01*
G04 APERTURE LIST*
%ADD10C,0.250000*%
%ADD11C,0.150000*%
%ADD12C,0.125000*%
%ADD13C,0.100000*%
%ADD14C,0.120000*%
%ADD15C,0.127000*%
%ADD16C,0.240000*%
G04 APERTURE END LIST*
D10*
X157597698Y-108590009D02*
X157454841Y-108637628D01*
X157454841Y-108637628D02*
X157407222Y-108685247D01*
X157407222Y-108685247D02*
X157359603Y-108780485D01*
X157359603Y-108780485D02*
X157359603Y-108923342D01*
X157359603Y-108923342D02*
X157407222Y-109018580D01*
X157407222Y-109018580D02*
X157454841Y-109066200D01*
X157454841Y-109066200D02*
X157550079Y-109113819D01*
X157550079Y-109113819D02*
X157931031Y-109113819D01*
X157931031Y-109113819D02*
X157931031Y-108113819D01*
X157931031Y-108113819D02*
X157597698Y-108113819D01*
X157597698Y-108113819D02*
X157502460Y-108161438D01*
X157502460Y-108161438D02*
X157454841Y-108209057D01*
X157454841Y-108209057D02*
X157407222Y-108304295D01*
X157407222Y-108304295D02*
X157407222Y-108399533D01*
X157407222Y-108399533D02*
X157454841Y-108494771D01*
X157454841Y-108494771D02*
X157502460Y-108542390D01*
X157502460Y-108542390D02*
X157597698Y-108590009D01*
X157597698Y-108590009D02*
X157931031Y-108590009D01*
X156502460Y-109113819D02*
X156502460Y-108590009D01*
X156502460Y-108590009D02*
X156550079Y-108494771D01*
X156550079Y-108494771D02*
X156645317Y-108447152D01*
X156645317Y-108447152D02*
X156835793Y-108447152D01*
X156835793Y-108447152D02*
X156931031Y-108494771D01*
X156502460Y-109066200D02*
X156597698Y-109113819D01*
X156597698Y-109113819D02*
X156835793Y-109113819D01*
X156835793Y-109113819D02*
X156931031Y-109066200D01*
X156931031Y-109066200D02*
X156978650Y-108970961D01*
X156978650Y-108970961D02*
X156978650Y-108875723D01*
X156978650Y-108875723D02*
X156931031Y-108780485D01*
X156931031Y-108780485D02*
X156835793Y-108732866D01*
X156835793Y-108732866D02*
X156597698Y-108732866D01*
X156597698Y-108732866D02*
X156502460Y-108685247D01*
X156169126Y-108447152D02*
X155788174Y-108447152D01*
X156026269Y-108113819D02*
X156026269Y-108970961D01*
X156026269Y-108970961D02*
X155978650Y-109066200D01*
X155978650Y-109066200D02*
X155883412Y-109113819D01*
X155883412Y-109113819D02*
X155788174Y-109113819D01*
X155597697Y-108447152D02*
X155216745Y-108447152D01*
X155454840Y-108113819D02*
X155454840Y-108970961D01*
X155454840Y-108970961D02*
X155407221Y-109066200D01*
X155407221Y-109066200D02*
X155311983Y-109113819D01*
X155311983Y-109113819D02*
X155216745Y-109113819D01*
X154502459Y-109066200D02*
X154597697Y-109113819D01*
X154597697Y-109113819D02*
X154788173Y-109113819D01*
X154788173Y-109113819D02*
X154883411Y-109066200D01*
X154883411Y-109066200D02*
X154931030Y-108970961D01*
X154931030Y-108970961D02*
X154931030Y-108590009D01*
X154931030Y-108590009D02*
X154883411Y-108494771D01*
X154883411Y-108494771D02*
X154788173Y-108447152D01*
X154788173Y-108447152D02*
X154597697Y-108447152D01*
X154597697Y-108447152D02*
X154502459Y-108494771D01*
X154502459Y-108494771D02*
X154454840Y-108590009D01*
X154454840Y-108590009D02*
X154454840Y-108685247D01*
X154454840Y-108685247D02*
X154931030Y-108780485D01*
X154026268Y-109113819D02*
X154026268Y-108447152D01*
X154026268Y-108637628D02*
X153978649Y-108542390D01*
X153978649Y-108542390D02*
X153931030Y-108494771D01*
X153931030Y-108494771D02*
X153835792Y-108447152D01*
X153835792Y-108447152D02*
X153740554Y-108447152D01*
X153502458Y-108447152D02*
X153264363Y-109113819D01*
X153026268Y-108447152D02*
X153264363Y-109113819D01*
X153264363Y-109113819D02*
X153359601Y-109351914D01*
X153359601Y-109351914D02*
X153407220Y-109399533D01*
X153407220Y-109399533D02*
X153502458Y-109447152D01*
D11*
X85022680Y-56648904D02*
X84213157Y-56648904D01*
X84213157Y-56648904D02*
X84117919Y-56601285D01*
X84117919Y-56601285D02*
X84070300Y-56553666D01*
X84070300Y-56553666D02*
X84022680Y-56458428D01*
X84022680Y-56458428D02*
X84022680Y-56267952D01*
X84022680Y-56267952D02*
X84070300Y-56172714D01*
X84070300Y-56172714D02*
X84117919Y-56125095D01*
X84117919Y-56125095D02*
X84213157Y-56077476D01*
X84213157Y-56077476D02*
X85022680Y-56077476D01*
X84927442Y-55648904D02*
X84975061Y-55601285D01*
X84975061Y-55601285D02*
X85022680Y-55506047D01*
X85022680Y-55506047D02*
X85022680Y-55267952D01*
X85022680Y-55267952D02*
X84975061Y-55172714D01*
X84975061Y-55172714D02*
X84927442Y-55125095D01*
X84927442Y-55125095D02*
X84832204Y-55077476D01*
X84832204Y-55077476D02*
X84736966Y-55077476D01*
X84736966Y-55077476D02*
X84594109Y-55125095D01*
X84594109Y-55125095D02*
X84022680Y-55696523D01*
X84022680Y-55696523D02*
X84022680Y-55077476D01*
D12*
X97934918Y-41658048D02*
X97909548Y-41368525D01*
X98153788Y-41474394D02*
X97832395Y-41091372D01*
X97832395Y-41091372D02*
X97686481Y-41213808D01*
X97686481Y-41213808D02*
X97665307Y-41262656D01*
X97665307Y-41262656D02*
X97662373Y-41296199D01*
X97662373Y-41296199D02*
X97674743Y-41347982D01*
X97674743Y-41347982D02*
X97720656Y-41402699D01*
X97720656Y-41402699D02*
X97769504Y-41423873D01*
X97769504Y-41423873D02*
X97803048Y-41426808D01*
X97803048Y-41426808D02*
X97854830Y-41414438D01*
X97854830Y-41414438D02*
X98000744Y-41292002D01*
X97570135Y-41964137D02*
X97789005Y-41780483D01*
X97679570Y-41872310D02*
X97358177Y-41489288D01*
X97358177Y-41489288D02*
X97440568Y-41513396D01*
X97440568Y-41513396D02*
X97507655Y-41519266D01*
X97507655Y-41519266D02*
X97559438Y-41506896D01*
X97027568Y-41984269D02*
X97241831Y-42239617D01*
X96996329Y-41761833D02*
X97317091Y-41958898D01*
X97317091Y-41958898D02*
X97079982Y-42157856D01*
D11*
X97675457Y-40390622D02*
X97742544Y-40396491D01*
X97742544Y-40396491D02*
X97882588Y-40341143D01*
X97882588Y-40341143D02*
X97955545Y-40279925D01*
X97955545Y-40279925D02*
X98034371Y-40151620D01*
X98034371Y-40151620D02*
X98046109Y-40017445D01*
X98046109Y-40017445D02*
X98021370Y-39913880D01*
X98021370Y-39913880D02*
X97935412Y-39737358D01*
X97935412Y-39737358D02*
X97843586Y-39627923D01*
X97843586Y-39627923D02*
X97684671Y-39512618D01*
X97684671Y-39512618D02*
X97586975Y-39470271D01*
X97586975Y-39470271D02*
X97452801Y-39458532D01*
X97452801Y-39458532D02*
X97312757Y-39513880D01*
X97312757Y-39513880D02*
X97239800Y-39575098D01*
X97239800Y-39575098D02*
X97160974Y-39703403D01*
X97160974Y-39703403D02*
X97155105Y-39770491D01*
X96863279Y-40015362D02*
X96796191Y-40009493D01*
X96796191Y-40009493D02*
X96692626Y-40034232D01*
X96692626Y-40034232D02*
X96510234Y-40187277D01*
X96510234Y-40187277D02*
X96467887Y-40284973D01*
X96467887Y-40284973D02*
X96462017Y-40352060D01*
X96462017Y-40352060D02*
X96486757Y-40455626D01*
X96486757Y-40455626D02*
X96547975Y-40528583D01*
X96547975Y-40528583D02*
X96676280Y-40607409D01*
X96676280Y-40607409D02*
X97481327Y-40677841D01*
X97481327Y-40677841D02*
X97007109Y-41075757D01*
X96642325Y-41381847D02*
X96496412Y-41504282D01*
X96496412Y-41504282D02*
X96392847Y-41529022D01*
X96392847Y-41529022D02*
X96325759Y-41523152D01*
X96325759Y-41523152D02*
X96160976Y-41474935D01*
X96160976Y-41474935D02*
X96002062Y-41359631D01*
X96002062Y-41359631D02*
X95757191Y-41067805D01*
X95757191Y-41067805D02*
X95732451Y-40964239D01*
X95732451Y-40964239D02*
X95738320Y-40897152D01*
X95738320Y-40897152D02*
X95780668Y-40799456D01*
X95780668Y-40799456D02*
X95926581Y-40677020D01*
X95926581Y-40677020D02*
X96030147Y-40652280D01*
X96030147Y-40652280D02*
X96097234Y-40658150D01*
X96097234Y-40658150D02*
X96194930Y-40700497D01*
X96194930Y-40700497D02*
X96347975Y-40882889D01*
X96347975Y-40882889D02*
X96372714Y-40986455D01*
X96372714Y-40986455D02*
X96366845Y-41053542D01*
X96366845Y-41053542D02*
X96324497Y-41151238D01*
X96324497Y-41151238D02*
X96178584Y-41273674D01*
X96178584Y-41273674D02*
X96075019Y-41298413D01*
X96075019Y-41298413D02*
X96007931Y-41292544D01*
X96007931Y-41292544D02*
X95910235Y-41250196D01*
D12*
X102438452Y-57441809D02*
X102438452Y-56941809D01*
X102438452Y-56941809D02*
X102152738Y-57441809D01*
X102152738Y-57441809D02*
X102152738Y-56941809D01*
X101628928Y-57394190D02*
X101652737Y-57418000D01*
X101652737Y-57418000D02*
X101724166Y-57441809D01*
X101724166Y-57441809D02*
X101771785Y-57441809D01*
X101771785Y-57441809D02*
X101843213Y-57418000D01*
X101843213Y-57418000D02*
X101890832Y-57370380D01*
X101890832Y-57370380D02*
X101914642Y-57322761D01*
X101914642Y-57322761D02*
X101938451Y-57227523D01*
X101938451Y-57227523D02*
X101938451Y-57156095D01*
X101938451Y-57156095D02*
X101914642Y-57060857D01*
X101914642Y-57060857D02*
X101890832Y-57013238D01*
X101890832Y-57013238D02*
X101843213Y-56965619D01*
X101843213Y-56965619D02*
X101771785Y-56941809D01*
X101771785Y-56941809D02*
X101724166Y-56941809D01*
X101724166Y-56941809D02*
X101652737Y-56965619D01*
X101652737Y-56965619D02*
X101628928Y-56989428D01*
X101176547Y-56941809D02*
X101414642Y-56941809D01*
X101414642Y-56941809D02*
X101438451Y-57179904D01*
X101438451Y-57179904D02*
X101414642Y-57156095D01*
X101414642Y-57156095D02*
X101367023Y-57132285D01*
X101367023Y-57132285D02*
X101247975Y-57132285D01*
X101247975Y-57132285D02*
X101200356Y-57156095D01*
X101200356Y-57156095D02*
X101176547Y-57179904D01*
X101176547Y-57179904D02*
X101152737Y-57227523D01*
X101152737Y-57227523D02*
X101152737Y-57346571D01*
X101152737Y-57346571D02*
X101176547Y-57394190D01*
X101176547Y-57394190D02*
X101200356Y-57418000D01*
X101200356Y-57418000D02*
X101247975Y-57441809D01*
X101247975Y-57441809D02*
X101367023Y-57441809D01*
X101367023Y-57441809D02*
X101414642Y-57418000D01*
X101414642Y-57418000D02*
X101438451Y-57394190D01*
X95266547Y-76419309D02*
X95266547Y-75919309D01*
X95266547Y-75919309D02*
X95147499Y-75919309D01*
X95147499Y-75919309D02*
X95076071Y-75943119D01*
X95076071Y-75943119D02*
X95028452Y-75990738D01*
X95028452Y-75990738D02*
X95004642Y-76038357D01*
X95004642Y-76038357D02*
X94980833Y-76133595D01*
X94980833Y-76133595D02*
X94980833Y-76205023D01*
X94980833Y-76205023D02*
X95004642Y-76300261D01*
X95004642Y-76300261D02*
X95028452Y-76347880D01*
X95028452Y-76347880D02*
X95076071Y-76395500D01*
X95076071Y-76395500D02*
X95147499Y-76419309D01*
X95147499Y-76419309D02*
X95266547Y-76419309D01*
X94504642Y-76419309D02*
X94790356Y-76419309D01*
X94647499Y-76419309D02*
X94647499Y-75919309D01*
X94647499Y-75919309D02*
X94695118Y-75990738D01*
X94695118Y-75990738D02*
X94742737Y-76038357D01*
X94742737Y-76038357D02*
X94790356Y-76062166D01*
D11*
X92474992Y-36935534D02*
X92474992Y-37937306D01*
X92474992Y-37937306D02*
X92541777Y-38137660D01*
X92541777Y-38137660D02*
X92675346Y-38271230D01*
X92675346Y-38271230D02*
X92875701Y-38338014D01*
X92875701Y-38338014D02*
X93009270Y-38338014D01*
X91873929Y-37069104D02*
X91807145Y-37002319D01*
X91807145Y-37002319D02*
X91673575Y-36935534D01*
X91673575Y-36935534D02*
X91339651Y-36935534D01*
X91339651Y-36935534D02*
X91206082Y-37002319D01*
X91206082Y-37002319D02*
X91139297Y-37069104D01*
X91139297Y-37069104D02*
X91072512Y-37202673D01*
X91072512Y-37202673D02*
X91072512Y-37336243D01*
X91072512Y-37336243D02*
X91139297Y-37536597D01*
X91139297Y-37536597D02*
X91940714Y-38338014D01*
X91940714Y-38338014D02*
X91072512Y-38338014D01*
D12*
X103574690Y-60575571D02*
X103598500Y-60551762D01*
X103598500Y-60551762D02*
X103622309Y-60480333D01*
X103622309Y-60480333D02*
X103622309Y-60432714D01*
X103622309Y-60432714D02*
X103598500Y-60361286D01*
X103598500Y-60361286D02*
X103550880Y-60313667D01*
X103550880Y-60313667D02*
X103503261Y-60289857D01*
X103503261Y-60289857D02*
X103408023Y-60266048D01*
X103408023Y-60266048D02*
X103336595Y-60266048D01*
X103336595Y-60266048D02*
X103241357Y-60289857D01*
X103241357Y-60289857D02*
X103193738Y-60313667D01*
X103193738Y-60313667D02*
X103146119Y-60361286D01*
X103146119Y-60361286D02*
X103122309Y-60432714D01*
X103122309Y-60432714D02*
X103122309Y-60480333D01*
X103122309Y-60480333D02*
X103146119Y-60551762D01*
X103146119Y-60551762D02*
X103169928Y-60575571D01*
X103622309Y-61051762D02*
X103622309Y-60766048D01*
X103622309Y-60908905D02*
X103122309Y-60908905D01*
X103122309Y-60908905D02*
X103193738Y-60861286D01*
X103193738Y-60861286D02*
X103241357Y-60813667D01*
X103241357Y-60813667D02*
X103265166Y-60766048D01*
X103622309Y-61289857D02*
X103622309Y-61385095D01*
X103622309Y-61385095D02*
X103598500Y-61432714D01*
X103598500Y-61432714D02*
X103574690Y-61456523D01*
X103574690Y-61456523D02*
X103503261Y-61504142D01*
X103503261Y-61504142D02*
X103408023Y-61527952D01*
X103408023Y-61527952D02*
X103217547Y-61527952D01*
X103217547Y-61527952D02*
X103169928Y-61504142D01*
X103169928Y-61504142D02*
X103146119Y-61480333D01*
X103146119Y-61480333D02*
X103122309Y-61432714D01*
X103122309Y-61432714D02*
X103122309Y-61337476D01*
X103122309Y-61337476D02*
X103146119Y-61289857D01*
X103146119Y-61289857D02*
X103169928Y-61266047D01*
X103169928Y-61266047D02*
X103217547Y-61242238D01*
X103217547Y-61242238D02*
X103336595Y-61242238D01*
X103336595Y-61242238D02*
X103384214Y-61266047D01*
X103384214Y-61266047D02*
X103408023Y-61289857D01*
X103408023Y-61289857D02*
X103431833Y-61337476D01*
X103431833Y-61337476D02*
X103431833Y-61432714D01*
X103431833Y-61432714D02*
X103408023Y-61480333D01*
X103408023Y-61480333D02*
X103384214Y-61504142D01*
X103384214Y-61504142D02*
X103336595Y-61527952D01*
D13*
X103368119Y-51931781D02*
X103368119Y-52550828D01*
X103368119Y-52550828D02*
X103749071Y-52217495D01*
X103749071Y-52217495D02*
X103749071Y-52360352D01*
X103749071Y-52360352D02*
X103796690Y-52455590D01*
X103796690Y-52455590D02*
X103844309Y-52503209D01*
X103844309Y-52503209D02*
X103939547Y-52550828D01*
X103939547Y-52550828D02*
X104177642Y-52550828D01*
X104177642Y-52550828D02*
X104272880Y-52503209D01*
X104272880Y-52503209D02*
X104320500Y-52455590D01*
X104320500Y-52455590D02*
X104368119Y-52360352D01*
X104368119Y-52360352D02*
X104368119Y-52074638D01*
X104368119Y-52074638D02*
X104320500Y-51979400D01*
X104320500Y-51979400D02*
X104272880Y-51931781D01*
X103701452Y-52884162D02*
X104368119Y-53122257D01*
X104368119Y-53122257D02*
X103701452Y-53360352D01*
X103368119Y-53646067D02*
X103368119Y-54265114D01*
X103368119Y-54265114D02*
X103749071Y-53931781D01*
X103749071Y-53931781D02*
X103749071Y-54074638D01*
X103749071Y-54074638D02*
X103796690Y-54169876D01*
X103796690Y-54169876D02*
X103844309Y-54217495D01*
X103844309Y-54217495D02*
X103939547Y-54265114D01*
X103939547Y-54265114D02*
X104177642Y-54265114D01*
X104177642Y-54265114D02*
X104272880Y-54217495D01*
X104272880Y-54217495D02*
X104320500Y-54169876D01*
X104320500Y-54169876D02*
X104368119Y-54074638D01*
X104368119Y-54074638D02*
X104368119Y-53788924D01*
X104368119Y-53788924D02*
X104320500Y-53693686D01*
X104320500Y-53693686D02*
X104272880Y-53646067D01*
X103368119Y-54979400D02*
X104082404Y-54979400D01*
X104082404Y-54979400D02*
X104225261Y-54931781D01*
X104225261Y-54931781D02*
X104320500Y-54836543D01*
X104320500Y-54836543D02*
X104368119Y-54693686D01*
X104368119Y-54693686D02*
X104368119Y-54598448D01*
X104368119Y-55979400D02*
X104368119Y-55407972D01*
X104368119Y-55693686D02*
X103368119Y-55693686D01*
X103368119Y-55693686D02*
X103510976Y-55598448D01*
X103510976Y-55598448D02*
X103606214Y-55503210D01*
X103606214Y-55503210D02*
X103653833Y-55407972D01*
D11*
X82872319Y-74893666D02*
X83586604Y-74893666D01*
X83586604Y-74893666D02*
X83729461Y-74846047D01*
X83729461Y-74846047D02*
X83824700Y-74750809D01*
X83824700Y-74750809D02*
X83872319Y-74607952D01*
X83872319Y-74607952D02*
X83872319Y-74512714D01*
X83872319Y-75369857D02*
X82872319Y-75369857D01*
X82872319Y-75369857D02*
X82872319Y-75750809D01*
X82872319Y-75750809D02*
X82919938Y-75846047D01*
X82919938Y-75846047D02*
X82967557Y-75893666D01*
X82967557Y-75893666D02*
X83062795Y-75941285D01*
X83062795Y-75941285D02*
X83205652Y-75941285D01*
X83205652Y-75941285D02*
X83300890Y-75893666D01*
X83300890Y-75893666D02*
X83348509Y-75846047D01*
X83348509Y-75846047D02*
X83396128Y-75750809D01*
X83396128Y-75750809D02*
X83396128Y-75369857D01*
X82967557Y-76322238D02*
X82919938Y-76369857D01*
X82919938Y-76369857D02*
X82872319Y-76465095D01*
X82872319Y-76465095D02*
X82872319Y-76703190D01*
X82872319Y-76703190D02*
X82919938Y-76798428D01*
X82919938Y-76798428D02*
X82967557Y-76846047D01*
X82967557Y-76846047D02*
X83062795Y-76893666D01*
X83062795Y-76893666D02*
X83158033Y-76893666D01*
X83158033Y-76893666D02*
X83300890Y-76846047D01*
X83300890Y-76846047D02*
X83872319Y-76274619D01*
X83872319Y-76274619D02*
X83872319Y-76893666D01*
D12*
X93982309Y-74665571D02*
X93744214Y-74498905D01*
X93982309Y-74379857D02*
X93482309Y-74379857D01*
X93482309Y-74379857D02*
X93482309Y-74570333D01*
X93482309Y-74570333D02*
X93506119Y-74617952D01*
X93506119Y-74617952D02*
X93529928Y-74641762D01*
X93529928Y-74641762D02*
X93577547Y-74665571D01*
X93577547Y-74665571D02*
X93648976Y-74665571D01*
X93648976Y-74665571D02*
X93696595Y-74641762D01*
X93696595Y-74641762D02*
X93720404Y-74617952D01*
X93720404Y-74617952D02*
X93744214Y-74570333D01*
X93744214Y-74570333D02*
X93744214Y-74379857D01*
X93982309Y-75141762D02*
X93982309Y-74856048D01*
X93982309Y-74998905D02*
X93482309Y-74998905D01*
X93482309Y-74998905D02*
X93553738Y-74951286D01*
X93553738Y-74951286D02*
X93601357Y-74903667D01*
X93601357Y-74903667D02*
X93625166Y-74856048D01*
X93482309Y-75570333D02*
X93482309Y-75475095D01*
X93482309Y-75475095D02*
X93506119Y-75427476D01*
X93506119Y-75427476D02*
X93529928Y-75403666D01*
X93529928Y-75403666D02*
X93601357Y-75356047D01*
X93601357Y-75356047D02*
X93696595Y-75332238D01*
X93696595Y-75332238D02*
X93887071Y-75332238D01*
X93887071Y-75332238D02*
X93934690Y-75356047D01*
X93934690Y-75356047D02*
X93958500Y-75379857D01*
X93958500Y-75379857D02*
X93982309Y-75427476D01*
X93982309Y-75427476D02*
X93982309Y-75522714D01*
X93982309Y-75522714D02*
X93958500Y-75570333D01*
X93958500Y-75570333D02*
X93934690Y-75594142D01*
X93934690Y-75594142D02*
X93887071Y-75617952D01*
X93887071Y-75617952D02*
X93768023Y-75617952D01*
X93768023Y-75617952D02*
X93720404Y-75594142D01*
X93720404Y-75594142D02*
X93696595Y-75570333D01*
X93696595Y-75570333D02*
X93672785Y-75522714D01*
X93672785Y-75522714D02*
X93672785Y-75427476D01*
X93672785Y-75427476D02*
X93696595Y-75379857D01*
X93696595Y-75379857D02*
X93720404Y-75356047D01*
X93720404Y-75356047D02*
X93768023Y-75332238D01*
D11*
X68784466Y-58826846D02*
X69141609Y-59445436D01*
X69141609Y-59445436D02*
X69254277Y-59545344D01*
X69254277Y-59545344D02*
X69384374Y-59580204D01*
X69384374Y-59580204D02*
X69531902Y-59550014D01*
X69531902Y-59550014D02*
X69614380Y-59502395D01*
X68872073Y-59930967D02*
X68372073Y-59064942D01*
X68372073Y-59064942D02*
X68042158Y-59255418D01*
X68042158Y-59255418D02*
X67983489Y-59344276D01*
X67983489Y-59344276D02*
X67966059Y-59409325D01*
X67966059Y-59409325D02*
X67972439Y-59515613D01*
X67972439Y-59515613D02*
X68043868Y-59639331D01*
X68043868Y-59639331D02*
X68132726Y-59698000D01*
X68132726Y-59698000D02*
X68197775Y-59715430D01*
X68197775Y-59715430D02*
X68304063Y-59709050D01*
X68304063Y-59709050D02*
X68633977Y-59518574D01*
X67301560Y-60067902D02*
X67634894Y-60645253D01*
X67317281Y-59618940D02*
X67880620Y-60118482D01*
X67880620Y-60118482D02*
X67344509Y-60428006D01*
D12*
X97844690Y-68695571D02*
X97868500Y-68671762D01*
X97868500Y-68671762D02*
X97892309Y-68600333D01*
X97892309Y-68600333D02*
X97892309Y-68552714D01*
X97892309Y-68552714D02*
X97868500Y-68481286D01*
X97868500Y-68481286D02*
X97820880Y-68433667D01*
X97820880Y-68433667D02*
X97773261Y-68409857D01*
X97773261Y-68409857D02*
X97678023Y-68386048D01*
X97678023Y-68386048D02*
X97606595Y-68386048D01*
X97606595Y-68386048D02*
X97511357Y-68409857D01*
X97511357Y-68409857D02*
X97463738Y-68433667D01*
X97463738Y-68433667D02*
X97416119Y-68481286D01*
X97416119Y-68481286D02*
X97392309Y-68552714D01*
X97392309Y-68552714D02*
X97392309Y-68600333D01*
X97392309Y-68600333D02*
X97416119Y-68671762D01*
X97416119Y-68671762D02*
X97439928Y-68695571D01*
X97892309Y-69171762D02*
X97892309Y-68886048D01*
X97892309Y-69028905D02*
X97392309Y-69028905D01*
X97392309Y-69028905D02*
X97463738Y-68981286D01*
X97463738Y-68981286D02*
X97511357Y-68933667D01*
X97511357Y-68933667D02*
X97535166Y-68886048D01*
X97392309Y-69600333D02*
X97392309Y-69505095D01*
X97392309Y-69505095D02*
X97416119Y-69457476D01*
X97416119Y-69457476D02*
X97439928Y-69433666D01*
X97439928Y-69433666D02*
X97511357Y-69386047D01*
X97511357Y-69386047D02*
X97606595Y-69362238D01*
X97606595Y-69362238D02*
X97797071Y-69362238D01*
X97797071Y-69362238D02*
X97844690Y-69386047D01*
X97844690Y-69386047D02*
X97868500Y-69409857D01*
X97868500Y-69409857D02*
X97892309Y-69457476D01*
X97892309Y-69457476D02*
X97892309Y-69552714D01*
X97892309Y-69552714D02*
X97868500Y-69600333D01*
X97868500Y-69600333D02*
X97844690Y-69624142D01*
X97844690Y-69624142D02*
X97797071Y-69647952D01*
X97797071Y-69647952D02*
X97678023Y-69647952D01*
X97678023Y-69647952D02*
X97630404Y-69624142D01*
X97630404Y-69624142D02*
X97606595Y-69600333D01*
X97606595Y-69600333D02*
X97582785Y-69552714D01*
X97582785Y-69552714D02*
X97582785Y-69457476D01*
X97582785Y-69457476D02*
X97606595Y-69409857D01*
X97606595Y-69409857D02*
X97630404Y-69386047D01*
X97630404Y-69386047D02*
X97678023Y-69362238D01*
X96542309Y-72593071D02*
X96304214Y-72426405D01*
X96542309Y-72307357D02*
X96042309Y-72307357D01*
X96042309Y-72307357D02*
X96042309Y-72497833D01*
X96042309Y-72497833D02*
X96066119Y-72545452D01*
X96066119Y-72545452D02*
X96089928Y-72569262D01*
X96089928Y-72569262D02*
X96137547Y-72593071D01*
X96137547Y-72593071D02*
X96208976Y-72593071D01*
X96208976Y-72593071D02*
X96256595Y-72569262D01*
X96256595Y-72569262D02*
X96280404Y-72545452D01*
X96280404Y-72545452D02*
X96304214Y-72497833D01*
X96304214Y-72497833D02*
X96304214Y-72307357D01*
X96542309Y-73069262D02*
X96542309Y-72783548D01*
X96542309Y-72926405D02*
X96042309Y-72926405D01*
X96042309Y-72926405D02*
X96113738Y-72878786D01*
X96113738Y-72878786D02*
X96161357Y-72831167D01*
X96161357Y-72831167D02*
X96185166Y-72783548D01*
X96542309Y-73545452D02*
X96542309Y-73259738D01*
X96542309Y-73402595D02*
X96042309Y-73402595D01*
X96042309Y-73402595D02*
X96113738Y-73354976D01*
X96113738Y-73354976D02*
X96161357Y-73307357D01*
X96161357Y-73307357D02*
X96185166Y-73259738D01*
X72616014Y-61738619D02*
X72648539Y-61747334D01*
X72648539Y-61747334D02*
X72722302Y-61732240D01*
X72722302Y-61732240D02*
X72763542Y-61708430D01*
X72763542Y-61708430D02*
X72813496Y-61652096D01*
X72813496Y-61652096D02*
X72830926Y-61587047D01*
X72830926Y-61587047D02*
X72827736Y-61533903D01*
X72827736Y-61533903D02*
X72800736Y-61439520D01*
X72800736Y-61439520D02*
X72765022Y-61377661D01*
X72765022Y-61377661D02*
X72696783Y-61307087D01*
X72696783Y-61307087D02*
X72652354Y-61277753D01*
X72652354Y-61277753D02*
X72587305Y-61260323D01*
X72587305Y-61260323D02*
X72513542Y-61275417D01*
X72513542Y-61275417D02*
X72472302Y-61299227D01*
X72472302Y-61299227D02*
X72422348Y-61355561D01*
X72422348Y-61355561D02*
X72413633Y-61388085D01*
X72018670Y-61561132D02*
X72101149Y-61513513D01*
X72101149Y-61513513D02*
X72154293Y-61510323D01*
X72154293Y-61510323D02*
X72186817Y-61519038D01*
X72186817Y-61519038D02*
X72263771Y-61557087D01*
X72263771Y-61557087D02*
X72332009Y-61627661D01*
X72332009Y-61627661D02*
X72427248Y-61792618D01*
X72427248Y-61792618D02*
X72430437Y-61845762D01*
X72430437Y-61845762D02*
X72421723Y-61878287D01*
X72421723Y-61878287D02*
X72392388Y-61922716D01*
X72392388Y-61922716D02*
X72309909Y-61970335D01*
X72309909Y-61970335D02*
X72256765Y-61973525D01*
X72256765Y-61973525D02*
X72224241Y-61964810D01*
X72224241Y-61964810D02*
X72179812Y-61935475D01*
X72179812Y-61935475D02*
X72120288Y-61832377D01*
X72120288Y-61832377D02*
X72117098Y-61779233D01*
X72117098Y-61779233D02*
X72125813Y-61746709D01*
X72125813Y-61746709D02*
X72155147Y-61702279D01*
X72155147Y-61702279D02*
X72237626Y-61654660D01*
X72237626Y-61654660D02*
X72290770Y-61651471D01*
X72290770Y-61651471D02*
X72323295Y-61660185D01*
X72323295Y-61660185D02*
X72367724Y-61689520D01*
X74075675Y-64260419D02*
X74108200Y-64269134D01*
X74108200Y-64269134D02*
X74181963Y-64254040D01*
X74181963Y-64254040D02*
X74223203Y-64230230D01*
X74223203Y-64230230D02*
X74273157Y-64173896D01*
X74273157Y-64173896D02*
X74290587Y-64108847D01*
X74290587Y-64108847D02*
X74287397Y-64055703D01*
X74287397Y-64055703D02*
X74260397Y-63961320D01*
X74260397Y-63961320D02*
X74224683Y-63899461D01*
X74224683Y-63899461D02*
X74156444Y-63828887D01*
X74156444Y-63828887D02*
X74112015Y-63799553D01*
X74112015Y-63799553D02*
X74046966Y-63782123D01*
X74046966Y-63782123D02*
X73973203Y-63797217D01*
X73973203Y-63797217D02*
X73931963Y-63821027D01*
X73931963Y-63821027D02*
X73882009Y-63877361D01*
X73882009Y-63877361D02*
X73873294Y-63909885D01*
X73705147Y-63951979D02*
X73416472Y-64118646D01*
X73416472Y-64118646D02*
X73852049Y-64444516D01*
D11*
X90347080Y-63744142D02*
X90394700Y-63696523D01*
X90394700Y-63696523D02*
X90442319Y-63553666D01*
X90442319Y-63553666D02*
X90442319Y-63458428D01*
X90442319Y-63458428D02*
X90394700Y-63315571D01*
X90394700Y-63315571D02*
X90299461Y-63220333D01*
X90299461Y-63220333D02*
X90204223Y-63172714D01*
X90204223Y-63172714D02*
X90013747Y-63125095D01*
X90013747Y-63125095D02*
X89870890Y-63125095D01*
X89870890Y-63125095D02*
X89680414Y-63172714D01*
X89680414Y-63172714D02*
X89585176Y-63220333D01*
X89585176Y-63220333D02*
X89489938Y-63315571D01*
X89489938Y-63315571D02*
X89442319Y-63458428D01*
X89442319Y-63458428D02*
X89442319Y-63553666D01*
X89442319Y-63553666D02*
X89489938Y-63696523D01*
X89489938Y-63696523D02*
X89537557Y-63744142D01*
X90442319Y-64696523D02*
X90442319Y-64125095D01*
X90442319Y-64410809D02*
X89442319Y-64410809D01*
X89442319Y-64410809D02*
X89585176Y-64315571D01*
X89585176Y-64315571D02*
X89680414Y-64220333D01*
X89680414Y-64220333D02*
X89728033Y-64125095D01*
X89775652Y-65553666D02*
X90442319Y-65553666D01*
X89394700Y-65315571D02*
X90108985Y-65077476D01*
X90108985Y-65077476D02*
X90108985Y-65696523D01*
D12*
X77827798Y-60886284D02*
X77860323Y-60894999D01*
X77860323Y-60894999D02*
X77934086Y-60879905D01*
X77934086Y-60879905D02*
X77975326Y-60856095D01*
X77975326Y-60856095D02*
X78025280Y-60799761D01*
X78025280Y-60799761D02*
X78042710Y-60734712D01*
X78042710Y-60734712D02*
X78039520Y-60681568D01*
X78039520Y-60681568D02*
X78012520Y-60587185D01*
X78012520Y-60587185D02*
X77976806Y-60525326D01*
X77976806Y-60525326D02*
X77908567Y-60454752D01*
X77908567Y-60454752D02*
X77864138Y-60425418D01*
X77864138Y-60425418D02*
X77799089Y-60407988D01*
X77799089Y-60407988D02*
X77725326Y-60423082D01*
X77725326Y-60423082D02*
X77684086Y-60446892D01*
X77684086Y-60446892D02*
X77634132Y-60503226D01*
X77634132Y-60503226D02*
X77625417Y-60535750D01*
X77461315Y-60822945D02*
X77490649Y-60778516D01*
X77490649Y-60778516D02*
X77499364Y-60745991D01*
X77499364Y-60745991D02*
X77496174Y-60692847D01*
X77496174Y-60692847D02*
X77484270Y-60672228D01*
X77484270Y-60672228D02*
X77439840Y-60642893D01*
X77439840Y-60642893D02*
X77407316Y-60634178D01*
X77407316Y-60634178D02*
X77354172Y-60637368D01*
X77354172Y-60637368D02*
X77271693Y-60684987D01*
X77271693Y-60684987D02*
X77242359Y-60729416D01*
X77242359Y-60729416D02*
X77233644Y-60761941D01*
X77233644Y-60761941D02*
X77236834Y-60815085D01*
X77236834Y-60815085D02*
X77248739Y-60835705D01*
X77248739Y-60835705D02*
X77293168Y-60865039D01*
X77293168Y-60865039D02*
X77325692Y-60873754D01*
X77325692Y-60873754D02*
X77378836Y-60870564D01*
X77378836Y-60870564D02*
X77461315Y-60822945D01*
X77461315Y-60822945D02*
X77514459Y-60819755D01*
X77514459Y-60819755D02*
X77546983Y-60828470D01*
X77546983Y-60828470D02*
X77591413Y-60857805D01*
X77591413Y-60857805D02*
X77639032Y-60940283D01*
X77639032Y-60940283D02*
X77642221Y-60993427D01*
X77642221Y-60993427D02*
X77633507Y-61025952D01*
X77633507Y-61025952D02*
X77604172Y-61070381D01*
X77604172Y-61070381D02*
X77521693Y-61118000D01*
X77521693Y-61118000D02*
X77468549Y-61121190D01*
X77468549Y-61121190D02*
X77436025Y-61112475D01*
X77436025Y-61112475D02*
X77391596Y-61083140D01*
X77391596Y-61083140D02*
X77343977Y-61000662D01*
X77343977Y-61000662D02*
X77340787Y-60947518D01*
X77340787Y-60947518D02*
X77349502Y-60914993D01*
X77349502Y-60914993D02*
X77378836Y-60870564D01*
X69744894Y-66095851D02*
X69394360Y-66298232D01*
X69394360Y-66298232D02*
X69341215Y-66301422D01*
X69341215Y-66301422D02*
X69308691Y-66292707D01*
X69308691Y-66292707D02*
X69264262Y-66263372D01*
X69264262Y-66263372D02*
X69216643Y-66180893D01*
X69216643Y-66180893D02*
X69213453Y-66127749D01*
X69213453Y-66127749D02*
X69222168Y-66095225D01*
X69222168Y-66095225D02*
X69251502Y-66050796D01*
X69251502Y-66050796D02*
X69602036Y-65848415D01*
X68919024Y-65665402D02*
X69061881Y-65912838D01*
X68990452Y-65789120D02*
X69423465Y-65539120D01*
X69423465Y-65539120D02*
X69385415Y-65616073D01*
X69385415Y-65616073D02*
X69367986Y-65681122D01*
X69367986Y-65681122D02*
X69371175Y-65734266D01*
X87203333Y-50091809D02*
X87369999Y-49853714D01*
X87489047Y-50091809D02*
X87489047Y-49591809D01*
X87489047Y-49591809D02*
X87298571Y-49591809D01*
X87298571Y-49591809D02*
X87250952Y-49615619D01*
X87250952Y-49615619D02*
X87227142Y-49639428D01*
X87227142Y-49639428D02*
X87203333Y-49687047D01*
X87203333Y-49687047D02*
X87203333Y-49758476D01*
X87203333Y-49758476D02*
X87227142Y-49806095D01*
X87227142Y-49806095D02*
X87250952Y-49829904D01*
X87250952Y-49829904D02*
X87298571Y-49853714D01*
X87298571Y-49853714D02*
X87489047Y-49853714D01*
X86965237Y-50091809D02*
X86869999Y-50091809D01*
X86869999Y-50091809D02*
X86822380Y-50068000D01*
X86822380Y-50068000D02*
X86798571Y-50044190D01*
X86798571Y-50044190D02*
X86750952Y-49972761D01*
X86750952Y-49972761D02*
X86727142Y-49877523D01*
X86727142Y-49877523D02*
X86727142Y-49687047D01*
X86727142Y-49687047D02*
X86750952Y-49639428D01*
X86750952Y-49639428D02*
X86774761Y-49615619D01*
X86774761Y-49615619D02*
X86822380Y-49591809D01*
X86822380Y-49591809D02*
X86917618Y-49591809D01*
X86917618Y-49591809D02*
X86965237Y-49615619D01*
X86965237Y-49615619D02*
X86989047Y-49639428D01*
X86989047Y-49639428D02*
X87012856Y-49687047D01*
X87012856Y-49687047D02*
X87012856Y-49806095D01*
X87012856Y-49806095D02*
X86989047Y-49853714D01*
X86989047Y-49853714D02*
X86965237Y-49877523D01*
X86965237Y-49877523D02*
X86917618Y-49901333D01*
X86917618Y-49901333D02*
X86822380Y-49901333D01*
X86822380Y-49901333D02*
X86774761Y-49877523D01*
X86774761Y-49877523D02*
X86750952Y-49853714D01*
X86750952Y-49853714D02*
X86727142Y-49806095D01*
X104502309Y-51331047D02*
X104002309Y-51331047D01*
X104002309Y-51331047D02*
X104502309Y-51616761D01*
X104502309Y-51616761D02*
X104002309Y-51616761D01*
X104454690Y-52140571D02*
X104478500Y-52116762D01*
X104478500Y-52116762D02*
X104502309Y-52045333D01*
X104502309Y-52045333D02*
X104502309Y-51997714D01*
X104502309Y-51997714D02*
X104478500Y-51926286D01*
X104478500Y-51926286D02*
X104430880Y-51878667D01*
X104430880Y-51878667D02*
X104383261Y-51854857D01*
X104383261Y-51854857D02*
X104288023Y-51831048D01*
X104288023Y-51831048D02*
X104216595Y-51831048D01*
X104216595Y-51831048D02*
X104121357Y-51854857D01*
X104121357Y-51854857D02*
X104073738Y-51878667D01*
X104073738Y-51878667D02*
X104026119Y-51926286D01*
X104026119Y-51926286D02*
X104002309Y-51997714D01*
X104002309Y-51997714D02*
X104002309Y-52045333D01*
X104002309Y-52045333D02*
X104026119Y-52116762D01*
X104026119Y-52116762D02*
X104049928Y-52140571D01*
X104502309Y-52616762D02*
X104502309Y-52331048D01*
X104502309Y-52473905D02*
X104002309Y-52473905D01*
X104002309Y-52473905D02*
X104073738Y-52426286D01*
X104073738Y-52426286D02*
X104121357Y-52378667D01*
X104121357Y-52378667D02*
X104145166Y-52331048D01*
X96214690Y-68705571D02*
X96238500Y-68681762D01*
X96238500Y-68681762D02*
X96262309Y-68610333D01*
X96262309Y-68610333D02*
X96262309Y-68562714D01*
X96262309Y-68562714D02*
X96238500Y-68491286D01*
X96238500Y-68491286D02*
X96190880Y-68443667D01*
X96190880Y-68443667D02*
X96143261Y-68419857D01*
X96143261Y-68419857D02*
X96048023Y-68396048D01*
X96048023Y-68396048D02*
X95976595Y-68396048D01*
X95976595Y-68396048D02*
X95881357Y-68419857D01*
X95881357Y-68419857D02*
X95833738Y-68443667D01*
X95833738Y-68443667D02*
X95786119Y-68491286D01*
X95786119Y-68491286D02*
X95762309Y-68562714D01*
X95762309Y-68562714D02*
X95762309Y-68610333D01*
X95762309Y-68610333D02*
X95786119Y-68681762D01*
X95786119Y-68681762D02*
X95809928Y-68705571D01*
X96262309Y-69181762D02*
X96262309Y-68896048D01*
X96262309Y-69038905D02*
X95762309Y-69038905D01*
X95762309Y-69038905D02*
X95833738Y-68991286D01*
X95833738Y-68991286D02*
X95881357Y-68943667D01*
X95881357Y-68943667D02*
X95905166Y-68896048D01*
X95762309Y-69634142D02*
X95762309Y-69396047D01*
X95762309Y-69396047D02*
X96000404Y-69372238D01*
X96000404Y-69372238D02*
X95976595Y-69396047D01*
X95976595Y-69396047D02*
X95952785Y-69443666D01*
X95952785Y-69443666D02*
X95952785Y-69562714D01*
X95952785Y-69562714D02*
X95976595Y-69610333D01*
X95976595Y-69610333D02*
X96000404Y-69634142D01*
X96000404Y-69634142D02*
X96048023Y-69657952D01*
X96048023Y-69657952D02*
X96167071Y-69657952D01*
X96167071Y-69657952D02*
X96214690Y-69634142D01*
X96214690Y-69634142D02*
X96238500Y-69610333D01*
X96238500Y-69610333D02*
X96262309Y-69562714D01*
X96262309Y-69562714D02*
X96262309Y-69443666D01*
X96262309Y-69443666D02*
X96238500Y-69396047D01*
X96238500Y-69396047D02*
X96214690Y-69372238D01*
X96348452Y-66921809D02*
X96348452Y-67326571D01*
X96348452Y-67326571D02*
X96324642Y-67374190D01*
X96324642Y-67374190D02*
X96300833Y-67398000D01*
X96300833Y-67398000D02*
X96253214Y-67421809D01*
X96253214Y-67421809D02*
X96157976Y-67421809D01*
X96157976Y-67421809D02*
X96110357Y-67398000D01*
X96110357Y-67398000D02*
X96086547Y-67374190D01*
X96086547Y-67374190D02*
X96062738Y-67326571D01*
X96062738Y-67326571D02*
X96062738Y-66921809D01*
X95586547Y-66921809D02*
X95824642Y-66921809D01*
X95824642Y-66921809D02*
X95848451Y-67159904D01*
X95848451Y-67159904D02*
X95824642Y-67136095D01*
X95824642Y-67136095D02*
X95777023Y-67112285D01*
X95777023Y-67112285D02*
X95657975Y-67112285D01*
X95657975Y-67112285D02*
X95610356Y-67136095D01*
X95610356Y-67136095D02*
X95586547Y-67159904D01*
X95586547Y-67159904D02*
X95562737Y-67207523D01*
X95562737Y-67207523D02*
X95562737Y-67326571D01*
X95562737Y-67326571D02*
X95586547Y-67374190D01*
X95586547Y-67374190D02*
X95610356Y-67398000D01*
X95610356Y-67398000D02*
X95657975Y-67421809D01*
X95657975Y-67421809D02*
X95777023Y-67421809D01*
X95777023Y-67421809D02*
X95824642Y-67398000D01*
X95824642Y-67398000D02*
X95848451Y-67374190D01*
X75571589Y-73319637D02*
X75448726Y-73056252D01*
X75714446Y-73072202D02*
X75281434Y-72822202D01*
X75281434Y-72822202D02*
X75186196Y-72987159D01*
X75186196Y-72987159D02*
X75183006Y-73040303D01*
X75183006Y-73040303D02*
X75191721Y-73072827D01*
X75191721Y-73072827D02*
X75221055Y-73117256D01*
X75221055Y-73117256D02*
X75282914Y-73152971D01*
X75282914Y-73152971D02*
X75336058Y-73156161D01*
X75336058Y-73156161D02*
X75368583Y-73147446D01*
X75368583Y-73147446D02*
X75413012Y-73118111D01*
X75413012Y-73118111D02*
X75508250Y-72953154D01*
X75333494Y-73732030D02*
X75476351Y-73484595D01*
X75404923Y-73608313D02*
X74971910Y-73358313D01*
X74971910Y-73358313D02*
X75057578Y-73352787D01*
X75057578Y-73352787D02*
X75122627Y-73335358D01*
X75122627Y-73335358D02*
X75167056Y-73306023D01*
X74817148Y-73626368D02*
X74662386Y-73894423D01*
X74662386Y-73894423D02*
X74910677Y-73845324D01*
X74910677Y-73845324D02*
X74874963Y-73907183D01*
X74874963Y-73907183D02*
X74871773Y-73960327D01*
X74871773Y-73960327D02*
X74880488Y-73992851D01*
X74880488Y-73992851D02*
X74909822Y-74037280D01*
X74909822Y-74037280D02*
X75012920Y-74096804D01*
X75012920Y-74096804D02*
X75066065Y-74099994D01*
X75066065Y-74099994D02*
X75098589Y-74091279D01*
X75098589Y-74091279D02*
X75143018Y-74061944D01*
X75143018Y-74061944D02*
X75214447Y-73938227D01*
X75214447Y-73938227D02*
X75217637Y-73885082D01*
X75217637Y-73885082D02*
X75208922Y-73852558D01*
X96056428Y-60374190D02*
X96080237Y-60398000D01*
X96080237Y-60398000D02*
X96151666Y-60421809D01*
X96151666Y-60421809D02*
X96199285Y-60421809D01*
X96199285Y-60421809D02*
X96270713Y-60398000D01*
X96270713Y-60398000D02*
X96318332Y-60350380D01*
X96318332Y-60350380D02*
X96342142Y-60302761D01*
X96342142Y-60302761D02*
X96365951Y-60207523D01*
X96365951Y-60207523D02*
X96365951Y-60136095D01*
X96365951Y-60136095D02*
X96342142Y-60040857D01*
X96342142Y-60040857D02*
X96318332Y-59993238D01*
X96318332Y-59993238D02*
X96270713Y-59945619D01*
X96270713Y-59945619D02*
X96199285Y-59921809D01*
X96199285Y-59921809D02*
X96151666Y-59921809D01*
X96151666Y-59921809D02*
X96080237Y-59945619D01*
X96080237Y-59945619D02*
X96056428Y-59969428D01*
X95580237Y-60421809D02*
X95865951Y-60421809D01*
X95723094Y-60421809D02*
X95723094Y-59921809D01*
X95723094Y-59921809D02*
X95770713Y-59993238D01*
X95770713Y-59993238D02*
X95818332Y-60040857D01*
X95818332Y-60040857D02*
X95865951Y-60064666D01*
X95294523Y-60136095D02*
X95342142Y-60112285D01*
X95342142Y-60112285D02*
X95365952Y-60088476D01*
X95365952Y-60088476D02*
X95389761Y-60040857D01*
X95389761Y-60040857D02*
X95389761Y-60017047D01*
X95389761Y-60017047D02*
X95365952Y-59969428D01*
X95365952Y-59969428D02*
X95342142Y-59945619D01*
X95342142Y-59945619D02*
X95294523Y-59921809D01*
X95294523Y-59921809D02*
X95199285Y-59921809D01*
X95199285Y-59921809D02*
X95151666Y-59945619D01*
X95151666Y-59945619D02*
X95127857Y-59969428D01*
X95127857Y-59969428D02*
X95104047Y-60017047D01*
X95104047Y-60017047D02*
X95104047Y-60040857D01*
X95104047Y-60040857D02*
X95127857Y-60088476D01*
X95127857Y-60088476D02*
X95151666Y-60112285D01*
X95151666Y-60112285D02*
X95199285Y-60136095D01*
X95199285Y-60136095D02*
X95294523Y-60136095D01*
X95294523Y-60136095D02*
X95342142Y-60159904D01*
X95342142Y-60159904D02*
X95365952Y-60183714D01*
X95365952Y-60183714D02*
X95389761Y-60231333D01*
X95389761Y-60231333D02*
X95389761Y-60326571D01*
X95389761Y-60326571D02*
X95365952Y-60374190D01*
X95365952Y-60374190D02*
X95342142Y-60398000D01*
X95342142Y-60398000D02*
X95294523Y-60421809D01*
X95294523Y-60421809D02*
X95199285Y-60421809D01*
X95199285Y-60421809D02*
X95151666Y-60398000D01*
X95151666Y-60398000D02*
X95127857Y-60374190D01*
X95127857Y-60374190D02*
X95104047Y-60326571D01*
X95104047Y-60326571D02*
X95104047Y-60231333D01*
X95104047Y-60231333D02*
X95127857Y-60183714D01*
X95127857Y-60183714D02*
X95151666Y-60159904D01*
X95151666Y-60159904D02*
X95199285Y-60136095D01*
X106364690Y-65455571D02*
X106388500Y-65431762D01*
X106388500Y-65431762D02*
X106412309Y-65360333D01*
X106412309Y-65360333D02*
X106412309Y-65312714D01*
X106412309Y-65312714D02*
X106388500Y-65241286D01*
X106388500Y-65241286D02*
X106340880Y-65193667D01*
X106340880Y-65193667D02*
X106293261Y-65169857D01*
X106293261Y-65169857D02*
X106198023Y-65146048D01*
X106198023Y-65146048D02*
X106126595Y-65146048D01*
X106126595Y-65146048D02*
X106031357Y-65169857D01*
X106031357Y-65169857D02*
X105983738Y-65193667D01*
X105983738Y-65193667D02*
X105936119Y-65241286D01*
X105936119Y-65241286D02*
X105912309Y-65312714D01*
X105912309Y-65312714D02*
X105912309Y-65360333D01*
X105912309Y-65360333D02*
X105936119Y-65431762D01*
X105936119Y-65431762D02*
X105959928Y-65455571D01*
X105959928Y-65646048D02*
X105936119Y-65669857D01*
X105936119Y-65669857D02*
X105912309Y-65717476D01*
X105912309Y-65717476D02*
X105912309Y-65836524D01*
X105912309Y-65836524D02*
X105936119Y-65884143D01*
X105936119Y-65884143D02*
X105959928Y-65907952D01*
X105959928Y-65907952D02*
X106007547Y-65931762D01*
X106007547Y-65931762D02*
X106055166Y-65931762D01*
X106055166Y-65931762D02*
X106126595Y-65907952D01*
X106126595Y-65907952D02*
X106412309Y-65622238D01*
X106412309Y-65622238D02*
X106412309Y-65931762D01*
X105959928Y-66122238D02*
X105936119Y-66146047D01*
X105936119Y-66146047D02*
X105912309Y-66193666D01*
X105912309Y-66193666D02*
X105912309Y-66312714D01*
X105912309Y-66312714D02*
X105936119Y-66360333D01*
X105936119Y-66360333D02*
X105959928Y-66384142D01*
X105959928Y-66384142D02*
X106007547Y-66407952D01*
X106007547Y-66407952D02*
X106055166Y-66407952D01*
X106055166Y-66407952D02*
X106126595Y-66384142D01*
X106126595Y-66384142D02*
X106412309Y-66098428D01*
X106412309Y-66098428D02*
X106412309Y-66407952D01*
X116100833Y-59561809D02*
X116267499Y-59323714D01*
X116386547Y-59561809D02*
X116386547Y-59061809D01*
X116386547Y-59061809D02*
X116196071Y-59061809D01*
X116196071Y-59061809D02*
X116148452Y-59085619D01*
X116148452Y-59085619D02*
X116124642Y-59109428D01*
X116124642Y-59109428D02*
X116100833Y-59157047D01*
X116100833Y-59157047D02*
X116100833Y-59228476D01*
X116100833Y-59228476D02*
X116124642Y-59276095D01*
X116124642Y-59276095D02*
X116148452Y-59299904D01*
X116148452Y-59299904D02*
X116196071Y-59323714D01*
X116196071Y-59323714D02*
X116386547Y-59323714D01*
X115815118Y-59276095D02*
X115862737Y-59252285D01*
X115862737Y-59252285D02*
X115886547Y-59228476D01*
X115886547Y-59228476D02*
X115910356Y-59180857D01*
X115910356Y-59180857D02*
X115910356Y-59157047D01*
X115910356Y-59157047D02*
X115886547Y-59109428D01*
X115886547Y-59109428D02*
X115862737Y-59085619D01*
X115862737Y-59085619D02*
X115815118Y-59061809D01*
X115815118Y-59061809D02*
X115719880Y-59061809D01*
X115719880Y-59061809D02*
X115672261Y-59085619D01*
X115672261Y-59085619D02*
X115648452Y-59109428D01*
X115648452Y-59109428D02*
X115624642Y-59157047D01*
X115624642Y-59157047D02*
X115624642Y-59180857D01*
X115624642Y-59180857D02*
X115648452Y-59228476D01*
X115648452Y-59228476D02*
X115672261Y-59252285D01*
X115672261Y-59252285D02*
X115719880Y-59276095D01*
X115719880Y-59276095D02*
X115815118Y-59276095D01*
X115815118Y-59276095D02*
X115862737Y-59299904D01*
X115862737Y-59299904D02*
X115886547Y-59323714D01*
X115886547Y-59323714D02*
X115910356Y-59371333D01*
X115910356Y-59371333D02*
X115910356Y-59466571D01*
X115910356Y-59466571D02*
X115886547Y-59514190D01*
X115886547Y-59514190D02*
X115862737Y-59538000D01*
X115862737Y-59538000D02*
X115815118Y-59561809D01*
X115815118Y-59561809D02*
X115719880Y-59561809D01*
X115719880Y-59561809D02*
X115672261Y-59538000D01*
X115672261Y-59538000D02*
X115648452Y-59514190D01*
X115648452Y-59514190D02*
X115624642Y-59466571D01*
X115624642Y-59466571D02*
X115624642Y-59371333D01*
X115624642Y-59371333D02*
X115648452Y-59323714D01*
X115648452Y-59323714D02*
X115672261Y-59299904D01*
X115672261Y-59299904D02*
X115719880Y-59276095D01*
D11*
X78124923Y-73630059D02*
X78189972Y-73612630D01*
X78189972Y-73612630D02*
X78302640Y-73512721D01*
X78302640Y-73512721D02*
X78350259Y-73430243D01*
X78350259Y-73430243D02*
X78380448Y-73282715D01*
X78380448Y-73282715D02*
X78345589Y-73152617D01*
X78345589Y-73152617D02*
X78286920Y-73063759D01*
X78286920Y-73063759D02*
X78145772Y-72927282D01*
X78145772Y-72927282D02*
X78022054Y-72855853D01*
X78022054Y-72855853D02*
X77833287Y-72801854D01*
X77833287Y-72801854D02*
X77726999Y-72795475D01*
X77726999Y-72795475D02*
X77596902Y-72830334D01*
X77596902Y-72830334D02*
X77484234Y-72930243D01*
X77484234Y-72930243D02*
X77436615Y-73012721D01*
X77436615Y-73012721D02*
X77406425Y-73160249D01*
X77406425Y-73160249D02*
X77423855Y-73225297D01*
X77233379Y-73555212D02*
X77168330Y-73572642D01*
X77168330Y-73572642D02*
X77079472Y-73631311D01*
X77079472Y-73631311D02*
X76960424Y-73837507D01*
X76960424Y-73837507D02*
X76954044Y-73943795D01*
X76954044Y-73943795D02*
X76971474Y-74008844D01*
X76971474Y-74008844D02*
X77030143Y-74097703D01*
X77030143Y-74097703D02*
X77112622Y-74145322D01*
X77112622Y-74145322D02*
X77260149Y-74175511D01*
X77260149Y-74175511D02*
X78040735Y-73966354D01*
X78040735Y-73966354D02*
X77731211Y-74502464D01*
X76950625Y-74711622D02*
X76957005Y-74605334D01*
X76957005Y-74605334D02*
X76939575Y-74540285D01*
X76939575Y-74540285D02*
X76880906Y-74451427D01*
X76880906Y-74451427D02*
X76839667Y-74427617D01*
X76839667Y-74427617D02*
X76733379Y-74421237D01*
X76733379Y-74421237D02*
X76668330Y-74438667D01*
X76668330Y-74438667D02*
X76579472Y-74497336D01*
X76579472Y-74497336D02*
X76484234Y-74662293D01*
X76484234Y-74662293D02*
X76477854Y-74768582D01*
X76477854Y-74768582D02*
X76495284Y-74833630D01*
X76495284Y-74833630D02*
X76553953Y-74922489D01*
X76553953Y-74922489D02*
X76595192Y-74946298D01*
X76595192Y-74946298D02*
X76701480Y-74952678D01*
X76701480Y-74952678D02*
X76766529Y-74935248D01*
X76766529Y-74935248D02*
X76855387Y-74876579D01*
X76855387Y-74876579D02*
X76950625Y-74711622D01*
X76950625Y-74711622D02*
X77039484Y-74652953D01*
X77039484Y-74652953D02*
X77104533Y-74635523D01*
X77104533Y-74635523D02*
X77210821Y-74641903D01*
X77210821Y-74641903D02*
X77375778Y-74737141D01*
X77375778Y-74737141D02*
X77434447Y-74825999D01*
X77434447Y-74825999D02*
X77451877Y-74891048D01*
X77451877Y-74891048D02*
X77445497Y-74997336D01*
X77445497Y-74997336D02*
X77350259Y-75162293D01*
X77350259Y-75162293D02*
X77261401Y-75220962D01*
X77261401Y-75220962D02*
X77196352Y-75238392D01*
X77196352Y-75238392D02*
X77090064Y-75232013D01*
X77090064Y-75232013D02*
X76925107Y-75136774D01*
X76925107Y-75136774D02*
X76866437Y-75047916D01*
X76866437Y-75047916D02*
X76849008Y-74982867D01*
X76849008Y-74982867D02*
X76855387Y-74876579D01*
D12*
X102180833Y-63471809D02*
X102418928Y-63471809D01*
X102418928Y-63471809D02*
X102418928Y-62971809D01*
X101752261Y-63471809D02*
X102037975Y-63471809D01*
X101895118Y-63471809D02*
X101895118Y-62971809D01*
X101895118Y-62971809D02*
X101942737Y-63043238D01*
X101942737Y-63043238D02*
X101990356Y-63090857D01*
X101990356Y-63090857D02*
X102037975Y-63114666D01*
X99314690Y-68693071D02*
X99338500Y-68669262D01*
X99338500Y-68669262D02*
X99362309Y-68597833D01*
X99362309Y-68597833D02*
X99362309Y-68550214D01*
X99362309Y-68550214D02*
X99338500Y-68478786D01*
X99338500Y-68478786D02*
X99290880Y-68431167D01*
X99290880Y-68431167D02*
X99243261Y-68407357D01*
X99243261Y-68407357D02*
X99148023Y-68383548D01*
X99148023Y-68383548D02*
X99076595Y-68383548D01*
X99076595Y-68383548D02*
X98981357Y-68407357D01*
X98981357Y-68407357D02*
X98933738Y-68431167D01*
X98933738Y-68431167D02*
X98886119Y-68478786D01*
X98886119Y-68478786D02*
X98862309Y-68550214D01*
X98862309Y-68550214D02*
X98862309Y-68597833D01*
X98862309Y-68597833D02*
X98886119Y-68669262D01*
X98886119Y-68669262D02*
X98909928Y-68693071D01*
X99362309Y-69169262D02*
X99362309Y-68883548D01*
X99362309Y-69026405D02*
X98862309Y-69026405D01*
X98862309Y-69026405D02*
X98933738Y-68978786D01*
X98933738Y-68978786D02*
X98981357Y-68931167D01*
X98981357Y-68931167D02*
X99005166Y-68883548D01*
X98862309Y-69335928D02*
X98862309Y-69669261D01*
X98862309Y-69669261D02*
X99362309Y-69454976D01*
D13*
X99343841Y-73195073D02*
X99411185Y-73060386D01*
X99411185Y-73060386D02*
X99411185Y-72993043D01*
X99411185Y-72993043D02*
X99377513Y-72892027D01*
X99377513Y-72892027D02*
X99276498Y-72791012D01*
X99276498Y-72791012D02*
X99175482Y-72757340D01*
X99175482Y-72757340D02*
X99108139Y-72757340D01*
X99108139Y-72757340D02*
X99007124Y-72791012D01*
X99007124Y-72791012D02*
X98737750Y-73060386D01*
X98737750Y-73060386D02*
X99444856Y-73767493D01*
X99444856Y-73767493D02*
X99680559Y-73531791D01*
X99680559Y-73531791D02*
X99714230Y-73430775D01*
X99714230Y-73430775D02*
X99714230Y-73363432D01*
X99714230Y-73363432D02*
X99680559Y-73262417D01*
X99680559Y-73262417D02*
X99613215Y-73195073D01*
X99613215Y-73195073D02*
X99512200Y-73161401D01*
X99512200Y-73161401D02*
X99444856Y-73161401D01*
X99444856Y-73161401D02*
X99343841Y-73195073D01*
X99343841Y-73195073D02*
X99108139Y-73430775D01*
X99613215Y-72588982D02*
X99949933Y-72252264D01*
X99343841Y-72454295D02*
X100286650Y-72925699D01*
X100286650Y-72925699D02*
X99815246Y-71982890D01*
X100657040Y-72555310D02*
X101061101Y-72151249D01*
X100151963Y-71646172D02*
X100859070Y-72353279D01*
X100960086Y-70838050D02*
X100556025Y-71242111D01*
X100758055Y-71040081D02*
X101465162Y-71747188D01*
X101465162Y-71747188D02*
X101296803Y-71713516D01*
X101296803Y-71713516D02*
X101162116Y-71713516D01*
X101162116Y-71713516D02*
X101061101Y-71747188D01*
D12*
X102110833Y-66751809D02*
X102348928Y-66751809D01*
X102348928Y-66751809D02*
X102348928Y-66251809D01*
X101967975Y-66299428D02*
X101944166Y-66275619D01*
X101944166Y-66275619D02*
X101896547Y-66251809D01*
X101896547Y-66251809D02*
X101777499Y-66251809D01*
X101777499Y-66251809D02*
X101729880Y-66275619D01*
X101729880Y-66275619D02*
X101706071Y-66299428D01*
X101706071Y-66299428D02*
X101682261Y-66347047D01*
X101682261Y-66347047D02*
X101682261Y-66394666D01*
X101682261Y-66394666D02*
X101706071Y-66466095D01*
X101706071Y-66466095D02*
X101991785Y-66751809D01*
X101991785Y-66751809D02*
X101682261Y-66751809D01*
X102108928Y-64944190D02*
X102132737Y-64968000D01*
X102132737Y-64968000D02*
X102204166Y-64991809D01*
X102204166Y-64991809D02*
X102251785Y-64991809D01*
X102251785Y-64991809D02*
X102323213Y-64968000D01*
X102323213Y-64968000D02*
X102370832Y-64920380D01*
X102370832Y-64920380D02*
X102394642Y-64872761D01*
X102394642Y-64872761D02*
X102418451Y-64777523D01*
X102418451Y-64777523D02*
X102418451Y-64706095D01*
X102418451Y-64706095D02*
X102394642Y-64610857D01*
X102394642Y-64610857D02*
X102370832Y-64563238D01*
X102370832Y-64563238D02*
X102323213Y-64515619D01*
X102323213Y-64515619D02*
X102251785Y-64491809D01*
X102251785Y-64491809D02*
X102204166Y-64491809D01*
X102204166Y-64491809D02*
X102132737Y-64515619D01*
X102132737Y-64515619D02*
X102108928Y-64539428D01*
X101918451Y-64539428D02*
X101894642Y-64515619D01*
X101894642Y-64515619D02*
X101847023Y-64491809D01*
X101847023Y-64491809D02*
X101727975Y-64491809D01*
X101727975Y-64491809D02*
X101680356Y-64515619D01*
X101680356Y-64515619D02*
X101656547Y-64539428D01*
X101656547Y-64539428D02*
X101632737Y-64587047D01*
X101632737Y-64587047D02*
X101632737Y-64634666D01*
X101632737Y-64634666D02*
X101656547Y-64706095D01*
X101656547Y-64706095D02*
X101942261Y-64991809D01*
X101942261Y-64991809D02*
X101632737Y-64991809D01*
X101323214Y-64491809D02*
X101275595Y-64491809D01*
X101275595Y-64491809D02*
X101227976Y-64515619D01*
X101227976Y-64515619D02*
X101204166Y-64539428D01*
X101204166Y-64539428D02*
X101180357Y-64587047D01*
X101180357Y-64587047D02*
X101156547Y-64682285D01*
X101156547Y-64682285D02*
X101156547Y-64801333D01*
X101156547Y-64801333D02*
X101180357Y-64896571D01*
X101180357Y-64896571D02*
X101204166Y-64944190D01*
X101204166Y-64944190D02*
X101227976Y-64968000D01*
X101227976Y-64968000D02*
X101275595Y-64991809D01*
X101275595Y-64991809D02*
X101323214Y-64991809D01*
X101323214Y-64991809D02*
X101370833Y-64968000D01*
X101370833Y-64968000D02*
X101394642Y-64944190D01*
X101394642Y-64944190D02*
X101418452Y-64896571D01*
X101418452Y-64896571D02*
X101442261Y-64801333D01*
X101442261Y-64801333D02*
X101442261Y-64682285D01*
X101442261Y-64682285D02*
X101418452Y-64587047D01*
X101418452Y-64587047D02*
X101394642Y-64539428D01*
X101394642Y-64539428D02*
X101370833Y-64515619D01*
X101370833Y-64515619D02*
X101323214Y-64491809D01*
D14*
%TO.C,U2*%
X83677500Y-38462000D02*
X83177500Y-38462000D01*
X83177500Y-37962000D01*
X83677500Y-38462000D01*
G36*
X83677500Y-38462000D02*
G01*
X83177500Y-38462000D01*
X83177500Y-37962000D01*
X83677500Y-38462000D01*
G37*
X64777500Y-56437000D02*
X64777500Y-57437000D01*
X66277500Y-57437000D02*
X64777500Y-57437000D01*
X64777500Y-37787000D02*
X64777500Y-31587000D01*
X81677500Y-57437000D02*
X83177500Y-57437000D01*
X83177500Y-57437000D02*
X83177500Y-56437000D01*
X64777500Y-31587000D02*
X83177500Y-31587000D01*
X83177500Y-37787000D02*
X83177500Y-31587000D01*
%TO.C,R14*%
X96484273Y-40033008D02*
X96094014Y-40360475D01*
X97155986Y-40833525D02*
X96765727Y-41160992D01*
%TO.C,C29*%
X97846296Y-41762092D02*
X98011511Y-41623460D01*
X97383489Y-41210540D02*
X97548704Y-41071908D01*
%TO.C,NC5*%
X101080436Y-58127000D02*
X102534564Y-58127000D01*
X101080436Y-59947000D02*
X102534564Y-59947000D01*
D13*
%TO.C,D1*%
X94087500Y-75144500D02*
G75*
G02*
X93987500Y-75144500I-50000J0D01*
G01*
X93987500Y-75144500D02*
G75*
G02*
X94087500Y-75144500I50000J0D01*
G01*
D15*
%TO.C,J2*%
X83797500Y-39009050D02*
X85317500Y-39009050D01*
X83797500Y-46459950D02*
X83797500Y-39004050D01*
X86617500Y-46464950D02*
X83797500Y-46464950D01*
X87717500Y-39009050D02*
X91067500Y-39009050D01*
X90767500Y-46464950D02*
X87917500Y-46464950D01*
X93367500Y-39009050D02*
X94587500Y-39009050D01*
X94587500Y-39009050D02*
X94587500Y-46464950D01*
X94587500Y-46464950D02*
X93667500Y-46464950D01*
D16*
X94072580Y-45797000D02*
G75*
G02*
X93832580Y-45797000I-120000J0D01*
G01*
X93832580Y-45797000D02*
G75*
G02*
X94072580Y-45797000I120000J0D01*
G01*
D14*
%TO.C,C19*%
X104317500Y-61043267D02*
X104317500Y-60750733D01*
X105337500Y-61043267D02*
X105337500Y-60750733D01*
%TO.C,JP2*%
X84217500Y-74327000D02*
X86217500Y-74327000D01*
X84217500Y-77127000D02*
X84217500Y-74327000D01*
X86217500Y-74327000D02*
X86217500Y-77127000D01*
X86217500Y-77127000D02*
X84217500Y-77127000D01*
%TO.C,R16*%
X91805000Y-74732276D02*
X91805000Y-75241724D01*
X92850000Y-74732276D02*
X92850000Y-75241724D01*
%TO.C,JP4*%
X67522934Y-61108475D02*
X69947805Y-59708475D01*
X68522933Y-62840525D02*
X67522934Y-61108475D01*
X69947805Y-59708475D02*
X70947804Y-61440525D01*
X70947804Y-61440525D02*
X68522933Y-62840525D01*
%TO.C,C16*%
X95727500Y-68870733D02*
X95727500Y-69163267D01*
X96747500Y-68870733D02*
X96747500Y-69163267D01*
%TO.C,R11*%
X94365000Y-72659776D02*
X94365000Y-73169224D01*
X95410000Y-72659776D02*
X95410000Y-73169224D01*
%TO.C,C6*%
X74559510Y-60053984D02*
X74306168Y-60200251D01*
X75069510Y-60937329D02*
X74816168Y-61083596D01*
%TO.C,C7*%
X76219171Y-62922194D02*
X75965829Y-63068461D01*
X76729171Y-63805539D02*
X76475829Y-63951806D01*
%TO.C,C14*%
X90907500Y-64527580D02*
X90907500Y-64246420D01*
X91927500Y-64527580D02*
X91927500Y-64246420D01*
%TO.C,C8*%
X75406118Y-61490944D02*
X75152776Y-61637211D01*
X75916118Y-62374289D02*
X75662776Y-62520556D01*
%TO.C,U1*%
X69691666Y-64174039D02*
X69779166Y-64325593D01*
X69749513Y-63794231D02*
X69953028Y-63676731D01*
X71151666Y-66702833D02*
X70914166Y-66291471D01*
X71563028Y-66465333D02*
X71151666Y-66702833D01*
X71918906Y-62541731D02*
X72330268Y-62304231D01*
X72330268Y-62304231D02*
X72567768Y-62715593D01*
X73528906Y-65330333D02*
X73940268Y-65092833D01*
X73940268Y-65092833D02*
X73702768Y-64681471D01*
X69541666Y-63914231D02*
X69375879Y-64287077D01*
X69135877Y-63871386D01*
X69541666Y-63914231D01*
G36*
X69541666Y-63914231D02*
G01*
X69375879Y-64287077D01*
X69135877Y-63871386D01*
X69541666Y-63914231D01*
G37*
%TO.C,R9*%
X87374724Y-47914500D02*
X86865276Y-47914500D01*
X87374724Y-48959500D02*
X86865276Y-48959500D01*
%TO.C,NC1*%
X101767500Y-52697436D02*
X101767500Y-54151564D01*
X103587500Y-52697436D02*
X103587500Y-54151564D01*
%TO.C,C15*%
X94097500Y-68880733D02*
X94097500Y-69173267D01*
X95117500Y-68880733D02*
X95117500Y-69173267D01*
%TO.C,U5*%
X93357500Y-60787000D02*
X93782500Y-60787000D01*
X93357500Y-61212000D02*
X93357500Y-60787000D01*
X93357500Y-65767000D02*
X93357500Y-65582000D01*
X93657500Y-66007000D02*
X93782500Y-66007000D01*
X98577500Y-60787000D02*
X98152500Y-60787000D01*
X98577500Y-61212000D02*
X98577500Y-60787000D01*
X98577500Y-65582000D02*
X98577500Y-66007000D01*
X98577500Y-66007000D02*
X98152500Y-66007000D01*
X93597500Y-66337000D02*
X93117500Y-66337000D01*
X93357500Y-66007000D01*
X93597500Y-66337000D01*
G36*
X93597500Y-66337000D02*
G01*
X93117500Y-66337000D01*
X93357500Y-66007000D01*
X93597500Y-66337000D01*
G37*
%TO.C,R13*%
X73867640Y-71976347D02*
X74122363Y-71535153D01*
X74772637Y-72498847D02*
X75027360Y-72057653D01*
%TO.C,C18*%
X95881267Y-58257000D02*
X95588733Y-58257000D01*
X95881267Y-59277000D02*
X95588733Y-59277000D01*
%TO.C,C22*%
X104247500Y-65630733D02*
X104247500Y-65923267D01*
X105267500Y-65630733D02*
X105267500Y-65923267D01*
%TO.C,R8*%
X116272224Y-57384500D02*
X115762776Y-57384500D01*
X116272224Y-58429500D02*
X115762776Y-58429500D01*
%TO.C,C28*%
X76229649Y-73153611D02*
X76121813Y-73340389D01*
X76853187Y-73513611D02*
X76745351Y-73700389D01*
%TO.C,L1*%
X102507742Y-61137000D02*
X101687258Y-61137000D01*
X102507742Y-62257000D02*
X101687258Y-62257000D01*
%TO.C,C17*%
X97197500Y-68868233D02*
X97197500Y-69160767D01*
X98217500Y-68868233D02*
X98217500Y-69160767D01*
%TO.C,L2*%
X102437742Y-64417000D02*
X101617258Y-64417000D01*
X102437742Y-65537000D02*
X101617258Y-65537000D01*
%TO.C,C20*%
X101933767Y-62827000D02*
X101641233Y-62827000D01*
X101933767Y-63847000D02*
X101641233Y-63847000D01*
%TD*%
M02*
