%TF.GenerationSoftware,KiCad,Pcbnew,8.0.5*%
%TF.CreationDate,2025-01-08T19:59:22+01:00*%
%TF.ProjectId,test,74657374-2e6b-4696-9361-645f70636258,rev?*%
%TF.SameCoordinates,PX517370cPY341b1c8*%
%TF.FileFunction,Drillmap*%
%TF.FilePolarity,Positive*%
%FSLAX45Y45*%
G04 Gerber Fmt 4.5, Leading zero omitted, Abs format (unit mm)*
G04 Created by KiCad (PCBNEW 8.0.5) date 2025-01-08 19:59:22*
%MOMM*%
%LPD*%
G01*
G04 APERTURE LIST*
%ADD10C,0.100000*%
%ADD11C,0.200000*%
%ADD12C,0.129540*%
G04 APERTURE END LIST*
D10*
X-1344164Y-1598574D02*
X-1480000Y-1759000D01*
X0Y2400000D02*
G75*
G02*
X2108884Y1145692I0J-2400000D01*
G01*
X-1483930Y-1886181D02*
G75*
G02*
X-1480000Y-1759000I79930J61181D01*
G01*
X-2068000Y-363000D02*
X-2266000Y-398000D01*
X-1360172Y-1465220D02*
G75*
G02*
X-1344164Y-1598574I-67828J-75780D01*
G01*
X-2266000Y-398000D02*
G75*
G02*
X-2376831Y-332996I-17000J98000D01*
G01*
X2108884Y1145692D02*
X2109000Y-569000D01*
X2209031Y-668861D02*
G75*
G02*
X2282072Y-742689I5969J-67139D01*
G01*
X-2200000Y2200000D02*
G75*
G02*
X-2000000Y2400000I200000J0D01*
G01*
X468000Y-2354000D02*
X-469000Y-2354000D01*
X2282072Y-742689D02*
G75*
G02*
X468000Y-2354001I-2282002J742329D01*
G01*
X-468937Y-2353684D02*
G75*
G02*
X-1483930Y-1886181I468937J2353684D01*
G01*
X-1360172Y-1465220D02*
G75*
G02*
X-1950742Y-437658I1360172J1465220D01*
G01*
X2209000Y-669000D02*
G75*
G02*
X2109000Y-569000I0J100000D01*
G01*
X-2200000Y960000D02*
X-2200000Y2200000D01*
X0Y2400000D02*
X-2000000Y2400000D01*
X-2068000Y-363000D02*
G75*
G02*
X-1950742Y-437658I20000J-98000D01*
G01*
X-2376831Y-332996D02*
G75*
G02*
X-2199735Y959884I2376831J332996D01*
G01*
D11*
D10*
X-2138000Y1551000D02*
X-2118000Y1531000D01*
X-2118000Y1551000D02*
X-2138000Y1531000D01*
X-1955000Y1392000D02*
X-1935000Y1372000D01*
X-1935000Y1392000D02*
X-1955000Y1372000D01*
X-1930000Y890000D02*
X-1910000Y870000D01*
X-1910000Y890000D02*
X-1930000Y870000D01*
X-1927000Y535000D02*
X-1907000Y515000D01*
X-1907000Y535000D02*
X-1927000Y515000D01*
X-1921000Y661000D02*
X-1901000Y641000D01*
X-1901000Y661000D02*
X-1921000Y641000D01*
X-1920000Y1551000D02*
X-1900000Y1531000D01*
X-1900000Y1551000D02*
X-1920000Y1531000D01*
X-1724000Y-120000D02*
X-1704000Y-140000D01*
X-1704000Y-120000D02*
X-1724000Y-140000D01*
X-1637000Y-539000D02*
X-1617000Y-559000D01*
X-1617000Y-539000D02*
X-1637000Y-559000D01*
X-1600000Y-983000D02*
X-1580000Y-1003000D01*
X-1580000Y-983000D02*
X-1600000Y-1003000D01*
X-1566000Y-1065000D02*
X-1546000Y-1085000D01*
X-1546000Y-1065000D02*
X-1566000Y-1085000D01*
X-1525000Y3000D02*
X-1505000Y-17000D01*
X-1505000Y3000D02*
X-1525000Y-17000D01*
X-1513000Y-478000D02*
X-1493000Y-498000D01*
X-1493000Y-478000D02*
X-1513000Y-498000D01*
X-1436750Y730000D02*
X-1416750Y710000D01*
X-1416750Y730000D02*
X-1436750Y710000D01*
X-1428000Y-1170000D02*
X-1408000Y-1190000D01*
X-1408000Y-1170000D02*
X-1428000Y-1190000D01*
X-1402000Y-539000D02*
X-1382000Y-559000D01*
X-1382000Y-539000D02*
X-1402000Y-559000D01*
X-1388000Y1523000D02*
X-1368000Y1503000D01*
X-1368000Y1523000D02*
X-1388000Y1503000D01*
X-1381000Y133000D02*
X-1361000Y113000D01*
X-1361000Y133000D02*
X-1381000Y113000D01*
X-1346000Y-748000D02*
X-1326000Y-768000D01*
X-1326000Y-748000D02*
X-1346000Y-768000D01*
X-1310000Y530000D02*
X-1290000Y510000D01*
X-1290000Y530000D02*
X-1310000Y510000D01*
X-1299000Y-1199000D02*
X-1279000Y-1219000D01*
X-1279000Y-1199000D02*
X-1299000Y-1219000D01*
X-1275392Y1435748D02*
X-1255392Y1415748D01*
X-1255392Y1435748D02*
X-1275392Y1415748D01*
X-1254000Y-766000D02*
X-1234000Y-786000D01*
X-1234000Y-766000D02*
X-1254000Y-786000D01*
X-1177000Y57000D02*
X-1157000Y37000D01*
X-1157000Y57000D02*
X-1177000Y37000D01*
X-1035000Y-651000D02*
X-1015000Y-671000D01*
X-1015000Y-651000D02*
X-1035000Y-671000D01*
X-1022000Y57000D02*
X-1002000Y37000D01*
X-1002000Y57000D02*
X-1022000Y37000D01*
X-1014000Y-1582000D02*
X-994000Y-1602000D01*
X-994000Y-1582000D02*
X-1014000Y-1602000D01*
X-963000Y182000D02*
X-943000Y162000D01*
X-943000Y182000D02*
X-963000Y162000D01*
X-961000Y-1008000D02*
X-941000Y-1028000D01*
X-941000Y-1008000D02*
X-961000Y-1028000D01*
X-944000Y-1997000D02*
X-924000Y-2017000D01*
X-924000Y-1997000D02*
X-944000Y-2017000D01*
X-936469Y1421469D02*
X-916469Y1401469D01*
X-916469Y1421469D02*
X-936469Y1401469D01*
X-867000Y-1080000D02*
X-847000Y-1100000D01*
X-847000Y-1080000D02*
X-867000Y-1100000D01*
X-839000Y-1786000D02*
X-819000Y-1806000D01*
X-819000Y-1786000D02*
X-839000Y-1806000D01*
X-827000Y-647000D02*
X-807000Y-667000D01*
X-807000Y-647000D02*
X-827000Y-667000D01*
X-824000Y-1259000D02*
X-804000Y-1279000D01*
X-804000Y-1259000D02*
X-824000Y-1279000D01*
X-808000Y1334000D02*
X-788000Y1314000D01*
X-788000Y1334000D02*
X-808000Y1314000D01*
X-765000Y1078000D02*
X-745000Y1058000D01*
X-745000Y1078000D02*
X-765000Y1058000D01*
X-757000Y1419000D02*
X-737000Y1399000D01*
X-737000Y1419000D02*
X-757000Y1399000D01*
X-752000Y1593000D02*
X-732000Y1573000D01*
X-732000Y1593000D02*
X-752000Y1573000D01*
X-750000Y-692000D02*
X-730000Y-712000D01*
X-730000Y-692000D02*
X-750000Y-712000D01*
X-674000Y-1808000D02*
X-654000Y-1828000D01*
X-654000Y-1808000D02*
X-674000Y-1828000D01*
X-635000Y943000D02*
X-615000Y923000D01*
X-615000Y943000D02*
X-635000Y923000D01*
X-615000Y770000D02*
X-595000Y750000D01*
X-595000Y770000D02*
X-615000Y750000D01*
X-591000Y110000D02*
X-571000Y90000D01*
X-571000Y110000D02*
X-591000Y90000D01*
X-588000Y-1403000D02*
X-568000Y-1423000D01*
X-568000Y-1403000D02*
X-588000Y-1423000D01*
X-501000Y156000D02*
X-481000Y136000D01*
X-481000Y156000D02*
X-501000Y136000D01*
X-499000Y360000D02*
X-479000Y340000D01*
X-479000Y360000D02*
X-499000Y340000D01*
X-458000Y1419000D02*
X-438000Y1399000D01*
X-438000Y1419000D02*
X-458000Y1399000D01*
X-424502Y1281502D02*
X-404502Y1261502D01*
X-404502Y1281502D02*
X-424502Y1261502D01*
X-405000Y-695000D02*
X-385000Y-715000D01*
X-385000Y-695000D02*
X-405000Y-715000D01*
X-404000Y-1322270D02*
X-384000Y-1342270D01*
X-384000Y-1322270D02*
X-404000Y-1342270D01*
X-381000Y1550000D02*
X-361000Y1530000D01*
X-361000Y1550000D02*
X-381000Y1530000D01*
X-241000Y-2249000D02*
X-221000Y-2269000D01*
X-221000Y-2249000D02*
X-241000Y-2269000D01*
X-204000Y1021000D02*
X-184000Y1001000D01*
X-184000Y1021000D02*
X-204000Y1001000D01*
X-182000Y1203000D02*
X-162000Y1183000D01*
X-162000Y1203000D02*
X-182000Y1183000D01*
X-177000Y1550000D02*
X-157000Y1530000D01*
X-157000Y1550000D02*
X-177000Y1530000D01*
X-143000Y-1002000D02*
X-123000Y-1022000D01*
X-123000Y-1002000D02*
X-143000Y-1022000D01*
X-134000Y93000D02*
X-114000Y73000D01*
X-114000Y93000D02*
X-134000Y73000D01*
X-81359Y926440D02*
X-61359Y906440D01*
X-61359Y926440D02*
X-81359Y906440D01*
X243000Y827000D02*
X263000Y807000D01*
X263000Y827000D02*
X243000Y807000D01*
X261000Y1373000D02*
X281000Y1353000D01*
X281000Y1373000D02*
X261000Y1353000D01*
X264000Y-707000D02*
X284000Y-727000D01*
X284000Y-707000D02*
X264000Y-727000D01*
X271000Y-840766D02*
X291000Y-860766D01*
X291000Y-840766D02*
X271000Y-860766D01*
X319000Y-387000D02*
X339000Y-407000D01*
X339000Y-387000D02*
X319000Y-407000D01*
X330000Y455000D02*
X350000Y435000D01*
X350000Y455000D02*
X330000Y435000D01*
X331000Y1374000D02*
X351000Y1354000D01*
X351000Y1374000D02*
X331000Y1354000D01*
X337000Y988000D02*
X357000Y968000D01*
X357000Y988000D02*
X337000Y968000D01*
X436000Y-828000D02*
X456000Y-848000D01*
X456000Y-828000D02*
X436000Y-848000D01*
X444000Y968000D02*
X464000Y948000D01*
X464000Y968000D02*
X444000Y948000D01*
X490000Y1050000D02*
X510000Y1030000D01*
X510000Y1050000D02*
X490000Y1030000D01*
X568000Y-1313000D02*
X588000Y-1333000D01*
X588000Y-1313000D02*
X568000Y-1333000D01*
X591000Y-817000D02*
X611000Y-837000D01*
X611000Y-817000D02*
X591000Y-837000D01*
X651000Y363000D02*
X671000Y343000D01*
X671000Y363000D02*
X651000Y343000D01*
X653000Y487000D02*
X673000Y467000D01*
X673000Y487000D02*
X653000Y467000D01*
X683000Y-1848000D02*
X703000Y-1868000D01*
X703000Y-1848000D02*
X683000Y-1868000D01*
X729000Y-1068000D02*
X749000Y-1088000D01*
X749000Y-1068000D02*
X729000Y-1088000D01*
X787000Y-1130000D02*
X807000Y-1150000D01*
X807000Y-1130000D02*
X787000Y-1150000D01*
X837000Y187000D02*
X857000Y167000D01*
X857000Y187000D02*
X837000Y167000D01*
X889000Y-1195000D02*
X909000Y-1215000D01*
X909000Y-1195000D02*
X889000Y-1215000D01*
X910000Y10000D02*
X930000Y-10000D01*
X930000Y10000D02*
X910000Y-10000D01*
X928000Y-1598000D02*
X948000Y-1618000D01*
X948000Y-1598000D02*
X928000Y-1618000D01*
X936000Y-484000D02*
X956000Y-504000D01*
X956000Y-484000D02*
X936000Y-504000D01*
X965999Y754001D02*
X985999Y734001D01*
X985999Y754001D02*
X965999Y734001D01*
X981000Y1295000D02*
X1001000Y1275000D01*
X1001000Y1295000D02*
X981000Y1275000D01*
X990000Y80000D02*
X1010000Y60000D01*
X1010000Y80000D02*
X990000Y60000D01*
X1010000Y-510000D02*
X1030000Y-530000D01*
X1030000Y-510000D02*
X1010000Y-530000D01*
X1044000Y616000D02*
X1064000Y596000D01*
X1064000Y616000D02*
X1044000Y596000D01*
X1052700Y24800D02*
X1072700Y4800D01*
X1072700Y24800D02*
X1052700Y4800D01*
X1061000Y-266000D02*
X1081000Y-286000D01*
X1081000Y-266000D02*
X1061000Y-286000D01*
X1074000Y-1602000D02*
X1094000Y-1622000D01*
X1094000Y-1602000D02*
X1074000Y-1622000D01*
X1138151Y193000D02*
X1158151Y173000D01*
X1158151Y193000D02*
X1138151Y173000D01*
X1150000Y-1307000D02*
X1170000Y-1327000D01*
X1170000Y-1307000D02*
X1150000Y-1327000D01*
X1156000Y754000D02*
X1176000Y734000D01*
X1176000Y754000D02*
X1156000Y734000D01*
X1177250Y560000D02*
X1197250Y540000D01*
X1197250Y560000D02*
X1177250Y540000D01*
X1210000Y-350000D02*
X1230000Y-370000D01*
X1230000Y-350000D02*
X1210000Y-370000D01*
X1220000Y-1604000D02*
X1240000Y-1624000D01*
X1240000Y-1604000D02*
X1220000Y-1624000D01*
X1229000Y1255000D02*
X1249000Y1235000D01*
X1249000Y1255000D02*
X1229000Y1235000D01*
X1246250Y24800D02*
X1266250Y4800D01*
X1266250Y24800D02*
X1246250Y4800D01*
X1310000Y-630000D02*
X1330000Y-650000D01*
X1330000Y-630000D02*
X1310000Y-650000D01*
X1343000Y-1111000D02*
X1363000Y-1131000D01*
X1363000Y-1111000D02*
X1343000Y-1131000D01*
X1343498Y-236340D02*
X1363498Y-256340D01*
X1363498Y-236340D02*
X1343498Y-256340D01*
X1395000Y382000D02*
X1415000Y362000D01*
X1415000Y382000D02*
X1395000Y362000D01*
X1402000Y533000D02*
X1422000Y513000D01*
X1422000Y533000D02*
X1402000Y513000D01*
X1428000Y248000D02*
X1448000Y228000D01*
X1448000Y248000D02*
X1428000Y228000D01*
X1430000Y-30000D02*
X1450000Y-50000D01*
X1450000Y-30000D02*
X1430000Y-50000D01*
X1433000Y323000D02*
X1453000Y303000D01*
X1453000Y323000D02*
X1433000Y303000D01*
X1461000Y-805000D02*
X1481000Y-825000D01*
X1481000Y-805000D02*
X1461000Y-825000D01*
X1510000Y-1130000D02*
X1530000Y-1150000D01*
X1530000Y-1130000D02*
X1510000Y-1150000D01*
X1589000Y135000D02*
X1609000Y115000D01*
X1609000Y135000D02*
X1589000Y115000D01*
X1589000Y-365000D02*
X1609000Y-385000D01*
X1609000Y-365000D02*
X1589000Y-385000D01*
X1603000Y-170000D02*
X1623000Y-190000D01*
X1623000Y-170000D02*
X1603000Y-190000D01*
X1607000Y285000D02*
X1627000Y265000D01*
X1627000Y285000D02*
X1607000Y265000D01*
X1610000Y497000D02*
X1630000Y477000D01*
X1630000Y497000D02*
X1610000Y477000D01*
X1618000Y-37000D02*
X1638000Y-57000D01*
X1638000Y-37000D02*
X1618000Y-57000D01*
X1625414Y-266000D02*
X1645414Y-286000D01*
X1645414Y-266000D02*
X1625414Y-286000D01*
X1645000Y436000D02*
X1665000Y416000D01*
X1665000Y436000D02*
X1645000Y416000D01*
X1698000Y-100000D02*
X1718000Y-120000D01*
X1718000Y-100000D02*
X1698000Y-120000D01*
X1822172Y-860000D02*
X1842172Y-880000D01*
X1842172Y-860000D02*
X1822172Y-880000D01*
X1825000Y-266000D02*
X1845000Y-286000D01*
X1845000Y-266000D02*
X1825000Y-286000D01*
X2007249Y-529750D02*
X2027249Y-549750D01*
X2027249Y-529750D02*
X2007249Y-549750D01*
X-1154500Y816000D02*
G75*
G02*
X-1174500Y816000I-10000J0D01*
G01*
X-1174500Y816000D02*
G75*
G02*
X-1154500Y816000I10000J0D01*
G01*
X-1154500Y676000D02*
G75*
G02*
X-1174500Y676000I-10000J0D01*
G01*
X-1174500Y676000D02*
G75*
G02*
X-1154500Y676000I10000J0D01*
G01*
X-1084500Y886000D02*
G75*
G02*
X-1104500Y886000I-10000J0D01*
G01*
X-1104500Y886000D02*
G75*
G02*
X-1084500Y886000I10000J0D01*
G01*
X-1084500Y746000D02*
G75*
G02*
X-1104500Y746000I-10000J0D01*
G01*
X-1104500Y746000D02*
G75*
G02*
X-1084500Y746000I10000J0D01*
G01*
X-1084500Y606000D02*
G75*
G02*
X-1104500Y606000I-10000J0D01*
G01*
X-1104500Y606000D02*
G75*
G02*
X-1084500Y606000I10000J0D01*
G01*
X-1014500Y816000D02*
G75*
G02*
X-1034500Y816000I-10000J0D01*
G01*
X-1034500Y816000D02*
G75*
G02*
X-1014500Y816000I10000J0D01*
G01*
X-1014500Y676000D02*
G75*
G02*
X-1034500Y676000I-10000J0D01*
G01*
X-1034500Y676000D02*
G75*
G02*
X-1014500Y676000I10000J0D01*
G01*
X-944500Y886000D02*
G75*
G02*
X-964500Y886000I-10000J0D01*
G01*
X-964500Y886000D02*
G75*
G02*
X-944500Y886000I10000J0D01*
G01*
X-944500Y746000D02*
G75*
G02*
X-964500Y746000I-10000J0D01*
G01*
X-964500Y746000D02*
G75*
G02*
X-944500Y746000I10000J0D01*
G01*
X-944500Y606000D02*
G75*
G02*
X-964500Y606000I-10000J0D01*
G01*
X-964500Y606000D02*
G75*
G02*
X-944500Y606000I10000J0D01*
G01*
X-874500Y816000D02*
G75*
G02*
X-894500Y816000I-10000J0D01*
G01*
X-894500Y816000D02*
G75*
G02*
X-874500Y816000I10000J0D01*
G01*
X-874500Y676000D02*
G75*
G02*
X-894500Y676000I-10000J0D01*
G01*
X-894500Y676000D02*
G75*
G02*
X-874500Y676000I10000J0D01*
G01*
X-1360000Y0D02*
X-1360000Y-40000D01*
X-1380000Y-20000D02*
X-1340000Y-20000D01*
X-415000Y-1506000D02*
X-415000Y-1546000D01*
X-435000Y-1526000D02*
X-395000Y-1526000D01*
X-324000Y-1471000D02*
X-324000Y-1511000D01*
X-344000Y-1491000D02*
X-304000Y-1491000D01*
X417000Y-1503000D02*
X417000Y-1543000D01*
X397000Y-1523000D02*
X437000Y-1523000D01*
X684000Y-1376000D02*
X684000Y-1416000D01*
X664000Y-1396000D02*
X704000Y-1396000D01*
X798000Y-1376000D02*
X798000Y-1416000D01*
X778000Y-1396000D02*
X818000Y-1396000D01*
X1128000Y-1940000D02*
X1128000Y-1980000D01*
X1108000Y-1960000D02*
X1148000Y-1960000D01*
X1134000Y-1730000D02*
X1134000Y-1770000D01*
X1114000Y-1750000D02*
X1154000Y-1750000D01*
X1340000Y-1730000D02*
X1340000Y-1770000D01*
X1320000Y-1750000D02*
X1360000Y-1750000D01*
X1380000Y-500000D02*
X1380000Y-540000D01*
X1360000Y-520000D02*
X1400000Y-520000D01*
X1860000Y-1300000D02*
X1860000Y-1340000D01*
X1840000Y-1320000D02*
X1880000Y-1320000D01*
X1956000Y476000D02*
X1956000Y436000D01*
X1936000Y456000D02*
X1976000Y456000D01*
X1960000Y-240000D02*
X1960000Y-280000D01*
X1940000Y-260000D02*
X1980000Y-260000D01*
X-410787Y-1729213D02*
X-410787Y-1686787D01*
X-453213Y-1686787D01*
X-453213Y-1729213D01*
X-410787Y-1729213D01*
X-462000Y-1653000D02*
X-462000Y-1763000D01*
X-402000Y-1763000D02*
G75*
G02*
X-462000Y-1763000I-30000J0D01*
G01*
X-402000Y-1763000D02*
X-402000Y-1653000D01*
X-402000Y-1653000D02*
G75*
G03*
X-462000Y-1653000I-30000J0D01*
G01*
X-410787Y-2147213D02*
X-410787Y-2104787D01*
X-453213Y-2104787D01*
X-453213Y-2147213D01*
X-410787Y-2147213D01*
X-462000Y-2096000D02*
X-462000Y-2156000D01*
X-402000Y-2156000D02*
G75*
G02*
X-462000Y-2156000I-30000J0D01*
G01*
X-402000Y-2156000D02*
X-402000Y-2096000D01*
X-402000Y-2096000D02*
G75*
G03*
X-462000Y-2096000I-30000J0D01*
G01*
X453213Y-1729213D02*
X453213Y-1686787D01*
X410787Y-1686787D01*
X410787Y-1729213D01*
X453213Y-1729213D01*
X402000Y-1653000D02*
X402000Y-1763000D01*
X462000Y-1763000D02*
G75*
G02*
X402000Y-1763000I-30000J0D01*
G01*
X462000Y-1763000D02*
X462000Y-1653000D01*
X462000Y-1653000D02*
G75*
G03*
X402000Y-1653000I-30000J0D01*
G01*
X453213Y-2147213D02*
X453213Y-2104787D01*
X410787Y-2104787D01*
X410787Y-2147213D01*
X453213Y-2147213D01*
X402000Y-2096000D02*
X402000Y-2156000D01*
X462000Y-2156000D02*
G75*
G02*
X402000Y-2156000I-30000J0D01*
G01*
X462000Y-2156000D02*
X462000Y-2096000D01*
X462000Y-2096000D02*
G75*
G03*
X402000Y-2096000I-30000J0D01*
G01*
X234495Y2075976D02*
X284025Y2125506D01*
X234495Y2175036D01*
X184965Y2125506D01*
X234495Y2075976D01*
X674662Y1982415D02*
X724192Y2031945D01*
X674662Y2081475D01*
X625132Y2031945D01*
X674662Y1982415D01*
X1231662Y1699415D02*
X1281192Y1748945D01*
X1231662Y1798475D01*
X1182132Y1748945D01*
X1231662Y1699415D01*
X1566077Y1398306D02*
X1615607Y1447836D01*
X1566077Y1497366D01*
X1516547Y1447836D01*
X1566077Y1398306D01*
D12*
X-4808Y1972780D02*
X124732Y1843240D01*
X124732Y1972780D02*
X-4808Y1843240D01*
X124732Y1908010D02*
G75*
G02*
X-4808Y1908010I-64770J0D01*
G01*
X-4808Y1908010D02*
G75*
G02*
X124732Y1908010I64770J0D01*
G01*
X680873Y1827034D02*
X810413Y1697494D01*
X810413Y1827034D02*
X680873Y1697494D01*
X810413Y1762264D02*
G75*
G02*
X680873Y1762264I-64770J0D01*
G01*
X680873Y1762264D02*
G75*
G02*
X810413Y1762264I64770J0D01*
G01*
X906994Y1712626D02*
X1036534Y1583086D01*
X1036534Y1712626D02*
X906994Y1583086D01*
X1036534Y1647856D02*
G75*
G02*
X906994Y1647856I-64770J0D01*
G01*
X906994Y1647856D02*
G75*
G02*
X1036534Y1647856I64770J0D01*
G01*
X1427938Y1243565D02*
X1557478Y1114025D01*
X1557478Y1243565D02*
X1427938Y1114025D01*
X1557478Y1178795D02*
G75*
G02*
X1427938Y1178795I-64770J0D01*
G01*
X1427938Y1178795D02*
G75*
G02*
X1557478Y1178795I64770J0D01*
G01*
D11*
X-2144267Y-2670484D02*
X-2144267Y-2470484D01*
X-2144267Y-2470484D02*
X-2096648Y-2470484D01*
X-2096648Y-2470484D02*
X-2068077Y-2480008D01*
X-2068077Y-2480008D02*
X-2049029Y-2499055D01*
X-2049029Y-2499055D02*
X-2039505Y-2518103D01*
X-2039505Y-2518103D02*
X-2029982Y-2556198D01*
X-2029982Y-2556198D02*
X-2029982Y-2584770D01*
X-2029982Y-2584770D02*
X-2039505Y-2622865D01*
X-2039505Y-2622865D02*
X-2049029Y-2641912D01*
X-2049029Y-2641912D02*
X-2068077Y-2660960D01*
X-2068077Y-2660960D02*
X-2096648Y-2670484D01*
X-2096648Y-2670484D02*
X-2144267Y-2670484D01*
X-1944267Y-2670484D02*
X-1944267Y-2537150D01*
X-1944267Y-2575246D02*
X-1934743Y-2556198D01*
X-1934743Y-2556198D02*
X-1925220Y-2546674D01*
X-1925220Y-2546674D02*
X-1906172Y-2537150D01*
X-1906172Y-2537150D02*
X-1887124Y-2537150D01*
X-1820458Y-2670484D02*
X-1820458Y-2537150D01*
X-1820458Y-2470484D02*
X-1829982Y-2480008D01*
X-1829982Y-2480008D02*
X-1820458Y-2489531D01*
X-1820458Y-2489531D02*
X-1810934Y-2480008D01*
X-1810934Y-2480008D02*
X-1820458Y-2470484D01*
X-1820458Y-2470484D02*
X-1820458Y-2489531D01*
X-1696648Y-2670484D02*
X-1715696Y-2660960D01*
X-1715696Y-2660960D02*
X-1725220Y-2641912D01*
X-1725220Y-2641912D02*
X-1725220Y-2470484D01*
X-1591886Y-2670484D02*
X-1610934Y-2660960D01*
X-1610934Y-2660960D02*
X-1620458Y-2641912D01*
X-1620458Y-2641912D02*
X-1620458Y-2470484D01*
X-1363315Y-2670484D02*
X-1363315Y-2470484D01*
X-1363315Y-2470484D02*
X-1296648Y-2613341D01*
X-1296648Y-2613341D02*
X-1229982Y-2470484D01*
X-1229982Y-2470484D02*
X-1229982Y-2670484D01*
X-1049029Y-2670484D02*
X-1049029Y-2565722D01*
X-1049029Y-2565722D02*
X-1058553Y-2546674D01*
X-1058553Y-2546674D02*
X-1077601Y-2537150D01*
X-1077601Y-2537150D02*
X-1115696Y-2537150D01*
X-1115696Y-2537150D02*
X-1134744Y-2546674D01*
X-1049029Y-2660960D02*
X-1068077Y-2670484D01*
X-1068077Y-2670484D02*
X-1115696Y-2670484D01*
X-1115696Y-2670484D02*
X-1134744Y-2660960D01*
X-1134744Y-2660960D02*
X-1144267Y-2641912D01*
X-1144267Y-2641912D02*
X-1144267Y-2622865D01*
X-1144267Y-2622865D02*
X-1134744Y-2603817D01*
X-1134744Y-2603817D02*
X-1115696Y-2594293D01*
X-1115696Y-2594293D02*
X-1068077Y-2594293D01*
X-1068077Y-2594293D02*
X-1049029Y-2584770D01*
X-953791Y-2537150D02*
X-953791Y-2737150D01*
X-953791Y-2546674D02*
X-934743Y-2537150D01*
X-934743Y-2537150D02*
X-896648Y-2537150D01*
X-896648Y-2537150D02*
X-877601Y-2546674D01*
X-877601Y-2546674D02*
X-868077Y-2556198D01*
X-868077Y-2556198D02*
X-858553Y-2575246D01*
X-858553Y-2575246D02*
X-858553Y-2632389D01*
X-858553Y-2632389D02*
X-868077Y-2651436D01*
X-868077Y-2651436D02*
X-877601Y-2660960D01*
X-877601Y-2660960D02*
X-896648Y-2670484D01*
X-896648Y-2670484D02*
X-934743Y-2670484D01*
X-934743Y-2670484D02*
X-953791Y-2660960D01*
X-772839Y-2651436D02*
X-763315Y-2660960D01*
X-763315Y-2660960D02*
X-772839Y-2670484D01*
X-772839Y-2670484D02*
X-782362Y-2660960D01*
X-782362Y-2660960D02*
X-772839Y-2651436D01*
X-772839Y-2651436D02*
X-772839Y-2670484D01*
X-772839Y-2546674D02*
X-763315Y-2556198D01*
X-763315Y-2556198D02*
X-772839Y-2565722D01*
X-772839Y-2565722D02*
X-782362Y-2556198D01*
X-782362Y-2556198D02*
X-772839Y-2546674D01*
X-772839Y-2546674D02*
X-772839Y-2565722D01*
D10*
X-2425044Y-2989000D02*
X-2405044Y-3009000D01*
X-2405044Y-2989000D02*
X-2425044Y-3009000D01*
D11*
X-2106172Y-2890484D02*
X-2087124Y-2890484D01*
X-2087124Y-2890484D02*
X-2068077Y-2900008D01*
X-2068077Y-2900008D02*
X-2058553Y-2909531D01*
X-2058553Y-2909531D02*
X-2049029Y-2928579D01*
X-2049029Y-2928579D02*
X-2039505Y-2966674D01*
X-2039505Y-2966674D02*
X-2039505Y-3014293D01*
X-2039505Y-3014293D02*
X-2049029Y-3052388D01*
X-2049029Y-3052388D02*
X-2058553Y-3071436D01*
X-2058553Y-3071436D02*
X-2068077Y-3080960D01*
X-2068077Y-3080960D02*
X-2087124Y-3090484D01*
X-2087124Y-3090484D02*
X-2106172Y-3090484D01*
X-2106172Y-3090484D02*
X-2125220Y-3080960D01*
X-2125220Y-3080960D02*
X-2134744Y-3071436D01*
X-2134744Y-3071436D02*
X-2144267Y-3052388D01*
X-2144267Y-3052388D02*
X-2153791Y-3014293D01*
X-2153791Y-3014293D02*
X-2153791Y-2966674D01*
X-2153791Y-2966674D02*
X-2144267Y-2928579D01*
X-2144267Y-2928579D02*
X-2134744Y-2909531D01*
X-2134744Y-2909531D02*
X-2125220Y-2900008D01*
X-2125220Y-2900008D02*
X-2106172Y-2890484D01*
X-1953791Y-3071436D02*
X-1944267Y-3080960D01*
X-1944267Y-3080960D02*
X-1953791Y-3090484D01*
X-1953791Y-3090484D02*
X-1963315Y-3080960D01*
X-1963315Y-3080960D02*
X-1953791Y-3071436D01*
X-1953791Y-3071436D02*
X-1953791Y-3090484D01*
X-1868077Y-2909531D02*
X-1858553Y-2900008D01*
X-1858553Y-2900008D02*
X-1839505Y-2890484D01*
X-1839505Y-2890484D02*
X-1791886Y-2890484D01*
X-1791886Y-2890484D02*
X-1772839Y-2900008D01*
X-1772839Y-2900008D02*
X-1763315Y-2909531D01*
X-1763315Y-2909531D02*
X-1753791Y-2928579D01*
X-1753791Y-2928579D02*
X-1753791Y-2947627D01*
X-1753791Y-2947627D02*
X-1763315Y-2976198D01*
X-1763315Y-2976198D02*
X-1877601Y-3090484D01*
X-1877601Y-3090484D02*
X-1753791Y-3090484D01*
X-1629982Y-2890484D02*
X-1610934Y-2890484D01*
X-1610934Y-2890484D02*
X-1591886Y-2900008D01*
X-1591886Y-2900008D02*
X-1582362Y-2909531D01*
X-1582362Y-2909531D02*
X-1572839Y-2928579D01*
X-1572839Y-2928579D02*
X-1563315Y-2966674D01*
X-1563315Y-2966674D02*
X-1563315Y-3014293D01*
X-1563315Y-3014293D02*
X-1572839Y-3052388D01*
X-1572839Y-3052388D02*
X-1582362Y-3071436D01*
X-1582362Y-3071436D02*
X-1591886Y-3080960D01*
X-1591886Y-3080960D02*
X-1610934Y-3090484D01*
X-1610934Y-3090484D02*
X-1629982Y-3090484D01*
X-1629982Y-3090484D02*
X-1649029Y-3080960D01*
X-1649029Y-3080960D02*
X-1658553Y-3071436D01*
X-1658553Y-3071436D02*
X-1668077Y-3052388D01*
X-1668077Y-3052388D02*
X-1677601Y-3014293D01*
X-1677601Y-3014293D02*
X-1677601Y-2966674D01*
X-1677601Y-2966674D02*
X-1668077Y-2928579D01*
X-1668077Y-2928579D02*
X-1658553Y-2909531D01*
X-1658553Y-2909531D02*
X-1649029Y-2900008D01*
X-1649029Y-2900008D02*
X-1629982Y-2890484D01*
X-1439505Y-2890484D02*
X-1420458Y-2890484D01*
X-1420458Y-2890484D02*
X-1401410Y-2900008D01*
X-1401410Y-2900008D02*
X-1391886Y-2909531D01*
X-1391886Y-2909531D02*
X-1382363Y-2928579D01*
X-1382363Y-2928579D02*
X-1372839Y-2966674D01*
X-1372839Y-2966674D02*
X-1372839Y-3014293D01*
X-1372839Y-3014293D02*
X-1382363Y-3052388D01*
X-1382363Y-3052388D02*
X-1391886Y-3071436D01*
X-1391886Y-3071436D02*
X-1401410Y-3080960D01*
X-1401410Y-3080960D02*
X-1420458Y-3090484D01*
X-1420458Y-3090484D02*
X-1439505Y-3090484D01*
X-1439505Y-3090484D02*
X-1458553Y-3080960D01*
X-1458553Y-3080960D02*
X-1468077Y-3071436D01*
X-1468077Y-3071436D02*
X-1477601Y-3052388D01*
X-1477601Y-3052388D02*
X-1487124Y-3014293D01*
X-1487124Y-3014293D02*
X-1487124Y-2966674D01*
X-1487124Y-2966674D02*
X-1477601Y-2928579D01*
X-1477601Y-2928579D02*
X-1468077Y-2909531D01*
X-1468077Y-2909531D02*
X-1458553Y-2900008D01*
X-1458553Y-2900008D02*
X-1439505Y-2890484D01*
X-1287124Y-3090484D02*
X-1287124Y-2957150D01*
X-1287124Y-2976198D02*
X-1277601Y-2966674D01*
X-1277601Y-2966674D02*
X-1258553Y-2957150D01*
X-1258553Y-2957150D02*
X-1229982Y-2957150D01*
X-1229982Y-2957150D02*
X-1210934Y-2966674D01*
X-1210934Y-2966674D02*
X-1201410Y-2985722D01*
X-1201410Y-2985722D02*
X-1201410Y-3090484D01*
X-1201410Y-2985722D02*
X-1191886Y-2966674D01*
X-1191886Y-2966674D02*
X-1172839Y-2957150D01*
X-1172839Y-2957150D02*
X-1144267Y-2957150D01*
X-1144267Y-2957150D02*
X-1125220Y-2966674D01*
X-1125220Y-2966674D02*
X-1115696Y-2985722D01*
X-1115696Y-2985722D02*
X-1115696Y-3090484D01*
X-1020458Y-3090484D02*
X-1020458Y-2957150D01*
X-1020458Y-2976198D02*
X-1010934Y-2966674D01*
X-1010934Y-2966674D02*
X-991886Y-2957150D01*
X-991886Y-2957150D02*
X-963315Y-2957150D01*
X-963315Y-2957150D02*
X-944267Y-2966674D01*
X-944267Y-2966674D02*
X-934743Y-2985722D01*
X-934743Y-2985722D02*
X-934743Y-3090484D01*
X-934743Y-2985722D02*
X-925220Y-2966674D01*
X-925220Y-2966674D02*
X-906172Y-2957150D01*
X-906172Y-2957150D02*
X-877601Y-2957150D01*
X-877601Y-2957150D02*
X-858553Y-2966674D01*
X-858553Y-2966674D02*
X-849029Y-2985722D01*
X-849029Y-2985722D02*
X-849029Y-3090484D01*
X-458553Y-2880960D02*
X-629981Y-3138103D01*
X-201410Y-2890484D02*
X-182362Y-2890484D01*
X-182362Y-2890484D02*
X-163315Y-2900008D01*
X-163315Y-2900008D02*
X-153791Y-2909531D01*
X-153791Y-2909531D02*
X-144267Y-2928579D01*
X-144267Y-2928579D02*
X-134743Y-2966674D01*
X-134743Y-2966674D02*
X-134743Y-3014293D01*
X-134743Y-3014293D02*
X-144267Y-3052388D01*
X-144267Y-3052388D02*
X-153791Y-3071436D01*
X-153791Y-3071436D02*
X-163315Y-3080960D01*
X-163315Y-3080960D02*
X-182362Y-3090484D01*
X-182362Y-3090484D02*
X-201410Y-3090484D01*
X-201410Y-3090484D02*
X-220458Y-3080960D01*
X-220458Y-3080960D02*
X-229981Y-3071436D01*
X-229981Y-3071436D02*
X-239505Y-3052388D01*
X-239505Y-3052388D02*
X-249029Y-3014293D01*
X-249029Y-3014293D02*
X-249029Y-2966674D01*
X-249029Y-2966674D02*
X-239505Y-2928579D01*
X-239505Y-2928579D02*
X-229981Y-2909531D01*
X-229981Y-2909531D02*
X-220458Y-2900008D01*
X-220458Y-2900008D02*
X-201410Y-2890484D01*
X-49029Y-3071436D02*
X-39505Y-3080960D01*
X-39505Y-3080960D02*
X-49029Y-3090484D01*
X-49029Y-3090484D02*
X-58553Y-3080960D01*
X-58553Y-3080960D02*
X-49029Y-3071436D01*
X-49029Y-3071436D02*
X-49029Y-3090484D01*
X84304Y-2890484D02*
X103352Y-2890484D01*
X103352Y-2890484D02*
X122400Y-2900008D01*
X122400Y-2900008D02*
X131923Y-2909531D01*
X131923Y-2909531D02*
X141447Y-2928579D01*
X141447Y-2928579D02*
X150971Y-2966674D01*
X150971Y-2966674D02*
X150971Y-3014293D01*
X150971Y-3014293D02*
X141447Y-3052388D01*
X141447Y-3052388D02*
X131923Y-3071436D01*
X131923Y-3071436D02*
X122400Y-3080960D01*
X122400Y-3080960D02*
X103352Y-3090484D01*
X103352Y-3090484D02*
X84304Y-3090484D01*
X84304Y-3090484D02*
X65257Y-3080960D01*
X65257Y-3080960D02*
X55733Y-3071436D01*
X55733Y-3071436D02*
X46209Y-3052388D01*
X46209Y-3052388D02*
X36685Y-3014293D01*
X36685Y-3014293D02*
X36685Y-2966674D01*
X36685Y-2966674D02*
X46209Y-2928579D01*
X46209Y-2928579D02*
X55733Y-2909531D01*
X55733Y-2909531D02*
X65257Y-2900008D01*
X65257Y-2900008D02*
X84304Y-2890484D01*
X274781Y-2890484D02*
X293828Y-2890484D01*
X293828Y-2890484D02*
X312876Y-2900008D01*
X312876Y-2900008D02*
X322400Y-2909531D01*
X322400Y-2909531D02*
X331923Y-2928579D01*
X331923Y-2928579D02*
X341447Y-2966674D01*
X341447Y-2966674D02*
X341447Y-3014293D01*
X341447Y-3014293D02*
X331923Y-3052388D01*
X331923Y-3052388D02*
X322400Y-3071436D01*
X322400Y-3071436D02*
X312876Y-3080960D01*
X312876Y-3080960D02*
X293828Y-3090484D01*
X293828Y-3090484D02*
X274781Y-3090484D01*
X274781Y-3090484D02*
X255733Y-3080960D01*
X255733Y-3080960D02*
X246209Y-3071436D01*
X246209Y-3071436D02*
X236685Y-3052388D01*
X236685Y-3052388D02*
X227161Y-3014293D01*
X227161Y-3014293D02*
X227161Y-2966674D01*
X227161Y-2966674D02*
X236685Y-2928579D01*
X236685Y-2928579D02*
X246209Y-2909531D01*
X246209Y-2909531D02*
X255733Y-2900008D01*
X255733Y-2900008D02*
X274781Y-2890484D01*
X408114Y-2890484D02*
X541447Y-2890484D01*
X541447Y-2890484D02*
X455733Y-3090484D01*
X627162Y-3090484D02*
X665257Y-3090484D01*
X665257Y-3090484D02*
X684304Y-3080960D01*
X684304Y-3080960D02*
X693828Y-3071436D01*
X693828Y-3071436D02*
X712876Y-3042865D01*
X712876Y-3042865D02*
X722400Y-3004769D01*
X722400Y-3004769D02*
X722400Y-2928579D01*
X722400Y-2928579D02*
X712876Y-2909531D01*
X712876Y-2909531D02*
X703352Y-2900008D01*
X703352Y-2900008D02*
X684304Y-2890484D01*
X684304Y-2890484D02*
X646209Y-2890484D01*
X646209Y-2890484D02*
X627162Y-2900008D01*
X627162Y-2900008D02*
X617638Y-2909531D01*
X617638Y-2909531D02*
X608114Y-2928579D01*
X608114Y-2928579D02*
X608114Y-2976198D01*
X608114Y-2976198D02*
X617638Y-2995246D01*
X617638Y-2995246D02*
X627162Y-3004769D01*
X627162Y-3004769D02*
X646209Y-3014293D01*
X646209Y-3014293D02*
X684304Y-3014293D01*
X684304Y-3014293D02*
X703352Y-3004769D01*
X703352Y-3004769D02*
X712876Y-2995246D01*
X712876Y-2995246D02*
X722400Y-2976198D01*
X798590Y-2890484D02*
X798590Y-2928579D01*
X874781Y-2890484D02*
X874781Y-2928579D01*
X1170019Y-3166674D02*
X1160495Y-3157150D01*
X1160495Y-3157150D02*
X1141447Y-3128579D01*
X1141447Y-3128579D02*
X1131924Y-3109531D01*
X1131924Y-3109531D02*
X1122400Y-3080960D01*
X1122400Y-3080960D02*
X1112876Y-3033341D01*
X1112876Y-3033341D02*
X1112876Y-2995246D01*
X1112876Y-2995246D02*
X1122400Y-2947627D01*
X1122400Y-2947627D02*
X1131924Y-2919055D01*
X1131924Y-2919055D02*
X1141447Y-2900008D01*
X1141447Y-2900008D02*
X1160495Y-2871436D01*
X1160495Y-2871436D02*
X1170019Y-2861912D01*
X1350971Y-3090484D02*
X1236685Y-3090484D01*
X1293828Y-3090484D02*
X1293828Y-2890484D01*
X1293828Y-2890484D02*
X1274781Y-2919055D01*
X1274781Y-2919055D02*
X1255733Y-2938103D01*
X1255733Y-2938103D02*
X1236685Y-2947627D01*
X1541447Y-3090484D02*
X1427162Y-3090484D01*
X1484304Y-3090484D02*
X1484304Y-2890484D01*
X1484304Y-2890484D02*
X1465257Y-2919055D01*
X1465257Y-2919055D02*
X1446209Y-2938103D01*
X1446209Y-2938103D02*
X1427162Y-2947627D01*
X1636685Y-3090484D02*
X1674781Y-3090484D01*
X1674781Y-3090484D02*
X1693828Y-3080960D01*
X1693828Y-3080960D02*
X1703352Y-3071436D01*
X1703352Y-3071436D02*
X1722400Y-3042865D01*
X1722400Y-3042865D02*
X1731923Y-3004769D01*
X1731923Y-3004769D02*
X1731923Y-2928579D01*
X1731923Y-2928579D02*
X1722400Y-2909531D01*
X1722400Y-2909531D02*
X1712876Y-2900008D01*
X1712876Y-2900008D02*
X1693828Y-2890484D01*
X1693828Y-2890484D02*
X1655733Y-2890484D01*
X1655733Y-2890484D02*
X1636685Y-2900008D01*
X1636685Y-2900008D02*
X1627162Y-2909531D01*
X1627162Y-2909531D02*
X1617638Y-2928579D01*
X1617638Y-2928579D02*
X1617638Y-2976198D01*
X1617638Y-2976198D02*
X1627162Y-2995246D01*
X1627162Y-2995246D02*
X1636685Y-3004769D01*
X1636685Y-3004769D02*
X1655733Y-3014293D01*
X1655733Y-3014293D02*
X1693828Y-3014293D01*
X1693828Y-3014293D02*
X1712876Y-3004769D01*
X1712876Y-3004769D02*
X1722400Y-2995246D01*
X1722400Y-2995246D02*
X1731923Y-2976198D01*
X1970019Y-3090484D02*
X1970019Y-2890484D01*
X2055733Y-3090484D02*
X2055733Y-2985722D01*
X2055733Y-2985722D02*
X2046209Y-2966674D01*
X2046209Y-2966674D02*
X2027162Y-2957150D01*
X2027162Y-2957150D02*
X1998590Y-2957150D01*
X1998590Y-2957150D02*
X1979543Y-2966674D01*
X1979543Y-2966674D02*
X1970019Y-2976198D01*
X2179543Y-3090484D02*
X2160495Y-3080960D01*
X2160495Y-3080960D02*
X2150971Y-3071436D01*
X2150971Y-3071436D02*
X2141447Y-3052388D01*
X2141447Y-3052388D02*
X2141447Y-2995246D01*
X2141447Y-2995246D02*
X2150971Y-2976198D01*
X2150971Y-2976198D02*
X2160495Y-2966674D01*
X2160495Y-2966674D02*
X2179543Y-2957150D01*
X2179543Y-2957150D02*
X2208114Y-2957150D01*
X2208114Y-2957150D02*
X2227162Y-2966674D01*
X2227162Y-2966674D02*
X2236686Y-2976198D01*
X2236686Y-2976198D02*
X2246209Y-2995246D01*
X2246209Y-2995246D02*
X2246209Y-3052388D01*
X2246209Y-3052388D02*
X2236686Y-3071436D01*
X2236686Y-3071436D02*
X2227162Y-3080960D01*
X2227162Y-3080960D02*
X2208114Y-3090484D01*
X2208114Y-3090484D02*
X2179543Y-3090484D01*
X2360495Y-3090484D02*
X2341447Y-3080960D01*
X2341447Y-3080960D02*
X2331924Y-3061912D01*
X2331924Y-3061912D02*
X2331924Y-2890484D01*
X2512876Y-3080960D02*
X2493828Y-3090484D01*
X2493828Y-3090484D02*
X2455733Y-3090484D01*
X2455733Y-3090484D02*
X2436686Y-3080960D01*
X2436686Y-3080960D02*
X2427162Y-3061912D01*
X2427162Y-3061912D02*
X2427162Y-2985722D01*
X2427162Y-2985722D02*
X2436686Y-2966674D01*
X2436686Y-2966674D02*
X2455733Y-2957150D01*
X2455733Y-2957150D02*
X2493828Y-2957150D01*
X2493828Y-2957150D02*
X2512876Y-2966674D01*
X2512876Y-2966674D02*
X2522400Y-2985722D01*
X2522400Y-2985722D02*
X2522400Y-3004769D01*
X2522400Y-3004769D02*
X2427162Y-3023817D01*
X2598590Y-3080960D02*
X2617638Y-3090484D01*
X2617638Y-3090484D02*
X2655733Y-3090484D01*
X2655733Y-3090484D02*
X2674781Y-3080960D01*
X2674781Y-3080960D02*
X2684305Y-3061912D01*
X2684305Y-3061912D02*
X2684305Y-3052388D01*
X2684305Y-3052388D02*
X2674781Y-3033341D01*
X2674781Y-3033341D02*
X2655733Y-3023817D01*
X2655733Y-3023817D02*
X2627162Y-3023817D01*
X2627162Y-3023817D02*
X2608114Y-3014293D01*
X2608114Y-3014293D02*
X2598590Y-2995246D01*
X2598590Y-2995246D02*
X2598590Y-2985722D01*
X2598590Y-2985722D02*
X2608114Y-2966674D01*
X2608114Y-2966674D02*
X2627162Y-2957150D01*
X2627162Y-2957150D02*
X2655733Y-2957150D01*
X2655733Y-2957150D02*
X2674781Y-2966674D01*
X2750971Y-3166674D02*
X2760495Y-3157150D01*
X2760495Y-3157150D02*
X2779543Y-3128579D01*
X2779543Y-3128579D02*
X2789067Y-3109531D01*
X2789067Y-3109531D02*
X2798590Y-3080960D01*
X2798590Y-3080960D02*
X2808114Y-3033341D01*
X2808114Y-3033341D02*
X2808114Y-2995246D01*
X2808114Y-2995246D02*
X2798590Y-2947627D01*
X2798590Y-2947627D02*
X2789067Y-2919055D01*
X2789067Y-2919055D02*
X2779543Y-2900008D01*
X2779543Y-2900008D02*
X2760495Y-2871436D01*
X2760495Y-2871436D02*
X2750971Y-2861912D01*
D10*
X-2405044Y-3263000D02*
G75*
G02*
X-2425044Y-3263000I-10000J0D01*
G01*
X-2425044Y-3263000D02*
G75*
G02*
X-2405044Y-3263000I10000J0D01*
G01*
D11*
X-2106172Y-3154484D02*
X-2087124Y-3154484D01*
X-2087124Y-3154484D02*
X-2068077Y-3164008D01*
X-2068077Y-3164008D02*
X-2058553Y-3173531D01*
X-2058553Y-3173531D02*
X-2049029Y-3192579D01*
X-2049029Y-3192579D02*
X-2039505Y-3230674D01*
X-2039505Y-3230674D02*
X-2039505Y-3278293D01*
X-2039505Y-3278293D02*
X-2049029Y-3316388D01*
X-2049029Y-3316388D02*
X-2058553Y-3335436D01*
X-2058553Y-3335436D02*
X-2068077Y-3344960D01*
X-2068077Y-3344960D02*
X-2087124Y-3354484D01*
X-2087124Y-3354484D02*
X-2106172Y-3354484D01*
X-2106172Y-3354484D02*
X-2125220Y-3344960D01*
X-2125220Y-3344960D02*
X-2134744Y-3335436D01*
X-2134744Y-3335436D02*
X-2144267Y-3316388D01*
X-2144267Y-3316388D02*
X-2153791Y-3278293D01*
X-2153791Y-3278293D02*
X-2153791Y-3230674D01*
X-2153791Y-3230674D02*
X-2144267Y-3192579D01*
X-2144267Y-3192579D02*
X-2134744Y-3173531D01*
X-2134744Y-3173531D02*
X-2125220Y-3164008D01*
X-2125220Y-3164008D02*
X-2106172Y-3154484D01*
X-1953791Y-3335436D02*
X-1944267Y-3344960D01*
X-1944267Y-3344960D02*
X-1953791Y-3354484D01*
X-1953791Y-3354484D02*
X-1963315Y-3344960D01*
X-1963315Y-3344960D02*
X-1953791Y-3335436D01*
X-1953791Y-3335436D02*
X-1953791Y-3354484D01*
X-1868077Y-3173531D02*
X-1858553Y-3164008D01*
X-1858553Y-3164008D02*
X-1839505Y-3154484D01*
X-1839505Y-3154484D02*
X-1791886Y-3154484D01*
X-1791886Y-3154484D02*
X-1772839Y-3164008D01*
X-1772839Y-3164008D02*
X-1763315Y-3173531D01*
X-1763315Y-3173531D02*
X-1753791Y-3192579D01*
X-1753791Y-3192579D02*
X-1753791Y-3211627D01*
X-1753791Y-3211627D02*
X-1763315Y-3240198D01*
X-1763315Y-3240198D02*
X-1877601Y-3354484D01*
X-1877601Y-3354484D02*
X-1753791Y-3354484D01*
X-1629982Y-3154484D02*
X-1610934Y-3154484D01*
X-1610934Y-3154484D02*
X-1591886Y-3164008D01*
X-1591886Y-3164008D02*
X-1582362Y-3173531D01*
X-1582362Y-3173531D02*
X-1572839Y-3192579D01*
X-1572839Y-3192579D02*
X-1563315Y-3230674D01*
X-1563315Y-3230674D02*
X-1563315Y-3278293D01*
X-1563315Y-3278293D02*
X-1572839Y-3316388D01*
X-1572839Y-3316388D02*
X-1582362Y-3335436D01*
X-1582362Y-3335436D02*
X-1591886Y-3344960D01*
X-1591886Y-3344960D02*
X-1610934Y-3354484D01*
X-1610934Y-3354484D02*
X-1629982Y-3354484D01*
X-1629982Y-3354484D02*
X-1649029Y-3344960D01*
X-1649029Y-3344960D02*
X-1658553Y-3335436D01*
X-1658553Y-3335436D02*
X-1668077Y-3316388D01*
X-1668077Y-3316388D02*
X-1677601Y-3278293D01*
X-1677601Y-3278293D02*
X-1677601Y-3230674D01*
X-1677601Y-3230674D02*
X-1668077Y-3192579D01*
X-1668077Y-3192579D02*
X-1658553Y-3173531D01*
X-1658553Y-3173531D02*
X-1649029Y-3164008D01*
X-1649029Y-3164008D02*
X-1629982Y-3154484D01*
X-1439505Y-3154484D02*
X-1420458Y-3154484D01*
X-1420458Y-3154484D02*
X-1401410Y-3164008D01*
X-1401410Y-3164008D02*
X-1391886Y-3173531D01*
X-1391886Y-3173531D02*
X-1382363Y-3192579D01*
X-1382363Y-3192579D02*
X-1372839Y-3230674D01*
X-1372839Y-3230674D02*
X-1372839Y-3278293D01*
X-1372839Y-3278293D02*
X-1382363Y-3316388D01*
X-1382363Y-3316388D02*
X-1391886Y-3335436D01*
X-1391886Y-3335436D02*
X-1401410Y-3344960D01*
X-1401410Y-3344960D02*
X-1420458Y-3354484D01*
X-1420458Y-3354484D02*
X-1439505Y-3354484D01*
X-1439505Y-3354484D02*
X-1458553Y-3344960D01*
X-1458553Y-3344960D02*
X-1468077Y-3335436D01*
X-1468077Y-3335436D02*
X-1477601Y-3316388D01*
X-1477601Y-3316388D02*
X-1487124Y-3278293D01*
X-1487124Y-3278293D02*
X-1487124Y-3230674D01*
X-1487124Y-3230674D02*
X-1477601Y-3192579D01*
X-1477601Y-3192579D02*
X-1468077Y-3173531D01*
X-1468077Y-3173531D02*
X-1458553Y-3164008D01*
X-1458553Y-3164008D02*
X-1439505Y-3154484D01*
X-1287124Y-3354484D02*
X-1287124Y-3221150D01*
X-1287124Y-3240198D02*
X-1277601Y-3230674D01*
X-1277601Y-3230674D02*
X-1258553Y-3221150D01*
X-1258553Y-3221150D02*
X-1229982Y-3221150D01*
X-1229982Y-3221150D02*
X-1210934Y-3230674D01*
X-1210934Y-3230674D02*
X-1201410Y-3249722D01*
X-1201410Y-3249722D02*
X-1201410Y-3354484D01*
X-1201410Y-3249722D02*
X-1191886Y-3230674D01*
X-1191886Y-3230674D02*
X-1172839Y-3221150D01*
X-1172839Y-3221150D02*
X-1144267Y-3221150D01*
X-1144267Y-3221150D02*
X-1125220Y-3230674D01*
X-1125220Y-3230674D02*
X-1115696Y-3249722D01*
X-1115696Y-3249722D02*
X-1115696Y-3354484D01*
X-1020458Y-3354484D02*
X-1020458Y-3221150D01*
X-1020458Y-3240198D02*
X-1010934Y-3230674D01*
X-1010934Y-3230674D02*
X-991886Y-3221150D01*
X-991886Y-3221150D02*
X-963315Y-3221150D01*
X-963315Y-3221150D02*
X-944267Y-3230674D01*
X-944267Y-3230674D02*
X-934743Y-3249722D01*
X-934743Y-3249722D02*
X-934743Y-3354484D01*
X-934743Y-3249722D02*
X-925220Y-3230674D01*
X-925220Y-3230674D02*
X-906172Y-3221150D01*
X-906172Y-3221150D02*
X-877601Y-3221150D01*
X-877601Y-3221150D02*
X-858553Y-3230674D01*
X-858553Y-3230674D02*
X-849029Y-3249722D01*
X-849029Y-3249722D02*
X-849029Y-3354484D01*
X-458553Y-3144960D02*
X-629981Y-3402103D01*
X-201410Y-3154484D02*
X-182362Y-3154484D01*
X-182362Y-3154484D02*
X-163315Y-3164008D01*
X-163315Y-3164008D02*
X-153791Y-3173531D01*
X-153791Y-3173531D02*
X-144267Y-3192579D01*
X-144267Y-3192579D02*
X-134743Y-3230674D01*
X-134743Y-3230674D02*
X-134743Y-3278293D01*
X-134743Y-3278293D02*
X-144267Y-3316388D01*
X-144267Y-3316388D02*
X-153791Y-3335436D01*
X-153791Y-3335436D02*
X-163315Y-3344960D01*
X-163315Y-3344960D02*
X-182362Y-3354484D01*
X-182362Y-3354484D02*
X-201410Y-3354484D01*
X-201410Y-3354484D02*
X-220458Y-3344960D01*
X-220458Y-3344960D02*
X-229981Y-3335436D01*
X-229981Y-3335436D02*
X-239505Y-3316388D01*
X-239505Y-3316388D02*
X-249029Y-3278293D01*
X-249029Y-3278293D02*
X-249029Y-3230674D01*
X-249029Y-3230674D02*
X-239505Y-3192579D01*
X-239505Y-3192579D02*
X-229981Y-3173531D01*
X-229981Y-3173531D02*
X-220458Y-3164008D01*
X-220458Y-3164008D02*
X-201410Y-3154484D01*
X-49029Y-3335436D02*
X-39505Y-3344960D01*
X-39505Y-3344960D02*
X-49029Y-3354484D01*
X-49029Y-3354484D02*
X-58553Y-3344960D01*
X-58553Y-3344960D02*
X-49029Y-3335436D01*
X-49029Y-3335436D02*
X-49029Y-3354484D01*
X84304Y-3154484D02*
X103352Y-3154484D01*
X103352Y-3154484D02*
X122400Y-3164008D01*
X122400Y-3164008D02*
X131923Y-3173531D01*
X131923Y-3173531D02*
X141447Y-3192579D01*
X141447Y-3192579D02*
X150971Y-3230674D01*
X150971Y-3230674D02*
X150971Y-3278293D01*
X150971Y-3278293D02*
X141447Y-3316388D01*
X141447Y-3316388D02*
X131923Y-3335436D01*
X131923Y-3335436D02*
X122400Y-3344960D01*
X122400Y-3344960D02*
X103352Y-3354484D01*
X103352Y-3354484D02*
X84304Y-3354484D01*
X84304Y-3354484D02*
X65257Y-3344960D01*
X65257Y-3344960D02*
X55733Y-3335436D01*
X55733Y-3335436D02*
X46209Y-3316388D01*
X46209Y-3316388D02*
X36685Y-3278293D01*
X36685Y-3278293D02*
X36685Y-3230674D01*
X36685Y-3230674D02*
X46209Y-3192579D01*
X46209Y-3192579D02*
X55733Y-3173531D01*
X55733Y-3173531D02*
X65257Y-3164008D01*
X65257Y-3164008D02*
X84304Y-3154484D01*
X274781Y-3154484D02*
X293828Y-3154484D01*
X293828Y-3154484D02*
X312876Y-3164008D01*
X312876Y-3164008D02*
X322400Y-3173531D01*
X322400Y-3173531D02*
X331923Y-3192579D01*
X331923Y-3192579D02*
X341447Y-3230674D01*
X341447Y-3230674D02*
X341447Y-3278293D01*
X341447Y-3278293D02*
X331923Y-3316388D01*
X331923Y-3316388D02*
X322400Y-3335436D01*
X322400Y-3335436D02*
X312876Y-3344960D01*
X312876Y-3344960D02*
X293828Y-3354484D01*
X293828Y-3354484D02*
X274781Y-3354484D01*
X274781Y-3354484D02*
X255733Y-3344960D01*
X255733Y-3344960D02*
X246209Y-3335436D01*
X246209Y-3335436D02*
X236685Y-3316388D01*
X236685Y-3316388D02*
X227161Y-3278293D01*
X227161Y-3278293D02*
X227161Y-3230674D01*
X227161Y-3230674D02*
X236685Y-3192579D01*
X236685Y-3192579D02*
X246209Y-3173531D01*
X246209Y-3173531D02*
X255733Y-3164008D01*
X255733Y-3164008D02*
X274781Y-3154484D01*
X408114Y-3154484D02*
X541447Y-3154484D01*
X541447Y-3154484D02*
X455733Y-3354484D01*
X627162Y-3354484D02*
X665257Y-3354484D01*
X665257Y-3354484D02*
X684304Y-3344960D01*
X684304Y-3344960D02*
X693828Y-3335436D01*
X693828Y-3335436D02*
X712876Y-3306865D01*
X712876Y-3306865D02*
X722400Y-3268769D01*
X722400Y-3268769D02*
X722400Y-3192579D01*
X722400Y-3192579D02*
X712876Y-3173531D01*
X712876Y-3173531D02*
X703352Y-3164008D01*
X703352Y-3164008D02*
X684304Y-3154484D01*
X684304Y-3154484D02*
X646209Y-3154484D01*
X646209Y-3154484D02*
X627162Y-3164008D01*
X627162Y-3164008D02*
X617638Y-3173531D01*
X617638Y-3173531D02*
X608114Y-3192579D01*
X608114Y-3192579D02*
X608114Y-3240198D01*
X608114Y-3240198D02*
X617638Y-3259246D01*
X617638Y-3259246D02*
X627162Y-3268769D01*
X627162Y-3268769D02*
X646209Y-3278293D01*
X646209Y-3278293D02*
X684304Y-3278293D01*
X684304Y-3278293D02*
X703352Y-3268769D01*
X703352Y-3268769D02*
X712876Y-3259246D01*
X712876Y-3259246D02*
X722400Y-3240198D01*
X798590Y-3154484D02*
X798590Y-3192579D01*
X874781Y-3154484D02*
X874781Y-3192579D01*
X1170019Y-3430674D02*
X1160495Y-3421150D01*
X1160495Y-3421150D02*
X1141447Y-3392579D01*
X1141447Y-3392579D02*
X1131924Y-3373531D01*
X1131924Y-3373531D02*
X1122400Y-3344960D01*
X1122400Y-3344960D02*
X1112876Y-3297341D01*
X1112876Y-3297341D02*
X1112876Y-3259246D01*
X1112876Y-3259246D02*
X1122400Y-3211627D01*
X1122400Y-3211627D02*
X1131924Y-3183055D01*
X1131924Y-3183055D02*
X1141447Y-3164008D01*
X1141447Y-3164008D02*
X1160495Y-3135436D01*
X1160495Y-3135436D02*
X1170019Y-3125912D01*
X1350971Y-3354484D02*
X1236685Y-3354484D01*
X1293828Y-3354484D02*
X1293828Y-3154484D01*
X1293828Y-3154484D02*
X1274781Y-3183055D01*
X1274781Y-3183055D02*
X1255733Y-3202103D01*
X1255733Y-3202103D02*
X1236685Y-3211627D01*
X1427162Y-3173531D02*
X1436685Y-3164008D01*
X1436685Y-3164008D02*
X1455733Y-3154484D01*
X1455733Y-3154484D02*
X1503352Y-3154484D01*
X1503352Y-3154484D02*
X1522400Y-3164008D01*
X1522400Y-3164008D02*
X1531923Y-3173531D01*
X1531923Y-3173531D02*
X1541447Y-3192579D01*
X1541447Y-3192579D02*
X1541447Y-3211627D01*
X1541447Y-3211627D02*
X1531923Y-3240198D01*
X1531923Y-3240198D02*
X1417638Y-3354484D01*
X1417638Y-3354484D02*
X1541447Y-3354484D01*
X1779543Y-3354484D02*
X1779543Y-3154484D01*
X1865257Y-3354484D02*
X1865257Y-3249722D01*
X1865257Y-3249722D02*
X1855733Y-3230674D01*
X1855733Y-3230674D02*
X1836685Y-3221150D01*
X1836685Y-3221150D02*
X1808114Y-3221150D01*
X1808114Y-3221150D02*
X1789066Y-3230674D01*
X1789066Y-3230674D02*
X1779543Y-3240198D01*
X1989066Y-3354484D02*
X1970019Y-3344960D01*
X1970019Y-3344960D02*
X1960495Y-3335436D01*
X1960495Y-3335436D02*
X1950971Y-3316388D01*
X1950971Y-3316388D02*
X1950971Y-3259246D01*
X1950971Y-3259246D02*
X1960495Y-3240198D01*
X1960495Y-3240198D02*
X1970019Y-3230674D01*
X1970019Y-3230674D02*
X1989066Y-3221150D01*
X1989066Y-3221150D02*
X2017638Y-3221150D01*
X2017638Y-3221150D02*
X2036685Y-3230674D01*
X2036685Y-3230674D02*
X2046209Y-3240198D01*
X2046209Y-3240198D02*
X2055733Y-3259246D01*
X2055733Y-3259246D02*
X2055733Y-3316388D01*
X2055733Y-3316388D02*
X2046209Y-3335436D01*
X2046209Y-3335436D02*
X2036685Y-3344960D01*
X2036685Y-3344960D02*
X2017638Y-3354484D01*
X2017638Y-3354484D02*
X1989066Y-3354484D01*
X2170019Y-3354484D02*
X2150971Y-3344960D01*
X2150971Y-3344960D02*
X2141447Y-3325912D01*
X2141447Y-3325912D02*
X2141447Y-3154484D01*
X2322400Y-3344960D02*
X2303352Y-3354484D01*
X2303352Y-3354484D02*
X2265257Y-3354484D01*
X2265257Y-3354484D02*
X2246209Y-3344960D01*
X2246209Y-3344960D02*
X2236686Y-3325912D01*
X2236686Y-3325912D02*
X2236686Y-3249722D01*
X2236686Y-3249722D02*
X2246209Y-3230674D01*
X2246209Y-3230674D02*
X2265257Y-3221150D01*
X2265257Y-3221150D02*
X2303352Y-3221150D01*
X2303352Y-3221150D02*
X2322400Y-3230674D01*
X2322400Y-3230674D02*
X2331924Y-3249722D01*
X2331924Y-3249722D02*
X2331924Y-3268769D01*
X2331924Y-3268769D02*
X2236686Y-3287817D01*
X2408114Y-3344960D02*
X2427162Y-3354484D01*
X2427162Y-3354484D02*
X2465257Y-3354484D01*
X2465257Y-3354484D02*
X2484305Y-3344960D01*
X2484305Y-3344960D02*
X2493828Y-3325912D01*
X2493828Y-3325912D02*
X2493828Y-3316388D01*
X2493828Y-3316388D02*
X2484305Y-3297341D01*
X2484305Y-3297341D02*
X2465257Y-3287817D01*
X2465257Y-3287817D02*
X2436686Y-3287817D01*
X2436686Y-3287817D02*
X2417638Y-3278293D01*
X2417638Y-3278293D02*
X2408114Y-3259246D01*
X2408114Y-3259246D02*
X2408114Y-3249722D01*
X2408114Y-3249722D02*
X2417638Y-3230674D01*
X2417638Y-3230674D02*
X2436686Y-3221150D01*
X2436686Y-3221150D02*
X2465257Y-3221150D01*
X2465257Y-3221150D02*
X2484305Y-3230674D01*
X2560495Y-3430674D02*
X2570019Y-3421150D01*
X2570019Y-3421150D02*
X2589067Y-3392579D01*
X2589067Y-3392579D02*
X2598590Y-3373531D01*
X2598590Y-3373531D02*
X2608114Y-3344960D01*
X2608114Y-3344960D02*
X2617638Y-3297341D01*
X2617638Y-3297341D02*
X2617638Y-3259246D01*
X2617638Y-3259246D02*
X2608114Y-3211627D01*
X2608114Y-3211627D02*
X2598590Y-3183055D01*
X2598590Y-3183055D02*
X2589067Y-3164008D01*
X2589067Y-3164008D02*
X2570019Y-3135436D01*
X2570019Y-3135436D02*
X2560495Y-3125912D01*
D10*
X-2425044Y-3507000D02*
X-2425044Y-3547000D01*
X-2445044Y-3527000D02*
X-2405044Y-3527000D01*
D11*
X-2106172Y-3418484D02*
X-2087124Y-3418484D01*
X-2087124Y-3418484D02*
X-2068077Y-3428008D01*
X-2068077Y-3428008D02*
X-2058553Y-3437531D01*
X-2058553Y-3437531D02*
X-2049029Y-3456579D01*
X-2049029Y-3456579D02*
X-2039505Y-3494674D01*
X-2039505Y-3494674D02*
X-2039505Y-3542293D01*
X-2039505Y-3542293D02*
X-2049029Y-3580388D01*
X-2049029Y-3580388D02*
X-2058553Y-3599436D01*
X-2058553Y-3599436D02*
X-2068077Y-3608960D01*
X-2068077Y-3608960D02*
X-2087124Y-3618484D01*
X-2087124Y-3618484D02*
X-2106172Y-3618484D01*
X-2106172Y-3618484D02*
X-2125220Y-3608960D01*
X-2125220Y-3608960D02*
X-2134744Y-3599436D01*
X-2134744Y-3599436D02*
X-2144267Y-3580388D01*
X-2144267Y-3580388D02*
X-2153791Y-3542293D01*
X-2153791Y-3542293D02*
X-2153791Y-3494674D01*
X-2153791Y-3494674D02*
X-2144267Y-3456579D01*
X-2144267Y-3456579D02*
X-2134744Y-3437531D01*
X-2134744Y-3437531D02*
X-2125220Y-3428008D01*
X-2125220Y-3428008D02*
X-2106172Y-3418484D01*
X-1953791Y-3599436D02*
X-1944267Y-3608960D01*
X-1944267Y-3608960D02*
X-1953791Y-3618484D01*
X-1953791Y-3618484D02*
X-1963315Y-3608960D01*
X-1963315Y-3608960D02*
X-1953791Y-3599436D01*
X-1953791Y-3599436D02*
X-1953791Y-3618484D01*
X-1772839Y-3485150D02*
X-1772839Y-3618484D01*
X-1820458Y-3408960D02*
X-1868077Y-3551817D01*
X-1868077Y-3551817D02*
X-1744267Y-3551817D01*
X-1629982Y-3418484D02*
X-1610934Y-3418484D01*
X-1610934Y-3418484D02*
X-1591886Y-3428008D01*
X-1591886Y-3428008D02*
X-1582362Y-3437531D01*
X-1582362Y-3437531D02*
X-1572839Y-3456579D01*
X-1572839Y-3456579D02*
X-1563315Y-3494674D01*
X-1563315Y-3494674D02*
X-1563315Y-3542293D01*
X-1563315Y-3542293D02*
X-1572839Y-3580388D01*
X-1572839Y-3580388D02*
X-1582362Y-3599436D01*
X-1582362Y-3599436D02*
X-1591886Y-3608960D01*
X-1591886Y-3608960D02*
X-1610934Y-3618484D01*
X-1610934Y-3618484D02*
X-1629982Y-3618484D01*
X-1629982Y-3618484D02*
X-1649029Y-3608960D01*
X-1649029Y-3608960D02*
X-1658553Y-3599436D01*
X-1658553Y-3599436D02*
X-1668077Y-3580388D01*
X-1668077Y-3580388D02*
X-1677601Y-3542293D01*
X-1677601Y-3542293D02*
X-1677601Y-3494674D01*
X-1677601Y-3494674D02*
X-1668077Y-3456579D01*
X-1668077Y-3456579D02*
X-1658553Y-3437531D01*
X-1658553Y-3437531D02*
X-1649029Y-3428008D01*
X-1649029Y-3428008D02*
X-1629982Y-3418484D01*
X-1439505Y-3418484D02*
X-1420458Y-3418484D01*
X-1420458Y-3418484D02*
X-1401410Y-3428008D01*
X-1401410Y-3428008D02*
X-1391886Y-3437531D01*
X-1391886Y-3437531D02*
X-1382363Y-3456579D01*
X-1382363Y-3456579D02*
X-1372839Y-3494674D01*
X-1372839Y-3494674D02*
X-1372839Y-3542293D01*
X-1372839Y-3542293D02*
X-1382363Y-3580388D01*
X-1382363Y-3580388D02*
X-1391886Y-3599436D01*
X-1391886Y-3599436D02*
X-1401410Y-3608960D01*
X-1401410Y-3608960D02*
X-1420458Y-3618484D01*
X-1420458Y-3618484D02*
X-1439505Y-3618484D01*
X-1439505Y-3618484D02*
X-1458553Y-3608960D01*
X-1458553Y-3608960D02*
X-1468077Y-3599436D01*
X-1468077Y-3599436D02*
X-1477601Y-3580388D01*
X-1477601Y-3580388D02*
X-1487124Y-3542293D01*
X-1487124Y-3542293D02*
X-1487124Y-3494674D01*
X-1487124Y-3494674D02*
X-1477601Y-3456579D01*
X-1477601Y-3456579D02*
X-1468077Y-3437531D01*
X-1468077Y-3437531D02*
X-1458553Y-3428008D01*
X-1458553Y-3428008D02*
X-1439505Y-3418484D01*
X-1287124Y-3618484D02*
X-1287124Y-3485150D01*
X-1287124Y-3504198D02*
X-1277601Y-3494674D01*
X-1277601Y-3494674D02*
X-1258553Y-3485150D01*
X-1258553Y-3485150D02*
X-1229982Y-3485150D01*
X-1229982Y-3485150D02*
X-1210934Y-3494674D01*
X-1210934Y-3494674D02*
X-1201410Y-3513722D01*
X-1201410Y-3513722D02*
X-1201410Y-3618484D01*
X-1201410Y-3513722D02*
X-1191886Y-3494674D01*
X-1191886Y-3494674D02*
X-1172839Y-3485150D01*
X-1172839Y-3485150D02*
X-1144267Y-3485150D01*
X-1144267Y-3485150D02*
X-1125220Y-3494674D01*
X-1125220Y-3494674D02*
X-1115696Y-3513722D01*
X-1115696Y-3513722D02*
X-1115696Y-3618484D01*
X-1020458Y-3618484D02*
X-1020458Y-3485150D01*
X-1020458Y-3504198D02*
X-1010934Y-3494674D01*
X-1010934Y-3494674D02*
X-991886Y-3485150D01*
X-991886Y-3485150D02*
X-963315Y-3485150D01*
X-963315Y-3485150D02*
X-944267Y-3494674D01*
X-944267Y-3494674D02*
X-934743Y-3513722D01*
X-934743Y-3513722D02*
X-934743Y-3618484D01*
X-934743Y-3513722D02*
X-925220Y-3494674D01*
X-925220Y-3494674D02*
X-906172Y-3485150D01*
X-906172Y-3485150D02*
X-877601Y-3485150D01*
X-877601Y-3485150D02*
X-858553Y-3494674D01*
X-858553Y-3494674D02*
X-849029Y-3513722D01*
X-849029Y-3513722D02*
X-849029Y-3618484D01*
X-458553Y-3408960D02*
X-629981Y-3666103D01*
X-201410Y-3418484D02*
X-182362Y-3418484D01*
X-182362Y-3418484D02*
X-163315Y-3428008D01*
X-163315Y-3428008D02*
X-153791Y-3437531D01*
X-153791Y-3437531D02*
X-144267Y-3456579D01*
X-144267Y-3456579D02*
X-134743Y-3494674D01*
X-134743Y-3494674D02*
X-134743Y-3542293D01*
X-134743Y-3542293D02*
X-144267Y-3580388D01*
X-144267Y-3580388D02*
X-153791Y-3599436D01*
X-153791Y-3599436D02*
X-163315Y-3608960D01*
X-163315Y-3608960D02*
X-182362Y-3618484D01*
X-182362Y-3618484D02*
X-201410Y-3618484D01*
X-201410Y-3618484D02*
X-220458Y-3608960D01*
X-220458Y-3608960D02*
X-229981Y-3599436D01*
X-229981Y-3599436D02*
X-239505Y-3580388D01*
X-239505Y-3580388D02*
X-249029Y-3542293D01*
X-249029Y-3542293D02*
X-249029Y-3494674D01*
X-249029Y-3494674D02*
X-239505Y-3456579D01*
X-239505Y-3456579D02*
X-229981Y-3437531D01*
X-229981Y-3437531D02*
X-220458Y-3428008D01*
X-220458Y-3428008D02*
X-201410Y-3418484D01*
X-49029Y-3599436D02*
X-39505Y-3608960D01*
X-39505Y-3608960D02*
X-49029Y-3618484D01*
X-49029Y-3618484D02*
X-58553Y-3608960D01*
X-58553Y-3608960D02*
X-49029Y-3599436D01*
X-49029Y-3599436D02*
X-49029Y-3618484D01*
X84304Y-3418484D02*
X103352Y-3418484D01*
X103352Y-3418484D02*
X122400Y-3428008D01*
X122400Y-3428008D02*
X131923Y-3437531D01*
X131923Y-3437531D02*
X141447Y-3456579D01*
X141447Y-3456579D02*
X150971Y-3494674D01*
X150971Y-3494674D02*
X150971Y-3542293D01*
X150971Y-3542293D02*
X141447Y-3580388D01*
X141447Y-3580388D02*
X131923Y-3599436D01*
X131923Y-3599436D02*
X122400Y-3608960D01*
X122400Y-3608960D02*
X103352Y-3618484D01*
X103352Y-3618484D02*
X84304Y-3618484D01*
X84304Y-3618484D02*
X65257Y-3608960D01*
X65257Y-3608960D02*
X55733Y-3599436D01*
X55733Y-3599436D02*
X46209Y-3580388D01*
X46209Y-3580388D02*
X36685Y-3542293D01*
X36685Y-3542293D02*
X36685Y-3494674D01*
X36685Y-3494674D02*
X46209Y-3456579D01*
X46209Y-3456579D02*
X55733Y-3437531D01*
X55733Y-3437531D02*
X65257Y-3428008D01*
X65257Y-3428008D02*
X84304Y-3418484D01*
X341447Y-3618484D02*
X227161Y-3618484D01*
X284304Y-3618484D02*
X284304Y-3418484D01*
X284304Y-3418484D02*
X265257Y-3447055D01*
X265257Y-3447055D02*
X246209Y-3466103D01*
X246209Y-3466103D02*
X227161Y-3475627D01*
X522400Y-3418484D02*
X427161Y-3418484D01*
X427161Y-3418484D02*
X417638Y-3513722D01*
X417638Y-3513722D02*
X427161Y-3504198D01*
X427161Y-3504198D02*
X446209Y-3494674D01*
X446209Y-3494674D02*
X493828Y-3494674D01*
X493828Y-3494674D02*
X512876Y-3504198D01*
X512876Y-3504198D02*
X522400Y-3513722D01*
X522400Y-3513722D02*
X531923Y-3532769D01*
X531923Y-3532769D02*
X531923Y-3580388D01*
X531923Y-3580388D02*
X522400Y-3599436D01*
X522400Y-3599436D02*
X512876Y-3608960D01*
X512876Y-3608960D02*
X493828Y-3618484D01*
X493828Y-3618484D02*
X446209Y-3618484D01*
X446209Y-3618484D02*
X427161Y-3608960D01*
X427161Y-3608960D02*
X417638Y-3599436D01*
X598590Y-3418484D02*
X731923Y-3418484D01*
X731923Y-3418484D02*
X646209Y-3618484D01*
X798590Y-3418484D02*
X798590Y-3456579D01*
X874781Y-3418484D02*
X874781Y-3456579D01*
X1170019Y-3694674D02*
X1160495Y-3685150D01*
X1160495Y-3685150D02*
X1141447Y-3656579D01*
X1141447Y-3656579D02*
X1131924Y-3637531D01*
X1131924Y-3637531D02*
X1122400Y-3608960D01*
X1122400Y-3608960D02*
X1112876Y-3561341D01*
X1112876Y-3561341D02*
X1112876Y-3523246D01*
X1112876Y-3523246D02*
X1122400Y-3475627D01*
X1122400Y-3475627D02*
X1131924Y-3447055D01*
X1131924Y-3447055D02*
X1141447Y-3428008D01*
X1141447Y-3428008D02*
X1160495Y-3399436D01*
X1160495Y-3399436D02*
X1170019Y-3389912D01*
X1350971Y-3618484D02*
X1236685Y-3618484D01*
X1293828Y-3618484D02*
X1293828Y-3418484D01*
X1293828Y-3418484D02*
X1274781Y-3447055D01*
X1274781Y-3447055D02*
X1255733Y-3466103D01*
X1255733Y-3466103D02*
X1236685Y-3475627D01*
X1417638Y-3418484D02*
X1541447Y-3418484D01*
X1541447Y-3418484D02*
X1474781Y-3494674D01*
X1474781Y-3494674D02*
X1503352Y-3494674D01*
X1503352Y-3494674D02*
X1522400Y-3504198D01*
X1522400Y-3504198D02*
X1531923Y-3513722D01*
X1531923Y-3513722D02*
X1541447Y-3532769D01*
X1541447Y-3532769D02*
X1541447Y-3580388D01*
X1541447Y-3580388D02*
X1531923Y-3599436D01*
X1531923Y-3599436D02*
X1522400Y-3608960D01*
X1522400Y-3608960D02*
X1503352Y-3618484D01*
X1503352Y-3618484D02*
X1446209Y-3618484D01*
X1446209Y-3618484D02*
X1427162Y-3608960D01*
X1427162Y-3608960D02*
X1417638Y-3599436D01*
X1779543Y-3618484D02*
X1779543Y-3418484D01*
X1865257Y-3618484D02*
X1865257Y-3513722D01*
X1865257Y-3513722D02*
X1855733Y-3494674D01*
X1855733Y-3494674D02*
X1836685Y-3485150D01*
X1836685Y-3485150D02*
X1808114Y-3485150D01*
X1808114Y-3485150D02*
X1789066Y-3494674D01*
X1789066Y-3494674D02*
X1779543Y-3504198D01*
X1989066Y-3618484D02*
X1970019Y-3608960D01*
X1970019Y-3608960D02*
X1960495Y-3599436D01*
X1960495Y-3599436D02*
X1950971Y-3580388D01*
X1950971Y-3580388D02*
X1950971Y-3523246D01*
X1950971Y-3523246D02*
X1960495Y-3504198D01*
X1960495Y-3504198D02*
X1970019Y-3494674D01*
X1970019Y-3494674D02*
X1989066Y-3485150D01*
X1989066Y-3485150D02*
X2017638Y-3485150D01*
X2017638Y-3485150D02*
X2036685Y-3494674D01*
X2036685Y-3494674D02*
X2046209Y-3504198D01*
X2046209Y-3504198D02*
X2055733Y-3523246D01*
X2055733Y-3523246D02*
X2055733Y-3580388D01*
X2055733Y-3580388D02*
X2046209Y-3599436D01*
X2046209Y-3599436D02*
X2036685Y-3608960D01*
X2036685Y-3608960D02*
X2017638Y-3618484D01*
X2017638Y-3618484D02*
X1989066Y-3618484D01*
X2170019Y-3618484D02*
X2150971Y-3608960D01*
X2150971Y-3608960D02*
X2141447Y-3589912D01*
X2141447Y-3589912D02*
X2141447Y-3418484D01*
X2322400Y-3608960D02*
X2303352Y-3618484D01*
X2303352Y-3618484D02*
X2265257Y-3618484D01*
X2265257Y-3618484D02*
X2246209Y-3608960D01*
X2246209Y-3608960D02*
X2236686Y-3589912D01*
X2236686Y-3589912D02*
X2236686Y-3513722D01*
X2236686Y-3513722D02*
X2246209Y-3494674D01*
X2246209Y-3494674D02*
X2265257Y-3485150D01*
X2265257Y-3485150D02*
X2303352Y-3485150D01*
X2303352Y-3485150D02*
X2322400Y-3494674D01*
X2322400Y-3494674D02*
X2331924Y-3513722D01*
X2331924Y-3513722D02*
X2331924Y-3532769D01*
X2331924Y-3532769D02*
X2236686Y-3551817D01*
X2408114Y-3608960D02*
X2427162Y-3618484D01*
X2427162Y-3618484D02*
X2465257Y-3618484D01*
X2465257Y-3618484D02*
X2484305Y-3608960D01*
X2484305Y-3608960D02*
X2493828Y-3589912D01*
X2493828Y-3589912D02*
X2493828Y-3580388D01*
X2493828Y-3580388D02*
X2484305Y-3561341D01*
X2484305Y-3561341D02*
X2465257Y-3551817D01*
X2465257Y-3551817D02*
X2436686Y-3551817D01*
X2436686Y-3551817D02*
X2417638Y-3542293D01*
X2417638Y-3542293D02*
X2408114Y-3523246D01*
X2408114Y-3523246D02*
X2408114Y-3513722D01*
X2408114Y-3513722D02*
X2417638Y-3494674D01*
X2417638Y-3494674D02*
X2436686Y-3485150D01*
X2436686Y-3485150D02*
X2465257Y-3485150D01*
X2465257Y-3485150D02*
X2484305Y-3494674D01*
X2560495Y-3694674D02*
X2570019Y-3685150D01*
X2570019Y-3685150D02*
X2589067Y-3656579D01*
X2589067Y-3656579D02*
X2598590Y-3637531D01*
X2598590Y-3637531D02*
X2608114Y-3608960D01*
X2608114Y-3608960D02*
X2617638Y-3561341D01*
X2617638Y-3561341D02*
X2617638Y-3523246D01*
X2617638Y-3523246D02*
X2608114Y-3475627D01*
X2608114Y-3475627D02*
X2598590Y-3447055D01*
X2598590Y-3447055D02*
X2589067Y-3428008D01*
X2589067Y-3428008D02*
X2570019Y-3399436D01*
X2570019Y-3399436D02*
X2560495Y-3389912D01*
D10*
X-2413831Y-3812213D02*
X-2413831Y-3769787D01*
X-2456258Y-3769787D01*
X-2456258Y-3812213D01*
X-2413831Y-3812213D01*
D11*
X-2106172Y-3682484D02*
X-2087124Y-3682484D01*
X-2087124Y-3682484D02*
X-2068077Y-3692008D01*
X-2068077Y-3692008D02*
X-2058553Y-3701531D01*
X-2058553Y-3701531D02*
X-2049029Y-3720579D01*
X-2049029Y-3720579D02*
X-2039505Y-3758674D01*
X-2039505Y-3758674D02*
X-2039505Y-3806293D01*
X-2039505Y-3806293D02*
X-2049029Y-3844388D01*
X-2049029Y-3844388D02*
X-2058553Y-3863436D01*
X-2058553Y-3863436D02*
X-2068077Y-3872960D01*
X-2068077Y-3872960D02*
X-2087124Y-3882484D01*
X-2087124Y-3882484D02*
X-2106172Y-3882484D01*
X-2106172Y-3882484D02*
X-2125220Y-3872960D01*
X-2125220Y-3872960D02*
X-2134744Y-3863436D01*
X-2134744Y-3863436D02*
X-2144267Y-3844388D01*
X-2144267Y-3844388D02*
X-2153791Y-3806293D01*
X-2153791Y-3806293D02*
X-2153791Y-3758674D01*
X-2153791Y-3758674D02*
X-2144267Y-3720579D01*
X-2144267Y-3720579D02*
X-2134744Y-3701531D01*
X-2134744Y-3701531D02*
X-2125220Y-3692008D01*
X-2125220Y-3692008D02*
X-2106172Y-3682484D01*
X-1953791Y-3863436D02*
X-1944267Y-3872960D01*
X-1944267Y-3872960D02*
X-1953791Y-3882484D01*
X-1953791Y-3882484D02*
X-1963315Y-3872960D01*
X-1963315Y-3872960D02*
X-1953791Y-3863436D01*
X-1953791Y-3863436D02*
X-1953791Y-3882484D01*
X-1772839Y-3682484D02*
X-1810934Y-3682484D01*
X-1810934Y-3682484D02*
X-1829982Y-3692008D01*
X-1829982Y-3692008D02*
X-1839505Y-3701531D01*
X-1839505Y-3701531D02*
X-1858553Y-3730103D01*
X-1858553Y-3730103D02*
X-1868077Y-3768198D01*
X-1868077Y-3768198D02*
X-1868077Y-3844388D01*
X-1868077Y-3844388D02*
X-1858553Y-3863436D01*
X-1858553Y-3863436D02*
X-1849029Y-3872960D01*
X-1849029Y-3872960D02*
X-1829982Y-3882484D01*
X-1829982Y-3882484D02*
X-1791886Y-3882484D01*
X-1791886Y-3882484D02*
X-1772839Y-3872960D01*
X-1772839Y-3872960D02*
X-1763315Y-3863436D01*
X-1763315Y-3863436D02*
X-1753791Y-3844388D01*
X-1753791Y-3844388D02*
X-1753791Y-3796769D01*
X-1753791Y-3796769D02*
X-1763315Y-3777722D01*
X-1763315Y-3777722D02*
X-1772839Y-3768198D01*
X-1772839Y-3768198D02*
X-1791886Y-3758674D01*
X-1791886Y-3758674D02*
X-1829982Y-3758674D01*
X-1829982Y-3758674D02*
X-1849029Y-3768198D01*
X-1849029Y-3768198D02*
X-1858553Y-3777722D01*
X-1858553Y-3777722D02*
X-1868077Y-3796769D01*
X-1629982Y-3682484D02*
X-1610934Y-3682484D01*
X-1610934Y-3682484D02*
X-1591886Y-3692008D01*
X-1591886Y-3692008D02*
X-1582362Y-3701531D01*
X-1582362Y-3701531D02*
X-1572839Y-3720579D01*
X-1572839Y-3720579D02*
X-1563315Y-3758674D01*
X-1563315Y-3758674D02*
X-1563315Y-3806293D01*
X-1563315Y-3806293D02*
X-1572839Y-3844388D01*
X-1572839Y-3844388D02*
X-1582362Y-3863436D01*
X-1582362Y-3863436D02*
X-1591886Y-3872960D01*
X-1591886Y-3872960D02*
X-1610934Y-3882484D01*
X-1610934Y-3882484D02*
X-1629982Y-3882484D01*
X-1629982Y-3882484D02*
X-1649029Y-3872960D01*
X-1649029Y-3872960D02*
X-1658553Y-3863436D01*
X-1658553Y-3863436D02*
X-1668077Y-3844388D01*
X-1668077Y-3844388D02*
X-1677601Y-3806293D01*
X-1677601Y-3806293D02*
X-1677601Y-3758674D01*
X-1677601Y-3758674D02*
X-1668077Y-3720579D01*
X-1668077Y-3720579D02*
X-1658553Y-3701531D01*
X-1658553Y-3701531D02*
X-1649029Y-3692008D01*
X-1649029Y-3692008D02*
X-1629982Y-3682484D01*
X-1439505Y-3682484D02*
X-1420458Y-3682484D01*
X-1420458Y-3682484D02*
X-1401410Y-3692008D01*
X-1401410Y-3692008D02*
X-1391886Y-3701531D01*
X-1391886Y-3701531D02*
X-1382363Y-3720579D01*
X-1382363Y-3720579D02*
X-1372839Y-3758674D01*
X-1372839Y-3758674D02*
X-1372839Y-3806293D01*
X-1372839Y-3806293D02*
X-1382363Y-3844388D01*
X-1382363Y-3844388D02*
X-1391886Y-3863436D01*
X-1391886Y-3863436D02*
X-1401410Y-3872960D01*
X-1401410Y-3872960D02*
X-1420458Y-3882484D01*
X-1420458Y-3882484D02*
X-1439505Y-3882484D01*
X-1439505Y-3882484D02*
X-1458553Y-3872960D01*
X-1458553Y-3872960D02*
X-1468077Y-3863436D01*
X-1468077Y-3863436D02*
X-1477601Y-3844388D01*
X-1477601Y-3844388D02*
X-1487124Y-3806293D01*
X-1487124Y-3806293D02*
X-1487124Y-3758674D01*
X-1487124Y-3758674D02*
X-1477601Y-3720579D01*
X-1477601Y-3720579D02*
X-1468077Y-3701531D01*
X-1468077Y-3701531D02*
X-1458553Y-3692008D01*
X-1458553Y-3692008D02*
X-1439505Y-3682484D01*
X-1287124Y-3882484D02*
X-1287124Y-3749150D01*
X-1287124Y-3768198D02*
X-1277601Y-3758674D01*
X-1277601Y-3758674D02*
X-1258553Y-3749150D01*
X-1258553Y-3749150D02*
X-1229982Y-3749150D01*
X-1229982Y-3749150D02*
X-1210934Y-3758674D01*
X-1210934Y-3758674D02*
X-1201410Y-3777722D01*
X-1201410Y-3777722D02*
X-1201410Y-3882484D01*
X-1201410Y-3777722D02*
X-1191886Y-3758674D01*
X-1191886Y-3758674D02*
X-1172839Y-3749150D01*
X-1172839Y-3749150D02*
X-1144267Y-3749150D01*
X-1144267Y-3749150D02*
X-1125220Y-3758674D01*
X-1125220Y-3758674D02*
X-1115696Y-3777722D01*
X-1115696Y-3777722D02*
X-1115696Y-3882484D01*
X-1020458Y-3882484D02*
X-1020458Y-3749150D01*
X-1020458Y-3768198D02*
X-1010934Y-3758674D01*
X-1010934Y-3758674D02*
X-991886Y-3749150D01*
X-991886Y-3749150D02*
X-963315Y-3749150D01*
X-963315Y-3749150D02*
X-944267Y-3758674D01*
X-944267Y-3758674D02*
X-934743Y-3777722D01*
X-934743Y-3777722D02*
X-934743Y-3882484D01*
X-934743Y-3777722D02*
X-925220Y-3758674D01*
X-925220Y-3758674D02*
X-906172Y-3749150D01*
X-906172Y-3749150D02*
X-877601Y-3749150D01*
X-877601Y-3749150D02*
X-858553Y-3758674D01*
X-858553Y-3758674D02*
X-849029Y-3777722D01*
X-849029Y-3777722D02*
X-849029Y-3882484D01*
X-458553Y-3672960D02*
X-629981Y-3930103D01*
X-201410Y-3682484D02*
X-182362Y-3682484D01*
X-182362Y-3682484D02*
X-163315Y-3692008D01*
X-163315Y-3692008D02*
X-153791Y-3701531D01*
X-153791Y-3701531D02*
X-144267Y-3720579D01*
X-144267Y-3720579D02*
X-134743Y-3758674D01*
X-134743Y-3758674D02*
X-134743Y-3806293D01*
X-134743Y-3806293D02*
X-144267Y-3844388D01*
X-144267Y-3844388D02*
X-153791Y-3863436D01*
X-153791Y-3863436D02*
X-163315Y-3872960D01*
X-163315Y-3872960D02*
X-182362Y-3882484D01*
X-182362Y-3882484D02*
X-201410Y-3882484D01*
X-201410Y-3882484D02*
X-220458Y-3872960D01*
X-220458Y-3872960D02*
X-229981Y-3863436D01*
X-229981Y-3863436D02*
X-239505Y-3844388D01*
X-239505Y-3844388D02*
X-249029Y-3806293D01*
X-249029Y-3806293D02*
X-249029Y-3758674D01*
X-249029Y-3758674D02*
X-239505Y-3720579D01*
X-239505Y-3720579D02*
X-229981Y-3701531D01*
X-229981Y-3701531D02*
X-220458Y-3692008D01*
X-220458Y-3692008D02*
X-201410Y-3682484D01*
X-49029Y-3863436D02*
X-39505Y-3872960D01*
X-39505Y-3872960D02*
X-49029Y-3882484D01*
X-49029Y-3882484D02*
X-58553Y-3872960D01*
X-58553Y-3872960D02*
X-49029Y-3863436D01*
X-49029Y-3863436D02*
X-49029Y-3882484D01*
X84304Y-3682484D02*
X103352Y-3682484D01*
X103352Y-3682484D02*
X122400Y-3692008D01*
X122400Y-3692008D02*
X131923Y-3701531D01*
X131923Y-3701531D02*
X141447Y-3720579D01*
X141447Y-3720579D02*
X150971Y-3758674D01*
X150971Y-3758674D02*
X150971Y-3806293D01*
X150971Y-3806293D02*
X141447Y-3844388D01*
X141447Y-3844388D02*
X131923Y-3863436D01*
X131923Y-3863436D02*
X122400Y-3872960D01*
X122400Y-3872960D02*
X103352Y-3882484D01*
X103352Y-3882484D02*
X84304Y-3882484D01*
X84304Y-3882484D02*
X65257Y-3872960D01*
X65257Y-3872960D02*
X55733Y-3863436D01*
X55733Y-3863436D02*
X46209Y-3844388D01*
X46209Y-3844388D02*
X36685Y-3806293D01*
X36685Y-3806293D02*
X36685Y-3758674D01*
X36685Y-3758674D02*
X46209Y-3720579D01*
X46209Y-3720579D02*
X55733Y-3701531D01*
X55733Y-3701531D02*
X65257Y-3692008D01*
X65257Y-3692008D02*
X84304Y-3682484D01*
X227161Y-3701531D02*
X236685Y-3692008D01*
X236685Y-3692008D02*
X255733Y-3682484D01*
X255733Y-3682484D02*
X303352Y-3682484D01*
X303352Y-3682484D02*
X322400Y-3692008D01*
X322400Y-3692008D02*
X331923Y-3701531D01*
X331923Y-3701531D02*
X341447Y-3720579D01*
X341447Y-3720579D02*
X341447Y-3739627D01*
X341447Y-3739627D02*
X331923Y-3768198D01*
X331923Y-3768198D02*
X217638Y-3882484D01*
X217638Y-3882484D02*
X341447Y-3882484D01*
X408114Y-3682484D02*
X531923Y-3682484D01*
X531923Y-3682484D02*
X465257Y-3758674D01*
X465257Y-3758674D02*
X493828Y-3758674D01*
X493828Y-3758674D02*
X512876Y-3768198D01*
X512876Y-3768198D02*
X522400Y-3777722D01*
X522400Y-3777722D02*
X531923Y-3796769D01*
X531923Y-3796769D02*
X531923Y-3844388D01*
X531923Y-3844388D02*
X522400Y-3863436D01*
X522400Y-3863436D02*
X512876Y-3872960D01*
X512876Y-3872960D02*
X493828Y-3882484D01*
X493828Y-3882484D02*
X436685Y-3882484D01*
X436685Y-3882484D02*
X417638Y-3872960D01*
X417638Y-3872960D02*
X408114Y-3863436D01*
X703352Y-3682484D02*
X665257Y-3682484D01*
X665257Y-3682484D02*
X646209Y-3692008D01*
X646209Y-3692008D02*
X636685Y-3701531D01*
X636685Y-3701531D02*
X617638Y-3730103D01*
X617638Y-3730103D02*
X608114Y-3768198D01*
X608114Y-3768198D02*
X608114Y-3844388D01*
X608114Y-3844388D02*
X617638Y-3863436D01*
X617638Y-3863436D02*
X627162Y-3872960D01*
X627162Y-3872960D02*
X646209Y-3882484D01*
X646209Y-3882484D02*
X684304Y-3882484D01*
X684304Y-3882484D02*
X703352Y-3872960D01*
X703352Y-3872960D02*
X712876Y-3863436D01*
X712876Y-3863436D02*
X722400Y-3844388D01*
X722400Y-3844388D02*
X722400Y-3796769D01*
X722400Y-3796769D02*
X712876Y-3777722D01*
X712876Y-3777722D02*
X703352Y-3768198D01*
X703352Y-3768198D02*
X684304Y-3758674D01*
X684304Y-3758674D02*
X646209Y-3758674D01*
X646209Y-3758674D02*
X627162Y-3768198D01*
X627162Y-3768198D02*
X617638Y-3777722D01*
X617638Y-3777722D02*
X608114Y-3796769D01*
X798590Y-3682484D02*
X798590Y-3720579D01*
X874781Y-3682484D02*
X874781Y-3720579D01*
X1170019Y-3958674D02*
X1160495Y-3949150D01*
X1160495Y-3949150D02*
X1141447Y-3920579D01*
X1141447Y-3920579D02*
X1131924Y-3901531D01*
X1131924Y-3901531D02*
X1122400Y-3872960D01*
X1122400Y-3872960D02*
X1112876Y-3825341D01*
X1112876Y-3825341D02*
X1112876Y-3787246D01*
X1112876Y-3787246D02*
X1122400Y-3739627D01*
X1122400Y-3739627D02*
X1131924Y-3711055D01*
X1131924Y-3711055D02*
X1141447Y-3692008D01*
X1141447Y-3692008D02*
X1160495Y-3663436D01*
X1160495Y-3663436D02*
X1170019Y-3653912D01*
X1284304Y-3682484D02*
X1303352Y-3682484D01*
X1303352Y-3682484D02*
X1322400Y-3692008D01*
X1322400Y-3692008D02*
X1331924Y-3701531D01*
X1331924Y-3701531D02*
X1341447Y-3720579D01*
X1341447Y-3720579D02*
X1350971Y-3758674D01*
X1350971Y-3758674D02*
X1350971Y-3806293D01*
X1350971Y-3806293D02*
X1341447Y-3844388D01*
X1341447Y-3844388D02*
X1331924Y-3863436D01*
X1331924Y-3863436D02*
X1322400Y-3872960D01*
X1322400Y-3872960D02*
X1303352Y-3882484D01*
X1303352Y-3882484D02*
X1284304Y-3882484D01*
X1284304Y-3882484D02*
X1265257Y-3872960D01*
X1265257Y-3872960D02*
X1255733Y-3863436D01*
X1255733Y-3863436D02*
X1246209Y-3844388D01*
X1246209Y-3844388D02*
X1236685Y-3806293D01*
X1236685Y-3806293D02*
X1236685Y-3758674D01*
X1236685Y-3758674D02*
X1246209Y-3720579D01*
X1246209Y-3720579D02*
X1255733Y-3701531D01*
X1255733Y-3701531D02*
X1265257Y-3692008D01*
X1265257Y-3692008D02*
X1284304Y-3682484D01*
X1589066Y-3882484D02*
X1589066Y-3682484D01*
X1674781Y-3882484D02*
X1674781Y-3777722D01*
X1674781Y-3777722D02*
X1665257Y-3758674D01*
X1665257Y-3758674D02*
X1646209Y-3749150D01*
X1646209Y-3749150D02*
X1617638Y-3749150D01*
X1617638Y-3749150D02*
X1598590Y-3758674D01*
X1598590Y-3758674D02*
X1589066Y-3768198D01*
X1798590Y-3882484D02*
X1779543Y-3872960D01*
X1779543Y-3872960D02*
X1770019Y-3863436D01*
X1770019Y-3863436D02*
X1760495Y-3844388D01*
X1760495Y-3844388D02*
X1760495Y-3787246D01*
X1760495Y-3787246D02*
X1770019Y-3768198D01*
X1770019Y-3768198D02*
X1779543Y-3758674D01*
X1779543Y-3758674D02*
X1798590Y-3749150D01*
X1798590Y-3749150D02*
X1827162Y-3749150D01*
X1827162Y-3749150D02*
X1846209Y-3758674D01*
X1846209Y-3758674D02*
X1855733Y-3768198D01*
X1855733Y-3768198D02*
X1865257Y-3787246D01*
X1865257Y-3787246D02*
X1865257Y-3844388D01*
X1865257Y-3844388D02*
X1855733Y-3863436D01*
X1855733Y-3863436D02*
X1846209Y-3872960D01*
X1846209Y-3872960D02*
X1827162Y-3882484D01*
X1827162Y-3882484D02*
X1798590Y-3882484D01*
X1979543Y-3882484D02*
X1960495Y-3872960D01*
X1960495Y-3872960D02*
X1950971Y-3853912D01*
X1950971Y-3853912D02*
X1950971Y-3682484D01*
X2131924Y-3872960D02*
X2112876Y-3882484D01*
X2112876Y-3882484D02*
X2074781Y-3882484D01*
X2074781Y-3882484D02*
X2055733Y-3872960D01*
X2055733Y-3872960D02*
X2046209Y-3853912D01*
X2046209Y-3853912D02*
X2046209Y-3777722D01*
X2046209Y-3777722D02*
X2055733Y-3758674D01*
X2055733Y-3758674D02*
X2074781Y-3749150D01*
X2074781Y-3749150D02*
X2112876Y-3749150D01*
X2112876Y-3749150D02*
X2131924Y-3758674D01*
X2131924Y-3758674D02*
X2141447Y-3777722D01*
X2141447Y-3777722D02*
X2141447Y-3796769D01*
X2141447Y-3796769D02*
X2046209Y-3815817D01*
X2217638Y-3872960D02*
X2236686Y-3882484D01*
X2236686Y-3882484D02*
X2274781Y-3882484D01*
X2274781Y-3882484D02*
X2293828Y-3872960D01*
X2293828Y-3872960D02*
X2303352Y-3853912D01*
X2303352Y-3853912D02*
X2303352Y-3844388D01*
X2303352Y-3844388D02*
X2293828Y-3825341D01*
X2293828Y-3825341D02*
X2274781Y-3815817D01*
X2274781Y-3815817D02*
X2246209Y-3815817D01*
X2246209Y-3815817D02*
X2227162Y-3806293D01*
X2227162Y-3806293D02*
X2217638Y-3787246D01*
X2217638Y-3787246D02*
X2217638Y-3777722D01*
X2217638Y-3777722D02*
X2227162Y-3758674D01*
X2227162Y-3758674D02*
X2246209Y-3749150D01*
X2246209Y-3749150D02*
X2274781Y-3749150D01*
X2274781Y-3749150D02*
X2293828Y-3758674D01*
X2541448Y-3806293D02*
X2693829Y-3806293D01*
X2617638Y-3882484D02*
X2617638Y-3730103D01*
X3027162Y-3749150D02*
X3027162Y-3882484D01*
X2979543Y-3672960D02*
X2931924Y-3815817D01*
X2931924Y-3815817D02*
X3055733Y-3815817D01*
X3274781Y-3872960D02*
X3293828Y-3882484D01*
X3293828Y-3882484D02*
X3331924Y-3882484D01*
X3331924Y-3882484D02*
X3350971Y-3872960D01*
X3350971Y-3872960D02*
X3360495Y-3853912D01*
X3360495Y-3853912D02*
X3360495Y-3844388D01*
X3360495Y-3844388D02*
X3350971Y-3825341D01*
X3350971Y-3825341D02*
X3331924Y-3815817D01*
X3331924Y-3815817D02*
X3303352Y-3815817D01*
X3303352Y-3815817D02*
X3284305Y-3806293D01*
X3284305Y-3806293D02*
X3274781Y-3787246D01*
X3274781Y-3787246D02*
X3274781Y-3777722D01*
X3274781Y-3777722D02*
X3284305Y-3758674D01*
X3284305Y-3758674D02*
X3303352Y-3749150D01*
X3303352Y-3749150D02*
X3331924Y-3749150D01*
X3331924Y-3749150D02*
X3350971Y-3758674D01*
X3474781Y-3882484D02*
X3455733Y-3872960D01*
X3455733Y-3872960D02*
X3446209Y-3853912D01*
X3446209Y-3853912D02*
X3446209Y-3682484D01*
X3579543Y-3882484D02*
X3560495Y-3872960D01*
X3560495Y-3872960D02*
X3550971Y-3863436D01*
X3550971Y-3863436D02*
X3541448Y-3844388D01*
X3541448Y-3844388D02*
X3541448Y-3787246D01*
X3541448Y-3787246D02*
X3550971Y-3768198D01*
X3550971Y-3768198D02*
X3560495Y-3758674D01*
X3560495Y-3758674D02*
X3579543Y-3749150D01*
X3579543Y-3749150D02*
X3608114Y-3749150D01*
X3608114Y-3749150D02*
X3627162Y-3758674D01*
X3627162Y-3758674D02*
X3636686Y-3768198D01*
X3636686Y-3768198D02*
X3646209Y-3787246D01*
X3646209Y-3787246D02*
X3646209Y-3844388D01*
X3646209Y-3844388D02*
X3636686Y-3863436D01*
X3636686Y-3863436D02*
X3627162Y-3872960D01*
X3627162Y-3872960D02*
X3608114Y-3882484D01*
X3608114Y-3882484D02*
X3579543Y-3882484D01*
X3703352Y-3749150D02*
X3779543Y-3749150D01*
X3731924Y-3682484D02*
X3731924Y-3853912D01*
X3731924Y-3853912D02*
X3741448Y-3872960D01*
X3741448Y-3872960D02*
X3760495Y-3882484D01*
X3760495Y-3882484D02*
X3779543Y-3882484D01*
X3836686Y-3872960D02*
X3855733Y-3882484D01*
X3855733Y-3882484D02*
X3893828Y-3882484D01*
X3893828Y-3882484D02*
X3912876Y-3872960D01*
X3912876Y-3872960D02*
X3922400Y-3853912D01*
X3922400Y-3853912D02*
X3922400Y-3844388D01*
X3922400Y-3844388D02*
X3912876Y-3825341D01*
X3912876Y-3825341D02*
X3893828Y-3815817D01*
X3893828Y-3815817D02*
X3865257Y-3815817D01*
X3865257Y-3815817D02*
X3846209Y-3806293D01*
X3846209Y-3806293D02*
X3836686Y-3787246D01*
X3836686Y-3787246D02*
X3836686Y-3777722D01*
X3836686Y-3777722D02*
X3846209Y-3758674D01*
X3846209Y-3758674D02*
X3865257Y-3749150D01*
X3865257Y-3749150D02*
X3893828Y-3749150D01*
X3893828Y-3749150D02*
X3912876Y-3758674D01*
X3989067Y-3958674D02*
X3998590Y-3949150D01*
X3998590Y-3949150D02*
X4017638Y-3920579D01*
X4017638Y-3920579D02*
X4027162Y-3901531D01*
X4027162Y-3901531D02*
X4036686Y-3872960D01*
X4036686Y-3872960D02*
X4046209Y-3825341D01*
X4046209Y-3825341D02*
X4046209Y-3787246D01*
X4046209Y-3787246D02*
X4036686Y-3739627D01*
X4036686Y-3739627D02*
X4027162Y-3711055D01*
X4027162Y-3711055D02*
X4017638Y-3692008D01*
X4017638Y-3692008D02*
X3998590Y-3663436D01*
X3998590Y-3663436D02*
X3989067Y-3653912D01*
D10*
X-2454574Y-4104530D02*
X-2405044Y-4055000D01*
X-2454574Y-4005470D01*
X-2504104Y-4055000D01*
X-2454574Y-4104530D01*
D11*
X-2106172Y-3946484D02*
X-2087124Y-3946484D01*
X-2087124Y-3946484D02*
X-2068077Y-3956008D01*
X-2068077Y-3956008D02*
X-2058553Y-3965531D01*
X-2058553Y-3965531D02*
X-2049029Y-3984579D01*
X-2049029Y-3984579D02*
X-2039505Y-4022674D01*
X-2039505Y-4022674D02*
X-2039505Y-4070293D01*
X-2039505Y-4070293D02*
X-2049029Y-4108388D01*
X-2049029Y-4108388D02*
X-2058553Y-4127436D01*
X-2058553Y-4127436D02*
X-2068077Y-4136960D01*
X-2068077Y-4136960D02*
X-2087124Y-4146484D01*
X-2087124Y-4146484D02*
X-2106172Y-4146484D01*
X-2106172Y-4146484D02*
X-2125220Y-4136960D01*
X-2125220Y-4136960D02*
X-2134744Y-4127436D01*
X-2134744Y-4127436D02*
X-2144267Y-4108388D01*
X-2144267Y-4108388D02*
X-2153791Y-4070293D01*
X-2153791Y-4070293D02*
X-2153791Y-4022674D01*
X-2153791Y-4022674D02*
X-2144267Y-3984579D01*
X-2144267Y-3984579D02*
X-2134744Y-3965531D01*
X-2134744Y-3965531D02*
X-2125220Y-3956008D01*
X-2125220Y-3956008D02*
X-2106172Y-3946484D01*
X-1953791Y-4127436D02*
X-1944267Y-4136960D01*
X-1944267Y-4136960D02*
X-1953791Y-4146484D01*
X-1953791Y-4146484D02*
X-1963315Y-4136960D01*
X-1963315Y-4136960D02*
X-1953791Y-4127436D01*
X-1953791Y-4127436D02*
X-1953791Y-4146484D01*
X-1849029Y-4146484D02*
X-1810934Y-4146484D01*
X-1810934Y-4146484D02*
X-1791886Y-4136960D01*
X-1791886Y-4136960D02*
X-1782362Y-4127436D01*
X-1782362Y-4127436D02*
X-1763315Y-4098865D01*
X-1763315Y-4098865D02*
X-1753791Y-4060769D01*
X-1753791Y-4060769D02*
X-1753791Y-3984579D01*
X-1753791Y-3984579D02*
X-1763315Y-3965531D01*
X-1763315Y-3965531D02*
X-1772839Y-3956008D01*
X-1772839Y-3956008D02*
X-1791886Y-3946484D01*
X-1791886Y-3946484D02*
X-1829982Y-3946484D01*
X-1829982Y-3946484D02*
X-1849029Y-3956008D01*
X-1849029Y-3956008D02*
X-1858553Y-3965531D01*
X-1858553Y-3965531D02*
X-1868077Y-3984579D01*
X-1868077Y-3984579D02*
X-1868077Y-4032198D01*
X-1868077Y-4032198D02*
X-1858553Y-4051246D01*
X-1858553Y-4051246D02*
X-1849029Y-4060769D01*
X-1849029Y-4060769D02*
X-1829982Y-4070293D01*
X-1829982Y-4070293D02*
X-1791886Y-4070293D01*
X-1791886Y-4070293D02*
X-1772839Y-4060769D01*
X-1772839Y-4060769D02*
X-1763315Y-4051246D01*
X-1763315Y-4051246D02*
X-1753791Y-4032198D01*
X-1658553Y-4146484D02*
X-1620458Y-4146484D01*
X-1620458Y-4146484D02*
X-1601410Y-4136960D01*
X-1601410Y-4136960D02*
X-1591886Y-4127436D01*
X-1591886Y-4127436D02*
X-1572839Y-4098865D01*
X-1572839Y-4098865D02*
X-1563315Y-4060769D01*
X-1563315Y-4060769D02*
X-1563315Y-3984579D01*
X-1563315Y-3984579D02*
X-1572839Y-3965531D01*
X-1572839Y-3965531D02*
X-1582362Y-3956008D01*
X-1582362Y-3956008D02*
X-1601410Y-3946484D01*
X-1601410Y-3946484D02*
X-1639505Y-3946484D01*
X-1639505Y-3946484D02*
X-1658553Y-3956008D01*
X-1658553Y-3956008D02*
X-1668077Y-3965531D01*
X-1668077Y-3965531D02*
X-1677601Y-3984579D01*
X-1677601Y-3984579D02*
X-1677601Y-4032198D01*
X-1677601Y-4032198D02*
X-1668077Y-4051246D01*
X-1668077Y-4051246D02*
X-1658553Y-4060769D01*
X-1658553Y-4060769D02*
X-1639505Y-4070293D01*
X-1639505Y-4070293D02*
X-1601410Y-4070293D01*
X-1601410Y-4070293D02*
X-1582362Y-4060769D01*
X-1582362Y-4060769D02*
X-1572839Y-4051246D01*
X-1572839Y-4051246D02*
X-1563315Y-4032198D01*
X-1372839Y-4146484D02*
X-1487124Y-4146484D01*
X-1429982Y-4146484D02*
X-1429982Y-3946484D01*
X-1429982Y-3946484D02*
X-1449029Y-3975055D01*
X-1449029Y-3975055D02*
X-1468077Y-3994103D01*
X-1468077Y-3994103D02*
X-1487124Y-4003627D01*
X-1287124Y-4146484D02*
X-1287124Y-4013150D01*
X-1287124Y-4032198D02*
X-1277601Y-4022674D01*
X-1277601Y-4022674D02*
X-1258553Y-4013150D01*
X-1258553Y-4013150D02*
X-1229982Y-4013150D01*
X-1229982Y-4013150D02*
X-1210934Y-4022674D01*
X-1210934Y-4022674D02*
X-1201410Y-4041722D01*
X-1201410Y-4041722D02*
X-1201410Y-4146484D01*
X-1201410Y-4041722D02*
X-1191886Y-4022674D01*
X-1191886Y-4022674D02*
X-1172839Y-4013150D01*
X-1172839Y-4013150D02*
X-1144267Y-4013150D01*
X-1144267Y-4013150D02*
X-1125220Y-4022674D01*
X-1125220Y-4022674D02*
X-1115696Y-4041722D01*
X-1115696Y-4041722D02*
X-1115696Y-4146484D01*
X-1020458Y-4146484D02*
X-1020458Y-4013150D01*
X-1020458Y-4032198D02*
X-1010934Y-4022674D01*
X-1010934Y-4022674D02*
X-991886Y-4013150D01*
X-991886Y-4013150D02*
X-963315Y-4013150D01*
X-963315Y-4013150D02*
X-944267Y-4022674D01*
X-944267Y-4022674D02*
X-934743Y-4041722D01*
X-934743Y-4041722D02*
X-934743Y-4146484D01*
X-934743Y-4041722D02*
X-925220Y-4022674D01*
X-925220Y-4022674D02*
X-906172Y-4013150D01*
X-906172Y-4013150D02*
X-877601Y-4013150D01*
X-877601Y-4013150D02*
X-858553Y-4022674D01*
X-858553Y-4022674D02*
X-849029Y-4041722D01*
X-849029Y-4041722D02*
X-849029Y-4146484D01*
X-458553Y-3936960D02*
X-629981Y-4194103D01*
X-201410Y-3946484D02*
X-182362Y-3946484D01*
X-182362Y-3946484D02*
X-163315Y-3956008D01*
X-163315Y-3956008D02*
X-153791Y-3965531D01*
X-153791Y-3965531D02*
X-144267Y-3984579D01*
X-144267Y-3984579D02*
X-134743Y-4022674D01*
X-134743Y-4022674D02*
X-134743Y-4070293D01*
X-134743Y-4070293D02*
X-144267Y-4108388D01*
X-144267Y-4108388D02*
X-153791Y-4127436D01*
X-153791Y-4127436D02*
X-163315Y-4136960D01*
X-163315Y-4136960D02*
X-182362Y-4146484D01*
X-182362Y-4146484D02*
X-201410Y-4146484D01*
X-201410Y-4146484D02*
X-220458Y-4136960D01*
X-220458Y-4136960D02*
X-229981Y-4127436D01*
X-229981Y-4127436D02*
X-239505Y-4108388D01*
X-239505Y-4108388D02*
X-249029Y-4070293D01*
X-249029Y-4070293D02*
X-249029Y-4022674D01*
X-249029Y-4022674D02*
X-239505Y-3984579D01*
X-239505Y-3984579D02*
X-229981Y-3965531D01*
X-229981Y-3965531D02*
X-220458Y-3956008D01*
X-220458Y-3956008D02*
X-201410Y-3946484D01*
X-49029Y-4127436D02*
X-39505Y-4136960D01*
X-39505Y-4136960D02*
X-49029Y-4146484D01*
X-49029Y-4146484D02*
X-58553Y-4136960D01*
X-58553Y-4136960D02*
X-49029Y-4127436D01*
X-49029Y-4127436D02*
X-49029Y-4146484D01*
X84304Y-3946484D02*
X103352Y-3946484D01*
X103352Y-3946484D02*
X122400Y-3956008D01*
X122400Y-3956008D02*
X131923Y-3965531D01*
X131923Y-3965531D02*
X141447Y-3984579D01*
X141447Y-3984579D02*
X150971Y-4022674D01*
X150971Y-4022674D02*
X150971Y-4070293D01*
X150971Y-4070293D02*
X141447Y-4108388D01*
X141447Y-4108388D02*
X131923Y-4127436D01*
X131923Y-4127436D02*
X122400Y-4136960D01*
X122400Y-4136960D02*
X103352Y-4146484D01*
X103352Y-4146484D02*
X84304Y-4146484D01*
X84304Y-4146484D02*
X65257Y-4136960D01*
X65257Y-4136960D02*
X55733Y-4127436D01*
X55733Y-4127436D02*
X46209Y-4108388D01*
X46209Y-4108388D02*
X36685Y-4070293D01*
X36685Y-4070293D02*
X36685Y-4022674D01*
X36685Y-4022674D02*
X46209Y-3984579D01*
X46209Y-3984579D02*
X55733Y-3965531D01*
X55733Y-3965531D02*
X65257Y-3956008D01*
X65257Y-3956008D02*
X84304Y-3946484D01*
X217638Y-3946484D02*
X341447Y-3946484D01*
X341447Y-3946484D02*
X274781Y-4022674D01*
X274781Y-4022674D02*
X303352Y-4022674D01*
X303352Y-4022674D02*
X322400Y-4032198D01*
X322400Y-4032198D02*
X331923Y-4041722D01*
X331923Y-4041722D02*
X341447Y-4060769D01*
X341447Y-4060769D02*
X341447Y-4108388D01*
X341447Y-4108388D02*
X331923Y-4127436D01*
X331923Y-4127436D02*
X322400Y-4136960D01*
X322400Y-4136960D02*
X303352Y-4146484D01*
X303352Y-4146484D02*
X246209Y-4146484D01*
X246209Y-4146484D02*
X227161Y-4136960D01*
X227161Y-4136960D02*
X217638Y-4127436D01*
X436685Y-4146484D02*
X474780Y-4146484D01*
X474780Y-4146484D02*
X493828Y-4136960D01*
X493828Y-4136960D02*
X503352Y-4127436D01*
X503352Y-4127436D02*
X522400Y-4098865D01*
X522400Y-4098865D02*
X531923Y-4060769D01*
X531923Y-4060769D02*
X531923Y-3984579D01*
X531923Y-3984579D02*
X522400Y-3965531D01*
X522400Y-3965531D02*
X512876Y-3956008D01*
X512876Y-3956008D02*
X493828Y-3946484D01*
X493828Y-3946484D02*
X455733Y-3946484D01*
X455733Y-3946484D02*
X436685Y-3956008D01*
X436685Y-3956008D02*
X427161Y-3965531D01*
X427161Y-3965531D02*
X417638Y-3984579D01*
X417638Y-3984579D02*
X417638Y-4032198D01*
X417638Y-4032198D02*
X427161Y-4051246D01*
X427161Y-4051246D02*
X436685Y-4060769D01*
X436685Y-4060769D02*
X455733Y-4070293D01*
X455733Y-4070293D02*
X493828Y-4070293D01*
X493828Y-4070293D02*
X512876Y-4060769D01*
X512876Y-4060769D02*
X522400Y-4051246D01*
X522400Y-4051246D02*
X531923Y-4032198D01*
X655733Y-3946484D02*
X674781Y-3946484D01*
X674781Y-3946484D02*
X693828Y-3956008D01*
X693828Y-3956008D02*
X703352Y-3965531D01*
X703352Y-3965531D02*
X712876Y-3984579D01*
X712876Y-3984579D02*
X722400Y-4022674D01*
X722400Y-4022674D02*
X722400Y-4070293D01*
X722400Y-4070293D02*
X712876Y-4108388D01*
X712876Y-4108388D02*
X703352Y-4127436D01*
X703352Y-4127436D02*
X693828Y-4136960D01*
X693828Y-4136960D02*
X674781Y-4146484D01*
X674781Y-4146484D02*
X655733Y-4146484D01*
X655733Y-4146484D02*
X636685Y-4136960D01*
X636685Y-4136960D02*
X627162Y-4127436D01*
X627162Y-4127436D02*
X617638Y-4108388D01*
X617638Y-4108388D02*
X608114Y-4070293D01*
X608114Y-4070293D02*
X608114Y-4022674D01*
X608114Y-4022674D02*
X617638Y-3984579D01*
X617638Y-3984579D02*
X627162Y-3965531D01*
X627162Y-3965531D02*
X636685Y-3956008D01*
X636685Y-3956008D02*
X655733Y-3946484D01*
X798590Y-3946484D02*
X798590Y-3984579D01*
X874781Y-3946484D02*
X874781Y-3984579D01*
X1170019Y-4222674D02*
X1160495Y-4213150D01*
X1160495Y-4213150D02*
X1141447Y-4184579D01*
X1141447Y-4184579D02*
X1131924Y-4165531D01*
X1131924Y-4165531D02*
X1122400Y-4136960D01*
X1122400Y-4136960D02*
X1112876Y-4089341D01*
X1112876Y-4089341D02*
X1112876Y-4051246D01*
X1112876Y-4051246D02*
X1122400Y-4003627D01*
X1122400Y-4003627D02*
X1131924Y-3975055D01*
X1131924Y-3975055D02*
X1141447Y-3956008D01*
X1141447Y-3956008D02*
X1160495Y-3927436D01*
X1160495Y-3927436D02*
X1170019Y-3917912D01*
X1331924Y-4013150D02*
X1331924Y-4146484D01*
X1284304Y-3936960D02*
X1236685Y-4079817D01*
X1236685Y-4079817D02*
X1360495Y-4079817D01*
X1589066Y-4146484D02*
X1589066Y-3946484D01*
X1674781Y-4146484D02*
X1674781Y-4041722D01*
X1674781Y-4041722D02*
X1665257Y-4022674D01*
X1665257Y-4022674D02*
X1646209Y-4013150D01*
X1646209Y-4013150D02*
X1617638Y-4013150D01*
X1617638Y-4013150D02*
X1598590Y-4022674D01*
X1598590Y-4022674D02*
X1589066Y-4032198D01*
X1798590Y-4146484D02*
X1779543Y-4136960D01*
X1779543Y-4136960D02*
X1770019Y-4127436D01*
X1770019Y-4127436D02*
X1760495Y-4108388D01*
X1760495Y-4108388D02*
X1760495Y-4051246D01*
X1760495Y-4051246D02*
X1770019Y-4032198D01*
X1770019Y-4032198D02*
X1779543Y-4022674D01*
X1779543Y-4022674D02*
X1798590Y-4013150D01*
X1798590Y-4013150D02*
X1827162Y-4013150D01*
X1827162Y-4013150D02*
X1846209Y-4022674D01*
X1846209Y-4022674D02*
X1855733Y-4032198D01*
X1855733Y-4032198D02*
X1865257Y-4051246D01*
X1865257Y-4051246D02*
X1865257Y-4108388D01*
X1865257Y-4108388D02*
X1855733Y-4127436D01*
X1855733Y-4127436D02*
X1846209Y-4136960D01*
X1846209Y-4136960D02*
X1827162Y-4146484D01*
X1827162Y-4146484D02*
X1798590Y-4146484D01*
X1979543Y-4146484D02*
X1960495Y-4136960D01*
X1960495Y-4136960D02*
X1950971Y-4117912D01*
X1950971Y-4117912D02*
X1950971Y-3946484D01*
X2131924Y-4136960D02*
X2112876Y-4146484D01*
X2112876Y-4146484D02*
X2074781Y-4146484D01*
X2074781Y-4146484D02*
X2055733Y-4136960D01*
X2055733Y-4136960D02*
X2046209Y-4117912D01*
X2046209Y-4117912D02*
X2046209Y-4041722D01*
X2046209Y-4041722D02*
X2055733Y-4022674D01*
X2055733Y-4022674D02*
X2074781Y-4013150D01*
X2074781Y-4013150D02*
X2112876Y-4013150D01*
X2112876Y-4013150D02*
X2131924Y-4022674D01*
X2131924Y-4022674D02*
X2141447Y-4041722D01*
X2141447Y-4041722D02*
X2141447Y-4060769D01*
X2141447Y-4060769D02*
X2046209Y-4079817D01*
X2217638Y-4136960D02*
X2236686Y-4146484D01*
X2236686Y-4146484D02*
X2274781Y-4146484D01*
X2274781Y-4146484D02*
X2293828Y-4136960D01*
X2293828Y-4136960D02*
X2303352Y-4117912D01*
X2303352Y-4117912D02*
X2303352Y-4108388D01*
X2303352Y-4108388D02*
X2293828Y-4089341D01*
X2293828Y-4089341D02*
X2274781Y-4079817D01*
X2274781Y-4079817D02*
X2246209Y-4079817D01*
X2246209Y-4079817D02*
X2227162Y-4070293D01*
X2227162Y-4070293D02*
X2217638Y-4051246D01*
X2217638Y-4051246D02*
X2217638Y-4041722D01*
X2217638Y-4041722D02*
X2227162Y-4022674D01*
X2227162Y-4022674D02*
X2246209Y-4013150D01*
X2246209Y-4013150D02*
X2274781Y-4013150D01*
X2274781Y-4013150D02*
X2293828Y-4022674D01*
X2370019Y-4222674D02*
X2379543Y-4213150D01*
X2379543Y-4213150D02*
X2398590Y-4184579D01*
X2398590Y-4184579D02*
X2408114Y-4165531D01*
X2408114Y-4165531D02*
X2417638Y-4136960D01*
X2417638Y-4136960D02*
X2427162Y-4089341D01*
X2427162Y-4089341D02*
X2427162Y-4051246D01*
X2427162Y-4051246D02*
X2417638Y-4003627D01*
X2417638Y-4003627D02*
X2408114Y-3975055D01*
X2408114Y-3975055D02*
X2398590Y-3956008D01*
X2398590Y-3956008D02*
X2379543Y-3927436D01*
X2379543Y-3927436D02*
X2370019Y-3917912D01*
D12*
X-2534584Y-4254230D02*
X-2405044Y-4383770D01*
X-2405044Y-4254230D02*
X-2534584Y-4383770D01*
X-2405044Y-4319000D02*
G75*
G02*
X-2534584Y-4319000I-64770J0D01*
G01*
X-2534584Y-4319000D02*
G75*
G02*
X-2405044Y-4319000I64770J0D01*
G01*
D11*
X-2039505Y-4410484D02*
X-2153791Y-4410484D01*
X-2096648Y-4410484D02*
X-2096648Y-4210484D01*
X-2096648Y-4210484D02*
X-2115696Y-4239055D01*
X-2115696Y-4239055D02*
X-2134744Y-4258103D01*
X-2134744Y-4258103D02*
X-2153791Y-4267627D01*
X-1953791Y-4391436D02*
X-1944267Y-4400960D01*
X-1944267Y-4400960D02*
X-1953791Y-4410484D01*
X-1953791Y-4410484D02*
X-1963315Y-4400960D01*
X-1963315Y-4400960D02*
X-1953791Y-4391436D01*
X-1953791Y-4391436D02*
X-1953791Y-4410484D01*
X-1868077Y-4229531D02*
X-1858553Y-4220008D01*
X-1858553Y-4220008D02*
X-1839505Y-4210484D01*
X-1839505Y-4210484D02*
X-1791886Y-4210484D01*
X-1791886Y-4210484D02*
X-1772839Y-4220008D01*
X-1772839Y-4220008D02*
X-1763315Y-4229531D01*
X-1763315Y-4229531D02*
X-1753791Y-4248579D01*
X-1753791Y-4248579D02*
X-1753791Y-4267627D01*
X-1753791Y-4267627D02*
X-1763315Y-4296198D01*
X-1763315Y-4296198D02*
X-1877601Y-4410484D01*
X-1877601Y-4410484D02*
X-1753791Y-4410484D01*
X-1658553Y-4410484D02*
X-1620458Y-4410484D01*
X-1620458Y-4410484D02*
X-1601410Y-4400960D01*
X-1601410Y-4400960D02*
X-1591886Y-4391436D01*
X-1591886Y-4391436D02*
X-1572839Y-4362865D01*
X-1572839Y-4362865D02*
X-1563315Y-4324770D01*
X-1563315Y-4324770D02*
X-1563315Y-4248579D01*
X-1563315Y-4248579D02*
X-1572839Y-4229531D01*
X-1572839Y-4229531D02*
X-1582362Y-4220008D01*
X-1582362Y-4220008D02*
X-1601410Y-4210484D01*
X-1601410Y-4210484D02*
X-1639505Y-4210484D01*
X-1639505Y-4210484D02*
X-1658553Y-4220008D01*
X-1658553Y-4220008D02*
X-1668077Y-4229531D01*
X-1668077Y-4229531D02*
X-1677601Y-4248579D01*
X-1677601Y-4248579D02*
X-1677601Y-4296198D01*
X-1677601Y-4296198D02*
X-1668077Y-4315246D01*
X-1668077Y-4315246D02*
X-1658553Y-4324770D01*
X-1658553Y-4324770D02*
X-1639505Y-4334293D01*
X-1639505Y-4334293D02*
X-1601410Y-4334293D01*
X-1601410Y-4334293D02*
X-1582362Y-4324770D01*
X-1582362Y-4324770D02*
X-1572839Y-4315246D01*
X-1572839Y-4315246D02*
X-1563315Y-4296198D01*
X-1382363Y-4210484D02*
X-1477601Y-4210484D01*
X-1477601Y-4210484D02*
X-1487124Y-4305722D01*
X-1487124Y-4305722D02*
X-1477601Y-4296198D01*
X-1477601Y-4296198D02*
X-1458553Y-4286674D01*
X-1458553Y-4286674D02*
X-1410934Y-4286674D01*
X-1410934Y-4286674D02*
X-1391886Y-4296198D01*
X-1391886Y-4296198D02*
X-1382363Y-4305722D01*
X-1382363Y-4305722D02*
X-1372839Y-4324770D01*
X-1372839Y-4324770D02*
X-1372839Y-4372389D01*
X-1372839Y-4372389D02*
X-1382363Y-4391436D01*
X-1382363Y-4391436D02*
X-1391886Y-4400960D01*
X-1391886Y-4400960D02*
X-1410934Y-4410484D01*
X-1410934Y-4410484D02*
X-1458553Y-4410484D01*
X-1458553Y-4410484D02*
X-1477601Y-4400960D01*
X-1477601Y-4400960D02*
X-1487124Y-4391436D01*
X-1287124Y-4410484D02*
X-1287124Y-4277150D01*
X-1287124Y-4296198D02*
X-1277601Y-4286674D01*
X-1277601Y-4286674D02*
X-1258553Y-4277150D01*
X-1258553Y-4277150D02*
X-1229982Y-4277150D01*
X-1229982Y-4277150D02*
X-1210934Y-4286674D01*
X-1210934Y-4286674D02*
X-1201410Y-4305722D01*
X-1201410Y-4305722D02*
X-1201410Y-4410484D01*
X-1201410Y-4305722D02*
X-1191886Y-4286674D01*
X-1191886Y-4286674D02*
X-1172839Y-4277150D01*
X-1172839Y-4277150D02*
X-1144267Y-4277150D01*
X-1144267Y-4277150D02*
X-1125220Y-4286674D01*
X-1125220Y-4286674D02*
X-1115696Y-4305722D01*
X-1115696Y-4305722D02*
X-1115696Y-4410484D01*
X-1020458Y-4410484D02*
X-1020458Y-4277150D01*
X-1020458Y-4296198D02*
X-1010934Y-4286674D01*
X-1010934Y-4286674D02*
X-991886Y-4277150D01*
X-991886Y-4277150D02*
X-963315Y-4277150D01*
X-963315Y-4277150D02*
X-944267Y-4286674D01*
X-944267Y-4286674D02*
X-934743Y-4305722D01*
X-934743Y-4305722D02*
X-934743Y-4410484D01*
X-934743Y-4305722D02*
X-925220Y-4286674D01*
X-925220Y-4286674D02*
X-906172Y-4277150D01*
X-906172Y-4277150D02*
X-877601Y-4277150D01*
X-877601Y-4277150D02*
X-858553Y-4286674D01*
X-858553Y-4286674D02*
X-849029Y-4305722D01*
X-849029Y-4305722D02*
X-849029Y-4410484D01*
X-458553Y-4200960D02*
X-629981Y-4458103D01*
X-201410Y-4210484D02*
X-182362Y-4210484D01*
X-182362Y-4210484D02*
X-163315Y-4220008D01*
X-163315Y-4220008D02*
X-153791Y-4229531D01*
X-153791Y-4229531D02*
X-144267Y-4248579D01*
X-144267Y-4248579D02*
X-134743Y-4286674D01*
X-134743Y-4286674D02*
X-134743Y-4334293D01*
X-134743Y-4334293D02*
X-144267Y-4372389D01*
X-144267Y-4372389D02*
X-153791Y-4391436D01*
X-153791Y-4391436D02*
X-163315Y-4400960D01*
X-163315Y-4400960D02*
X-182362Y-4410484D01*
X-182362Y-4410484D02*
X-201410Y-4410484D01*
X-201410Y-4410484D02*
X-220458Y-4400960D01*
X-220458Y-4400960D02*
X-229981Y-4391436D01*
X-229981Y-4391436D02*
X-239505Y-4372389D01*
X-239505Y-4372389D02*
X-249029Y-4334293D01*
X-249029Y-4334293D02*
X-249029Y-4286674D01*
X-249029Y-4286674D02*
X-239505Y-4248579D01*
X-239505Y-4248579D02*
X-229981Y-4229531D01*
X-229981Y-4229531D02*
X-220458Y-4220008D01*
X-220458Y-4220008D02*
X-201410Y-4210484D01*
X-49029Y-4391436D02*
X-39505Y-4400960D01*
X-39505Y-4400960D02*
X-49029Y-4410484D01*
X-49029Y-4410484D02*
X-58553Y-4400960D01*
X-58553Y-4400960D02*
X-49029Y-4391436D01*
X-49029Y-4391436D02*
X-49029Y-4410484D01*
X84304Y-4210484D02*
X103352Y-4210484D01*
X103352Y-4210484D02*
X122400Y-4220008D01*
X122400Y-4220008D02*
X131923Y-4229531D01*
X131923Y-4229531D02*
X141447Y-4248579D01*
X141447Y-4248579D02*
X150971Y-4286674D01*
X150971Y-4286674D02*
X150971Y-4334293D01*
X150971Y-4334293D02*
X141447Y-4372389D01*
X141447Y-4372389D02*
X131923Y-4391436D01*
X131923Y-4391436D02*
X122400Y-4400960D01*
X122400Y-4400960D02*
X103352Y-4410484D01*
X103352Y-4410484D02*
X84304Y-4410484D01*
X84304Y-4410484D02*
X65257Y-4400960D01*
X65257Y-4400960D02*
X55733Y-4391436D01*
X55733Y-4391436D02*
X46209Y-4372389D01*
X46209Y-4372389D02*
X36685Y-4334293D01*
X36685Y-4334293D02*
X36685Y-4286674D01*
X36685Y-4286674D02*
X46209Y-4248579D01*
X46209Y-4248579D02*
X55733Y-4229531D01*
X55733Y-4229531D02*
X65257Y-4220008D01*
X65257Y-4220008D02*
X84304Y-4210484D01*
X331923Y-4210484D02*
X236685Y-4210484D01*
X236685Y-4210484D02*
X227161Y-4305722D01*
X227161Y-4305722D02*
X236685Y-4296198D01*
X236685Y-4296198D02*
X255733Y-4286674D01*
X255733Y-4286674D02*
X303352Y-4286674D01*
X303352Y-4286674D02*
X322400Y-4296198D01*
X322400Y-4296198D02*
X331923Y-4305722D01*
X331923Y-4305722D02*
X341447Y-4324770D01*
X341447Y-4324770D02*
X341447Y-4372389D01*
X341447Y-4372389D02*
X331923Y-4391436D01*
X331923Y-4391436D02*
X322400Y-4400960D01*
X322400Y-4400960D02*
X303352Y-4410484D01*
X303352Y-4410484D02*
X255733Y-4410484D01*
X255733Y-4410484D02*
X236685Y-4400960D01*
X236685Y-4400960D02*
X227161Y-4391436D01*
X531923Y-4410484D02*
X417638Y-4410484D01*
X474780Y-4410484D02*
X474780Y-4210484D01*
X474780Y-4210484D02*
X455733Y-4239055D01*
X455733Y-4239055D02*
X436685Y-4258103D01*
X436685Y-4258103D02*
X417638Y-4267627D01*
X655733Y-4210484D02*
X674781Y-4210484D01*
X674781Y-4210484D02*
X693828Y-4220008D01*
X693828Y-4220008D02*
X703352Y-4229531D01*
X703352Y-4229531D02*
X712876Y-4248579D01*
X712876Y-4248579D02*
X722400Y-4286674D01*
X722400Y-4286674D02*
X722400Y-4334293D01*
X722400Y-4334293D02*
X712876Y-4372389D01*
X712876Y-4372389D02*
X703352Y-4391436D01*
X703352Y-4391436D02*
X693828Y-4400960D01*
X693828Y-4400960D02*
X674781Y-4410484D01*
X674781Y-4410484D02*
X655733Y-4410484D01*
X655733Y-4410484D02*
X636685Y-4400960D01*
X636685Y-4400960D02*
X627162Y-4391436D01*
X627162Y-4391436D02*
X617638Y-4372389D01*
X617638Y-4372389D02*
X608114Y-4334293D01*
X608114Y-4334293D02*
X608114Y-4286674D01*
X608114Y-4286674D02*
X617638Y-4248579D01*
X617638Y-4248579D02*
X627162Y-4229531D01*
X627162Y-4229531D02*
X636685Y-4220008D01*
X636685Y-4220008D02*
X655733Y-4210484D01*
X798590Y-4210484D02*
X798590Y-4248579D01*
X874781Y-4210484D02*
X874781Y-4248579D01*
X1170019Y-4486674D02*
X1160495Y-4477150D01*
X1160495Y-4477150D02*
X1141447Y-4448579D01*
X1141447Y-4448579D02*
X1131924Y-4429531D01*
X1131924Y-4429531D02*
X1122400Y-4400960D01*
X1122400Y-4400960D02*
X1112876Y-4353341D01*
X1112876Y-4353341D02*
X1112876Y-4315246D01*
X1112876Y-4315246D02*
X1122400Y-4267627D01*
X1122400Y-4267627D02*
X1131924Y-4239055D01*
X1131924Y-4239055D02*
X1141447Y-4220008D01*
X1141447Y-4220008D02*
X1160495Y-4191436D01*
X1160495Y-4191436D02*
X1170019Y-4181912D01*
X1331924Y-4277150D02*
X1331924Y-4410484D01*
X1284304Y-4200960D02*
X1236685Y-4343817D01*
X1236685Y-4343817D02*
X1360495Y-4343817D01*
X1589066Y-4410484D02*
X1589066Y-4210484D01*
X1674781Y-4410484D02*
X1674781Y-4305722D01*
X1674781Y-4305722D02*
X1665257Y-4286674D01*
X1665257Y-4286674D02*
X1646209Y-4277150D01*
X1646209Y-4277150D02*
X1617638Y-4277150D01*
X1617638Y-4277150D02*
X1598590Y-4286674D01*
X1598590Y-4286674D02*
X1589066Y-4296198D01*
X1798590Y-4410484D02*
X1779543Y-4400960D01*
X1779543Y-4400960D02*
X1770019Y-4391436D01*
X1770019Y-4391436D02*
X1760495Y-4372389D01*
X1760495Y-4372389D02*
X1760495Y-4315246D01*
X1760495Y-4315246D02*
X1770019Y-4296198D01*
X1770019Y-4296198D02*
X1779543Y-4286674D01*
X1779543Y-4286674D02*
X1798590Y-4277150D01*
X1798590Y-4277150D02*
X1827162Y-4277150D01*
X1827162Y-4277150D02*
X1846209Y-4286674D01*
X1846209Y-4286674D02*
X1855733Y-4296198D01*
X1855733Y-4296198D02*
X1865257Y-4315246D01*
X1865257Y-4315246D02*
X1865257Y-4372389D01*
X1865257Y-4372389D02*
X1855733Y-4391436D01*
X1855733Y-4391436D02*
X1846209Y-4400960D01*
X1846209Y-4400960D02*
X1827162Y-4410484D01*
X1827162Y-4410484D02*
X1798590Y-4410484D01*
X1979543Y-4410484D02*
X1960495Y-4400960D01*
X1960495Y-4400960D02*
X1950971Y-4381912D01*
X1950971Y-4381912D02*
X1950971Y-4210484D01*
X2131924Y-4400960D02*
X2112876Y-4410484D01*
X2112876Y-4410484D02*
X2074781Y-4410484D01*
X2074781Y-4410484D02*
X2055733Y-4400960D01*
X2055733Y-4400960D02*
X2046209Y-4381912D01*
X2046209Y-4381912D02*
X2046209Y-4305722D01*
X2046209Y-4305722D02*
X2055733Y-4286674D01*
X2055733Y-4286674D02*
X2074781Y-4277150D01*
X2074781Y-4277150D02*
X2112876Y-4277150D01*
X2112876Y-4277150D02*
X2131924Y-4286674D01*
X2131924Y-4286674D02*
X2141447Y-4305722D01*
X2141447Y-4305722D02*
X2141447Y-4324770D01*
X2141447Y-4324770D02*
X2046209Y-4343817D01*
X2217638Y-4400960D02*
X2236686Y-4410484D01*
X2236686Y-4410484D02*
X2274781Y-4410484D01*
X2274781Y-4410484D02*
X2293828Y-4400960D01*
X2293828Y-4400960D02*
X2303352Y-4381912D01*
X2303352Y-4381912D02*
X2303352Y-4372389D01*
X2303352Y-4372389D02*
X2293828Y-4353341D01*
X2293828Y-4353341D02*
X2274781Y-4343817D01*
X2274781Y-4343817D02*
X2246209Y-4343817D01*
X2246209Y-4343817D02*
X2227162Y-4334293D01*
X2227162Y-4334293D02*
X2217638Y-4315246D01*
X2217638Y-4315246D02*
X2217638Y-4305722D01*
X2217638Y-4305722D02*
X2227162Y-4286674D01*
X2227162Y-4286674D02*
X2246209Y-4277150D01*
X2246209Y-4277150D02*
X2274781Y-4277150D01*
X2274781Y-4277150D02*
X2293828Y-4286674D01*
X2370019Y-4486674D02*
X2379543Y-4477150D01*
X2379543Y-4477150D02*
X2398590Y-4448579D01*
X2398590Y-4448579D02*
X2408114Y-4429531D01*
X2408114Y-4429531D02*
X2417638Y-4400960D01*
X2417638Y-4400960D02*
X2427162Y-4353341D01*
X2427162Y-4353341D02*
X2427162Y-4315246D01*
X2427162Y-4315246D02*
X2417638Y-4267627D01*
X2417638Y-4267627D02*
X2408114Y-4239055D01*
X2408114Y-4239055D02*
X2398590Y-4220008D01*
X2398590Y-4220008D02*
X2379543Y-4191436D01*
X2379543Y-4191436D02*
X2370019Y-4181912D01*
M02*
