%TF.GenerationSoftware,KiCad,Pcbnew,8.0.5*%
%TF.CreationDate,2025-01-06T18:17:11+01:00*%
%TF.ProjectId,test,74657374-2e6b-4696-9361-645f70636258,rev?*%
%TF.SameCoordinates,Original*%
%TF.FileFunction,Legend,Top*%
%TF.FilePolarity,Positive*%
%FSLAX46Y46*%
G04 Gerber Fmt 4.6, Leading zero omitted, Abs format (unit mm)*
G04 Created by KiCad (PCBNEW 8.0.5) date 2025-01-06 18:17:11*
%MOMM*%
%LPD*%
G01*
G04 APERTURE LIST*
%ADD10C,0.125000*%
%ADD11C,0.150000*%
%ADD12C,0.120000*%
%ADD13C,0.152400*%
%ADD14C,0.100000*%
G04 APERTURE END LIST*
D10*
X77474690Y-39760333D02*
X77498500Y-39784142D01*
X77498500Y-39784142D02*
X77522309Y-39855571D01*
X77522309Y-39855571D02*
X77522309Y-39903190D01*
X77522309Y-39903190D02*
X77498500Y-39974618D01*
X77498500Y-39974618D02*
X77450880Y-40022237D01*
X77450880Y-40022237D02*
X77403261Y-40046047D01*
X77403261Y-40046047D02*
X77308023Y-40069856D01*
X77308023Y-40069856D02*
X77236595Y-40069856D01*
X77236595Y-40069856D02*
X77141357Y-40046047D01*
X77141357Y-40046047D02*
X77093738Y-40022237D01*
X77093738Y-40022237D02*
X77046119Y-39974618D01*
X77046119Y-39974618D02*
X77022309Y-39903190D01*
X77022309Y-39903190D02*
X77022309Y-39855571D01*
X77022309Y-39855571D02*
X77046119Y-39784142D01*
X77046119Y-39784142D02*
X77069928Y-39760333D01*
X77069928Y-39569856D02*
X77046119Y-39546047D01*
X77046119Y-39546047D02*
X77022309Y-39498428D01*
X77022309Y-39498428D02*
X77022309Y-39379380D01*
X77022309Y-39379380D02*
X77046119Y-39331761D01*
X77046119Y-39331761D02*
X77069928Y-39307952D01*
X77069928Y-39307952D02*
X77117547Y-39284142D01*
X77117547Y-39284142D02*
X77165166Y-39284142D01*
X77165166Y-39284142D02*
X77236595Y-39307952D01*
X77236595Y-39307952D02*
X77522309Y-39593666D01*
X77522309Y-39593666D02*
X77522309Y-39284142D01*
D11*
X86474642Y-61006580D02*
X86427023Y-61054200D01*
X86427023Y-61054200D02*
X86284166Y-61101819D01*
X86284166Y-61101819D02*
X86188928Y-61101819D01*
X86188928Y-61101819D02*
X86046071Y-61054200D01*
X86046071Y-61054200D02*
X85950833Y-60958961D01*
X85950833Y-60958961D02*
X85903214Y-60863723D01*
X85903214Y-60863723D02*
X85855595Y-60673247D01*
X85855595Y-60673247D02*
X85855595Y-60530390D01*
X85855595Y-60530390D02*
X85903214Y-60339914D01*
X85903214Y-60339914D02*
X85950833Y-60244676D01*
X85950833Y-60244676D02*
X86046071Y-60149438D01*
X86046071Y-60149438D02*
X86188928Y-60101819D01*
X86188928Y-60101819D02*
X86284166Y-60101819D01*
X86284166Y-60101819D02*
X86427023Y-60149438D01*
X86427023Y-60149438D02*
X86474642Y-60197057D01*
X86807976Y-60101819D02*
X87427023Y-60101819D01*
X87427023Y-60101819D02*
X87093690Y-60482771D01*
X87093690Y-60482771D02*
X87236547Y-60482771D01*
X87236547Y-60482771D02*
X87331785Y-60530390D01*
X87331785Y-60530390D02*
X87379404Y-60578009D01*
X87379404Y-60578009D02*
X87427023Y-60673247D01*
X87427023Y-60673247D02*
X87427023Y-60911342D01*
X87427023Y-60911342D02*
X87379404Y-61006580D01*
X87379404Y-61006580D02*
X87331785Y-61054200D01*
X87331785Y-61054200D02*
X87236547Y-61101819D01*
X87236547Y-61101819D02*
X86950833Y-61101819D01*
X86950833Y-61101819D02*
X86855595Y-61054200D01*
X86855595Y-61054200D02*
X86807976Y-61006580D01*
X88046071Y-60101819D02*
X88141309Y-60101819D01*
X88141309Y-60101819D02*
X88236547Y-60149438D01*
X88236547Y-60149438D02*
X88284166Y-60197057D01*
X88284166Y-60197057D02*
X88331785Y-60292295D01*
X88331785Y-60292295D02*
X88379404Y-60482771D01*
X88379404Y-60482771D02*
X88379404Y-60720866D01*
X88379404Y-60720866D02*
X88331785Y-60911342D01*
X88331785Y-60911342D02*
X88284166Y-61006580D01*
X88284166Y-61006580D02*
X88236547Y-61054200D01*
X88236547Y-61054200D02*
X88141309Y-61101819D01*
X88141309Y-61101819D02*
X88046071Y-61101819D01*
X88046071Y-61101819D02*
X87950833Y-61054200D01*
X87950833Y-61054200D02*
X87903214Y-61006580D01*
X87903214Y-61006580D02*
X87855595Y-60911342D01*
X87855595Y-60911342D02*
X87807976Y-60720866D01*
X87807976Y-60720866D02*
X87807976Y-60482771D01*
X87807976Y-60482771D02*
X87855595Y-60292295D01*
X87855595Y-60292295D02*
X87903214Y-60197057D01*
X87903214Y-60197057D02*
X87950833Y-60149438D01*
X87950833Y-60149438D02*
X88046071Y-60101819D01*
D10*
X75592309Y-55006047D02*
X75092309Y-55006047D01*
X75092309Y-55006047D02*
X75092309Y-54886999D01*
X75092309Y-54886999D02*
X75116119Y-54815571D01*
X75116119Y-54815571D02*
X75163738Y-54767952D01*
X75163738Y-54767952D02*
X75211357Y-54744142D01*
X75211357Y-54744142D02*
X75306595Y-54720333D01*
X75306595Y-54720333D02*
X75378023Y-54720333D01*
X75378023Y-54720333D02*
X75473261Y-54744142D01*
X75473261Y-54744142D02*
X75520880Y-54767952D01*
X75520880Y-54767952D02*
X75568500Y-54815571D01*
X75568500Y-54815571D02*
X75592309Y-54886999D01*
X75592309Y-54886999D02*
X75592309Y-55006047D01*
X75258976Y-54291761D02*
X75592309Y-54291761D01*
X75068500Y-54410809D02*
X75425642Y-54529856D01*
X75425642Y-54529856D02*
X75425642Y-54220333D01*
X77492309Y-58644142D02*
X77492309Y-58929856D01*
X77492309Y-58786999D02*
X76992309Y-58786999D01*
X76992309Y-58786999D02*
X77063738Y-58834618D01*
X77063738Y-58834618D02*
X77111357Y-58882237D01*
X77111357Y-58882237D02*
X77135166Y-58929856D01*
X79072309Y-43170333D02*
X78834214Y-43336999D01*
X79072309Y-43456047D02*
X78572309Y-43456047D01*
X78572309Y-43456047D02*
X78572309Y-43265571D01*
X78572309Y-43265571D02*
X78596119Y-43217952D01*
X78596119Y-43217952D02*
X78619928Y-43194142D01*
X78619928Y-43194142D02*
X78667547Y-43170333D01*
X78667547Y-43170333D02*
X78738976Y-43170333D01*
X78738976Y-43170333D02*
X78786595Y-43194142D01*
X78786595Y-43194142D02*
X78810404Y-43217952D01*
X78810404Y-43217952D02*
X78834214Y-43265571D01*
X78834214Y-43265571D02*
X78834214Y-43456047D01*
X79072309Y-42694142D02*
X79072309Y-42979856D01*
X79072309Y-42836999D02*
X78572309Y-42836999D01*
X78572309Y-42836999D02*
X78643738Y-42884618D01*
X78643738Y-42884618D02*
X78691357Y-42932237D01*
X78691357Y-42932237D02*
X78715166Y-42979856D01*
D11*
X97122142Y-52498580D02*
X97074523Y-52546200D01*
X97074523Y-52546200D02*
X96931666Y-52593819D01*
X96931666Y-52593819D02*
X96836428Y-52593819D01*
X96836428Y-52593819D02*
X96693571Y-52546200D01*
X96693571Y-52546200D02*
X96598333Y-52450961D01*
X96598333Y-52450961D02*
X96550714Y-52355723D01*
X96550714Y-52355723D02*
X96503095Y-52165247D01*
X96503095Y-52165247D02*
X96503095Y-52022390D01*
X96503095Y-52022390D02*
X96550714Y-51831914D01*
X96550714Y-51831914D02*
X96598333Y-51736676D01*
X96598333Y-51736676D02*
X96693571Y-51641438D01*
X96693571Y-51641438D02*
X96836428Y-51593819D01*
X96836428Y-51593819D02*
X96931666Y-51593819D01*
X96931666Y-51593819D02*
X97074523Y-51641438D01*
X97074523Y-51641438D02*
X97122142Y-51689057D01*
X97455476Y-51593819D02*
X98074523Y-51593819D01*
X98074523Y-51593819D02*
X97741190Y-51974771D01*
X97741190Y-51974771D02*
X97884047Y-51974771D01*
X97884047Y-51974771D02*
X97979285Y-52022390D01*
X97979285Y-52022390D02*
X98026904Y-52070009D01*
X98026904Y-52070009D02*
X98074523Y-52165247D01*
X98074523Y-52165247D02*
X98074523Y-52403342D01*
X98074523Y-52403342D02*
X98026904Y-52498580D01*
X98026904Y-52498580D02*
X97979285Y-52546200D01*
X97979285Y-52546200D02*
X97884047Y-52593819D01*
X97884047Y-52593819D02*
X97598333Y-52593819D01*
X97598333Y-52593819D02*
X97503095Y-52546200D01*
X97503095Y-52546200D02*
X97455476Y-52498580D01*
X99026904Y-52593819D02*
X98455476Y-52593819D01*
X98741190Y-52593819D02*
X98741190Y-51593819D01*
X98741190Y-51593819D02*
X98645952Y-51736676D01*
X98645952Y-51736676D02*
X98550714Y-51831914D01*
X98550714Y-51831914D02*
X98455476Y-51879533D01*
D10*
X78844166Y-61181809D02*
X78677500Y-60943714D01*
X78558452Y-61181809D02*
X78558452Y-60681809D01*
X78558452Y-60681809D02*
X78748928Y-60681809D01*
X78748928Y-60681809D02*
X78796547Y-60705619D01*
X78796547Y-60705619D02*
X78820357Y-60729428D01*
X78820357Y-60729428D02*
X78844166Y-60777047D01*
X78844166Y-60777047D02*
X78844166Y-60848476D01*
X78844166Y-60848476D02*
X78820357Y-60896095D01*
X78820357Y-60896095D02*
X78796547Y-60919904D01*
X78796547Y-60919904D02*
X78748928Y-60943714D01*
X78748928Y-60943714D02*
X78558452Y-60943714D01*
X79034643Y-60729428D02*
X79058452Y-60705619D01*
X79058452Y-60705619D02*
X79106071Y-60681809D01*
X79106071Y-60681809D02*
X79225119Y-60681809D01*
X79225119Y-60681809D02*
X79272738Y-60705619D01*
X79272738Y-60705619D02*
X79296547Y-60729428D01*
X79296547Y-60729428D02*
X79320357Y-60777047D01*
X79320357Y-60777047D02*
X79320357Y-60824666D01*
X79320357Y-60824666D02*
X79296547Y-60896095D01*
X79296547Y-60896095D02*
X79010833Y-61181809D01*
X79010833Y-61181809D02*
X79320357Y-61181809D01*
X90108500Y-55303665D02*
X90132309Y-55232237D01*
X90132309Y-55232237D02*
X90132309Y-55113189D01*
X90132309Y-55113189D02*
X90108500Y-55065570D01*
X90108500Y-55065570D02*
X90084690Y-55041761D01*
X90084690Y-55041761D02*
X90037071Y-55017951D01*
X90037071Y-55017951D02*
X89989452Y-55017951D01*
X89989452Y-55017951D02*
X89941833Y-55041761D01*
X89941833Y-55041761D02*
X89918023Y-55065570D01*
X89918023Y-55065570D02*
X89894214Y-55113189D01*
X89894214Y-55113189D02*
X89870404Y-55208427D01*
X89870404Y-55208427D02*
X89846595Y-55256046D01*
X89846595Y-55256046D02*
X89822785Y-55279856D01*
X89822785Y-55279856D02*
X89775166Y-55303665D01*
X89775166Y-55303665D02*
X89727547Y-55303665D01*
X89727547Y-55303665D02*
X89679928Y-55279856D01*
X89679928Y-55279856D02*
X89656119Y-55256046D01*
X89656119Y-55256046D02*
X89632309Y-55208427D01*
X89632309Y-55208427D02*
X89632309Y-55089380D01*
X89632309Y-55089380D02*
X89656119Y-55017951D01*
X89632309Y-54851285D02*
X90132309Y-54732237D01*
X90132309Y-54732237D02*
X89775166Y-54636999D01*
X89775166Y-54636999D02*
X90132309Y-54541761D01*
X90132309Y-54541761D02*
X89632309Y-54422714D01*
X89632309Y-53994142D02*
X89632309Y-54232237D01*
X89632309Y-54232237D02*
X89870404Y-54256046D01*
X89870404Y-54256046D02*
X89846595Y-54232237D01*
X89846595Y-54232237D02*
X89822785Y-54184618D01*
X89822785Y-54184618D02*
X89822785Y-54065570D01*
X89822785Y-54065570D02*
X89846595Y-54017951D01*
X89846595Y-54017951D02*
X89870404Y-53994142D01*
X89870404Y-53994142D02*
X89918023Y-53970332D01*
X89918023Y-53970332D02*
X90037071Y-53970332D01*
X90037071Y-53970332D02*
X90084690Y-53994142D01*
X90084690Y-53994142D02*
X90108500Y-54017951D01*
X90108500Y-54017951D02*
X90132309Y-54065570D01*
X90132309Y-54065570D02*
X90132309Y-54184618D01*
X90132309Y-54184618D02*
X90108500Y-54232237D01*
X90108500Y-54232237D02*
X90084690Y-54256046D01*
D11*
X99734580Y-56999857D02*
X99782200Y-57047476D01*
X99782200Y-57047476D02*
X99829819Y-57190333D01*
X99829819Y-57190333D02*
X99829819Y-57285571D01*
X99829819Y-57285571D02*
X99782200Y-57428428D01*
X99782200Y-57428428D02*
X99686961Y-57523666D01*
X99686961Y-57523666D02*
X99591723Y-57571285D01*
X99591723Y-57571285D02*
X99401247Y-57618904D01*
X99401247Y-57618904D02*
X99258390Y-57618904D01*
X99258390Y-57618904D02*
X99067914Y-57571285D01*
X99067914Y-57571285D02*
X98972676Y-57523666D01*
X98972676Y-57523666D02*
X98877438Y-57428428D01*
X98877438Y-57428428D02*
X98829819Y-57285571D01*
X98829819Y-57285571D02*
X98829819Y-57190333D01*
X98829819Y-57190333D02*
X98877438Y-57047476D01*
X98877438Y-57047476D02*
X98925057Y-56999857D01*
X99829819Y-56047476D02*
X99829819Y-56618904D01*
X99829819Y-56333190D02*
X98829819Y-56333190D01*
X98829819Y-56333190D02*
X98972676Y-56428428D01*
X98972676Y-56428428D02*
X99067914Y-56523666D01*
X99067914Y-56523666D02*
X99115533Y-56618904D01*
X98925057Y-55666523D02*
X98877438Y-55618904D01*
X98877438Y-55618904D02*
X98829819Y-55523666D01*
X98829819Y-55523666D02*
X98829819Y-55285571D01*
X98829819Y-55285571D02*
X98877438Y-55190333D01*
X98877438Y-55190333D02*
X98925057Y-55142714D01*
X98925057Y-55142714D02*
X99020295Y-55095095D01*
X99020295Y-55095095D02*
X99115533Y-55095095D01*
X99115533Y-55095095D02*
X99258390Y-55142714D01*
X99258390Y-55142714D02*
X99829819Y-55714142D01*
X99829819Y-55714142D02*
X99829819Y-55095095D01*
D10*
X101463571Y-64924190D02*
X101439762Y-64948000D01*
X101439762Y-64948000D02*
X101368333Y-64971809D01*
X101368333Y-64971809D02*
X101320714Y-64971809D01*
X101320714Y-64971809D02*
X101249286Y-64948000D01*
X101249286Y-64948000D02*
X101201667Y-64900380D01*
X101201667Y-64900380D02*
X101177857Y-64852761D01*
X101177857Y-64852761D02*
X101154048Y-64757523D01*
X101154048Y-64757523D02*
X101154048Y-64686095D01*
X101154048Y-64686095D02*
X101177857Y-64590857D01*
X101177857Y-64590857D02*
X101201667Y-64543238D01*
X101201667Y-64543238D02*
X101249286Y-64495619D01*
X101249286Y-64495619D02*
X101320714Y-64471809D01*
X101320714Y-64471809D02*
X101368333Y-64471809D01*
X101368333Y-64471809D02*
X101439762Y-64495619D01*
X101439762Y-64495619D02*
X101463571Y-64519428D01*
X101654048Y-64519428D02*
X101677857Y-64495619D01*
X101677857Y-64495619D02*
X101725476Y-64471809D01*
X101725476Y-64471809D02*
X101844524Y-64471809D01*
X101844524Y-64471809D02*
X101892143Y-64495619D01*
X101892143Y-64495619D02*
X101915952Y-64519428D01*
X101915952Y-64519428D02*
X101939762Y-64567047D01*
X101939762Y-64567047D02*
X101939762Y-64614666D01*
X101939762Y-64614666D02*
X101915952Y-64686095D01*
X101915952Y-64686095D02*
X101630238Y-64971809D01*
X101630238Y-64971809D02*
X101939762Y-64971809D01*
X102415952Y-64971809D02*
X102130238Y-64971809D01*
X102273095Y-64971809D02*
X102273095Y-64471809D01*
X102273095Y-64471809D02*
X102225476Y-64543238D01*
X102225476Y-64543238D02*
X102177857Y-64590857D01*
X102177857Y-64590857D02*
X102130238Y-64614666D01*
X80314690Y-43170333D02*
X80338500Y-43194142D01*
X80338500Y-43194142D02*
X80362309Y-43265571D01*
X80362309Y-43265571D02*
X80362309Y-43313190D01*
X80362309Y-43313190D02*
X80338500Y-43384618D01*
X80338500Y-43384618D02*
X80290880Y-43432237D01*
X80290880Y-43432237D02*
X80243261Y-43456047D01*
X80243261Y-43456047D02*
X80148023Y-43479856D01*
X80148023Y-43479856D02*
X80076595Y-43479856D01*
X80076595Y-43479856D02*
X79981357Y-43456047D01*
X79981357Y-43456047D02*
X79933738Y-43432237D01*
X79933738Y-43432237D02*
X79886119Y-43384618D01*
X79886119Y-43384618D02*
X79862309Y-43313190D01*
X79862309Y-43313190D02*
X79862309Y-43265571D01*
X79862309Y-43265571D02*
X79886119Y-43194142D01*
X79886119Y-43194142D02*
X79909928Y-43170333D01*
X80362309Y-42694142D02*
X80362309Y-42979856D01*
X80362309Y-42836999D02*
X79862309Y-42836999D01*
X79862309Y-42836999D02*
X79933738Y-42884618D01*
X79933738Y-42884618D02*
X79981357Y-42932237D01*
X79981357Y-42932237D02*
X80005166Y-42979856D01*
X75740690Y-64012238D02*
X76240690Y-64012238D01*
X76240690Y-64012238D02*
X75883547Y-64178905D01*
X75883547Y-64178905D02*
X76240690Y-64345571D01*
X76240690Y-64345571D02*
X75740690Y-64345571D01*
X75740690Y-64583667D02*
X76240690Y-64583667D01*
X75740690Y-64869381D02*
X76026404Y-64655096D01*
X76240690Y-64869381D02*
X75954976Y-64583667D01*
X76193071Y-65059858D02*
X76216880Y-65083667D01*
X76216880Y-65083667D02*
X76240690Y-65131286D01*
X76240690Y-65131286D02*
X76240690Y-65250334D01*
X76240690Y-65250334D02*
X76216880Y-65297953D01*
X76216880Y-65297953D02*
X76193071Y-65321762D01*
X76193071Y-65321762D02*
X76145452Y-65345572D01*
X76145452Y-65345572D02*
X76097833Y-65345572D01*
X76097833Y-65345572D02*
X76026404Y-65321762D01*
X76026404Y-65321762D02*
X75740690Y-65036048D01*
X75740690Y-65036048D02*
X75740690Y-65345572D01*
D11*
X73777080Y-39679857D02*
X73824700Y-39727476D01*
X73824700Y-39727476D02*
X73872319Y-39870333D01*
X73872319Y-39870333D02*
X73872319Y-39965571D01*
X73872319Y-39965571D02*
X73824700Y-40108428D01*
X73824700Y-40108428D02*
X73729461Y-40203666D01*
X73729461Y-40203666D02*
X73634223Y-40251285D01*
X73634223Y-40251285D02*
X73443747Y-40298904D01*
X73443747Y-40298904D02*
X73300890Y-40298904D01*
X73300890Y-40298904D02*
X73110414Y-40251285D01*
X73110414Y-40251285D02*
X73015176Y-40203666D01*
X73015176Y-40203666D02*
X72919938Y-40108428D01*
X72919938Y-40108428D02*
X72872319Y-39965571D01*
X72872319Y-39965571D02*
X72872319Y-39870333D01*
X72872319Y-39870333D02*
X72919938Y-39727476D01*
X72919938Y-39727476D02*
X72967557Y-39679857D01*
X72967557Y-39298904D02*
X72919938Y-39251285D01*
X72919938Y-39251285D02*
X72872319Y-39156047D01*
X72872319Y-39156047D02*
X72872319Y-38917952D01*
X72872319Y-38917952D02*
X72919938Y-38822714D01*
X72919938Y-38822714D02*
X72967557Y-38775095D01*
X72967557Y-38775095D02*
X73062795Y-38727476D01*
X73062795Y-38727476D02*
X73158033Y-38727476D01*
X73158033Y-38727476D02*
X73300890Y-38775095D01*
X73300890Y-38775095D02*
X73872319Y-39346523D01*
X73872319Y-39346523D02*
X73872319Y-38727476D01*
X72872319Y-38394142D02*
X72872319Y-37727476D01*
X72872319Y-37727476D02*
X73872319Y-38156047D01*
D10*
X78824166Y-68934190D02*
X78800357Y-68958000D01*
X78800357Y-68958000D02*
X78728928Y-68981809D01*
X78728928Y-68981809D02*
X78681309Y-68981809D01*
X78681309Y-68981809D02*
X78609881Y-68958000D01*
X78609881Y-68958000D02*
X78562262Y-68910380D01*
X78562262Y-68910380D02*
X78538452Y-68862761D01*
X78538452Y-68862761D02*
X78514643Y-68767523D01*
X78514643Y-68767523D02*
X78514643Y-68696095D01*
X78514643Y-68696095D02*
X78538452Y-68600857D01*
X78538452Y-68600857D02*
X78562262Y-68553238D01*
X78562262Y-68553238D02*
X78609881Y-68505619D01*
X78609881Y-68505619D02*
X78681309Y-68481809D01*
X78681309Y-68481809D02*
X78728928Y-68481809D01*
X78728928Y-68481809D02*
X78800357Y-68505619D01*
X78800357Y-68505619D02*
X78824166Y-68529428D01*
X79252738Y-68648476D02*
X79252738Y-68981809D01*
X79133690Y-68458000D02*
X79014643Y-68815142D01*
X79014643Y-68815142D02*
X79324166Y-68815142D01*
X72422309Y-39788428D02*
X72184214Y-39955094D01*
X72422309Y-40074142D02*
X71922309Y-40074142D01*
X71922309Y-40074142D02*
X71922309Y-39883666D01*
X71922309Y-39883666D02*
X71946119Y-39836047D01*
X71946119Y-39836047D02*
X71969928Y-39812237D01*
X71969928Y-39812237D02*
X72017547Y-39788428D01*
X72017547Y-39788428D02*
X72088976Y-39788428D01*
X72088976Y-39788428D02*
X72136595Y-39812237D01*
X72136595Y-39812237D02*
X72160404Y-39836047D01*
X72160404Y-39836047D02*
X72184214Y-39883666D01*
X72184214Y-39883666D02*
X72184214Y-40074142D01*
X72422309Y-39312237D02*
X72422309Y-39597951D01*
X72422309Y-39455094D02*
X71922309Y-39455094D01*
X71922309Y-39455094D02*
X71993738Y-39502713D01*
X71993738Y-39502713D02*
X72041357Y-39550332D01*
X72041357Y-39550332D02*
X72065166Y-39597951D01*
X71969928Y-39121761D02*
X71946119Y-39097952D01*
X71946119Y-39097952D02*
X71922309Y-39050333D01*
X71922309Y-39050333D02*
X71922309Y-38931285D01*
X71922309Y-38931285D02*
X71946119Y-38883666D01*
X71946119Y-38883666D02*
X71969928Y-38859857D01*
X71969928Y-38859857D02*
X72017547Y-38836047D01*
X72017547Y-38836047D02*
X72065166Y-38836047D01*
X72065166Y-38836047D02*
X72136595Y-38859857D01*
X72136595Y-38859857D02*
X72422309Y-39145571D01*
X72422309Y-39145571D02*
X72422309Y-38836047D01*
X73914690Y-53738428D02*
X73938500Y-53762237D01*
X73938500Y-53762237D02*
X73962309Y-53833666D01*
X73962309Y-53833666D02*
X73962309Y-53881285D01*
X73962309Y-53881285D02*
X73938500Y-53952713D01*
X73938500Y-53952713D02*
X73890880Y-54000332D01*
X73890880Y-54000332D02*
X73843261Y-54024142D01*
X73843261Y-54024142D02*
X73748023Y-54047951D01*
X73748023Y-54047951D02*
X73676595Y-54047951D01*
X73676595Y-54047951D02*
X73581357Y-54024142D01*
X73581357Y-54024142D02*
X73533738Y-54000332D01*
X73533738Y-54000332D02*
X73486119Y-53952713D01*
X73486119Y-53952713D02*
X73462309Y-53881285D01*
X73462309Y-53881285D02*
X73462309Y-53833666D01*
X73462309Y-53833666D02*
X73486119Y-53762237D01*
X73486119Y-53762237D02*
X73509928Y-53738428D01*
X73509928Y-53547951D02*
X73486119Y-53524142D01*
X73486119Y-53524142D02*
X73462309Y-53476523D01*
X73462309Y-53476523D02*
X73462309Y-53357475D01*
X73462309Y-53357475D02*
X73486119Y-53309856D01*
X73486119Y-53309856D02*
X73509928Y-53286047D01*
X73509928Y-53286047D02*
X73557547Y-53262237D01*
X73557547Y-53262237D02*
X73605166Y-53262237D01*
X73605166Y-53262237D02*
X73676595Y-53286047D01*
X73676595Y-53286047D02*
X73962309Y-53571761D01*
X73962309Y-53571761D02*
X73962309Y-53262237D01*
X73462309Y-52833666D02*
X73462309Y-52928904D01*
X73462309Y-52928904D02*
X73486119Y-52976523D01*
X73486119Y-52976523D02*
X73509928Y-53000333D01*
X73509928Y-53000333D02*
X73581357Y-53047952D01*
X73581357Y-53047952D02*
X73676595Y-53071761D01*
X73676595Y-53071761D02*
X73867071Y-53071761D01*
X73867071Y-53071761D02*
X73914690Y-53047952D01*
X73914690Y-53047952D02*
X73938500Y-53024142D01*
X73938500Y-53024142D02*
X73962309Y-52976523D01*
X73962309Y-52976523D02*
X73962309Y-52881285D01*
X73962309Y-52881285D02*
X73938500Y-52833666D01*
X73938500Y-52833666D02*
X73914690Y-52809857D01*
X73914690Y-52809857D02*
X73867071Y-52786047D01*
X73867071Y-52786047D02*
X73748023Y-52786047D01*
X73748023Y-52786047D02*
X73700404Y-52809857D01*
X73700404Y-52809857D02*
X73676595Y-52833666D01*
X73676595Y-52833666D02*
X73652785Y-52881285D01*
X73652785Y-52881285D02*
X73652785Y-52976523D01*
X73652785Y-52976523D02*
X73676595Y-53024142D01*
X73676595Y-53024142D02*
X73700404Y-53047952D01*
X73700404Y-53047952D02*
X73748023Y-53071761D01*
D11*
X98751102Y-44306296D02*
X98676802Y-44175318D01*
X98676802Y-44175318D02*
X98499862Y-44016001D01*
X98499862Y-44016001D02*
X98397223Y-43987662D01*
X98397223Y-43987662D02*
X98329972Y-43991187D01*
X98329972Y-43991187D02*
X98230858Y-44030099D01*
X98230858Y-44030099D02*
X98167131Y-44100875D01*
X98167131Y-44100875D02*
X98138792Y-44203514D01*
X98138792Y-44203514D02*
X98142316Y-44270765D01*
X98142316Y-44270765D02*
X98181229Y-44369879D01*
X98181229Y-44369879D02*
X98290917Y-44532721D01*
X98290917Y-44532721D02*
X98329829Y-44631835D01*
X98329829Y-44631835D02*
X98333354Y-44699087D01*
X98333354Y-44699087D02*
X98305015Y-44801726D01*
X98305015Y-44801726D02*
X98241288Y-44872501D01*
X98241288Y-44872501D02*
X98142173Y-44911414D01*
X98142173Y-44911414D02*
X98074922Y-44914938D01*
X98074922Y-44914938D02*
X97972283Y-44886599D01*
X97972283Y-44886599D02*
X97795344Y-44727282D01*
X97795344Y-44727282D02*
X97721044Y-44596304D01*
X97441465Y-44408649D02*
X97933657Y-43506187D01*
X97933657Y-43506187D02*
X97314155Y-43909551D01*
X97314155Y-43909551D02*
X97650554Y-43251280D01*
X97650554Y-43251280D02*
X96804484Y-43835108D01*
X96620496Y-43541289D02*
X96553245Y-43544814D01*
X96553245Y-43544814D02*
X96450606Y-43516475D01*
X96450606Y-43516475D02*
X96273667Y-43357158D01*
X96273667Y-43357158D02*
X96234754Y-43258043D01*
X96234754Y-43258043D02*
X96231230Y-43190792D01*
X96231230Y-43190792D02*
X96259569Y-43088153D01*
X96259569Y-43088153D02*
X96323295Y-43017377D01*
X96323295Y-43017377D02*
X96454273Y-42943077D01*
X96454273Y-42943077D02*
X97261288Y-42900783D01*
X97261288Y-42900783D02*
X96801246Y-42486560D01*
X100532764Y-40544151D02*
X100373447Y-40721091D01*
X100260235Y-40490998D02*
X100373447Y-40721091D01*
X100373447Y-40721091D02*
X100614113Y-40809632D01*
X100139830Y-40767052D02*
X100373447Y-40721091D01*
X100373447Y-40721091D02*
X100352157Y-40958232D01*
D10*
X99017309Y-51297952D02*
X99422071Y-51297952D01*
X99422071Y-51297952D02*
X99469690Y-51274142D01*
X99469690Y-51274142D02*
X99493500Y-51250333D01*
X99493500Y-51250333D02*
X99517309Y-51202714D01*
X99517309Y-51202714D02*
X99517309Y-51107476D01*
X99517309Y-51107476D02*
X99493500Y-51059857D01*
X99493500Y-51059857D02*
X99469690Y-51036047D01*
X99469690Y-51036047D02*
X99422071Y-51012238D01*
X99422071Y-51012238D02*
X99017309Y-51012238D01*
X99017309Y-50821761D02*
X99017309Y-50512237D01*
X99017309Y-50512237D02*
X99207785Y-50678904D01*
X99207785Y-50678904D02*
X99207785Y-50607475D01*
X99207785Y-50607475D02*
X99231595Y-50559856D01*
X99231595Y-50559856D02*
X99255404Y-50536047D01*
X99255404Y-50536047D02*
X99303023Y-50512237D01*
X99303023Y-50512237D02*
X99422071Y-50512237D01*
X99422071Y-50512237D02*
X99469690Y-50536047D01*
X99469690Y-50536047D02*
X99493500Y-50559856D01*
X99493500Y-50559856D02*
X99517309Y-50607475D01*
X99517309Y-50607475D02*
X99517309Y-50750332D01*
X99517309Y-50750332D02*
X99493500Y-50797951D01*
X99493500Y-50797951D02*
X99469690Y-50821761D01*
D11*
X76786181Y-67572613D02*
X76541881Y-68243822D01*
X76541881Y-68243822D02*
X76448274Y-68361777D01*
X76448274Y-68361777D02*
X76326206Y-68418699D01*
X76326206Y-68418699D02*
X76175678Y-68414586D01*
X76175678Y-68414586D02*
X76086183Y-68382012D01*
X77383854Y-68854326D02*
X76846887Y-68658886D01*
X77115370Y-68756606D02*
X77457391Y-67816913D01*
X77457391Y-67816913D02*
X77319036Y-67918582D01*
X77319036Y-67918582D02*
X77196968Y-67975503D01*
X77196968Y-67975503D02*
X77091187Y-67987677D01*
X92404642Y-52618580D02*
X92357023Y-52666200D01*
X92357023Y-52666200D02*
X92214166Y-52713819D01*
X92214166Y-52713819D02*
X92118928Y-52713819D01*
X92118928Y-52713819D02*
X91976071Y-52666200D01*
X91976071Y-52666200D02*
X91880833Y-52570961D01*
X91880833Y-52570961D02*
X91833214Y-52475723D01*
X91833214Y-52475723D02*
X91785595Y-52285247D01*
X91785595Y-52285247D02*
X91785595Y-52142390D01*
X91785595Y-52142390D02*
X91833214Y-51951914D01*
X91833214Y-51951914D02*
X91880833Y-51856676D01*
X91880833Y-51856676D02*
X91976071Y-51761438D01*
X91976071Y-51761438D02*
X92118928Y-51713819D01*
X92118928Y-51713819D02*
X92214166Y-51713819D01*
X92214166Y-51713819D02*
X92357023Y-51761438D01*
X92357023Y-51761438D02*
X92404642Y-51809057D01*
X92737976Y-51713819D02*
X93357023Y-51713819D01*
X93357023Y-51713819D02*
X93023690Y-52094771D01*
X93023690Y-52094771D02*
X93166547Y-52094771D01*
X93166547Y-52094771D02*
X93261785Y-52142390D01*
X93261785Y-52142390D02*
X93309404Y-52190009D01*
X93309404Y-52190009D02*
X93357023Y-52285247D01*
X93357023Y-52285247D02*
X93357023Y-52523342D01*
X93357023Y-52523342D02*
X93309404Y-52618580D01*
X93309404Y-52618580D02*
X93261785Y-52666200D01*
X93261785Y-52666200D02*
X93166547Y-52713819D01*
X93166547Y-52713819D02*
X92880833Y-52713819D01*
X92880833Y-52713819D02*
X92785595Y-52666200D01*
X92785595Y-52666200D02*
X92737976Y-52618580D01*
X93690357Y-51713819D02*
X94309404Y-51713819D01*
X94309404Y-51713819D02*
X93976071Y-52094771D01*
X93976071Y-52094771D02*
X94118928Y-52094771D01*
X94118928Y-52094771D02*
X94214166Y-52142390D01*
X94214166Y-52142390D02*
X94261785Y-52190009D01*
X94261785Y-52190009D02*
X94309404Y-52285247D01*
X94309404Y-52285247D02*
X94309404Y-52523342D01*
X94309404Y-52523342D02*
X94261785Y-52618580D01*
X94261785Y-52618580D02*
X94214166Y-52666200D01*
X94214166Y-52666200D02*
X94118928Y-52713819D01*
X94118928Y-52713819D02*
X93833214Y-52713819D01*
X93833214Y-52713819D02*
X93737976Y-52666200D01*
X93737976Y-52666200D02*
X93690357Y-52618580D01*
X94844642Y-48986580D02*
X94797023Y-49034200D01*
X94797023Y-49034200D02*
X94654166Y-49081819D01*
X94654166Y-49081819D02*
X94558928Y-49081819D01*
X94558928Y-49081819D02*
X94416071Y-49034200D01*
X94416071Y-49034200D02*
X94320833Y-48938961D01*
X94320833Y-48938961D02*
X94273214Y-48843723D01*
X94273214Y-48843723D02*
X94225595Y-48653247D01*
X94225595Y-48653247D02*
X94225595Y-48510390D01*
X94225595Y-48510390D02*
X94273214Y-48319914D01*
X94273214Y-48319914D02*
X94320833Y-48224676D01*
X94320833Y-48224676D02*
X94416071Y-48129438D01*
X94416071Y-48129438D02*
X94558928Y-48081819D01*
X94558928Y-48081819D02*
X94654166Y-48081819D01*
X94654166Y-48081819D02*
X94797023Y-48129438D01*
X94797023Y-48129438D02*
X94844642Y-48177057D01*
X95225595Y-48177057D02*
X95273214Y-48129438D01*
X95273214Y-48129438D02*
X95368452Y-48081819D01*
X95368452Y-48081819D02*
X95606547Y-48081819D01*
X95606547Y-48081819D02*
X95701785Y-48129438D01*
X95701785Y-48129438D02*
X95749404Y-48177057D01*
X95749404Y-48177057D02*
X95797023Y-48272295D01*
X95797023Y-48272295D02*
X95797023Y-48367533D01*
X95797023Y-48367533D02*
X95749404Y-48510390D01*
X95749404Y-48510390D02*
X95177976Y-49081819D01*
X95177976Y-49081819D02*
X95797023Y-49081819D01*
X96130357Y-48081819D02*
X96749404Y-48081819D01*
X96749404Y-48081819D02*
X96416071Y-48462771D01*
X96416071Y-48462771D02*
X96558928Y-48462771D01*
X96558928Y-48462771D02*
X96654166Y-48510390D01*
X96654166Y-48510390D02*
X96701785Y-48558009D01*
X96701785Y-48558009D02*
X96749404Y-48653247D01*
X96749404Y-48653247D02*
X96749404Y-48891342D01*
X96749404Y-48891342D02*
X96701785Y-48986580D01*
X96701785Y-48986580D02*
X96654166Y-49034200D01*
X96654166Y-49034200D02*
X96558928Y-49081819D01*
X96558928Y-49081819D02*
X96273214Y-49081819D01*
X96273214Y-49081819D02*
X96177976Y-49034200D01*
X96177976Y-49034200D02*
X96130357Y-48986580D01*
D10*
X68798571Y-50291809D02*
X68631905Y-50053714D01*
X68512857Y-50291809D02*
X68512857Y-49791809D01*
X68512857Y-49791809D02*
X68703333Y-49791809D01*
X68703333Y-49791809D02*
X68750952Y-49815619D01*
X68750952Y-49815619D02*
X68774762Y-49839428D01*
X68774762Y-49839428D02*
X68798571Y-49887047D01*
X68798571Y-49887047D02*
X68798571Y-49958476D01*
X68798571Y-49958476D02*
X68774762Y-50006095D01*
X68774762Y-50006095D02*
X68750952Y-50029904D01*
X68750952Y-50029904D02*
X68703333Y-50053714D01*
X68703333Y-50053714D02*
X68512857Y-50053714D01*
X69274762Y-50291809D02*
X68989048Y-50291809D01*
X69131905Y-50291809D02*
X69131905Y-49791809D01*
X69131905Y-49791809D02*
X69084286Y-49863238D01*
X69084286Y-49863238D02*
X69036667Y-49910857D01*
X69036667Y-49910857D02*
X68989048Y-49934666D01*
X69584285Y-49791809D02*
X69631904Y-49791809D01*
X69631904Y-49791809D02*
X69679523Y-49815619D01*
X69679523Y-49815619D02*
X69703333Y-49839428D01*
X69703333Y-49839428D02*
X69727142Y-49887047D01*
X69727142Y-49887047D02*
X69750952Y-49982285D01*
X69750952Y-49982285D02*
X69750952Y-50101333D01*
X69750952Y-50101333D02*
X69727142Y-50196571D01*
X69727142Y-50196571D02*
X69703333Y-50244190D01*
X69703333Y-50244190D02*
X69679523Y-50268000D01*
X69679523Y-50268000D02*
X69631904Y-50291809D01*
X69631904Y-50291809D02*
X69584285Y-50291809D01*
X69584285Y-50291809D02*
X69536666Y-50268000D01*
X69536666Y-50268000D02*
X69512857Y-50244190D01*
X69512857Y-50244190D02*
X69489047Y-50196571D01*
X69489047Y-50196571D02*
X69465238Y-50101333D01*
X69465238Y-50101333D02*
X69465238Y-49982285D01*
X69465238Y-49982285D02*
X69489047Y-49887047D01*
X69489047Y-49887047D02*
X69512857Y-49839428D01*
X69512857Y-49839428D02*
X69536666Y-49815619D01*
X69536666Y-49815619D02*
X69584285Y-49791809D01*
X80482809Y-62472833D02*
X80244714Y-62639499D01*
X80482809Y-62758547D02*
X79982809Y-62758547D01*
X79982809Y-62758547D02*
X79982809Y-62568071D01*
X79982809Y-62568071D02*
X80006619Y-62520452D01*
X80006619Y-62520452D02*
X80030428Y-62496642D01*
X80030428Y-62496642D02*
X80078047Y-62472833D01*
X80078047Y-62472833D02*
X80149476Y-62472833D01*
X80149476Y-62472833D02*
X80197095Y-62496642D01*
X80197095Y-62496642D02*
X80220904Y-62520452D01*
X80220904Y-62520452D02*
X80244714Y-62568071D01*
X80244714Y-62568071D02*
X80244714Y-62758547D01*
X79982809Y-62306166D02*
X79982809Y-61996642D01*
X79982809Y-61996642D02*
X80173285Y-62163309D01*
X80173285Y-62163309D02*
X80173285Y-62091880D01*
X80173285Y-62091880D02*
X80197095Y-62044261D01*
X80197095Y-62044261D02*
X80220904Y-62020452D01*
X80220904Y-62020452D02*
X80268523Y-61996642D01*
X80268523Y-61996642D02*
X80387571Y-61996642D01*
X80387571Y-61996642D02*
X80435190Y-62020452D01*
X80435190Y-62020452D02*
X80459000Y-62044261D01*
X80459000Y-62044261D02*
X80482809Y-62091880D01*
X80482809Y-62091880D02*
X80482809Y-62234737D01*
X80482809Y-62234737D02*
X80459000Y-62282356D01*
X80459000Y-62282356D02*
X80435190Y-62306166D01*
X74864690Y-53720928D02*
X74888500Y-53744737D01*
X74888500Y-53744737D02*
X74912309Y-53816166D01*
X74912309Y-53816166D02*
X74912309Y-53863785D01*
X74912309Y-53863785D02*
X74888500Y-53935213D01*
X74888500Y-53935213D02*
X74840880Y-53982832D01*
X74840880Y-53982832D02*
X74793261Y-54006642D01*
X74793261Y-54006642D02*
X74698023Y-54030451D01*
X74698023Y-54030451D02*
X74626595Y-54030451D01*
X74626595Y-54030451D02*
X74531357Y-54006642D01*
X74531357Y-54006642D02*
X74483738Y-53982832D01*
X74483738Y-53982832D02*
X74436119Y-53935213D01*
X74436119Y-53935213D02*
X74412309Y-53863785D01*
X74412309Y-53863785D02*
X74412309Y-53816166D01*
X74412309Y-53816166D02*
X74436119Y-53744737D01*
X74436119Y-53744737D02*
X74459928Y-53720928D01*
X74459928Y-53530451D02*
X74436119Y-53506642D01*
X74436119Y-53506642D02*
X74412309Y-53459023D01*
X74412309Y-53459023D02*
X74412309Y-53339975D01*
X74412309Y-53339975D02*
X74436119Y-53292356D01*
X74436119Y-53292356D02*
X74459928Y-53268547D01*
X74459928Y-53268547D02*
X74507547Y-53244737D01*
X74507547Y-53244737D02*
X74555166Y-53244737D01*
X74555166Y-53244737D02*
X74626595Y-53268547D01*
X74626595Y-53268547D02*
X74912309Y-53554261D01*
X74912309Y-53554261D02*
X74912309Y-53244737D01*
X74412309Y-52792357D02*
X74412309Y-53030452D01*
X74412309Y-53030452D02*
X74650404Y-53054261D01*
X74650404Y-53054261D02*
X74626595Y-53030452D01*
X74626595Y-53030452D02*
X74602785Y-52982833D01*
X74602785Y-52982833D02*
X74602785Y-52863785D01*
X74602785Y-52863785D02*
X74626595Y-52816166D01*
X74626595Y-52816166D02*
X74650404Y-52792357D01*
X74650404Y-52792357D02*
X74698023Y-52768547D01*
X74698023Y-52768547D02*
X74817071Y-52768547D01*
X74817071Y-52768547D02*
X74864690Y-52792357D01*
X74864690Y-52792357D02*
X74888500Y-52816166D01*
X74888500Y-52816166D02*
X74912309Y-52863785D01*
X74912309Y-52863785D02*
X74912309Y-52982833D01*
X74912309Y-52982833D02*
X74888500Y-53030452D01*
X74888500Y-53030452D02*
X74864690Y-53054261D01*
X94489809Y-58407452D02*
X93989809Y-58407452D01*
X93989809Y-58407452D02*
X94489809Y-58121738D01*
X94489809Y-58121738D02*
X93989809Y-58121738D01*
X94442190Y-57597928D02*
X94466000Y-57621737D01*
X94466000Y-57621737D02*
X94489809Y-57693166D01*
X94489809Y-57693166D02*
X94489809Y-57740785D01*
X94489809Y-57740785D02*
X94466000Y-57812213D01*
X94466000Y-57812213D02*
X94418380Y-57859832D01*
X94418380Y-57859832D02*
X94370761Y-57883642D01*
X94370761Y-57883642D02*
X94275523Y-57907451D01*
X94275523Y-57907451D02*
X94204095Y-57907451D01*
X94204095Y-57907451D02*
X94108857Y-57883642D01*
X94108857Y-57883642D02*
X94061238Y-57859832D01*
X94061238Y-57859832D02*
X94013619Y-57812213D01*
X94013619Y-57812213D02*
X93989809Y-57740785D01*
X93989809Y-57740785D02*
X93989809Y-57693166D01*
X93989809Y-57693166D02*
X94013619Y-57621737D01*
X94013619Y-57621737D02*
X94037428Y-57597928D01*
X93989809Y-57431261D02*
X93989809Y-57121737D01*
X93989809Y-57121737D02*
X94180285Y-57288404D01*
X94180285Y-57288404D02*
X94180285Y-57216975D01*
X94180285Y-57216975D02*
X94204095Y-57169356D01*
X94204095Y-57169356D02*
X94227904Y-57145547D01*
X94227904Y-57145547D02*
X94275523Y-57121737D01*
X94275523Y-57121737D02*
X94394571Y-57121737D01*
X94394571Y-57121737D02*
X94442190Y-57145547D01*
X94442190Y-57145547D02*
X94466000Y-57169356D01*
X94466000Y-57169356D02*
X94489809Y-57216975D01*
X94489809Y-57216975D02*
X94489809Y-57359832D01*
X94489809Y-57359832D02*
X94466000Y-57407451D01*
X94466000Y-57407451D02*
X94442190Y-57431261D01*
X79044690Y-39760333D02*
X79068500Y-39784142D01*
X79068500Y-39784142D02*
X79092309Y-39855571D01*
X79092309Y-39855571D02*
X79092309Y-39903190D01*
X79092309Y-39903190D02*
X79068500Y-39974618D01*
X79068500Y-39974618D02*
X79020880Y-40022237D01*
X79020880Y-40022237D02*
X78973261Y-40046047D01*
X78973261Y-40046047D02*
X78878023Y-40069856D01*
X78878023Y-40069856D02*
X78806595Y-40069856D01*
X78806595Y-40069856D02*
X78711357Y-40046047D01*
X78711357Y-40046047D02*
X78663738Y-40022237D01*
X78663738Y-40022237D02*
X78616119Y-39974618D01*
X78616119Y-39974618D02*
X78592309Y-39903190D01*
X78592309Y-39903190D02*
X78592309Y-39855571D01*
X78592309Y-39855571D02*
X78616119Y-39784142D01*
X78616119Y-39784142D02*
X78639928Y-39760333D01*
X78592309Y-39593666D02*
X78592309Y-39284142D01*
X78592309Y-39284142D02*
X78782785Y-39450809D01*
X78782785Y-39450809D02*
X78782785Y-39379380D01*
X78782785Y-39379380D02*
X78806595Y-39331761D01*
X78806595Y-39331761D02*
X78830404Y-39307952D01*
X78830404Y-39307952D02*
X78878023Y-39284142D01*
X78878023Y-39284142D02*
X78997071Y-39284142D01*
X78997071Y-39284142D02*
X79044690Y-39307952D01*
X79044690Y-39307952D02*
X79068500Y-39331761D01*
X79068500Y-39331761D02*
X79092309Y-39379380D01*
X79092309Y-39379380D02*
X79092309Y-39522237D01*
X79092309Y-39522237D02*
X79068500Y-39569856D01*
X79068500Y-39569856D02*
X79044690Y-39593666D01*
D11*
X96552142Y-53418580D02*
X96504523Y-53466200D01*
X96504523Y-53466200D02*
X96361666Y-53513819D01*
X96361666Y-53513819D02*
X96266428Y-53513819D01*
X96266428Y-53513819D02*
X96123571Y-53466200D01*
X96123571Y-53466200D02*
X96028333Y-53370961D01*
X96028333Y-53370961D02*
X95980714Y-53275723D01*
X95980714Y-53275723D02*
X95933095Y-53085247D01*
X95933095Y-53085247D02*
X95933095Y-52942390D01*
X95933095Y-52942390D02*
X95980714Y-52751914D01*
X95980714Y-52751914D02*
X96028333Y-52656676D01*
X96028333Y-52656676D02*
X96123571Y-52561438D01*
X96123571Y-52561438D02*
X96266428Y-52513819D01*
X96266428Y-52513819D02*
X96361666Y-52513819D01*
X96361666Y-52513819D02*
X96504523Y-52561438D01*
X96504523Y-52561438D02*
X96552142Y-52609057D01*
X96933095Y-52609057D02*
X96980714Y-52561438D01*
X96980714Y-52561438D02*
X97075952Y-52513819D01*
X97075952Y-52513819D02*
X97314047Y-52513819D01*
X97314047Y-52513819D02*
X97409285Y-52561438D01*
X97409285Y-52561438D02*
X97456904Y-52609057D01*
X97456904Y-52609057D02*
X97504523Y-52704295D01*
X97504523Y-52704295D02*
X97504523Y-52799533D01*
X97504523Y-52799533D02*
X97456904Y-52942390D01*
X97456904Y-52942390D02*
X96885476Y-53513819D01*
X96885476Y-53513819D02*
X97504523Y-53513819D01*
X98361666Y-52847152D02*
X98361666Y-53513819D01*
X98123571Y-52466200D02*
X97885476Y-53180485D01*
X97885476Y-53180485D02*
X98504523Y-53180485D01*
D10*
X94803890Y-49477647D02*
X94399128Y-49477647D01*
X94399128Y-49477647D02*
X94351509Y-49501457D01*
X94351509Y-49501457D02*
X94327700Y-49525266D01*
X94327700Y-49525266D02*
X94303890Y-49572885D01*
X94303890Y-49572885D02*
X94303890Y-49668123D01*
X94303890Y-49668123D02*
X94327700Y-49715742D01*
X94327700Y-49715742D02*
X94351509Y-49739552D01*
X94351509Y-49739552D02*
X94399128Y-49763361D01*
X94399128Y-49763361D02*
X94803890Y-49763361D01*
X94637223Y-50215743D02*
X94303890Y-50215743D01*
X94827700Y-50096695D02*
X94470557Y-49977648D01*
X94470557Y-49977648D02*
X94470557Y-50287171D01*
D11*
X66179166Y-55991819D02*
X66179166Y-56706104D01*
X66179166Y-56706104D02*
X66131547Y-56848961D01*
X66131547Y-56848961D02*
X66036309Y-56944200D01*
X66036309Y-56944200D02*
X65893452Y-56991819D01*
X65893452Y-56991819D02*
X65798214Y-56991819D01*
X66655357Y-56991819D02*
X66655357Y-55991819D01*
X66655357Y-55991819D02*
X67036309Y-55991819D01*
X67036309Y-55991819D02*
X67131547Y-56039438D01*
X67131547Y-56039438D02*
X67179166Y-56087057D01*
X67179166Y-56087057D02*
X67226785Y-56182295D01*
X67226785Y-56182295D02*
X67226785Y-56325152D01*
X67226785Y-56325152D02*
X67179166Y-56420390D01*
X67179166Y-56420390D02*
X67131547Y-56468009D01*
X67131547Y-56468009D02*
X67036309Y-56515628D01*
X67036309Y-56515628D02*
X66655357Y-56515628D01*
X67560119Y-55991819D02*
X68179166Y-55991819D01*
X68179166Y-55991819D02*
X67845833Y-56372771D01*
X67845833Y-56372771D02*
X67988690Y-56372771D01*
X67988690Y-56372771D02*
X68083928Y-56420390D01*
X68083928Y-56420390D02*
X68131547Y-56468009D01*
X68131547Y-56468009D02*
X68179166Y-56563247D01*
X68179166Y-56563247D02*
X68179166Y-56801342D01*
X68179166Y-56801342D02*
X68131547Y-56896580D01*
X68131547Y-56896580D02*
X68083928Y-56944200D01*
X68083928Y-56944200D02*
X67988690Y-56991819D01*
X67988690Y-56991819D02*
X67702976Y-56991819D01*
X67702976Y-56991819D02*
X67607738Y-56944200D01*
X67607738Y-56944200D02*
X67560119Y-56896580D01*
D10*
X84702809Y-63340333D02*
X84464714Y-63506999D01*
X84702809Y-63626047D02*
X84202809Y-63626047D01*
X84202809Y-63626047D02*
X84202809Y-63435571D01*
X84202809Y-63435571D02*
X84226619Y-63387952D01*
X84226619Y-63387952D02*
X84250428Y-63364142D01*
X84250428Y-63364142D02*
X84298047Y-63340333D01*
X84298047Y-63340333D02*
X84369476Y-63340333D01*
X84369476Y-63340333D02*
X84417095Y-63364142D01*
X84417095Y-63364142D02*
X84440904Y-63387952D01*
X84440904Y-63387952D02*
X84464714Y-63435571D01*
X84464714Y-63435571D02*
X84464714Y-63626047D01*
X84369476Y-62911761D02*
X84702809Y-62911761D01*
X84179000Y-63030809D02*
X84536142Y-63149856D01*
X84536142Y-63149856D02*
X84536142Y-62840333D01*
X81078452Y-77841809D02*
X81078452Y-77341809D01*
X81078452Y-77341809D02*
X81268928Y-77341809D01*
X81268928Y-77341809D02*
X81316547Y-77365619D01*
X81316547Y-77365619D02*
X81340357Y-77389428D01*
X81340357Y-77389428D02*
X81364166Y-77437047D01*
X81364166Y-77437047D02*
X81364166Y-77508476D01*
X81364166Y-77508476D02*
X81340357Y-77556095D01*
X81340357Y-77556095D02*
X81316547Y-77579904D01*
X81316547Y-77579904D02*
X81268928Y-77603714D01*
X81268928Y-77603714D02*
X81078452Y-77603714D01*
X81840357Y-77841809D02*
X81554643Y-77841809D01*
X81697500Y-77841809D02*
X81697500Y-77341809D01*
X81697500Y-77341809D02*
X81649881Y-77413238D01*
X81649881Y-77413238D02*
X81602262Y-77460857D01*
X81602262Y-77460857D02*
X81554643Y-77484666D01*
X83075190Y-66840333D02*
X83099000Y-66864142D01*
X83099000Y-66864142D02*
X83122809Y-66935571D01*
X83122809Y-66935571D02*
X83122809Y-66983190D01*
X83122809Y-66983190D02*
X83099000Y-67054618D01*
X83099000Y-67054618D02*
X83051380Y-67102237D01*
X83051380Y-67102237D02*
X83003761Y-67126047D01*
X83003761Y-67126047D02*
X82908523Y-67149856D01*
X82908523Y-67149856D02*
X82837095Y-67149856D01*
X82837095Y-67149856D02*
X82741857Y-67126047D01*
X82741857Y-67126047D02*
X82694238Y-67102237D01*
X82694238Y-67102237D02*
X82646619Y-67054618D01*
X82646619Y-67054618D02*
X82622809Y-66983190D01*
X82622809Y-66983190D02*
X82622809Y-66935571D01*
X82622809Y-66935571D02*
X82646619Y-66864142D01*
X82646619Y-66864142D02*
X82670428Y-66840333D01*
X82622809Y-66387952D02*
X82622809Y-66626047D01*
X82622809Y-66626047D02*
X82860904Y-66649856D01*
X82860904Y-66649856D02*
X82837095Y-66626047D01*
X82837095Y-66626047D02*
X82813285Y-66578428D01*
X82813285Y-66578428D02*
X82813285Y-66459380D01*
X82813285Y-66459380D02*
X82837095Y-66411761D01*
X82837095Y-66411761D02*
X82860904Y-66387952D01*
X82860904Y-66387952D02*
X82908523Y-66364142D01*
X82908523Y-66364142D02*
X83027571Y-66364142D01*
X83027571Y-66364142D02*
X83075190Y-66387952D01*
X83075190Y-66387952D02*
X83099000Y-66411761D01*
X83099000Y-66411761D02*
X83122809Y-66459380D01*
X83122809Y-66459380D02*
X83122809Y-66578428D01*
X83122809Y-66578428D02*
X83099000Y-66626047D01*
X83099000Y-66626047D02*
X83075190Y-66649856D01*
D11*
X97122142Y-53896580D02*
X97074523Y-53944200D01*
X97074523Y-53944200D02*
X96931666Y-53991819D01*
X96931666Y-53991819D02*
X96836428Y-53991819D01*
X96836428Y-53991819D02*
X96693571Y-53944200D01*
X96693571Y-53944200D02*
X96598333Y-53848961D01*
X96598333Y-53848961D02*
X96550714Y-53753723D01*
X96550714Y-53753723D02*
X96503095Y-53563247D01*
X96503095Y-53563247D02*
X96503095Y-53420390D01*
X96503095Y-53420390D02*
X96550714Y-53229914D01*
X96550714Y-53229914D02*
X96598333Y-53134676D01*
X96598333Y-53134676D02*
X96693571Y-53039438D01*
X96693571Y-53039438D02*
X96836428Y-52991819D01*
X96836428Y-52991819D02*
X96931666Y-52991819D01*
X96931666Y-52991819D02*
X97074523Y-53039438D01*
X97074523Y-53039438D02*
X97122142Y-53087057D01*
X98074523Y-53991819D02*
X97503095Y-53991819D01*
X97788809Y-53991819D02*
X97788809Y-52991819D01*
X97788809Y-52991819D02*
X97693571Y-53134676D01*
X97693571Y-53134676D02*
X97598333Y-53229914D01*
X97598333Y-53229914D02*
X97503095Y-53277533D01*
X98693571Y-52991819D02*
X98788809Y-52991819D01*
X98788809Y-52991819D02*
X98884047Y-53039438D01*
X98884047Y-53039438D02*
X98931666Y-53087057D01*
X98931666Y-53087057D02*
X98979285Y-53182295D01*
X98979285Y-53182295D02*
X99026904Y-53372771D01*
X99026904Y-53372771D02*
X99026904Y-53610866D01*
X99026904Y-53610866D02*
X98979285Y-53801342D01*
X98979285Y-53801342D02*
X98931666Y-53896580D01*
X98931666Y-53896580D02*
X98884047Y-53944200D01*
X98884047Y-53944200D02*
X98788809Y-53991819D01*
X98788809Y-53991819D02*
X98693571Y-53991819D01*
X98693571Y-53991819D02*
X98598333Y-53944200D01*
X98598333Y-53944200D02*
X98550714Y-53896580D01*
X98550714Y-53896580D02*
X98503095Y-53801342D01*
X98503095Y-53801342D02*
X98455476Y-53610866D01*
X98455476Y-53610866D02*
X98455476Y-53372771D01*
X98455476Y-53372771D02*
X98503095Y-53182295D01*
X98503095Y-53182295D02*
X98550714Y-53087057D01*
X98550714Y-53087057D02*
X98598333Y-53039438D01*
X98598333Y-53039438D02*
X98693571Y-52991819D01*
X92221220Y-39068110D02*
X92091386Y-38991830D01*
X92091386Y-38991830D02*
X91858493Y-38942327D01*
X91858493Y-38942327D02*
X91755436Y-38969105D01*
X91755436Y-38969105D02*
X91698957Y-39005783D01*
X91698957Y-39005783D02*
X91632577Y-39089039D01*
X91632577Y-39089039D02*
X91612776Y-39182196D01*
X91612776Y-39182196D02*
X91639554Y-39285253D01*
X91639554Y-39285253D02*
X91676231Y-39341732D01*
X91676231Y-39341732D02*
X91759488Y-39408112D01*
X91759488Y-39408112D02*
X91935901Y-39494293D01*
X91935901Y-39494293D02*
X92019157Y-39560672D01*
X92019157Y-39560672D02*
X92055835Y-39617151D01*
X92055835Y-39617151D02*
X92082613Y-39720209D01*
X92082613Y-39720209D02*
X92062812Y-39813366D01*
X92062812Y-39813366D02*
X91996432Y-39896622D01*
X91996432Y-39896622D02*
X91939953Y-39933300D01*
X91939953Y-39933300D02*
X91836895Y-39960077D01*
X91836895Y-39960077D02*
X91604003Y-39910574D01*
X91604003Y-39910574D02*
X91474168Y-39834294D01*
X91138219Y-39811569D02*
X91113238Y-38783918D01*
X91113238Y-38783918D02*
X90778416Y-39442993D01*
X90778416Y-39442993D02*
X90740610Y-38704714D01*
X90740610Y-38704714D02*
X90299806Y-39633359D01*
X89622727Y-38467101D02*
X90181669Y-38585907D01*
X89902198Y-38526504D02*
X89694287Y-39504652D01*
X89694287Y-39504652D02*
X89817145Y-39384717D01*
X89817145Y-39384717D02*
X89930103Y-39311362D01*
X89930103Y-39311362D02*
X90033161Y-39284584D01*
X91883114Y-34919169D02*
X91833612Y-35152061D01*
X91620520Y-35009402D02*
X91833612Y-35152061D01*
X91833612Y-35152061D02*
X92086305Y-35108407D01*
X91654274Y-35308674D02*
X91833612Y-35152061D01*
X91833612Y-35152061D02*
X91933745Y-35368077D01*
X97634580Y-56991857D02*
X97682200Y-57039476D01*
X97682200Y-57039476D02*
X97729819Y-57182333D01*
X97729819Y-57182333D02*
X97729819Y-57277571D01*
X97729819Y-57277571D02*
X97682200Y-57420428D01*
X97682200Y-57420428D02*
X97586961Y-57515666D01*
X97586961Y-57515666D02*
X97491723Y-57563285D01*
X97491723Y-57563285D02*
X97301247Y-57610904D01*
X97301247Y-57610904D02*
X97158390Y-57610904D01*
X97158390Y-57610904D02*
X96967914Y-57563285D01*
X96967914Y-57563285D02*
X96872676Y-57515666D01*
X96872676Y-57515666D02*
X96777438Y-57420428D01*
X96777438Y-57420428D02*
X96729819Y-57277571D01*
X96729819Y-57277571D02*
X96729819Y-57182333D01*
X96729819Y-57182333D02*
X96777438Y-57039476D01*
X96777438Y-57039476D02*
X96825057Y-56991857D01*
X97729819Y-56039476D02*
X97729819Y-56610904D01*
X97729819Y-56325190D02*
X96729819Y-56325190D01*
X96729819Y-56325190D02*
X96872676Y-56420428D01*
X96872676Y-56420428D02*
X96967914Y-56515666D01*
X96967914Y-56515666D02*
X97015533Y-56610904D01*
X96729819Y-55706142D02*
X96729819Y-55087095D01*
X96729819Y-55087095D02*
X97110771Y-55420428D01*
X97110771Y-55420428D02*
X97110771Y-55277571D01*
X97110771Y-55277571D02*
X97158390Y-55182333D01*
X97158390Y-55182333D02*
X97206009Y-55134714D01*
X97206009Y-55134714D02*
X97301247Y-55087095D01*
X97301247Y-55087095D02*
X97539342Y-55087095D01*
X97539342Y-55087095D02*
X97634580Y-55134714D01*
X97634580Y-55134714D02*
X97682200Y-55182333D01*
X97682200Y-55182333D02*
X97729819Y-55277571D01*
X97729819Y-55277571D02*
X97729819Y-55563285D01*
X97729819Y-55563285D02*
X97682200Y-55658523D01*
X97682200Y-55658523D02*
X97634580Y-55706142D01*
X97598333Y-50896580D02*
X97550714Y-50944200D01*
X97550714Y-50944200D02*
X97407857Y-50991819D01*
X97407857Y-50991819D02*
X97312619Y-50991819D01*
X97312619Y-50991819D02*
X97169762Y-50944200D01*
X97169762Y-50944200D02*
X97074524Y-50848961D01*
X97074524Y-50848961D02*
X97026905Y-50753723D01*
X97026905Y-50753723D02*
X96979286Y-50563247D01*
X96979286Y-50563247D02*
X96979286Y-50420390D01*
X96979286Y-50420390D02*
X97026905Y-50229914D01*
X97026905Y-50229914D02*
X97074524Y-50134676D01*
X97074524Y-50134676D02*
X97169762Y-50039438D01*
X97169762Y-50039438D02*
X97312619Y-49991819D01*
X97312619Y-49991819D02*
X97407857Y-49991819D01*
X97407857Y-49991819D02*
X97550714Y-50039438D01*
X97550714Y-50039438D02*
X97598333Y-50087057D01*
X98074524Y-50991819D02*
X98265000Y-50991819D01*
X98265000Y-50991819D02*
X98360238Y-50944200D01*
X98360238Y-50944200D02*
X98407857Y-50896580D01*
X98407857Y-50896580D02*
X98503095Y-50753723D01*
X98503095Y-50753723D02*
X98550714Y-50563247D01*
X98550714Y-50563247D02*
X98550714Y-50182295D01*
X98550714Y-50182295D02*
X98503095Y-50087057D01*
X98503095Y-50087057D02*
X98455476Y-50039438D01*
X98455476Y-50039438D02*
X98360238Y-49991819D01*
X98360238Y-49991819D02*
X98169762Y-49991819D01*
X98169762Y-49991819D02*
X98074524Y-50039438D01*
X98074524Y-50039438D02*
X98026905Y-50087057D01*
X98026905Y-50087057D02*
X97979286Y-50182295D01*
X97979286Y-50182295D02*
X97979286Y-50420390D01*
X97979286Y-50420390D02*
X98026905Y-50515628D01*
X98026905Y-50515628D02*
X98074524Y-50563247D01*
X98074524Y-50563247D02*
X98169762Y-50610866D01*
X98169762Y-50610866D02*
X98360238Y-50610866D01*
X98360238Y-50610866D02*
X98455476Y-50563247D01*
X98455476Y-50563247D02*
X98503095Y-50515628D01*
X98503095Y-50515628D02*
X98550714Y-50420390D01*
X96602319Y-52210333D02*
X97316604Y-52210333D01*
X97316604Y-52210333D02*
X97459461Y-52257952D01*
X97459461Y-52257952D02*
X97554700Y-52353190D01*
X97554700Y-52353190D02*
X97602319Y-52496047D01*
X97602319Y-52496047D02*
X97602319Y-52591285D01*
X97602319Y-51734142D02*
X96602319Y-51734142D01*
X96602319Y-51734142D02*
X96602319Y-51353190D01*
X96602319Y-51353190D02*
X96649938Y-51257952D01*
X96649938Y-51257952D02*
X96697557Y-51210333D01*
X96697557Y-51210333D02*
X96792795Y-51162714D01*
X96792795Y-51162714D02*
X96935652Y-51162714D01*
X96935652Y-51162714D02*
X97030890Y-51210333D01*
X97030890Y-51210333D02*
X97078509Y-51257952D01*
X97078509Y-51257952D02*
X97126128Y-51353190D01*
X97126128Y-51353190D02*
X97126128Y-51734142D01*
X97602319Y-50210333D02*
X97602319Y-50781761D01*
X97602319Y-50496047D02*
X96602319Y-50496047D01*
X96602319Y-50496047D02*
X96745176Y-50591285D01*
X96745176Y-50591285D02*
X96840414Y-50686523D01*
X96840414Y-50686523D02*
X96888033Y-50781761D01*
X98696580Y-56999857D02*
X98744200Y-57047476D01*
X98744200Y-57047476D02*
X98791819Y-57190333D01*
X98791819Y-57190333D02*
X98791819Y-57285571D01*
X98791819Y-57285571D02*
X98744200Y-57428428D01*
X98744200Y-57428428D02*
X98648961Y-57523666D01*
X98648961Y-57523666D02*
X98553723Y-57571285D01*
X98553723Y-57571285D02*
X98363247Y-57618904D01*
X98363247Y-57618904D02*
X98220390Y-57618904D01*
X98220390Y-57618904D02*
X98029914Y-57571285D01*
X98029914Y-57571285D02*
X97934676Y-57523666D01*
X97934676Y-57523666D02*
X97839438Y-57428428D01*
X97839438Y-57428428D02*
X97791819Y-57285571D01*
X97791819Y-57285571D02*
X97791819Y-57190333D01*
X97791819Y-57190333D02*
X97839438Y-57047476D01*
X97839438Y-57047476D02*
X97887057Y-56999857D01*
X98791819Y-56047476D02*
X98791819Y-56618904D01*
X98791819Y-56333190D02*
X97791819Y-56333190D01*
X97791819Y-56333190D02*
X97934676Y-56428428D01*
X97934676Y-56428428D02*
X98029914Y-56523666D01*
X98029914Y-56523666D02*
X98077533Y-56618904D01*
X98791819Y-55095095D02*
X98791819Y-55666523D01*
X98791819Y-55380809D02*
X97791819Y-55380809D01*
X97791819Y-55380809D02*
X97934676Y-55476047D01*
X97934676Y-55476047D02*
X98029914Y-55571285D01*
X98029914Y-55571285D02*
X98077533Y-55666523D01*
D10*
X87138571Y-62151809D02*
X86971905Y-61913714D01*
X86852857Y-62151809D02*
X86852857Y-61651809D01*
X86852857Y-61651809D02*
X87043333Y-61651809D01*
X87043333Y-61651809D02*
X87090952Y-61675619D01*
X87090952Y-61675619D02*
X87114762Y-61699428D01*
X87114762Y-61699428D02*
X87138571Y-61747047D01*
X87138571Y-61747047D02*
X87138571Y-61818476D01*
X87138571Y-61818476D02*
X87114762Y-61866095D01*
X87114762Y-61866095D02*
X87090952Y-61889904D01*
X87090952Y-61889904D02*
X87043333Y-61913714D01*
X87043333Y-61913714D02*
X86852857Y-61913714D01*
X87614762Y-62151809D02*
X87329048Y-62151809D01*
X87471905Y-62151809D02*
X87471905Y-61651809D01*
X87471905Y-61651809D02*
X87424286Y-61723238D01*
X87424286Y-61723238D02*
X87376667Y-61770857D01*
X87376667Y-61770857D02*
X87329048Y-61794666D01*
X88067142Y-61651809D02*
X87829047Y-61651809D01*
X87829047Y-61651809D02*
X87805238Y-61889904D01*
X87805238Y-61889904D02*
X87829047Y-61866095D01*
X87829047Y-61866095D02*
X87876666Y-61842285D01*
X87876666Y-61842285D02*
X87995714Y-61842285D01*
X87995714Y-61842285D02*
X88043333Y-61866095D01*
X88043333Y-61866095D02*
X88067142Y-61889904D01*
X88067142Y-61889904D02*
X88090952Y-61937523D01*
X88090952Y-61937523D02*
X88090952Y-62056571D01*
X88090952Y-62056571D02*
X88067142Y-62104190D01*
X88067142Y-62104190D02*
X88043333Y-62128000D01*
X88043333Y-62128000D02*
X87995714Y-62151809D01*
X87995714Y-62151809D02*
X87876666Y-62151809D01*
X87876666Y-62151809D02*
X87829047Y-62128000D01*
X87829047Y-62128000D02*
X87805238Y-62104190D01*
D11*
X73309480Y-52359281D02*
X73309480Y-52978328D01*
X73309480Y-52978328D02*
X72928528Y-52644995D01*
X72928528Y-52644995D02*
X72928528Y-52787852D01*
X72928528Y-52787852D02*
X72880909Y-52883090D01*
X72880909Y-52883090D02*
X72833290Y-52930709D01*
X72833290Y-52930709D02*
X72738052Y-52978328D01*
X72738052Y-52978328D02*
X72499957Y-52978328D01*
X72499957Y-52978328D02*
X72404719Y-52930709D01*
X72404719Y-52930709D02*
X72357100Y-52883090D01*
X72357100Y-52883090D02*
X72309480Y-52787852D01*
X72309480Y-52787852D02*
X72309480Y-52502138D01*
X72309480Y-52502138D02*
X72357100Y-52406900D01*
X72357100Y-52406900D02*
X72404719Y-52359281D01*
X72976147Y-53311662D02*
X72309480Y-53549757D01*
X72309480Y-53549757D02*
X72976147Y-53787852D01*
X73309480Y-54073567D02*
X73309480Y-54692614D01*
X73309480Y-54692614D02*
X72928528Y-54359281D01*
X72928528Y-54359281D02*
X72928528Y-54502138D01*
X72928528Y-54502138D02*
X72880909Y-54597376D01*
X72880909Y-54597376D02*
X72833290Y-54644995D01*
X72833290Y-54644995D02*
X72738052Y-54692614D01*
X72738052Y-54692614D02*
X72499957Y-54692614D01*
X72499957Y-54692614D02*
X72404719Y-54644995D01*
X72404719Y-54644995D02*
X72357100Y-54597376D01*
X72357100Y-54597376D02*
X72309480Y-54502138D01*
X72309480Y-54502138D02*
X72309480Y-54216424D01*
X72309480Y-54216424D02*
X72357100Y-54121186D01*
X72357100Y-54121186D02*
X72404719Y-54073567D01*
X73309480Y-55406900D02*
X72595195Y-55406900D01*
X72595195Y-55406900D02*
X72452338Y-55359281D01*
X72452338Y-55359281D02*
X72357100Y-55264043D01*
X72357100Y-55264043D02*
X72309480Y-55121186D01*
X72309480Y-55121186D02*
X72309480Y-55025948D01*
X73214242Y-55835472D02*
X73261861Y-55883091D01*
X73261861Y-55883091D02*
X73309480Y-55978329D01*
X73309480Y-55978329D02*
X73309480Y-56216424D01*
X73309480Y-56216424D02*
X73261861Y-56311662D01*
X73261861Y-56311662D02*
X73214242Y-56359281D01*
X73214242Y-56359281D02*
X73119004Y-56406900D01*
X73119004Y-56406900D02*
X73023766Y-56406900D01*
X73023766Y-56406900D02*
X72880909Y-56359281D01*
X72880909Y-56359281D02*
X72309480Y-55787853D01*
X72309480Y-55787853D02*
X72309480Y-56406900D01*
D10*
X93452309Y-55912833D02*
X93214214Y-56079499D01*
X93452309Y-56198547D02*
X92952309Y-56198547D01*
X92952309Y-56198547D02*
X92952309Y-56008071D01*
X92952309Y-56008071D02*
X92976119Y-55960452D01*
X92976119Y-55960452D02*
X92999928Y-55936642D01*
X92999928Y-55936642D02*
X93047547Y-55912833D01*
X93047547Y-55912833D02*
X93118976Y-55912833D01*
X93118976Y-55912833D02*
X93166595Y-55936642D01*
X93166595Y-55936642D02*
X93190404Y-55960452D01*
X93190404Y-55960452D02*
X93214214Y-56008071D01*
X93214214Y-56008071D02*
X93214214Y-56198547D01*
X92952309Y-55746166D02*
X92952309Y-55412833D01*
X92952309Y-55412833D02*
X93452309Y-55627118D01*
D11*
X94364642Y-47788580D02*
X94317023Y-47836200D01*
X94317023Y-47836200D02*
X94174166Y-47883819D01*
X94174166Y-47883819D02*
X94078928Y-47883819D01*
X94078928Y-47883819D02*
X93936071Y-47836200D01*
X93936071Y-47836200D02*
X93840833Y-47740961D01*
X93840833Y-47740961D02*
X93793214Y-47645723D01*
X93793214Y-47645723D02*
X93745595Y-47455247D01*
X93745595Y-47455247D02*
X93745595Y-47312390D01*
X93745595Y-47312390D02*
X93793214Y-47121914D01*
X93793214Y-47121914D02*
X93840833Y-47026676D01*
X93840833Y-47026676D02*
X93936071Y-46931438D01*
X93936071Y-46931438D02*
X94078928Y-46883819D01*
X94078928Y-46883819D02*
X94174166Y-46883819D01*
X94174166Y-46883819D02*
X94317023Y-46931438D01*
X94317023Y-46931438D02*
X94364642Y-46979057D01*
X94697976Y-46883819D02*
X95317023Y-46883819D01*
X95317023Y-46883819D02*
X94983690Y-47264771D01*
X94983690Y-47264771D02*
X95126547Y-47264771D01*
X95126547Y-47264771D02*
X95221785Y-47312390D01*
X95221785Y-47312390D02*
X95269404Y-47360009D01*
X95269404Y-47360009D02*
X95317023Y-47455247D01*
X95317023Y-47455247D02*
X95317023Y-47693342D01*
X95317023Y-47693342D02*
X95269404Y-47788580D01*
X95269404Y-47788580D02*
X95221785Y-47836200D01*
X95221785Y-47836200D02*
X95126547Y-47883819D01*
X95126547Y-47883819D02*
X94840833Y-47883819D01*
X94840833Y-47883819D02*
X94745595Y-47836200D01*
X94745595Y-47836200D02*
X94697976Y-47788580D01*
X95697976Y-46979057D02*
X95745595Y-46931438D01*
X95745595Y-46931438D02*
X95840833Y-46883819D01*
X95840833Y-46883819D02*
X96078928Y-46883819D01*
X96078928Y-46883819D02*
X96174166Y-46931438D01*
X96174166Y-46931438D02*
X96221785Y-46979057D01*
X96221785Y-46979057D02*
X96269404Y-47074295D01*
X96269404Y-47074295D02*
X96269404Y-47169533D01*
X96269404Y-47169533D02*
X96221785Y-47312390D01*
X96221785Y-47312390D02*
X95650357Y-47883819D01*
X95650357Y-47883819D02*
X96269404Y-47883819D01*
D12*
%TO.C,C2*%
X78217500Y-39823267D02*
X78217500Y-39530733D01*
X79237500Y-39823267D02*
X79237500Y-39530733D01*
%TO.C,C30*%
X87009664Y-61447000D02*
X87225336Y-61447000D01*
X87009664Y-62167000D02*
X87225336Y-62167000D01*
%TO.C,D4*%
X76117500Y-58287000D02*
X76117500Y-50987000D01*
X81617500Y-50987000D02*
X80467500Y-50987000D01*
X81617500Y-58287000D02*
X81617500Y-50987000D01*
%TO.C,SW4*%
X72697700Y-73267912D02*
X74997699Y-69284196D01*
X74997699Y-69284196D02*
X79154622Y-71684195D01*
X76854620Y-75667913D02*
X72697700Y-73267912D01*
X79154622Y-71684195D02*
X76854620Y-75667913D01*
%TO.C,R1*%
X79755000Y-43341724D02*
X79755000Y-42832276D01*
X80800000Y-43341724D02*
X80800000Y-42832276D01*
%TO.C,C31*%
X97657164Y-52939000D02*
X97872836Y-52939000D01*
X97657164Y-53659000D02*
X97872836Y-53659000D01*
%TO.C,R2*%
X78672776Y-61864500D02*
X79182224Y-61864500D01*
X78672776Y-62909500D02*
X79182224Y-62909500D01*
%TO.C,SW5*%
X81957500Y-51487000D02*
X82207500Y-51487000D01*
X81957500Y-57787000D02*
X81957500Y-51487000D01*
X82207500Y-57787000D02*
X81957500Y-57787000D01*
X84107500Y-51487000D02*
X86707500Y-51487000D01*
X86707500Y-57787000D02*
X84107500Y-57787000D01*
X88607500Y-51487000D02*
X88857500Y-51487000D01*
X88857500Y-51487000D02*
X88857500Y-57787000D01*
X88857500Y-57787000D02*
X88607500Y-57787000D01*
%TO.C,C12*%
X97855000Y-56249164D02*
X97855000Y-56464836D01*
X98575000Y-56249164D02*
X98575000Y-56464836D01*
%TO.C,C21*%
X101931267Y-62807000D02*
X101638733Y-62807000D01*
X101931267Y-63827000D02*
X101638733Y-63827000D01*
%TO.C,C1*%
X78197500Y-42940733D02*
X78197500Y-43233267D01*
X79217500Y-42940733D02*
X79217500Y-43233267D01*
%TO.C,MK2*%
X76715500Y-63442000D02*
X80115500Y-63442000D01*
X76715500Y-66292000D02*
X76715500Y-63442000D01*
X80415500Y-63742000D02*
X80415500Y-66292000D01*
X80415500Y-66292000D02*
X76715500Y-66292000D01*
X80695500Y-63442000D02*
X80415500Y-63442000D01*
X80415500Y-63162000D01*
X80695500Y-63442000D01*
G36*
X80695500Y-63442000D02*
G01*
X80415500Y-63442000D01*
X80415500Y-63162000D01*
X80695500Y-63442000D01*
G37*
%TO.C,C27*%
X72617500Y-38929164D02*
X72617500Y-39144836D01*
X71897500Y-38929164D02*
X71897500Y-39144836D01*
%TO.C,C4*%
X79053767Y-66817000D02*
X78761233Y-66817000D01*
X79053767Y-67837000D02*
X78761233Y-67837000D01*
%TO.C,R12*%
X73105000Y-39721724D02*
X73105000Y-39212276D01*
X74150000Y-39721724D02*
X74150000Y-39212276D01*
%TO.C,C26*%
X73227500Y-55808233D02*
X73227500Y-56100767D01*
X74247500Y-55808233D02*
X74247500Y-56100767D01*
D13*
%TO.C,SW2*%
X93890866Y-39263223D02*
X99364872Y-44192038D01*
X94194785Y-38925687D02*
X93890866Y-39263223D01*
X98981143Y-33609898D02*
X95885897Y-37047517D01*
X99364872Y-44192038D02*
X99668790Y-43854503D01*
X101359901Y-41976334D02*
X104455150Y-38538713D01*
X104455150Y-38538713D02*
X98981143Y-33609898D01*
D12*
%TO.C,U3*%
X101592500Y-58687000D02*
X101592500Y-59087000D01*
X101592500Y-59087000D02*
X101992500Y-58887000D01*
X101992500Y-58887000D02*
X101592500Y-58687000D01*
X104182500Y-44312000D02*
X104782500Y-44312000D01*
X104182500Y-44422000D02*
X104182500Y-44312000D01*
X104182500Y-61852000D02*
X104182500Y-61962000D01*
X104182500Y-61962000D02*
X104782500Y-61962000D01*
%TO.C,C33*%
X93155336Y-50739000D02*
X92939664Y-50739000D01*
X93155336Y-51459000D02*
X92939664Y-51459000D01*
%TO.C,C23*%
X95628080Y-46687000D02*
X95346920Y-46687000D01*
X95628080Y-47707000D02*
X95346920Y-47707000D01*
%TO.C,R10*%
X69374724Y-48114500D02*
X68865276Y-48114500D01*
X69374724Y-49159500D02*
X68865276Y-49159500D01*
%TO.C,R3*%
X80935500Y-63531724D02*
X80935500Y-63022276D01*
X81980500Y-63531724D02*
X81980500Y-63022276D01*
%TO.C,C25*%
X74777500Y-55790733D02*
X74777500Y-56083267D01*
X75797500Y-55790733D02*
X75797500Y-56083267D01*
%TO.C,NC3*%
X91755000Y-57166064D02*
X91755000Y-55711936D01*
X93575000Y-57166064D02*
X93575000Y-55711936D01*
%TO.C,C3*%
X79787500Y-39823267D02*
X79787500Y-39530733D01*
X80807500Y-39823267D02*
X80807500Y-39530733D01*
%TO.C,C24*%
X97054420Y-53979000D02*
X97335580Y-53979000D01*
X97054420Y-54999000D02*
X97335580Y-54999000D01*
%TO.C,U4*%
D14*
X93817500Y-47928200D02*
X92090300Y-47928200D01*
X92090300Y-50468200D01*
X93817500Y-50468200D01*
X93817500Y-47928200D01*
D12*
%TO.C,JP3*%
X65612500Y-55737000D02*
X65612500Y-53737000D01*
X68412500Y-55737000D02*
X65612500Y-55737000D01*
X65612500Y-53737000D02*
X68412500Y-53737000D01*
X68412500Y-53737000D02*
X68412500Y-55737000D01*
%TO.C,R4*%
X82525500Y-63002276D02*
X82525500Y-63511724D01*
X83570500Y-63002276D02*
X83570500Y-63511724D01*
%TO.C,P1*%
X80707500Y-72947000D02*
X80707500Y-74947000D01*
X80707500Y-76847000D02*
X80707500Y-78747000D01*
X80707500Y-78747000D02*
X90107500Y-78747000D01*
X90107500Y-72947000D02*
X90107500Y-74947000D01*
X90107500Y-76847000D02*
X90107500Y-78747000D01*
%TO.C,C5*%
X80958000Y-66610733D02*
X80958000Y-66903267D01*
X81978000Y-66610733D02*
X81978000Y-66903267D01*
%TO.C,C10*%
X97872836Y-52017000D02*
X97657164Y-52017000D01*
X97872836Y-52737000D02*
X97657164Y-52737000D01*
D13*
%TO.C,SW1*%
X85490596Y-37130799D02*
X92695632Y-38662277D01*
X85585030Y-36686525D02*
X85490596Y-37130799D01*
X87072242Y-29689737D02*
X86110490Y-34214427D01*
X92695632Y-38662277D02*
X92790065Y-38218003D01*
X93315526Y-35745905D02*
X94277278Y-31221213D01*
X94277278Y-31221213D02*
X87072242Y-29689737D01*
D12*
%TO.C,C13*%
X95755000Y-56241164D02*
X95755000Y-56456836D01*
X96475000Y-56241164D02*
X96475000Y-56456836D01*
%TO.C,C9*%
X97872836Y-49017000D02*
X97657164Y-49017000D01*
X97872836Y-49737000D02*
X97657164Y-49737000D01*
%TO.C,JP1*%
X93847500Y-49877000D02*
X93847500Y-50477000D01*
X94147500Y-50177000D02*
X93847500Y-49877000D01*
X94147500Y-50177000D02*
X93847500Y-50477000D01*
X94347500Y-52777000D02*
X94347500Y-49977000D01*
X95047500Y-49327000D02*
X95647500Y-49327000D01*
X95647500Y-53427000D02*
X95047500Y-53427000D01*
X96347500Y-49977000D02*
X96347500Y-52777000D01*
X94347500Y-50027000D02*
G75*
G02*
X95047500Y-49327000I699999J1D01*
G01*
X95047500Y-53427000D02*
G75*
G02*
X94347500Y-52727000I0J700000D01*
G01*
X95647500Y-49327000D02*
G75*
G02*
X96347500Y-50027000I1J-699999D01*
G01*
X96347500Y-52727000D02*
G75*
G02*
X95647500Y-53427000I-700000J0D01*
G01*
%TO.C,C11*%
X96817000Y-56249164D02*
X96817000Y-56464836D01*
X97537000Y-56249164D02*
X97537000Y-56464836D01*
%TO.C,R15*%
X87714724Y-59974500D02*
X87205276Y-59974500D01*
X87714724Y-61019500D02*
X87205276Y-61019500D01*
%TO.C,R7*%
X94135000Y-56084224D02*
X94135000Y-55574776D01*
X95180000Y-56084224D02*
X95180000Y-55574776D01*
%TO.C,C32*%
X94899664Y-48229000D02*
X95115336Y-48229000D01*
X94899664Y-48949000D02*
X95115336Y-48949000D01*
%TD*%
M02*
