%TF.GenerationSoftware,KiCad,Pcbnew,8.0.5*%
%TF.CreationDate,2025-01-06T18:17:11+01:00*%
%TF.ProjectId,test,74657374-2e6b-4696-9361-645f70636258,rev?*%
%TF.SameCoordinates,Original*%
%TF.FileFunction,Soldermask,Top*%
%TF.FilePolarity,Negative*%
%FSLAX46Y46*%
G04 Gerber Fmt 4.6, Leading zero omitted, Abs format (unit mm)*
G04 Created by KiCad (PCBNEW 8.0.5) date 2025-01-06 18:17:11*
%MOMM*%
%LPD*%
G01*
G04 APERTURE LIST*
G04 Aperture macros list*
%AMRoundRect*
0 Rectangle with rounded corners*
0 $1 Rounding radius*
0 $2 $3 $4 $5 $6 $7 $8 $9 X,Y pos of 4 corners*
0 Add a 4 corners polygon primitive as box body*
4,1,4,$2,$3,$4,$5,$6,$7,$8,$9,$2,$3,0*
0 Add four circle primitives for the rounded corners*
1,1,$1+$1,$2,$3*
1,1,$1+$1,$4,$5*
1,1,$1+$1,$6,$7*
1,1,$1+$1,$8,$9*
0 Add four rect primitives between the rounded corners*
20,1,$1+$1,$2,$3,$4,$5,0*
20,1,$1+$1,$4,$5,$6,$7,0*
20,1,$1+$1,$6,$7,$8,$9,0*
20,1,$1+$1,$8,$9,$2,$3,0*%
%AMRotRect*
0 Rectangle, with rotation*
0 The origin of the aperture is its center*
0 $1 length*
0 $2 width*
0 $3 Rotation angle, in degrees counterclockwise*
0 Add horizontal line*
21,1,$1,$2,0,0,$3*%
%AMFreePoly0*
4,1,53,0.180798,1.454629,0.352531,1.394537,0.506585,1.297738,0.635238,1.169085,0.732037,1.015031,0.792129,0.843298,0.812500,0.662500,0.792129,0.481702,0.732037,0.309969,0.635238,0.155915,0.506585,0.027262,0.352531,-0.069537,0.180798,-0.129629,0.000000,-0.150000,-0.180798,-0.129629,-0.352531,-0.069537,-0.506585,0.027262,-0.635238,0.155915,-0.732037,0.309969,-0.792129,0.481702,
-0.812500,0.662500,-0.517770,0.662500,-0.496797,0.516627,-0.435576,0.382572,-0.339067,0.271196,-0.215089,0.191520,-0.073686,0.150000,0.073686,0.150000,0.215089,0.191520,0.339067,0.271196,0.435576,0.382572,0.496797,0.516627,0.517770,0.662500,0.496797,0.808373,0.435576,0.942428,0.339067,1.053804,0.215089,1.133480,0.073686,1.175000,-0.073686,1.175000,-0.215089,1.133480,
-0.339067,1.053804,-0.435576,0.942428,-0.496797,0.808373,-0.517770,0.662500,-0.812500,0.662500,-0.792129,0.843298,-0.732037,1.015031,-0.635238,1.169085,-0.506585,1.297738,-0.352531,1.394537,-0.180798,1.454629,0.000000,1.475000,0.180798,1.454629,0.180798,1.454629,$1*%
%AMFreePoly1*
4,1,6,1.000000,0.000000,0.500000,-0.750000,-0.500000,-0.750000,-0.500000,0.750000,0.500000,0.750000,1.000000,0.000000,1.000000,0.000000,$1*%
%AMFreePoly2*
4,1,6,0.500000,-0.750000,-0.650000,-0.750000,-0.150000,0.000000,-0.650000,0.750000,0.500000,0.750000,0.500000,-0.750000,0.500000,-0.750000,$1*%
%AMFreePoly3*
4,1,19,0.550000,-0.750000,0.000000,-0.750000,0.000000,-0.744911,-0.071157,-0.744911,-0.207708,-0.704816,-0.327430,-0.627875,-0.420627,-0.520320,-0.479746,-0.390866,-0.500000,-0.250000,-0.500000,0.250000,-0.479746,0.390866,-0.420627,0.520320,-0.327430,0.627875,-0.207708,0.704816,-0.071157,0.744911,0.000000,0.744911,0.000000,0.750000,0.550000,0.750000,0.550000,-0.750000,0.550000,-0.750000,
$1*%
%AMFreePoly4*
4,1,19,0.000000,0.744911,0.071157,0.744911,0.207708,0.704816,0.327430,0.627875,0.420627,0.520320,0.479746,0.390866,0.500000,0.250000,0.500000,-0.250000,0.479746,-0.390866,0.420627,-0.520320,0.327430,-0.627875,0.207708,-0.704816,0.071157,-0.744911,0.000000,-0.744911,0.000000,-0.750000,-0.550000,-0.750000,-0.550000,0.750000,0.000000,0.750000,0.000000,0.744911,0.000000,0.744911,
$1*%
G04 Aperture macros list end*
%ADD10RoundRect,0.237500X0.237500X-0.300000X0.237500X0.300000X-0.237500X0.300000X-0.237500X-0.300000X0*%
%ADD11RoundRect,0.140000X-0.140000X-0.170000X0.140000X-0.170000X0.140000X0.170000X-0.140000X0.170000X0*%
%ADD12R,0.900000X1.500000*%
%ADD13RotRect,1.400000X1.000000X330.000000*%
%ADD14C,0.800000*%
%ADD15RoundRect,0.237500X0.237500X-0.250000X0.237500X0.250000X-0.237500X0.250000X-0.237500X-0.250000X0*%
%ADD16RoundRect,0.237500X-0.250000X-0.237500X0.250000X-0.237500X0.250000X0.237500X-0.250000X0.237500X0*%
%ADD17R,1.300000X1.550000*%
%ADD18RoundRect,0.140000X-0.170000X0.140000X-0.170000X-0.140000X0.170000X-0.140000X0.170000X0.140000X0*%
%ADD19RoundRect,0.237500X0.300000X0.237500X-0.300000X0.237500X-0.300000X-0.237500X0.300000X-0.237500X0*%
%ADD20RoundRect,0.237500X-0.237500X0.300000X-0.237500X-0.300000X0.237500X-0.300000X0.237500X0.300000X0*%
%ADD21C,0.500000*%
%ADD22R,0.522000X0.600000*%
%ADD23FreePoly0,0.000000*%
%ADD24C,1.803400*%
%ADD25C,1.498600*%
%ADD26R,1.100000X0.300000*%
%ADD27R,3.100000X2.300000*%
%ADD28RoundRect,0.100000X-1.153541X-0.537905X0.537905X-1.153541X1.153541X0.537905X-0.537905X1.153541X0*%
%ADD29RoundRect,0.140000X0.140000X0.170000X-0.140000X0.170000X-0.140000X-0.170000X0.140000X-0.170000X0*%
%ADD30RoundRect,0.225000X0.225000X0.250000X-0.225000X0.250000X-0.225000X-0.250000X0.225000X-0.250000X0*%
%ADD31RoundRect,0.237500X0.250000X0.237500X-0.250000X0.237500X-0.250000X-0.237500X0.250000X-0.237500X0*%
%ADD32RoundRect,0.250000X0.625000X-0.312500X0.625000X0.312500X-0.625000X0.312500X-0.625000X-0.312500X0*%
%ADD33RoundRect,0.225000X-0.225000X-0.250000X0.225000X-0.250000X0.225000X0.250000X-0.225000X0.250000X0*%
%ADD34RoundRect,0.030000X-0.270000X0.357500X-0.270000X-0.357500X0.270000X-0.357500X0.270000X0.357500X0*%
%ADD35FreePoly1,180.000000*%
%ADD36FreePoly2,180.000000*%
%ADD37RoundRect,0.237500X-0.237500X0.250000X-0.237500X-0.250000X0.237500X-0.250000X0.237500X0.250000X0*%
%ADD38O,1.000000X2.100000*%
%ADD39O,1.000000X1.600000*%
%ADD40C,0.650000*%
%ADD41R,0.600000X1.450000*%
%ADD42R,0.300000X1.450000*%
%ADD43FreePoly3,270.000000*%
%ADD44R,1.500000X1.000000*%
%ADD45FreePoly4,270.000000*%
%ADD46RoundRect,0.100000X-0.900000X0.900000X-0.900000X-0.900000X0.900000X-0.900000X0.900000X0.900000X0*%
%ADD47C,2.374900*%
%ADD48C,0.990600*%
G04 APERTURE END LIST*
D10*
%TO.C,C2*%
X78727500Y-40539500D03*
X78727500Y-38814500D03*
%TD*%
D11*
%TO.C,C30*%
X86637500Y-61807000D03*
X87597500Y-61807000D03*
%TD*%
D12*
%TO.C,D4*%
X77217500Y-57087000D03*
X80517500Y-57087000D03*
X80517500Y-52187000D03*
X77217500Y-52187000D03*
%TD*%
D13*
%TO.C,SW4*%
X73617628Y-70854547D03*
X72767629Y-72326790D03*
D14*
X76292500Y-71821535D03*
X74992500Y-74073201D03*
D13*
X78467372Y-73654547D03*
X77617371Y-75126791D03*
%TD*%
D15*
%TO.C,R1*%
X80277500Y-43999500D03*
X80277500Y-42174500D03*
%TD*%
D11*
%TO.C,C31*%
X97285000Y-53299000D03*
X98245000Y-53299000D03*
%TD*%
D16*
%TO.C,R2*%
X78015000Y-62387000D03*
X79840000Y-62387000D03*
%TD*%
D17*
%TO.C,SW5*%
X87657500Y-50662000D03*
X87657500Y-58612000D03*
X83157500Y-50662000D03*
X83157500Y-58612000D03*
%TD*%
D18*
%TO.C,C12*%
X98215000Y-55877000D03*
X98215000Y-56837000D03*
%TD*%
D19*
%TO.C,C21*%
X102647500Y-63317000D03*
X100922500Y-63317000D03*
%TD*%
D20*
%TO.C,C1*%
X78707500Y-42224500D03*
X78707500Y-43949500D03*
%TD*%
D21*
%TO.C,MK2*%
X77855500Y-64867000D03*
D22*
X79929500Y-63967000D03*
X79107500Y-63967000D03*
D23*
X77855500Y-65529500D03*
D22*
X79107500Y-65767000D03*
X79929500Y-65767000D03*
X79929500Y-64867000D03*
%TD*%
D18*
%TO.C,C27*%
X72257500Y-39517000D03*
X72257500Y-38557000D03*
%TD*%
D19*
%TO.C,C4*%
X79770000Y-67327000D03*
X78045000Y-67327000D03*
%TD*%
D15*
%TO.C,R12*%
X73627500Y-38554500D03*
X73627500Y-40379500D03*
%TD*%
D20*
%TO.C,C26*%
X73737500Y-55092000D03*
X73737500Y-56817000D03*
%TD*%
D24*
%TO.C,SW2*%
X100334583Y-42849049D03*
X95125137Y-38158443D03*
D25*
X101068272Y-40158637D03*
X97724119Y-37147548D03*
%TD*%
D26*
%TO.C,U3*%
X100792500Y-58887000D03*
X100792500Y-58387000D03*
X100792500Y-57887000D03*
X100792500Y-57387000D03*
X100792500Y-56887000D03*
X100792500Y-56387000D03*
X100792500Y-55887000D03*
X100792500Y-55387000D03*
X100792500Y-54887000D03*
X100792500Y-54387000D03*
X100792500Y-53887000D03*
X100792500Y-53387000D03*
X100792500Y-52887000D03*
X100792500Y-52387000D03*
X100792500Y-51887000D03*
X100792500Y-51387000D03*
X100792500Y-50887000D03*
X100792500Y-50387000D03*
X100792500Y-49887000D03*
X100792500Y-49387000D03*
X100792500Y-48887000D03*
X100792500Y-48387000D03*
X100792500Y-47887000D03*
X100792500Y-47387000D03*
D27*
X102492500Y-60557000D03*
X102492500Y-45717000D03*
%TD*%
D28*
%TO.C,J1*%
X74399946Y-68419529D03*
X78409803Y-69878998D03*
%TD*%
D29*
%TO.C,C33*%
X93527500Y-51099000D03*
X92567500Y-51099000D03*
%TD*%
D30*
%TO.C,C23*%
X96262500Y-47197000D03*
X94712500Y-47197000D03*
%TD*%
D31*
%TO.C,R10*%
X70032500Y-48637000D03*
X68207500Y-48637000D03*
%TD*%
D15*
%TO.C,R3*%
X81458000Y-64189500D03*
X81458000Y-62364500D03*
%TD*%
D20*
%TO.C,C25*%
X75287500Y-55074500D03*
X75287500Y-56799500D03*
%TD*%
D32*
%TO.C,NC3*%
X92665000Y-57901500D03*
X92665000Y-54976500D03*
%TD*%
D10*
%TO.C,C3*%
X80297500Y-40539500D03*
X80297500Y-38814500D03*
%TD*%
D33*
%TO.C,C24*%
X96420000Y-54489000D03*
X97970000Y-54489000D03*
%TD*%
D34*
%TO.C,U4*%
X92547500Y-48583600D03*
X92547500Y-49858600D03*
X93347500Y-49858600D03*
X93347500Y-48583600D03*
%TD*%
D35*
%TO.C,JP3*%
X67737500Y-54737000D03*
D36*
X66287500Y-54737000D03*
%TD*%
D37*
%TO.C,R4*%
X83048000Y-62344500D03*
X83048000Y-64169500D03*
%TD*%
D38*
%TO.C,P1*%
X81087500Y-71717000D03*
D39*
X81087500Y-75897000D03*
D40*
X82517500Y-72247000D03*
X88297500Y-72247000D03*
D38*
X89727500Y-71717000D03*
D41*
X82157500Y-70802000D03*
X82957500Y-70802000D03*
D42*
X84157500Y-70802000D03*
X85157500Y-70802000D03*
X85657500Y-70802000D03*
X86657500Y-70802000D03*
D41*
X87857500Y-70802000D03*
X88657500Y-70802000D03*
X88657500Y-70802000D03*
X87857500Y-70802000D03*
D42*
X87157500Y-70802000D03*
X86157500Y-70802000D03*
X84657500Y-70802000D03*
X83657500Y-70802000D03*
D41*
X82957500Y-70802000D03*
X82157500Y-70802000D03*
D39*
X89727500Y-75897000D03*
%TD*%
D20*
%TO.C,C5*%
X81468000Y-65894500D03*
X81468000Y-67619500D03*
%TD*%
D29*
%TO.C,C10*%
X98245000Y-52377000D03*
X97285000Y-52377000D03*
%TD*%
D24*
%TO.C,SW1*%
X92863932Y-37014357D03*
X86007116Y-35556897D03*
D25*
X92154119Y-34317548D03*
X87752453Y-33381944D03*
%TD*%
D18*
%TO.C,C13*%
X96115000Y-55869000D03*
X96115000Y-56829000D03*
%TD*%
D29*
%TO.C,C9*%
X98245000Y-49377000D03*
X97285000Y-49377000D03*
%TD*%
D43*
%TO.C,JP1*%
X95347500Y-50077000D03*
D44*
X95347500Y-51377000D03*
D45*
X95347500Y-52677000D03*
%TD*%
D18*
%TO.C,C11*%
X97177000Y-55877000D03*
X97177000Y-56837000D03*
%TD*%
D31*
%TO.C,R15*%
X88372500Y-60497000D03*
X86547500Y-60497000D03*
%TD*%
D46*
%TO.C,3v3J2*%
X71697500Y-52120900D03*
X71697500Y-56388100D03*
%TD*%
D15*
%TO.C,R7*%
X94657500Y-56742000D03*
X94657500Y-54917000D03*
%TD*%
D11*
%TO.C,C32*%
X94527500Y-48589000D03*
X95487500Y-48589000D03*
%TD*%
D47*
%TO.C,J2*%
X92227500Y-45277000D03*
D48*
X92227500Y-42737000D03*
D47*
X92227500Y-40197000D03*
X86512500Y-45277000D03*
X86512500Y-40197000D03*
D48*
X84607500Y-43752000D03*
X84607500Y-41722000D03*
%TD*%
M02*
