%TF.GenerationSoftware,KiCad,Pcbnew,8.0.5*%
%TF.CreationDate,2025-01-09T20:26:43+01:00*%
%TF.ProjectId,test,74657374-2e6b-4696-9361-645f70636258,rev?*%
%TF.SameCoordinates,PX517370cPY341b1c8*%
%TF.FileFunction,Paste,Top*%
%TF.FilePolarity,Positive*%
%FSLAX46Y46*%
G04 Gerber Fmt 4.6, Leading zero omitted, Abs format (unit mm)*
G04 Created by KiCad (PCBNEW 8.0.5) date 2025-01-09 20:26:43*
%MOMM*%
%LPD*%
G01*
G04 APERTURE LIST*
G04 Aperture macros list*
%AMRoundRect*
0 Rectangle with rounded corners*
0 $1 Rounding radius*
0 $2 $3 $4 $5 $6 $7 $8 $9 X,Y pos of 4 corners*
0 Add a 4 corners polygon primitive as box body*
4,1,4,$2,$3,$4,$5,$6,$7,$8,$9,$2,$3,0*
0 Add four circle primitives for the rounded corners*
1,1,$1+$1,$2,$3*
1,1,$1+$1,$4,$5*
1,1,$1+$1,$6,$7*
1,1,$1+$1,$8,$9*
0 Add four rect primitives between the rounded corners*
20,1,$1+$1,$2,$3,$4,$5,0*
20,1,$1+$1,$4,$5,$6,$7,0*
20,1,$1+$1,$6,$7,$8,$9,0*
20,1,$1+$1,$8,$9,$2,$3,0*%
%AMRotRect*
0 Rectangle, with rotation*
0 The origin of the aperture is its center*
0 $1 length*
0 $2 width*
0 $3 Rotation angle, in degrees counterclockwise*
0 Add horizontal line*
21,1,$1,$2,0,0,$3*%
G04 Aperture macros list end*
%ADD10C,0.000000*%
%ADD11RoundRect,0.237500X0.237500X-0.300000X0.237500X0.300000X-0.237500X0.300000X-0.237500X-0.300000X0*%
%ADD12RoundRect,0.140000X-0.140000X-0.170000X0.140000X-0.170000X0.140000X0.170000X-0.140000X0.170000X0*%
%ADD13R,0.900000X1.500000*%
%ADD14RotRect,1.400000X1.000000X330.000000*%
%ADD15RoundRect,0.200000X0.275000X-0.200000X0.275000X0.200000X-0.275000X0.200000X-0.275000X-0.200000X0*%
%ADD16RoundRect,0.237500X-0.250000X-0.237500X0.250000X-0.237500X0.250000X0.237500X-0.250000X0.237500X0*%
%ADD17R,1.300000X1.550000*%
%ADD18RoundRect,0.237500X0.300000X0.237500X-0.300000X0.237500X-0.300000X-0.237500X0.300000X-0.237500X0*%
%ADD19RoundRect,0.225000X-0.250000X0.225000X-0.250000X-0.225000X0.250000X-0.225000X0.250000X0.225000X0*%
%ADD20RoundRect,0.237500X0.237500X-0.250000X0.237500X0.250000X-0.237500X0.250000X-0.237500X-0.250000X0*%
%ADD21RoundRect,0.237500X-0.237500X0.300000X-0.237500X-0.300000X0.237500X-0.300000X0.237500X0.300000X0*%
%ADD22R,1.300000X0.300000*%
%ADD23R,1.600000X2.000000*%
%ADD24RoundRect,0.140000X0.140000X0.170000X-0.140000X0.170000X-0.140000X-0.170000X0.140000X-0.170000X0*%
%ADD25RoundRect,0.225000X0.225000X0.250000X-0.225000X0.250000X-0.225000X-0.250000X0.225000X-0.250000X0*%
%ADD26RoundRect,0.250000X0.625000X-0.312500X0.625000X0.312500X-0.625000X0.312500X-0.625000X-0.312500X0*%
%ADD27RoundRect,0.225000X-0.225000X-0.250000X0.225000X-0.250000X0.225000X0.250000X-0.225000X0.250000X0*%
%ADD28RoundRect,0.030000X-0.270000X0.357500X-0.270000X-0.357500X0.270000X-0.357500X0.270000X0.357500X0*%
%ADD29RoundRect,0.140000X-0.170000X0.140000X-0.170000X-0.140000X0.170000X-0.140000X0.170000X0.140000X0*%
%ADD30RoundRect,0.237500X-0.237500X0.250000X-0.237500X-0.250000X0.237500X-0.250000X0.237500X0.250000X0*%
%ADD31R,0.600000X1.450000*%
%ADD32R,0.300000X1.450000*%
%ADD33RoundRect,0.237500X0.250000X0.237500X-0.250000X0.237500X-0.250000X-0.237500X0.250000X-0.237500X0*%
%ADD34RoundRect,0.100000X-0.900000X0.900000X-0.900000X-0.900000X0.900000X-0.900000X0.900000X0.900000X0*%
G04 APERTURE END LIST*
%TO.C,MK2*%
G36*
X-6089000Y-9580000D02*
G01*
X-6511000Y-9580000D01*
X-6511000Y-9080000D01*
X-6089000Y-9080000D01*
X-6089000Y-9580000D01*
G37*
G36*
X-6089000Y-10880000D02*
G01*
X-6511000Y-10880000D01*
X-6511000Y-11380000D01*
X-6089000Y-11380000D01*
X-6089000Y-10880000D01*
G37*
G36*
X-5267000Y-9080000D02*
G01*
X-5689000Y-9080000D01*
X-5689000Y-9580000D01*
X-5267000Y-9580000D01*
X-5267000Y-9080000D01*
G37*
G36*
X-5267000Y-9980000D02*
G01*
X-5689000Y-9980000D01*
X-5689000Y-10480000D01*
X-5267000Y-10480000D01*
X-5267000Y-9980000D01*
G37*
G36*
X-5267000Y-11380000D02*
G01*
X-5689000Y-11380000D01*
X-5689000Y-10880000D01*
X-5267000Y-10880000D01*
X-5267000Y-11380000D01*
G37*
D10*
G36*
X-7602000Y-9669700D02*
G01*
X-7711800Y-9690700D01*
X-7815200Y-9732900D01*
X-7908300Y-9794700D01*
X-7987300Y-9873700D01*
X-8049100Y-9966800D01*
X-8091300Y-10070200D01*
X-8112300Y-10180000D01*
X-8363000Y-10180000D01*
X-8335400Y-10014500D01*
X-8274500Y-9858300D01*
X-8182800Y-9717800D01*
X-8064200Y-9599200D01*
X-7923700Y-9507500D01*
X-7767500Y-9446600D01*
X-7602000Y-9419000D01*
X-7602000Y-9669700D01*
G37*
G36*
X-8091300Y-10389800D02*
G01*
X-8049100Y-10493200D01*
X-7987300Y-10586300D01*
X-7908300Y-10665300D01*
X-7815200Y-10727100D01*
X-7711800Y-10769300D01*
X-7602000Y-10790300D01*
X-7602000Y-11041000D01*
X-7767500Y-11013400D01*
X-7923700Y-10952500D01*
X-8064200Y-10860800D01*
X-8182800Y-10742200D01*
X-8274500Y-10601700D01*
X-8335400Y-10445500D01*
X-8363000Y-10280000D01*
X-8112300Y-10280000D01*
X-8091300Y-10389800D01*
G37*
G36*
X-7336500Y-9446600D02*
G01*
X-7180300Y-9507500D01*
X-7039800Y-9599200D01*
X-6921200Y-9717800D01*
X-6829500Y-9858300D01*
X-6768600Y-10014500D01*
X-6741000Y-10180000D01*
X-6991700Y-10180000D01*
X-7012700Y-10070200D01*
X-7054900Y-9966800D01*
X-7116700Y-9873700D01*
X-7195700Y-9794700D01*
X-7288800Y-9732900D01*
X-7392200Y-9690700D01*
X-7502000Y-9669700D01*
X-7502000Y-9419000D01*
X-7336500Y-9446600D01*
G37*
G36*
X-6768600Y-10445500D02*
G01*
X-6829500Y-10601700D01*
X-6921200Y-10742200D01*
X-7039800Y-10860800D01*
X-7180300Y-10952500D01*
X-7336500Y-11013400D01*
X-7502000Y-11041000D01*
X-7502000Y-10790300D01*
X-7392200Y-10769300D01*
X-7288800Y-10727100D01*
X-7195700Y-10665300D01*
X-7116700Y-10586300D01*
X-7054900Y-10493200D01*
X-7012700Y-10389800D01*
X-6991700Y-10280000D01*
X-6741000Y-10280000D01*
X-6768600Y-10445500D01*
G37*
%TD*%
D11*
%TO.C,C2*%
X-6680000Y14097500D03*
X-6680000Y15822500D03*
%TD*%
D12*
%TO.C,C30*%
X1230000Y-7170000D03*
X2190000Y-7170000D03*
%TD*%
D13*
%TO.C,D4*%
X-8215000Y-2440000D03*
X-4915000Y-2440000D03*
X-4915000Y2460000D03*
X-8215000Y2460000D03*
%TD*%
D14*
%TO.C,SW4*%
X-11789872Y-16217547D03*
X-12639871Y-17689790D03*
X-6940128Y-19017547D03*
X-7790129Y-20489791D03*
%TD*%
D15*
%TO.C,R1*%
X-5130000Y10725000D03*
X-5130000Y12375000D03*
%TD*%
D16*
%TO.C,R2*%
X-7392500Y-7750000D03*
X-5567500Y-7750000D03*
%TD*%
D17*
%TO.C,SW5*%
X-2250000Y3975000D03*
X2250000Y3975000D03*
X2250000Y-3975000D03*
X-2250000Y-3975000D03*
%TD*%
D18*
%TO.C,C21*%
X17240000Y-8680000D03*
X15515000Y-8680000D03*
%TD*%
D19*
%TO.C,C1*%
X-6700000Y12325000D03*
X-6700000Y10775000D03*
%TD*%
D18*
%TO.C,C4*%
X-5637500Y-12690000D03*
X-7362500Y-12690000D03*
%TD*%
D20*
%TO.C,R12*%
X-11780000Y14257500D03*
X-11780000Y16082500D03*
%TD*%
D12*
%TO.C,C29*%
X9110000Y6080000D03*
X10070000Y6080000D03*
%TD*%
D21*
%TO.C,C26*%
X-11670000Y-455000D03*
X-11670000Y-2180000D03*
%TD*%
D22*
%TO.C,U3*%
X15330000Y-4280000D03*
X15330000Y-3780000D03*
X15330000Y-3280000D03*
X15330000Y-2780000D03*
X15330000Y-2280000D03*
X15330000Y-1780000D03*
X15330000Y-1280000D03*
X15330000Y-780000D03*
X15330000Y-280000D03*
X15330000Y220000D03*
X15330000Y720000D03*
X15330000Y1220000D03*
X15330000Y1720000D03*
X15330000Y2220000D03*
X15330000Y2720000D03*
X15330000Y3220000D03*
X15330000Y3720000D03*
X15330000Y4220000D03*
X15330000Y4720000D03*
X15330000Y5220000D03*
X15330000Y5720000D03*
X15330000Y6220000D03*
X15330000Y6720000D03*
X15330000Y7220000D03*
D23*
X18010000Y-6130000D03*
X18010000Y9070000D03*
%TD*%
D24*
%TO.C,C33*%
X8120000Y3538000D03*
X7160000Y3538000D03*
%TD*%
D25*
%TO.C,C23*%
X10855000Y7440000D03*
X9305000Y7440000D03*
%TD*%
D16*
%TO.C,R10*%
X-16092500Y6530000D03*
X-14267500Y6530000D03*
%TD*%
D20*
%TO.C,R3*%
X-3949500Y-9552500D03*
X-3949500Y-7727500D03*
%TD*%
D21*
%TO.C,C25*%
X-10120000Y-437500D03*
X-10120000Y-2162500D03*
%TD*%
D24*
%TO.C,C31*%
X12830000Y1390000D03*
X11870000Y1390000D03*
%TD*%
D26*
%TO.C,NC3*%
X7257500Y-3264500D03*
X7257500Y-339500D03*
%TD*%
D11*
%TO.C,C3*%
X-5110000Y14097500D03*
X-5110000Y15822500D03*
%TD*%
D27*
%TO.C,C24*%
X11012500Y148000D03*
X12562500Y148000D03*
%TD*%
D28*
%TO.C,U4*%
X7140000Y6053400D03*
X7140000Y4778400D03*
X7940000Y4778400D03*
X7940000Y6053400D03*
%TD*%
D29*
%TO.C,C13*%
X10740000Y-1190000D03*
X10740000Y-2150000D03*
%TD*%
D30*
%TO.C,R4*%
X-2359500Y-7707500D03*
X-2359500Y-9532500D03*
%TD*%
D31*
%TO.C,P1*%
X-3250000Y-16165000D03*
X-2450000Y-16165000D03*
D32*
X-1250000Y-16165000D03*
X-250000Y-16165000D03*
X250000Y-16165000D03*
X1250000Y-16165000D03*
D31*
X2450000Y-16165000D03*
X3250000Y-16165000D03*
X3250000Y-16165000D03*
X2450000Y-16165000D03*
D32*
X1750000Y-16165000D03*
X750000Y-16165000D03*
X-750000Y-16165000D03*
X-1750000Y-16165000D03*
D31*
X-2450000Y-16165000D03*
X-3250000Y-16165000D03*
%TD*%
D29*
%TO.C,C27*%
X-13170000Y16050000D03*
X-13170000Y15090000D03*
%TD*%
D21*
%TO.C,C5*%
X-3939500Y-11257500D03*
X-3939500Y-12982500D03*
%TD*%
D24*
%TO.C,C9*%
X12830000Y5000000D03*
X11870000Y5000000D03*
%TD*%
D33*
%TO.C,R15*%
X2965000Y-5860000D03*
X1140000Y-5860000D03*
%TD*%
D34*
%TO.C,3v3J2*%
X-13710000Y2516100D03*
X-13710000Y-1751100D03*
%TD*%
D24*
%TO.C,C10*%
X12820000Y2360000D03*
X11860000Y2360000D03*
%TD*%
D20*
%TO.C,R7*%
X9250000Y-2105000D03*
X9250000Y-280000D03*
%TD*%
M02*
