%TF.GenerationSoftware,KiCad,Pcbnew,8.0.5*%
%TF.CreationDate,2025-01-08T19:59:39+01:00*%
%TF.ProjectId,test,74657374-2e6b-4696-9361-645f70636258,rev?*%
%TF.SameCoordinates,PX517370cPY341b1c8*%
%TF.FileFunction,Copper,L2,Inr*%
%TF.FilePolarity,Positive*%
%FSLAX46Y46*%
G04 Gerber Fmt 4.6, Leading zero omitted, Abs format (unit mm)*
G04 Created by KiCad (PCBNEW 8.0.5) date 2025-01-08 19:59:39*
%MOMM*%
%LPD*%
G01*
G04 APERTURE LIST*
%TA.AperFunction,ComponentPad*%
%ADD10C,1.803400*%
%TD*%
%TA.AperFunction,ComponentPad*%
%ADD11C,1.498600*%
%TD*%
%TA.AperFunction,ComponentPad*%
%ADD12O,1.000000X2.100000*%
%TD*%
%TA.AperFunction,ComponentPad*%
%ADD13O,1.000000X1.600000*%
%TD*%
%TA.AperFunction,HeatsinkPad*%
%ADD14C,0.600000*%
%TD*%
%TA.AperFunction,ViaPad*%
%ADD15C,0.350000*%
%TD*%
%TA.AperFunction,ViaPad*%
%ADD16C,0.800000*%
%TD*%
G04 APERTURE END LIST*
D10*
%TO.N,*%
%TO.C,SW2*%
X14927083Y11787951D03*
X9717637Y16478557D03*
D11*
%TO.N,GND*%
X15660772Y14478363D03*
%TO.N,SW_L2*%
X12316619Y17489452D03*
%TD*%
D12*
%TO.N,*%
%TO.C,P1*%
X-4320000Y-17080000D03*
D13*
X-4320000Y-21260000D03*
D12*
X4320000Y-17080000D03*
D13*
%TO.N,Net-(P1-SHIELD)*%
X4320000Y-21260000D03*
%TD*%
D10*
%TO.N,*%
%TO.C,SW1*%
X7456432Y17622643D03*
X599616Y19080103D03*
D11*
%TO.N,GND*%
X6746619Y20319452D03*
%TO.N,SW_L3*%
X2344953Y21255056D03*
%TD*%
D14*
%TO.N,GND*%
%TO.C,U2*%
X-8845000Y6760000D03*
X-8845000Y8160000D03*
X-9545000Y6060000D03*
X-9545000Y7460000D03*
X-9545000Y8860000D03*
X-10245000Y6760000D03*
X-10245000Y8160000D03*
X-10945000Y6060000D03*
X-10945000Y7460000D03*
X-10945000Y8860000D03*
X-11645000Y6760000D03*
X-11645000Y8160000D03*
%TD*%
D15*
%TO.N,+3V3*%
X-5780000Y-14130000D03*
X2810000Y-8507657D03*
X4460000Y-8380000D03*
%TO.N,VSYS*%
X-1240000Y830000D03*
%TO.N,GND*%
X3400000Y4450000D03*
X-4910000Y1460000D03*
X-1670000Y15400000D03*
X-3940000Y-13322700D03*
X-13780000Y15130000D03*
X10710000Y-2760000D03*
D16*
X-4150000Y-15260000D03*
X18600000Y-13200000D03*
D15*
X-7550000Y10680000D03*
X-7420000Y15830000D03*
X-12890000Y-12090000D03*
X-16270000Y-5490000D03*
X6610000Y3530000D03*
X12300000Y-16140000D03*
X6010000Y-8270000D03*
X-6640000Y-18180000D03*
X16170000Y2750000D03*
X-8570000Y-10900000D03*
X18321724Y-8700000D03*
X-10120000Y470000D03*
X-4890000Y3500000D03*
X5000000Y10400000D03*
D16*
X-3240000Y-14910000D03*
D15*
X-3950000Y-7050000D03*
X3290000Y-3970000D03*
X15990000Y-3750000D03*
X6630000Y4770000D03*
X2740000Y-7170000D03*
D16*
X4170000Y-15230000D03*
D15*
X-7400000Y-7020000D03*
X-15560000Y-10750000D03*
X18350000Y-2760000D03*
D16*
X19560000Y4560000D03*
D15*
X11481511Y1830000D03*
X20172490Y-5397500D03*
D16*
X11280000Y-19600000D03*
D15*
X-8140000Y-12690000D03*
X11872500Y5500000D03*
X-19100000Y15410000D03*
X10627000Y148000D03*
X9380000Y-16080000D03*
X10540000Y6060000D03*
X-10250000Y-6610000D03*
X-8170000Y-6570000D03*
D16*
X11340000Y-17500000D03*
D15*
X-21280000Y15410000D03*
X-13710000Y1230000D03*
X-3710000Y15400000D03*
X11660000Y7440000D03*
X9460000Y-4940000D03*
X-11670000Y470000D03*
D16*
X13400000Y-17500000D03*
D15*
X10840000Y-16120000D03*
X6930000Y-18580000D03*
X12390000Y12450000D03*
X-8290000Y-17960000D03*
%TO.N,EN*%
X-4145016Y12715016D03*
%TO.N,+3V3*%
X4540000Y9580000D03*
X-12653917Y14257476D03*
D16*
X13800000Y-5200000D03*
D15*
X-10040000Y-15920000D03*
X-4480000Y14090000D03*
X9910000Y12850000D03*
X-6250000Y9330000D03*
D16*
X19600000Y-2600000D03*
D15*
X-14267500Y7200000D03*
X-7470000Y14090000D03*
%TO.N,VSYS*%
X-9510000Y-10180000D03*
X14710000Y-8150000D03*
X10200000Y-5200000D03*
X11600000Y-13170000D03*
X3470000Y9780000D03*
D16*
X-13600000Y-200000D03*
D15*
%TO.N,CAM_PCLK*%
X14050000Y3720000D03*
%TO.N,+2V8*%
X16354141Y-2759998D03*
D16*
%TO.N,VBUS*%
X6840000Y-13960000D03*
X7980000Y-13960000D03*
D15*
%TO.N,SW_L3*%
X-19450000Y13820000D03*
%TO.N,SW_L1*%
X-15150000Y-70000D03*
%TO.N,Net-(D1-K)*%
X5780000Y-13230000D03*
X7390000Y-10780000D03*
%TO.N,+3V3CAM*%
X12562500Y148000D03*
X15200000Y-11400000D03*
X13200000Y-6400000D03*
X9759989Y7440011D03*
X9200000Y0D03*
%TO.N,LEDCNTRL*%
X-9530000Y1720000D03*
%TO.N,RXD*%
X2710000Y13630000D03*
X-7980000Y13240000D03*
%TO.N,TXD*%
X3410000Y13640000D03*
X-9264693Y14114693D03*
%TO.N,GPIO0*%
X-713589Y9164400D03*
X-6050000Y7600000D03*
%TO.N,GPIO46*%
X-5810000Y1000000D03*
X2530000Y8170000D03*
%TO.N,CAM_PWDN*%
X16280000Y-470000D03*
%TO.N,CAM_RESET*%
X10000000Y700000D03*
X16130000Y-1800000D03*
X-19200000Y8800000D03*
%TO.N,PMIC_PWRON*%
X13530000Y-11210000D03*
X-2310000Y-22590000D03*
%TO.N,I2SDAT_MIC*%
X-19170000Y5250000D03*
%TO.N,CAM_SDA*%
X8990000Y-12050000D03*
%TO.N,CAM_SCL*%
X7970000Y-11400000D03*
%TO.N,PMIC_IRQ*%
X-19110000Y6510000D03*
X-1330000Y-10120000D03*
%TO.N,BCLK_AMP*%
X-15900000Y-9930000D03*
X-13360000Y-7580000D03*
%TO.N,WS_AMP*%
X-14180000Y-11800000D03*
X-12440000Y-7760000D03*
%TO.N,CAM_Y3*%
X-1940000Y10110000D03*
%TO.N,CAM_MCLK*%
X8470000Y1770000D03*
%TO.N,BCLK_MIC*%
X-15030000Y-4880000D03*
%TO.N,CAM_Y5*%
X14120000Y5230000D03*
%TO.N,CAM_Y6*%
X16550000Y4260000D03*
%TO.N,WS_MIC*%
X-13920000Y-5490000D03*
%TO.N,CAM_Y4*%
X-1720000Y11930000D03*
%TO.N,CAM_Y8*%
X14380000Y2380000D03*
%TO.N,CAM_VSYNC*%
X12200000Y-3600000D03*
X17080000Y-1100000D03*
X-13000000Y5200000D03*
%TO.N,CAM_Y9*%
X15990000Y1250000D03*
%TO.N,CAM_Y2*%
X16200000Y4870000D03*
%TO.N,CAM_HREF*%
X14400000Y-400000D03*
%TO.N,CAM_Y7*%
X14430000Y3130000D03*
%TO.N,+1V5*%
X13534976Y-2463401D03*
%TO.N,Net-(JP2-A)*%
X-9340000Y-20070000D03*
%TO.N,Net-(JP3-A)*%
X-17140000Y-1300000D03*
%TD*%
%TA.AperFunction,Conductor*%
%TO.N,GND*%
G36*
X17057773Y16876004D02*
G01*
X17078372Y16859434D01*
X17279125Y16659155D01*
X17297491Y16640833D01*
X17301033Y16637151D01*
X17969438Y15912883D01*
X17972802Y15909083D01*
X18610731Y15157877D01*
X18613941Y15153936D01*
X18971271Y14696134D01*
X19220322Y14377056D01*
X19223387Y14372958D01*
X19797193Y13571723D01*
X19800086Y13567502D01*
X20103463Y13104663D01*
X20334991Y12751437D01*
X20340333Y12743288D01*
X20343045Y12738959D01*
X20367857Y12697466D01*
X20849014Y11892833D01*
X20851243Y11888947D01*
X21073492Y11484818D01*
X21088839Y11425074D01*
X21089999Y-5689991D01*
X21092407Y-5788252D01*
X21092408Y-5788261D01*
X21130742Y-5980979D01*
X21130744Y-5980987D01*
X21205943Y-6162533D01*
X21205948Y-6162543D01*
X21315118Y-6325927D01*
X21315121Y-6325931D01*
X21454068Y-6464878D01*
X21454072Y-6464881D01*
X21617456Y-6574051D01*
X21617460Y-6574053D01*
X21617463Y-6574055D01*
X21799013Y-6649256D01*
X21991746Y-6687593D01*
X22090000Y-6690000D01*
X22090000Y-6689999D01*
X22116136Y-6690640D01*
X22126243Y-6686620D01*
X22130600Y-6686291D01*
X22161336Y-6684526D01*
X22188514Y-6685956D01*
X22326908Y-6708659D01*
X22356700Y-6717493D01*
X22483291Y-6773095D01*
X22509953Y-6789058D01*
X22618750Y-6874393D01*
X22640605Y-6896484D01*
X22724767Y-7006188D01*
X22740443Y-7033019D01*
X22794685Y-7160199D01*
X22803199Y-7190085D01*
X22824416Y-7328709D01*
X22825556Y-7355907D01*
X22821781Y-7411252D01*
X22815789Y-7441772D01*
X22667709Y-7889232D01*
X22666244Y-7893407D01*
X22327561Y-8806265D01*
X22325707Y-8810968D01*
X21950212Y-9708989D01*
X21948167Y-9713612D01*
X21536378Y-10595589D01*
X21534146Y-10600125D01*
X21086765Y-11464556D01*
X21084351Y-11468997D01*
X20602088Y-12314509D01*
X20599494Y-12318848D01*
X20083190Y-13143966D01*
X20080422Y-13148196D01*
X19530898Y-13951611D01*
X19527959Y-13955725D01*
X18946160Y-14736054D01*
X18943057Y-14740044D01*
X18329914Y-15496036D01*
X18326650Y-15499896D01*
X17683237Y-16230230D01*
X17679819Y-16233955D01*
X17007133Y-16937499D01*
X17003565Y-16941081D01*
X16302785Y-17616597D01*
X16299075Y-17620030D01*
X15571338Y-18266428D01*
X15567491Y-18269708D01*
X14814014Y-18885904D01*
X14810036Y-18889023D01*
X14032074Y-19473992D01*
X14027973Y-19476947D01*
X13226809Y-20029726D01*
X13222590Y-20032512D01*
X12399548Y-20552182D01*
X12395219Y-20554793D01*
X11551712Y-21040466D01*
X11547281Y-21042899D01*
X10684647Y-21493806D01*
X10680120Y-21496056D01*
X9799823Y-21911427D01*
X9795208Y-21913490D01*
X8898744Y-22292621D01*
X8894049Y-22294495D01*
X7982853Y-22636781D01*
X7978085Y-22638462D01*
X7053698Y-22943323D01*
X7048866Y-22944808D01*
X6112823Y-23211736D01*
X6107935Y-23213023D01*
X5161477Y-23441654D01*
X5157156Y-23442616D01*
X4692274Y-23537495D01*
X4667478Y-23540000D01*
X-4661347Y-23540000D01*
X-4686168Y-23537490D01*
X-5147713Y-23443195D01*
X-5151864Y-23442273D01*
X-6061334Y-23223734D01*
X-6066032Y-23222507D01*
X-6965918Y-22968621D01*
X-6970564Y-22967212D01*
X-7859860Y-22678276D01*
X-7864448Y-22676685D01*
X-8099505Y-22590000D01*
X-2790390Y-22590000D01*
X-2770932Y-22725337D01*
X-2770930Y-22725345D01*
X-2714133Y-22849714D01*
X-2714128Y-22849721D01*
X-2624591Y-22953053D01*
X-2624587Y-22953057D01*
X-2600368Y-22968621D01*
X-2509561Y-23026978D01*
X-2443964Y-23046239D01*
X-2378368Y-23065500D01*
X-2378367Y-23065500D01*
X-2241633Y-23065500D01*
X-2110439Y-23026978D01*
X-1995411Y-22953055D01*
X-1905870Y-22849718D01*
X-1849069Y-22725342D01*
X-1829610Y-22590000D01*
X-1849069Y-22454658D01*
X-1861323Y-22427827D01*
X-1905868Y-22330285D01*
X-1905873Y-22330278D01*
X-1995410Y-22226946D01*
X-1995414Y-22226942D01*
X-2110441Y-22153021D01*
X-2241632Y-22114500D01*
X-2241633Y-22114500D01*
X-2378367Y-22114500D01*
X-2378368Y-22114500D01*
X-2509560Y-22153021D01*
X-2624587Y-22226942D01*
X-2624591Y-22226946D01*
X-2714128Y-22330278D01*
X-2714133Y-22330285D01*
X-2770930Y-22454654D01*
X-2770932Y-22454662D01*
X-2790390Y-22590000D01*
X-8099505Y-22590000D01*
X-8741722Y-22353162D01*
X-8746244Y-22351393D01*
X-9610186Y-21993770D01*
X-9614636Y-21991825D01*
X-10463903Y-21600656D01*
X-10468273Y-21598539D01*
X-11301603Y-21174403D01*
X-11305886Y-21172116D01*
X-11826116Y-20881153D01*
X-5120500Y-20881153D01*
X-5120500Y-21638846D01*
X-5089739Y-21793489D01*
X-5089736Y-21793501D01*
X-5029398Y-21939172D01*
X-5029391Y-21939185D01*
X-4941790Y-22070288D01*
X-4941787Y-22070292D01*
X-4830293Y-22181786D01*
X-4830289Y-22181789D01*
X-4699186Y-22269390D01*
X-4699173Y-22269397D01*
X-4553502Y-22329735D01*
X-4553497Y-22329737D01*
X-4435732Y-22353162D01*
X-4398847Y-22360499D01*
X-4398844Y-22360500D01*
X-4398842Y-22360500D01*
X-4241156Y-22360500D01*
X-4241155Y-22360499D01*
X-4086503Y-22329737D01*
X-3940821Y-22269394D01*
X-3809711Y-22181789D01*
X-3698211Y-22070289D01*
X-3610606Y-21939179D01*
X-3550263Y-21793497D01*
X-3519500Y-21638842D01*
X-3519500Y-20881158D01*
X-3519500Y-20881155D01*
X-3519501Y-20881153D01*
X3519500Y-20881153D01*
X3519500Y-21638846D01*
X3550261Y-21793489D01*
X3550264Y-21793501D01*
X3610602Y-21939172D01*
X3610609Y-21939185D01*
X3698210Y-22070288D01*
X3698213Y-22070292D01*
X3809707Y-22181786D01*
X3809711Y-22181789D01*
X3940814Y-22269390D01*
X3940827Y-22269397D01*
X4086498Y-22329735D01*
X4086503Y-22329737D01*
X4204268Y-22353162D01*
X4241153Y-22360499D01*
X4241156Y-22360500D01*
X4241158Y-22360500D01*
X4398844Y-22360500D01*
X4398845Y-22360499D01*
X4553497Y-22329737D01*
X4699179Y-22269394D01*
X4830289Y-22181789D01*
X4941789Y-22070289D01*
X5029394Y-21939179D01*
X5089737Y-21793497D01*
X5120500Y-21638842D01*
X5120500Y-20881158D01*
X5120500Y-20881155D01*
X5120499Y-20881153D01*
X5089738Y-20726510D01*
X5089737Y-20726503D01*
X5089735Y-20726498D01*
X5029397Y-20580827D01*
X5029390Y-20580814D01*
X4941789Y-20449711D01*
X4941786Y-20449707D01*
X4830292Y-20338213D01*
X4830288Y-20338210D01*
X4699185Y-20250609D01*
X4699172Y-20250602D01*
X4553501Y-20190264D01*
X4553489Y-20190261D01*
X4398845Y-20159500D01*
X4398842Y-20159500D01*
X4241158Y-20159500D01*
X4241155Y-20159500D01*
X4086510Y-20190261D01*
X4086498Y-20190264D01*
X3940827Y-20250602D01*
X3940814Y-20250609D01*
X3809711Y-20338210D01*
X3809707Y-20338213D01*
X3698213Y-20449707D01*
X3698210Y-20449711D01*
X3610609Y-20580814D01*
X3610602Y-20580827D01*
X3550264Y-20726498D01*
X3550261Y-20726510D01*
X3519500Y-20881153D01*
X-3519501Y-20881153D01*
X-3550262Y-20726510D01*
X-3550263Y-20726503D01*
X-3550265Y-20726498D01*
X-3610603Y-20580827D01*
X-3610610Y-20580814D01*
X-3698211Y-20449711D01*
X-3698214Y-20449707D01*
X-3809708Y-20338213D01*
X-3809712Y-20338210D01*
X-3940815Y-20250609D01*
X-3940828Y-20250602D01*
X-4086499Y-20190264D01*
X-4086511Y-20190261D01*
X-4241155Y-20159500D01*
X-4241158Y-20159500D01*
X-4398842Y-20159500D01*
X-4398845Y-20159500D01*
X-4553490Y-20190261D01*
X-4553502Y-20190264D01*
X-4699173Y-20250602D01*
X-4699186Y-20250609D01*
X-4830289Y-20338210D01*
X-4830293Y-20338213D01*
X-4941787Y-20449707D01*
X-4941790Y-20449711D01*
X-5029391Y-20580814D01*
X-5029398Y-20580827D01*
X-5089736Y-20726498D01*
X-5089739Y-20726510D01*
X-5120500Y-20881153D01*
X-11826116Y-20881153D01*
X-11850252Y-20867654D01*
X-12121962Y-20715686D01*
X-12126121Y-20713252D01*
X-12556828Y-20449707D01*
X-12923713Y-20225213D01*
X-12927804Y-20222598D01*
X-13705649Y-19703725D01*
X-13709635Y-19700952D01*
X-13986358Y-19500272D01*
X-11065501Y-19500272D01*
X-11040503Y-19625939D01*
X-11040501Y-19625945D01*
X-10991467Y-19744325D01*
X-10991462Y-19744334D01*
X-10920277Y-19850869D01*
X-10920274Y-19850873D01*
X-10829673Y-19941474D01*
X-10829669Y-19941477D01*
X-10723134Y-20012662D01*
X-10723128Y-20012665D01*
X-10723127Y-20012666D01*
X-10604744Y-20061702D01*
X-10604740Y-20061702D01*
X-10604739Y-20061703D01*
X-10479072Y-20086701D01*
X-10479069Y-20086701D01*
X-10350929Y-20086701D01*
X-10247165Y-20066060D01*
X-10225256Y-20061702D01*
X-10106873Y-20012666D01*
X-10012023Y-19949288D01*
X-9945348Y-19928412D01*
X-9877968Y-19946896D01*
X-9831277Y-19998874D01*
X-9821189Y-20061131D01*
X-9820390Y-20061131D01*
X-9820390Y-20066060D01*
X-9820101Y-20067844D01*
X-9820390Y-20069994D01*
X-9820390Y-20069999D01*
X-9800932Y-20205337D01*
X-9800930Y-20205345D01*
X-9744133Y-20329714D01*
X-9744128Y-20329721D01*
X-9654591Y-20433053D01*
X-9654587Y-20433057D01*
X-9594021Y-20471979D01*
X-9539561Y-20506978D01*
X-9473964Y-20526239D01*
X-9408368Y-20545500D01*
X-9408367Y-20545500D01*
X-9271633Y-20545500D01*
X-9140439Y-20506978D01*
X-9025411Y-20433055D01*
X-8935870Y-20329718D01*
X-8879069Y-20205342D01*
X-8859610Y-20070000D01*
X-8879069Y-19934658D01*
X-8891323Y-19907827D01*
X-8935868Y-19810285D01*
X-8935873Y-19810278D01*
X-9025410Y-19706946D01*
X-9025414Y-19706942D01*
X-9140441Y-19633021D01*
X-9271632Y-19594500D01*
X-9271633Y-19594500D01*
X-9408367Y-19594500D01*
X-9408368Y-19594500D01*
X-9539557Y-19633020D01*
X-9539560Y-19633021D01*
X-9539561Y-19633022D01*
X-9582131Y-19660380D01*
X-9649171Y-19680063D01*
X-9716210Y-19660377D01*
X-9761964Y-19607572D01*
X-9771907Y-19538414D01*
X-9770786Y-19531870D01*
X-9764500Y-19500270D01*
X-9764500Y-19372129D01*
X-9789498Y-19246462D01*
X-9789499Y-19246461D01*
X-9789499Y-19246457D01*
X-9838535Y-19128074D01*
X-9838536Y-19128073D01*
X-9838539Y-19128067D01*
X-9909724Y-19021532D01*
X-9909727Y-19021528D01*
X-10000328Y-18930927D01*
X-10000332Y-18930924D01*
X-10106867Y-18859739D01*
X-10106876Y-18859734D01*
X-10225256Y-18810700D01*
X-10225262Y-18810698D01*
X-10350929Y-18785701D01*
X-10350931Y-18785701D01*
X-10479069Y-18785701D01*
X-10479071Y-18785701D01*
X-10604739Y-18810698D01*
X-10604745Y-18810700D01*
X-10723125Y-18859734D01*
X-10723134Y-18859739D01*
X-10829669Y-18930924D01*
X-10829673Y-18930927D01*
X-10920274Y-19021528D01*
X-10920277Y-19021532D01*
X-10991462Y-19128067D01*
X-10991467Y-19128076D01*
X-11040501Y-19246456D01*
X-11040503Y-19246462D01*
X-11065500Y-19372129D01*
X-11065500Y-19372132D01*
X-11065500Y-19500270D01*
X-11065500Y-19500272D01*
X-11065501Y-19500272D01*
X-13986358Y-19500272D01*
X-14466824Y-19151838D01*
X-14470223Y-19149283D01*
X-14825521Y-18872545D01*
X-14849584Y-18847685D01*
X-14890999Y-18790780D01*
X-14901970Y-18772620D01*
X-14978933Y-18616425D01*
X-14987457Y-18593787D01*
X-15032226Y-18427063D01*
X-15036190Y-18403196D01*
X-15047720Y-18230961D01*
X-15046972Y-18206772D01*
X-15024829Y-18035585D01*
X-15019397Y-18012001D01*
X-14964422Y-17848371D01*
X-14954515Y-17826298D01*
X-14887327Y-17708844D01*
X-14868050Y-17675144D01*
X-14855990Y-17657712D01*
X-14800337Y-17590406D01*
X-14799575Y-17589497D01*
X-14510936Y-17248606D01*
X-9765501Y-17248606D01*
X-9740503Y-17374273D01*
X-9740501Y-17374279D01*
X-9691467Y-17492659D01*
X-9691462Y-17492668D01*
X-9620277Y-17599203D01*
X-9620274Y-17599207D01*
X-9529673Y-17689808D01*
X-9529669Y-17689811D01*
X-9423134Y-17760996D01*
X-9423128Y-17760999D01*
X-9423127Y-17761000D01*
X-9304744Y-17810036D01*
X-9304740Y-17810036D01*
X-9304739Y-17810037D01*
X-9179072Y-17835035D01*
X-9179069Y-17835035D01*
X-9050929Y-17835035D01*
X-8966385Y-17818217D01*
X-8925256Y-17810036D01*
X-8806873Y-17761000D01*
X-8700331Y-17689811D01*
X-8609724Y-17599204D01*
X-8538535Y-17492662D01*
X-8489499Y-17374279D01*
X-8481318Y-17333150D01*
X-8464500Y-17248606D01*
X-8464500Y-17120463D01*
X-8489498Y-16994796D01*
X-8489499Y-16994795D01*
X-8489499Y-16994791D01*
X-8538535Y-16876408D01*
X-8538536Y-16876407D01*
X-8538539Y-16876401D01*
X-8609724Y-16769866D01*
X-8609727Y-16769862D01*
X-8700328Y-16679261D01*
X-8700332Y-16679258D01*
X-8806867Y-16608073D01*
X-8806876Y-16608068D01*
X-8925256Y-16559034D01*
X-8925262Y-16559032D01*
X-9050929Y-16534035D01*
X-9050931Y-16534035D01*
X-9179069Y-16534035D01*
X-9179071Y-16534035D01*
X-9304739Y-16559032D01*
X-9304745Y-16559034D01*
X-9423125Y-16608068D01*
X-9423134Y-16608073D01*
X-9529669Y-16679258D01*
X-9529673Y-16679261D01*
X-9620274Y-16769862D01*
X-9620277Y-16769866D01*
X-9691462Y-16876401D01*
X-9691467Y-16876410D01*
X-9740501Y-16994790D01*
X-9740503Y-16994796D01*
X-9765500Y-17120463D01*
X-9765500Y-17120466D01*
X-9765500Y-17248604D01*
X-9765500Y-17248606D01*
X-9765501Y-17248606D01*
X-14510936Y-17248606D01*
X-13835717Y-16451153D01*
X-5120500Y-16451153D01*
X-5120500Y-17708846D01*
X-5089739Y-17863489D01*
X-5089736Y-17863501D01*
X-5029398Y-18009172D01*
X-5029391Y-18009185D01*
X-4941790Y-18140288D01*
X-4941787Y-18140292D01*
X-4830293Y-18251786D01*
X-4830289Y-18251789D01*
X-4699186Y-18339390D01*
X-4699173Y-18339397D01*
X-4553502Y-18399735D01*
X-4553497Y-18399737D01*
X-4416121Y-18427063D01*
X-4398847Y-18430499D01*
X-4398844Y-18430500D01*
X-4398842Y-18430500D01*
X-4241156Y-18430500D01*
X-4241155Y-18430499D01*
X-4086503Y-18399737D01*
X-3940821Y-18339394D01*
X-3809711Y-18251789D01*
X-3698211Y-18140289D01*
X-3610606Y-18009179D01*
X-3587131Y-17952504D01*
X-3543293Y-17898103D01*
X-3476999Y-17876037D01*
X-3409299Y-17893315D01*
X-3365185Y-17937956D01*
X-3350515Y-17963365D01*
X-3243365Y-18070515D01*
X-3129719Y-18136129D01*
X-3122514Y-18140289D01*
X-3112135Y-18146281D01*
X-2965766Y-18185500D01*
X-2965764Y-18185500D01*
X-2814236Y-18185500D01*
X-2814234Y-18185500D01*
X-2667865Y-18146281D01*
X-2536635Y-18070515D01*
X-2429485Y-17963365D01*
X-2353719Y-17832135D01*
X-2314500Y-17685766D01*
X-2314500Y-17534234D01*
X2314500Y-17534234D01*
X2314500Y-17685765D01*
X2353719Y-17832136D01*
X2371821Y-17863489D01*
X2429485Y-17963365D01*
X2536635Y-18070515D01*
X2650281Y-18136129D01*
X2657486Y-18140289D01*
X2667865Y-18146281D01*
X2814234Y-18185500D01*
X2814236Y-18185500D01*
X2965764Y-18185500D01*
X2965766Y-18185500D01*
X3112135Y-18146281D01*
X3243365Y-18070515D01*
X3350515Y-17963365D01*
X3365183Y-17937958D01*
X3415748Y-17889743D01*
X3484355Y-17876519D01*
X3549220Y-17902486D01*
X3587131Y-17952506D01*
X3610602Y-18009172D01*
X3610609Y-18009185D01*
X3698210Y-18140288D01*
X3698213Y-18140292D01*
X3809707Y-18251786D01*
X3809711Y-18251789D01*
X3940814Y-18339390D01*
X3940827Y-18339397D01*
X4086498Y-18399735D01*
X4086503Y-18399737D01*
X4223879Y-18427063D01*
X4241153Y-18430499D01*
X4241156Y-18430500D01*
X4241158Y-18430500D01*
X4398844Y-18430500D01*
X4398845Y-18430499D01*
X4553497Y-18399737D01*
X4699179Y-18339394D01*
X4830289Y-18251789D01*
X4941789Y-18140289D01*
X5029394Y-18009179D01*
X5089737Y-17863497D01*
X5120500Y-17708842D01*
X5120500Y-16451158D01*
X5120500Y-16451155D01*
X5120499Y-16451153D01*
X5089738Y-16296510D01*
X5089737Y-16296503D01*
X5041365Y-16179721D01*
X5029397Y-16150827D01*
X5029390Y-16150814D01*
X4941789Y-16019711D01*
X4941786Y-16019707D01*
X4830292Y-15908213D01*
X4830288Y-15908210D01*
X4699185Y-15820609D01*
X4699172Y-15820602D01*
X4553501Y-15760264D01*
X4553489Y-15760261D01*
X4398845Y-15729500D01*
X4398842Y-15729500D01*
X4241158Y-15729500D01*
X4241155Y-15729500D01*
X4086510Y-15760261D01*
X4086498Y-15760264D01*
X3940827Y-15820602D01*
X3940814Y-15820609D01*
X3809711Y-15908210D01*
X3809707Y-15908213D01*
X3698213Y-16019707D01*
X3698210Y-16019711D01*
X3610609Y-16150814D01*
X3610602Y-16150827D01*
X3550264Y-16296498D01*
X3550261Y-16296510D01*
X3519500Y-16451153D01*
X3519500Y-17126258D01*
X3499815Y-17193297D01*
X3447011Y-17239052D01*
X3377853Y-17248996D01*
X3314297Y-17219971D01*
X3307819Y-17213939D01*
X3243367Y-17149487D01*
X3243365Y-17149485D01*
X3177750Y-17111602D01*
X3112136Y-17073719D01*
X3038950Y-17054109D01*
X2965766Y-17034500D01*
X2814234Y-17034500D01*
X2667863Y-17073719D01*
X2536635Y-17149485D01*
X2536632Y-17149487D01*
X2429487Y-17256632D01*
X2429485Y-17256635D01*
X2353719Y-17387863D01*
X2314500Y-17534234D01*
X-2314500Y-17534234D01*
X-2353719Y-17387865D01*
X-2429485Y-17256635D01*
X-2536635Y-17149485D01*
X-2602250Y-17111602D01*
X-2667864Y-17073719D01*
X-2741050Y-17054109D01*
X-2814234Y-17034500D01*
X-2965766Y-17034500D01*
X-3112137Y-17073719D01*
X-3243365Y-17149485D01*
X-3243368Y-17149487D01*
X-3307819Y-17213939D01*
X-3369142Y-17247424D01*
X-3438834Y-17242440D01*
X-3494767Y-17200568D01*
X-3519184Y-17135104D01*
X-3519500Y-17126258D01*
X-3519500Y-16451155D01*
X-3519501Y-16451153D01*
X-3550262Y-16296510D01*
X-3550263Y-16296503D01*
X-3598635Y-16179721D01*
X-3610603Y-16150827D01*
X-3610610Y-16150814D01*
X-3698211Y-16019711D01*
X-3698214Y-16019707D01*
X-3809708Y-15908213D01*
X-3809712Y-15908210D01*
X-3940815Y-15820609D01*
X-3940828Y-15820602D01*
X-4086499Y-15760264D01*
X-4086511Y-15760261D01*
X-4241155Y-15729500D01*
X-4241158Y-15729500D01*
X-4398842Y-15729500D01*
X-4398845Y-15729500D01*
X-4553490Y-15760261D01*
X-4553502Y-15760264D01*
X-4699173Y-15820602D01*
X-4699186Y-15820609D01*
X-4830289Y-15908210D01*
X-4830293Y-15908213D01*
X-4941787Y-16019707D01*
X-4941790Y-16019711D01*
X-5029391Y-16150814D01*
X-5029398Y-16150827D01*
X-5089736Y-16296498D01*
X-5089739Y-16296510D01*
X-5120500Y-16451153D01*
X-13835717Y-16451153D01*
X-13441642Y-15985740D01*
X-13398860Y-15920000D01*
X-10520390Y-15920000D01*
X-10500932Y-16055337D01*
X-10500930Y-16055345D01*
X-10444133Y-16179714D01*
X-10444128Y-16179721D01*
X-10354591Y-16283053D01*
X-10354587Y-16283057D01*
X-10294021Y-16321979D01*
X-10239561Y-16356978D01*
X-10173964Y-16376239D01*
X-10108368Y-16395500D01*
X-10108367Y-16395500D01*
X-9971633Y-16395500D01*
X-9840439Y-16356978D01*
X-9725411Y-16283055D01*
X-9635870Y-16179718D01*
X-9579069Y-16055342D01*
X-9559610Y-15920000D01*
X-9579069Y-15784658D01*
X-9615800Y-15704228D01*
X-9635868Y-15660285D01*
X-9635873Y-15660278D01*
X-9725410Y-15556946D01*
X-9725414Y-15556942D01*
X-9840441Y-15483021D01*
X-9971632Y-15444500D01*
X-9971633Y-15444500D01*
X-10108367Y-15444500D01*
X-10108368Y-15444500D01*
X-10239560Y-15483021D01*
X-10354587Y-15556942D01*
X-10354591Y-15556946D01*
X-10444128Y-15660278D01*
X-10444133Y-15660285D01*
X-10500930Y-15784654D01*
X-10500932Y-15784662D01*
X-10520390Y-15920000D01*
X-13398860Y-15920000D01*
X-13384412Y-15897799D01*
X-13303549Y-15704228D01*
X-13264005Y-15498206D01*
X-13267453Y-15288453D01*
X-13313746Y-15083842D01*
X-13365720Y-14970088D01*
X-13400925Y-14893034D01*
X-13400929Y-14893028D01*
X-13525304Y-14724098D01*
X-13563530Y-14688134D01*
X-13563623Y-14687976D01*
X-13720424Y-14540736D01*
X-13937295Y-14337089D01*
X-13940863Y-14333599D01*
X-14140777Y-14130000D01*
X-6260390Y-14130000D01*
X-6240932Y-14265337D01*
X-6240930Y-14265345D01*
X-6184133Y-14389714D01*
X-6184128Y-14389721D01*
X-6094591Y-14493053D01*
X-6094587Y-14493057D01*
X-6034021Y-14531979D01*
X-5979561Y-14566978D01*
X-5913964Y-14586239D01*
X-5848368Y-14605500D01*
X-5848367Y-14605500D01*
X-5711633Y-14605500D01*
X-5580439Y-14566978D01*
X-5465411Y-14493055D01*
X-5375870Y-14389718D01*
X-5319069Y-14265342D01*
X-5299610Y-14130000D01*
X-5319069Y-13994658D01*
X-5338728Y-13951611D01*
X-5375868Y-13870285D01*
X-5375873Y-13870278D01*
X-5465410Y-13766946D01*
X-5465414Y-13766942D01*
X-5580441Y-13693021D01*
X-5711632Y-13654500D01*
X-5711633Y-13654500D01*
X-5848367Y-13654500D01*
X-5848368Y-13654500D01*
X-5979560Y-13693021D01*
X-6094587Y-13766942D01*
X-6094591Y-13766946D01*
X-6184128Y-13870278D01*
X-6184133Y-13870285D01*
X-6240930Y-13994654D01*
X-6240932Y-13994662D01*
X-6260390Y-14130000D01*
X-14140777Y-14130000D01*
X-14585612Y-13676964D01*
X-14589538Y-13672776D01*
X-15202956Y-12987284D01*
X-15206684Y-12982919D01*
X-15378910Y-12771534D01*
X-15650944Y-12437648D01*
X-1300500Y-12437648D01*
X-1300500Y-12642351D01*
X-1268478Y-12844534D01*
X-1205219Y-13039223D01*
X-1112285Y-13221613D01*
X-991972Y-13387213D01*
X-847214Y-13531971D01*
X-709437Y-13632070D01*
X-681610Y-13652287D01*
X-601665Y-13693021D01*
X-499224Y-13745218D01*
X-499222Y-13745218D01*
X-499219Y-13745220D01*
X-432356Y-13766945D01*
X-304535Y-13808477D01*
X-203443Y-13824488D01*
X-102352Y-13840500D01*
X-102351Y-13840500D01*
X102351Y-13840500D01*
X102352Y-13840500D01*
X304534Y-13808477D01*
X499219Y-13745220D01*
X681610Y-13652287D01*
X818747Y-13552652D01*
X847213Y-13531971D01*
X847215Y-13531968D01*
X847219Y-13531966D01*
X991966Y-13387219D01*
X991968Y-13387215D01*
X991971Y-13387213D01*
X1055182Y-13300209D01*
X1106191Y-13230000D01*
X5299610Y-13230000D01*
X5319068Y-13365337D01*
X5319070Y-13365345D01*
X5375867Y-13489714D01*
X5375872Y-13489721D01*
X5465409Y-13593053D01*
X5465413Y-13593057D01*
X5525979Y-13631979D01*
X5580439Y-13666978D01*
X5644956Y-13685922D01*
X5711632Y-13705500D01*
X5711633Y-13705500D01*
X5848367Y-13705500D01*
X5979561Y-13666978D01*
X5979571Y-13666971D01*
X5979812Y-13666862D01*
X5980097Y-13666820D01*
X5988070Y-13664480D01*
X5988406Y-13665624D01*
X6048969Y-13656907D01*
X6112530Y-13685922D01*
X6150314Y-13744694D01*
X6154438Y-13794594D01*
X6134355Y-13959999D01*
X6154859Y-14128869D01*
X6154860Y-14128874D01*
X6215182Y-14287931D01*
X6246705Y-14333599D01*
X6311817Y-14427929D01*
X6385332Y-14493057D01*
X6439150Y-14540736D01*
X6562548Y-14605500D01*
X6589775Y-14619790D01*
X6754944Y-14660500D01*
X6925056Y-14660500D01*
X7090225Y-14619790D01*
X7240852Y-14540734D01*
X7327773Y-14463728D01*
X7391006Y-14434007D01*
X7460269Y-14443191D01*
X7492227Y-14463729D01*
X7579147Y-14540733D01*
X7579149Y-14540735D01*
X7629151Y-14566978D01*
X7729775Y-14619790D01*
X7894944Y-14660500D01*
X8065056Y-14660500D01*
X8230225Y-14619790D01*
X8330849Y-14566978D01*
X8380849Y-14540736D01*
X8380850Y-14540734D01*
X8380852Y-14540734D01*
X8508183Y-14427929D01*
X8604818Y-14287930D01*
X8665140Y-14128872D01*
X8685645Y-13960000D01*
X8665140Y-13791128D01*
X8604818Y-13632070D01*
X8508183Y-13492071D01*
X8389829Y-13387219D01*
X8380849Y-13379263D01*
X8230226Y-13300210D01*
X8065056Y-13259500D01*
X7894944Y-13259500D01*
X7729773Y-13300210D01*
X7579150Y-13379264D01*
X7492227Y-13456271D01*
X7428994Y-13485992D01*
X7359730Y-13476808D01*
X7327773Y-13456271D01*
X7297804Y-13429721D01*
X7240852Y-13379266D01*
X7240850Y-13379265D01*
X7240849Y-13379264D01*
X7090226Y-13300210D01*
X6925056Y-13259500D01*
X6754944Y-13259500D01*
X6589776Y-13300209D01*
X6437491Y-13380135D01*
X6368982Y-13393860D01*
X6303929Y-13368367D01*
X6262985Y-13311751D01*
X6257127Y-13252692D01*
X6260390Y-13230000D01*
X6251763Y-13170000D01*
X11119610Y-13170000D01*
X11139068Y-13305337D01*
X11139070Y-13305345D01*
X11195867Y-13429714D01*
X11195872Y-13429721D01*
X11285409Y-13533053D01*
X11285413Y-13533057D01*
X11345979Y-13571979D01*
X11400439Y-13606978D01*
X11466036Y-13626239D01*
X11531632Y-13645500D01*
X11531633Y-13645500D01*
X11668367Y-13645500D01*
X11799561Y-13606978D01*
X11914589Y-13533055D01*
X12004130Y-13429718D01*
X12060931Y-13305342D01*
X12080390Y-13170000D01*
X12060931Y-13034658D01*
X12039296Y-12987284D01*
X12004132Y-12910285D01*
X12004127Y-12910278D01*
X11914590Y-12806946D01*
X11914586Y-12806942D01*
X11799559Y-12733021D01*
X11668368Y-12694500D01*
X11668367Y-12694500D01*
X11531633Y-12694500D01*
X11531632Y-12694500D01*
X11400440Y-12733021D01*
X11285413Y-12806942D01*
X11285409Y-12806946D01*
X11195872Y-12910278D01*
X11195867Y-12910285D01*
X11139070Y-13034654D01*
X11139068Y-13034662D01*
X11119610Y-13170000D01*
X6251763Y-13170000D01*
X6240931Y-13094658D01*
X6191895Y-12987284D01*
X6184132Y-12970285D01*
X6184127Y-12970278D01*
X6094590Y-12866946D01*
X6094586Y-12866942D01*
X5979559Y-12793021D01*
X5848368Y-12754500D01*
X5848367Y-12754500D01*
X5711633Y-12754500D01*
X5711632Y-12754500D01*
X5580440Y-12793021D01*
X5465413Y-12866942D01*
X5465409Y-12866946D01*
X5375872Y-12970278D01*
X5375867Y-12970285D01*
X5319070Y-13094654D01*
X5319068Y-13094662D01*
X5299610Y-13230000D01*
X1106191Y-13230000D01*
X1112287Y-13221610D01*
X1205220Y-13039219D01*
X1268477Y-12844534D01*
X1300500Y-12642352D01*
X1300500Y-12437648D01*
X1273192Y-12265234D01*
X1268477Y-12235465D01*
X1211373Y-12059718D01*
X1208215Y-12050000D01*
X8509610Y-12050000D01*
X8529068Y-12185337D01*
X8529070Y-12185345D01*
X8585867Y-12309714D01*
X8585872Y-12309721D01*
X8675409Y-12413053D01*
X8675413Y-12413057D01*
X8713679Y-12437648D01*
X8790439Y-12486978D01*
X8856036Y-12506239D01*
X8921632Y-12525500D01*
X8921633Y-12525500D01*
X9058367Y-12525500D01*
X9189561Y-12486978D01*
X9304589Y-12413055D01*
X9394130Y-12309718D01*
X9450931Y-12185342D01*
X9470390Y-12050000D01*
X9450931Y-11914658D01*
X9425232Y-11858386D01*
X9394132Y-11790285D01*
X9394127Y-11790278D01*
X9304590Y-11686946D01*
X9304586Y-11686942D01*
X9189559Y-11613021D01*
X9058368Y-11574500D01*
X9058367Y-11574500D01*
X8921633Y-11574500D01*
X8921632Y-11574500D01*
X8790440Y-11613021D01*
X8675413Y-11686942D01*
X8675409Y-11686946D01*
X8585872Y-11790278D01*
X8585867Y-11790285D01*
X8529070Y-11914654D01*
X8529068Y-11914662D01*
X8509610Y-12050000D01*
X1208215Y-12050000D01*
X1205220Y-12040781D01*
X1205218Y-12040778D01*
X1205218Y-12040776D01*
X1171503Y-11974607D01*
X1112287Y-11858390D01*
X1069865Y-11800000D01*
X991971Y-11692786D01*
X847213Y-11548028D01*
X681613Y-11427715D01*
X681612Y-11427714D01*
X681610Y-11427713D01*
X609814Y-11391131D01*
X499223Y-11334781D01*
X304534Y-11271522D01*
X129995Y-11243878D01*
X102352Y-11239500D01*
X-102352Y-11239500D01*
X-126671Y-11243351D01*
X-304535Y-11271522D01*
X-499224Y-11334781D01*
X-681614Y-11427715D01*
X-847214Y-11548028D01*
X-991972Y-11692786D01*
X-1112285Y-11858386D01*
X-1205219Y-12040776D01*
X-1268478Y-12235465D01*
X-1300500Y-12437648D01*
X-15650944Y-12437648D01*
X-15787735Y-12269755D01*
X-15791247Y-12265234D01*
X-16135738Y-11800000D01*
X-14660390Y-11800000D01*
X-14640932Y-11935337D01*
X-14640930Y-11935345D01*
X-14584133Y-12059714D01*
X-14584128Y-12059721D01*
X-14494591Y-12163053D01*
X-14494587Y-12163057D01*
X-14459905Y-12185345D01*
X-14379561Y-12236978D01*
X-14313964Y-12256239D01*
X-14248368Y-12275500D01*
X-14248367Y-12275500D01*
X-14111633Y-12275500D01*
X-13980439Y-12236978D01*
X-13865411Y-12163055D01*
X-13775870Y-12059718D01*
X-13719069Y-11935342D01*
X-13699610Y-11800000D01*
X-13719069Y-11664658D01*
X-13731323Y-11637827D01*
X-13775868Y-11540285D01*
X-13775873Y-11540278D01*
X-13865410Y-11436946D01*
X-13865414Y-11436942D01*
X-13980441Y-11363021D01*
X-14111632Y-11324500D01*
X-14111633Y-11324500D01*
X-14248367Y-11324500D01*
X-14248368Y-11324500D01*
X-14379560Y-11363021D01*
X-14494587Y-11436942D01*
X-14494591Y-11436946D01*
X-14584128Y-11540278D01*
X-14584133Y-11540285D01*
X-14640930Y-11664654D01*
X-14640932Y-11664662D01*
X-14660390Y-11800000D01*
X-16135738Y-11800000D01*
X-16338683Y-11525924D01*
X-16341965Y-11521269D01*
X-16839441Y-10780000D01*
X6909610Y-10780000D01*
X6929068Y-10915337D01*
X6929070Y-10915345D01*
X6985867Y-11039714D01*
X6985872Y-11039721D01*
X7075409Y-11143053D01*
X7075413Y-11143057D01*
X7135979Y-11181979D01*
X7190439Y-11216978D01*
X7256036Y-11236239D01*
X7321632Y-11255500D01*
X7367282Y-11255500D01*
X7434321Y-11275185D01*
X7480076Y-11327989D01*
X7489155Y-11391131D01*
X7489610Y-11391131D01*
X7489610Y-11394292D01*
X7490020Y-11397144D01*
X7489610Y-11399996D01*
X7489610Y-11399999D01*
X7489610Y-11400000D01*
X7493595Y-11427715D01*
X7509068Y-11535337D01*
X7509070Y-11535345D01*
X7565867Y-11659714D01*
X7565872Y-11659721D01*
X7655409Y-11763053D01*
X7655413Y-11763057D01*
X7697782Y-11790285D01*
X7770439Y-11836978D01*
X7836036Y-11856239D01*
X7901632Y-11875500D01*
X7901633Y-11875500D01*
X8038367Y-11875500D01*
X8169561Y-11836978D01*
X8284589Y-11763055D01*
X8374130Y-11659718D01*
X8430931Y-11535342D01*
X8450390Y-11400000D01*
X8430931Y-11264658D01*
X8409156Y-11216978D01*
X8405969Y-11210000D01*
X13049610Y-11210000D01*
X13069068Y-11345337D01*
X13069070Y-11345345D01*
X13125867Y-11469714D01*
X13125872Y-11469721D01*
X13215409Y-11573053D01*
X13215413Y-11573057D01*
X13275979Y-11611979D01*
X13330439Y-11646978D01*
X13373838Y-11659721D01*
X13461632Y-11685500D01*
X13461633Y-11685500D01*
X13598367Y-11685500D01*
X13729561Y-11646978D01*
X13844589Y-11573055D01*
X13934130Y-11469718D01*
X13936488Y-11464556D01*
X13965969Y-11400000D01*
X14719610Y-11400000D01*
X14739068Y-11535337D01*
X14739070Y-11535345D01*
X14795867Y-11659714D01*
X14795872Y-11659721D01*
X14885409Y-11763053D01*
X14885413Y-11763057D01*
X14927782Y-11790285D01*
X15000439Y-11836978D01*
X15066036Y-11856239D01*
X15131632Y-11875500D01*
X15131633Y-11875500D01*
X15268367Y-11875500D01*
X15399561Y-11836978D01*
X15514589Y-11763055D01*
X15604130Y-11659718D01*
X15660931Y-11535342D01*
X15680390Y-11400000D01*
X15660931Y-11264658D01*
X15639156Y-11216978D01*
X15604132Y-11140285D01*
X15604127Y-11140278D01*
X15514590Y-11036946D01*
X15514586Y-11036942D01*
X15399559Y-10963021D01*
X15268368Y-10924500D01*
X15268367Y-10924500D01*
X15131633Y-10924500D01*
X15131632Y-10924500D01*
X15000440Y-10963021D01*
X14885413Y-11036942D01*
X14885409Y-11036946D01*
X14795872Y-11140278D01*
X14795867Y-11140285D01*
X14739070Y-11264654D01*
X14739068Y-11264662D01*
X14719610Y-11400000D01*
X13965969Y-11400000D01*
X13965971Y-11399996D01*
X13990931Y-11345342D01*
X14010390Y-11210000D01*
X13990931Y-11074658D01*
X13973707Y-11036942D01*
X13934132Y-10950285D01*
X13934127Y-10950278D01*
X13844590Y-10846946D01*
X13844586Y-10846942D01*
X13753736Y-10788558D01*
X13729561Y-10773022D01*
X13729560Y-10773021D01*
X13729559Y-10773021D01*
X13598368Y-10734500D01*
X13598367Y-10734500D01*
X13461633Y-10734500D01*
X13461632Y-10734500D01*
X13330440Y-10773021D01*
X13215413Y-10846942D01*
X13215409Y-10846946D01*
X13125872Y-10950278D01*
X13125867Y-10950285D01*
X13069070Y-11074654D01*
X13069068Y-11074662D01*
X13049610Y-11210000D01*
X8405969Y-11210000D01*
X8374132Y-11140285D01*
X8374127Y-11140278D01*
X8284590Y-11036946D01*
X8284586Y-11036942D01*
X8169559Y-10963021D01*
X8038368Y-10924500D01*
X8038367Y-10924500D01*
X7992718Y-10924500D01*
X7925679Y-10904815D01*
X7879924Y-10852011D01*
X7870845Y-10788869D01*
X7870390Y-10788869D01*
X7870390Y-10785707D01*
X7869980Y-10782856D01*
X7870390Y-10780003D01*
X7870390Y-10780000D01*
X7867146Y-10757439D01*
X7850931Y-10644658D01*
X7810889Y-10556978D01*
X7794132Y-10520285D01*
X7794127Y-10520278D01*
X7704590Y-10416946D01*
X7704586Y-10416942D01*
X7589559Y-10343021D01*
X7458368Y-10304500D01*
X7458367Y-10304500D01*
X7321633Y-10304500D01*
X7321632Y-10304500D01*
X7190440Y-10343021D01*
X7075413Y-10416942D01*
X7075409Y-10416946D01*
X6985872Y-10520278D01*
X6985867Y-10520285D01*
X6929070Y-10644654D01*
X6929068Y-10644662D01*
X6909610Y-10780000D01*
X-16839441Y-10780000D01*
X-16854582Y-10757439D01*
X-16857656Y-10752621D01*
X-17334388Y-9965863D01*
X-17337248Y-9960886D01*
X-17354060Y-9930000D01*
X-16380390Y-9930000D01*
X-16360932Y-10065337D01*
X-16360930Y-10065345D01*
X-16304133Y-10189714D01*
X-16304128Y-10189721D01*
X-16214591Y-10293053D01*
X-16214587Y-10293057D01*
X-16179905Y-10315345D01*
X-16099561Y-10366978D01*
X-16056162Y-10379721D01*
X-15968368Y-10405500D01*
X-15968367Y-10405500D01*
X-15831633Y-10405500D01*
X-15700439Y-10366978D01*
X-15591520Y-10296980D01*
X-15585414Y-10293057D01*
X-15585414Y-10293056D01*
X-15585411Y-10293055D01*
X-15495870Y-10189718D01*
X-15491432Y-10180000D01*
X-9990390Y-10180000D01*
X-9970932Y-10315337D01*
X-9970930Y-10315345D01*
X-9914133Y-10439714D01*
X-9914128Y-10439721D01*
X-9824591Y-10543053D01*
X-9824587Y-10543057D01*
X-9764021Y-10581979D01*
X-9709561Y-10616978D01*
X-9663509Y-10630500D01*
X-9578368Y-10655500D01*
X-9578367Y-10655500D01*
X-9441633Y-10655500D01*
X-9310439Y-10616978D01*
X-9195411Y-10543055D01*
X-9105870Y-10439718D01*
X-9049069Y-10315342D01*
X-9029610Y-10180000D01*
X-9031895Y-10164108D01*
X-8052500Y-10164108D01*
X-8052500Y-10295892D01*
X-8039872Y-10343021D01*
X-8018392Y-10423187D01*
X-7985446Y-10480250D01*
X-7952500Y-10537314D01*
X-7859314Y-10630500D01*
X-7745186Y-10696392D01*
X-7617892Y-10730500D01*
X-7617890Y-10730500D01*
X-7486110Y-10730500D01*
X-7486108Y-10730500D01*
X-7358814Y-10696392D01*
X-7244686Y-10630500D01*
X-7151500Y-10537314D01*
X-7085608Y-10423186D01*
X-7051500Y-10295892D01*
X-7051500Y-10164108D01*
X-7063319Y-10120000D01*
X-1810390Y-10120000D01*
X-1790932Y-10255337D01*
X-1790930Y-10255345D01*
X-1734133Y-10379714D01*
X-1734128Y-10379721D01*
X-1644591Y-10483053D01*
X-1644587Y-10483057D01*
X-1586668Y-10520278D01*
X-1529561Y-10556978D01*
X-1463964Y-10576239D01*
X-1398368Y-10595500D01*
X-1398367Y-10595500D01*
X-1261633Y-10595500D01*
X-1130439Y-10556978D01*
X-1015411Y-10483055D01*
X-925870Y-10379718D01*
X-869069Y-10255342D01*
X-849610Y-10120000D01*
X-869069Y-9984658D01*
X-881323Y-9957827D01*
X-925868Y-9860285D01*
X-925873Y-9860278D01*
X-1015410Y-9756946D01*
X-1015414Y-9756942D01*
X-1130441Y-9683021D01*
X-1261632Y-9644500D01*
X-1261633Y-9644500D01*
X-1398367Y-9644500D01*
X-1398368Y-9644500D01*
X-1529560Y-9683021D01*
X-1644587Y-9756942D01*
X-1644591Y-9756946D01*
X-1734128Y-9860278D01*
X-1734133Y-9860285D01*
X-1790930Y-9984654D01*
X-1790932Y-9984662D01*
X-1810390Y-10120000D01*
X-7063319Y-10120000D01*
X-7085608Y-10036814D01*
X-7151500Y-9922686D01*
X-7244686Y-9829500D01*
X-7305041Y-9794654D01*
X-7358813Y-9763608D01*
X-7435643Y-9743022D01*
X-7486108Y-9729500D01*
X-7617892Y-9729500D01*
X-7745188Y-9763608D01*
X-7859314Y-9829500D01*
X-7859317Y-9829502D01*
X-7952498Y-9922683D01*
X-7952500Y-9922686D01*
X-8018392Y-10036812D01*
X-8052500Y-10164108D01*
X-9031895Y-10164108D01*
X-9049069Y-10044658D01*
X-9076472Y-9984654D01*
X-9105868Y-9920285D01*
X-9105873Y-9920278D01*
X-9195410Y-9816946D01*
X-9195414Y-9816942D01*
X-9310441Y-9743021D01*
X-9441632Y-9704500D01*
X-9441633Y-9704500D01*
X-9578367Y-9704500D01*
X-9578368Y-9704500D01*
X-9709560Y-9743021D01*
X-9824587Y-9816942D01*
X-9824591Y-9816946D01*
X-9914128Y-9920278D01*
X-9914133Y-9920285D01*
X-9970930Y-10044654D01*
X-9970932Y-10044662D01*
X-9990390Y-10180000D01*
X-15491432Y-10180000D01*
X-15439069Y-10065342D01*
X-15419610Y-9930000D01*
X-15439069Y-9794658D01*
X-15456293Y-9756942D01*
X-15495868Y-9670285D01*
X-15495873Y-9670278D01*
X-15585410Y-9566946D01*
X-15585414Y-9566942D01*
X-15700441Y-9493021D01*
X-15831632Y-9454500D01*
X-15831633Y-9454500D01*
X-15968367Y-9454500D01*
X-15968368Y-9454500D01*
X-16099560Y-9493021D01*
X-16214587Y-9566942D01*
X-16214591Y-9566946D01*
X-16304128Y-9670278D01*
X-16304133Y-9670285D01*
X-16360930Y-9794654D01*
X-16360932Y-9794662D01*
X-16380390Y-9930000D01*
X-17354060Y-9930000D01*
X-17777025Y-9152966D01*
X-17779652Y-9147863D01*
X-18090635Y-8507657D01*
X2329610Y-8507657D01*
X2349068Y-8642994D01*
X2349070Y-8643002D01*
X2405867Y-8767371D01*
X2405872Y-8767378D01*
X2495409Y-8870710D01*
X2495413Y-8870714D01*
X2555979Y-8909636D01*
X2610439Y-8944635D01*
X2676036Y-8963896D01*
X2741632Y-8983157D01*
X2741633Y-8983157D01*
X2878367Y-8983157D01*
X3009561Y-8944635D01*
X3124589Y-8870712D01*
X3214130Y-8767375D01*
X3270931Y-8642999D01*
X3290390Y-8507657D01*
X3272036Y-8380000D01*
X3979610Y-8380000D01*
X3999068Y-8515337D01*
X3999070Y-8515345D01*
X4055867Y-8639714D01*
X4055872Y-8639721D01*
X4145409Y-8743053D01*
X4145413Y-8743057D01*
X4205979Y-8781979D01*
X4260439Y-8816978D01*
X4326036Y-8836239D01*
X4391632Y-8855500D01*
X4391633Y-8855500D01*
X4528367Y-8855500D01*
X4659561Y-8816978D01*
X4774589Y-8743055D01*
X4864130Y-8639718D01*
X4920931Y-8515342D01*
X4940390Y-8380000D01*
X4920931Y-8244658D01*
X4877702Y-8150000D01*
X14229610Y-8150000D01*
X14249068Y-8285337D01*
X14249070Y-8285345D01*
X14305867Y-8409714D01*
X14305872Y-8409721D01*
X14395409Y-8513053D01*
X14395413Y-8513057D01*
X14455979Y-8551979D01*
X14510439Y-8586978D01*
X14576036Y-8606239D01*
X14641632Y-8625500D01*
X14641633Y-8625500D01*
X14778367Y-8625500D01*
X14909561Y-8586978D01*
X15024589Y-8513055D01*
X15114130Y-8409718D01*
X15170931Y-8285342D01*
X15190390Y-8150000D01*
X15170931Y-8014658D01*
X15138216Y-7943022D01*
X15114132Y-7890285D01*
X15114127Y-7890278D01*
X15024590Y-7786946D01*
X15024586Y-7786942D01*
X14933736Y-7728558D01*
X14909561Y-7713022D01*
X14909560Y-7713021D01*
X14909559Y-7713021D01*
X14778368Y-7674500D01*
X14778367Y-7674500D01*
X14641633Y-7674500D01*
X14641632Y-7674500D01*
X14510440Y-7713021D01*
X14395413Y-7786942D01*
X14395409Y-7786946D01*
X14305872Y-7890278D01*
X14305867Y-7890285D01*
X14249070Y-8014654D01*
X14249068Y-8014662D01*
X14229610Y-8150000D01*
X4877702Y-8150000D01*
X4864132Y-8120285D01*
X4864127Y-8120278D01*
X4774590Y-8016946D01*
X4774586Y-8016942D01*
X4659559Y-7943021D01*
X4528368Y-7904500D01*
X4528367Y-7904500D01*
X4391633Y-7904500D01*
X4391632Y-7904500D01*
X4260440Y-7943021D01*
X4145413Y-8016942D01*
X4145409Y-8016946D01*
X4055872Y-8120278D01*
X4055867Y-8120285D01*
X3999070Y-8244654D01*
X3999068Y-8244662D01*
X3979610Y-8380000D01*
X3272036Y-8380000D01*
X3270931Y-8372315D01*
X3231213Y-8285345D01*
X3214132Y-8247942D01*
X3214127Y-8247935D01*
X3124590Y-8144603D01*
X3124586Y-8144599D01*
X3009559Y-8070678D01*
X2878368Y-8032157D01*
X2878367Y-8032157D01*
X2741633Y-8032157D01*
X2741632Y-8032157D01*
X2610440Y-8070678D01*
X2495413Y-8144599D01*
X2495409Y-8144603D01*
X2405872Y-8247935D01*
X2405867Y-8247942D01*
X2349070Y-8372311D01*
X2349068Y-8372319D01*
X2329610Y-8507657D01*
X-18090635Y-8507657D01*
X-18181593Y-8320405D01*
X-18183976Y-8315195D01*
X-18214288Y-8244662D01*
X-18499926Y-7580000D01*
X-13840390Y-7580000D01*
X-13820932Y-7715337D01*
X-13820930Y-7715345D01*
X-13764133Y-7839714D01*
X-13764128Y-7839721D01*
X-13674591Y-7943053D01*
X-13674587Y-7943057D01*
X-13614021Y-7981979D01*
X-13559561Y-8016978D01*
X-13507866Y-8032157D01*
X-13428368Y-8055500D01*
X-13428367Y-8055500D01*
X-13291633Y-8055500D01*
X-13160439Y-8016978D01*
X-13045414Y-7943057D01*
X-13037949Y-7938260D01*
X-13036018Y-7941265D01*
X-12988033Y-7919295D01*
X-12918865Y-7929171D01*
X-12866016Y-7974875D01*
X-12857472Y-7990504D01*
X-12844131Y-8019716D01*
X-12844128Y-8019721D01*
X-12754591Y-8123053D01*
X-12754587Y-8123057D01*
X-12694021Y-8161979D01*
X-12639561Y-8196978D01*
X-12573964Y-8216239D01*
X-12508368Y-8235500D01*
X-12508367Y-8235500D01*
X-12371633Y-8235500D01*
X-12240439Y-8196978D01*
X-12125411Y-8123055D01*
X-12035870Y-8019718D01*
X-12034603Y-8016945D01*
X-12000844Y-7943022D01*
X-11979069Y-7895342D01*
X-11959610Y-7760000D01*
X-11979069Y-7624658D01*
X-12000168Y-7578457D01*
X-12035868Y-7500285D01*
X-12035873Y-7500278D01*
X-12125410Y-7396946D01*
X-12125414Y-7396942D01*
X-12240441Y-7323021D01*
X-12371632Y-7284500D01*
X-12371633Y-7284500D01*
X-12508367Y-7284500D01*
X-12508368Y-7284500D01*
X-12639560Y-7323021D01*
X-12762051Y-7401740D01*
X-12763968Y-7398758D01*
X-12812171Y-7420733D01*
X-12881323Y-7410743D01*
X-12934096Y-7364952D01*
X-12942526Y-7349502D01*
X-12955870Y-7320282D01*
X-13045411Y-7216945D01*
X-13045414Y-7216942D01*
X-13160441Y-7143021D01*
X-13291632Y-7104500D01*
X-13291633Y-7104500D01*
X-13428367Y-7104500D01*
X-13428368Y-7104500D01*
X-13559560Y-7143021D01*
X-13674587Y-7216942D01*
X-13674591Y-7216946D01*
X-13764128Y-7320278D01*
X-13764133Y-7320285D01*
X-13820930Y-7444654D01*
X-13820932Y-7444662D01*
X-13840390Y-7580000D01*
X-18499926Y-7580000D01*
X-18547174Y-7470058D01*
X-18549318Y-7464734D01*
X-18873036Y-6603632D01*
X-18874902Y-6598297D01*
X-18939143Y-6400000D01*
X12719610Y-6400000D01*
X12739068Y-6535337D01*
X12739070Y-6535345D01*
X12795867Y-6659714D01*
X12795872Y-6659721D01*
X12885409Y-6763053D01*
X12885413Y-6763057D01*
X12925873Y-6789058D01*
X13000439Y-6836978D01*
X13066036Y-6856239D01*
X13131632Y-6875500D01*
X13131633Y-6875500D01*
X13268367Y-6875500D01*
X13399561Y-6836978D01*
X13514589Y-6763055D01*
X13604130Y-6659718D01*
X13660931Y-6535342D01*
X13680390Y-6400000D01*
X13660931Y-6264658D01*
X13648677Y-6237827D01*
X13604132Y-6140285D01*
X13604130Y-6140283D01*
X13604130Y-6140282D01*
X13565473Y-6095669D01*
X13536449Y-6032115D01*
X13546393Y-5962957D01*
X13592147Y-5910153D01*
X13659187Y-5890468D01*
X13688857Y-5894070D01*
X13714944Y-5900500D01*
X13714946Y-5900500D01*
X13885056Y-5900500D01*
X14050225Y-5859790D01*
X14186528Y-5788252D01*
X14200849Y-5780736D01*
X14200850Y-5780734D01*
X14200852Y-5780734D01*
X14328183Y-5667929D01*
X14424818Y-5527930D01*
X14485140Y-5368872D01*
X14505645Y-5200000D01*
X14485140Y-5031128D01*
X14424818Y-4872070D01*
X14400573Y-4836946D01*
X14349546Y-4763021D01*
X14328183Y-4732071D01*
X14233316Y-4648026D01*
X14200849Y-4619263D01*
X14050226Y-4540210D01*
X13885056Y-4499500D01*
X13714944Y-4499500D01*
X13549773Y-4540210D01*
X13399150Y-4619263D01*
X13271816Y-4732072D01*
X13175182Y-4872068D01*
X13114860Y-5031125D01*
X13114859Y-5031130D01*
X13094355Y-5200000D01*
X13114859Y-5368869D01*
X13114860Y-5368874D01*
X13175182Y-5527931D01*
X13237475Y-5618177D01*
X13271817Y-5667929D01*
X13316692Y-5707685D01*
X13353819Y-5766874D01*
X13353051Y-5836739D01*
X13314634Y-5895099D01*
X13250763Y-5923424D01*
X13234465Y-5924500D01*
X13131632Y-5924500D01*
X13000440Y-5963021D01*
X12885413Y-6036942D01*
X12885409Y-6036946D01*
X12795872Y-6140278D01*
X12795867Y-6140285D01*
X12739070Y-6264654D01*
X12739068Y-6264662D01*
X12719610Y-6400000D01*
X-18939143Y-6400000D01*
X-19158429Y-5723117D01*
X-19160052Y-5717679D01*
X-19222329Y-5490000D01*
X-14400390Y-5490000D01*
X-14380932Y-5625337D01*
X-14380930Y-5625345D01*
X-14324133Y-5749714D01*
X-14324128Y-5749721D01*
X-14234591Y-5853053D01*
X-14234587Y-5853057D01*
X-14176372Y-5890468D01*
X-14119561Y-5926978D01*
X-14053964Y-5946239D01*
X-13988368Y-5965500D01*
X-13988367Y-5965500D01*
X-13851633Y-5965500D01*
X-13720439Y-5926978D01*
X-13605411Y-5853055D01*
X-13515870Y-5749718D01*
X-13459069Y-5625342D01*
X-13439610Y-5490000D01*
X-13459069Y-5354658D01*
X-13476277Y-5316978D01*
X-13515868Y-5230285D01*
X-13515873Y-5230278D01*
X-13542109Y-5200000D01*
X9719610Y-5200000D01*
X9739068Y-5335337D01*
X9739070Y-5335345D01*
X9795867Y-5459714D01*
X9795872Y-5459721D01*
X9885409Y-5563053D01*
X9885413Y-5563057D01*
X9945979Y-5601979D01*
X10000439Y-5636978D01*
X10066036Y-5656239D01*
X10131632Y-5675500D01*
X10131633Y-5675500D01*
X10268367Y-5675500D01*
X10399561Y-5636978D01*
X10514589Y-5563055D01*
X10604130Y-5459718D01*
X10660931Y-5335342D01*
X10680390Y-5200000D01*
X10660931Y-5064658D01*
X10645617Y-5031125D01*
X10604132Y-4940285D01*
X10604127Y-4940278D01*
X10514590Y-4836946D01*
X10514586Y-4836942D01*
X10399559Y-4763021D01*
X10268368Y-4724500D01*
X10268367Y-4724500D01*
X10131633Y-4724500D01*
X10131632Y-4724500D01*
X10000440Y-4763021D01*
X9885413Y-4836942D01*
X9885409Y-4836946D01*
X9795872Y-4940278D01*
X9795867Y-4940285D01*
X9739070Y-5064654D01*
X9739068Y-5064662D01*
X9719610Y-5200000D01*
X-13542109Y-5200000D01*
X-13605410Y-5126946D01*
X-13605414Y-5126942D01*
X-13720441Y-5053021D01*
X-13851632Y-5014500D01*
X-13851633Y-5014500D01*
X-13988367Y-5014500D01*
X-13988368Y-5014500D01*
X-14119560Y-5053021D01*
X-14234587Y-5126942D01*
X-14234591Y-5126946D01*
X-14324128Y-5230278D01*
X-14324133Y-5230285D01*
X-14380930Y-5354654D01*
X-14380932Y-5354662D01*
X-14400390Y-5490000D01*
X-19222329Y-5490000D01*
X-19389181Y-4880000D01*
X-15510390Y-4880000D01*
X-15490932Y-5015337D01*
X-15490930Y-5015345D01*
X-15434133Y-5139714D01*
X-15434128Y-5139721D01*
X-15344591Y-5243053D01*
X-15344587Y-5243057D01*
X-15284021Y-5281979D01*
X-15229561Y-5316978D01*
X-15167036Y-5335337D01*
X-15098368Y-5355500D01*
X-15098367Y-5355500D01*
X-14961633Y-5355500D01*
X-14830439Y-5316978D01*
X-14715411Y-5243055D01*
X-14625870Y-5139718D01*
X-14569069Y-5015342D01*
X-14549610Y-4880000D01*
X-14569069Y-4744658D01*
X-14581323Y-4717827D01*
X-14625868Y-4620285D01*
X-14625873Y-4620278D01*
X-14715410Y-4516946D01*
X-14715414Y-4516942D01*
X-14830441Y-4443021D01*
X-14961632Y-4404500D01*
X-14961633Y-4404500D01*
X-15098367Y-4404500D01*
X-15098368Y-4404500D01*
X-15229560Y-4443021D01*
X-15344587Y-4516942D01*
X-15344591Y-4516946D01*
X-15434128Y-4620278D01*
X-15434133Y-4620285D01*
X-15490930Y-4744654D01*
X-15490932Y-4744662D01*
X-15510390Y-4880000D01*
X-19389181Y-4880000D01*
X-19402858Y-4829999D01*
X-19404076Y-4825166D01*
X-19507418Y-4376581D01*
X-19514314Y-4346649D01*
X-19515456Y-4345025D01*
X-19517919Y-4336857D01*
X-19531994Y-4283610D01*
X-19611733Y-4108645D01*
X-19723404Y-3952119D01*
X-19729548Y-3946291D01*
X-19862900Y-3819790D01*
X-19862909Y-3819782D01*
X-20025095Y-3716520D01*
X-20025096Y-3716519D01*
X-20157515Y-3664411D01*
X-20204019Y-3646112D01*
X-20204021Y-3646111D01*
X-20204025Y-3646110D01*
X-20393088Y-3611155D01*
X-20393092Y-3611155D01*
X-20470001Y-3611865D01*
X-20585369Y-3612932D01*
X-20679807Y-3629966D01*
X-20680233Y-3630042D01*
X-22658316Y-3979701D01*
X-22661707Y-3980252D01*
X-22700805Y-3986051D01*
X-22747989Y-3993049D01*
X-22769759Y-3994339D01*
X-22945987Y-3989250D01*
X-22970617Y-3986051D01*
X-23140809Y-3946291D01*
X-23164307Y-3938247D01*
X-23323159Y-3865369D01*
X-23344582Y-3852804D01*
X-23485723Y-3749731D01*
X-23504210Y-3733151D01*
X-23621990Y-3604007D01*
X-23624967Y-3600000D01*
X11719610Y-3600000D01*
X11739068Y-3735337D01*
X11739070Y-3735345D01*
X11795867Y-3859714D01*
X11795872Y-3859721D01*
X11885409Y-3963053D01*
X11885413Y-3963057D01*
X11945979Y-4001979D01*
X12000439Y-4036978D01*
X12066036Y-4056239D01*
X12131632Y-4075500D01*
X12131633Y-4075500D01*
X12268367Y-4075500D01*
X12399561Y-4036978D01*
X12514589Y-3963055D01*
X12604130Y-3859718D01*
X12660931Y-3735342D01*
X12680390Y-3600000D01*
X12660931Y-3464658D01*
X12637398Y-3413128D01*
X12604132Y-3340285D01*
X12604127Y-3340278D01*
X12514590Y-3236946D01*
X12514586Y-3236942D01*
X12399559Y-3163021D01*
X12268368Y-3124500D01*
X12268367Y-3124500D01*
X12131633Y-3124500D01*
X12131632Y-3124500D01*
X12000440Y-3163021D01*
X11885413Y-3236942D01*
X11885409Y-3236946D01*
X11795872Y-3340278D01*
X11795867Y-3340285D01*
X11739070Y-3464654D01*
X11739068Y-3464662D01*
X11719610Y-3600000D01*
X-23624967Y-3600000D01*
X-23636794Y-3584084D01*
X-23727255Y-3432750D01*
X-23736752Y-3413128D01*
X-23763258Y-3343273D01*
X-23770211Y-3315846D01*
X-23781036Y-3235498D01*
X-23835883Y-2828416D01*
X-23836405Y-2823909D01*
X-23871425Y-2463401D01*
X13054586Y-2463401D01*
X13074044Y-2598738D01*
X13074046Y-2598746D01*
X13130843Y-2723115D01*
X13130848Y-2723122D01*
X13220385Y-2826454D01*
X13220389Y-2826458D01*
X13280955Y-2865380D01*
X13335415Y-2900379D01*
X13401012Y-2919640D01*
X13466608Y-2938901D01*
X13466609Y-2938901D01*
X13603343Y-2938901D01*
X13734537Y-2900379D01*
X13849565Y-2826456D01*
X13939106Y-2723119D01*
X13995907Y-2598743D01*
X14015366Y-2463401D01*
X13995907Y-2328059D01*
X13974699Y-2281620D01*
X13939108Y-2203686D01*
X13939103Y-2203679D01*
X13849566Y-2100347D01*
X13849562Y-2100343D01*
X13734535Y-2026422D01*
X13603344Y-1987901D01*
X13603343Y-1987901D01*
X13466609Y-1987901D01*
X13466608Y-1987901D01*
X13335416Y-2026422D01*
X13220389Y-2100343D01*
X13220385Y-2100347D01*
X13130848Y-2203679D01*
X13130843Y-2203686D01*
X13074046Y-2328055D01*
X13074044Y-2328063D01*
X13054586Y-2463401D01*
X-23871425Y-2463401D01*
X-23934230Y-1816869D01*
X-23934620Y-1811721D01*
X-23935259Y-1800000D01*
X15649610Y-1800000D01*
X15669068Y-1935337D01*
X15669070Y-1935345D01*
X15725867Y-2059714D01*
X15725872Y-2059721D01*
X15815409Y-2163053D01*
X15815413Y-2163057D01*
X15930441Y-2236979D01*
X15942781Y-2240602D01*
X16001561Y-2278374D01*
X16030588Y-2341928D01*
X16020647Y-2411087D01*
X16001565Y-2440781D01*
X15950013Y-2500276D01*
X15950008Y-2500283D01*
X15893211Y-2624652D01*
X15893209Y-2624660D01*
X15873751Y-2759998D01*
X15893209Y-2895335D01*
X15893211Y-2895343D01*
X15950008Y-3019712D01*
X15950013Y-3019719D01*
X16039550Y-3123051D01*
X16039554Y-3123055D01*
X16100120Y-3161977D01*
X16154580Y-3196976D01*
X16220177Y-3216237D01*
X16285773Y-3235498D01*
X16285774Y-3235498D01*
X16422508Y-3235498D01*
X16553702Y-3196976D01*
X16668730Y-3123053D01*
X16758271Y-3019716D01*
X16815072Y-2895340D01*
X16834531Y-2759998D01*
X16815072Y-2624656D01*
X16803811Y-2600000D01*
X18894355Y-2600000D01*
X18914859Y-2768867D01*
X18914860Y-2768874D01*
X18975182Y-2927931D01*
X19037475Y-3018177D01*
X19071817Y-3067929D01*
X19134042Y-3123055D01*
X19199150Y-3180736D01*
X19349773Y-3259789D01*
X19349775Y-3259790D01*
X19514944Y-3300500D01*
X19685056Y-3300500D01*
X19850225Y-3259790D01*
X19969906Y-3196976D01*
X20000849Y-3180736D01*
X20000850Y-3180734D01*
X20000852Y-3180734D01*
X20128183Y-3067929D01*
X20224818Y-2927930D01*
X20285140Y-2768872D01*
X20305645Y-2600000D01*
X20285140Y-2431128D01*
X20272175Y-2396943D01*
X20246053Y-2328063D01*
X20224818Y-2272070D01*
X20128183Y-2132071D01*
X20008931Y-2026423D01*
X20000849Y-2019263D01*
X19850226Y-1940210D01*
X19685056Y-1899500D01*
X19514944Y-1899500D01*
X19349773Y-1940210D01*
X19199150Y-2019263D01*
X19071816Y-2132072D01*
X18975182Y-2272068D01*
X18914860Y-2431125D01*
X18914859Y-2431130D01*
X18894355Y-2600000D01*
X16803811Y-2600000D01*
X16802818Y-2597825D01*
X16758273Y-2500283D01*
X16758268Y-2500276D01*
X16668731Y-2396944D01*
X16668727Y-2396940D01*
X16553699Y-2323018D01*
X16541355Y-2319394D01*
X16482577Y-2281620D01*
X16453551Y-2218065D01*
X16463494Y-2148906D01*
X16482573Y-2119218D01*
X16534130Y-2059718D01*
X16590931Y-1935342D01*
X16610390Y-1800000D01*
X16590931Y-1664658D01*
X16560099Y-1597147D01*
X16550156Y-1527992D01*
X16576393Y-1470540D01*
X16572040Y-1473338D01*
X16502170Y-1473338D01*
X16452463Y-1441395D01*
X16451289Y-1442751D01*
X16444586Y-1436942D01*
X16353736Y-1378558D01*
X16329561Y-1363022D01*
X16329560Y-1363021D01*
X16329559Y-1363021D01*
X16198368Y-1324500D01*
X16198367Y-1324500D01*
X16061633Y-1324500D01*
X16061632Y-1324500D01*
X15930440Y-1363021D01*
X15815413Y-1436942D01*
X15815409Y-1436946D01*
X15725872Y-1540278D01*
X15725867Y-1540285D01*
X15669070Y-1664654D01*
X15669068Y-1664662D01*
X15649610Y-1800000D01*
X-23935259Y-1800000D01*
X-23962526Y-1300000D01*
X-17620390Y-1300000D01*
X-17600932Y-1435337D01*
X-17600930Y-1435345D01*
X-17544133Y-1559714D01*
X-17544128Y-1559721D01*
X-17454591Y-1663053D01*
X-17454587Y-1663057D01*
X-17394021Y-1701979D01*
X-17339561Y-1736978D01*
X-17273964Y-1756239D01*
X-17208368Y-1775500D01*
X-17208367Y-1775500D01*
X-17071633Y-1775500D01*
X-16940439Y-1736978D01*
X-16825411Y-1663055D01*
X-16735870Y-1559718D01*
X-16679069Y-1435342D01*
X-16659610Y-1300000D01*
X-16679069Y-1164658D01*
X-16691323Y-1137827D01*
X-16735868Y-1040285D01*
X-16735873Y-1040278D01*
X-16825410Y-936946D01*
X-16825414Y-936942D01*
X-16940441Y-863021D01*
X-17071632Y-824500D01*
X-17071633Y-824500D01*
X-17208367Y-824500D01*
X-17208368Y-824500D01*
X-17339560Y-863021D01*
X-17454587Y-936942D01*
X-17454591Y-936946D01*
X-17544128Y-1040278D01*
X-17544133Y-1040285D01*
X-17600930Y-1164654D01*
X-17600932Y-1164662D01*
X-17620390Y-1300000D01*
X-23962526Y-1300000D01*
X-23989696Y-801780D01*
X-23989870Y-796541D01*
X-23998677Y-70000D01*
X-15630390Y-70000D01*
X-15610932Y-205337D01*
X-15610930Y-205345D01*
X-15554133Y-329714D01*
X-15554128Y-329721D01*
X-15464591Y-433053D01*
X-15464587Y-433057D01*
X-15407102Y-469999D01*
X-15349561Y-506978D01*
X-15283964Y-526239D01*
X-15218368Y-545500D01*
X-15218367Y-545500D01*
X-15081633Y-545500D01*
X-14950439Y-506978D01*
X-14835411Y-433055D01*
X-14745870Y-329718D01*
X-14689069Y-205342D01*
X-14688301Y-200000D01*
X-14305645Y-200000D01*
X-14285141Y-368865D01*
X-14285140Y-368874D01*
X-14224818Y-527931D01*
X-14171384Y-605342D01*
X-14128183Y-667929D01*
X-14022495Y-761560D01*
X-14000850Y-780736D01*
X-13850227Y-859789D01*
X-13850225Y-859790D01*
X-13685056Y-900500D01*
X-13514944Y-900500D01*
X-13349775Y-859790D01*
X-13229265Y-796541D01*
X-13199151Y-780736D01*
X-13199150Y-780734D01*
X-13199148Y-780734D01*
X-13071817Y-667929D01*
X-12975182Y-527930D01*
X-12914860Y-368872D01*
X-12894355Y-200000D01*
X-12914860Y-31128D01*
X-12926665Y0D01*
X8719610Y0D01*
X8739068Y-135337D01*
X8739070Y-135345D01*
X8795867Y-259714D01*
X8795872Y-259721D01*
X8885409Y-363053D01*
X8885413Y-363057D01*
X8942899Y-400000D01*
X9000439Y-436978D01*
X9066036Y-456239D01*
X9131632Y-475500D01*
X9131633Y-475500D01*
X9268367Y-475500D01*
X9399561Y-436978D01*
X9457101Y-400000D01*
X13919610Y-400000D01*
X13939068Y-535337D01*
X13939070Y-535345D01*
X13995867Y-659714D01*
X13995872Y-659721D01*
X14085409Y-763053D01*
X14085413Y-763057D01*
X14137517Y-796541D01*
X14200439Y-836978D01*
X14211702Y-840285D01*
X14331632Y-875500D01*
X14331633Y-875500D01*
X14468367Y-875500D01*
X14599561Y-836978D01*
X14714589Y-763055D01*
X14804130Y-659718D01*
X14860931Y-535342D01*
X14870326Y-470000D01*
X15799610Y-470000D01*
X15819068Y-605337D01*
X15819070Y-605345D01*
X15875867Y-729714D01*
X15875872Y-729721D01*
X15965409Y-833053D01*
X15965413Y-833057D01*
X16012041Y-863022D01*
X16080439Y-906978D01*
X16111254Y-916026D01*
X16211632Y-945500D01*
X16211633Y-945500D01*
X16348367Y-945500D01*
X16448746Y-916026D01*
X16518613Y-916026D01*
X16577391Y-953800D01*
X16606417Y-1017355D01*
X16606417Y-1052648D01*
X16599610Y-1099997D01*
X16599610Y-1099999D01*
X16619068Y-1235337D01*
X16619069Y-1235342D01*
X16649899Y-1302849D01*
X16659843Y-1372008D01*
X16633606Y-1429457D01*
X16637958Y-1426661D01*
X16707828Y-1426661D01*
X16757536Y-1458604D01*
X16758711Y-1457249D01*
X16765413Y-1463057D01*
X16825979Y-1501979D01*
X16880439Y-1536978D01*
X16891702Y-1540285D01*
X17011632Y-1575500D01*
X17011633Y-1575500D01*
X17148367Y-1575500D01*
X17279561Y-1536978D01*
X17394589Y-1463055D01*
X17484130Y-1359718D01*
X17540931Y-1235342D01*
X17560390Y-1100000D01*
X17540931Y-964658D01*
X17528273Y-936942D01*
X17484132Y-840285D01*
X17484127Y-840278D01*
X17394590Y-736946D01*
X17394586Y-736942D01*
X17303736Y-678558D01*
X17279561Y-663022D01*
X17279560Y-663021D01*
X17279559Y-663021D01*
X17148368Y-624500D01*
X17148367Y-624500D01*
X17011633Y-624500D01*
X17011630Y-624500D01*
X16911254Y-653973D01*
X16841385Y-653973D01*
X16782607Y-616198D01*
X16753582Y-552643D01*
X16753582Y-517349D01*
X16755073Y-506978D01*
X16760390Y-470000D01*
X16740931Y-334658D01*
X16686309Y-215053D01*
X16684132Y-210285D01*
X16684127Y-210278D01*
X16594590Y-106946D01*
X16594586Y-106942D01*
X16485665Y-36945D01*
X16479561Y-33022D01*
X16479560Y-33021D01*
X16479559Y-33021D01*
X16348368Y5500D01*
X16348367Y5500D01*
X16211633Y5500D01*
X16211632Y5500D01*
X16080440Y-33021D01*
X15965413Y-106942D01*
X15965409Y-106946D01*
X15875872Y-210278D01*
X15875867Y-210285D01*
X15819070Y-334654D01*
X15819068Y-334662D01*
X15799610Y-470000D01*
X14870326Y-470000D01*
X14880390Y-400000D01*
X14860931Y-264658D01*
X14836096Y-210278D01*
X14804132Y-140285D01*
X14804127Y-140278D01*
X14714590Y-36946D01*
X14714586Y-36942D01*
X14599559Y36979D01*
X14468368Y75500D01*
X14468367Y75500D01*
X14331633Y75500D01*
X14331632Y75500D01*
X14200440Y36979D01*
X14085413Y-36942D01*
X14085409Y-36946D01*
X13995872Y-140278D01*
X13995867Y-140285D01*
X13939070Y-264654D01*
X13939068Y-264662D01*
X13919610Y-400000D01*
X9457101Y-400000D01*
X9514589Y-363055D01*
X9604130Y-259718D01*
X9660931Y-135342D01*
X9680390Y0D01*
X9663074Y120436D01*
X9667037Y148000D01*
X12082110Y148000D01*
X12101568Y12663D01*
X12101570Y12655D01*
X12158367Y-111714D01*
X12158372Y-111721D01*
X12247909Y-215053D01*
X12247913Y-215057D01*
X12308479Y-253979D01*
X12362939Y-288978D01*
X12428536Y-308239D01*
X12494132Y-327500D01*
X12494133Y-327500D01*
X12630867Y-327500D01*
X12762061Y-288978D01*
X12877089Y-215055D01*
X12966630Y-111718D01*
X13023431Y12658D01*
X13042890Y148000D01*
X13023431Y283342D01*
X12987026Y363058D01*
X12966632Y407715D01*
X12966627Y407722D01*
X12877090Y511054D01*
X12877086Y511058D01*
X12784929Y570282D01*
X12762061Y584978D01*
X12762060Y584979D01*
X12762059Y584979D01*
X12630868Y623500D01*
X12630867Y623500D01*
X12494133Y623500D01*
X12494132Y623500D01*
X12362940Y584979D01*
X12247913Y511058D01*
X12247909Y511054D01*
X12158372Y407722D01*
X12158367Y407715D01*
X12101570Y283346D01*
X12101568Y283338D01*
X12082110Y148000D01*
X9667037Y148000D01*
X9673018Y189593D01*
X9718773Y242397D01*
X9785812Y262082D01*
X9820747Y257059D01*
X9931632Y224500D01*
X9931633Y224500D01*
X10068367Y224500D01*
X10199561Y263022D01*
X10314589Y336945D01*
X10404130Y440282D01*
X10460931Y564658D01*
X10480390Y700000D01*
X10460931Y835342D01*
X10447540Y864663D01*
X10404132Y959715D01*
X10404127Y959722D01*
X10314590Y1063054D01*
X10314586Y1063058D01*
X10202113Y1135338D01*
X10199561Y1136978D01*
X10199560Y1136979D01*
X10199559Y1136979D01*
X10068368Y1175500D01*
X10068367Y1175500D01*
X9931633Y1175500D01*
X9931632Y1175500D01*
X9800440Y1136979D01*
X9685413Y1063058D01*
X9685409Y1063054D01*
X9595872Y959722D01*
X9595867Y959715D01*
X9539070Y835346D01*
X9539068Y835338D01*
X9519610Y700000D01*
X9536925Y579565D01*
X9526981Y510407D01*
X9481226Y457603D01*
X9414186Y437919D01*
X9379253Y442942D01*
X9268369Y475500D01*
X9268367Y475500D01*
X9131633Y475500D01*
X9131632Y475500D01*
X9000440Y436979D01*
X8885413Y363058D01*
X8885409Y363054D01*
X8795872Y259722D01*
X8795867Y259715D01*
X8739070Y135346D01*
X8739068Y135338D01*
X8719610Y0D01*
X-12926665Y0D01*
X-12931468Y12663D01*
X-12975183Y127932D01*
X-13017829Y189715D01*
X-13071817Y267929D01*
X-13179196Y363058D01*
X-13199151Y380737D01*
X-13349774Y459790D01*
X-13514944Y500500D01*
X-13685056Y500500D01*
X-13850227Y459790D01*
X-14000850Y380737D01*
X-14128184Y267928D01*
X-14224818Y127932D01*
X-14285140Y-31125D01*
X-14285141Y-31130D01*
X-14305645Y-200000D01*
X-14688301Y-200000D01*
X-14669610Y-70000D01*
X-14689069Y65342D01*
X-14726818Y148000D01*
X-14745868Y189715D01*
X-14745873Y189722D01*
X-14835410Y293054D01*
X-14835414Y293058D01*
X-14944335Y363055D01*
X-14950439Y366978D01*
X-14950440Y366979D01*
X-14950441Y366979D01*
X-15081632Y405500D01*
X-15081633Y405500D01*
X-15218367Y405500D01*
X-15218368Y405500D01*
X-15349560Y366979D01*
X-15464587Y293058D01*
X-15464591Y293054D01*
X-15554128Y189722D01*
X-15554133Y189715D01*
X-15610930Y65346D01*
X-15610932Y65338D01*
X-15630390Y-70000D01*
X-23998677Y-70000D01*
X-24002129Y214823D01*
X-24002082Y220007D01*
X-23978491Y1000000D01*
X-6290390Y1000000D01*
X-6270932Y864663D01*
X-6270930Y864655D01*
X-6214133Y740286D01*
X-6214128Y740279D01*
X-6124591Y636947D01*
X-6124587Y636943D01*
X-6064021Y598021D01*
X-6009561Y563022D01*
X-5943964Y543761D01*
X-5878368Y524500D01*
X-5878367Y524500D01*
X-5741633Y524500D01*
X-5610439Y563022D01*
X-5495411Y636945D01*
X-5405870Y740282D01*
X-5364897Y830000D01*
X-1720390Y830000D01*
X-1700932Y694663D01*
X-1700930Y694655D01*
X-1644133Y570286D01*
X-1644128Y570279D01*
X-1554591Y466947D01*
X-1554587Y466943D01*
X-1507959Y436978D01*
X-1439561Y393022D01*
X-1397722Y380737D01*
X-1308368Y354500D01*
X-1308367Y354500D01*
X-1171633Y354500D01*
X-1040439Y393022D01*
X-925411Y466945D01*
X-835870Y570282D01*
X-831630Y579565D01*
X-805425Y636947D01*
X-779069Y694658D01*
X-759610Y830000D01*
X-779069Y965342D01*
X-794897Y1000000D01*
X-835868Y1089715D01*
X-835873Y1089722D01*
X-925410Y1193054D01*
X-925414Y1193058D01*
X-1014020Y1250000D01*
X15509610Y1250000D01*
X15529068Y1114663D01*
X15529070Y1114655D01*
X15585867Y990286D01*
X15585872Y990279D01*
X15675409Y886947D01*
X15675413Y886943D01*
X15710095Y864655D01*
X15790439Y813022D01*
X15856036Y793761D01*
X15921632Y774500D01*
X15921633Y774500D01*
X16058367Y774500D01*
X16189561Y813022D01*
X16304589Y886945D01*
X16394130Y990282D01*
X16450931Y1114658D01*
X16470390Y1250000D01*
X16450931Y1385342D01*
X16438677Y1412173D01*
X16394132Y1509715D01*
X16394127Y1509722D01*
X16304590Y1613054D01*
X16304586Y1613058D01*
X16189559Y1686979D01*
X16058368Y1725500D01*
X16058367Y1725500D01*
X15921633Y1725500D01*
X15921632Y1725500D01*
X15790440Y1686979D01*
X15675413Y1613058D01*
X15675409Y1613054D01*
X15585872Y1509722D01*
X15585867Y1509715D01*
X15529070Y1385346D01*
X15529068Y1385338D01*
X15509610Y1250000D01*
X-1014020Y1250000D01*
X-1016264Y1251442D01*
X-1040439Y1266978D01*
X-1040440Y1266979D01*
X-1040441Y1266979D01*
X-1171632Y1305500D01*
X-1171633Y1305500D01*
X-1308367Y1305500D01*
X-1308368Y1305500D01*
X-1439560Y1266979D01*
X-1554587Y1193058D01*
X-1554591Y1193054D01*
X-1644128Y1089722D01*
X-1644133Y1089715D01*
X-1700930Y965346D01*
X-1700932Y965338D01*
X-1720390Y830000D01*
X-5364897Y830000D01*
X-5349069Y864658D01*
X-5329610Y1000000D01*
X-5349069Y1135342D01*
X-5375427Y1193058D01*
X-5405868Y1259715D01*
X-5405873Y1259722D01*
X-5495410Y1363054D01*
X-5495414Y1363058D01*
X-5610441Y1436979D01*
X-5741632Y1475500D01*
X-5741633Y1475500D01*
X-5878367Y1475500D01*
X-5878368Y1475500D01*
X-6009560Y1436979D01*
X-6124587Y1363058D01*
X-6124591Y1363054D01*
X-6214128Y1259722D01*
X-6214133Y1259715D01*
X-6270930Y1135346D01*
X-6270932Y1135338D01*
X-6290390Y1000000D01*
X-23978491Y1000000D01*
X-23971504Y1230993D01*
X-23971237Y1236175D01*
X-23936052Y1720000D01*
X-10010390Y1720000D01*
X-9990932Y1584663D01*
X-9990930Y1584655D01*
X-9934133Y1460286D01*
X-9934128Y1460279D01*
X-9844591Y1356947D01*
X-9844587Y1356943D01*
X-9807364Y1333022D01*
X-9729561Y1283022D01*
X-9674920Y1266978D01*
X-9598368Y1244500D01*
X-9598367Y1244500D01*
X-9461633Y1244500D01*
X-9330439Y1283022D01*
X-9215411Y1356945D01*
X-9125870Y1460282D01*
X-9069069Y1584658D01*
X-9049610Y1720000D01*
X-9056799Y1770000D01*
X7989610Y1770000D01*
X8009068Y1634663D01*
X8009070Y1634655D01*
X8065867Y1510286D01*
X8065872Y1510279D01*
X8155409Y1406947D01*
X8155413Y1406943D01*
X8215979Y1368021D01*
X8270439Y1333022D01*
X8336036Y1313761D01*
X8401632Y1294500D01*
X8401633Y1294500D01*
X8538367Y1294500D01*
X8669561Y1333022D01*
X8784589Y1406945D01*
X8874130Y1510282D01*
X8930931Y1634658D01*
X8950390Y1770000D01*
X8930931Y1905342D01*
X8896966Y1979715D01*
X8874132Y2029715D01*
X8874127Y2029722D01*
X8784590Y2133054D01*
X8784586Y2133058D01*
X8669559Y2206979D01*
X8538368Y2245500D01*
X8538367Y2245500D01*
X8401633Y2245500D01*
X8401632Y2245500D01*
X8270440Y2206979D01*
X8155413Y2133058D01*
X8155409Y2133054D01*
X8065872Y2029722D01*
X8065867Y2029715D01*
X8009070Y1905346D01*
X8009068Y1905338D01*
X7989610Y1770000D01*
X-9056799Y1770000D01*
X-9069069Y1855342D01*
X-9091519Y1904500D01*
X-9125868Y1979715D01*
X-9125873Y1979722D01*
X-9215410Y2083054D01*
X-9215414Y2083058D01*
X-9330441Y2156979D01*
X-9461632Y2195500D01*
X-9461633Y2195500D01*
X-9598367Y2195500D01*
X-9598368Y2195500D01*
X-9729560Y2156979D01*
X-9844587Y2083058D01*
X-9844591Y2083054D01*
X-9934128Y1979722D01*
X-9934133Y1979715D01*
X-9990930Y1855346D01*
X-9990932Y1855338D01*
X-10010390Y1720000D01*
X-23936052Y1720000D01*
X-23897879Y2244925D01*
X-23897389Y2250142D01*
X-23866768Y2515346D01*
X-23781378Y3254908D01*
X-23780672Y3260058D01*
X-23707716Y3720000D01*
X13569610Y3720000D01*
X13589068Y3584663D01*
X13589070Y3584655D01*
X13645867Y3460286D01*
X13645872Y3460279D01*
X13735409Y3356947D01*
X13735413Y3356943D01*
X13850441Y3283021D01*
X13863607Y3279155D01*
X13922385Y3241382D01*
X13951411Y3177826D01*
X13951412Y3142536D01*
X13949610Y3130000D01*
X13969068Y2994663D01*
X13969070Y2994655D01*
X14025867Y2870286D01*
X14025870Y2870282D01*
X14030397Y2865058D01*
X14059423Y2801503D01*
X14049482Y2732344D01*
X14030400Y2702652D01*
X13975872Y2639723D01*
X13975867Y2639715D01*
X13919070Y2515346D01*
X13919068Y2515338D01*
X13899610Y2380000D01*
X13919068Y2244663D01*
X13919070Y2244655D01*
X13975867Y2120286D01*
X13975872Y2120279D01*
X14065409Y2016947D01*
X14065413Y2016943D01*
X14123332Y1979722D01*
X14180439Y1943022D01*
X14246036Y1923761D01*
X14311632Y1904500D01*
X14311633Y1904500D01*
X14448367Y1904500D01*
X14579561Y1943022D01*
X14694589Y2016945D01*
X14784130Y2120282D01*
X14840931Y2244658D01*
X14860390Y2380000D01*
X14840931Y2515342D01*
X14828677Y2542173D01*
X14784132Y2639715D01*
X14784129Y2639719D01*
X14779599Y2644947D01*
X14750575Y2708504D01*
X14760519Y2777662D01*
X14779595Y2807346D01*
X14834130Y2870282D01*
X14890931Y2994658D01*
X14910390Y3130000D01*
X14890931Y3265342D01*
X14849097Y3356945D01*
X14834132Y3389715D01*
X14834127Y3389722D01*
X14744590Y3493054D01*
X14744586Y3493058D01*
X14675572Y3537409D01*
X14629561Y3566978D01*
X14616388Y3570846D01*
X14557612Y3608620D01*
X14528588Y3672176D01*
X14528588Y3707470D01*
X14530390Y3720000D01*
X14510931Y3855342D01*
X14491932Y3896943D01*
X14454132Y3979715D01*
X14454127Y3979722D01*
X14364590Y4083054D01*
X14364586Y4083058D01*
X14249559Y4156979D01*
X14118368Y4195500D01*
X14118367Y4195500D01*
X13981633Y4195500D01*
X13981632Y4195500D01*
X13850440Y4156979D01*
X13735413Y4083058D01*
X13735409Y4083054D01*
X13645872Y3979722D01*
X13645867Y3979715D01*
X13589070Y3855346D01*
X13589068Y3855338D01*
X13569610Y3720000D01*
X-23707716Y3720000D01*
X-23622219Y4259004D01*
X-23621288Y4264160D01*
X-23594742Y4395338D01*
X-23421790Y5250000D01*
X-19650390Y5250000D01*
X-19630932Y5114663D01*
X-19630930Y5114655D01*
X-19574133Y4990286D01*
X-19574128Y4990279D01*
X-19484591Y4886947D01*
X-19484587Y4886943D01*
X-19453465Y4866943D01*
X-19369561Y4813022D01*
X-19364435Y4811517D01*
X-19238368Y4774500D01*
X-19238367Y4774500D01*
X-19101633Y4774500D01*
X-18970439Y4813022D01*
X-18855411Y4886945D01*
X-18765870Y4990282D01*
X-18709069Y5114658D01*
X-18696799Y5200000D01*
X-13480390Y5200000D01*
X-13460932Y5064663D01*
X-13460930Y5064655D01*
X-13404133Y4940286D01*
X-13404128Y4940279D01*
X-13314591Y4836947D01*
X-13314587Y4836943D01*
X-13277364Y4813022D01*
X-13199561Y4763022D01*
X-13136402Y4744477D01*
X-13068368Y4724500D01*
X-13068367Y4724500D01*
X-12931633Y4724500D01*
X-12800439Y4763022D01*
X-12685411Y4836945D01*
X-12595870Y4940282D01*
X-12539069Y5064658D01*
X-12519610Y5200000D01*
X-12523923Y5230000D01*
X13639610Y5230000D01*
X13659068Y5094663D01*
X13659070Y5094655D01*
X13715867Y4970286D01*
X13715872Y4970279D01*
X13805409Y4866947D01*
X13805413Y4866943D01*
X13864202Y4829163D01*
X13920439Y4793022D01*
X13983519Y4774500D01*
X14051632Y4754500D01*
X14051633Y4754500D01*
X14188367Y4754500D01*
X14319561Y4793022D01*
X14434589Y4866945D01*
X14437236Y4870000D01*
X15719610Y4870000D01*
X15739068Y4734663D01*
X15739070Y4734655D01*
X15795867Y4610286D01*
X15795872Y4610279D01*
X15885409Y4506947D01*
X15885413Y4506943D01*
X15962096Y4457663D01*
X16000439Y4433022D01*
X16000442Y4433022D01*
X16004260Y4431277D01*
X16007432Y4428528D01*
X16007899Y4428228D01*
X16007855Y4428161D01*
X16057062Y4385520D01*
X16076743Y4318479D01*
X16075481Y4300840D01*
X16069610Y4260003D01*
X16069610Y4260001D01*
X16089068Y4124663D01*
X16089070Y4124655D01*
X16145867Y4000286D01*
X16145872Y4000279D01*
X16235409Y3896947D01*
X16235413Y3896943D01*
X16295979Y3858021D01*
X16350439Y3823022D01*
X16416036Y3803761D01*
X16481632Y3784500D01*
X16481633Y3784500D01*
X16618367Y3784500D01*
X16749561Y3823022D01*
X16864589Y3896945D01*
X16954130Y4000282D01*
X17010931Y4124658D01*
X17030390Y4260000D01*
X17010931Y4395342D01*
X16993723Y4433023D01*
X16954132Y4519715D01*
X16954127Y4519722D01*
X16864590Y4623054D01*
X16864586Y4623058D01*
X16795572Y4667409D01*
X16749561Y4696978D01*
X16749554Y4696980D01*
X16745743Y4698721D01*
X16742569Y4701471D01*
X16742101Y4701772D01*
X16742144Y4701840D01*
X16692940Y4744477D01*
X16673256Y4811517D01*
X16674517Y4829155D01*
X16680390Y4870000D01*
X16660931Y5005342D01*
X16648677Y5032173D01*
X16604132Y5129715D01*
X16604127Y5129722D01*
X16514590Y5233054D01*
X16514586Y5233058D01*
X16399559Y5306979D01*
X16268368Y5345500D01*
X16268367Y5345500D01*
X16131633Y5345500D01*
X16131632Y5345500D01*
X16000440Y5306979D01*
X15885413Y5233058D01*
X15885409Y5233054D01*
X15795872Y5129722D01*
X15795867Y5129715D01*
X15739070Y5005346D01*
X15739068Y5005338D01*
X15719610Y4870000D01*
X14437236Y4870000D01*
X14524130Y4970282D01*
X14580931Y5094658D01*
X14600390Y5230000D01*
X14580931Y5365342D01*
X14537829Y5459722D01*
X14524132Y5489715D01*
X14524127Y5489722D01*
X14434590Y5593054D01*
X14434586Y5593058D01*
X14319559Y5666979D01*
X14188368Y5705500D01*
X14188367Y5705500D01*
X14051633Y5705500D01*
X14051632Y5705500D01*
X13920440Y5666979D01*
X13805413Y5593058D01*
X13805409Y5593054D01*
X13715872Y5489722D01*
X13715867Y5489715D01*
X13659070Y5365346D01*
X13659068Y5365338D01*
X13639610Y5230000D01*
X-12523923Y5230000D01*
X-12539069Y5335342D01*
X-12542721Y5343340D01*
X-11308108Y5343340D01*
X-11308108Y5343339D01*
X-11294308Y5334667D01*
X-11294309Y5334667D01*
X-11124139Y5275122D01*
X-10945003Y5254938D01*
X-10944997Y5254938D01*
X-10765862Y5275122D01*
X-10765859Y5275123D01*
X-10595695Y5334666D01*
X-10595694Y5334666D01*
X-10581894Y5343339D01*
X-10581894Y5343340D01*
X-9908108Y5343340D01*
X-9908108Y5343339D01*
X-9894308Y5334667D01*
X-9894309Y5334667D01*
X-9724139Y5275122D01*
X-9545003Y5254938D01*
X-9544997Y5254938D01*
X-9365862Y5275122D01*
X-9365859Y5275123D01*
X-9195695Y5334666D01*
X-9195694Y5334666D01*
X-9181894Y5343339D01*
X-9181894Y5343340D01*
X-9544999Y5706447D01*
X-9545000Y5706447D01*
X-9908108Y5343340D01*
X-10581894Y5343340D01*
X-10944999Y5706447D01*
X-10945000Y5706447D01*
X-11308108Y5343340D01*
X-12542721Y5343340D01*
X-12552771Y5365346D01*
X-12595868Y5459715D01*
X-12595873Y5459722D01*
X-12685410Y5563054D01*
X-12685414Y5563058D01*
X-12800441Y5636979D01*
X-12931632Y5675500D01*
X-12931633Y5675500D01*
X-13068367Y5675500D01*
X-13068368Y5675500D01*
X-13199560Y5636979D01*
X-13314587Y5563058D01*
X-13314591Y5563054D01*
X-13404128Y5459722D01*
X-13404133Y5459715D01*
X-13460930Y5335346D01*
X-13460932Y5335338D01*
X-13480390Y5200000D01*
X-18696799Y5200000D01*
X-18689610Y5250000D01*
X-18709069Y5385342D01*
X-18743034Y5459715D01*
X-18765868Y5509715D01*
X-18765873Y5509722D01*
X-18855410Y5613054D01*
X-18855414Y5613058D01*
X-18970441Y5686979D01*
X-19101632Y5725500D01*
X-19101633Y5725500D01*
X-19238367Y5725500D01*
X-19238368Y5725500D01*
X-19369560Y5686979D01*
X-19484587Y5613058D01*
X-19484591Y5613054D01*
X-19574128Y5509722D01*
X-19574133Y5509715D01*
X-19630930Y5385346D01*
X-19630932Y5385338D01*
X-19650390Y5250000D01*
X-23421790Y5250000D01*
X-23420685Y5255460D01*
X-23419546Y5260538D01*
X-23177134Y6242498D01*
X-23175781Y6247521D01*
X-23099057Y6510000D01*
X-19590390Y6510000D01*
X-19570932Y6374663D01*
X-19570930Y6374655D01*
X-19514133Y6250286D01*
X-19514128Y6250279D01*
X-19424591Y6146947D01*
X-19424587Y6146943D01*
X-19377441Y6116645D01*
X-19309561Y6073022D01*
X-19265212Y6060000D01*
X-19178368Y6034500D01*
X-19178367Y6034500D01*
X-19041633Y6034500D01*
X-19011527Y6043340D01*
X-12008108Y6043340D01*
X-12008108Y6043339D01*
X-11994308Y6034667D01*
X-11994309Y6034667D01*
X-11824138Y5975122D01*
X-11823356Y5974943D01*
X-11822903Y5974690D01*
X-11817569Y5972823D01*
X-11817896Y5971889D01*
X-11762377Y5940834D01*
X-11733048Y5887126D01*
X-11732178Y5887430D01*
X-11730330Y5882148D01*
X-11730060Y5881654D01*
X-11729879Y5880858D01*
X-11670337Y5710700D01*
X-11670337Y5710699D01*
X-11661662Y5696893D01*
X-11298554Y6060000D01*
X-11318445Y6079891D01*
X-11045000Y6079891D01*
X-11045000Y6040109D01*
X-11029776Y6003355D01*
X-11001645Y5975224D01*
X-10964891Y5960000D01*
X-10925109Y5960000D01*
X-10888355Y5975224D01*
X-10860224Y6003355D01*
X-10845000Y6040109D01*
X-10845000Y6060001D01*
X-10591447Y6060001D01*
X-10591447Y6060000D01*
X-10245000Y5713554D01*
X-10244999Y5713554D01*
X-9898554Y6060000D01*
X-9918445Y6079891D01*
X-9645000Y6079891D01*
X-9645000Y6040109D01*
X-9629776Y6003355D01*
X-9601645Y5975224D01*
X-9564891Y5960000D01*
X-9525109Y5960000D01*
X-9488355Y5975224D01*
X-9460224Y6003355D01*
X-9445000Y6040109D01*
X-9445000Y6060001D01*
X-9191447Y6060001D01*
X-9191447Y6060000D01*
X-8828340Y5696894D01*
X-8828339Y5696894D01*
X-8819666Y5710694D01*
X-8819666Y5710695D01*
X-8760124Y5880856D01*
X-8759944Y5881642D01*
X-8759689Y5882099D01*
X-8757823Y5887430D01*
X-8756890Y5887104D01*
X-8725836Y5942621D01*
X-8672125Y5971951D01*
X-8672430Y5972823D01*
X-8667130Y5974678D01*
X-8666642Y5974944D01*
X-8665856Y5975124D01*
X-8495695Y6034666D01*
X-8495694Y6034666D01*
X-8481894Y6043339D01*
X-8481894Y6043340D01*
X-8845000Y6406447D01*
X-8910760Y6340686D01*
X-8910761Y6340686D01*
X-9191447Y6060001D01*
X-9445000Y6060001D01*
X-9445000Y6079891D01*
X-9460224Y6116645D01*
X-9488355Y6144776D01*
X-9525109Y6160000D01*
X-9564891Y6160000D01*
X-9601645Y6144776D01*
X-9629776Y6116645D01*
X-9645000Y6079891D01*
X-9918445Y6079891D01*
X-10179240Y6340686D01*
X-10245000Y6406447D01*
X-10310760Y6340686D01*
X-10310761Y6340686D01*
X-10591447Y6060001D01*
X-10845000Y6060001D01*
X-10845000Y6079891D01*
X-10860224Y6116645D01*
X-10888355Y6144776D01*
X-10925109Y6160000D01*
X-10964891Y6160000D01*
X-11001645Y6144776D01*
X-11029776Y6116645D01*
X-11045000Y6079891D01*
X-11318445Y6079891D01*
X-11645001Y6406447D01*
X-11645002Y6406447D01*
X-12008108Y6043340D01*
X-19011527Y6043340D01*
X-18910439Y6073022D01*
X-18795411Y6146945D01*
X-18705870Y6250282D01*
X-18649069Y6374658D01*
X-18629610Y6510000D01*
X-18649069Y6645342D01*
X-18685220Y6724501D01*
X-18705868Y6769715D01*
X-18705873Y6769722D01*
X-18795410Y6873054D01*
X-18795414Y6873058D01*
X-18910441Y6946979D01*
X-19041632Y6985500D01*
X-19041633Y6985500D01*
X-19178367Y6985500D01*
X-19178368Y6985500D01*
X-19309560Y6946979D01*
X-19424587Y6873058D01*
X-19424591Y6873054D01*
X-19514128Y6769722D01*
X-19514133Y6769715D01*
X-19570930Y6645346D01*
X-19570932Y6645338D01*
X-19590390Y6510000D01*
X-23099057Y6510000D01*
X-22897366Y7200000D01*
X-14747890Y7200000D01*
X-14728432Y7064663D01*
X-14728430Y7064655D01*
X-14671633Y6940286D01*
X-14671628Y6940279D01*
X-14582091Y6836947D01*
X-14582087Y6836943D01*
X-14521521Y6798021D01*
X-14467061Y6763022D01*
X-14401464Y6743761D01*
X-14335868Y6724500D01*
X-14335867Y6724500D01*
X-14199133Y6724500D01*
X-14078221Y6760003D01*
X-12450062Y6760003D01*
X-12450062Y6759998D01*
X-12429879Y6580862D01*
X-12370335Y6410696D01*
X-12361662Y6396893D01*
X-11998554Y6760000D01*
X-11998554Y6760001D01*
X-12018444Y6779891D01*
X-11745000Y6779891D01*
X-11745000Y6740109D01*
X-11729776Y6703355D01*
X-11701645Y6675224D01*
X-11664891Y6660000D01*
X-11625109Y6660000D01*
X-11588355Y6675224D01*
X-11560224Y6703355D01*
X-11545000Y6740109D01*
X-11545000Y6760000D01*
X-11291447Y6760000D01*
X-11255947Y6724501D01*
X-10945000Y6413554D01*
X-10598554Y6760000D01*
X-10618445Y6779891D01*
X-10345000Y6779891D01*
X-10345000Y6740109D01*
X-10329776Y6703355D01*
X-10301645Y6675224D01*
X-10264891Y6660000D01*
X-10225109Y6660000D01*
X-10188355Y6675224D01*
X-10160224Y6703355D01*
X-10145000Y6740109D01*
X-10145000Y6760000D01*
X-9891447Y6760000D01*
X-9855947Y6724501D01*
X-9545000Y6413554D01*
X-9198554Y6760000D01*
X-9218445Y6779891D01*
X-8945000Y6779891D01*
X-8945000Y6740109D01*
X-8929776Y6703355D01*
X-8901645Y6675224D01*
X-8864891Y6660000D01*
X-8825109Y6660000D01*
X-8788355Y6675224D01*
X-8760224Y6703355D01*
X-8745000Y6740109D01*
X-8745000Y6760000D01*
X-8491447Y6760000D01*
X-8128340Y6396894D01*
X-8128339Y6396894D01*
X-8119666Y6410694D01*
X-8119666Y6410695D01*
X-8060123Y6580859D01*
X-8060122Y6580862D01*
X-8039938Y6759998D01*
X-8039938Y6760003D01*
X-8060122Y6939139D01*
X-8119667Y7109308D01*
X-8128339Y7123108D01*
X-8128340Y7123108D01*
X-8491447Y6760000D01*
X-8745000Y6760000D01*
X-8745000Y6779891D01*
X-8760224Y6816645D01*
X-8788355Y6844776D01*
X-8825109Y6860000D01*
X-8864891Y6860000D01*
X-8901645Y6844776D01*
X-8929776Y6816645D01*
X-8945000Y6779891D01*
X-9218445Y6779891D01*
X-9503213Y7064659D01*
X-9545000Y7106447D01*
X-9586787Y7064659D01*
X-9586788Y7064658D01*
X-9891447Y6760000D01*
X-10145000Y6760000D01*
X-10145000Y6779891D01*
X-10160224Y6816645D01*
X-10188355Y6844776D01*
X-10225109Y6860000D01*
X-10264891Y6860000D01*
X-10301645Y6844776D01*
X-10329776Y6816645D01*
X-10345000Y6779891D01*
X-10618445Y6779891D01*
X-10903213Y7064659D01*
X-10945000Y7106447D01*
X-10986787Y7064659D01*
X-10986788Y7064658D01*
X-11291447Y6760000D01*
X-11545000Y6760000D01*
X-11545000Y6779891D01*
X-11560224Y6816645D01*
X-11588355Y6844776D01*
X-11625109Y6860000D01*
X-11664891Y6860000D01*
X-11701645Y6844776D01*
X-11729776Y6816645D01*
X-11745000Y6779891D01*
X-12018444Y6779891D01*
X-12361662Y7123109D01*
X-12361663Y7123109D01*
X-12370333Y7109309D01*
X-12370338Y7109299D01*
X-12429878Y6939142D01*
X-12429879Y6939139D01*
X-12450062Y6760003D01*
X-14078221Y6760003D01*
X-14067939Y6763022D01*
X-13952911Y6836945D01*
X-13863370Y6940282D01*
X-13860311Y6946979D01*
X-13851117Y6967113D01*
X-13806569Y7064658D01*
X-13787110Y7200000D01*
X-13806569Y7335342D01*
X-13831267Y7389423D01*
X-13863368Y7459715D01*
X-13863373Y7459722D01*
X-13863615Y7460001D01*
X-11991447Y7460001D01*
X-11991447Y7459999D01*
X-11645002Y7113554D01*
X-11645001Y7113554D01*
X-11369131Y7389423D01*
X-11298554Y7460000D01*
X-11318445Y7479891D01*
X-11045000Y7479891D01*
X-11045000Y7440109D01*
X-11029776Y7403355D01*
X-11001645Y7375224D01*
X-10964891Y7360000D01*
X-10925109Y7360000D01*
X-10888355Y7375224D01*
X-10860224Y7403355D01*
X-10845000Y7440109D01*
X-10845000Y7460001D01*
X-10591447Y7460001D01*
X-10245000Y7113554D01*
X-9898554Y7460000D01*
X-9918445Y7479891D01*
X-9645000Y7479891D01*
X-9645000Y7440109D01*
X-9629776Y7403355D01*
X-9601645Y7375224D01*
X-9564891Y7360000D01*
X-9525109Y7360000D01*
X-9488355Y7375224D01*
X-9460224Y7403355D01*
X-9445000Y7440109D01*
X-9445000Y7460001D01*
X-9191447Y7460001D01*
X-8845000Y7113554D01*
X-8498554Y7460000D01*
X-8498554Y7460001D01*
X-8638553Y7600000D01*
X-6530390Y7600000D01*
X-6510932Y7464663D01*
X-6510930Y7464655D01*
X-6454133Y7340286D01*
X-6454128Y7340279D01*
X-6364591Y7236947D01*
X-6364587Y7236943D01*
X-6307101Y7200000D01*
X-6249561Y7163022D01*
X-6183964Y7143761D01*
X-6118368Y7124500D01*
X-6118367Y7124500D01*
X-5981633Y7124500D01*
X-5850439Y7163022D01*
X-5735411Y7236945D01*
X-5645870Y7340282D01*
X-5600325Y7440011D01*
X9279599Y7440011D01*
X9299057Y7304674D01*
X9299059Y7304666D01*
X9355856Y7180297D01*
X9355861Y7180290D01*
X9445398Y7076958D01*
X9445402Y7076954D01*
X9505968Y7038032D01*
X9560428Y7003033D01*
X9620140Y6985500D01*
X9691621Y6964511D01*
X9691622Y6964511D01*
X9828356Y6964511D01*
X9959550Y7003033D01*
X10074578Y7076956D01*
X10164119Y7180293D01*
X10220920Y7304669D01*
X10240379Y7440011D01*
X10220920Y7575353D01*
X10192776Y7636979D01*
X10164121Y7699726D01*
X10164116Y7699733D01*
X10074579Y7803065D01*
X10074575Y7803069D01*
X9959548Y7876990D01*
X9828357Y7915511D01*
X9828356Y7915511D01*
X9691622Y7915511D01*
X9691621Y7915511D01*
X9560429Y7876990D01*
X9445402Y7803069D01*
X9445398Y7803065D01*
X9355861Y7699733D01*
X9355856Y7699726D01*
X9299059Y7575357D01*
X9299057Y7575349D01*
X9279599Y7440011D01*
X-5600325Y7440011D01*
X-5589069Y7464658D01*
X-5569610Y7600000D01*
X-5589069Y7735342D01*
X-5601323Y7762173D01*
X-5645868Y7859715D01*
X-5645873Y7859722D01*
X-5735410Y7963054D01*
X-5735414Y7963058D01*
X-5835537Y8027401D01*
X-5850439Y8036978D01*
X-5850440Y8036979D01*
X-5850441Y8036979D01*
X-5981632Y8075500D01*
X-5981633Y8075500D01*
X-6118367Y8075500D01*
X-6118368Y8075500D01*
X-6249560Y8036979D01*
X-6364587Y7963058D01*
X-6364591Y7963054D01*
X-6454128Y7859722D01*
X-6454133Y7859715D01*
X-6510930Y7735346D01*
X-6510932Y7735338D01*
X-6530390Y7600000D01*
X-8638553Y7600000D01*
X-8845000Y7806447D01*
X-8910760Y7740686D01*
X-8910761Y7740686D01*
X-9191447Y7460001D01*
X-9445000Y7460001D01*
X-9445000Y7479891D01*
X-9460224Y7516645D01*
X-9488355Y7544776D01*
X-9525109Y7560000D01*
X-9564891Y7560000D01*
X-9601645Y7544776D01*
X-9629776Y7516645D01*
X-9645000Y7479891D01*
X-9918445Y7479891D01*
X-10179240Y7740686D01*
X-10245000Y7806447D01*
X-10310760Y7740686D01*
X-10310761Y7740686D01*
X-10591447Y7460001D01*
X-10845000Y7460001D01*
X-10845000Y7479891D01*
X-10860224Y7516645D01*
X-10888355Y7544776D01*
X-10925109Y7560000D01*
X-10964891Y7560000D01*
X-11001645Y7544776D01*
X-11029776Y7516645D01*
X-11045000Y7479891D01*
X-11318445Y7479891D01*
X-11645001Y7806447D01*
X-11645002Y7806447D01*
X-11991447Y7460001D01*
X-13863615Y7460001D01*
X-13952910Y7563054D01*
X-13952914Y7563058D01*
X-14067941Y7636979D01*
X-14199132Y7675500D01*
X-14199133Y7675500D01*
X-14335867Y7675500D01*
X-14335868Y7675500D01*
X-14467060Y7636979D01*
X-14582087Y7563058D01*
X-14582091Y7563054D01*
X-14671628Y7459722D01*
X-14671633Y7459715D01*
X-14728430Y7335346D01*
X-14728432Y7335338D01*
X-14747890Y7200000D01*
X-22897366Y7200000D01*
X-22892001Y7218355D01*
X-22890443Y7223295D01*
X-22573005Y8160003D01*
X-12450062Y8160003D01*
X-12450062Y8159998D01*
X-12429879Y7980862D01*
X-12370335Y7810696D01*
X-12361662Y7796893D01*
X-11998554Y8160000D01*
X-11998554Y8160001D01*
X-12018444Y8179891D01*
X-11745000Y8179891D01*
X-11745000Y8140109D01*
X-11729776Y8103355D01*
X-11701645Y8075224D01*
X-11664891Y8060000D01*
X-11625109Y8060000D01*
X-11588355Y8075224D01*
X-11560224Y8103355D01*
X-11545000Y8140109D01*
X-11545000Y8160001D01*
X-11291447Y8160001D01*
X-10945000Y7813554D01*
X-10598554Y8160000D01*
X-10618445Y8179891D01*
X-10345000Y8179891D01*
X-10345000Y8140109D01*
X-10329776Y8103355D01*
X-10301645Y8075224D01*
X-10264891Y8060000D01*
X-10225109Y8060000D01*
X-10188355Y8075224D01*
X-10160224Y8103355D01*
X-10145000Y8140109D01*
X-10145000Y8160001D01*
X-9891447Y8160001D01*
X-9545000Y7813554D01*
X-9198554Y8160000D01*
X-9218445Y8179891D01*
X-8945000Y8179891D01*
X-8945000Y8140109D01*
X-8929776Y8103355D01*
X-8901645Y8075224D01*
X-8864891Y8060000D01*
X-8825109Y8060000D01*
X-8788355Y8075224D01*
X-8760224Y8103355D01*
X-8745000Y8140109D01*
X-8745000Y8160000D01*
X-8491447Y8160000D01*
X-8128340Y7796894D01*
X-8128339Y7796894D01*
X-8119666Y7810694D01*
X-8119666Y7810695D01*
X-8060123Y7980859D01*
X-8060122Y7980862D01*
X-8039938Y8159998D01*
X-8039938Y8160003D01*
X-8060122Y8339139D01*
X-8119667Y8509308D01*
X-8128339Y8523108D01*
X-8128340Y8523108D01*
X-8491447Y8160000D01*
X-8745000Y8160000D01*
X-8745000Y8179891D01*
X-8760224Y8216645D01*
X-8788355Y8244776D01*
X-8825109Y8260000D01*
X-8864891Y8260000D01*
X-8901645Y8244776D01*
X-8929776Y8216645D01*
X-8945000Y8179891D01*
X-9218445Y8179891D01*
X-9479240Y8440686D01*
X-9545000Y8506447D01*
X-9610760Y8440686D01*
X-9610761Y8440686D01*
X-9891447Y8160001D01*
X-10145000Y8160001D01*
X-10145000Y8179891D01*
X-10160224Y8216645D01*
X-10188355Y8244776D01*
X-10225109Y8260000D01*
X-10264891Y8260000D01*
X-10301645Y8244776D01*
X-10329776Y8216645D01*
X-10345000Y8179891D01*
X-10618445Y8179891D01*
X-10879240Y8440686D01*
X-10945000Y8506447D01*
X-11010760Y8440686D01*
X-11010761Y8440686D01*
X-11291447Y8160001D01*
X-11545000Y8160001D01*
X-11545000Y8179891D01*
X-11560224Y8216645D01*
X-11588355Y8244776D01*
X-11625109Y8260000D01*
X-11664891Y8260000D01*
X-11701645Y8244776D01*
X-11729776Y8216645D01*
X-11745000Y8179891D01*
X-12018444Y8179891D01*
X-12361662Y8523109D01*
X-12361663Y8523109D01*
X-12370333Y8509309D01*
X-12370338Y8509299D01*
X-12429878Y8339142D01*
X-12429879Y8339139D01*
X-12450062Y8160003D01*
X-22573005Y8160003D01*
X-22565806Y8181246D01*
X-22564032Y8186134D01*
X-22326573Y8800000D01*
X-19680390Y8800000D01*
X-19660932Y8664663D01*
X-19660930Y8664655D01*
X-19604133Y8540286D01*
X-19604128Y8540279D01*
X-19514591Y8436947D01*
X-19514587Y8436943D01*
X-19493259Y8423237D01*
X-19399561Y8363022D01*
X-19333964Y8343761D01*
X-19268368Y8324500D01*
X-19268367Y8324500D01*
X-19131633Y8324500D01*
X-19000439Y8363022D01*
X-18885411Y8436945D01*
X-18795870Y8540282D01*
X-18739069Y8664658D01*
X-18719610Y8800000D01*
X-18730632Y8876663D01*
X-12008109Y8876663D01*
X-12008109Y8876662D01*
X-11645002Y8513554D01*
X-11350534Y8808020D01*
X-11298554Y8860001D01*
X-11298554Y8860002D01*
X-11318443Y8879891D01*
X-11045000Y8879891D01*
X-11045000Y8840109D01*
X-11029776Y8803355D01*
X-11001645Y8775224D01*
X-10964891Y8760000D01*
X-10925109Y8760000D01*
X-10888355Y8775224D01*
X-10860224Y8803355D01*
X-10845000Y8840109D01*
X-10845000Y8860002D01*
X-10591447Y8860002D01*
X-10591447Y8860001D01*
X-10245000Y8513554D01*
X-9950534Y8808019D01*
X-9898554Y8860001D01*
X-9898554Y8860002D01*
X-9918443Y8879891D01*
X-9645000Y8879891D01*
X-9645000Y8840109D01*
X-9629776Y8803355D01*
X-9601645Y8775224D01*
X-9564891Y8760000D01*
X-9525109Y8760000D01*
X-9488355Y8775224D01*
X-9460224Y8803355D01*
X-9445000Y8840109D01*
X-9445000Y8860002D01*
X-9191447Y8860002D01*
X-9191447Y8860001D01*
X-8845000Y8513554D01*
X-8844999Y8513554D01*
X-8481893Y8876662D01*
X-8495699Y8885337D01*
X-8665858Y8944879D01*
X-8666654Y8945060D01*
X-8667117Y8945319D01*
X-8672430Y8947178D01*
X-8672105Y8948110D01*
X-8727630Y8979173D01*
X-8756951Y9032875D01*
X-8757823Y9032569D01*
X-8759679Y9037872D01*
X-8759943Y9038356D01*
X-8760122Y9039138D01*
X-8819667Y9209308D01*
X-8828339Y9223108D01*
X-8828340Y9223108D01*
X-9191447Y8860002D01*
X-9445000Y8860002D01*
X-9445000Y8879891D01*
X-9460224Y8916645D01*
X-9488355Y8944776D01*
X-9525109Y8960000D01*
X-9564891Y8960000D01*
X-9601645Y8944776D01*
X-9629776Y8916645D01*
X-9645000Y8879891D01*
X-9918443Y8879891D01*
X-10244999Y9206447D01*
X-10245000Y9206447D01*
X-10591447Y8860002D01*
X-10845000Y8860002D01*
X-10845000Y8879891D01*
X-10860224Y8916645D01*
X-10888355Y8944776D01*
X-10925109Y8960000D01*
X-10964891Y8960000D01*
X-11001645Y8944776D01*
X-11029776Y8916645D01*
X-11045000Y8879891D01*
X-11318443Y8879891D01*
X-11661662Y9223109D01*
X-11661663Y9223109D01*
X-11670333Y9209309D01*
X-11670338Y9209299D01*
X-11729881Y9039134D01*
X-11730061Y9038344D01*
X-11730318Y9037887D01*
X-11732177Y9032571D01*
X-11733109Y9032897D01*
X-11764176Y8977369D01*
X-11817876Y8948048D01*
X-11817571Y8947177D01*
X-11822855Y8945329D01*
X-11823344Y8945061D01*
X-11824134Y8944881D01*
X-11994299Y8885338D01*
X-11994309Y8885333D01*
X-12008109Y8876663D01*
X-18730632Y8876663D01*
X-18739069Y8935342D01*
X-18779228Y9023278D01*
X-18795868Y9059715D01*
X-18795873Y9059722D01*
X-18885410Y9163054D01*
X-18885414Y9163058D01*
X-19000441Y9236979D01*
X-19131632Y9275500D01*
X-19131633Y9275500D01*
X-19268367Y9275500D01*
X-19268368Y9275500D01*
X-19399560Y9236979D01*
X-19514587Y9163058D01*
X-19514591Y9163054D01*
X-19604128Y9059722D01*
X-19604133Y9059715D01*
X-19660930Y8935346D01*
X-19660932Y8935338D01*
X-19680390Y8800000D01*
X-22326573Y8800000D01*
X-22199017Y9129750D01*
X-22197306Y9133942D01*
X-22006889Y9576663D01*
X-11308109Y9576663D01*
X-11308109Y9576662D01*
X-10945000Y9213554D01*
X-10944999Y9213554D01*
X-10581893Y9576662D01*
X-10581895Y9576663D01*
X-9908109Y9576663D01*
X-9908109Y9576662D01*
X-9545000Y9213554D01*
X-9544999Y9213554D01*
X-9428554Y9330000D01*
X-6730390Y9330000D01*
X-6710932Y9194663D01*
X-6710930Y9194655D01*
X-6654133Y9070286D01*
X-6654128Y9070279D01*
X-6564591Y8966947D01*
X-6564587Y8966943D01*
X-6515413Y8935342D01*
X-6449561Y8893022D01*
X-6404841Y8879891D01*
X-6318368Y8854500D01*
X-6318367Y8854500D01*
X-6181633Y8854500D01*
X-6050439Y8893022D01*
X-5935411Y8966945D01*
X-5845870Y9070282D01*
X-5802887Y9164400D01*
X-1193979Y9164400D01*
X-1174521Y9029063D01*
X-1174519Y9029055D01*
X-1117722Y8904686D01*
X-1117717Y8904679D01*
X-1028180Y8801347D01*
X-1028176Y8801343D01*
X-971992Y8765237D01*
X-913150Y8727422D01*
X-881024Y8717989D01*
X-781957Y8688900D01*
X-781956Y8688900D01*
X-645222Y8688900D01*
X-514028Y8727422D01*
X-399000Y8801345D01*
X-398993Y8801354D01*
X-397499Y8802647D01*
X-395682Y8803478D01*
X-391538Y8806140D01*
X-391156Y8805545D01*
X-333946Y8831678D01*
X-264786Y8821741D01*
X-211978Y8775992D01*
X-205802Y8765237D01*
X-186534Y8727422D01*
X-124845Y8606350D01*
X8193Y8423239D01*
X168239Y8263193D01*
X351350Y8130155D01*
X553019Y8027400D01*
X553021Y8027399D01*
X696258Y7980859D01*
X768279Y7957458D01*
X991831Y7922050D01*
X991832Y7922050D01*
X1218168Y7922050D01*
X1218169Y7922050D01*
X1441721Y7957458D01*
X1441724Y7957459D01*
X1441725Y7957459D01*
X1656978Y8027399D01*
X1656978Y8027400D01*
X1656981Y8027400D01*
X1858650Y8130155D01*
X1870372Y8138672D01*
X1936175Y8162154D01*
X2004230Y8146333D01*
X2052928Y8096230D01*
X2065998Y8056007D01*
X2069066Y8034669D01*
X2069070Y8034655D01*
X2125867Y7910286D01*
X2125872Y7910279D01*
X2215409Y7806947D01*
X2215413Y7806943D01*
X2231052Y7796893D01*
X2330439Y7733022D01*
X2396036Y7713761D01*
X2461632Y7694500D01*
X2461633Y7694500D01*
X2598367Y7694500D01*
X2729561Y7733022D01*
X2844589Y7806945D01*
X2934130Y7910282D01*
X2990931Y8034658D01*
X3010390Y8170000D01*
X2990931Y8305342D01*
X2937090Y8423237D01*
X2934132Y8429715D01*
X2934127Y8429722D01*
X2844590Y8533054D01*
X2844586Y8533058D01*
X2729559Y8606979D01*
X2598368Y8645500D01*
X2598367Y8645500D01*
X2555466Y8645500D01*
X2488427Y8665185D01*
X2442672Y8717989D01*
X2432728Y8787147D01*
X2437535Y8807818D01*
X2507541Y9023275D01*
X2507541Y9023276D01*
X2507542Y9023279D01*
X2542950Y9246831D01*
X2542950Y9473169D01*
X2507542Y9696721D01*
X2507541Y9696725D01*
X2507541Y9696726D01*
X2480484Y9780000D01*
X2989610Y9780000D01*
X3009068Y9644663D01*
X3009070Y9644655D01*
X3065867Y9520286D01*
X3065872Y9520279D01*
X3155409Y9416947D01*
X3155413Y9416943D01*
X3215979Y9378021D01*
X3270439Y9343022D01*
X3314788Y9330000D01*
X3401632Y9304500D01*
X3401633Y9304500D01*
X3538367Y9304500D01*
X3669561Y9343022D01*
X3784589Y9416945D01*
X3862768Y9507169D01*
X3921546Y9544944D01*
X3991415Y9544944D01*
X4050194Y9507170D01*
X4075056Y9452729D01*
X4076569Y9453173D01*
X4079070Y9444655D01*
X4135867Y9320286D01*
X4135872Y9320279D01*
X4225409Y9216947D01*
X4225413Y9216943D01*
X4260095Y9194655D01*
X4340439Y9143022D01*
X4406036Y9123761D01*
X4471632Y9104500D01*
X4471633Y9104500D01*
X4608367Y9104500D01*
X4739561Y9143022D01*
X4854589Y9216945D01*
X4944130Y9320282D01*
X5000931Y9444658D01*
X5005030Y9473169D01*
X5382050Y9473169D01*
X5382050Y9246831D01*
X5386783Y9216947D01*
X5417458Y9023278D01*
X5417458Y9023275D01*
X5487398Y8808022D01*
X5487399Y8808020D01*
X5528466Y8727422D01*
X5590155Y8606350D01*
X5723193Y8423239D01*
X5883239Y8263193D01*
X6066350Y8130155D01*
X6268019Y8027400D01*
X6268021Y8027399D01*
X6411258Y7980859D01*
X6483279Y7957458D01*
X6706831Y7922050D01*
X6706832Y7922050D01*
X6933168Y7922050D01*
X6933169Y7922050D01*
X7156721Y7957458D01*
X7156724Y7957459D01*
X7156725Y7957459D01*
X7371978Y8027399D01*
X7371978Y8027400D01*
X7371981Y8027400D01*
X7573650Y8130155D01*
X7756761Y8263193D01*
X7916807Y8423239D01*
X8049845Y8606350D01*
X8136282Y8775992D01*
X8152601Y8808020D01*
X8152601Y8808022D01*
X8222541Y9023275D01*
X8222541Y9023276D01*
X8222542Y9023279D01*
X8257950Y9246831D01*
X8257950Y9473169D01*
X8222542Y9696721D01*
X8222541Y9696725D01*
X8222541Y9696726D01*
X8152601Y9911979D01*
X8152599Y9911982D01*
X8150890Y9915338D01*
X8049845Y10113650D01*
X7916807Y10296761D01*
X7756761Y10456807D01*
X7573650Y10589845D01*
X7371981Y10692600D01*
X7371978Y10692602D01*
X7156723Y10762542D01*
X7007686Y10786148D01*
X6933169Y10797950D01*
X6706831Y10797950D01*
X6632313Y10786148D01*
X6483277Y10762542D01*
X6483274Y10762542D01*
X6268021Y10692602D01*
X6268018Y10692600D01*
X6066349Y10589845D01*
X5972646Y10521765D01*
X5883239Y10456807D01*
X5883237Y10456805D01*
X5883236Y10456805D01*
X5723195Y10296764D01*
X5723195Y10296763D01*
X5723193Y10296761D01*
X5693996Y10256575D01*
X5590155Y10113651D01*
X5487400Y9911982D01*
X5487398Y9911979D01*
X5417458Y9696726D01*
X5417458Y9696723D01*
X5400017Y9586607D01*
X5382050Y9473169D01*
X5005030Y9473169D01*
X5020390Y9580000D01*
X5000931Y9715342D01*
X4986497Y9746947D01*
X4944132Y9839715D01*
X4944127Y9839722D01*
X4854590Y9943054D01*
X4854586Y9943058D01*
X4739559Y10016979D01*
X4608368Y10055500D01*
X4608367Y10055500D01*
X4471633Y10055500D01*
X4471632Y10055500D01*
X4340440Y10016979D01*
X4225413Y9943058D01*
X4225408Y9943053D01*
X4147230Y9852831D01*
X4088452Y9815057D01*
X4018582Y9815057D01*
X3959805Y9852832D01*
X3934943Y9907272D01*
X3933431Y9906827D01*
X3930931Y9915337D01*
X3930931Y9915342D01*
X3918273Y9943058D01*
X3874132Y10039715D01*
X3874127Y10039722D01*
X3784590Y10143054D01*
X3784586Y10143058D01*
X3669559Y10216979D01*
X3538368Y10255500D01*
X3538367Y10255500D01*
X3401633Y10255500D01*
X3401632Y10255500D01*
X3270440Y10216979D01*
X3155413Y10143058D01*
X3155409Y10143054D01*
X3065872Y10039722D01*
X3065867Y10039715D01*
X3009070Y9915346D01*
X3009068Y9915338D01*
X2989610Y9780000D01*
X2480484Y9780000D01*
X2437601Y9911979D01*
X2437599Y9911982D01*
X2435890Y9915338D01*
X2334845Y10113650D01*
X2201807Y10296761D01*
X2041761Y10456807D01*
X1858650Y10589845D01*
X1656981Y10692600D01*
X1656978Y10692602D01*
X1441723Y10762542D01*
X1292686Y10786148D01*
X1218169Y10797950D01*
X991831Y10797950D01*
X917313Y10786148D01*
X768277Y10762542D01*
X768274Y10762542D01*
X553021Y10692602D01*
X553018Y10692600D01*
X351349Y10589845D01*
X257646Y10521765D01*
X168239Y10456807D01*
X168237Y10456805D01*
X168236Y10456805D01*
X8195Y10296764D01*
X8195Y10296763D01*
X8193Y10296761D01*
X-21004Y10256575D01*
X-124845Y10113651D01*
X-227600Y9911982D01*
X-227602Y9911979D01*
X-297542Y9696726D01*
X-297542Y9696724D01*
X-301533Y9671525D01*
X-331463Y9608390D01*
X-390775Y9571460D01*
X-460638Y9572458D01*
X-491043Y9586607D01*
X-514031Y9601380D01*
X-645221Y9639900D01*
X-645222Y9639900D01*
X-781956Y9639900D01*
X-781957Y9639900D01*
X-913149Y9601379D01*
X-1028176Y9527458D01*
X-1028180Y9527454D01*
X-1117717Y9424122D01*
X-1117722Y9424115D01*
X-1174519Y9299746D01*
X-1174521Y9299738D01*
X-1193979Y9164400D01*
X-5802887Y9164400D01*
X-5789069Y9194658D01*
X-5769610Y9330000D01*
X-5789069Y9465342D01*
X-5817435Y9527455D01*
X-5845868Y9589715D01*
X-5845873Y9589722D01*
X-5935410Y9693054D01*
X-5935414Y9693058D01*
X-6050441Y9766979D01*
X-6181632Y9805500D01*
X-6181633Y9805500D01*
X-6318367Y9805500D01*
X-6318368Y9805500D01*
X-6449560Y9766979D01*
X-6564587Y9693058D01*
X-6564591Y9693054D01*
X-6654128Y9589722D01*
X-6654133Y9589715D01*
X-6710930Y9465346D01*
X-6710932Y9465338D01*
X-6730390Y9330000D01*
X-9428554Y9330000D01*
X-9181893Y9576662D01*
X-9195696Y9585335D01*
X-9365862Y9644879D01*
X-9544997Y9665062D01*
X-9545003Y9665062D01*
X-9724139Y9644879D01*
X-9724142Y9644878D01*
X-9894299Y9585338D01*
X-9894309Y9585333D01*
X-9908109Y9576663D01*
X-10581895Y9576663D01*
X-10595696Y9585335D01*
X-10765862Y9644879D01*
X-10944997Y9665062D01*
X-10945003Y9665062D01*
X-11124139Y9644879D01*
X-11124142Y9644878D01*
X-11294299Y9585338D01*
X-11294309Y9585333D01*
X-11308109Y9576663D01*
X-22006889Y9576663D01*
X-21997350Y9598842D01*
X-21997459Y10110000D01*
X-2420390Y10110000D01*
X-2400932Y9974663D01*
X-2400930Y9974655D01*
X-2344133Y9850286D01*
X-2344128Y9850279D01*
X-2254591Y9746947D01*
X-2254587Y9746943D01*
X-2205413Y9715342D01*
X-2139561Y9673022D01*
X-2073964Y9653761D01*
X-2008368Y9634500D01*
X-2008367Y9634500D01*
X-1871633Y9634500D01*
X-1740439Y9673022D01*
X-1625411Y9746945D01*
X-1535870Y9850282D01*
X-1479069Y9974658D01*
X-1459610Y10110000D01*
X-1470741Y10187418D01*
X-1460797Y10256575D01*
X-1415042Y10309379D01*
X-1348003Y10329064D01*
X-1280964Y10309379D01*
X-1279112Y10308166D01*
X-1275421Y10305700D01*
X-1275420Y10305699D01*
X-1153269Y10224080D01*
X-1017542Y10167860D01*
X-892851Y10143058D01*
X-873460Y10139201D01*
X-873456Y10139200D01*
X-873455Y10139200D01*
X-726544Y10139200D01*
X-726543Y10139201D01*
X-582458Y10167860D01*
X-446731Y10224080D01*
X-324580Y10305699D01*
X-220699Y10409580D01*
X-139080Y10531731D01*
X-82860Y10667458D01*
X-54200Y10811545D01*
X-54200Y10958455D01*
X-82860Y11102542D01*
X-139080Y11238269D01*
X-139083Y11238274D01*
X-139084Y11238276D01*
X-220699Y11360420D01*
X-220702Y11360424D01*
X-324577Y11464299D01*
X-324581Y11464302D01*
X-446725Y11545917D01*
X-446734Y11545922D01*
X-557389Y11591756D01*
X-582458Y11602140D01*
X-582462Y11602141D01*
X-582466Y11602142D01*
X-726541Y11630800D01*
X-726545Y11630800D01*
X-873455Y11630800D01*
X-873460Y11630800D01*
X-1017535Y11602142D01*
X-1017549Y11602138D01*
X-1132681Y11554449D01*
X-1202150Y11546980D01*
X-1264629Y11578256D01*
X-1300281Y11638345D01*
X-1297787Y11708170D01*
X-1292934Y11720507D01*
X-1259069Y11794658D01*
X-1239610Y11930000D01*
X-1245859Y11973460D01*
X6074200Y11973460D01*
X6074200Y11826541D01*
X6102858Y11682466D01*
X6102860Y11682458D01*
X6107905Y11670279D01*
X6159078Y11546734D01*
X6159083Y11546725D01*
X6240698Y11424581D01*
X6240701Y11424577D01*
X6344576Y11320702D01*
X6344580Y11320699D01*
X6466724Y11239084D01*
X6466733Y11239079D01*
X6491800Y11228696D01*
X6602458Y11182860D01*
X6746540Y11154201D01*
X6746544Y11154200D01*
X6746545Y11154200D01*
X6893456Y11154200D01*
X6893457Y11154201D01*
X7037542Y11182860D01*
X7173269Y11239080D01*
X7295420Y11320699D01*
X7399301Y11424580D01*
X7480920Y11546731D01*
X7537140Y11682458D01*
X7558124Y11787952D01*
X13719733Y11787952D01*
X13719733Y11787951D01*
X13740289Y11566102D01*
X13801262Y11351809D01*
X13801269Y11351791D01*
X13900571Y11152365D01*
X14034842Y10974563D01*
X14199491Y10824466D01*
X14199493Y10824464D01*
X14388917Y10707178D01*
X14388918Y10707178D01*
X14388921Y10707176D01*
X14596676Y10626691D01*
X14815683Y10585751D01*
X14815685Y10585751D01*
X15038481Y10585751D01*
X15038483Y10585751D01*
X15257490Y10626691D01*
X15465245Y10707176D01*
X15654674Y10824465D01*
X15819325Y10974565D01*
X15953593Y11152363D01*
X16023521Y11292798D01*
X16052896Y11351791D01*
X16052897Y11351796D01*
X16052903Y11351806D01*
X16113876Y11566101D01*
X16134433Y11787951D01*
X16124714Y11892833D01*
X16113876Y12009801D01*
X16095653Y12073846D01*
X16052903Y12224096D01*
X16052899Y12224104D01*
X16052896Y12224112D01*
X15953594Y12423538D01*
X15819323Y12601340D01*
X15654674Y12751437D01*
X15654672Y12751439D01*
X15465248Y12868725D01*
X15465242Y12868727D01*
X15257490Y12949211D01*
X15038483Y12990151D01*
X14815683Y12990151D01*
X14596676Y12949211D01*
X14465294Y12898314D01*
X14388923Y12868727D01*
X14388917Y12868725D01*
X14199493Y12751439D01*
X14199491Y12751437D01*
X14034842Y12601340D01*
X13900571Y12423538D01*
X13801269Y12224112D01*
X13801262Y12224094D01*
X13740289Y12009801D01*
X13719733Y11787952D01*
X7558124Y11787952D01*
X7565800Y11826545D01*
X7565800Y11973455D01*
X7537140Y12117542D01*
X7489915Y12231554D01*
X7480921Y12253267D01*
X7480916Y12253276D01*
X7399301Y12375420D01*
X7399298Y12375424D01*
X7295423Y12479299D01*
X7295419Y12479302D01*
X7173275Y12560917D01*
X7173266Y12560922D01*
X7037544Y12617139D01*
X7037545Y12617139D01*
X7037542Y12617140D01*
X7037538Y12617141D01*
X7037534Y12617142D01*
X6893459Y12645800D01*
X6893455Y12645800D01*
X6746545Y12645800D01*
X6746540Y12645800D01*
X6602465Y12617142D01*
X6602455Y12617139D01*
X6466733Y12560922D01*
X6466724Y12560917D01*
X6344580Y12479302D01*
X6344576Y12479299D01*
X6240701Y12375424D01*
X6240698Y12375420D01*
X6159083Y12253276D01*
X6159078Y12253267D01*
X6102861Y12117545D01*
X6102858Y12117535D01*
X6074200Y11973460D01*
X-1245859Y11973460D01*
X-1259069Y12065342D01*
X-1259134Y12065483D01*
X-1259155Y12065631D01*
X-1261567Y12073846D01*
X-1260386Y12074193D01*
X-1269077Y12134640D01*
X-1240052Y12198196D01*
X-1181274Y12235970D01*
X-1111404Y12235970D01*
X-1098890Y12231556D01*
X-1017542Y12197860D01*
X-873460Y12169201D01*
X-873456Y12169200D01*
X-873455Y12169200D01*
X-726544Y12169200D01*
X-726543Y12169201D01*
X-582458Y12197860D01*
X-446731Y12254080D01*
X-324580Y12335699D01*
X-220699Y12439580D01*
X-139080Y12561731D01*
X-82860Y12697458D01*
X-54200Y12841545D01*
X-54200Y12850000D01*
X9429610Y12850000D01*
X9449068Y12714663D01*
X9449070Y12714655D01*
X9505867Y12590286D01*
X9505872Y12590279D01*
X9595409Y12486947D01*
X9595413Y12486943D01*
X9644649Y12455302D01*
X9710439Y12413022D01*
X9736057Y12405500D01*
X9841632Y12374500D01*
X9841633Y12374500D01*
X9978367Y12374500D01*
X10109561Y12413022D01*
X10224589Y12486945D01*
X10314130Y12590282D01*
X10370931Y12714658D01*
X10390390Y12850000D01*
X10370931Y12985342D01*
X10347130Y13037459D01*
X10314132Y13109715D01*
X10314127Y13109722D01*
X10224590Y13213054D01*
X10224586Y13213058D01*
X10109559Y13286979D01*
X9978368Y13325500D01*
X9978367Y13325500D01*
X9841633Y13325500D01*
X9841632Y13325500D01*
X9710440Y13286979D01*
X9595413Y13213058D01*
X9595409Y13213054D01*
X9505872Y13109722D01*
X9505867Y13109715D01*
X9449070Y12985346D01*
X9449068Y12985338D01*
X9429610Y12850000D01*
X-54200Y12850000D01*
X-54200Y12988455D01*
X-82860Y13132542D01*
X-138531Y13266943D01*
X-139079Y13268267D01*
X-139084Y13268276D01*
X-220699Y13390420D01*
X-220702Y13390424D01*
X-324577Y13494299D01*
X-324581Y13494302D01*
X-446725Y13575917D01*
X-446734Y13575922D01*
X-582456Y13632139D01*
X-582455Y13632139D01*
X-582458Y13632140D01*
X-582462Y13632141D01*
X-582466Y13632142D01*
X-726541Y13660800D01*
X-726545Y13660800D01*
X-873455Y13660800D01*
X-873460Y13660800D01*
X-1017535Y13632142D01*
X-1017545Y13632139D01*
X-1153267Y13575922D01*
X-1153276Y13575917D01*
X-1275420Y13494302D01*
X-1275424Y13494299D01*
X-1379299Y13390424D01*
X-1379302Y13390420D01*
X-1460917Y13268276D01*
X-1460922Y13268267D01*
X-1517139Y13132545D01*
X-1517142Y13132535D01*
X-1545800Y12988460D01*
X-1545800Y12841541D01*
X-1517142Y12697466D01*
X-1517139Y12697456D01*
X-1460023Y12559565D01*
X-1452554Y12490095D01*
X-1483829Y12427616D01*
X-1543918Y12391964D01*
X-1609518Y12393135D01*
X-1651630Y12405500D01*
X-1651633Y12405500D01*
X-1788367Y12405500D01*
X-1788368Y12405500D01*
X-1919560Y12366979D01*
X-2034587Y12293058D01*
X-2034591Y12293054D01*
X-2124128Y12189722D01*
X-2124133Y12189715D01*
X-2180930Y12065346D01*
X-2180932Y12065338D01*
X-2200390Y11930000D01*
X-2180932Y11794663D01*
X-2180930Y11794655D01*
X-2124133Y11670286D01*
X-2124128Y11670279D01*
X-2034591Y11566947D01*
X-2034587Y11566943D01*
X-1974021Y11528021D01*
X-1919561Y11493022D01*
X-1877477Y11480665D01*
X-1788368Y11454500D01*
X-1788367Y11454500D01*
X-1651633Y11454500D01*
X-1562523Y11480665D01*
X-1492655Y11480665D01*
X-1433876Y11442891D01*
X-1404851Y11379336D01*
X-1414794Y11310177D01*
X-1424486Y11292798D01*
X-1460918Y11238274D01*
X-1460922Y11238267D01*
X-1517139Y11102545D01*
X-1517142Y11102535D01*
X-1545800Y10958460D01*
X-1545800Y10811541D01*
X-1517142Y10667463D01*
X-1515507Y10662075D01*
X-1514884Y10592208D01*
X-1552133Y10533096D01*
X-1615427Y10503505D01*
X-1684672Y10512832D01*
X-1701206Y10521765D01*
X-1740441Y10546979D01*
X-1871632Y10585500D01*
X-1871633Y10585500D01*
X-2008367Y10585500D01*
X-2008368Y10585500D01*
X-2139560Y10546979D01*
X-2254587Y10473058D01*
X-2254591Y10473054D01*
X-2344128Y10369722D01*
X-2344133Y10369715D01*
X-2400930Y10245346D01*
X-2400932Y10245338D01*
X-2420390Y10110000D01*
X-21997459Y10110000D01*
X-21997682Y11152365D01*
X-21998016Y12715016D01*
X-4625406Y12715016D01*
X-4605948Y12579679D01*
X-4605946Y12579671D01*
X-4549149Y12455302D01*
X-4549144Y12455295D01*
X-4459607Y12351963D01*
X-4459603Y12351959D01*
X-4399037Y12313037D01*
X-4344577Y12278038D01*
X-4278980Y12258777D01*
X-4213384Y12239516D01*
X-4213383Y12239516D01*
X-4076649Y12239516D01*
X-3945455Y12278038D01*
X-3830427Y12351961D01*
X-3740886Y12455298D01*
X-3684085Y12579674D01*
X-3664626Y12715016D01*
X-3684085Y12850358D01*
X-3696339Y12877189D01*
X-3740884Y12974731D01*
X-3740889Y12974738D01*
X-3830426Y13078070D01*
X-3830430Y13078074D01*
X-3945457Y13151995D01*
X-4076648Y13190516D01*
X-4076649Y13190516D01*
X-4213383Y13190516D01*
X-4213384Y13190516D01*
X-4344576Y13151995D01*
X-4459603Y13078074D01*
X-4459607Y13078070D01*
X-4549144Y12974738D01*
X-4549149Y12974731D01*
X-4605946Y12850362D01*
X-4605948Y12850354D01*
X-4625406Y12715016D01*
X-21998016Y12715016D01*
X-21998128Y13240000D01*
X-8460390Y13240000D01*
X-8440932Y13104663D01*
X-8440930Y13104655D01*
X-8384133Y12980286D01*
X-8384128Y12980279D01*
X-8294591Y12876947D01*
X-8294587Y12876943D01*
X-8239505Y12841545D01*
X-8179561Y12803022D01*
X-8113964Y12783761D01*
X-8048368Y12764500D01*
X-8048367Y12764500D01*
X-7911633Y12764500D01*
X-7780439Y12803022D01*
X-7665411Y12876945D01*
X-7575870Y12980282D01*
X-7519069Y13104658D01*
X-7499610Y13240000D01*
X-7519069Y13375342D01*
X-7548137Y13438991D01*
X-7558080Y13508147D01*
X-7529055Y13571702D01*
X-7470277Y13609477D01*
X-7435342Y13614500D01*
X-7401633Y13614500D01*
X-7270439Y13653022D01*
X-7155411Y13726945D01*
X-7065870Y13830282D01*
X-7009069Y13954658D01*
X-6989610Y14090000D01*
X-4960390Y14090000D01*
X-4940932Y13954663D01*
X-4940930Y13954655D01*
X-4884133Y13830286D01*
X-4884128Y13830279D01*
X-4794591Y13726947D01*
X-4794587Y13726943D01*
X-4734021Y13688021D01*
X-4679561Y13653022D01*
X-4613964Y13633761D01*
X-4548368Y13614500D01*
X-4548367Y13614500D01*
X-4411633Y13614500D01*
X-4280439Y13653022D01*
X-4165411Y13726945D01*
X-4075870Y13830282D01*
X-4019069Y13954658D01*
X-3999610Y14090000D01*
X-4019069Y14225342D01*
X-4051109Y14295500D01*
X-4075868Y14349715D01*
X-4075873Y14349722D01*
X-4165410Y14453054D01*
X-4165414Y14453058D01*
X-4280441Y14526979D01*
X-4369636Y14553169D01*
X-332950Y14553169D01*
X-332950Y14326831D01*
X-327575Y14292894D01*
X-297542Y14103278D01*
X-297542Y14103275D01*
X-227602Y13888022D01*
X-227600Y13888019D01*
X-124845Y13686350D01*
X8193Y13503239D01*
X168239Y13343193D01*
X351350Y13210155D01*
X553019Y13107400D01*
X553021Y13107399D01*
X753801Y13042163D01*
X768279Y13037458D01*
X991831Y13002050D01*
X991832Y13002050D01*
X1218168Y13002050D01*
X1218169Y13002050D01*
X1441721Y13037458D01*
X1441724Y13037459D01*
X1441725Y13037459D01*
X1656978Y13107399D01*
X1656978Y13107400D01*
X1656981Y13107400D01*
X1858650Y13210155D01*
X2041761Y13343193D01*
X2105280Y13406713D01*
X2166599Y13440195D01*
X2236291Y13435211D01*
X2292225Y13393340D01*
X2305754Y13370536D01*
X2305869Y13370284D01*
X2305872Y13370279D01*
X2395409Y13266947D01*
X2395413Y13266943D01*
X2455979Y13228021D01*
X2510439Y13193022D01*
X2576036Y13173761D01*
X2641632Y13154500D01*
X2641633Y13154500D01*
X2778367Y13154500D01*
X2909561Y13193022D01*
X3000743Y13251621D01*
X3067781Y13271304D01*
X3134817Y13251621D01*
X3210439Y13203022D01*
X3210441Y13203022D01*
X3210442Y13203021D01*
X3341632Y13164500D01*
X3341633Y13164500D01*
X3478367Y13164500D01*
X3609561Y13203022D01*
X3724589Y13276945D01*
X3814130Y13380282D01*
X3820094Y13393340D01*
X3840940Y13438988D01*
X3870931Y13504658D01*
X3890390Y13640000D01*
X3870931Y13775342D01*
X3845839Y13830286D01*
X3814132Y13899715D01*
X3814127Y13899722D01*
X3724590Y14003054D01*
X3724586Y14003058D01*
X3633736Y14061442D01*
X3609561Y14076978D01*
X3609560Y14076979D01*
X3609559Y14076979D01*
X3478368Y14115500D01*
X3478367Y14115500D01*
X3341633Y14115500D01*
X3341632Y14115500D01*
X3210443Y14076980D01*
X3210440Y14076979D01*
X3210439Y14076978D01*
X3176310Y14055045D01*
X3119257Y14018380D01*
X3052217Y13998697D01*
X2985181Y14018381D01*
X2909559Y14066979D01*
X2778368Y14105500D01*
X2778367Y14105500D01*
X2653079Y14105500D01*
X2586040Y14125185D01*
X2540285Y14177989D01*
X2530341Y14247147D01*
X2530606Y14248899D01*
X2530786Y14250031D01*
X2542950Y14326831D01*
X2542950Y14553169D01*
X5382050Y14553169D01*
X5382050Y14326831D01*
X5387425Y14292894D01*
X5417458Y14103278D01*
X5417458Y14103275D01*
X5487398Y13888022D01*
X5487400Y13888019D01*
X5590155Y13686350D01*
X5723193Y13503239D01*
X5883239Y13343193D01*
X6066350Y13210155D01*
X6268019Y13107400D01*
X6268021Y13107399D01*
X6468801Y13042163D01*
X6483279Y13037458D01*
X6706831Y13002050D01*
X6706832Y13002050D01*
X6933168Y13002050D01*
X6933169Y13002050D01*
X7156721Y13037458D01*
X7156724Y13037459D01*
X7156725Y13037459D01*
X7371978Y13107399D01*
X7371978Y13107400D01*
X7371981Y13107400D01*
X7573650Y13210155D01*
X7756761Y13343193D01*
X7916807Y13503239D01*
X8049845Y13686350D01*
X8152600Y13888019D01*
X8152601Y13888022D01*
X8222541Y14103275D01*
X8222541Y14103276D01*
X8222542Y14103279D01*
X8257950Y14326831D01*
X8257950Y14553169D01*
X8240422Y14663835D01*
X14422926Y14663835D01*
X14422926Y14663834D01*
X15220049Y14705610D01*
X15199226Y14669542D01*
X15165472Y14543570D01*
X15165472Y14413156D01*
X15199226Y14287184D01*
X15245935Y14206280D01*
X14451462Y14164644D01*
X14451462Y14164643D01*
X14482331Y14049442D01*
X14574714Y13851327D01*
X14574716Y13851323D01*
X14700097Y13672260D01*
X14854668Y13517689D01*
X15033731Y13392308D01*
X15033735Y13392306D01*
X15231852Y13299923D01*
X15231861Y13299919D01*
X15443010Y13243342D01*
X15475299Y13240518D01*
X15475300Y13240519D01*
X15433526Y14037641D01*
X15469593Y14016817D01*
X15595565Y13983063D01*
X15725979Y13983063D01*
X15851951Y14016817D01*
X15932855Y14063528D01*
X15974491Y13269054D01*
X16089682Y13299919D01*
X16089691Y13299923D01*
X16287808Y13392306D01*
X16287812Y13392308D01*
X16466875Y13517689D01*
X16621446Y13672260D01*
X16746827Y13851323D01*
X16746829Y13851327D01*
X16839212Y14049444D01*
X16839216Y14049453D01*
X16895793Y14260601D01*
X16895793Y14260602D01*
X16898617Y14292892D01*
X16898616Y14292894D01*
X16101495Y14251119D01*
X16122318Y14287184D01*
X16156072Y14413156D01*
X16156072Y14543570D01*
X16122318Y14669542D01*
X16075606Y14750449D01*
X16870081Y14792084D01*
X16839215Y14907277D01*
X16839212Y14907283D01*
X16746829Y15105400D01*
X16746827Y15105404D01*
X16621446Y15284467D01*
X16466875Y15439038D01*
X16287812Y15564419D01*
X16287808Y15564421D01*
X16089691Y15656804D01*
X16089685Y15656807D01*
X15878542Y15713383D01*
X15878535Y15713384D01*
X15846241Y15716210D01*
X15888016Y14919087D01*
X15851951Y14939909D01*
X15725979Y14973663D01*
X15595565Y14973663D01*
X15469593Y14939909D01*
X15388686Y14893198D01*
X15347051Y15687673D01*
X15347050Y15687674D01*
X15231857Y15656807D01*
X15231854Y15656806D01*
X15033735Y15564421D01*
X15033731Y15564419D01*
X14854668Y15439038D01*
X14700097Y15284467D01*
X14574716Y15105404D01*
X14574714Y15105400D01*
X14482331Y14907283D01*
X14482328Y14907277D01*
X14425752Y14696134D01*
X14425751Y14696127D01*
X14422926Y14663835D01*
X8240422Y14663835D01*
X8222542Y14776721D01*
X8222541Y14776725D01*
X8222541Y14776726D01*
X8152601Y14991979D01*
X8152599Y14991982D01*
X8049844Y15193651D01*
X7916807Y15376761D01*
X7756761Y15536807D01*
X7573650Y15669845D01*
X7371981Y15772600D01*
X7371978Y15772602D01*
X7156723Y15842542D01*
X7007686Y15866148D01*
X6933169Y15877950D01*
X6706831Y15877950D01*
X6632313Y15866148D01*
X6483277Y15842542D01*
X6483274Y15842542D01*
X6268021Y15772602D01*
X6268018Y15772600D01*
X6066349Y15669845D01*
X5961878Y15593942D01*
X5883239Y15536807D01*
X5883237Y15536805D01*
X5883236Y15536805D01*
X5723195Y15376764D01*
X5723195Y15376763D01*
X5723193Y15376761D01*
X5679991Y15317298D01*
X5590155Y15193651D01*
X5487400Y14991982D01*
X5487398Y14991979D01*
X5417458Y14776726D01*
X5417458Y14776723D01*
X5417458Y14776721D01*
X5382050Y14553169D01*
X2542950Y14553169D01*
X2507542Y14776721D01*
X2507541Y14776725D01*
X2507541Y14776726D01*
X2437601Y14991979D01*
X2437599Y14991982D01*
X2334844Y15193651D01*
X2201807Y15376761D01*
X2041761Y15536807D01*
X1858650Y15669845D01*
X1656981Y15772600D01*
X1656978Y15772602D01*
X1441723Y15842542D01*
X1292686Y15866148D01*
X1218169Y15877950D01*
X991831Y15877950D01*
X917313Y15866148D01*
X768277Y15842542D01*
X768274Y15842542D01*
X553021Y15772602D01*
X553018Y15772600D01*
X351349Y15669845D01*
X246878Y15593942D01*
X168239Y15536807D01*
X168237Y15536805D01*
X168236Y15536805D01*
X8195Y15376764D01*
X8195Y15376763D01*
X8193Y15376761D01*
X-35009Y15317298D01*
X-124845Y15193651D01*
X-227600Y14991982D01*
X-227602Y14991979D01*
X-297542Y14776726D01*
X-297542Y14776723D01*
X-297542Y14776721D01*
X-332950Y14553169D01*
X-4369636Y14553169D01*
X-4411632Y14565500D01*
X-4411633Y14565500D01*
X-4548367Y14565500D01*
X-4548368Y14565500D01*
X-4679560Y14526979D01*
X-4794587Y14453058D01*
X-4794591Y14453054D01*
X-4884128Y14349722D01*
X-4884133Y14349715D01*
X-4940930Y14225346D01*
X-4940932Y14225338D01*
X-4960390Y14090000D01*
X-6989610Y14090000D01*
X-7009069Y14225342D01*
X-7041109Y14295500D01*
X-7065868Y14349715D01*
X-7065873Y14349722D01*
X-7155410Y14453054D01*
X-7155414Y14453058D01*
X-7270441Y14526979D01*
X-7401632Y14565500D01*
X-7401633Y14565500D01*
X-7538367Y14565500D01*
X-7538368Y14565500D01*
X-7669560Y14526979D01*
X-7784587Y14453058D01*
X-7784591Y14453054D01*
X-7874128Y14349722D01*
X-7874133Y14349715D01*
X-7930930Y14225346D01*
X-7930932Y14225338D01*
X-7950390Y14090000D01*
X-7931030Y13955342D01*
X-7930931Y13954658D01*
X-7901864Y13891010D01*
X-7891920Y13821853D01*
X-7920945Y13758298D01*
X-7979723Y13720523D01*
X-8014658Y13715500D01*
X-8048368Y13715500D01*
X-8179560Y13676979D01*
X-8294587Y13603058D01*
X-8294591Y13603054D01*
X-8384128Y13499722D01*
X-8384133Y13499715D01*
X-8440930Y13375346D01*
X-8440932Y13375338D01*
X-8460390Y13240000D01*
X-21998128Y13240000D01*
X-21998252Y13820000D01*
X-19930390Y13820000D01*
X-19910932Y13684663D01*
X-19910930Y13684655D01*
X-19854133Y13560286D01*
X-19854128Y13560279D01*
X-19764591Y13456947D01*
X-19764587Y13456943D01*
X-19730770Y13435211D01*
X-19649561Y13383022D01*
X-19606162Y13370279D01*
X-19518368Y13344500D01*
X-19518367Y13344500D01*
X-19381633Y13344500D01*
X-19250439Y13383022D01*
X-19135411Y13456945D01*
X-19045870Y13560282D01*
X-18989069Y13684658D01*
X-18969610Y13820000D01*
X-18989069Y13955342D01*
X-19017144Y14016817D01*
X-19045868Y14079715D01*
X-19045873Y14079722D01*
X-19135410Y14183054D01*
X-19135414Y14183058D01*
X-19226807Y14241791D01*
X-19250439Y14256978D01*
X-19250440Y14256979D01*
X-19250441Y14256979D01*
X-19252134Y14257476D01*
X-13134307Y14257476D01*
X-13114849Y14122139D01*
X-13114847Y14122131D01*
X-13058050Y13997762D01*
X-13058045Y13997755D01*
X-12968508Y13894423D01*
X-12968504Y13894419D01*
X-12907938Y13855497D01*
X-12853478Y13820498D01*
X-12787881Y13801237D01*
X-12722285Y13781976D01*
X-12722284Y13781976D01*
X-12585550Y13781976D01*
X-12454356Y13820498D01*
X-12339328Y13894421D01*
X-12249787Y13997758D01*
X-12247366Y14003058D01*
X-12218175Y14066979D01*
X-12196384Y14114693D01*
X-9745083Y14114693D01*
X-9725625Y13979356D01*
X-9725623Y13979348D01*
X-9668826Y13854979D01*
X-9668821Y13854972D01*
X-9579284Y13751640D01*
X-9579280Y13751636D01*
X-9523049Y13715500D01*
X-9464254Y13677715D01*
X-9406647Y13660800D01*
X-9333061Y13639193D01*
X-9333060Y13639193D01*
X-9196326Y13639193D01*
X-9065132Y13677715D01*
X-8950104Y13751638D01*
X-8860563Y13854975D01*
X-8803762Y13979351D01*
X-8784303Y14114693D01*
X-8803762Y14250035D01*
X-8824525Y14295500D01*
X-8860561Y14374408D01*
X-8860566Y14374415D01*
X-8950103Y14477747D01*
X-8950107Y14477751D01*
X-9040957Y14536135D01*
X-9065132Y14551671D01*
X-9065133Y14551672D01*
X-9065134Y14551672D01*
X-9196325Y14590193D01*
X-9196326Y14590193D01*
X-9333060Y14590193D01*
X-9333061Y14590193D01*
X-9464253Y14551672D01*
X-9579280Y14477751D01*
X-9579284Y14477747D01*
X-9668821Y14374415D01*
X-9668826Y14374408D01*
X-9725623Y14250039D01*
X-9725625Y14250031D01*
X-9745083Y14114693D01*
X-12196384Y14114693D01*
X-12192986Y14122134D01*
X-12173527Y14257476D01*
X-12192986Y14392818D01*
X-12220495Y14453054D01*
X-12249785Y14517191D01*
X-12249790Y14517198D01*
X-12339327Y14620530D01*
X-12339331Y14620534D01*
X-12454358Y14694455D01*
X-12585549Y14732976D01*
X-12585550Y14732976D01*
X-12722284Y14732976D01*
X-12722285Y14732976D01*
X-12853477Y14694455D01*
X-12968504Y14620534D01*
X-12968508Y14620530D01*
X-13058045Y14517198D01*
X-13058050Y14517191D01*
X-13114847Y14392822D01*
X-13114849Y14392814D01*
X-13134307Y14257476D01*
X-19252134Y14257476D01*
X-19381632Y14295500D01*
X-19381633Y14295500D01*
X-19518367Y14295500D01*
X-19518368Y14295500D01*
X-19649560Y14256979D01*
X-19764587Y14183058D01*
X-19764591Y14183054D01*
X-19854128Y14079722D01*
X-19854133Y14079715D01*
X-19910930Y13955346D01*
X-19910932Y13955338D01*
X-19930390Y13820000D01*
X-21998252Y13820000D01*
X-21998835Y16545973D01*
X-21979165Y16613017D01*
X-21926371Y16658783D01*
X-21874835Y16670000D01*
X1755000Y16670000D01*
X1755000Y16762561D01*
X1774685Y16829600D01*
X1827489Y16875355D01*
X1878921Y16886561D01*
X6441923Y16889304D01*
X6508972Y16869661D01*
X6540948Y16840033D01*
X6564190Y16809257D01*
X6564190Y16809256D01*
X6728840Y16659158D01*
X6728842Y16659156D01*
X6918266Y16541870D01*
X6918267Y16541870D01*
X6918270Y16541868D01*
X7126025Y16461383D01*
X7345032Y16420443D01*
X7345034Y16420443D01*
X7567830Y16420443D01*
X7567832Y16420443D01*
X7786839Y16461383D01*
X7994594Y16541868D01*
X8184023Y16659157D01*
X8322127Y16785057D01*
X8384930Y16815673D01*
X8454318Y16807476D01*
X8508258Y16763066D01*
X8529626Y16696544D01*
X8529136Y16681978D01*
X8510287Y16478559D01*
X8510287Y16478557D01*
X8530843Y16256708D01*
X8591816Y16042415D01*
X8591823Y16042397D01*
X8691125Y15842971D01*
X8825396Y15665169D01*
X8990045Y15515072D01*
X8990047Y15515070D01*
X9179471Y15397784D01*
X9179472Y15397784D01*
X9179475Y15397782D01*
X9387230Y15317297D01*
X9606237Y15276357D01*
X9606239Y15276357D01*
X9829035Y15276357D01*
X9829037Y15276357D01*
X10048044Y15317297D01*
X10255799Y15397782D01*
X10445228Y15515071D01*
X10609879Y15665171D01*
X10744147Y15842969D01*
X10843457Y16042412D01*
X10904430Y16256707D01*
X10924987Y16478557D01*
X10904430Y16700407D01*
X10894838Y16734119D01*
X10895424Y16803986D01*
X10933691Y16862445D01*
X10997488Y16890936D01*
X11014017Y16892054D01*
X11389917Y16892280D01*
X11456967Y16872636D01*
X11485842Y16846946D01*
X11536634Y16785056D01*
X11570706Y16743539D01*
X11730557Y16612352D01*
X11730560Y16612350D01*
X11912927Y16514873D01*
X11912930Y16514873D01*
X11912934Y16514870D01*
X12110822Y16454841D01*
X12316619Y16434572D01*
X12522416Y16454841D01*
X12720304Y16514870D01*
X12902679Y16612351D01*
X13062532Y16743539D01*
X13148311Y16848062D01*
X13206053Y16887394D01*
X13244082Y16893395D01*
X16990723Y16895648D01*
X17057773Y16876004D01*
G37*
%TD.AperFunction*%
%TD*%
M02*
