%TF.GenerationSoftware,KiCad,Pcbnew,8.0.5*%
%TF.CreationDate,2025-01-09T20:26:42+01:00*%
%TF.ProjectId,test,74657374-2e6b-4696-9361-645f70636258,rev?*%
%TF.SameCoordinates,PX517370cPY341b1c8*%
%TF.FileFunction,Copper,L2,Inr*%
%TF.FilePolarity,Positive*%
%FSLAX46Y46*%
G04 Gerber Fmt 4.6, Leading zero omitted, Abs format (unit mm)*
G04 Created by KiCad (PCBNEW 8.0.5) date 2025-01-09 20:26:42*
%MOMM*%
%LPD*%
G01*
G04 APERTURE LIST*
%TA.AperFunction,ComponentPad*%
%ADD10C,1.803400*%
%TD*%
%TA.AperFunction,ComponentPad*%
%ADD11C,1.498600*%
%TD*%
%TA.AperFunction,ComponentPad*%
%ADD12O,1.000000X2.100000*%
%TD*%
%TA.AperFunction,ComponentPad*%
%ADD13O,1.000000X1.600000*%
%TD*%
%TA.AperFunction,HeatsinkPad*%
%ADD14C,0.600000*%
%TD*%
%TA.AperFunction,ViaPad*%
%ADD15C,0.400000*%
%TD*%
%TA.AperFunction,Conductor*%
%ADD16C,0.250000*%
%TD*%
%TA.AperFunction,Conductor*%
%ADD17C,1.000000*%
%TD*%
%TA.AperFunction,Conductor*%
%ADD18C,0.500000*%
%TD*%
%TA.AperFunction,Conductor*%
%ADD19C,0.400000*%
%TD*%
%TA.AperFunction,Conductor*%
%ADD20C,0.160000*%
%TD*%
%TA.AperFunction,Conductor*%
%ADD21C,0.200000*%
%TD*%
G04 APERTURE END LIST*
D10*
%TO.N,*%
%TO.C,SW2*%
X14927083Y11787951D03*
X9717637Y16478557D03*
D11*
%TO.N,GND*%
X15660772Y14478363D03*
%TO.N,SW_L2*%
X12316619Y17489452D03*
%TD*%
D12*
%TO.N,*%
%TO.C,P1*%
X-4320000Y-17080000D03*
D13*
X-4320000Y-21260000D03*
D12*
X4320000Y-17080000D03*
D13*
%TO.N,Net-(P1-SHIELD)*%
X4320000Y-21260000D03*
%TD*%
D10*
%TO.N,*%
%TO.C,SW1*%
X7456432Y17622643D03*
X599616Y19080103D03*
D11*
%TO.N,GND*%
X6746619Y20319452D03*
%TO.N,SW_L3*%
X2344953Y21255056D03*
%TD*%
D14*
%TO.N,GND*%
%TO.C,U2*%
X-8845000Y6760000D03*
X-8845000Y8160000D03*
X-9545000Y6060000D03*
X-9545000Y7460000D03*
X-9545000Y8860000D03*
X-10245000Y6760000D03*
X-10245000Y8160000D03*
X-10945000Y6060000D03*
X-10945000Y7460000D03*
X-10945000Y8860000D03*
X-11645000Y6760000D03*
X-11645000Y8160000D03*
%TD*%
D15*
%TO.N,GND*%
X-22920000Y60000D03*
X3400000Y4450000D03*
X11370000Y9810000D03*
X-4910000Y1460000D03*
X-1670000Y15400000D03*
X-3940000Y-13322700D03*
X-13780000Y15130000D03*
X-15740000Y14170000D03*
X14750000Y-17710000D03*
X19990000Y9870000D03*
X10710000Y-2760000D03*
X-2030000Y-19260000D03*
X-4150000Y-15260000D03*
X18600000Y-13200000D03*
X200000Y-3490000D03*
X-7550000Y10680000D03*
X-4390000Y11510000D03*
X-7420000Y15830000D03*
X5160000Y-5280000D03*
X-12890000Y-12090000D03*
X-16270000Y-5490000D03*
X1580000Y-19310000D03*
X5600000Y-22700000D03*
X6610000Y3530000D03*
X12300000Y-16140000D03*
X5690000Y-18060000D03*
X19790000Y6650000D03*
X6010000Y-8270000D03*
X-6640000Y-18180000D03*
X16170000Y2750000D03*
X-8570000Y-10900000D03*
X18321724Y-8700000D03*
X-10120000Y470000D03*
X18010000Y12340000D03*
X-4890000Y3500000D03*
X-9450000Y-14700000D03*
X5000000Y10400000D03*
X5050000Y-6780000D03*
X-3240000Y-14910000D03*
X-4060000Y-6810000D03*
X3290000Y-3970000D03*
X21320000Y-7810000D03*
X8130000Y-21850000D03*
X17450000Y1450000D03*
X16380000Y-3740000D03*
X6420002Y4790000D03*
X2740000Y-7170000D03*
X4170000Y-15230000D03*
X-7400000Y-7020000D03*
X-15560000Y-10750000D03*
X18350000Y-2760000D03*
X19560000Y4560000D03*
X11481511Y1830000D03*
X20172490Y-5397500D03*
X11280000Y-19600000D03*
X-8140000Y-12690000D03*
X-4340000Y10020000D03*
X11420001Y5609999D03*
X-19100000Y15410000D03*
X10560000Y-480000D03*
X9380000Y-16080000D03*
X10799998Y6040000D03*
X6420000Y-6620000D03*
X1730000Y-21660000D03*
X-10250000Y-6610000D03*
X-11610000Y2540000D03*
X-22810000Y2600000D03*
X-22620000Y-2500000D03*
X-8170000Y-6570000D03*
X11340000Y-17500000D03*
X-21082000Y16002000D03*
X-13710000Y1230000D03*
X11660000Y7440000D03*
X17190000Y-13860000D03*
X-9980000Y11170000D03*
X9460000Y-4940000D03*
X-11670000Y470000D03*
X13400000Y-17500000D03*
X-22300000Y5380000D03*
X10840000Y-16120000D03*
X6930000Y-18580000D03*
X12390000Y12450000D03*
X-8290000Y-17960000D03*
%TO.N,EN*%
X-4145016Y12715016D03*
%TO.N,+3V3*%
X4460000Y-8380000D03*
X4540000Y9580000D03*
X-12653917Y14257476D03*
X2810000Y-8507657D03*
X9600000Y9930000D03*
X-5780000Y-14130000D03*
X13800000Y-5200000D03*
X-10040000Y-15920000D03*
X-4045538Y13910000D03*
X-6250000Y9330000D03*
X19570000Y-2799998D03*
X-14267500Y7200000D03*
X-7470000Y14090000D03*
%TO.N,VSYS*%
X-9510000Y-10180000D03*
X14710000Y-8150000D03*
X10200000Y-5200000D03*
X11600000Y-13170000D03*
X3470000Y9780000D03*
X-13600000Y-200000D03*
X-1240000Y830000D03*
%TO.N,CAM_PCLK*%
X14050000Y3720000D03*
%TO.N,+2V8*%
X16354141Y-2759998D03*
%TO.N,VBUS*%
X6840000Y-13960000D03*
X7980000Y-13960000D03*
%TO.N,SW_L3*%
X-19450000Y13820000D03*
%TO.N,SW_L1*%
X-15150000Y-70000D03*
%TO.N,Net-(D1-K)*%
X5780000Y-13230000D03*
X7390000Y-10780000D03*
%TO.N,+3V3CAM*%
X12460000Y-650000D03*
X15200000Y-11400000D03*
X13200000Y-6400000D03*
X9200000Y0D03*
X9890000Y6820000D03*
%TO.N,LEDCNTRL*%
X-9530000Y1720000D03*
%TO.N,RXD*%
X2710000Y13630000D03*
X-7980000Y13240000D03*
%TO.N,TXD*%
X3410000Y13640000D03*
X-9264693Y14114693D03*
%TO.N,GPIO0*%
X-713589Y9164400D03*
X-6340000Y7310000D03*
%TO.N,GPIO46*%
X-5810000Y1000000D03*
X2530000Y8170000D03*
%TO.N,CAM_PWDN*%
X16690000Y-740000D03*
%TO.N,CAM_RESET*%
X10000000Y700000D03*
X16130000Y-1800000D03*
X-19200000Y8800000D03*
%TO.N,PMIC_PWRON*%
X13530000Y-11210000D03*
X-2310000Y-22590000D03*
%TO.N,I2SDAT_MIC*%
X-19170000Y5250000D03*
%TO.N,CAM_SDA*%
X8990000Y-12050000D03*
%TO.N,CAM_SCL*%
X7970000Y-11400000D03*
%TO.N,PMIC_IRQ*%
X-19110000Y6510000D03*
X-1330000Y-10120000D03*
%TO.N,BCLK_AMP*%
X-15900000Y-9930000D03*
X-13360000Y-7580000D03*
%TO.N,WS_AMP*%
X-14180000Y-11800000D03*
X-12440000Y-7760000D03*
%TO.N,CAM_Y3*%
X-1940000Y10110000D03*
%TO.N,CAM_MCLK*%
X8470000Y1770000D03*
%TO.N,BCLK_MIC*%
X-15030000Y-4880000D03*
%TO.N,CAM_Y5*%
X14120000Y5230000D03*
%TO.N,CAM_Y6*%
X16550000Y4260000D03*
%TO.N,WS_MIC*%
X-13920000Y-5490000D03*
%TO.N,CAM_Y4*%
X-1720000Y11930000D03*
%TO.N,CAM_Y8*%
X14380000Y2380000D03*
%TO.N,CAM_VSYNC*%
X12200000Y-3600000D03*
X17550000Y-1020000D03*
X-13000000Y5200000D03*
%TO.N,CAM_Y9*%
X16230000Y1250000D03*
%TO.N,CAM_Y2*%
X16579376Y5010624D03*
%TO.N,CAM_HREF*%
X14400000Y-400000D03*
%TO.N,CAM_Y7*%
X14430000Y3130000D03*
%TO.N,+1V5*%
X13534976Y-2463401D03*
%TO.N,Net-(JP2-A)*%
X-9340000Y-20070000D03*
%TO.N,Net-(JP3-A)*%
X-17140000Y-1300000D03*
%TD*%
D16*
%TO.N,+3V3*%
X-14267500Y7200000D02*
X-14267500Y12039518D01*
D17*
X9600000Y8400000D02*
X15400000Y8400000D01*
X-1660401Y7950402D02*
X-2290000Y8580000D01*
D16*
X-12617397Y14272603D02*
X-12330000Y14560000D01*
D17*
X19560000Y1640000D02*
X19560000Y-2503432D01*
X19570000Y-4040000D02*
X19570000Y-2799998D01*
X17800000Y3400000D02*
X19560000Y1640000D01*
D16*
X-7863517Y14483518D02*
X-7470000Y14090000D01*
D17*
X9104939Y8194939D02*
X7780000Y6870000D01*
X17060000Y-7610660D02*
X17060000Y-9200000D01*
D18*
X3944976Y-14102700D02*
X3750000Y-14102700D01*
X3750000Y-14102700D02*
X-5752700Y-14102700D01*
D19*
X-6250000Y9330000D02*
X-6250000Y13269168D01*
D17*
X-3060000Y10438944D02*
X-3060000Y12680000D01*
X-3406482Y13516482D02*
X-3440000Y13550000D01*
D16*
X-11678163Y14830000D02*
X-8700000Y14830000D01*
D18*
X4540000Y9580000D02*
X4540000Y6044142D01*
X5376948Y-14986948D02*
X4880000Y-14490000D01*
D17*
X4550000Y6020000D02*
X3000000Y6020000D01*
X5727919Y6020000D02*
X4550000Y6020000D01*
X14400000Y-5800000D02*
X17810000Y-5800000D01*
X-3440000Y13550000D02*
X-3626446Y13736447D01*
X17810000Y-5800000D02*
X19570000Y-4040000D01*
D18*
X-5752700Y-14102700D02*
X-5780000Y-14130000D01*
D17*
X19573086Y-2569477D02*
X19570000Y-2572563D01*
X19570000Y-2572563D02*
X19570000Y-2799998D01*
X15645786Y-12614213D02*
X15460000Y-12800000D01*
X17800000Y6000000D02*
X17800000Y3400000D01*
X-3626446Y13736447D02*
X-3712073Y13818729D01*
D16*
X-13530000Y13820000D02*
X-13402666Y13947334D01*
D17*
X13800000Y-5200000D02*
X14400000Y-5800000D01*
X9600000Y8400000D02*
X9600000Y9930000D01*
X15400000Y8400000D02*
X17800000Y6000000D01*
X-6590000Y14090000D02*
X-7470000Y14090000D01*
X-6590000Y14090000D02*
X-4366979Y14090000D01*
D18*
X9207187Y-15390000D02*
X6350000Y-15390000D01*
D17*
X9600000Y8400000D02*
G75*
G03*
X9104944Y8194934I0J-700100D01*
G01*
D18*
X4540000Y6044142D02*
G75*
G03*
X4549988Y6019988I34100J-42D01*
G01*
X5445234Y-15015233D02*
G75*
G02*
X5376939Y-14986957I-34J96533D01*
G01*
D16*
X-12330000Y14560000D02*
G75*
G02*
X-11678163Y14829984I651800J-651800D01*
G01*
X-13402666Y13947334D02*
G75*
G02*
X-12653917Y14257492I748766J-748734D01*
G01*
D17*
X7780000Y6870000D02*
G75*
G02*
X5727919Y6019992I-2052100J2052100D01*
G01*
X17810000Y-5800000D02*
G75*
G03*
X17059984Y-7610660I1810700J-1810700D01*
G01*
X-3060000Y12680000D02*
G75*
G03*
X-3406475Y13516489I-1183000J0D01*
G01*
X-2290000Y8580000D02*
G75*
G02*
X-3059982Y10438944I1858900J1858900D01*
G01*
X17060000Y-9200000D02*
G75*
G02*
X15645781Y-12614208I-4828400J0D01*
G01*
X-4366979Y14090000D02*
G75*
G02*
X-3712079Y13818723I-21J-926200D01*
G01*
D19*
X-7576066Y14346066D02*
G75*
G02*
X-7469991Y14090000I-256034J-256066D01*
G01*
D18*
X6350000Y-15390000D02*
G75*
G02*
X5445240Y-15015227I0J1279500D01*
G01*
D17*
X3000000Y6020000D02*
G75*
G02*
X-1660401Y7950402I0J6590800D01*
G01*
D18*
X15460000Y-12800000D02*
G75*
G02*
X9207187Y-15389995I-6252800J6252800D01*
G01*
D16*
X-14267500Y12039518D02*
G75*
G02*
X-13529995Y13819995I2518000J-18D01*
G01*
X-12653917Y14257476D02*
G75*
G03*
X-12617393Y14272599I17J51624D01*
G01*
D18*
X4880000Y-14490000D02*
G75*
G03*
X3944976Y-14102710I-935000J-935000D01*
G01*
D19*
X-6250000Y13269168D02*
G75*
G03*
X-6589990Y14090010I-1160800J32D01*
G01*
D17*
X19560000Y-2503432D02*
G75*
G03*
X19573095Y-2569473I157600J-3068D01*
G01*
D16*
X-8700000Y14830000D02*
G75*
G02*
X-7863510Y14483525I0J-1183000D01*
G01*
D17*
%TO.N,VSYS*%
X533168Y-9582452D02*
X701218Y-9678090D01*
X11580000Y-8150000D02*
X14710000Y-8150000D01*
X-8400000Y-9000000D02*
X-1710000Y-9000000D01*
X-13600000Y-3400000D02*
X-11800000Y-5200000D01*
X-9510000Y-10110000D02*
X-8400000Y-9000000D01*
D18*
X-3390000Y160000D02*
X-2730000Y820000D01*
D17*
X11580000Y-8150000D02*
X11580000Y-8018772D01*
D18*
X-1240000Y830000D02*
X-2730000Y830000D01*
D17*
X9734924Y-8150000D02*
X11580000Y-8150000D01*
X11600000Y-13220000D02*
X11590000Y-13230000D01*
X991349Y-9815480D02*
X1093674Y-9856598D01*
D18*
X-2730000Y820000D02*
X-2730000Y830000D01*
D17*
X856831Y-9756209D02*
X991349Y-9815480D01*
X-3400000Y160000D02*
X-3390000Y160000D01*
X1093674Y-9856598D02*
X1171252Y-9885315D01*
X701218Y-9678090D02*
X856831Y-9756209D01*
X1171252Y-9885315D02*
X1229924Y-9905509D01*
X11600000Y-13170000D02*
X11600000Y-13220000D01*
X1229924Y-9905509D02*
X5496751Y-9905509D01*
X-9510000Y-10180000D02*
X-9510000Y-10110000D01*
X11600000Y-8198284D02*
X11600000Y-13170000D01*
X-13600000Y-200000D02*
X-13600000Y-2200000D01*
X-1710000Y-9000000D02*
X-872995Y-9000000D01*
X-13600000Y-2200000D02*
X-13600000Y-3400000D01*
X-13600000Y-2200000D02*
X-5760000Y-2200000D01*
X-5760000Y-2200000D02*
X-3400000Y160000D01*
X-11800000Y-5200000D02*
X-11800000Y-6600000D01*
X-11800000Y-6600000D02*
X-9510000Y-8890000D01*
X-9510000Y-8890000D02*
X-9510000Y-10180000D01*
X11580000Y-8150000D02*
G75*
G02*
X11600007Y-8198284I-48300J-48300D01*
G01*
X5496751Y-9905509D02*
G75*
G03*
X7200014Y-9200014I49J2408709D01*
G01*
X11580000Y-8018772D02*
G75*
G03*
X10399992Y-5170008I-4028800J-28D01*
G01*
X7200000Y-9200000D02*
G75*
G02*
X9734924Y-8150010I2534900J-2534900D01*
G01*
X-872995Y-9000000D02*
G75*
G02*
X533163Y-9582457I-5J-1988600D01*
G01*
D18*
%TO.N,+3V3CAM*%
X13200000Y-6400000D02*
X9400000Y-2600000D01*
D19*
X9890000Y1690000D02*
X9890000Y6820000D01*
D18*
X9400000Y-2600000D02*
X9400000Y-200000D01*
D19*
X9800000Y1600000D02*
X9200000Y1000000D01*
X9200000Y1000000D02*
X9200000Y0D01*
X12460000Y-460000D02*
X12460000Y-650000D01*
X9800000Y1600000D02*
X9890000Y1690000D01*
D18*
X9400000Y-200000D02*
X9200000Y0D01*
D19*
X9890000Y1690000D02*
X10310000Y1690000D01*
X10310000Y1690000D02*
X12460000Y-460000D01*
D20*
%TO.N,CAM_RESET*%
X11014214Y-1800000D02*
X16130000Y-1800000D01*
X10002042Y697958D02*
X10002042Y-884077D01*
X10292893Y-1492893D02*
X10307107Y-1507107D01*
X10000000Y700000D02*
X10002042Y697958D01*
X10002042Y-884077D02*
G75*
G03*
X10292895Y-1492891I1018258J112577D01*
G01*
X10307107Y-1507107D02*
G75*
G03*
X11014214Y-1799990I707093J707107D01*
G01*
D21*
%TO.N,CAM_VSYNC*%
X16357868Y-4400000D02*
X15830000Y-4400000D01*
X13785786Y-3600000D02*
X12200000Y-3600000D01*
X15830000Y-4400000D02*
X15414214Y-4400000D01*
X14707107Y-4107107D02*
X14492893Y-3892893D01*
X16800000Y-4170000D02*
X16720000Y-4250000D01*
X17077937Y-1492063D02*
X17077937Y-3587973D01*
X17550000Y-1020000D02*
X17077937Y-1492063D01*
X15414214Y-4400000D02*
G75*
G02*
X14707100Y-4107114I-14J1000000D01*
G01*
X14492893Y-3892893D02*
G75*
G03*
X13785786Y-3600010I-707093J-707107D01*
G01*
X16720000Y-4250000D02*
G75*
G02*
X16357868Y-4399987I-362100J362100D01*
G01*
X17077937Y-3587973D02*
G75*
G02*
X16800009Y-4170009I-972437J106973D01*
G01*
%TD*%
%TA.AperFunction,Conductor*%
%TO.N,GND*%
G36*
X15084099Y7579815D02*
G01*
X15104741Y7563181D01*
X16963181Y5704741D01*
X16996666Y5643418D01*
X16999500Y5617060D01*
X16999500Y5562662D01*
X16979815Y5495623D01*
X16927011Y5449868D01*
X16857853Y5439924D01*
X16808462Y5458346D01*
X16789429Y5470578D01*
X16789426Y5470579D01*
X16651339Y5511124D01*
X16651337Y5511124D01*
X16507415Y5511124D01*
X16507412Y5511124D01*
X16369325Y5470579D01*
X16248249Y5392768D01*
X16248248Y5392768D01*
X16248248Y5392767D01*
X16243686Y5387502D01*
X16153999Y5283998D01*
X16153998Y5283996D01*
X16094210Y5153081D01*
X16073729Y5010624D01*
X16094210Y4868168D01*
X16153998Y4737253D01*
X16154001Y4737247D01*
X16157282Y4733461D01*
X16186304Y4669904D01*
X16176357Y4600746D01*
X16157279Y4571062D01*
X16124625Y4533378D01*
X16124622Y4533372D01*
X16064834Y4402457D01*
X16044353Y4260000D01*
X16064834Y4117544D01*
X16121542Y3993374D01*
X16124623Y3986627D01*
X16218872Y3877857D01*
X16339947Y3800047D01*
X16339950Y3800046D01*
X16339949Y3800046D01*
X16478036Y3759501D01*
X16478038Y3759500D01*
X16478039Y3759500D01*
X16621962Y3759500D01*
X16621962Y3759501D01*
X16760053Y3800047D01*
X16808463Y3831159D01*
X16875499Y3850842D01*
X16942538Y3831158D01*
X16988294Y3778355D01*
X16999500Y3726842D01*
X16999500Y3321154D01*
X17030261Y3166511D01*
X17030264Y3166499D01*
X17090602Y3020828D01*
X17090609Y3020815D01*
X17178210Y2889712D01*
X17178213Y2889708D01*
X18723181Y1344741D01*
X18756666Y1283418D01*
X18759500Y1257060D01*
X18759500Y-2494058D01*
X18759477Y-2496428D01*
X18758324Y-2556687D01*
X18758325Y-2556699D01*
X18758546Y-2558467D01*
X18759500Y-2573815D01*
X18759500Y-2582273D01*
X18764018Y-2604985D01*
X18765449Y-2613840D01*
X18768548Y-2638700D01*
X18769500Y-2654039D01*
X18769500Y-3657060D01*
X18749815Y-3724099D01*
X18733181Y-3744741D01*
X17514741Y-4963181D01*
X17453418Y-4996666D01*
X17427060Y-4999500D01*
X16672842Y-4999500D01*
X16605803Y-4979815D01*
X16560048Y-4927011D01*
X16550104Y-4857853D01*
X16579129Y-4794297D01*
X16634528Y-4757568D01*
X16696165Y-4737543D01*
X16708185Y-4733638D01*
X16836185Y-4668423D01*
X16849468Y-4658773D01*
X16870087Y-4643792D01*
X16952406Y-4583985D01*
X16956991Y-4579399D01*
X16957007Y-4579387D01*
X17036353Y-4500039D01*
X17039079Y-4497668D01*
X17043761Y-4492948D01*
X17043764Y-4492947D01*
X17048049Y-4488627D01*
X17048198Y-4488544D01*
X17084329Y-4452077D01*
X17085616Y-4450777D01*
X17086022Y-4450370D01*
X17124571Y-4411822D01*
X17127028Y-4409007D01*
X17149646Y-4386194D01*
X17261501Y-4238153D01*
X17352514Y-4076461D01*
X17421045Y-3904033D01*
X17465860Y-3723980D01*
X17471643Y-3671566D01*
X17475118Y-3653082D01*
X17478437Y-3640700D01*
X17478437Y-3616740D01*
X17479180Y-3603184D01*
X17479530Y-3600000D01*
X17482332Y-3574528D01*
X17480353Y-3563400D01*
X17478437Y-3541686D01*
X17478437Y-1709318D01*
X17498122Y-1642279D01*
X17514750Y-1621642D01*
X17590993Y-1545399D01*
X17643737Y-1514106D01*
X17760050Y-1479954D01*
X17760050Y-1479953D01*
X17760053Y-1479953D01*
X17881128Y-1402143D01*
X17975377Y-1293373D01*
X18035165Y-1162457D01*
X18055647Y-1020000D01*
X18035165Y-877543D01*
X17975377Y-746627D01*
X17881128Y-637857D01*
X17760053Y-560047D01*
X17760051Y-560046D01*
X17760049Y-560045D01*
X17760050Y-560045D01*
X17621963Y-519500D01*
X17621961Y-519500D01*
X17478039Y-519500D01*
X17478036Y-519500D01*
X17339949Y-560045D01*
X17339946Y-560047D01*
X17319700Y-573058D01*
X17252660Y-592742D01*
X17185621Y-573056D01*
X17139868Y-520254D01*
X17115377Y-466628D01*
X17115376Y-466626D01*
X17103594Y-453029D01*
X17021128Y-357857D01*
X16900053Y-280047D01*
X16900051Y-280046D01*
X16900049Y-280045D01*
X16900050Y-280045D01*
X16761963Y-239500D01*
X16761961Y-239500D01*
X16618039Y-239500D01*
X16618036Y-239500D01*
X16479949Y-280045D01*
X16358873Y-357856D01*
X16264623Y-466626D01*
X16264622Y-466628D01*
X16204834Y-597543D01*
X16184353Y-740000D01*
X16204834Y-882456D01*
X16264622Y-1013371D01*
X16264625Y-1013377D01*
X16341992Y-1102663D01*
X16371017Y-1166218D01*
X16361073Y-1235377D01*
X16315318Y-1288181D01*
X16248279Y-1307865D01*
X16213345Y-1302842D01*
X16201963Y-1299500D01*
X16201961Y-1299500D01*
X16058039Y-1299500D01*
X16058036Y-1299500D01*
X15919949Y-1340045D01*
X15919944Y-1340047D01*
X15826945Y-1399815D01*
X15759906Y-1419500D01*
X11078916Y-1419500D01*
X11078904Y-1419499D01*
X11020297Y-1419499D01*
X11008146Y-1418902D01*
X10905505Y-1408795D01*
X10881662Y-1404053D01*
X10875365Y-1402143D01*
X10788821Y-1375891D01*
X10766363Y-1366589D01*
X10716705Y-1340047D01*
X10680796Y-1320853D01*
X10660592Y-1307354D01*
X10580930Y-1241978D01*
X10571913Y-1233805D01*
X10566904Y-1228796D01*
X10559534Y-1220747D01*
X10506583Y-1157543D01*
X10500450Y-1150222D01*
X10488491Y-1133237D01*
X10444506Y-1058093D01*
X10435548Y-1039342D01*
X10404732Y-957913D01*
X10399031Y-937930D01*
X10384868Y-865844D01*
X10382542Y-841938D01*
X10382542Y330944D01*
X10402227Y397983D01*
X10412831Y412148D01*
X10421183Y421787D01*
X10425377Y426627D01*
X10485165Y557543D01*
X10485165Y557544D01*
X10488849Y565610D01*
X10492097Y564127D01*
X10520576Y608554D01*
X10584098Y637653D01*
X10653268Y627790D01*
X10689569Y602617D01*
X11923181Y-630995D01*
X11956666Y-692318D01*
X11958336Y-707850D01*
X11958440Y-707837D01*
X11959500Y-715894D01*
X11966923Y-743596D01*
X11969885Y-758037D01*
X11974835Y-792456D01*
X11974837Y-792464D01*
X11983069Y-810489D01*
X11990050Y-829907D01*
X11993607Y-843183D01*
X11993610Y-843190D01*
X12011681Y-874491D01*
X12017086Y-884974D01*
X12034623Y-923373D01*
X12042694Y-932687D01*
X12056368Y-951890D01*
X12059497Y-957310D01*
X12059501Y-957315D01*
X12090322Y-988136D01*
X12096354Y-994615D01*
X12128870Y-1032141D01*
X12128874Y-1032145D01*
X12132928Y-1034750D01*
X12148211Y-1047066D01*
X12152689Y-1050502D01*
X12166897Y-1058705D01*
X12196887Y-1076019D01*
X12201871Y-1079056D01*
X12249947Y-1109953D01*
X12249950Y-1109954D01*
X12249952Y-1109955D01*
X12250994Y-1110431D01*
X12260621Y-1113827D01*
X12266811Y-1116390D01*
X12266814Y-1116392D01*
X12323246Y-1131512D01*
X12323261Y-1131516D01*
X12326098Y-1132312D01*
X12388039Y-1150500D01*
X12531963Y-1150500D01*
X12531963Y-1150499D01*
X12590765Y-1133233D01*
X12593902Y-1132312D01*
X12596681Y-1131531D01*
X12653186Y-1116392D01*
X12653189Y-1116389D01*
X12659367Y-1113832D01*
X12668996Y-1110434D01*
X12670045Y-1109955D01*
X12670053Y-1109953D01*
X12718087Y-1079082D01*
X12723102Y-1076025D01*
X12767314Y-1050500D01*
X12767321Y-1050492D01*
X12771828Y-1047035D01*
X12787067Y-1034752D01*
X12791128Y-1032143D01*
X12823653Y-994605D01*
X12829673Y-988140D01*
X12829677Y-988136D01*
X12860500Y-957314D01*
X12863628Y-951894D01*
X12877306Y-932687D01*
X12885377Y-923373D01*
X12902912Y-884974D01*
X12908311Y-874502D01*
X12926392Y-843186D01*
X12929952Y-829898D01*
X12936934Y-810479D01*
X12945164Y-792459D01*
X12945163Y-792459D01*
X12945165Y-792457D01*
X12950111Y-758053D01*
X12953074Y-743606D01*
X12954263Y-739165D01*
X12960500Y-715892D01*
X12960500Y-694667D01*
X12961762Y-677020D01*
X12965647Y-649999D01*
X12961762Y-622977D01*
X12960500Y-605331D01*
X12960500Y-400000D01*
X13894353Y-400000D01*
X13914834Y-542456D01*
X13955269Y-630995D01*
X13974623Y-673373D01*
X14068872Y-782143D01*
X14189947Y-859953D01*
X14189950Y-859954D01*
X14189949Y-859954D01*
X14328036Y-900499D01*
X14328038Y-900500D01*
X14328039Y-900500D01*
X14471962Y-900500D01*
X14471962Y-900499D01*
X14610053Y-859953D01*
X14731128Y-782143D01*
X14825377Y-673373D01*
X14885165Y-542457D01*
X14905647Y-400000D01*
X14885165Y-257543D01*
X14825377Y-126627D01*
X14731128Y-17857D01*
X14610053Y59953D01*
X14610051Y59954D01*
X14610049Y59955D01*
X14610050Y59955D01*
X14471963Y100500D01*
X14471961Y100500D01*
X14328039Y100500D01*
X14328036Y100500D01*
X14189949Y59955D01*
X14068873Y-17856D01*
X13974623Y-126626D01*
X13974622Y-126628D01*
X13914834Y-257543D01*
X13894353Y-400000D01*
X12960500Y-400000D01*
X12960500Y-394108D01*
X12959532Y-390496D01*
X12959531Y-390492D01*
X12950786Y-357856D01*
X12926392Y-266814D01*
X12860500Y-152686D01*
X11457814Y1250000D01*
X15724353Y1250000D01*
X15744834Y1107544D01*
X15804622Y976629D01*
X15804623Y976627D01*
X15898872Y867857D01*
X16019947Y790047D01*
X16019950Y790046D01*
X16019949Y790046D01*
X16158036Y749501D01*
X16158038Y749500D01*
X16158039Y749500D01*
X16301962Y749500D01*
X16301962Y749501D01*
X16440053Y790047D01*
X16561128Y867857D01*
X16655377Y976627D01*
X16715165Y1107543D01*
X16735647Y1250000D01*
X16715165Y1392457D01*
X16655377Y1523373D01*
X16561128Y1632143D01*
X16440053Y1709953D01*
X16440051Y1709954D01*
X16440049Y1709955D01*
X16440050Y1709955D01*
X16301963Y1750500D01*
X16301961Y1750500D01*
X16158039Y1750500D01*
X16158036Y1750500D01*
X16019949Y1709955D01*
X15898873Y1632144D01*
X15804623Y1523374D01*
X15804622Y1523372D01*
X15744834Y1392457D01*
X15724353Y1250000D01*
X11457814Y1250000D01*
X10617314Y2090500D01*
X10551421Y2128544D01*
X10503185Y2156393D01*
X10482404Y2161961D01*
X10422744Y2198327D01*
X10392216Y2261175D01*
X10390500Y2281735D01*
X10390500Y3720000D01*
X13544353Y3720000D01*
X13564834Y3577544D01*
X13609911Y3478842D01*
X13624623Y3446627D01*
X13718872Y3337857D01*
X13839947Y3260047D01*
X13839950Y3260046D01*
X13839952Y3260045D01*
X13848019Y3256360D01*
X13846973Y3254072D01*
X13894542Y3223515D01*
X13923579Y3159965D01*
X13923583Y3138868D01*
X13924353Y3138868D01*
X13924353Y3130001D01*
X13944834Y2987544D01*
X14004622Y2856629D01*
X14008145Y2851147D01*
X14027829Y2784108D01*
X14008144Y2717068D01*
X13997543Y2702906D01*
X13954623Y2653373D01*
X13954622Y2653372D01*
X13894834Y2522457D01*
X13874353Y2380000D01*
X13894834Y2237544D01*
X13931895Y2156393D01*
X13954623Y2106627D01*
X14048872Y1997857D01*
X14169947Y1920047D01*
X14169950Y1920046D01*
X14169949Y1920046D01*
X14308036Y1879501D01*
X14308038Y1879500D01*
X14308039Y1879500D01*
X14451962Y1879500D01*
X14451962Y1879501D01*
X14590053Y1920047D01*
X14711128Y1997857D01*
X14805377Y2106627D01*
X14865165Y2237543D01*
X14885647Y2380000D01*
X14865165Y2522457D01*
X14805377Y2653373D01*
X14805375Y2653375D01*
X14801856Y2658852D01*
X14782170Y2725891D01*
X14801853Y2792931D01*
X14812449Y2807086D01*
X14855377Y2856627D01*
X14915165Y2987543D01*
X14935647Y3130000D01*
X14915165Y3272457D01*
X14855377Y3403373D01*
X14761128Y3512143D01*
X14640053Y3589953D01*
X14640051Y3589954D01*
X14640049Y3589955D01*
X14631983Y3593639D01*
X14633025Y3595921D01*
X14585428Y3626521D01*
X14556413Y3690081D01*
X14556417Y3711131D01*
X14555647Y3711131D01*
X14555647Y3719999D01*
X14535165Y3862457D01*
X14528132Y3877857D01*
X14475377Y3993373D01*
X14381128Y4102143D01*
X14260053Y4179953D01*
X14260051Y4179954D01*
X14260049Y4179955D01*
X14260050Y4179955D01*
X14121963Y4220500D01*
X14121961Y4220500D01*
X13978039Y4220500D01*
X13978036Y4220500D01*
X13839949Y4179955D01*
X13718873Y4102144D01*
X13624623Y3993374D01*
X13624622Y3993372D01*
X13564834Y3862457D01*
X13544353Y3720000D01*
X10390500Y3720000D01*
X10390500Y5230000D01*
X13614353Y5230000D01*
X13634834Y5087544D01*
X13669963Y5010624D01*
X13694623Y4956627D01*
X13788872Y4847857D01*
X13909947Y4770047D01*
X13909950Y4770046D01*
X13909949Y4770046D01*
X14048036Y4729501D01*
X14048038Y4729500D01*
X14048039Y4729500D01*
X14191962Y4729500D01*
X14191962Y4729501D01*
X14330053Y4770047D01*
X14451128Y4847857D01*
X14545377Y4956627D01*
X14605165Y5087543D01*
X14625647Y5230000D01*
X14605165Y5372457D01*
X14545377Y5503373D01*
X14451128Y5612143D01*
X14330053Y5689953D01*
X14330051Y5689954D01*
X14330049Y5689955D01*
X14330050Y5689955D01*
X14191963Y5730500D01*
X14191961Y5730500D01*
X14048039Y5730500D01*
X14048036Y5730500D01*
X13909949Y5689955D01*
X13788873Y5612144D01*
X13694623Y5503374D01*
X13694622Y5503372D01*
X13634834Y5372457D01*
X13614353Y5230000D01*
X10390500Y5230000D01*
X10390500Y6775333D01*
X10391762Y6792980D01*
X10394137Y6809501D01*
X10395647Y6820000D01*
X10393009Y6838350D01*
X10391762Y6847023D01*
X10390500Y6864669D01*
X10390500Y6885890D01*
X10390500Y6885892D01*
X10383073Y6913610D01*
X10380111Y6928054D01*
X10378236Y6941097D01*
X10375165Y6962457D01*
X10366928Y6980491D01*
X10359949Y6999909D01*
X10356392Y7013186D01*
X10338316Y7044494D01*
X10332911Y7054980D01*
X10315380Y7093367D01*
X10315379Y7093369D01*
X10315377Y7093373D01*
X10315372Y7093379D01*
X10307306Y7102688D01*
X10293628Y7121896D01*
X10290499Y7127315D01*
X10259677Y7158137D01*
X10253659Y7164599D01*
X10221128Y7202143D01*
X10221125Y7202146D01*
X10217066Y7204754D01*
X10201793Y7217063D01*
X10197318Y7220496D01*
X10197314Y7220500D01*
X10185404Y7227377D01*
X10153121Y7246016D01*
X10148085Y7249085D01*
X10147879Y7249218D01*
X10100053Y7279953D01*
X10100051Y7279954D01*
X10100049Y7279955D01*
X10099004Y7280433D01*
X10089375Y7283829D01*
X10083192Y7286390D01*
X10083187Y7286392D01*
X10083186Y7286392D01*
X10026701Y7301527D01*
X10023862Y7302325D01*
X9961963Y7320500D01*
X9961961Y7320500D01*
X9818039Y7320500D01*
X9756145Y7302327D01*
X9753307Y7301531D01*
X9696817Y7286394D01*
X9690609Y7283823D01*
X9680985Y7280428D01*
X9679949Y7279955D01*
X9648602Y7259810D01*
X9581562Y7240127D01*
X9514523Y7259813D01*
X9468769Y7312619D01*
X9458828Y7381777D01*
X9487854Y7445332D01*
X9493855Y7451779D01*
X9605260Y7563184D01*
X9666581Y7596666D01*
X9692939Y7599500D01*
X15017060Y7599500D01*
X15084099Y7579815D01*
G37*
%TD.AperFunction*%
%TA.AperFunction,Conductor*%
G36*
X10149984Y-1876946D02*
G01*
X10245602Y-1950315D01*
X10365960Y-2019801D01*
X10402319Y-2040793D01*
X10402321Y-2040794D01*
X10402325Y-2040796D01*
X10569517Y-2110047D01*
X10744318Y-2156883D01*
X10744319Y-2156883D01*
X10744322Y-2156884D01*
X10823078Y-2167250D01*
X10923736Y-2180501D01*
X11014219Y-2180500D01*
X12926900Y-2180500D01*
X12993939Y-2200185D01*
X13039694Y-2252989D01*
X13049638Y-2322147D01*
X13029329Y-2463401D01*
X13049810Y-2605857D01*
X13102466Y-2721155D01*
X13109599Y-2736774D01*
X13203848Y-2845544D01*
X13324923Y-2923354D01*
X13324926Y-2923355D01*
X13324925Y-2923355D01*
X13437886Y-2956523D01*
X13496665Y-2994297D01*
X13525690Y-3057852D01*
X13515747Y-3127011D01*
X13469992Y-3179815D01*
X13402953Y-3199500D01*
X12538974Y-3199500D01*
X12471936Y-3179816D01*
X12410050Y-3140045D01*
X12271963Y-3099500D01*
X12271961Y-3099500D01*
X12128039Y-3099500D01*
X12128036Y-3099500D01*
X11989949Y-3140045D01*
X11868873Y-3217856D01*
X11774623Y-3326626D01*
X11774622Y-3326628D01*
X11714834Y-3457543D01*
X11694353Y-3600000D01*
X11714834Y-3742457D01*
X11714835Y-3742458D01*
X11760381Y-3842190D01*
X11770325Y-3911348D01*
X11741300Y-3974904D01*
X11682522Y-4012678D01*
X11612652Y-4012678D01*
X11559906Y-3981382D01*
X11489872Y-3911348D01*
X9986819Y-2408294D01*
X9953334Y-2346971D01*
X9950500Y-2320613D01*
X9950500Y-1975323D01*
X9970185Y-1908284D01*
X10022989Y-1862529D01*
X10092147Y-1852585D01*
X10149984Y-1876946D01*
G37*
%TD.AperFunction*%
%TA.AperFunction,Conductor*%
G36*
X15826945Y-2200185D02*
G01*
X15927407Y-2264748D01*
X15926102Y-2266778D01*
X15969110Y-2304038D01*
X15988801Y-2371076D01*
X15969122Y-2438117D01*
X15958516Y-2452288D01*
X15928764Y-2486625D01*
X15928763Y-2486626D01*
X15868975Y-2617541D01*
X15848494Y-2759998D01*
X15868975Y-2902454D01*
X15913752Y-3000500D01*
X15928764Y-3033371D01*
X16023013Y-3142141D01*
X16144088Y-3219951D01*
X16144091Y-3219952D01*
X16144090Y-3219952D01*
X16282177Y-3260497D01*
X16282179Y-3260498D01*
X16282180Y-3260498D01*
X16426102Y-3260498D01*
X16518503Y-3233367D01*
X16588372Y-3233367D01*
X16647150Y-3271141D01*
X16676175Y-3334697D01*
X16677437Y-3352344D01*
X16677437Y-3544392D01*
X16675122Y-3568243D01*
X16663201Y-3629063D01*
X16657501Y-3649070D01*
X16630598Y-3720217D01*
X16621634Y-3738989D01*
X16583222Y-3804627D01*
X16571245Y-3821638D01*
X16519307Y-3883621D01*
X16511944Y-3891661D01*
X16442552Y-3961053D01*
X16430356Y-3971749D01*
X16428087Y-3973490D01*
X16368765Y-3998055D01*
X16365829Y-3998441D01*
X16349662Y-3999499D01*
X16317644Y-3999497D01*
X16300310Y-3999497D01*
X16300308Y-3999497D01*
X16291284Y-3999497D01*
X16291244Y-3999500D01*
X15420299Y-3999500D01*
X15408146Y-3998903D01*
X15396166Y-3997723D01*
X15309402Y-3989178D01*
X15285563Y-3984436D01*
X15196477Y-3957414D01*
X15174019Y-3948112D01*
X15091912Y-3904227D01*
X15071701Y-3890723D01*
X14995077Y-3827840D01*
X14986061Y-3819668D01*
X14814398Y-3648005D01*
X14814381Y-3647974D01*
X14711192Y-3544787D01*
X14711186Y-3544781D01*
X14565541Y-3433025D01*
X14565530Y-3433018D01*
X14503839Y-3397401D01*
X14406540Y-3341227D01*
X14345263Y-3315846D01*
X14236920Y-3270970D01*
X14059590Y-3223458D01*
X14059587Y-3223457D01*
X13877576Y-3199499D01*
X13877574Y-3199499D01*
X13785780Y-3199500D01*
X13667000Y-3199500D01*
X13599961Y-3179815D01*
X13554206Y-3127011D01*
X13544262Y-3057853D01*
X13573287Y-2994297D01*
X13632065Y-2956523D01*
X13632066Y-2956523D01*
X13745026Y-2923355D01*
X13745026Y-2923354D01*
X13745029Y-2923354D01*
X13866104Y-2845544D01*
X13960353Y-2736774D01*
X14020141Y-2605858D01*
X14040623Y-2463401D01*
X14020314Y-2322147D01*
X14030258Y-2252988D01*
X14076013Y-2200184D01*
X14143052Y-2180500D01*
X15759906Y-2180500D01*
X15826945Y-2200185D01*
G37*
%TD.AperFunction*%
%TA.AperFunction,Conductor*%
G36*
X17057773Y16876004D02*
G01*
X17078372Y16859434D01*
X17279125Y16659155D01*
X17297491Y16640833D01*
X17301033Y16637151D01*
X17969438Y15912883D01*
X17972802Y15909083D01*
X18610731Y15157877D01*
X18613941Y15153936D01*
X18971271Y14696134D01*
X19220322Y14377056D01*
X19223387Y14372958D01*
X19797193Y13571723D01*
X19800086Y13567502D01*
X20108129Y13097544D01*
X20334991Y12751437D01*
X20340333Y12743288D01*
X20343050Y12738951D01*
X20849014Y11892833D01*
X20851243Y11888947D01*
X21073492Y11484818D01*
X21088839Y11425074D01*
X21089999Y-5689991D01*
X21092407Y-5788252D01*
X21092408Y-5788261D01*
X21130742Y-5980979D01*
X21130744Y-5980987D01*
X21205943Y-6162533D01*
X21205948Y-6162543D01*
X21315118Y-6325927D01*
X21315121Y-6325931D01*
X21454068Y-6464878D01*
X21454072Y-6464881D01*
X21617456Y-6574051D01*
X21617460Y-6574053D01*
X21617463Y-6574055D01*
X21799013Y-6649256D01*
X21991746Y-6687593D01*
X22090000Y-6690000D01*
X22090000Y-6689999D01*
X22116136Y-6690640D01*
X22126243Y-6686620D01*
X22130600Y-6686291D01*
X22161336Y-6684526D01*
X22188514Y-6685956D01*
X22326908Y-6708659D01*
X22356700Y-6717493D01*
X22483291Y-6773095D01*
X22509952Y-6789057D01*
X22575548Y-6840508D01*
X22618750Y-6874393D01*
X22640604Y-6896483D01*
X22653262Y-6912983D01*
X22724767Y-7006188D01*
X22740443Y-7033019D01*
X22794685Y-7160199D01*
X22803199Y-7190085D01*
X22824416Y-7328709D01*
X22825556Y-7355907D01*
X22821781Y-7411252D01*
X22815789Y-7441772D01*
X22667709Y-7889232D01*
X22666244Y-7893407D01*
X22327561Y-8806265D01*
X22325707Y-8810968D01*
X21950212Y-9708989D01*
X21948167Y-9713612D01*
X21536378Y-10595589D01*
X21534146Y-10600125D01*
X21086765Y-11464556D01*
X21084351Y-11468997D01*
X20602088Y-12314509D01*
X20599494Y-12318848D01*
X20083190Y-13143966D01*
X20080422Y-13148196D01*
X19530898Y-13951611D01*
X19527959Y-13955725D01*
X18946160Y-14736054D01*
X18943057Y-14740044D01*
X18329914Y-15496036D01*
X18326650Y-15499896D01*
X17683237Y-16230230D01*
X17679819Y-16233955D01*
X17007133Y-16937499D01*
X17003565Y-16941081D01*
X16302785Y-17616597D01*
X16299075Y-17620030D01*
X15571338Y-18266428D01*
X15567491Y-18269708D01*
X14814014Y-18885904D01*
X14810036Y-18889023D01*
X14032074Y-19473992D01*
X14027973Y-19476947D01*
X13226809Y-20029726D01*
X13222590Y-20032512D01*
X12399548Y-20552182D01*
X12395219Y-20554793D01*
X11551712Y-21040466D01*
X11547281Y-21042899D01*
X10684647Y-21493806D01*
X10680120Y-21496056D01*
X9799823Y-21911427D01*
X9795208Y-21913490D01*
X8898744Y-22292621D01*
X8894049Y-22294495D01*
X7982853Y-22636781D01*
X7978085Y-22638462D01*
X7053698Y-22943323D01*
X7048866Y-22944808D01*
X6112823Y-23211736D01*
X6107935Y-23213023D01*
X5161477Y-23441654D01*
X5157156Y-23442616D01*
X4692274Y-23537495D01*
X4667478Y-23540000D01*
X-4661347Y-23540000D01*
X-4686168Y-23537490D01*
X-5147713Y-23443195D01*
X-5151864Y-23442273D01*
X-6061334Y-23223734D01*
X-6066032Y-23222507D01*
X-6965918Y-22968621D01*
X-6970564Y-22967212D01*
X-7859860Y-22678276D01*
X-7864448Y-22676685D01*
X-8099505Y-22590000D01*
X-2815647Y-22590000D01*
X-2795166Y-22732456D01*
X-2735378Y-22863371D01*
X-2735377Y-22863373D01*
X-2641128Y-22972143D01*
X-2520053Y-23049953D01*
X-2520050Y-23049954D01*
X-2520051Y-23049954D01*
X-2381964Y-23090499D01*
X-2381962Y-23090500D01*
X-2381961Y-23090500D01*
X-2238038Y-23090500D01*
X-2238038Y-23090499D01*
X-2099947Y-23049953D01*
X-1978872Y-22972143D01*
X-1884623Y-22863373D01*
X-1824835Y-22732457D01*
X-1804353Y-22590000D01*
X-1824835Y-22447543D01*
X-1884623Y-22316627D01*
X-1978872Y-22207857D01*
X-2099947Y-22130047D01*
X-2099949Y-22130046D01*
X-2099951Y-22130045D01*
X-2099950Y-22130045D01*
X-2238037Y-22089500D01*
X-2238039Y-22089500D01*
X-2381961Y-22089500D01*
X-2381964Y-22089500D01*
X-2520051Y-22130045D01*
X-2641127Y-22207856D01*
X-2735377Y-22316626D01*
X-2735378Y-22316628D01*
X-2795166Y-22447543D01*
X-2815647Y-22590000D01*
X-8099505Y-22590000D01*
X-8741722Y-22353162D01*
X-8746244Y-22351393D01*
X-9610186Y-21993770D01*
X-9614636Y-21991825D01*
X-10463903Y-21600656D01*
X-10468273Y-21598539D01*
X-11301603Y-21174403D01*
X-11305886Y-21172116D01*
X-11826116Y-20881153D01*
X-5120500Y-20881153D01*
X-5120500Y-21638846D01*
X-5089739Y-21793489D01*
X-5089736Y-21793501D01*
X-5029398Y-21939172D01*
X-5029391Y-21939185D01*
X-4941790Y-22070288D01*
X-4941787Y-22070292D01*
X-4830293Y-22181786D01*
X-4830289Y-22181789D01*
X-4699186Y-22269390D01*
X-4699173Y-22269397D01*
X-4553502Y-22329735D01*
X-4553497Y-22329737D01*
X-4435732Y-22353162D01*
X-4398847Y-22360499D01*
X-4398844Y-22360500D01*
X-4398842Y-22360500D01*
X-4241156Y-22360500D01*
X-4241155Y-22360499D01*
X-4086503Y-22329737D01*
X-3940821Y-22269394D01*
X-3809711Y-22181789D01*
X-3698211Y-22070289D01*
X-3610606Y-21939179D01*
X-3550263Y-21793497D01*
X-3519500Y-21638842D01*
X-3519500Y-20881158D01*
X-3519500Y-20881155D01*
X-3519501Y-20881153D01*
X3519500Y-20881153D01*
X3519500Y-21638846D01*
X3550261Y-21793489D01*
X3550264Y-21793501D01*
X3610602Y-21939172D01*
X3610609Y-21939185D01*
X3698210Y-22070288D01*
X3698213Y-22070292D01*
X3809707Y-22181786D01*
X3809711Y-22181789D01*
X3940814Y-22269390D01*
X3940827Y-22269397D01*
X4086498Y-22329735D01*
X4086503Y-22329737D01*
X4204268Y-22353162D01*
X4241153Y-22360499D01*
X4241156Y-22360500D01*
X4241158Y-22360500D01*
X4398844Y-22360500D01*
X4398845Y-22360499D01*
X4553497Y-22329737D01*
X4699179Y-22269394D01*
X4830289Y-22181789D01*
X4941789Y-22070289D01*
X5029394Y-21939179D01*
X5089737Y-21793497D01*
X5120500Y-21638842D01*
X5120500Y-20881158D01*
X5120500Y-20881155D01*
X5120499Y-20881153D01*
X5089738Y-20726510D01*
X5089737Y-20726503D01*
X5089735Y-20726498D01*
X5029397Y-20580827D01*
X5029390Y-20580814D01*
X4941789Y-20449711D01*
X4941786Y-20449707D01*
X4830292Y-20338213D01*
X4830288Y-20338210D01*
X4699185Y-20250609D01*
X4699172Y-20250602D01*
X4553501Y-20190264D01*
X4553489Y-20190261D01*
X4398845Y-20159500D01*
X4398842Y-20159500D01*
X4241158Y-20159500D01*
X4241155Y-20159500D01*
X4086510Y-20190261D01*
X4086498Y-20190264D01*
X3940827Y-20250602D01*
X3940814Y-20250609D01*
X3809711Y-20338210D01*
X3809707Y-20338213D01*
X3698213Y-20449707D01*
X3698210Y-20449711D01*
X3610609Y-20580814D01*
X3610602Y-20580827D01*
X3550264Y-20726498D01*
X3550261Y-20726510D01*
X3519500Y-20881153D01*
X-3519501Y-20881153D01*
X-3550262Y-20726510D01*
X-3550263Y-20726503D01*
X-3550265Y-20726498D01*
X-3610603Y-20580827D01*
X-3610610Y-20580814D01*
X-3698211Y-20449711D01*
X-3698214Y-20449707D01*
X-3809708Y-20338213D01*
X-3809712Y-20338210D01*
X-3940815Y-20250609D01*
X-3940828Y-20250602D01*
X-4086499Y-20190264D01*
X-4086511Y-20190261D01*
X-4241155Y-20159500D01*
X-4241158Y-20159500D01*
X-4398842Y-20159500D01*
X-4398845Y-20159500D01*
X-4553490Y-20190261D01*
X-4553502Y-20190264D01*
X-4699173Y-20250602D01*
X-4699186Y-20250609D01*
X-4830289Y-20338210D01*
X-4830293Y-20338213D01*
X-4941787Y-20449707D01*
X-4941790Y-20449711D01*
X-5029391Y-20580814D01*
X-5029398Y-20580827D01*
X-5089736Y-20726498D01*
X-5089739Y-20726510D01*
X-5120500Y-20881153D01*
X-11826116Y-20881153D01*
X-11850252Y-20867654D01*
X-12121962Y-20715686D01*
X-12126121Y-20713252D01*
X-12730607Y-20343373D01*
X-12923713Y-20225213D01*
X-12927804Y-20222598D01*
X-13705649Y-19703725D01*
X-13709635Y-19700952D01*
X-13986358Y-19500272D01*
X-11065501Y-19500272D01*
X-11040503Y-19625939D01*
X-11040501Y-19625945D01*
X-10991467Y-19744325D01*
X-10991462Y-19744334D01*
X-10920277Y-19850869D01*
X-10920274Y-19850873D01*
X-10829673Y-19941474D01*
X-10829669Y-19941477D01*
X-10723134Y-20012662D01*
X-10723125Y-20012667D01*
X-10696308Y-20023775D01*
X-10604744Y-20061702D01*
X-10604740Y-20061702D01*
X-10604739Y-20061703D01*
X-10479072Y-20086701D01*
X-10479069Y-20086701D01*
X-10350929Y-20086701D01*
X-10266385Y-20069883D01*
X-10225256Y-20061702D01*
X-10106873Y-20012666D01*
X-10038538Y-19967005D01*
X-9971861Y-19946128D01*
X-9904481Y-19964612D01*
X-9857790Y-20016591D01*
X-9847640Y-20061327D01*
X-9846909Y-20061222D01*
X-9825166Y-20212456D01*
X-9767734Y-20338213D01*
X-9765377Y-20343373D01*
X-9671128Y-20452143D01*
X-9550053Y-20529953D01*
X-9550050Y-20529954D01*
X-9550051Y-20529954D01*
X-9411964Y-20570499D01*
X-9411962Y-20570500D01*
X-9411961Y-20570500D01*
X-9268038Y-20570500D01*
X-9268038Y-20570499D01*
X-9129947Y-20529953D01*
X-9008872Y-20452143D01*
X-8914623Y-20343373D01*
X-8854835Y-20212457D01*
X-8834353Y-20070000D01*
X-8854835Y-19927543D01*
X-8914623Y-19796627D01*
X-9008872Y-19687857D01*
X-9129947Y-19610047D01*
X-9129949Y-19610046D01*
X-9129951Y-19610045D01*
X-9129950Y-19610045D01*
X-9268037Y-19569500D01*
X-9268039Y-19569500D01*
X-9411961Y-19569500D01*
X-9411964Y-19569500D01*
X-9550051Y-19610045D01*
X-9550053Y-19610046D01*
X-9575354Y-19626306D01*
X-9642393Y-19645989D01*
X-9709433Y-19626303D01*
X-9755186Y-19573498D01*
X-9764839Y-19506360D01*
X-9765097Y-19506335D01*
X-9764994Y-19505282D01*
X-9765129Y-19504339D01*
X-9764592Y-19501201D01*
X-9764500Y-19500272D01*
X-9764500Y-19372129D01*
X-9789498Y-19246462D01*
X-9789499Y-19246461D01*
X-9789499Y-19246457D01*
X-9838535Y-19128074D01*
X-9838536Y-19128073D01*
X-9838539Y-19128067D01*
X-9909724Y-19021532D01*
X-9909727Y-19021528D01*
X-10000328Y-18930927D01*
X-10000332Y-18930924D01*
X-10106867Y-18859739D01*
X-10106876Y-18859734D01*
X-10225256Y-18810700D01*
X-10225262Y-18810698D01*
X-10350929Y-18785701D01*
X-10350931Y-18785701D01*
X-10479069Y-18785701D01*
X-10479071Y-18785701D01*
X-10604739Y-18810698D01*
X-10604745Y-18810700D01*
X-10723125Y-18859734D01*
X-10723134Y-18859739D01*
X-10829669Y-18930924D01*
X-10829673Y-18930927D01*
X-10920274Y-19021528D01*
X-10920277Y-19021532D01*
X-10991462Y-19128067D01*
X-10991467Y-19128076D01*
X-11040501Y-19246456D01*
X-11040503Y-19246462D01*
X-11065500Y-19372129D01*
X-11065500Y-19372132D01*
X-11065500Y-19500270D01*
X-11065500Y-19500272D01*
X-11065501Y-19500272D01*
X-13986358Y-19500272D01*
X-14466824Y-19151838D01*
X-14470223Y-19149283D01*
X-14825521Y-18872545D01*
X-14849584Y-18847685D01*
X-14890999Y-18790780D01*
X-14901970Y-18772620D01*
X-14978933Y-18616425D01*
X-14987457Y-18593787D01*
X-15032226Y-18427063D01*
X-15036190Y-18403196D01*
X-15047720Y-18230961D01*
X-15046972Y-18206772D01*
X-15024829Y-18035585D01*
X-15019397Y-18012001D01*
X-14964422Y-17848371D01*
X-14954515Y-17826298D01*
X-14887327Y-17708844D01*
X-14868050Y-17675144D01*
X-14855990Y-17657712D01*
X-14800337Y-17590406D01*
X-14799575Y-17589497D01*
X-14510936Y-17248606D01*
X-9765501Y-17248606D01*
X-9740503Y-17374273D01*
X-9740501Y-17374279D01*
X-9691467Y-17492659D01*
X-9691462Y-17492668D01*
X-9620277Y-17599203D01*
X-9620274Y-17599207D01*
X-9529673Y-17689808D01*
X-9529669Y-17689811D01*
X-9423134Y-17760996D01*
X-9423128Y-17760999D01*
X-9423127Y-17761000D01*
X-9304744Y-17810036D01*
X-9304740Y-17810036D01*
X-9304739Y-17810037D01*
X-9179072Y-17835035D01*
X-9179069Y-17835035D01*
X-9050929Y-17835035D01*
X-8966385Y-17818217D01*
X-8925256Y-17810036D01*
X-8806873Y-17761000D01*
X-8700331Y-17689811D01*
X-8609724Y-17599204D01*
X-8538535Y-17492662D01*
X-8489499Y-17374279D01*
X-8481318Y-17333150D01*
X-8464500Y-17248606D01*
X-8464500Y-17120463D01*
X-8489498Y-16994796D01*
X-8489499Y-16994795D01*
X-8489499Y-16994791D01*
X-8538535Y-16876408D01*
X-8538536Y-16876407D01*
X-8538539Y-16876401D01*
X-8609724Y-16769866D01*
X-8609727Y-16769862D01*
X-8700328Y-16679261D01*
X-8700332Y-16679258D01*
X-8806867Y-16608073D01*
X-8806876Y-16608068D01*
X-8925256Y-16559034D01*
X-8925262Y-16559032D01*
X-9050929Y-16534035D01*
X-9050931Y-16534035D01*
X-9179069Y-16534035D01*
X-9179071Y-16534035D01*
X-9304739Y-16559032D01*
X-9304745Y-16559034D01*
X-9423125Y-16608068D01*
X-9423134Y-16608073D01*
X-9529669Y-16679258D01*
X-9529673Y-16679261D01*
X-9620274Y-16769862D01*
X-9620277Y-16769866D01*
X-9691462Y-16876401D01*
X-9691467Y-16876410D01*
X-9740501Y-16994790D01*
X-9740503Y-16994796D01*
X-9765500Y-17120463D01*
X-9765500Y-17120466D01*
X-9765500Y-17248604D01*
X-9765500Y-17248606D01*
X-9765501Y-17248606D01*
X-14510936Y-17248606D01*
X-13835717Y-16451153D01*
X-5120500Y-16451153D01*
X-5120500Y-17708846D01*
X-5089739Y-17863489D01*
X-5089736Y-17863501D01*
X-5029398Y-18009172D01*
X-5029391Y-18009185D01*
X-4941790Y-18140288D01*
X-4941787Y-18140292D01*
X-4830293Y-18251786D01*
X-4830289Y-18251789D01*
X-4699186Y-18339390D01*
X-4699173Y-18339397D01*
X-4553502Y-18399735D01*
X-4553497Y-18399737D01*
X-4416121Y-18427063D01*
X-4398847Y-18430499D01*
X-4398844Y-18430500D01*
X-4398842Y-18430500D01*
X-4241156Y-18430500D01*
X-4241155Y-18430499D01*
X-4086503Y-18399737D01*
X-3940821Y-18339394D01*
X-3809711Y-18251789D01*
X-3698211Y-18140289D01*
X-3610606Y-18009179D01*
X-3587131Y-17952504D01*
X-3543293Y-17898103D01*
X-3476999Y-17876037D01*
X-3409299Y-17893315D01*
X-3365185Y-17937956D01*
X-3350515Y-17963365D01*
X-3243365Y-18070515D01*
X-3129719Y-18136129D01*
X-3122514Y-18140289D01*
X-3112135Y-18146281D01*
X-2965766Y-18185500D01*
X-2965764Y-18185500D01*
X-2814236Y-18185500D01*
X-2814234Y-18185500D01*
X-2667865Y-18146281D01*
X-2536635Y-18070515D01*
X-2429485Y-17963365D01*
X-2353719Y-17832135D01*
X-2314500Y-17685766D01*
X-2314500Y-17534234D01*
X2314500Y-17534234D01*
X2314500Y-17685765D01*
X2353719Y-17832136D01*
X2371821Y-17863489D01*
X2429485Y-17963365D01*
X2536635Y-18070515D01*
X2650281Y-18136129D01*
X2657486Y-18140289D01*
X2667865Y-18146281D01*
X2814234Y-18185500D01*
X2814236Y-18185500D01*
X2965764Y-18185500D01*
X2965766Y-18185500D01*
X3112135Y-18146281D01*
X3243365Y-18070515D01*
X3350515Y-17963365D01*
X3365183Y-17937958D01*
X3415748Y-17889743D01*
X3484355Y-17876519D01*
X3549220Y-17902486D01*
X3587131Y-17952506D01*
X3610602Y-18009172D01*
X3610609Y-18009185D01*
X3698210Y-18140288D01*
X3698213Y-18140292D01*
X3809707Y-18251786D01*
X3809711Y-18251789D01*
X3940814Y-18339390D01*
X3940827Y-18339397D01*
X4086498Y-18399735D01*
X4086503Y-18399737D01*
X4223879Y-18427063D01*
X4241153Y-18430499D01*
X4241156Y-18430500D01*
X4241158Y-18430500D01*
X4398844Y-18430500D01*
X4398845Y-18430499D01*
X4553497Y-18399737D01*
X4699179Y-18339394D01*
X4830289Y-18251789D01*
X4941789Y-18140289D01*
X5029394Y-18009179D01*
X5089737Y-17863497D01*
X5120500Y-17708842D01*
X5120500Y-16451158D01*
X5120500Y-16451155D01*
X5120499Y-16451153D01*
X5114402Y-16420500D01*
X5089737Y-16296503D01*
X5062286Y-16230230D01*
X5029397Y-16150827D01*
X5029390Y-16150814D01*
X4941789Y-16019711D01*
X4941786Y-16019707D01*
X4830292Y-15908213D01*
X4830288Y-15908210D01*
X4699185Y-15820609D01*
X4699172Y-15820602D01*
X4553501Y-15760264D01*
X4553489Y-15760261D01*
X4398845Y-15729500D01*
X4398842Y-15729500D01*
X4241158Y-15729500D01*
X4241155Y-15729500D01*
X4086510Y-15760261D01*
X4086498Y-15760264D01*
X3940827Y-15820602D01*
X3940814Y-15820609D01*
X3809711Y-15908210D01*
X3809707Y-15908213D01*
X3698213Y-16019707D01*
X3698210Y-16019711D01*
X3610609Y-16150814D01*
X3610602Y-16150827D01*
X3550264Y-16296498D01*
X3550261Y-16296510D01*
X3519500Y-16451153D01*
X3519500Y-17126258D01*
X3499815Y-17193297D01*
X3447011Y-17239052D01*
X3377853Y-17248996D01*
X3314297Y-17219971D01*
X3307819Y-17213939D01*
X3243367Y-17149487D01*
X3243365Y-17149485D01*
X3177750Y-17111602D01*
X3112136Y-17073719D01*
X3038950Y-17054109D01*
X2965766Y-17034500D01*
X2814234Y-17034500D01*
X2667863Y-17073719D01*
X2536635Y-17149485D01*
X2536632Y-17149487D01*
X2429487Y-17256632D01*
X2429485Y-17256635D01*
X2353719Y-17387863D01*
X2314500Y-17534234D01*
X-2314500Y-17534234D01*
X-2353719Y-17387865D01*
X-2429485Y-17256635D01*
X-2536635Y-17149485D01*
X-2602250Y-17111602D01*
X-2667864Y-17073719D01*
X-2741050Y-17054109D01*
X-2814234Y-17034500D01*
X-2965766Y-17034500D01*
X-3112137Y-17073719D01*
X-3243365Y-17149485D01*
X-3243368Y-17149487D01*
X-3307819Y-17213939D01*
X-3369142Y-17247424D01*
X-3438834Y-17242440D01*
X-3494767Y-17200568D01*
X-3519184Y-17135104D01*
X-3519500Y-17126258D01*
X-3519500Y-16451155D01*
X-3519501Y-16451153D01*
X-3525598Y-16420500D01*
X-3550263Y-16296503D01*
X-3577714Y-16230230D01*
X-3610603Y-16150827D01*
X-3610610Y-16150814D01*
X-3698211Y-16019711D01*
X-3698214Y-16019707D01*
X-3809708Y-15908213D01*
X-3809712Y-15908210D01*
X-3940815Y-15820609D01*
X-3940828Y-15820602D01*
X-4086499Y-15760264D01*
X-4086511Y-15760261D01*
X-4241155Y-15729500D01*
X-4241158Y-15729500D01*
X-4398842Y-15729500D01*
X-4398845Y-15729500D01*
X-4553490Y-15760261D01*
X-4553502Y-15760264D01*
X-4699173Y-15820602D01*
X-4699186Y-15820609D01*
X-4830289Y-15908210D01*
X-4830293Y-15908213D01*
X-4941787Y-16019707D01*
X-4941790Y-16019711D01*
X-5029391Y-16150814D01*
X-5029398Y-16150827D01*
X-5089736Y-16296498D01*
X-5089739Y-16296510D01*
X-5120500Y-16451153D01*
X-13835717Y-16451153D01*
X-13441642Y-15985740D01*
X-13398860Y-15920000D01*
X-10545647Y-15920000D01*
X-10525166Y-16062456D01*
X-10465378Y-16193371D01*
X-10465377Y-16193373D01*
X-10371128Y-16302143D01*
X-10250053Y-16379953D01*
X-10250050Y-16379954D01*
X-10250051Y-16379954D01*
X-10111964Y-16420499D01*
X-10111962Y-16420500D01*
X-10111961Y-16420500D01*
X-9968038Y-16420500D01*
X-9968038Y-16420499D01*
X-9829947Y-16379953D01*
X-9708872Y-16302143D01*
X-9614623Y-16193373D01*
X-9554835Y-16062457D01*
X-9534353Y-15920000D01*
X-9554835Y-15777543D01*
X-9614623Y-15646627D01*
X-9708872Y-15537857D01*
X-9829947Y-15460047D01*
X-9829949Y-15460046D01*
X-9829951Y-15460045D01*
X-9829950Y-15460045D01*
X-9968037Y-15419500D01*
X-9968039Y-15419500D01*
X-10111961Y-15419500D01*
X-10111964Y-15419500D01*
X-10250051Y-15460045D01*
X-10371127Y-15537856D01*
X-10465377Y-15646626D01*
X-10465378Y-15646628D01*
X-10525166Y-15777543D01*
X-10545647Y-15920000D01*
X-13398860Y-15920000D01*
X-13384412Y-15897799D01*
X-13303549Y-15704228D01*
X-13264005Y-15498206D01*
X-13267453Y-15288453D01*
X-13313746Y-15083842D01*
X-13365720Y-14970088D01*
X-13400925Y-14893034D01*
X-13400929Y-14893028D01*
X-13525304Y-14724098D01*
X-13563530Y-14688134D01*
X-13563623Y-14687976D01*
X-13702183Y-14557865D01*
X-13937295Y-14337089D01*
X-13940863Y-14333599D01*
X-14585612Y-13676964D01*
X-14589538Y-13672776D01*
X-15202956Y-12987284D01*
X-15206684Y-12982919D01*
X-15545961Y-12566501D01*
X-15787735Y-12269755D01*
X-15791247Y-12265234D01*
X-16135738Y-11800000D01*
X-14685647Y-11800000D01*
X-14665166Y-11942456D01*
X-14616888Y-12048167D01*
X-14605377Y-12073373D01*
X-14511128Y-12182143D01*
X-14390053Y-12259953D01*
X-14390050Y-12259954D01*
X-14390051Y-12259954D01*
X-14251964Y-12300499D01*
X-14251962Y-12300500D01*
X-14251961Y-12300500D01*
X-14108038Y-12300500D01*
X-14108038Y-12300499D01*
X-14000879Y-12269035D01*
X-13969950Y-12259954D01*
X-13969950Y-12259953D01*
X-13969947Y-12259953D01*
X-13848872Y-12182143D01*
X-13754623Y-12073373D01*
X-13694835Y-11942457D01*
X-13674353Y-11800000D01*
X-13694835Y-11657543D01*
X-13754623Y-11526627D01*
X-13848872Y-11417857D01*
X-13969947Y-11340047D01*
X-13969949Y-11340046D01*
X-13969951Y-11340045D01*
X-13969950Y-11340045D01*
X-14108037Y-11299500D01*
X-14108039Y-11299500D01*
X-14251961Y-11299500D01*
X-14251964Y-11299500D01*
X-14390051Y-11340045D01*
X-14511127Y-11417856D01*
X-14605377Y-11526626D01*
X-14605378Y-11526628D01*
X-14665166Y-11657543D01*
X-14685647Y-11800000D01*
X-16135738Y-11800000D01*
X-16338683Y-11525924D01*
X-16341965Y-11521269D01*
X-16854582Y-10757439D01*
X-16857656Y-10752621D01*
X-17334388Y-9965863D01*
X-17337248Y-9960886D01*
X-17354060Y-9930000D01*
X-16405647Y-9930000D01*
X-16385166Y-10072456D01*
X-16325378Y-10203371D01*
X-16325377Y-10203373D01*
X-16231128Y-10312143D01*
X-16110053Y-10389953D01*
X-16110050Y-10389954D01*
X-16110051Y-10389954D01*
X-15971964Y-10430499D01*
X-15971962Y-10430500D01*
X-15971961Y-10430500D01*
X-15828038Y-10430500D01*
X-15828038Y-10430499D01*
X-15716862Y-10397856D01*
X-15689950Y-10389954D01*
X-15689950Y-10389953D01*
X-15689947Y-10389953D01*
X-15568872Y-10312143D01*
X-15474623Y-10203373D01*
X-15414835Y-10072457D01*
X-15394353Y-9930000D01*
X-15414835Y-9787543D01*
X-15474623Y-9656627D01*
X-15568872Y-9547857D01*
X-15689947Y-9470047D01*
X-15689949Y-9470046D01*
X-15689951Y-9470045D01*
X-15689950Y-9470045D01*
X-15828037Y-9429500D01*
X-15828039Y-9429500D01*
X-15971961Y-9429500D01*
X-15971964Y-9429500D01*
X-16110051Y-9470045D01*
X-16231127Y-9547856D01*
X-16325377Y-9656626D01*
X-16325378Y-9656628D01*
X-16385166Y-9787543D01*
X-16405647Y-9930000D01*
X-17354060Y-9930000D01*
X-17777025Y-9152966D01*
X-17779652Y-9147863D01*
X-18059364Y-8572033D01*
X-18181593Y-8320405D01*
X-18183976Y-8315195D01*
X-18184734Y-8313432D01*
X-18547174Y-7470058D01*
X-18549318Y-7464734D01*
X-18873036Y-6603632D01*
X-18874902Y-6598297D01*
X-19158429Y-5723117D01*
X-19160052Y-5717679D01*
X-19222329Y-5490000D01*
X-14425647Y-5490000D01*
X-14405166Y-5632456D01*
X-14385031Y-5676544D01*
X-14345377Y-5763373D01*
X-14251128Y-5872143D01*
X-14130053Y-5949953D01*
X-14130050Y-5949954D01*
X-14130051Y-5949954D01*
X-13991964Y-5990499D01*
X-13991962Y-5990500D01*
X-13991961Y-5990500D01*
X-13848038Y-5990500D01*
X-13848038Y-5990499D01*
X-13709947Y-5949953D01*
X-13588872Y-5872143D01*
X-13494623Y-5763373D01*
X-13434835Y-5632457D01*
X-13414353Y-5490000D01*
X-13434835Y-5347543D01*
X-13494623Y-5216627D01*
X-13588872Y-5107857D01*
X-13709947Y-5030047D01*
X-13709949Y-5030046D01*
X-13709951Y-5030045D01*
X-13709950Y-5030045D01*
X-13848037Y-4989500D01*
X-13848039Y-4989500D01*
X-13991961Y-4989500D01*
X-13991964Y-4989500D01*
X-14130051Y-5030045D01*
X-14251127Y-5107856D01*
X-14345377Y-5216626D01*
X-14345378Y-5216628D01*
X-14405166Y-5347543D01*
X-14425647Y-5490000D01*
X-19222329Y-5490000D01*
X-19389181Y-4880000D01*
X-15535647Y-4880000D01*
X-15515166Y-5022456D01*
X-15467368Y-5127117D01*
X-15455377Y-5153373D01*
X-15361128Y-5262143D01*
X-15240053Y-5339953D01*
X-15240050Y-5339954D01*
X-15240051Y-5339954D01*
X-15101964Y-5380499D01*
X-15101962Y-5380500D01*
X-15101961Y-5380500D01*
X-14958038Y-5380500D01*
X-14958038Y-5380499D01*
X-14819947Y-5339953D01*
X-14698872Y-5262143D01*
X-14604623Y-5153373D01*
X-14544835Y-5022457D01*
X-14524353Y-4880000D01*
X-14544835Y-4737543D01*
X-14604623Y-4606627D01*
X-14698872Y-4497857D01*
X-14819947Y-4420047D01*
X-14819949Y-4420046D01*
X-14819951Y-4420045D01*
X-14819950Y-4420045D01*
X-14958037Y-4379500D01*
X-14958039Y-4379500D01*
X-15101961Y-4379500D01*
X-15101964Y-4379500D01*
X-15240051Y-4420045D01*
X-15361127Y-4497856D01*
X-15455377Y-4606626D01*
X-15455378Y-4606628D01*
X-15515166Y-4737543D01*
X-15535647Y-4880000D01*
X-19389181Y-4880000D01*
X-19402858Y-4829999D01*
X-19404076Y-4825166D01*
X-19507418Y-4376581D01*
X-19514314Y-4346649D01*
X-19515456Y-4345025D01*
X-19517919Y-4336857D01*
X-19531994Y-4283610D01*
X-19536607Y-4273489D01*
X-19611731Y-4108649D01*
X-19611732Y-4108647D01*
X-19617545Y-4100499D01*
X-19723404Y-3952119D01*
X-19729548Y-3946291D01*
X-19862900Y-3819790D01*
X-19862909Y-3819782D01*
X-20025095Y-3716520D01*
X-20025096Y-3716519D01*
X-20157515Y-3664411D01*
X-20204019Y-3646112D01*
X-20204021Y-3646111D01*
X-20204025Y-3646110D01*
X-20393088Y-3611155D01*
X-20393092Y-3611155D01*
X-20470001Y-3611865D01*
X-20585369Y-3612932D01*
X-20679807Y-3629966D01*
X-20680233Y-3630042D01*
X-22658316Y-3979701D01*
X-22661707Y-3980252D01*
X-22689916Y-3984436D01*
X-22747989Y-3993049D01*
X-22769759Y-3994339D01*
X-22945987Y-3989250D01*
X-22970617Y-3986051D01*
X-23140809Y-3946291D01*
X-23164307Y-3938247D01*
X-23323159Y-3865369D01*
X-23344582Y-3852804D01*
X-23485723Y-3749731D01*
X-23504210Y-3733151D01*
X-23621990Y-3604007D01*
X-23636794Y-3584084D01*
X-23727255Y-3432750D01*
X-23736752Y-3413128D01*
X-23763258Y-3343273D01*
X-23770211Y-3315846D01*
X-23777668Y-3260497D01*
X-23835883Y-2828416D01*
X-23836405Y-2823909D01*
X-23934230Y-1816869D01*
X-23934620Y-1811721D01*
X-23962526Y-1300000D01*
X-17645647Y-1300000D01*
X-17625166Y-1442456D01*
X-17578151Y-1545402D01*
X-17565377Y-1573373D01*
X-17471128Y-1682143D01*
X-17350053Y-1759953D01*
X-17350050Y-1759954D01*
X-17350051Y-1759954D01*
X-17242893Y-1791417D01*
X-17213504Y-1800047D01*
X-17211964Y-1800499D01*
X-17211962Y-1800500D01*
X-17211961Y-1800500D01*
X-17068038Y-1800500D01*
X-17068038Y-1800499D01*
X-16929947Y-1759953D01*
X-16808872Y-1682143D01*
X-16714623Y-1573373D01*
X-16654835Y-1442457D01*
X-16634353Y-1300000D01*
X-16654835Y-1157543D01*
X-16714623Y-1026627D01*
X-16808872Y-917857D01*
X-16929947Y-840047D01*
X-16929949Y-840046D01*
X-16929951Y-840045D01*
X-16929950Y-840045D01*
X-17068037Y-799500D01*
X-17068039Y-799500D01*
X-17211961Y-799500D01*
X-17211964Y-799500D01*
X-17350051Y-840045D01*
X-17471127Y-917856D01*
X-17565377Y-1026626D01*
X-17565378Y-1026628D01*
X-17625166Y-1157543D01*
X-17645647Y-1300000D01*
X-23962526Y-1300000D01*
X-23989696Y-801780D01*
X-23989870Y-796541D01*
X-23989919Y-792459D01*
X-23998676Y-70000D01*
X-15655647Y-70000D01*
X-15635166Y-212456D01*
X-15575378Y-343371D01*
X-15575377Y-343373D01*
X-15481128Y-452143D01*
X-15360053Y-529953D01*
X-15360050Y-529954D01*
X-15360051Y-529954D01*
X-15221964Y-570499D01*
X-15221962Y-570500D01*
X-15221961Y-570500D01*
X-15078038Y-570500D01*
X-15078038Y-570499D01*
X-14939947Y-529953D01*
X-14818872Y-452143D01*
X-14724623Y-343373D01*
X-14664835Y-212457D01*
X-14644353Y-70000D01*
X-14664835Y72457D01*
X-14724623Y203373D01*
X-14818872Y312143D01*
X-14939947Y389953D01*
X-14939949Y389954D01*
X-14939951Y389955D01*
X-14939950Y389955D01*
X-15078037Y430500D01*
X-15078039Y430500D01*
X-15221961Y430500D01*
X-15221964Y430500D01*
X-15360051Y389955D01*
X-15481127Y312144D01*
X-15575377Y203374D01*
X-15575378Y203372D01*
X-15635166Y72457D01*
X-15655647Y-70000D01*
X-23998676Y-70000D01*
X-24002129Y214823D01*
X-24002082Y220007D01*
X-23978491Y1000000D01*
X-6315647Y1000000D01*
X-6295166Y857544D01*
X-6260569Y781789D01*
X-6235377Y726627D01*
X-6141128Y617857D01*
X-6020053Y540047D01*
X-6020050Y540046D01*
X-6020051Y540046D01*
X-5881964Y499501D01*
X-5881962Y499500D01*
X-5881961Y499500D01*
X-5738038Y499500D01*
X-5738038Y499501D01*
X-5599947Y540047D01*
X-5478872Y617857D01*
X-5384623Y726627D01*
X-5324835Y857543D01*
X-5304353Y1000000D01*
X-5324835Y1142457D01*
X-5384623Y1273373D01*
X-5478872Y1382143D01*
X-5599947Y1459953D01*
X-5599949Y1459954D01*
X-5599951Y1459955D01*
X-5599950Y1459955D01*
X-5738037Y1500500D01*
X-5738039Y1500500D01*
X-5881961Y1500500D01*
X-5881964Y1500500D01*
X-6020051Y1459955D01*
X-6141127Y1382144D01*
X-6235377Y1273374D01*
X-6235378Y1273372D01*
X-6295166Y1142457D01*
X-6315647Y1000000D01*
X-23978491Y1000000D01*
X-23971504Y1230993D01*
X-23971237Y1236175D01*
X-23936052Y1720000D01*
X-10035647Y1720000D01*
X-10015166Y1577544D01*
X-9961464Y1459955D01*
X-9955377Y1446627D01*
X-9861128Y1337857D01*
X-9740053Y1260047D01*
X-9740050Y1260046D01*
X-9740051Y1260046D01*
X-9601964Y1219501D01*
X-9601962Y1219500D01*
X-9601961Y1219500D01*
X-9458038Y1219500D01*
X-9458038Y1219501D01*
X-9319947Y1260047D01*
X-9198872Y1337857D01*
X-9104623Y1446627D01*
X-9044835Y1577543D01*
X-9024353Y1720000D01*
X-9044835Y1862457D01*
X-9104623Y1993373D01*
X-9198872Y2102143D01*
X-9319947Y2179953D01*
X-9319949Y2179954D01*
X-9319951Y2179955D01*
X-9319950Y2179955D01*
X-9458037Y2220500D01*
X-9458039Y2220500D01*
X-9601961Y2220500D01*
X-9601964Y2220500D01*
X-9740051Y2179955D01*
X-9861127Y2102144D01*
X-9955377Y1993374D01*
X-9955378Y1993372D01*
X-10015166Y1862457D01*
X-10035647Y1720000D01*
X-23936052Y1720000D01*
X-23897879Y2244925D01*
X-23897389Y2250142D01*
X-23865947Y2522457D01*
X-23781378Y3254908D01*
X-23780672Y3260058D01*
X-23622219Y4259004D01*
X-23621288Y4264160D01*
X-23421790Y5250000D01*
X-19675647Y5250000D01*
X-19655166Y5107544D01*
X-19632331Y5057544D01*
X-19595377Y4976627D01*
X-19501128Y4867857D01*
X-19380053Y4790047D01*
X-19380050Y4790046D01*
X-19380051Y4790046D01*
X-19241964Y4749501D01*
X-19241962Y4749500D01*
X-19241961Y4749500D01*
X-19098038Y4749500D01*
X-19098038Y4749501D01*
X-18959947Y4790047D01*
X-18838872Y4867857D01*
X-18744623Y4976627D01*
X-18684835Y5107543D01*
X-18671542Y5200000D01*
X-13505647Y5200000D01*
X-13485166Y5057544D01*
X-13439079Y4956629D01*
X-13425377Y4926627D01*
X-13331128Y4817857D01*
X-13210053Y4740047D01*
X-13210050Y4740046D01*
X-13210051Y4740046D01*
X-13071964Y4699501D01*
X-13071962Y4699500D01*
X-13071961Y4699500D01*
X-12928038Y4699500D01*
X-12928038Y4699501D01*
X-12799469Y4737251D01*
X-12789950Y4740046D01*
X-12789950Y4740047D01*
X-12789947Y4740047D01*
X-12668872Y4817857D01*
X-12574623Y4926627D01*
X-12514835Y5057543D01*
X-12494353Y5200000D01*
X-12514835Y5342457D01*
X-12515238Y5343340D01*
X-11308108Y5343340D01*
X-11308108Y5343339D01*
X-11294308Y5334667D01*
X-11294309Y5334667D01*
X-11124139Y5275122D01*
X-10945003Y5254938D01*
X-10944997Y5254938D01*
X-10765862Y5275122D01*
X-10765859Y5275123D01*
X-10595695Y5334666D01*
X-10595694Y5334666D01*
X-10581894Y5343339D01*
X-10581894Y5343340D01*
X-9908108Y5343340D01*
X-9908108Y5343339D01*
X-9894308Y5334667D01*
X-9894309Y5334667D01*
X-9724139Y5275122D01*
X-9545003Y5254938D01*
X-9544997Y5254938D01*
X-9365862Y5275122D01*
X-9365859Y5275123D01*
X-9195695Y5334666D01*
X-9195694Y5334666D01*
X-9181894Y5343339D01*
X-9181894Y5343340D01*
X-9544999Y5706447D01*
X-9545000Y5706447D01*
X-9908108Y5343340D01*
X-10581894Y5343340D01*
X-10944999Y5706447D01*
X-10945000Y5706447D01*
X-11308108Y5343340D01*
X-12515238Y5343340D01*
X-12574623Y5473373D01*
X-12668872Y5582143D01*
X-12789947Y5659953D01*
X-12789949Y5659954D01*
X-12789951Y5659955D01*
X-12789950Y5659955D01*
X-12928037Y5700500D01*
X-12928039Y5700500D01*
X-13071961Y5700500D01*
X-13071964Y5700500D01*
X-13210051Y5659955D01*
X-13331127Y5582144D01*
X-13425377Y5473374D01*
X-13425378Y5473372D01*
X-13485166Y5342457D01*
X-13505647Y5200000D01*
X-18671542Y5200000D01*
X-18664353Y5250000D01*
X-18684835Y5392457D01*
X-18744623Y5523373D01*
X-18838872Y5632143D01*
X-18959947Y5709953D01*
X-18959949Y5709954D01*
X-18959951Y5709955D01*
X-18959950Y5709955D01*
X-19098037Y5750500D01*
X-19098039Y5750500D01*
X-19241961Y5750500D01*
X-19241964Y5750500D01*
X-19380051Y5709955D01*
X-19501127Y5632144D01*
X-19595377Y5523374D01*
X-19595378Y5523372D01*
X-19655166Y5392457D01*
X-19675647Y5250000D01*
X-23421790Y5250000D01*
X-23420685Y5255460D01*
X-23419546Y5260538D01*
X-23177134Y6242498D01*
X-23175781Y6247521D01*
X-23099057Y6510000D01*
X-19615647Y6510000D01*
X-19595166Y6367544D01*
X-19593298Y6363454D01*
X-19535377Y6236627D01*
X-19441128Y6127857D01*
X-19320053Y6050047D01*
X-19320050Y6050046D01*
X-19320051Y6050046D01*
X-19181964Y6009501D01*
X-19181962Y6009500D01*
X-19181961Y6009500D01*
X-19038038Y6009500D01*
X-19038038Y6009501D01*
X-18922790Y6043340D01*
X-12008108Y6043340D01*
X-12008108Y6043339D01*
X-11994308Y6034667D01*
X-11994309Y6034667D01*
X-11824138Y5975122D01*
X-11823356Y5974943D01*
X-11822903Y5974690D01*
X-11817569Y5972823D01*
X-11817896Y5971889D01*
X-11762377Y5940834D01*
X-11733048Y5887126D01*
X-11732178Y5887430D01*
X-11730330Y5882148D01*
X-11730060Y5881654D01*
X-11729879Y5880858D01*
X-11670337Y5710700D01*
X-11670337Y5710699D01*
X-11661662Y5696893D01*
X-11298554Y6060000D01*
X-11318445Y6079891D01*
X-11045000Y6079891D01*
X-11045000Y6040109D01*
X-11029776Y6003355D01*
X-11001645Y5975224D01*
X-10964891Y5960000D01*
X-10925109Y5960000D01*
X-10888355Y5975224D01*
X-10860224Y6003355D01*
X-10845000Y6040109D01*
X-10845000Y6060001D01*
X-10591447Y6060001D01*
X-10591447Y6060000D01*
X-10245000Y5713554D01*
X-10244999Y5713554D01*
X-9898554Y6060000D01*
X-9918445Y6079891D01*
X-9645000Y6079891D01*
X-9645000Y6040109D01*
X-9629776Y6003355D01*
X-9601645Y5975224D01*
X-9564891Y5960000D01*
X-9525109Y5960000D01*
X-9488355Y5975224D01*
X-9460224Y6003355D01*
X-9445000Y6040109D01*
X-9445000Y6060001D01*
X-9191447Y6060001D01*
X-9191447Y6060000D01*
X-8828340Y5696894D01*
X-8828339Y5696894D01*
X-8819666Y5710694D01*
X-8819666Y5710695D01*
X-8760124Y5880856D01*
X-8759944Y5881642D01*
X-8759689Y5882099D01*
X-8757823Y5887430D01*
X-8756890Y5887104D01*
X-8725836Y5942621D01*
X-8672125Y5971951D01*
X-8672430Y5972823D01*
X-8667130Y5974678D01*
X-8666642Y5974944D01*
X-8665856Y5975124D01*
X-8495695Y6034666D01*
X-8495694Y6034666D01*
X-8481894Y6043339D01*
X-8481894Y6043340D01*
X-8845000Y6406447D01*
X-8845001Y6406447D01*
X-8883901Y6367545D01*
X-8883903Y6367543D01*
X-9191447Y6060001D01*
X-9445000Y6060001D01*
X-9445000Y6079891D01*
X-9460224Y6116645D01*
X-9488355Y6144776D01*
X-9525109Y6160000D01*
X-9564891Y6160000D01*
X-9601645Y6144776D01*
X-9629776Y6116645D01*
X-9645000Y6079891D01*
X-9918445Y6079891D01*
X-10206098Y6367544D01*
X-10245000Y6406447D01*
X-10283902Y6367544D01*
X-10283903Y6367543D01*
X-10591447Y6060001D01*
X-10845000Y6060001D01*
X-10845000Y6079891D01*
X-10860224Y6116645D01*
X-10888355Y6144776D01*
X-10925109Y6160000D01*
X-10964891Y6160000D01*
X-11001645Y6144776D01*
X-11029776Y6116645D01*
X-11045000Y6079891D01*
X-11318445Y6079891D01*
X-11645001Y6406447D01*
X-11645002Y6406447D01*
X-12008108Y6043340D01*
X-18922790Y6043340D01*
X-18899947Y6050047D01*
X-18778872Y6127857D01*
X-18684623Y6236627D01*
X-18624835Y6367543D01*
X-18604353Y6510000D01*
X-18624835Y6652457D01*
X-18684623Y6783373D01*
X-18778872Y6892143D01*
X-18899947Y6969953D01*
X-18899949Y6969954D01*
X-18899951Y6969955D01*
X-18899950Y6969955D01*
X-19038037Y7010500D01*
X-19038039Y7010500D01*
X-19181961Y7010500D01*
X-19181964Y7010500D01*
X-19320051Y6969955D01*
X-19441127Y6892144D01*
X-19441128Y6892144D01*
X-19441128Y6892143D01*
X-19441930Y6891217D01*
X-19535377Y6783374D01*
X-19535378Y6783372D01*
X-19595166Y6652457D01*
X-19615647Y6510000D01*
X-23099057Y6510000D01*
X-22897366Y7200000D01*
X-14773147Y7200000D01*
X-14752666Y7057544D01*
X-14698591Y6939139D01*
X-14692877Y6926627D01*
X-14598628Y6817857D01*
X-14477553Y6740047D01*
X-14477550Y6740046D01*
X-14477551Y6740046D01*
X-14339464Y6699501D01*
X-14339462Y6699500D01*
X-14339461Y6699500D01*
X-14195538Y6699500D01*
X-14195538Y6699501D01*
X-14057447Y6740047D01*
X-14026395Y6760003D01*
X-12450062Y6760003D01*
X-12450062Y6759998D01*
X-12429879Y6580862D01*
X-12370335Y6410696D01*
X-12361662Y6396893D01*
X-11998554Y6760000D01*
X-11998554Y6760001D01*
X-12018444Y6779891D01*
X-11745000Y6779891D01*
X-11745000Y6740109D01*
X-11729776Y6703355D01*
X-11701645Y6675224D01*
X-11664891Y6660000D01*
X-11625109Y6660000D01*
X-11588355Y6675224D01*
X-11560224Y6703355D01*
X-11545000Y6740109D01*
X-11545000Y6760001D01*
X-11291447Y6760001D01*
X-10945000Y6413554D01*
X-10598554Y6760000D01*
X-10618445Y6779891D01*
X-10345000Y6779891D01*
X-10345000Y6740109D01*
X-10329776Y6703355D01*
X-10301645Y6675224D01*
X-10264891Y6660000D01*
X-10225109Y6660000D01*
X-10188355Y6675224D01*
X-10160224Y6703355D01*
X-10145000Y6740109D01*
X-10145000Y6760001D01*
X-9891447Y6760001D01*
X-9545000Y6413554D01*
X-9198554Y6760000D01*
X-9218445Y6779891D01*
X-8945000Y6779891D01*
X-8945000Y6740109D01*
X-8929776Y6703355D01*
X-8901645Y6675224D01*
X-8864891Y6660000D01*
X-8825109Y6660000D01*
X-8788355Y6675224D01*
X-8760224Y6703355D01*
X-8745000Y6740109D01*
X-8745000Y6760000D01*
X-8491447Y6760000D01*
X-8128340Y6396894D01*
X-8128339Y6396894D01*
X-8119666Y6410694D01*
X-8119666Y6410695D01*
X-8060123Y6580859D01*
X-8060122Y6580862D01*
X-8039938Y6759998D01*
X-8039938Y6760003D01*
X-8060122Y6939139D01*
X-8119667Y7109308D01*
X-8128339Y7123108D01*
X-8128340Y7123108D01*
X-8491447Y6760000D01*
X-8745000Y6760000D01*
X-8745000Y6779891D01*
X-8760224Y6816645D01*
X-8788355Y6844776D01*
X-8825109Y6860000D01*
X-8864891Y6860000D01*
X-8901645Y6844776D01*
X-8929776Y6816645D01*
X-8945000Y6779891D01*
X-9218445Y6779891D01*
X-9496098Y7057544D01*
X-9545000Y7106447D01*
X-9593902Y7057544D01*
X-9593903Y7057543D01*
X-9891447Y6760001D01*
X-10145000Y6760001D01*
X-10145000Y6779891D01*
X-10160224Y6816645D01*
X-10188355Y6844776D01*
X-10225109Y6860000D01*
X-10264891Y6860000D01*
X-10301645Y6844776D01*
X-10329776Y6816645D01*
X-10345000Y6779891D01*
X-10618445Y6779891D01*
X-10896098Y7057544D01*
X-10945000Y7106447D01*
X-10993902Y7057544D01*
X-10993903Y7057543D01*
X-11291447Y6760001D01*
X-11545000Y6760001D01*
X-11545000Y6779891D01*
X-11560224Y6816645D01*
X-11588355Y6844776D01*
X-11625109Y6860000D01*
X-11664891Y6860000D01*
X-11701645Y6844776D01*
X-11729776Y6816645D01*
X-11745000Y6779891D01*
X-12018444Y6779891D01*
X-12361662Y7123109D01*
X-12361663Y7123109D01*
X-12370333Y7109309D01*
X-12370338Y7109299D01*
X-12429878Y6939142D01*
X-12429879Y6939139D01*
X-12450062Y6760003D01*
X-14026395Y6760003D01*
X-13936372Y6817857D01*
X-13842123Y6926627D01*
X-13782335Y7057543D01*
X-13761853Y7200000D01*
X-13782335Y7342457D01*
X-13810146Y7403355D01*
X-13830794Y7448568D01*
X-13833281Y7460001D01*
X-11991447Y7460001D01*
X-11991447Y7459999D01*
X-11645002Y7113554D01*
X-11645001Y7113554D01*
X-11358617Y7399937D01*
X-11298554Y7460000D01*
X-11318445Y7479891D01*
X-11045000Y7479891D01*
X-11045000Y7440109D01*
X-11029776Y7403355D01*
X-11001645Y7375224D01*
X-10964891Y7360000D01*
X-10925109Y7360000D01*
X-10888355Y7375224D01*
X-10860224Y7403355D01*
X-10845000Y7440109D01*
X-10845000Y7460001D01*
X-10591447Y7460001D01*
X-10245000Y7113554D01*
X-9898554Y7460000D01*
X-9918445Y7479891D01*
X-9645000Y7479891D01*
X-9645000Y7440109D01*
X-9629776Y7403355D01*
X-9601645Y7375224D01*
X-9564891Y7360000D01*
X-9525109Y7360000D01*
X-9488355Y7375224D01*
X-9460224Y7403355D01*
X-9445000Y7440109D01*
X-9445000Y7460001D01*
X-9191447Y7460001D01*
X-8845000Y7113554D01*
X-8648554Y7310000D01*
X-6845647Y7310000D01*
X-6825166Y7167544D01*
X-6765378Y7036629D01*
X-6765377Y7036627D01*
X-6671128Y6927857D01*
X-6550053Y6850047D01*
X-6550050Y6850046D01*
X-6550051Y6850046D01*
X-6411964Y6809501D01*
X-6411962Y6809500D01*
X-6411961Y6809500D01*
X-6268038Y6809500D01*
X-6268038Y6809501D01*
X-6160879Y6840965D01*
X-6129950Y6850046D01*
X-6129950Y6850047D01*
X-6129947Y6850047D01*
X-6008872Y6927857D01*
X-5914623Y7036627D01*
X-5854835Y7167543D01*
X-5834353Y7310000D01*
X-5854835Y7452457D01*
X-5914623Y7583373D01*
X-6008872Y7692143D01*
X-6129947Y7769953D01*
X-6129949Y7769954D01*
X-6129951Y7769955D01*
X-6129950Y7769955D01*
X-6268037Y7810500D01*
X-6268039Y7810500D01*
X-6411961Y7810500D01*
X-6411964Y7810500D01*
X-6550051Y7769955D01*
X-6550050Y7769955D01*
X-6671127Y7692144D01*
X-6765377Y7583374D01*
X-6765378Y7583372D01*
X-6825166Y7452457D01*
X-6845647Y7310000D01*
X-8648554Y7310000D01*
X-8498554Y7460000D01*
X-8498554Y7460001D01*
X-8845000Y7806447D01*
X-8845001Y7806447D01*
X-8881491Y7769955D01*
X-8881493Y7769953D01*
X-9191447Y7460001D01*
X-9445000Y7460001D01*
X-9445000Y7479891D01*
X-9460224Y7516645D01*
X-9488355Y7544776D01*
X-9525109Y7560000D01*
X-9564891Y7560000D01*
X-9601645Y7544776D01*
X-9629776Y7516645D01*
X-9645000Y7479891D01*
X-9918445Y7479891D01*
X-10208508Y7769954D01*
X-10245000Y7806447D01*
X-10281492Y7769954D01*
X-10281493Y7769953D01*
X-10591447Y7460001D01*
X-10845000Y7460001D01*
X-10845000Y7479891D01*
X-10860224Y7516645D01*
X-10888355Y7544776D01*
X-10925109Y7560000D01*
X-10964891Y7560000D01*
X-11001645Y7544776D01*
X-11029776Y7516645D01*
X-11045000Y7479891D01*
X-11318445Y7479891D01*
X-11645001Y7806447D01*
X-11645002Y7806447D01*
X-11991447Y7460001D01*
X-13833281Y7460001D01*
X-13842000Y7500079D01*
X-13842000Y8160003D01*
X-12450062Y8160003D01*
X-12450062Y8159998D01*
X-12429879Y7980862D01*
X-12370335Y7810696D01*
X-12361662Y7796893D01*
X-11998554Y8160000D01*
X-11998554Y8160001D01*
X-12018444Y8179891D01*
X-11745000Y8179891D01*
X-11745000Y8140109D01*
X-11729776Y8103355D01*
X-11701645Y8075224D01*
X-11664891Y8060000D01*
X-11625109Y8060000D01*
X-11588355Y8075224D01*
X-11560224Y8103355D01*
X-11545000Y8140109D01*
X-11545000Y8160001D01*
X-11291447Y8160001D01*
X-10945000Y7813554D01*
X-10598554Y8160000D01*
X-10618445Y8179891D01*
X-10345000Y8179891D01*
X-10345000Y8140109D01*
X-10329776Y8103355D01*
X-10301645Y8075224D01*
X-10264891Y8060000D01*
X-10225109Y8060000D01*
X-10188355Y8075224D01*
X-10160224Y8103355D01*
X-10145000Y8140109D01*
X-10145000Y8160001D01*
X-9891447Y8160001D01*
X-9545000Y7813554D01*
X-9198554Y8160000D01*
X-9218445Y8179891D01*
X-8945000Y8179891D01*
X-8945000Y8140109D01*
X-8929776Y8103355D01*
X-8901645Y8075224D01*
X-8864891Y8060000D01*
X-8825109Y8060000D01*
X-8788355Y8075224D01*
X-8760224Y8103355D01*
X-8745000Y8140109D01*
X-8745000Y8160000D01*
X-8491447Y8160000D01*
X-8128340Y7796894D01*
X-8128339Y7796894D01*
X-8119666Y7810694D01*
X-8119666Y7810695D01*
X-8060123Y7980859D01*
X-8060122Y7980862D01*
X-8039938Y8159998D01*
X-8039938Y8160003D01*
X-8060122Y8339139D01*
X-8119667Y8509308D01*
X-8128339Y8523108D01*
X-8128340Y8523108D01*
X-8491447Y8160000D01*
X-8745000Y8160000D01*
X-8745000Y8179891D01*
X-8760224Y8216645D01*
X-8788355Y8244776D01*
X-8825109Y8260000D01*
X-8864891Y8260000D01*
X-8901645Y8244776D01*
X-8929776Y8216645D01*
X-8945000Y8179891D01*
X-9218445Y8179891D01*
X-9481927Y8443373D01*
X-9545000Y8506447D01*
X-9608073Y8443373D01*
X-9608074Y8443373D01*
X-9891447Y8160001D01*
X-10145000Y8160001D01*
X-10145000Y8179891D01*
X-10160224Y8216645D01*
X-10188355Y8244776D01*
X-10225109Y8260000D01*
X-10264891Y8260000D01*
X-10301645Y8244776D01*
X-10329776Y8216645D01*
X-10345000Y8179891D01*
X-10618445Y8179891D01*
X-10881927Y8443373D01*
X-10945000Y8506447D01*
X-11008073Y8443373D01*
X-11008074Y8443373D01*
X-11291447Y8160001D01*
X-11545000Y8160001D01*
X-11545000Y8179891D01*
X-11560224Y8216645D01*
X-11588355Y8244776D01*
X-11625109Y8260000D01*
X-11664891Y8260000D01*
X-11701645Y8244776D01*
X-11729776Y8216645D01*
X-11745000Y8179891D01*
X-12018444Y8179891D01*
X-12361662Y8523109D01*
X-12361663Y8523109D01*
X-12370333Y8509309D01*
X-12370338Y8509299D01*
X-12429878Y8339142D01*
X-12429879Y8339139D01*
X-12450062Y8160003D01*
X-13842000Y8160003D01*
X-13842000Y8876663D01*
X-12008109Y8876663D01*
X-12008109Y8876662D01*
X-11645002Y8513554D01*
X-11350534Y8808020D01*
X-11298554Y8860001D01*
X-11298554Y8860002D01*
X-11318443Y8879891D01*
X-11045000Y8879891D01*
X-11045000Y8840109D01*
X-11029776Y8803355D01*
X-11001645Y8775224D01*
X-10964891Y8760000D01*
X-10925109Y8760000D01*
X-10888355Y8775224D01*
X-10860224Y8803355D01*
X-10845000Y8840109D01*
X-10845000Y8860002D01*
X-10591447Y8860002D01*
X-10591447Y8860001D01*
X-10245000Y8513554D01*
X-9950534Y8808019D01*
X-9898554Y8860001D01*
X-9898554Y8860002D01*
X-9918443Y8879891D01*
X-9645000Y8879891D01*
X-9645000Y8840109D01*
X-9629776Y8803355D01*
X-9601645Y8775224D01*
X-9564891Y8760000D01*
X-9525109Y8760000D01*
X-9488355Y8775224D01*
X-9460224Y8803355D01*
X-9445000Y8840109D01*
X-9445000Y8860002D01*
X-9191447Y8860002D01*
X-9191447Y8860001D01*
X-8845000Y8513554D01*
X-8844999Y8513554D01*
X-8481893Y8876662D01*
X-8495699Y8885337D01*
X-8665858Y8944879D01*
X-8666654Y8945060D01*
X-8667117Y8945319D01*
X-8672430Y8947178D01*
X-8672105Y8948110D01*
X-8727630Y8979173D01*
X-8756951Y9032875D01*
X-8757823Y9032569D01*
X-8759679Y9037872D01*
X-8759943Y9038356D01*
X-8760122Y9039138D01*
X-8819667Y9209308D01*
X-8828339Y9223108D01*
X-8828340Y9223108D01*
X-9191447Y8860002D01*
X-9445000Y8860002D01*
X-9445000Y8879891D01*
X-9460224Y8916645D01*
X-9488355Y8944776D01*
X-9525109Y8960000D01*
X-9564891Y8960000D01*
X-9601645Y8944776D01*
X-9629776Y8916645D01*
X-9645000Y8879891D01*
X-9918443Y8879891D01*
X-10244999Y9206447D01*
X-10245000Y9206447D01*
X-10591447Y8860002D01*
X-10845000Y8860002D01*
X-10845000Y8879891D01*
X-10860224Y8916645D01*
X-10888355Y8944776D01*
X-10925109Y8960000D01*
X-10964891Y8960000D01*
X-11001645Y8944776D01*
X-11029776Y8916645D01*
X-11045000Y8879891D01*
X-11318443Y8879891D01*
X-11661662Y9223109D01*
X-11661663Y9223109D01*
X-11670333Y9209309D01*
X-11670338Y9209299D01*
X-11729881Y9039134D01*
X-11730061Y9038344D01*
X-11730318Y9037887D01*
X-11732177Y9032571D01*
X-11733109Y9032897D01*
X-11764176Y8977369D01*
X-11817876Y8948048D01*
X-11817571Y8947177D01*
X-11822855Y8945329D01*
X-11823344Y8945061D01*
X-11824134Y8944881D01*
X-11994299Y8885338D01*
X-11994309Y8885333D01*
X-12008109Y8876663D01*
X-13842000Y8876663D01*
X-13842000Y9576663D01*
X-11308109Y9576663D01*
X-11308109Y9576662D01*
X-10945000Y9213554D01*
X-10944999Y9213554D01*
X-10581893Y9576662D01*
X-10581895Y9576663D01*
X-9908109Y9576663D01*
X-9908109Y9576662D01*
X-9545000Y9213554D01*
X-9544999Y9213554D01*
X-9181893Y9576662D01*
X-9195696Y9585335D01*
X-9365862Y9644879D01*
X-9544997Y9665062D01*
X-9545003Y9665062D01*
X-9724139Y9644879D01*
X-9724142Y9644878D01*
X-9894299Y9585338D01*
X-9894309Y9585333D01*
X-9908109Y9576663D01*
X-10581895Y9576663D01*
X-10595696Y9585335D01*
X-10765862Y9644879D01*
X-10944997Y9665062D01*
X-10945003Y9665062D01*
X-11124139Y9644879D01*
X-11124142Y9644878D01*
X-11294299Y9585338D01*
X-11294309Y9585333D01*
X-11308109Y9576663D01*
X-13842000Y9576663D01*
X-13842000Y12036039D01*
X-13841805Y12042993D01*
X-13833878Y12184125D01*
X-13829231Y12266858D01*
X-13827677Y12280654D01*
X-13790698Y12498285D01*
X-13787613Y12511806D01*
X-13726495Y12723949D01*
X-13721916Y12737034D01*
X-13637435Y12940987D01*
X-13631412Y12953494D01*
X-13524631Y13146697D01*
X-13517250Y13158445D01*
X-13389497Y13338495D01*
X-13380859Y13349327D01*
X-13231325Y13516655D01*
X-13226592Y13521661D01*
X-13201623Y13546629D01*
X-13185864Y13562387D01*
X-13171484Y13576770D01*
X-13153958Y13594296D01*
X-13153944Y13594306D01*
X-13116112Y13632139D01*
X-13106098Y13642154D01*
X-13097095Y13650316D01*
X-13015239Y13717497D01*
X-12995035Y13730996D01*
X-12912961Y13774868D01*
X-12844560Y13789110D01*
X-12819572Y13784487D01*
X-12725879Y13756976D01*
X-12725878Y13756976D01*
X-12581955Y13756976D01*
X-12581955Y13756977D01*
X-12452283Y13795051D01*
X-12443867Y13797522D01*
X-12443867Y13797523D01*
X-12443864Y13797523D01*
X-12322789Y13875333D01*
X-12228540Y13984103D01*
X-12211167Y14022143D01*
X-12184168Y14081263D01*
X-12174279Y14102918D01*
X-12149169Y14139085D01*
X-12033422Y14254831D01*
X-12024426Y14262984D01*
X-11963350Y14313107D01*
X-11943153Y14326601D01*
X-11878874Y14360958D01*
X-11856431Y14370253D01*
X-11786688Y14391408D01*
X-11762854Y14396148D01*
X-11718223Y14400542D01*
X-11684079Y14403903D01*
X-11671931Y14404500D01*
X-11617002Y14404497D01*
X-11616998Y14404499D01*
X-11607976Y14404498D01*
X-11607935Y14404500D01*
X-9871776Y14404500D01*
X-9804737Y14384815D01*
X-9758982Y14332011D01*
X-9749038Y14262853D01*
X-9749858Y14257151D01*
X-9749858Y14257150D01*
X-9762131Y14171789D01*
X-9770340Y14114693D01*
X-9749859Y13972237D01*
X-9697008Y13856511D01*
X-9690070Y13841320D01*
X-9595821Y13732550D01*
X-9474746Y13654740D01*
X-9474743Y13654739D01*
X-9474744Y13654739D01*
X-9367586Y13623276D01*
X-9363730Y13622143D01*
X-9336657Y13614194D01*
X-9336655Y13614193D01*
X-9336654Y13614193D01*
X-9192731Y13614193D01*
X-9192731Y13614194D01*
X-9054640Y13654740D01*
X-8933565Y13732550D01*
X-8839316Y13841320D01*
X-8779528Y13972236D01*
X-8759046Y14114693D01*
X-8779528Y14257150D01*
X-8779529Y14257152D01*
X-8779652Y14258010D01*
X-8769708Y14327168D01*
X-8723953Y14379972D01*
X-8656914Y14399657D01*
X-8644767Y14399061D01*
X-8564373Y14391143D01*
X-8540544Y14386404D01*
X-8421810Y14350387D01*
X-8399354Y14341085D01*
X-8333022Y14305631D01*
X-8283177Y14256669D01*
X-8267716Y14188532D01*
X-8269855Y14172091D01*
X-8270500Y14168851D01*
X-8270500Y14011154D01*
X-8239739Y13856511D01*
X-8239737Y13856503D01*
X-8217737Y13803388D01*
X-8210270Y13733918D01*
X-8241546Y13671439D01*
X-8265259Y13651622D01*
X-8311126Y13622145D01*
X-8311128Y13622144D01*
X-8311128Y13622143D01*
X-8327537Y13603206D01*
X-8405377Y13513374D01*
X-8405378Y13513372D01*
X-8465166Y13382457D01*
X-8485647Y13240000D01*
X-8465166Y13097544D01*
X-8415315Y12988388D01*
X-8405377Y12966627D01*
X-8311128Y12857857D01*
X-8190053Y12780047D01*
X-8190050Y12780046D01*
X-8190051Y12780046D01*
X-8051964Y12739501D01*
X-8051962Y12739500D01*
X-8051961Y12739500D01*
X-7908038Y12739500D01*
X-7908038Y12739501D01*
X-7769947Y12780047D01*
X-7648872Y12857857D01*
X-7554623Y12966627D01*
X-7494835Y13097543D01*
X-7482527Y13183147D01*
X-7453502Y13246703D01*
X-7394724Y13284477D01*
X-7359789Y13289500D01*
X-6874500Y13289500D01*
X-6807461Y13269815D01*
X-6761706Y13217011D01*
X-6750500Y13165500D01*
X-6750500Y9374669D01*
X-6751762Y9357023D01*
X-6755647Y9330000D01*
X-6751762Y9302980D01*
X-6750500Y9285333D01*
X-6750500Y9264106D01*
X-6743077Y9236404D01*
X-6740115Y9221963D01*
X-6735165Y9187544D01*
X-6735163Y9187536D01*
X-6726931Y9169511D01*
X-6719950Y9150093D01*
X-6716393Y9136817D01*
X-6716390Y9136810D01*
X-6698319Y9105509D01*
X-6692914Y9095026D01*
X-6675377Y9056627D01*
X-6667306Y9047313D01*
X-6653632Y9028110D01*
X-6650503Y9022690D01*
X-6650499Y9022685D01*
X-6619678Y8991864D01*
X-6613646Y8985385D01*
X-6581130Y8947859D01*
X-6581126Y8947855D01*
X-6577072Y8945250D01*
X-6561789Y8932934D01*
X-6557316Y8929502D01*
X-6557314Y8929500D01*
X-6513113Y8903981D01*
X-6508129Y8900944D01*
X-6460053Y8870047D01*
X-6460050Y8870046D01*
X-6460048Y8870045D01*
X-6459006Y8869569D01*
X-6449379Y8866173D01*
X-6443189Y8863610D01*
X-6443186Y8863608D01*
X-6386754Y8848488D01*
X-6386739Y8848484D01*
X-6383902Y8847688D01*
X-6321961Y8829500D01*
X-6178037Y8829500D01*
X-6178037Y8829501D01*
X-6139774Y8840737D01*
X-6116098Y8847688D01*
X-6113319Y8848469D01*
X-6056814Y8863608D01*
X-6056811Y8863611D01*
X-6050633Y8866168D01*
X-6041004Y8869566D01*
X-6039955Y8870045D01*
X-6039947Y8870047D01*
X-5991913Y8900918D01*
X-5986898Y8903975D01*
X-5942686Y8929500D01*
X-5942679Y8929508D01*
X-5938172Y8932965D01*
X-5922933Y8945248D01*
X-5918872Y8947857D01*
X-5886347Y8985395D01*
X-5880327Y8991860D01*
X-5880323Y8991864D01*
X-5849500Y9022686D01*
X-5846372Y9028106D01*
X-5832694Y9047313D01*
X-5824623Y9056627D01*
X-5807088Y9095026D01*
X-5801689Y9105498D01*
X-5783608Y9136814D01*
X-5780048Y9150102D01*
X-5773066Y9169521D01*
X-5764836Y9187541D01*
X-5764837Y9187541D01*
X-5764835Y9187543D01*
X-5759889Y9221947D01*
X-5756926Y9236394D01*
X-5754130Y9246831D01*
X-5749500Y9264108D01*
X-5749500Y9285333D01*
X-5748238Y9302980D01*
X-5744353Y9330000D01*
X-5748238Y9357023D01*
X-5749500Y9374669D01*
X-5749500Y13165500D01*
X-5729815Y13232539D01*
X-5677011Y13278294D01*
X-5625500Y13289500D01*
X-4581001Y13289500D01*
X-4513962Y13269815D01*
X-4468207Y13217011D01*
X-4458263Y13147853D01*
X-4487287Y13084300D01*
X-4549287Y13012747D01*
X-4570393Y12988389D01*
X-4570394Y12988388D01*
X-4630182Y12857473D01*
X-4650663Y12715016D01*
X-4630182Y12572560D01*
X-4584229Y12471939D01*
X-4570393Y12441643D01*
X-4476144Y12332873D01*
X-4355069Y12255063D01*
X-4355066Y12255062D01*
X-4355067Y12255062D01*
X-4216980Y12214517D01*
X-4216978Y12214516D01*
X-4216977Y12214516D01*
X-4073055Y12214516D01*
X-4019435Y12230260D01*
X-3949565Y12230260D01*
X-3890787Y12192486D01*
X-3861762Y12128930D01*
X-3860500Y12111283D01*
X-3860500Y10354359D01*
X-3860484Y10354006D01*
X-3860484Y10310394D01*
X-3860484Y10270479D01*
X-3850378Y10167862D01*
X-3827463Y9935161D01*
X-3827463Y9935156D01*
X-3827462Y9935147D01*
X-3827461Y9935145D01*
X-3779098Y9691993D01*
X-3761727Y9604657D01*
X-3761727Y9604655D01*
X-3677156Y9325856D01*
X-3663918Y9282213D01*
X-3588608Y9100395D01*
X-3534973Y8970904D01*
X-3478994Y8866173D01*
X-3384928Y8690185D01*
X-3376133Y8673732D01*
X-3376126Y8673720D01*
X-3188936Y8393568D01*
X-3188932Y8393563D01*
X-2975167Y8133089D01*
X-2918860Y8076783D01*
X-2918856Y8076778D01*
X-2242014Y7399937D01*
X-2055342Y7213265D01*
X-1932553Y7105582D01*
X-1728495Y6926627D01*
X-1691499Y6894183D01*
X-1307578Y6599590D01*
X-905217Y6330741D01*
X-905192Y6330725D01*
X-486104Y6088764D01*
X-186131Y5940834D01*
X-52077Y5874726D01*
X395018Y5689533D01*
X684834Y5591154D01*
X853258Y5533981D01*
X853273Y5533976D01*
X1089876Y5470579D01*
X1320711Y5408727D01*
X1795345Y5314316D01*
X2275137Y5251150D01*
X2758034Y5219500D01*
X2921158Y5219500D01*
X4471158Y5219500D01*
X5643788Y5219500D01*
X5676555Y5219500D01*
X5676578Y5219494D01*
X5727924Y5219494D01*
X5727924Y5219493D01*
X5889582Y5219494D01*
X5889584Y5219494D01*
X5957901Y5225472D01*
X6211668Y5247675D01*
X6530071Y5303820D01*
X6842370Y5387502D01*
X7146187Y5498083D01*
X7439211Y5634723D01*
X7719210Y5796382D01*
X7984055Y5981829D01*
X8231729Y6189652D01*
X8346039Y6303961D01*
X8405532Y6363454D01*
X9255327Y7213251D01*
X9316648Y7246734D01*
X9386339Y7241750D01*
X9442273Y7199879D01*
X9466690Y7134414D01*
X9455798Y7074052D01*
X9447088Y7054982D01*
X9441687Y7044505D01*
X9423607Y7013187D01*
X9423606Y7013184D01*
X9420046Y6999897D01*
X9413069Y6980489D01*
X9404835Y6962459D01*
X9399886Y6928044D01*
X9396925Y6913606D01*
X9389500Y6885895D01*
X9389500Y6864669D01*
X9388238Y6847023D01*
X9386991Y6838350D01*
X9384353Y6820000D01*
X9385863Y6809501D01*
X9388238Y6792980D01*
X9389500Y6775333D01*
X9389500Y1948676D01*
X9369815Y1881637D01*
X9353185Y1861000D01*
X9262186Y1770000D01*
X9186830Y1694644D01*
X9125507Y1661160D01*
X9055815Y1666144D01*
X8999882Y1708016D01*
X8976411Y1764680D01*
X8975646Y1769998D01*
X8975647Y1770000D01*
X8955165Y1912457D01*
X8895377Y2043373D01*
X8801128Y2152143D01*
X8680053Y2229953D01*
X8680051Y2229954D01*
X8680049Y2229955D01*
X8680050Y2229955D01*
X8541963Y2270500D01*
X8541961Y2270500D01*
X8398039Y2270500D01*
X8398036Y2270500D01*
X8259949Y2229955D01*
X8138873Y2152144D01*
X8044623Y2043374D01*
X8044622Y2043372D01*
X7984834Y1912457D01*
X7964353Y1770000D01*
X7984834Y1627544D01*
X8007669Y1577544D01*
X8044623Y1496627D01*
X8138872Y1387857D01*
X8259947Y1310047D01*
X8259950Y1310046D01*
X8259949Y1310046D01*
X8350638Y1283418D01*
X8394609Y1270507D01*
X8398036Y1269501D01*
X8398038Y1269500D01*
X8398039Y1269500D01*
X8541961Y1269500D01*
X8560311Y1274888D01*
X8630180Y1274888D01*
X8688958Y1237114D01*
X8717984Y1173559D01*
X8715021Y1123819D01*
X8699500Y1065894D01*
X8699500Y267291D01*
X8690065Y219848D01*
X8687018Y212492D01*
X8687016Y212486D01*
X8687016Y212485D01*
X8649500Y72474D01*
X8649500Y-72474D01*
X8664011Y-126628D01*
X8687016Y-212485D01*
X8759489Y-338013D01*
X8759491Y-338016D01*
X8813181Y-391706D01*
X8846666Y-453029D01*
X8849500Y-479387D01*
X8849500Y-2672476D01*
X8862543Y-2721155D01*
X8887014Y-2812480D01*
X8887016Y-2812485D01*
X8959490Y-2938015D01*
X9674546Y-3653071D01*
X10218743Y-4197267D01*
X10252228Y-4258590D01*
X10247244Y-4328282D01*
X10205372Y-4384215D01*
X10163158Y-4404722D01*
X10111548Y-4418551D01*
X9961616Y-4494945D01*
X9830842Y-4600842D01*
X9724945Y-4731616D01*
X9648552Y-4881546D01*
X9605001Y-5044083D01*
X9605000Y-5044084D01*
X9596194Y-5212126D01*
X9622516Y-5378323D01*
X9682822Y-5535423D01*
X9682824Y-5535427D01*
X9774466Y-5676544D01*
X9831805Y-5733883D01*
X9836002Y-5738291D01*
X10042621Y-5966261D01*
X10050341Y-5975667D01*
X10231813Y-6220353D01*
X10238573Y-6230471D01*
X10395177Y-6491747D01*
X10400913Y-6502479D01*
X10531163Y-6777867D01*
X10535818Y-6789106D01*
X10574240Y-6896483D01*
X10638443Y-7075917D01*
X10641976Y-7087562D01*
X10668981Y-7195370D01*
X10666176Y-7265183D01*
X10626072Y-7322397D01*
X10561402Y-7348847D01*
X10548697Y-7349500D01*
X9650511Y-7349500D01*
X9650293Y-7349510D01*
X9543454Y-7349510D01*
X9161968Y-7382883D01*
X9161965Y-7382883D01*
X8784854Y-7449377D01*
X8784837Y-7449381D01*
X8414956Y-7548487D01*
X8055102Y-7679461D01*
X8055094Y-7679464D01*
X7708050Y-7841292D01*
X7708038Y-7841298D01*
X7376402Y-8032767D01*
X7376376Y-8032783D01*
X7062703Y-8252419D01*
X6769356Y-8498568D01*
X6769332Y-8498590D01*
X6695888Y-8572033D01*
X6636827Y-8631094D01*
X6630904Y-8636642D01*
X6481913Y-8767302D01*
X6469046Y-8777175D01*
X6307644Y-8885020D01*
X6293596Y-8893131D01*
X6119500Y-8978984D01*
X6104514Y-8985191D01*
X5920705Y-9047583D01*
X5905037Y-9051781D01*
X5714656Y-9089647D01*
X5698574Y-9091764D01*
X5500490Y-9104743D01*
X5492383Y-9105008D01*
X5406518Y-9105008D01*
X5406498Y-9105009D01*
X4629794Y-9105009D01*
X4562755Y-9085324D01*
X4517000Y-9032520D01*
X4507056Y-8963362D01*
X4536081Y-8899806D01*
X4594859Y-8862032D01*
X4594860Y-8862032D01*
X4670050Y-8839954D01*
X4670050Y-8839953D01*
X4670053Y-8839953D01*
X4791128Y-8762143D01*
X4885377Y-8653373D01*
X4945165Y-8522457D01*
X4965647Y-8380000D01*
X4945165Y-8237543D01*
X4885377Y-8106627D01*
X4791128Y-7997857D01*
X4670053Y-7920047D01*
X4670051Y-7920046D01*
X4670049Y-7920045D01*
X4670050Y-7920045D01*
X4531963Y-7879500D01*
X4531961Y-7879500D01*
X4388039Y-7879500D01*
X4388036Y-7879500D01*
X4249949Y-7920045D01*
X4128873Y-7997856D01*
X4034623Y-8106626D01*
X4034622Y-8106628D01*
X3974834Y-8237543D01*
X3954353Y-8380000D01*
X3974834Y-8522456D01*
X4007250Y-8593436D01*
X4034623Y-8653373D01*
X4128872Y-8762143D01*
X4249947Y-8839953D01*
X4249950Y-8839954D01*
X4249949Y-8839954D01*
X4325140Y-8862032D01*
X4383919Y-8899806D01*
X4412944Y-8963361D01*
X4403001Y-9032520D01*
X4357246Y-9085324D01*
X4290207Y-9105009D01*
X3225220Y-9105009D01*
X3158181Y-9085324D01*
X3112426Y-9032520D01*
X3102482Y-8963362D01*
X3131507Y-8899806D01*
X3138623Y-8892689D01*
X3141124Y-8889802D01*
X3141128Y-8889800D01*
X3235377Y-8781030D01*
X3295165Y-8650114D01*
X3315647Y-8507657D01*
X3295165Y-8365200D01*
X3235377Y-8234284D01*
X3141128Y-8125514D01*
X3020053Y-8047704D01*
X3020051Y-8047703D01*
X3020049Y-8047702D01*
X3020050Y-8047702D01*
X2881963Y-8007157D01*
X2881961Y-8007157D01*
X2738039Y-8007157D01*
X2738036Y-8007157D01*
X2599949Y-8047702D01*
X2478873Y-8125513D01*
X2384623Y-8234283D01*
X2384622Y-8234285D01*
X2324834Y-8365200D01*
X2304353Y-8507657D01*
X2324834Y-8650113D01*
X2380401Y-8771786D01*
X2384623Y-8781030D01*
X2478872Y-8889800D01*
X2478873Y-8889800D01*
X2484680Y-8896502D01*
X2482893Y-8898049D01*
X2513757Y-8946074D01*
X2513757Y-9015944D01*
X2475982Y-9074722D01*
X2412427Y-9103747D01*
X2394780Y-9105009D01*
X1394195Y-9105009D01*
X1347958Y-9096066D01*
X1303940Y-9078377D01*
X1300180Y-9076794D01*
X1282309Y-9068920D01*
X1200839Y-9033023D01*
X1195242Y-9030387D01*
X1081891Y-8973484D01*
X1076206Y-8970442D01*
X1037404Y-8948359D01*
X1011057Y-8928271D01*
X1002323Y-8919537D01*
X929039Y-8859394D01*
X790483Y-8745682D01*
X562627Y-8593432D01*
X320945Y-8464249D01*
X126007Y-8383501D01*
X67766Y-8359376D01*
X-158930Y-8290608D01*
X-194476Y-8279825D01*
X-194479Y-8279824D01*
X-194480Y-8279824D01*
X-194485Y-8279823D01*
X-463235Y-8226365D01*
X-463251Y-8226362D01*
X-735972Y-8199500D01*
X-794153Y-8199500D01*
X-1631158Y-8199500D01*
X-8321158Y-8199500D01*
X-8478842Y-8199500D01*
X-8478845Y-8199500D01*
X-8633490Y-8230261D01*
X-8633502Y-8230264D01*
X-8779172Y-8290602D01*
X-8779183Y-8290608D01*
X-8813341Y-8313432D01*
X-8880019Y-8334309D01*
X-8947399Y-8315824D01*
X-8969912Y-8298010D01*
X-10963181Y-6304741D01*
X-10996666Y-6243418D01*
X-10999500Y-6217060D01*
X-10999500Y-5121159D01*
X-11002843Y-5104349D01*
X-11002843Y-5104348D01*
X-11030262Y-4966507D01*
X-11030263Y-4966503D01*
X-11030263Y-4966502D01*
X-11065453Y-4881546D01*
X-11066093Y-4880000D01*
X-11090603Y-4820827D01*
X-11090610Y-4820814D01*
X-11178210Y-4689712D01*
X-11224130Y-4643792D01*
X-11289711Y-4578211D01*
X-12655741Y-3212181D01*
X-12689226Y-3150858D01*
X-12684242Y-3081166D01*
X-12642370Y-3025233D01*
X-12576906Y-3000816D01*
X-12568060Y-3000500D01*
X-5681156Y-3000500D01*
X-5681155Y-3000499D01*
X-5526503Y-2969737D01*
X-5380821Y-2909394D01*
X-5249711Y-2821789D01*
X-2918483Y-490559D01*
X-2899695Y-475141D01*
X-2879711Y-461789D01*
X-2768211Y-350289D01*
X-2680606Y-219179D01*
X-2620263Y-73497D01*
X-2589500Y81158D01*
X-2589500Y130613D01*
X-2569815Y197652D01*
X-2553181Y218294D01*
X-2528294Y243181D01*
X-2466971Y276666D01*
X-2440613Y279500D01*
X-1167528Y279500D01*
X-1167525Y279500D01*
X-1027515Y317016D01*
X-901985Y389491D01*
X-799491Y491985D01*
X-727016Y617515D01*
X-689500Y757525D01*
X-689500Y902475D01*
X-727016Y1042485D01*
X-785833Y1144358D01*
X-799489Y1168012D01*
X-799490Y1168014D01*
X-799491Y1168015D01*
X-901985Y1270509D01*
X-901987Y1270510D01*
X-901989Y1270512D01*
X-1027512Y1342983D01*
X-1027511Y1342983D01*
X-1038994Y1346060D01*
X-1167525Y1380500D01*
X-2657525Y1380500D01*
X-2802475Y1380500D01*
X-2931007Y1346060D01*
X-2942489Y1342983D01*
X-3068012Y1270512D01*
X-3068014Y1270510D01*
X-3170511Y1168014D01*
X-3176011Y1158488D01*
X-3195712Y1132815D01*
X-3331708Y996818D01*
X-3393028Y963334D01*
X-3419387Y960500D01*
X-3478845Y960500D01*
X-3633490Y929739D01*
X-3633502Y929736D01*
X-3779173Y869398D01*
X-3779186Y869391D01*
X-3910289Y781790D01*
X-3910293Y781787D01*
X-6055259Y-1363181D01*
X-6116582Y-1396666D01*
X-6142940Y-1399500D01*
X-12675500Y-1399500D01*
X-12742539Y-1379815D01*
X-12788294Y-1327011D01*
X-12799500Y-1275500D01*
X-12799500Y-121155D01*
X-12799501Y-121153D01*
X-12808980Y-73501D01*
X-12830263Y33497D01*
X-12841222Y59955D01*
X-12890603Y179173D01*
X-12890610Y179186D01*
X-12978211Y310289D01*
X-12978214Y310293D01*
X-13089708Y421787D01*
X-13089712Y421790D01*
X-13220815Y509391D01*
X-13220828Y509398D01*
X-13366499Y569736D01*
X-13366511Y569739D01*
X-13521155Y600500D01*
X-13521158Y600500D01*
X-13678842Y600500D01*
X-13678845Y600500D01*
X-13833490Y569739D01*
X-13833502Y569736D01*
X-13979173Y509398D01*
X-13979186Y509391D01*
X-14110289Y421790D01*
X-14110293Y421787D01*
X-14221787Y310293D01*
X-14221790Y310289D01*
X-14309391Y179186D01*
X-14309398Y179173D01*
X-14369736Y33502D01*
X-14369739Y33490D01*
X-14400500Y-121153D01*
X-14400500Y-3478846D01*
X-14369739Y-3633489D01*
X-14369736Y-3633501D01*
X-14309398Y-3779172D01*
X-14309391Y-3779185D01*
X-14221790Y-3910288D01*
X-14221787Y-3910292D01*
X-12636819Y-5495259D01*
X-12603334Y-5556582D01*
X-12600500Y-5582940D01*
X-12600500Y-6678846D01*
X-12569739Y-6833489D01*
X-12569736Y-6833501D01*
X-12509398Y-6979172D01*
X-12509391Y-6979185D01*
X-12446993Y-7072570D01*
X-12426115Y-7139248D01*
X-12444600Y-7206628D01*
X-12496579Y-7253318D01*
X-12515160Y-7260438D01*
X-12650053Y-7300046D01*
X-12650054Y-7300046D01*
X-12751993Y-7365558D01*
X-12819032Y-7385242D01*
X-12886071Y-7365557D01*
X-12931826Y-7312752D01*
X-12934623Y-7306627D01*
X-12934624Y-7306626D01*
X-12940325Y-7300047D01*
X-13028872Y-7197857D01*
X-13149947Y-7120047D01*
X-13149949Y-7120046D01*
X-13149951Y-7120045D01*
X-13149950Y-7120045D01*
X-13288037Y-7079500D01*
X-13288039Y-7079500D01*
X-13431961Y-7079500D01*
X-13431964Y-7079500D01*
X-13570051Y-7120045D01*
X-13691127Y-7197856D01*
X-13785377Y-7306626D01*
X-13785378Y-7306628D01*
X-13845166Y-7437543D01*
X-13865647Y-7580000D01*
X-13845166Y-7722456D01*
X-13809858Y-7799768D01*
X-13785377Y-7853373D01*
X-13691128Y-7962143D01*
X-13570053Y-8039953D01*
X-13570050Y-8039954D01*
X-13570051Y-8039954D01*
X-13431964Y-8080499D01*
X-13431962Y-8080500D01*
X-13431961Y-8080500D01*
X-13288038Y-8080500D01*
X-13288038Y-8080499D01*
X-13149950Y-8039954D01*
X-13149949Y-8039954D01*
X-13139708Y-8033373D01*
X-13048010Y-7974441D01*
X-12980970Y-7954757D01*
X-12913931Y-7974441D01*
X-12868177Y-8027243D01*
X-12865379Y-8033370D01*
X-12865378Y-8033371D01*
X-12865377Y-8033373D01*
X-12771128Y-8142143D01*
X-12650053Y-8219953D01*
X-12650050Y-8219954D01*
X-12650051Y-8219954D01*
X-12511964Y-8260499D01*
X-12511962Y-8260500D01*
X-12511961Y-8260500D01*
X-12368038Y-8260500D01*
X-12368038Y-8260499D01*
X-12260227Y-8228844D01*
X-12229950Y-8219954D01*
X-12229950Y-8219953D01*
X-12229947Y-8219953D01*
X-12108872Y-8142143D01*
X-12014623Y-8033373D01*
X-11954835Y-7902457D01*
X-11949209Y-7863322D01*
X-11920185Y-7799768D01*
X-11861408Y-7761992D01*
X-11791538Y-7761991D01*
X-11738790Y-7793288D01*
X-10346819Y-9185259D01*
X-10313334Y-9246582D01*
X-10310500Y-9272940D01*
X-10310500Y-10258846D01*
X-10279739Y-10413489D01*
X-10279736Y-10413501D01*
X-10219398Y-10559172D01*
X-10219391Y-10559185D01*
X-10131790Y-10690288D01*
X-10131787Y-10690292D01*
X-10020293Y-10801786D01*
X-10020289Y-10801789D01*
X-9889186Y-10889390D01*
X-9889173Y-10889397D01*
X-9766896Y-10940045D01*
X-9743497Y-10949737D01*
X-9588847Y-10980499D01*
X-9588844Y-10980500D01*
X-9588842Y-10980500D01*
X-9431156Y-10980500D01*
X-9431155Y-10980499D01*
X-9276503Y-10949737D01*
X-9130821Y-10889394D01*
X-8999711Y-10801789D01*
X-8888211Y-10690289D01*
X-8800606Y-10559179D01*
X-8791311Y-10536736D01*
X-8764433Y-10496509D01*
X-8240812Y-9972889D01*
X-8179490Y-9939405D01*
X-8109798Y-9944389D01*
X-8053865Y-9986261D01*
X-8029448Y-10051725D01*
X-8033357Y-10092663D01*
X-8052500Y-10164106D01*
X-8052500Y-10164108D01*
X-8052500Y-10295892D01*
X-8047987Y-10312736D01*
X-8018392Y-10423187D01*
X-7998890Y-10456964D01*
X-7952500Y-10537314D01*
X-7859314Y-10630500D01*
X-7776316Y-10678419D01*
X-7745604Y-10696151D01*
X-7745186Y-10696392D01*
X-7617892Y-10730500D01*
X-7617890Y-10730500D01*
X-7486110Y-10730500D01*
X-7486108Y-10730500D01*
X-7358814Y-10696392D01*
X-7244686Y-10630500D01*
X-7151500Y-10537314D01*
X-7085608Y-10423186D01*
X-7051500Y-10295892D01*
X-7051500Y-10164108D01*
X-7085608Y-10036814D01*
X-7091037Y-10027411D01*
X-7114656Y-9986501D01*
X-7131130Y-9918601D01*
X-7108278Y-9852574D01*
X-7053357Y-9809383D01*
X-7007270Y-9800500D01*
X-1927260Y-9800500D01*
X-1860221Y-9820185D01*
X-1814466Y-9872989D01*
X-1804522Y-9942147D01*
X-1814464Y-9976009D01*
X-1815166Y-9977544D01*
X-1835647Y-10120000D01*
X-1815166Y-10262456D01*
X-1755378Y-10393371D01*
X-1755377Y-10393373D01*
X-1661128Y-10502143D01*
X-1540053Y-10579953D01*
X-1540050Y-10579954D01*
X-1540051Y-10579954D01*
X-1461262Y-10603088D01*
X-1403821Y-10619954D01*
X-1401964Y-10620499D01*
X-1401962Y-10620500D01*
X-1401961Y-10620500D01*
X-1258038Y-10620500D01*
X-1258038Y-10620499D01*
X-1119947Y-10579953D01*
X-998872Y-10502143D01*
X-904623Y-10393373D01*
X-844835Y-10262457D01*
X-824353Y-10120000D01*
X-844835Y-9977543D01*
X-844836Y-9977540D01*
X-846681Y-9971255D01*
X-846683Y-9901386D01*
X-808910Y-9842607D01*
X-745355Y-9813581D01*
X-717973Y-9812701D01*
X-696863Y-9814363D01*
X-677649Y-9817405D01*
X-531164Y-9852574D01*
X-515340Y-9856373D01*
X-496836Y-9862385D01*
X-342615Y-9926267D01*
X-325294Y-9935093D01*
X-182964Y-10022313D01*
X-167230Y-10033745D01*
X-121906Y-10072456D01*
X-65876Y-10120311D01*
X-54934Y-10131769D01*
X-54681Y-10131530D01*
X-50489Y-10135950D01*
X-15939Y-10165873D01*
X-9437Y-10171925D01*
X26618Y-10207980D01*
X26620Y-10207981D01*
X26621Y-10207982D01*
X43680Y-10219061D01*
X57320Y-10229320D01*
X68702Y-10239177D01*
X68703Y-10239177D01*
X68706Y-10239180D01*
X113712Y-10264793D01*
X119880Y-10268547D01*
X167742Y-10299629D01*
X167746Y-10299630D01*
X167747Y-10299631D01*
X181059Y-10304741D01*
X197956Y-10312736D01*
X247239Y-10340783D01*
X262088Y-10350714D01*
X271613Y-10358131D01*
X271615Y-10358132D01*
X271618Y-10358134D01*
X320527Y-10382686D01*
X326222Y-10385732D01*
X373801Y-10412810D01*
X385252Y-10416618D01*
X401741Y-10423456D01*
X437219Y-10441266D01*
X452759Y-10450546D01*
X461911Y-10456962D01*
X512819Y-10479392D01*
X518416Y-10482028D01*
X568150Y-10506995D01*
X568152Y-10506995D01*
X568153Y-10506996D01*
X570778Y-10507719D01*
X578921Y-10509963D01*
X595991Y-10516040D01*
X599139Y-10517427D01*
X599320Y-10517507D01*
X617094Y-10527144D01*
X619718Y-10528857D01*
X678761Y-10552582D01*
X682484Y-10554150D01*
X740726Y-10579813D01*
X740728Y-10579813D01*
X740732Y-10579815D01*
X745152Y-10581264D01*
X749562Y-10582802D01*
X803868Y-10602904D01*
X806999Y-10604113D01*
X823714Y-10610830D01*
X830572Y-10614185D01*
X830640Y-10614038D01*
X836178Y-10616574D01*
X836182Y-10616577D01*
X842412Y-10618721D01*
X845993Y-10619954D01*
X851872Y-10622145D01*
X868356Y-10628769D01*
X873243Y-10630195D01*
X884057Y-10633054D01*
X900732Y-10638793D01*
X903302Y-10639711D01*
X967299Y-10663402D01*
X967300Y-10663402D01*
X970096Y-10664437D01*
X974500Y-10666164D01*
X996048Y-10675089D01*
X996427Y-10675246D01*
X1012390Y-10678420D01*
X1028554Y-10682788D01*
X1043953Y-10688089D01*
X1094055Y-10694900D01*
X1101493Y-10696144D01*
X1151082Y-10706009D01*
X1167359Y-10706009D01*
X1184062Y-10707139D01*
X1189383Y-10707862D01*
X1200201Y-10709333D01*
X1250652Y-10706241D01*
X1258236Y-10706009D01*
X5581645Y-10706009D01*
X5582034Y-10705989D01*
X5654396Y-10705991D01*
X5968201Y-10675089D01*
X6277466Y-10613578D01*
X6286526Y-10610830D01*
X6383995Y-10581264D01*
X6579212Y-10522048D01*
X6754684Y-10449366D01*
X6824151Y-10441898D01*
X6886630Y-10473174D01*
X6922282Y-10533263D01*
X6919788Y-10603088D01*
X6914930Y-10615436D01*
X6904834Y-10637542D01*
X6884353Y-10780000D01*
X6904834Y-10922456D01*
X6948403Y-11017856D01*
X6964623Y-11053373D01*
X7058872Y-11162143D01*
X7179947Y-11239953D01*
X7179950Y-11239954D01*
X7179949Y-11239954D01*
X7318036Y-11280499D01*
X7318038Y-11280500D01*
X7340353Y-11280500D01*
X7407392Y-11300185D01*
X7453147Y-11352989D01*
X7461513Y-11391448D01*
X7463091Y-11391222D01*
X7484834Y-11542456D01*
X7543471Y-11670850D01*
X7544623Y-11673373D01*
X7638872Y-11782143D01*
X7759947Y-11859953D01*
X7759950Y-11859954D01*
X7759949Y-11859954D01*
X7898036Y-11900499D01*
X7898038Y-11900500D01*
X7898039Y-11900500D01*
X8041962Y-11900500D01*
X8041962Y-11900499D01*
X8180053Y-11859953D01*
X8301128Y-11782143D01*
X8301136Y-11782133D01*
X8304571Y-11779158D01*
X8368125Y-11750128D01*
X8437284Y-11760065D01*
X8490092Y-11805816D01*
X8509782Y-11872853D01*
X8506058Y-11898759D01*
X8506097Y-11898765D01*
X8484353Y-12050000D01*
X8504834Y-12192456D01*
X8540136Y-12269755D01*
X8564623Y-12323373D01*
X8658872Y-12432143D01*
X8779947Y-12509953D01*
X8779950Y-12509954D01*
X8779949Y-12509954D01*
X8918036Y-12550499D01*
X8918038Y-12550500D01*
X8918039Y-12550500D01*
X9061962Y-12550500D01*
X9061962Y-12550499D01*
X9200053Y-12509953D01*
X9321128Y-12432143D01*
X9415377Y-12323373D01*
X9475165Y-12192457D01*
X9495647Y-12050000D01*
X9475165Y-11907543D01*
X9415377Y-11776627D01*
X9321128Y-11667857D01*
X9200053Y-11590047D01*
X9200051Y-11590046D01*
X9200049Y-11590045D01*
X9200050Y-11590045D01*
X9061963Y-11549500D01*
X9061961Y-11549500D01*
X8918039Y-11549500D01*
X8918036Y-11549500D01*
X8779949Y-11590045D01*
X8658872Y-11667856D01*
X8655418Y-11670850D01*
X8591862Y-11699873D01*
X8522703Y-11689928D01*
X8469900Y-11644172D01*
X8450217Y-11577133D01*
X8453941Y-11551240D01*
X8453903Y-11551235D01*
X8458211Y-11521269D01*
X8475647Y-11400000D01*
X8455165Y-11257543D01*
X8395377Y-11126627D01*
X8301128Y-11017857D01*
X8180053Y-10940047D01*
X8180051Y-10940046D01*
X8180049Y-10940045D01*
X8180050Y-10940045D01*
X8041963Y-10899500D01*
X8041961Y-10899500D01*
X8019647Y-10899500D01*
X7952608Y-10879815D01*
X7906853Y-10827011D01*
X7898486Y-10788552D01*
X7896909Y-10788779D01*
X7891710Y-10752621D01*
X7875165Y-10637543D01*
X7815377Y-10506627D01*
X7721128Y-10397857D01*
X7600053Y-10320047D01*
X7600050Y-10320045D01*
X7468061Y-10281290D01*
X7409283Y-10243516D01*
X7380258Y-10179960D01*
X7390202Y-10110801D01*
X7424329Y-10066462D01*
X7654555Y-9877522D01*
X7706544Y-9825532D01*
X7706546Y-9825532D01*
X7763895Y-9768182D01*
X7768238Y-9764047D01*
X7964005Y-9586613D01*
X7973381Y-9578919D01*
X8183103Y-9423379D01*
X8193196Y-9416636D01*
X8417143Y-9282408D01*
X8427835Y-9276692D01*
X8663879Y-9165052D01*
X8675086Y-9160410D01*
X8920936Y-9072444D01*
X8932541Y-9068925D01*
X9185798Y-9005489D01*
X9197725Y-9003117D01*
X9455976Y-8964810D01*
X9468072Y-8963618D01*
X9732110Y-8950648D01*
X9738192Y-8950500D01*
X9819055Y-8950500D01*
X10675500Y-8950500D01*
X10742539Y-8970185D01*
X10788294Y-9022989D01*
X10799500Y-9074500D01*
X10799500Y-13088672D01*
X10797117Y-13112864D01*
X10789500Y-13151156D01*
X10789500Y-13308846D01*
X10820261Y-13463489D01*
X10820264Y-13463501D01*
X10880602Y-13609172D01*
X10880609Y-13609185D01*
X10968210Y-13740288D01*
X10968213Y-13740292D01*
X11079707Y-13851786D01*
X11079711Y-13851789D01*
X11210814Y-13939390D01*
X11210827Y-13939397D01*
X11314693Y-13982419D01*
X11356503Y-13999737D01*
X11511153Y-14030499D01*
X11511156Y-14030500D01*
X11511158Y-14030500D01*
X11668844Y-14030500D01*
X11668845Y-14030499D01*
X11823497Y-13999737D01*
X11969179Y-13939394D01*
X12100289Y-13851789D01*
X12221789Y-13730289D01*
X12227556Y-13721658D01*
X12307534Y-13601963D01*
X12309389Y-13599187D01*
X12309390Y-13599184D01*
X12309394Y-13599179D01*
X12369737Y-13453497D01*
X12400500Y-13298842D01*
X12400500Y-13091158D01*
X12400500Y-11210000D01*
X13024353Y-11210000D01*
X13044834Y-11352456D01*
X13104622Y-11483371D01*
X13104623Y-11483373D01*
X13198872Y-11592143D01*
X13319947Y-11669953D01*
X13319950Y-11669954D01*
X13319949Y-11669954D01*
X13458036Y-11710499D01*
X13458038Y-11710500D01*
X13458039Y-11710500D01*
X13601962Y-11710500D01*
X13601962Y-11710499D01*
X13709121Y-11679035D01*
X13740050Y-11669954D01*
X13740050Y-11669953D01*
X13740053Y-11669953D01*
X13861128Y-11592143D01*
X13955377Y-11483373D01*
X14015165Y-11352457D01*
X14035647Y-11210000D01*
X14015165Y-11067543D01*
X13955377Y-10936627D01*
X13861128Y-10827857D01*
X13740053Y-10750047D01*
X13740051Y-10750046D01*
X13740049Y-10750045D01*
X13740050Y-10750045D01*
X13601963Y-10709500D01*
X13601961Y-10709500D01*
X13458039Y-10709500D01*
X13458036Y-10709500D01*
X13319949Y-10750045D01*
X13198873Y-10827856D01*
X13104623Y-10936626D01*
X13104622Y-10936628D01*
X13044834Y-11067543D01*
X13024353Y-11210000D01*
X12400500Y-11210000D01*
X12400500Y-9074500D01*
X12420185Y-9007461D01*
X12472989Y-8961706D01*
X12524500Y-8950500D01*
X14788844Y-8950500D01*
X14788845Y-8950499D01*
X14943497Y-8919737D01*
X15089179Y-8859394D01*
X15220289Y-8771789D01*
X15331789Y-8660289D01*
X15419394Y-8529179D01*
X15479737Y-8383497D01*
X15510500Y-8228842D01*
X15510500Y-8071158D01*
X15510500Y-8071155D01*
X15510499Y-8071153D01*
X15502864Y-8032772D01*
X15479737Y-7916503D01*
X15473918Y-7902455D01*
X15419397Y-7770827D01*
X15419390Y-7770814D01*
X15331789Y-7639711D01*
X15331786Y-7639707D01*
X15220292Y-7528213D01*
X15220288Y-7528210D01*
X15089185Y-7440609D01*
X15089172Y-7440602D01*
X14943501Y-7380264D01*
X14943489Y-7380261D01*
X14788845Y-7349500D01*
X14788842Y-7349500D01*
X12440608Y-7349500D01*
X12373569Y-7329815D01*
X12327814Y-7277011D01*
X12318135Y-7244898D01*
X12291368Y-7075904D01*
X12291367Y-7075897D01*
X12202776Y-6706897D01*
X12109406Y-6419541D01*
X12107412Y-6349701D01*
X12143492Y-6289868D01*
X12206193Y-6259040D01*
X12275607Y-6267004D01*
X12315019Y-6293543D01*
X12861986Y-6840510D01*
X12987515Y-6912984D01*
X13127526Y-6950500D01*
X13127529Y-6950500D01*
X13272472Y-6950500D01*
X13272475Y-6950500D01*
X13412485Y-6912984D01*
X13538015Y-6840510D01*
X13640510Y-6738015D01*
X13712984Y-6612485D01*
X13738372Y-6517734D01*
X13774736Y-6458077D01*
X13837583Y-6427548D01*
X13906959Y-6435843D01*
X13927029Y-6446724D01*
X14020821Y-6509394D01*
X14020823Y-6509395D01*
X14020827Y-6509397D01*
X14166498Y-6569735D01*
X14166503Y-6569737D01*
X14166507Y-6569737D01*
X14166508Y-6569738D01*
X14321154Y-6600500D01*
X14321157Y-6600500D01*
X14321158Y-6600500D01*
X16247499Y-6600500D01*
X16314538Y-6620185D01*
X16360293Y-6672989D01*
X16370237Y-6742147D01*
X16366159Y-6760496D01*
X16356311Y-6792958D01*
X16356307Y-6792975D01*
X16291877Y-7116862D01*
X16291876Y-7116868D01*
X16259501Y-7445530D01*
X16259500Y-7531815D01*
X16259500Y-7610647D01*
X16259499Y-7702377D01*
X16259500Y-7702394D01*
X16259500Y-9197293D01*
X16259382Y-9202702D01*
X16244408Y-9545649D01*
X16243465Y-9556425D01*
X16199014Y-9894066D01*
X16197136Y-9904720D01*
X16123422Y-10237218D01*
X16120622Y-10247667D01*
X16018212Y-10572468D01*
X16014512Y-10582633D01*
X15884183Y-10897272D01*
X15879611Y-10907076D01*
X15797036Y-11065701D01*
X15748621Y-11116076D01*
X15680656Y-11132279D01*
X15614720Y-11109165D01*
X15593334Y-11089647D01*
X15574181Y-11067543D01*
X15531128Y-11017857D01*
X15410053Y-10940047D01*
X15410051Y-10940046D01*
X15410049Y-10940045D01*
X15410050Y-10940045D01*
X15271963Y-10899500D01*
X15271961Y-10899500D01*
X15128039Y-10899500D01*
X15128036Y-10899500D01*
X14989949Y-10940045D01*
X14868873Y-11017856D01*
X14774623Y-11126626D01*
X14774622Y-11126628D01*
X14714834Y-11257543D01*
X14694353Y-11400000D01*
X14714834Y-11542456D01*
X14773471Y-11670850D01*
X14774623Y-11673373D01*
X14868872Y-11782143D01*
X14989947Y-11859953D01*
X15004336Y-11864177D01*
X15063113Y-11901948D01*
X15092140Y-11965503D01*
X15082200Y-12034662D01*
X15057084Y-12070836D01*
X14838211Y-12289709D01*
X14750607Y-12420819D01*
X14750601Y-12420830D01*
X14690263Y-12566501D01*
X14690260Y-12566513D01*
X14659500Y-12721155D01*
X14659500Y-12735494D01*
X14639815Y-12802533D01*
X14614165Y-12831347D01*
X14258364Y-13123344D01*
X14251926Y-13128284D01*
X13817446Y-13439628D01*
X13810699Y-13444136D01*
X13356789Y-13726395D01*
X13349762Y-13730452D01*
X12878367Y-13982419D01*
X12871089Y-13986008D01*
X12384210Y-14206609D01*
X12376714Y-14209714D01*
X11876472Y-14397991D01*
X11868788Y-14400600D01*
X11357278Y-14555765D01*
X11349440Y-14557865D01*
X10828891Y-14679240D01*
X10820933Y-14680823D01*
X10293554Y-14767893D01*
X10285509Y-14768952D01*
X9753575Y-14821341D01*
X9745478Y-14821872D01*
X9346572Y-14834931D01*
X9209013Y-14839434D01*
X9204971Y-14839500D01*
X6356093Y-14839500D01*
X6343939Y-14838903D01*
X6334882Y-14838011D01*
X6219927Y-14826688D01*
X6196087Y-14821946D01*
X6183200Y-14818036D01*
X6082700Y-14787550D01*
X6060248Y-14778249D01*
X5955749Y-14722391D01*
X5935537Y-14708885D01*
X5857135Y-14644539D01*
X5853608Y-14641532D01*
X5825484Y-14616634D01*
X5820012Y-14611486D01*
X5787239Y-14578712D01*
X5787238Y-14578711D01*
X5782378Y-14575773D01*
X5764342Y-14562506D01*
X5760090Y-14558742D01*
X5754413Y-14555765D01*
X5719048Y-14537220D01*
X5712490Y-14533523D01*
X5698960Y-14525343D01*
X5675434Y-14506910D01*
X5307309Y-14138784D01*
X5307289Y-14138748D01*
X5182474Y-14013936D01*
X5182470Y-14013932D01*
X5112184Y-13960000D01*
X6334353Y-13960000D01*
X6354834Y-14102456D01*
X6403818Y-14209714D01*
X6414623Y-14233373D01*
X6508872Y-14342143D01*
X6629947Y-14419953D01*
X6629950Y-14419954D01*
X6629949Y-14419954D01*
X6768036Y-14460499D01*
X6768038Y-14460500D01*
X6768039Y-14460500D01*
X6911962Y-14460500D01*
X6911962Y-14460499D01*
X7050053Y-14419953D01*
X7171128Y-14342143D01*
X7265377Y-14233373D01*
X7297206Y-14163678D01*
X7342960Y-14110874D01*
X7410000Y-14091189D01*
X7477039Y-14110873D01*
X7522794Y-14163677D01*
X7522794Y-14163678D01*
X7554620Y-14233369D01*
X7554623Y-14233373D01*
X7648872Y-14342143D01*
X7769947Y-14419953D01*
X7769950Y-14419954D01*
X7769949Y-14419954D01*
X7908036Y-14460499D01*
X7908038Y-14460500D01*
X7908039Y-14460500D01*
X8051962Y-14460500D01*
X8051962Y-14460499D01*
X8190053Y-14419953D01*
X8311128Y-14342143D01*
X8405377Y-14233373D01*
X8465165Y-14102457D01*
X8485647Y-13960000D01*
X8465165Y-13817543D01*
X8405377Y-13686627D01*
X8311128Y-13577857D01*
X8190053Y-13500047D01*
X8190051Y-13500046D01*
X8190049Y-13500045D01*
X8190050Y-13500045D01*
X8051963Y-13459500D01*
X8051961Y-13459500D01*
X7908039Y-13459500D01*
X7908036Y-13459500D01*
X7769949Y-13500045D01*
X7648873Y-13577856D01*
X7554623Y-13686626D01*
X7554622Y-13686628D01*
X7522794Y-13756322D01*
X7477039Y-13809126D01*
X7410000Y-13828810D01*
X7342960Y-13809125D01*
X7297206Y-13756322D01*
X7284518Y-13728539D01*
X7265377Y-13686627D01*
X7171128Y-13577857D01*
X7050053Y-13500047D01*
X7050051Y-13500046D01*
X7050049Y-13500045D01*
X7050050Y-13500045D01*
X6911963Y-13459500D01*
X6911961Y-13459500D01*
X6768039Y-13459500D01*
X6768036Y-13459500D01*
X6629949Y-13500045D01*
X6508873Y-13577856D01*
X6414623Y-13686626D01*
X6414622Y-13686628D01*
X6354834Y-13817543D01*
X6334353Y-13960000D01*
X5112184Y-13960000D01*
X5106613Y-13955725D01*
X4987698Y-13864478D01*
X4817818Y-13766400D01*
X4775083Y-13741727D01*
X4775079Y-13741725D01*
X4775073Y-13741722D01*
X4548265Y-13647777D01*
X4548261Y-13647776D01*
X4311123Y-13584239D01*
X4311120Y-13584238D01*
X4067729Y-13552199D01*
X4067724Y-13552198D01*
X4067719Y-13552198D01*
X4067711Y-13552198D01*
X3944966Y-13552200D01*
X1115464Y-13552200D01*
X1048425Y-13532515D01*
X1002670Y-13479711D01*
X992726Y-13410553D01*
X1015146Y-13355315D01*
X1106191Y-13230000D01*
X5274353Y-13230000D01*
X5294834Y-13372456D01*
X5336408Y-13463489D01*
X5354623Y-13503373D01*
X5448872Y-13612143D01*
X5569947Y-13689953D01*
X5569950Y-13689954D01*
X5569949Y-13689954D01*
X5677107Y-13721417D01*
X5707320Y-13730289D01*
X5708036Y-13730499D01*
X5708038Y-13730500D01*
X5708039Y-13730500D01*
X5851962Y-13730500D01*
X5851962Y-13730499D01*
X5990053Y-13689953D01*
X6111128Y-13612143D01*
X6205377Y-13503373D01*
X6265165Y-13372457D01*
X6285647Y-13230000D01*
X6265165Y-13087543D01*
X6205377Y-12956627D01*
X6111128Y-12847857D01*
X5990053Y-12770047D01*
X5990051Y-12770046D01*
X5990049Y-12770045D01*
X5990050Y-12770045D01*
X5851963Y-12729500D01*
X5851961Y-12729500D01*
X5708039Y-12729500D01*
X5708036Y-12729500D01*
X5569949Y-12770045D01*
X5448873Y-12847856D01*
X5354623Y-12956626D01*
X5354622Y-12956628D01*
X5294834Y-13087543D01*
X5274353Y-13230000D01*
X1106191Y-13230000D01*
X1112287Y-13221610D01*
X1205220Y-13039219D01*
X1268477Y-12844534D01*
X1300500Y-12642352D01*
X1300500Y-12437648D01*
X1277069Y-12289712D01*
X1268477Y-12235465D01*
X1205218Y-12040776D01*
X1166864Y-11965503D01*
X1112287Y-11858390D01*
X1069865Y-11800000D01*
X991971Y-11692786D01*
X847213Y-11548028D01*
X681613Y-11427715D01*
X681612Y-11427714D01*
X681610Y-11427713D01*
X610436Y-11391448D01*
X499223Y-11334781D01*
X304534Y-11271522D01*
X105218Y-11239954D01*
X102352Y-11239500D01*
X-102352Y-11239500D01*
X-105218Y-11239954D01*
X-304535Y-11271522D01*
X-499224Y-11334781D01*
X-681614Y-11427715D01*
X-847214Y-11548028D01*
X-991972Y-11692786D01*
X-1112285Y-11858386D01*
X-1205219Y-12040776D01*
X-1268478Y-12235465D01*
X-1300500Y-12437648D01*
X-1300500Y-12642351D01*
X-1268478Y-12844534D01*
X-1205219Y-13039223D01*
X-1151859Y-13143946D01*
X-1119830Y-13206807D01*
X-1112285Y-13221613D01*
X-1015146Y-13355315D01*
X-991666Y-13421121D01*
X-1007492Y-13489175D01*
X-1057598Y-13537870D01*
X-1115464Y-13552200D01*
X-5825175Y-13552200D01*
X-5920923Y-13577856D01*
X-5965186Y-13589716D01*
X-6090714Y-13662189D01*
X-6090717Y-13662191D01*
X-6220509Y-13791983D01*
X-6220511Y-13791986D01*
X-6292984Y-13917514D01*
X-6298847Y-13939397D01*
X-6330500Y-14057526D01*
X-6330500Y-14202474D01*
X-6292984Y-14342485D01*
X-6220510Y-14468015D01*
X-6118015Y-14570510D01*
X-5992485Y-14642984D01*
X-5852474Y-14680500D01*
X-5852471Y-14680500D01*
X-5707528Y-14680500D01*
X-5707526Y-14680500D01*
X-5635384Y-14661169D01*
X-5621408Y-14657425D01*
X-5589315Y-14653200D01*
X3677525Y-14653200D01*
X3878139Y-14653200D01*
X3878143Y-14653201D01*
X3938896Y-14653200D01*
X3951047Y-14653796D01*
X3987890Y-14657425D01*
X4083404Y-14666831D01*
X4107245Y-14671573D01*
X4228662Y-14708402D01*
X4251119Y-14717704D01*
X4292915Y-14740044D01*
X4363013Y-14777512D01*
X4383224Y-14791016D01*
X4485954Y-14875323D01*
X4494971Y-14883496D01*
X4951346Y-15339871D01*
X4951370Y-15339915D01*
X5037003Y-15425544D01*
X5037180Y-15425704D01*
X5038934Y-15427458D01*
X5057858Y-15438385D01*
X5064735Y-15442660D01*
X5138780Y-15492128D01*
X5138782Y-15492129D01*
X5138787Y-15492132D01*
X5144163Y-15495005D01*
X5143886Y-15495522D01*
X5164099Y-15507189D01*
X5331104Y-15635341D01*
X5331111Y-15635345D01*
X5331117Y-15635349D01*
X5538844Y-15755284D01*
X5538850Y-15755287D01*
X5538857Y-15755291D01*
X5760490Y-15847096D01*
X5992210Y-15909187D01*
X6201797Y-15936780D01*
X6229999Y-15940493D01*
X6230053Y-15940500D01*
X6230060Y-15940500D01*
X9287883Y-15940500D01*
X9287973Y-15940494D01*
X9491009Y-15940494D01*
X9491022Y-15940494D01*
X10057658Y-15906220D01*
X10621191Y-15837795D01*
X11179565Y-15735470D01*
X11730741Y-15599618D01*
X12272710Y-15430734D01*
X12803492Y-15229435D01*
X13321152Y-14996456D01*
X13823801Y-14732646D01*
X14309604Y-14438968D01*
X14776789Y-14116494D01*
X15158372Y-13817543D01*
X15223644Y-13766406D01*
X15223645Y-13766405D01*
X15223651Y-13766400D01*
X15375713Y-13631684D01*
X15438945Y-13601963D01*
X15457939Y-13600500D01*
X15538847Y-13600500D01*
X15642890Y-13579803D01*
X15693499Y-13569737D01*
X15839181Y-13509393D01*
X15970291Y-13421787D01*
X16093235Y-13298842D01*
X16185270Y-13206807D01*
X16185271Y-13206805D01*
X16211823Y-13180254D01*
X16211822Y-13180253D01*
X16248131Y-13143946D01*
X16248139Y-13143935D01*
X16267576Y-13124500D01*
X16267577Y-13124497D01*
X16272427Y-13119648D01*
X16272501Y-13119564D01*
X16368203Y-13023865D01*
X16655469Y-12687522D01*
X16915461Y-12329676D01*
X17146575Y-11952535D01*
X17347386Y-11558423D01*
X17516656Y-11149771D01*
X17653342Y-10729098D01*
X17756601Y-10298997D01*
X17825796Y-9862120D01*
X17860500Y-9421161D01*
X17860500Y-9200000D01*
X17860500Y-9115864D01*
X17860500Y-7614727D01*
X17860766Y-7606615D01*
X17868632Y-7486627D01*
X17875030Y-7389030D01*
X17877147Y-7372955D01*
X17918898Y-7163071D01*
X17923089Y-7147427D01*
X17991883Y-6944774D01*
X17998084Y-6929804D01*
X18092740Y-6737864D01*
X18100831Y-6723851D01*
X18219734Y-6545899D01*
X18229585Y-6533061D01*
X18373576Y-6368872D01*
X18379081Y-6362996D01*
X18435532Y-6306546D01*
X20191789Y-4550289D01*
X20279394Y-4419179D01*
X20291354Y-4390306D01*
X20310109Y-4345025D01*
X20339737Y-4273497D01*
X20370500Y-4118842D01*
X20370500Y-3961158D01*
X20370500Y-2721156D01*
X20370500Y-2684315D01*
X20372451Y-2666430D01*
X20372165Y-2666398D01*
X20372945Y-2659495D01*
X20373484Y-2649345D01*
X20373584Y-2648329D01*
X20373586Y-2648320D01*
X20373586Y-2573059D01*
X20373590Y-2572077D01*
X20374226Y-2491681D01*
X20374225Y-2491680D01*
X20374226Y-2491675D01*
X20363010Y-2436776D01*
X20360500Y-2411955D01*
X20360500Y1718845D01*
X20360499Y1718847D01*
X20329738Y1873490D01*
X20329737Y1873497D01*
X20329735Y1873502D01*
X20269397Y2019173D01*
X20269390Y2019186D01*
X20181790Y2150288D01*
X20133751Y2198327D01*
X20070289Y2261789D01*
X18636819Y3695259D01*
X18603334Y3756582D01*
X18600500Y3782940D01*
X18600500Y6078841D01*
X18598526Y6088764D01*
X18594241Y6110307D01*
X18592980Y6116645D01*
X18569739Y6233490D01*
X18569738Y6233497D01*
X18509394Y6379179D01*
X18509392Y6379182D01*
X18509390Y6379186D01*
X18421789Y6510289D01*
X18421786Y6510293D01*
X15910292Y9021787D01*
X15910288Y9021790D01*
X15779185Y9109391D01*
X15779172Y9109398D01*
X15633501Y9169736D01*
X15633489Y9169739D01*
X15478845Y9200500D01*
X15478842Y9200500D01*
X10524500Y9200500D01*
X10457461Y9220185D01*
X10411706Y9272989D01*
X10400500Y9324500D01*
X10400500Y10008845D01*
X10400499Y10008847D01*
X10379652Y10113651D01*
X10369737Y10163497D01*
X10367563Y10168746D01*
X10309397Y10309173D01*
X10309390Y10309186D01*
X10221789Y10440289D01*
X10221786Y10440293D01*
X10110292Y10551787D01*
X10110288Y10551790D01*
X9979185Y10639391D01*
X9979172Y10639398D01*
X9833501Y10699736D01*
X9833489Y10699739D01*
X9678845Y10730500D01*
X9678842Y10730500D01*
X9521158Y10730500D01*
X9521155Y10730500D01*
X9366510Y10699739D01*
X9366498Y10699736D01*
X9220827Y10639398D01*
X9220814Y10639391D01*
X9089711Y10551790D01*
X9089707Y10551787D01*
X8978213Y10440293D01*
X8978210Y10440289D01*
X8890609Y10309186D01*
X8890602Y10309173D01*
X8830264Y10163502D01*
X8830261Y10163490D01*
X8799500Y10008847D01*
X8799500Y9038280D01*
X8779815Y8971241D01*
X8750989Y8939906D01*
X8608434Y8830515D01*
X8608430Y8830512D01*
X8566251Y8788329D01*
X8566248Y8788326D01*
X8256025Y8478104D01*
X8194702Y8444619D01*
X8125010Y8449603D01*
X8069077Y8491475D01*
X8044660Y8556939D01*
X8057858Y8622078D01*
X8135890Y8775224D01*
X8152601Y8808020D01*
X8152601Y8808022D01*
X8222541Y9023275D01*
X8222541Y9023276D01*
X8222542Y9023279D01*
X8257950Y9246831D01*
X8257950Y9473169D01*
X8222542Y9696721D01*
X8222541Y9696725D01*
X8222541Y9696726D01*
X8152601Y9911979D01*
X8152599Y9911982D01*
X8149526Y9918015D01*
X8049845Y10113650D01*
X7916807Y10296761D01*
X7756761Y10456807D01*
X7573650Y10589845D01*
X7371981Y10692600D01*
X7371978Y10692602D01*
X7156723Y10762542D01*
X7007686Y10786148D01*
X6933169Y10797950D01*
X6706831Y10797950D01*
X6632313Y10786148D01*
X6483277Y10762542D01*
X6483274Y10762542D01*
X6268021Y10692602D01*
X6268018Y10692600D01*
X6066349Y10589845D01*
X5974445Y10523072D01*
X5883239Y10456807D01*
X5883237Y10456805D01*
X5883236Y10456805D01*
X5723195Y10296764D01*
X5723195Y10296763D01*
X5723193Y10296761D01*
X5704098Y10270479D01*
X5590155Y10113651D01*
X5487400Y9911982D01*
X5487398Y9911979D01*
X5417458Y9696726D01*
X5417458Y9696723D01*
X5390215Y9524718D01*
X5382050Y9473169D01*
X5382050Y9246831D01*
X5394261Y9169737D01*
X5417458Y9023278D01*
X5417458Y9023275D01*
X5487398Y8808022D01*
X5487399Y8808020D01*
X5540172Y8704447D01*
X5590155Y8606350D01*
X5723193Y8423239D01*
X5883239Y8263193D01*
X6066350Y8130155D01*
X6268019Y8027400D01*
X6268021Y8027399D01*
X6411258Y7980859D01*
X6483279Y7957458D01*
X6706831Y7922050D01*
X6706832Y7922050D01*
X6933168Y7922050D01*
X6933169Y7922050D01*
X7156721Y7957458D01*
X7156724Y7957459D01*
X7156725Y7957459D01*
X7371978Y8027399D01*
X7371981Y8027400D01*
X7372271Y8027548D01*
X7557922Y8122142D01*
X7626589Y8135037D01*
X7691330Y8108761D01*
X7731587Y8051654D01*
X7734579Y7981849D01*
X7701896Y7923975D01*
X7273454Y7495532D01*
X7273453Y7495531D01*
X7216428Y7438507D01*
X7211375Y7433729D01*
X7043418Y7283634D01*
X7032552Y7274969D01*
X6867894Y7158137D01*
X6851710Y7146654D01*
X6839937Y7139257D01*
X6645852Y7031989D01*
X6633323Y7025955D01*
X6428460Y6941097D01*
X6415335Y6936504D01*
X6202249Y6875114D01*
X6188692Y6872020D01*
X5970082Y6834876D01*
X5956265Y6833319D01*
X5731511Y6820695D01*
X5724557Y6820500D01*
X5214500Y6820500D01*
X5147461Y6840185D01*
X5101706Y6892989D01*
X5090500Y6944500D01*
X5090500Y9652473D01*
X5090500Y9652475D01*
X5052984Y9792485D01*
X5027497Y9836629D01*
X4980511Y9918012D01*
X4980506Y9918018D01*
X4878017Y10020507D01*
X4878011Y10020512D01*
X4752488Y10092983D01*
X4752489Y10092983D01*
X4741006Y10096060D01*
X4612475Y10130500D01*
X4467525Y10130500D01*
X4338993Y10096060D01*
X4327511Y10092983D01*
X4201988Y10020512D01*
X4128089Y9946613D01*
X4066765Y9913129D01*
X3997074Y9918114D01*
X3941140Y9959985D01*
X3927618Y9982775D01*
X3895377Y10053373D01*
X3801128Y10162143D01*
X3680053Y10239953D01*
X3680051Y10239954D01*
X3680049Y10239955D01*
X3680050Y10239955D01*
X3541963Y10280500D01*
X3541961Y10280500D01*
X3398039Y10280500D01*
X3398036Y10280500D01*
X3259949Y10239955D01*
X3138873Y10162144D01*
X3044623Y10053374D01*
X3044622Y10053372D01*
X2984834Y9922457D01*
X2964353Y9780000D01*
X2984834Y9637544D01*
X3023275Y9553372D01*
X3044623Y9506627D01*
X3138872Y9397857D01*
X3259947Y9320047D01*
X3259950Y9320046D01*
X3259949Y9320046D01*
X3347968Y9294202D01*
X3388799Y9282213D01*
X3398036Y9279501D01*
X3398038Y9279500D01*
X3398039Y9279500D01*
X3541962Y9279500D01*
X3541962Y9279501D01*
X3680050Y9320046D01*
X3680051Y9320046D01*
X3695540Y9330000D01*
X3798461Y9396144D01*
X3865500Y9415828D01*
X3932539Y9396144D01*
X3978294Y9343340D01*
X3989500Y9291828D01*
X3989500Y6944500D01*
X3969815Y6877461D01*
X3917011Y6831706D01*
X3865500Y6820500D01*
X3002425Y6820500D01*
X2997557Y6820596D01*
X2979838Y6821293D01*
X2550576Y6838159D01*
X2540871Y6838922D01*
X2099025Y6891217D01*
X2089408Y6892741D01*
X1653060Y6979537D01*
X1643592Y6981810D01*
X1215395Y7102574D01*
X1206135Y7105582D01*
X788716Y7259576D01*
X779721Y7263302D01*
X375683Y7449565D01*
X367008Y7453986D01*
X-21179Y7671382D01*
X-29481Y7676469D01*
X-399404Y7923644D01*
X-407281Y7929367D01*
X-531634Y8027399D01*
X-756680Y8204811D01*
X-764080Y8211131D01*
X-820404Y8263196D01*
X-1092577Y8514791D01*
X-1096087Y8518166D01*
X-1111970Y8534049D01*
X-1145455Y8595372D01*
X-1140471Y8665064D01*
X-1098599Y8720997D01*
X-1033135Y8745414D01*
X-964862Y8730562D01*
X-957249Y8726045D01*
X-923641Y8704446D01*
X-785553Y8663901D01*
X-785551Y8663900D01*
X-785550Y8663900D01*
X-641627Y8663900D01*
X-641627Y8663901D01*
X-503536Y8704447D01*
X-382461Y8782257D01*
X-382461Y8782258D01*
X-375000Y8787052D01*
X-373655Y8784959D01*
X-322131Y8808494D01*
X-252972Y8798557D01*
X-200164Y8752806D01*
X-193989Y8742053D01*
X-183260Y8720997D01*
X-124845Y8606350D01*
X8193Y8423239D01*
X168239Y8263193D01*
X351350Y8130155D01*
X553019Y8027400D01*
X553021Y8027399D01*
X696258Y7980859D01*
X768279Y7957458D01*
X991831Y7922050D01*
X991832Y7922050D01*
X1218168Y7922050D01*
X1218169Y7922050D01*
X1441721Y7957458D01*
X1441724Y7957459D01*
X1441725Y7957459D01*
X1656978Y8027399D01*
X1656978Y8027400D01*
X1656981Y8027400D01*
X1858650Y8130155D01*
X1858650Y8130156D01*
X1862991Y8132367D01*
X1863946Y8130493D01*
X1922868Y8146468D01*
X1989483Y8125392D01*
X2034128Y8071646D01*
X2043022Y8040145D01*
X2044833Y8027548D01*
X2044834Y8027545D01*
X2093013Y7922050D01*
X2104623Y7896627D01*
X2198872Y7787857D01*
X2319947Y7710047D01*
X2319950Y7710046D01*
X2319949Y7710046D01*
X2380923Y7692143D01*
X2451629Y7671382D01*
X2458036Y7669501D01*
X2458038Y7669500D01*
X2458039Y7669500D01*
X2601962Y7669500D01*
X2601962Y7669501D01*
X2740053Y7710047D01*
X2861128Y7787857D01*
X2955377Y7896627D01*
X3015165Y8027543D01*
X3035647Y8170000D01*
X3015165Y8312457D01*
X2955377Y8443373D01*
X2861128Y8552143D01*
X2740053Y8629953D01*
X2740051Y8629954D01*
X2740049Y8629955D01*
X2740050Y8629955D01*
X2601963Y8670500D01*
X2601961Y8670500D01*
X2563589Y8670500D01*
X2496550Y8690185D01*
X2450795Y8742989D01*
X2440851Y8812147D01*
X2445658Y8832818D01*
X2507541Y9023275D01*
X2507541Y9023276D01*
X2507542Y9023279D01*
X2542950Y9246831D01*
X2542950Y9473169D01*
X2507542Y9696721D01*
X2507541Y9696725D01*
X2507541Y9696726D01*
X2437601Y9911979D01*
X2437599Y9911982D01*
X2434526Y9918015D01*
X2334845Y10113650D01*
X2201807Y10296761D01*
X2041761Y10456807D01*
X1858650Y10589845D01*
X1656981Y10692600D01*
X1656978Y10692602D01*
X1441723Y10762542D01*
X1292686Y10786148D01*
X1218169Y10797950D01*
X991831Y10797950D01*
X917313Y10786148D01*
X768277Y10762542D01*
X768274Y10762542D01*
X553021Y10692602D01*
X553018Y10692600D01*
X351349Y10589845D01*
X259445Y10523072D01*
X168239Y10456807D01*
X168237Y10456805D01*
X168236Y10456805D01*
X8195Y10296764D01*
X8195Y10296763D01*
X8193Y10296761D01*
X-10902Y10270479D01*
X-124845Y10113651D01*
X-227600Y9911982D01*
X-227602Y9911979D01*
X-297542Y9696726D01*
X-298677Y9691993D01*
X-300172Y9692352D01*
X-327198Y9635354D01*
X-386513Y9598429D01*
X-456376Y9599433D01*
X-486773Y9613580D01*
X-503539Y9624355D01*
X-641626Y9664900D01*
X-641628Y9664900D01*
X-785550Y9664900D01*
X-785553Y9664900D01*
X-923640Y9624355D01*
X-1044716Y9546544D01*
X-1138966Y9437774D01*
X-1138967Y9437772D01*
X-1198755Y9306857D01*
X-1219236Y9164400D01*
X-1198755Y9021944D01*
X-1147108Y8908855D01*
X-1137164Y8839696D01*
X-1166189Y8776141D01*
X-1224967Y8738366D01*
X-1294837Y8738366D01*
X-1347583Y8769662D01*
X-1721096Y9143174D01*
X-1726627Y9149079D01*
X-1876298Y9319748D01*
X-1886166Y9332608D01*
X-1944101Y9419314D01*
X-1964979Y9485992D01*
X-1946494Y9553372D01*
X-1894515Y9600062D01*
X-1875933Y9607182D01*
X-1729950Y9650046D01*
X-1729950Y9650047D01*
X-1729947Y9650047D01*
X-1608872Y9727857D01*
X-1514623Y9836627D01*
X-1454835Y9967543D01*
X-1434353Y10110000D01*
X-1442800Y10168749D01*
X-1432857Y10237905D01*
X-1387102Y10290709D01*
X-1320063Y10310394D01*
X-1253023Y10290710D01*
X-1251171Y10289496D01*
X-1153276Y10224084D01*
X-1153270Y10224081D01*
X-1153269Y10224080D01*
X-1017542Y10167860D01*
X-873460Y10139201D01*
X-873456Y10139200D01*
X-873455Y10139200D01*
X-726544Y10139200D01*
X-726543Y10139201D01*
X-582458Y10167860D01*
X-446731Y10224080D01*
X-324580Y10305699D01*
X-220699Y10409580D01*
X-139080Y10531731D01*
X-82860Y10667458D01*
X-54200Y10811545D01*
X-54200Y10958455D01*
X-82860Y11102542D01*
X-139080Y11238269D01*
X-139082Y11238272D01*
X-139084Y11238276D01*
X-220699Y11360420D01*
X-220702Y11360424D01*
X-324577Y11464299D01*
X-324581Y11464302D01*
X-446725Y11545917D01*
X-446734Y11545922D01*
X-557389Y11591756D01*
X-582458Y11602140D01*
X-582462Y11602141D01*
X-582466Y11602142D01*
X-726541Y11630800D01*
X-726545Y11630800D01*
X-873455Y11630800D01*
X-873460Y11630800D01*
X-1017535Y11602142D01*
X-1017540Y11602141D01*
X-1017542Y11602140D01*
X-1017544Y11602139D01*
X-1098787Y11568488D01*
X-1168256Y11561020D01*
X-1230735Y11592296D01*
X-1266387Y11652385D01*
X-1263892Y11722210D01*
X-1259035Y11734554D01*
X-1234835Y11787543D01*
X-1214353Y11930000D01*
X-1220602Y11973460D01*
X6074200Y11973460D01*
X6074200Y11826541D01*
X6102858Y11682466D01*
X6102861Y11682456D01*
X6159078Y11546734D01*
X6159083Y11546725D01*
X6240698Y11424581D01*
X6240701Y11424577D01*
X6344576Y11320702D01*
X6344580Y11320699D01*
X6466724Y11239084D01*
X6466733Y11239079D01*
X6491800Y11228696D01*
X6602458Y11182860D01*
X6746540Y11154201D01*
X6746544Y11154200D01*
X6746545Y11154200D01*
X6893456Y11154200D01*
X6893457Y11154201D01*
X7037542Y11182860D01*
X7173269Y11239080D01*
X7295420Y11320699D01*
X7399301Y11424580D01*
X7480920Y11546731D01*
X7537140Y11682458D01*
X7558124Y11787952D01*
X13719733Y11787952D01*
X13719733Y11787951D01*
X13740289Y11566102D01*
X13801262Y11351809D01*
X13801269Y11351791D01*
X13900571Y11152365D01*
X14034842Y10974563D01*
X14199491Y10824466D01*
X14199493Y10824464D01*
X14388917Y10707178D01*
X14388918Y10707178D01*
X14388921Y10707176D01*
X14596676Y10626691D01*
X14815683Y10585751D01*
X14815685Y10585751D01*
X15038481Y10585751D01*
X15038483Y10585751D01*
X15257490Y10626691D01*
X15465245Y10707176D01*
X15654674Y10824465D01*
X15819325Y10974565D01*
X15953593Y11152363D01*
X16037414Y11320699D01*
X16052896Y11351791D01*
X16052897Y11351796D01*
X16052903Y11351806D01*
X16113876Y11566101D01*
X16134433Y11787951D01*
X16124714Y11892833D01*
X16113876Y12009801D01*
X16052903Y12224096D01*
X16052899Y12224104D01*
X16052896Y12224112D01*
X15953594Y12423538D01*
X15819323Y12601340D01*
X15654674Y12751437D01*
X15654672Y12751439D01*
X15465248Y12868725D01*
X15465242Y12868727D01*
X15257490Y12949211D01*
X15038483Y12990151D01*
X14815683Y12990151D01*
X14596676Y12949211D01*
X14465294Y12898314D01*
X14388923Y12868727D01*
X14388917Y12868725D01*
X14199493Y12751439D01*
X14199491Y12751437D01*
X14034842Y12601340D01*
X13900571Y12423538D01*
X13801269Y12224112D01*
X13801262Y12224094D01*
X13740289Y12009801D01*
X13719733Y11787952D01*
X7558124Y11787952D01*
X7565800Y11826545D01*
X7565800Y11973455D01*
X7537140Y12117542D01*
X7480920Y12253269D01*
X7480919Y12253270D01*
X7480916Y12253276D01*
X7399301Y12375420D01*
X7399298Y12375424D01*
X7295423Y12479299D01*
X7295419Y12479302D01*
X7173275Y12560917D01*
X7173266Y12560922D01*
X7037544Y12617139D01*
X7037545Y12617139D01*
X7037542Y12617140D01*
X7037538Y12617141D01*
X7037534Y12617142D01*
X6893459Y12645800D01*
X6893455Y12645800D01*
X6746545Y12645800D01*
X6746540Y12645800D01*
X6602465Y12617142D01*
X6602455Y12617139D01*
X6466733Y12560922D01*
X6466724Y12560917D01*
X6344580Y12479302D01*
X6344576Y12479299D01*
X6240701Y12375424D01*
X6240698Y12375420D01*
X6159083Y12253276D01*
X6159078Y12253267D01*
X6102861Y12117545D01*
X6102858Y12117535D01*
X6074200Y11973460D01*
X-1220602Y11973460D01*
X-1234835Y12072457D01*
X-1236097Y12081235D01*
X-1233824Y12081562D01*
X-1233825Y12138880D01*
X-1196053Y12197659D01*
X-1132498Y12226686D01*
X-1067397Y12218511D01*
X-1017542Y12197860D01*
X-873460Y12169201D01*
X-873456Y12169200D01*
X-873455Y12169200D01*
X-726544Y12169200D01*
X-726543Y12169201D01*
X-582458Y12197860D01*
X-446731Y12254080D01*
X-324580Y12335699D01*
X-220699Y12439580D01*
X-139080Y12561731D01*
X-82860Y12697458D01*
X-54200Y12841545D01*
X-54200Y12988455D01*
X-82860Y13132542D01*
X-139080Y13268269D01*
X-139081Y13268270D01*
X-139084Y13268276D01*
X-220699Y13390420D01*
X-220702Y13390424D01*
X-324577Y13494299D01*
X-324581Y13494302D01*
X-446725Y13575917D01*
X-446734Y13575922D01*
X-582456Y13632139D01*
X-582455Y13632139D01*
X-582458Y13632140D01*
X-582462Y13632141D01*
X-582466Y13632142D01*
X-726541Y13660800D01*
X-726545Y13660800D01*
X-873455Y13660800D01*
X-873460Y13660800D01*
X-1017535Y13632142D01*
X-1017545Y13632139D01*
X-1153267Y13575922D01*
X-1153276Y13575917D01*
X-1275420Y13494302D01*
X-1275424Y13494299D01*
X-1379299Y13390424D01*
X-1379302Y13390420D01*
X-1460917Y13268276D01*
X-1460922Y13268267D01*
X-1517139Y13132545D01*
X-1517142Y13132535D01*
X-1545800Y12988460D01*
X-1545800Y12841541D01*
X-1517142Y12697466D01*
X-1517138Y12697452D01*
X-1472310Y12589227D01*
X-1464841Y12519758D01*
X-1496116Y12457279D01*
X-1556205Y12421627D01*
X-1621804Y12422797D01*
X-1648039Y12430500D01*
X-1791961Y12430500D01*
X-1791964Y12430500D01*
X-1930051Y12389955D01*
X-2051128Y12312144D01*
X-2054298Y12309396D01*
X-2058114Y12307654D01*
X-2058589Y12307348D01*
X-2058633Y12307417D01*
X-2117854Y12280372D01*
X-2187012Y12290316D01*
X-2239816Y12336071D01*
X-2259500Y12403110D01*
X-2259500Y12764745D01*
X-2259511Y12764973D01*
X-2259511Y12791390D01*
X-2259512Y12791394D01*
X-2284451Y13012747D01*
X-2284454Y13012765D01*
X-2334024Y13229951D01*
X-2407600Y13440225D01*
X-2504256Y13640939D01*
X-2622776Y13829569D01*
X-2644261Y13856511D01*
X-2761670Y14003744D01*
X-2770069Y14012143D01*
X-2780351Y14022426D01*
X-2780375Y14022453D01*
X-2807375Y14049453D01*
X-2851295Y14093373D01*
X-2899923Y14142003D01*
X-2899927Y14142006D01*
X-2946454Y14188532D01*
X-3002587Y14244665D01*
X-3010840Y14254521D01*
X-3010990Y14254392D01*
X-3014952Y14259029D01*
X-3065195Y14307309D01*
X-3066959Y14309038D01*
X-3116155Y14358234D01*
X-3120871Y14362105D01*
X-3120747Y14362258D01*
X-3130748Y14370300D01*
X-3151095Y14389852D01*
X-3152859Y14391582D01*
X-3226059Y14464782D01*
X-3226060Y14464783D01*
X-3226064Y14464787D01*
X-3314645Y14532758D01*
X-3341245Y14553169D01*
X-332950Y14553169D01*
X-332950Y14326831D01*
X-321164Y14252420D01*
X-297542Y14103278D01*
X-297542Y14103275D01*
X-227602Y13888022D01*
X-227600Y13888019D01*
X-124845Y13686350D01*
X8193Y13503239D01*
X168239Y13343193D01*
X351350Y13210155D01*
X553019Y13107400D01*
X553021Y13107399D01*
X753801Y13042163D01*
X768279Y13037458D01*
X991831Y13002050D01*
X991832Y13002050D01*
X1218168Y13002050D01*
X1218169Y13002050D01*
X1441721Y13037458D01*
X1441724Y13037459D01*
X1441725Y13037459D01*
X1656978Y13107399D01*
X1656978Y13107400D01*
X1656981Y13107400D01*
X1858650Y13210155D01*
X2041761Y13343193D01*
X2086411Y13387844D01*
X2147732Y13421328D01*
X2217423Y13416344D01*
X2273357Y13374473D01*
X2279604Y13363943D01*
X2279829Y13364087D01*
X2284623Y13356627D01*
X2378872Y13247857D01*
X2499947Y13170047D01*
X2499950Y13170046D01*
X2499949Y13170046D01*
X2638036Y13129501D01*
X2638038Y13129500D01*
X2638039Y13129500D01*
X2781962Y13129500D01*
X2781962Y13129501D01*
X2920050Y13170046D01*
X2920051Y13170046D01*
X2920053Y13170047D01*
X3000742Y13221903D01*
X3067779Y13241587D01*
X3134816Y13221904D01*
X3153098Y13210155D01*
X3199948Y13180046D01*
X3338036Y13139501D01*
X3338038Y13139500D01*
X3338039Y13139500D01*
X3481962Y13139500D01*
X3481962Y13139501D01*
X3620053Y13180047D01*
X3741128Y13257857D01*
X3835377Y13366627D01*
X3895165Y13497543D01*
X3915647Y13640000D01*
X3895165Y13782457D01*
X3835377Y13913373D01*
X3741128Y14022143D01*
X3620053Y14099953D01*
X3620051Y14099954D01*
X3620049Y14099955D01*
X3620050Y14099955D01*
X3481963Y14140500D01*
X3481961Y14140500D01*
X3338039Y14140500D01*
X3338036Y14140500D01*
X3199949Y14099955D01*
X3119258Y14048098D01*
X3052218Y14028414D01*
X2985179Y14048099D01*
X2920051Y14089955D01*
X2781963Y14130500D01*
X2781961Y14130500D01*
X2657039Y14130500D01*
X2590000Y14150185D01*
X2544245Y14202989D01*
X2534301Y14272147D01*
X2534566Y14273898D01*
X2540775Y14313102D01*
X2542950Y14326831D01*
X2542950Y14553169D01*
X5382050Y14553169D01*
X5382050Y14326831D01*
X5393836Y14252420D01*
X5417458Y14103278D01*
X5417458Y14103275D01*
X5487398Y13888022D01*
X5487400Y13888019D01*
X5590155Y13686350D01*
X5723193Y13503239D01*
X5883239Y13343193D01*
X6066350Y13210155D01*
X6268019Y13107400D01*
X6268021Y13107399D01*
X6468801Y13042163D01*
X6483279Y13037458D01*
X6706831Y13002050D01*
X6706832Y13002050D01*
X6933168Y13002050D01*
X6933169Y13002050D01*
X7156721Y13037458D01*
X7156724Y13037459D01*
X7156725Y13037459D01*
X7371978Y13107399D01*
X7371978Y13107400D01*
X7371981Y13107400D01*
X7573650Y13210155D01*
X7756761Y13343193D01*
X7916807Y13503239D01*
X8049845Y13686350D01*
X8152600Y13888019D01*
X8183482Y13983063D01*
X8222541Y14103275D01*
X8222541Y14103276D01*
X8222542Y14103279D01*
X8257950Y14326831D01*
X8257950Y14553169D01*
X8240422Y14663835D01*
X14422926Y14663835D01*
X14422926Y14663834D01*
X15220049Y14705610D01*
X15199226Y14669542D01*
X15165472Y14543570D01*
X15165472Y14413156D01*
X15199226Y14287184D01*
X15245935Y14206280D01*
X14451462Y14164644D01*
X14451462Y14164643D01*
X14482331Y14049442D01*
X14574714Y13851327D01*
X14574716Y13851323D01*
X14700097Y13672260D01*
X14854668Y13517689D01*
X15033731Y13392308D01*
X15033735Y13392306D01*
X15231852Y13299923D01*
X15231861Y13299919D01*
X15443010Y13243342D01*
X15475299Y13240518D01*
X15475300Y13240519D01*
X15433526Y14037641D01*
X15469593Y14016817D01*
X15595565Y13983063D01*
X15725979Y13983063D01*
X15851951Y14016817D01*
X15932855Y14063528D01*
X15974491Y13269054D01*
X16089682Y13299919D01*
X16089691Y13299923D01*
X16287808Y13392306D01*
X16287812Y13392308D01*
X16466875Y13517689D01*
X16621446Y13672260D01*
X16746827Y13851323D01*
X16746829Y13851327D01*
X16839212Y14049444D01*
X16839216Y14049453D01*
X16895793Y14260601D01*
X16895793Y14260602D01*
X16898617Y14292892D01*
X16898616Y14292894D01*
X16101495Y14251119D01*
X16122318Y14287184D01*
X16156072Y14413156D01*
X16156072Y14543570D01*
X16122318Y14669542D01*
X16075606Y14750449D01*
X16870081Y14792084D01*
X16839215Y14907277D01*
X16839212Y14907283D01*
X16746829Y15105400D01*
X16746827Y15105404D01*
X16621446Y15284467D01*
X16466875Y15439038D01*
X16287812Y15564419D01*
X16287808Y15564421D01*
X16089691Y15656804D01*
X16089685Y15656807D01*
X15878542Y15713383D01*
X15878535Y15713384D01*
X15846241Y15716210D01*
X15888016Y14919087D01*
X15851951Y14939909D01*
X15725979Y14973663D01*
X15595565Y14973663D01*
X15469593Y14939909D01*
X15388686Y14893198D01*
X15347051Y15687673D01*
X15347050Y15687674D01*
X15231857Y15656807D01*
X15231854Y15656806D01*
X15033735Y15564421D01*
X15033731Y15564419D01*
X14854668Y15439038D01*
X14700097Y15284467D01*
X14574716Y15105404D01*
X14574714Y15105400D01*
X14482331Y14907283D01*
X14482328Y14907277D01*
X14425752Y14696134D01*
X14425751Y14696127D01*
X14422926Y14663835D01*
X8240422Y14663835D01*
X8222542Y14776721D01*
X8222541Y14776725D01*
X8222541Y14776726D01*
X8152601Y14991979D01*
X8152599Y14991982D01*
X8132802Y15030837D01*
X8049845Y15193650D01*
X7916807Y15376761D01*
X7756761Y15536807D01*
X7573650Y15669845D01*
X7371981Y15772600D01*
X7371978Y15772602D01*
X7156723Y15842542D01*
X7007686Y15866148D01*
X6933169Y15877950D01*
X6706831Y15877950D01*
X6632313Y15866148D01*
X6483277Y15842542D01*
X6483274Y15842542D01*
X6268021Y15772602D01*
X6268018Y15772600D01*
X6066349Y15669845D01*
X5961878Y15593942D01*
X5883239Y15536807D01*
X5883237Y15536805D01*
X5883236Y15536805D01*
X5723195Y15376764D01*
X5723195Y15376763D01*
X5723193Y15376761D01*
X5679991Y15317298D01*
X5590155Y15193651D01*
X5487400Y14991982D01*
X5487398Y14991979D01*
X5417458Y14776726D01*
X5417458Y14776723D01*
X5390611Y14607218D01*
X5382050Y14553169D01*
X2542950Y14553169D01*
X2507542Y14776721D01*
X2507541Y14776725D01*
X2507541Y14776726D01*
X2437601Y14991979D01*
X2437599Y14991982D01*
X2417802Y15030837D01*
X2334845Y15193650D01*
X2201807Y15376761D01*
X2041761Y15536807D01*
X1858650Y15669845D01*
X1656981Y15772600D01*
X1656978Y15772602D01*
X1441723Y15842542D01*
X1292686Y15866148D01*
X1218169Y15877950D01*
X991831Y15877950D01*
X917313Y15866148D01*
X768277Y15842542D01*
X768274Y15842542D01*
X553021Y15772602D01*
X553018Y15772600D01*
X351349Y15669845D01*
X246878Y15593942D01*
X168239Y15536807D01*
X168237Y15536805D01*
X168236Y15536805D01*
X8195Y15376764D01*
X8195Y15376763D01*
X8193Y15376761D01*
X-35009Y15317298D01*
X-124845Y15193651D01*
X-227600Y14991982D01*
X-227602Y14991979D01*
X-297542Y14776726D01*
X-297542Y14776723D01*
X-324389Y14607218D01*
X-332950Y14553169D01*
X-3341245Y14553169D01*
X-3405622Y14602568D01*
X-3405628Y14602572D01*
X-3405632Y14602575D01*
X-3601648Y14715747D01*
X-3810759Y14802366D01*
X-3810766Y14802369D01*
X-4029377Y14860948D01*
X-4029391Y14860951D01*
X-4253791Y14890499D01*
X-4283725Y14890499D01*
X-4283755Y14890500D01*
X-4288137Y14890500D01*
X-4366961Y14890500D01*
X-4451097Y14890502D01*
X-4451098Y14890502D01*
X-4457862Y14890502D01*
X-4457898Y14890500D01*
X-7548847Y14890500D01*
X-7596555Y14881010D01*
X-7666147Y14887237D01*
X-7696228Y14904248D01*
X-7804469Y14987302D01*
X-7895770Y15040013D01*
X-7987066Y15092722D01*
X-7987070Y15092724D01*
X-8181869Y15173409D01*
X-8385522Y15227977D01*
X-8385536Y15227980D01*
X-8594566Y15255499D01*
X-8594571Y15255500D01*
X-8594576Y15255500D01*
X-8643982Y15255500D01*
X-11734181Y15255500D01*
X-11742090Y15255500D01*
X-11742305Y15255487D01*
X-11766451Y15255487D01*
X-11766452Y15255487D01*
X-11766456Y15255487D01*
X-11849068Y15244615D01*
X-11941564Y15232441D01*
X-12112168Y15186733D01*
X-12275353Y15119143D01*
X-12387318Y15054501D01*
X-12428306Y15030837D01*
X-12428309Y15030835D01*
X-12428312Y15030833D01*
X-12568426Y14923321D01*
X-12568429Y14923318D01*
X-12591262Y14900486D01*
X-12591263Y14900485D01*
X-12591265Y14900484D01*
X-12591266Y14900483D01*
X-12714676Y14777074D01*
X-12767422Y14745779D01*
X-12863969Y14717431D01*
X-12950078Y14662092D01*
X-12985020Y14646634D01*
X-13132090Y14607224D01*
X-13132106Y14607218D01*
X-13311859Y14532758D01*
X-13311871Y14532752D01*
X-13480372Y14435463D01*
X-13480385Y14435455D01*
X-13634743Y14317007D01*
X-13634753Y14316998D01*
X-13671607Y14280142D01*
X-13671608Y14280141D01*
X-13875682Y14076068D01*
X-13875754Y14075987D01*
X-13933119Y14018620D01*
X-14116586Y13795065D01*
X-14116596Y13795051D01*
X-14277262Y13554599D01*
X-14277268Y13554589D01*
X-14413598Y13299536D01*
X-14524275Y13032339D01*
X-14608223Y12755605D01*
X-14608228Y12755584D01*
X-14664648Y12471952D01*
X-14664650Y12471940D01*
X-14693000Y12184122D01*
X-14693000Y12039521D01*
X-14693001Y11968356D01*
X-14693000Y11968343D01*
X-14693000Y7500079D01*
X-14704206Y7448568D01*
X-14752664Y7342461D01*
X-14752666Y7342453D01*
X-14773147Y7200000D01*
X-22897366Y7200000D01*
X-22892001Y7218355D01*
X-22890443Y7223295D01*
X-22565806Y8181246D01*
X-22564032Y8186134D01*
X-22326573Y8800000D01*
X-19705647Y8800000D01*
X-19685166Y8657544D01*
X-19637030Y8552143D01*
X-19625377Y8526627D01*
X-19531128Y8417857D01*
X-19410053Y8340047D01*
X-19410050Y8340046D01*
X-19410051Y8340046D01*
X-19271964Y8299501D01*
X-19271962Y8299500D01*
X-19271961Y8299500D01*
X-19128038Y8299500D01*
X-19128038Y8299501D01*
X-18989947Y8340047D01*
X-18868872Y8417857D01*
X-18774623Y8526627D01*
X-18714835Y8657543D01*
X-18694353Y8800000D01*
X-18714835Y8942457D01*
X-18774623Y9073373D01*
X-18868872Y9182143D01*
X-18989947Y9259953D01*
X-18989949Y9259954D01*
X-18989951Y9259955D01*
X-18989950Y9259955D01*
X-19128037Y9300500D01*
X-19128039Y9300500D01*
X-19271961Y9300500D01*
X-19271964Y9300500D01*
X-19410051Y9259955D01*
X-19531127Y9182144D01*
X-19625377Y9073374D01*
X-19625378Y9073372D01*
X-19685166Y8942457D01*
X-19705647Y8800000D01*
X-22326573Y8800000D01*
X-22199017Y9129750D01*
X-22197306Y9133942D01*
X-21997350Y9598842D01*
X-21997511Y10354006D01*
X-21998252Y13820000D01*
X-19955647Y13820000D01*
X-19935166Y13677544D01*
X-19882574Y13562385D01*
X-19875377Y13546627D01*
X-19781128Y13437857D01*
X-19660053Y13360047D01*
X-19660050Y13360046D01*
X-19660051Y13360046D01*
X-19521964Y13319501D01*
X-19521962Y13319500D01*
X-19521961Y13319500D01*
X-19378038Y13319500D01*
X-19378038Y13319501D01*
X-19270879Y13350965D01*
X-19239950Y13360046D01*
X-19239950Y13360047D01*
X-19239947Y13360047D01*
X-19118872Y13437857D01*
X-19024623Y13546627D01*
X-18964835Y13677543D01*
X-18944353Y13820000D01*
X-18964835Y13962457D01*
X-19024623Y14093373D01*
X-19118872Y14202143D01*
X-19239947Y14279953D01*
X-19239949Y14279954D01*
X-19239951Y14279955D01*
X-19239950Y14279955D01*
X-19378037Y14320500D01*
X-19378039Y14320500D01*
X-19521961Y14320500D01*
X-19521964Y14320500D01*
X-19660051Y14279955D01*
X-19781127Y14202144D01*
X-19875377Y14093374D01*
X-19875378Y14093372D01*
X-19935166Y13962457D01*
X-19955647Y13820000D01*
X-21998252Y13820000D01*
X-21998835Y16545973D01*
X-21979165Y16613017D01*
X-21926371Y16658783D01*
X-21874835Y16670000D01*
X1755000Y16670000D01*
X1755000Y16762561D01*
X1774685Y16829600D01*
X1827489Y16875355D01*
X1878921Y16886561D01*
X6441923Y16889304D01*
X6508972Y16869661D01*
X6540948Y16840033D01*
X6564190Y16809257D01*
X6564190Y16809256D01*
X6728840Y16659158D01*
X6728842Y16659156D01*
X6918266Y16541870D01*
X6918267Y16541870D01*
X6918270Y16541868D01*
X7126025Y16461383D01*
X7345032Y16420443D01*
X7345034Y16420443D01*
X7567830Y16420443D01*
X7567832Y16420443D01*
X7786839Y16461383D01*
X7994594Y16541868D01*
X8184023Y16659157D01*
X8322127Y16785057D01*
X8384930Y16815673D01*
X8454318Y16807476D01*
X8508258Y16763066D01*
X8529626Y16696544D01*
X8529136Y16681978D01*
X8510287Y16478559D01*
X8510287Y16478557D01*
X8530843Y16256708D01*
X8591816Y16042415D01*
X8591823Y16042397D01*
X8691125Y15842971D01*
X8825396Y15665169D01*
X8990045Y15515072D01*
X8990047Y15515070D01*
X9179471Y15397784D01*
X9179472Y15397784D01*
X9179475Y15397782D01*
X9387230Y15317297D01*
X9606237Y15276357D01*
X9606239Y15276357D01*
X9829035Y15276357D01*
X9829037Y15276357D01*
X10048044Y15317297D01*
X10255799Y15397782D01*
X10445228Y15515071D01*
X10609879Y15665171D01*
X10744147Y15842969D01*
X10843457Y16042412D01*
X10904430Y16256707D01*
X10924987Y16478557D01*
X10904430Y16700407D01*
X10894838Y16734119D01*
X10895424Y16803986D01*
X10933691Y16862445D01*
X10997488Y16890936D01*
X11014017Y16892054D01*
X11389917Y16892280D01*
X11456967Y16872636D01*
X11485842Y16846946D01*
X11536634Y16785056D01*
X11570706Y16743539D01*
X11730557Y16612352D01*
X11730560Y16612350D01*
X11912927Y16514873D01*
X11912930Y16514873D01*
X11912934Y16514870D01*
X12110822Y16454841D01*
X12316619Y16434572D01*
X12522416Y16454841D01*
X12720304Y16514870D01*
X12902679Y16612351D01*
X13062532Y16743539D01*
X13148311Y16848062D01*
X13206053Y16887394D01*
X13244082Y16893395D01*
X16990723Y16895648D01*
X17057773Y16876004D01*
G37*
%TD.AperFunction*%
%TD*%
M02*
