%TF.GenerationSoftware,KiCad,Pcbnew,8.0.5*%
%TF.CreationDate,2025-01-09T20:15:46+01:00*%
%TF.ProjectId,test,74657374-2e6b-4696-9361-645f70636258,rev?*%
%TF.SameCoordinates,PX517370cPY341b1c8*%
%TF.FileFunction,Copper,L2,Inr*%
%TF.FilePolarity,Positive*%
%FSLAX46Y46*%
G04 Gerber Fmt 4.6, Leading zero omitted, Abs format (unit mm)*
G04 Created by KiCad (PCBNEW 8.0.5) date 2025-01-09 20:15:46*
%MOMM*%
%LPD*%
G01*
G04 APERTURE LIST*
%TA.AperFunction,ComponentPad*%
%ADD10O,1.000000X2.100000*%
%TD*%
%TA.AperFunction,ComponentPad*%
%ADD11O,1.000000X1.600000*%
%TD*%
%TA.AperFunction,ComponentPad*%
%ADD12C,1.803400*%
%TD*%
%TA.AperFunction,ComponentPad*%
%ADD13C,1.498600*%
%TD*%
%TA.AperFunction,HeatsinkPad*%
%ADD14C,0.600000*%
%TD*%
%TA.AperFunction,ViaPad*%
%ADD15C,0.350000*%
%TD*%
%TA.AperFunction,Conductor*%
%ADD16C,1.000000*%
%TD*%
%TA.AperFunction,Conductor*%
%ADD17C,0.200000*%
%TD*%
%TA.AperFunction,Conductor*%
%ADD18C,0.160000*%
%TD*%
%TA.AperFunction,Conductor*%
%ADD19C,0.400000*%
%TD*%
%TA.AperFunction,Conductor*%
%ADD20C,0.500000*%
%TD*%
%TA.AperFunction,Conductor*%
%ADD21C,0.250000*%
%TD*%
G04 APERTURE END LIST*
D10*
%TO.N,*%
%TO.C,P1*%
X-4320000Y-17080000D03*
D11*
X-4320000Y-21260000D03*
D10*
X4320000Y-17080000D03*
D11*
%TO.N,Net-(P1-SHIELD)*%
X4320000Y-21260000D03*
%TD*%
D12*
%TO.N,*%
%TO.C,SW2*%
X14927083Y11787951D03*
X9717637Y16478557D03*
D13*
%TO.N,GND*%
X15660772Y14478363D03*
%TO.N,SW_L2*%
X12316619Y17489452D03*
%TD*%
D12*
%TO.N,*%
%TO.C,SW1*%
X7456432Y17622643D03*
X599616Y19080103D03*
D13*
%TO.N,GND*%
X6746619Y20319452D03*
%TO.N,SW_L3*%
X2344953Y21255056D03*
%TD*%
D14*
%TO.N,GND*%
%TO.C,U2*%
X-8845000Y6760000D03*
X-8845000Y8160000D03*
X-9545000Y6060000D03*
X-9545000Y7460000D03*
X-9545000Y8860000D03*
X-10245000Y6760000D03*
X-10245000Y8160000D03*
X-10945000Y6060000D03*
X-10945000Y7460000D03*
X-10945000Y8860000D03*
X-11645000Y6760000D03*
X-11645000Y8160000D03*
%TD*%
D15*
%TO.N,GND*%
X-9450000Y-14700000D03*
X1730000Y-21660000D03*
X5690000Y-18060000D03*
X-2030000Y-19260000D03*
X1580000Y-19310000D03*
X-15740000Y14170000D03*
X11370000Y9810000D03*
X19790000Y6650000D03*
X19990000Y9870000D03*
X18010000Y12340000D03*
X200000Y-3490000D03*
X5050000Y-6780000D03*
X6420000Y-6620000D03*
X5160000Y-5280000D03*
X-11610000Y2540000D03*
X-22300000Y5380000D03*
X-22810000Y2600000D03*
X-22920000Y60000D03*
X-22620000Y-2500000D03*
X5600000Y-22700000D03*
X8130000Y-21850000D03*
X14750000Y-17710000D03*
X21320000Y-7810000D03*
X17190000Y-13860000D03*
X17450000Y1450000D03*
X-4340000Y10020000D03*
X-4390000Y11510000D03*
X-9980000Y11170000D03*
%TO.N,+3V3*%
X9600000Y9930000D03*
%TO.N,GND*%
X3400000Y4450000D03*
X-4910000Y1460000D03*
X-1670000Y15400000D03*
X-3940000Y-13322700D03*
X-13780000Y15130000D03*
X10710000Y-2760000D03*
X-4150000Y-15260000D03*
X18600000Y-13200000D03*
X-7550000Y10680000D03*
X-7420000Y15830000D03*
X-12890000Y-12090000D03*
X-16270000Y-5490000D03*
X6610000Y3530000D03*
X12300000Y-16140000D03*
X6010000Y-8270000D03*
X-6640000Y-18180000D03*
X16170000Y2750000D03*
X-8570000Y-10900000D03*
X18321724Y-8700000D03*
X-10120000Y470000D03*
X-4890000Y3500000D03*
X5000000Y10400000D03*
X-3240000Y-14910000D03*
X-4060000Y-6810000D03*
X3290000Y-3970000D03*
X16380000Y-3740000D03*
X6420002Y4790000D03*
X2740000Y-7170000D03*
X4170000Y-15230000D03*
X-7400000Y-7020000D03*
X-15560000Y-10750000D03*
X18350000Y-2760000D03*
X19560000Y4560000D03*
X11481511Y1830000D03*
X20172490Y-5397500D03*
X11280000Y-19600000D03*
X-8140000Y-12690000D03*
X11420001Y5609999D03*
X-19100000Y15410000D03*
X10560000Y-480000D03*
X9380000Y-16080000D03*
X10799998Y6040000D03*
X-10250000Y-6610000D03*
X-8170000Y-6570000D03*
X11340000Y-17500000D03*
X-21082000Y16002000D03*
X-13710000Y1230000D03*
X11660000Y7440000D03*
X9460000Y-4940000D03*
X-11670000Y470000D03*
X13400000Y-17500000D03*
X10840000Y-16120000D03*
X6930000Y-18580000D03*
X12390000Y12450000D03*
X-8290000Y-17960000D03*
%TO.N,EN*%
X-4145016Y12715016D03*
%TO.N,+3V3*%
X4460000Y-8380000D03*
X2810000Y-8507657D03*
X-10040000Y-15920000D03*
%TO.N,VSYS*%
X10200000Y-5200000D03*
%TO.N,CAM_PCLK*%
X14050000Y3720000D03*
%TO.N,+2V8*%
X16354141Y-2759998D03*
%TO.N,VBUS*%
X6840000Y-13960000D03*
X7980000Y-13960000D03*
%TO.N,SW_L3*%
X-19450000Y13820000D03*
%TO.N,SW_L1*%
X-15150000Y-70000D03*
%TO.N,Net-(D1-K)*%
X5780000Y-13230000D03*
X7390000Y-10780000D03*
%TO.N,LEDCNTRL*%
X-9530000Y1720000D03*
%TO.N,RXD*%
X2710000Y13630000D03*
X-7980000Y13240000D03*
%TO.N,TXD*%
X3410000Y13640000D03*
X-9264693Y14114693D03*
%TO.N,GPIO0*%
X-713589Y9164400D03*
X-6340000Y7310000D03*
%TO.N,GPIO46*%
X-5810000Y1000000D03*
X2530000Y8170000D03*
%TO.N,CAM_PWDN*%
X16690000Y-740000D03*
%TO.N,CAM_RESET*%
X10000000Y700000D03*
X16130000Y-1800000D03*
X-19200000Y8800000D03*
%TO.N,PMIC_PWRON*%
X13530000Y-11210000D03*
X-2310000Y-22590000D03*
%TO.N,I2SDAT_MIC*%
X-19170000Y5250000D03*
%TO.N,CAM_SDA*%
X8990000Y-12050000D03*
%TO.N,CAM_SCL*%
X7970000Y-11400000D03*
%TO.N,PMIC_IRQ*%
X-19110000Y6510000D03*
X-1330000Y-10120000D03*
%TO.N,BCLK_AMP*%
X-15900000Y-9930000D03*
X-13360000Y-7580000D03*
%TO.N,WS_AMP*%
X-14180000Y-11800000D03*
X-12440000Y-7760000D03*
%TO.N,CAM_Y3*%
X-1940000Y10110000D03*
%TO.N,CAM_MCLK*%
X8470000Y1770000D03*
%TO.N,BCLK_MIC*%
X-15030000Y-4880000D03*
%TO.N,CAM_Y5*%
X14120000Y5230000D03*
%TO.N,CAM_Y6*%
X16550000Y4260000D03*
%TO.N,WS_MIC*%
X-13920000Y-5490000D03*
%TO.N,CAM_Y4*%
X-1720000Y11930000D03*
%TO.N,CAM_Y8*%
X14380000Y2380000D03*
%TO.N,CAM_VSYNC*%
X12200000Y-3600000D03*
X17550000Y-1020000D03*
X-13000000Y5200000D03*
%TO.N,CAM_Y9*%
X16230000Y1250000D03*
%TO.N,CAM_Y2*%
X16579376Y5010624D03*
%TO.N,CAM_HREF*%
X14400000Y-400000D03*
%TO.N,CAM_Y7*%
X14430000Y3130000D03*
%TO.N,+1V5*%
X13534976Y-2463401D03*
%TO.N,Net-(JP2-A)*%
X-9340000Y-20070000D03*
%TO.N,Net-(JP3-A)*%
X-17140000Y-1300000D03*
%TO.N,+3V3CAM*%
X9200000Y0D03*
X13200000Y-6400000D03*
X15200000Y-11400000D03*
X9890000Y6820000D03*
X12460000Y-650000D03*
%TO.N,VSYS*%
X-13600000Y-200000D03*
X3470000Y9780000D03*
X14710000Y-8150000D03*
X-9510000Y-10180000D03*
X-1240000Y830000D03*
X11600000Y-13170000D03*
%TO.N,+3V3*%
X-7470000Y14090000D03*
X19570000Y-2799998D03*
X13800000Y-5200000D03*
X-5780000Y-14130000D03*
X4540000Y9580000D03*
X-12653917Y14257476D03*
X-4045538Y13910000D03*
X-14267500Y7200000D03*
X-6250000Y9330000D03*
%TD*%
D16*
%TO.N,+3V3*%
X9600000Y8400000D02*
X9600000Y9930000D01*
D17*
%TO.N,CAM_VSYNC*%
X17550000Y-1020000D02*
X17077937Y-1492063D01*
X13785786Y-3600000D02*
X12200000Y-3600000D01*
X17077937Y-1492063D02*
X17077937Y-3587973D01*
X15830000Y-4400000D02*
X15414214Y-4400000D01*
X16800000Y-4170000D02*
X16720000Y-4250000D01*
X16357868Y-4400000D02*
X15830000Y-4400000D01*
X14707107Y-4107107D02*
X14492893Y-3892893D01*
X17077937Y-3587973D02*
G75*
G02*
X16800009Y-4170009I-972437J106973D01*
G01*
X14492893Y-3892893D02*
G75*
G03*
X13785786Y-3600010I-707093J-707107D01*
G01*
X15414214Y-4400000D02*
G75*
G02*
X14707100Y-4107114I-14J1000000D01*
G01*
X16720000Y-4250000D02*
G75*
G02*
X16357868Y-4399987I-362100J362100D01*
G01*
D18*
%TO.N,CAM_RESET*%
X10292893Y-1492893D02*
X10307107Y-1507107D01*
X10002042Y697958D02*
X10002042Y-884077D01*
X10000000Y700000D02*
X10002042Y697958D01*
X11014214Y-1800000D02*
X16130000Y-1800000D01*
X10307107Y-1507107D02*
G75*
G03*
X11014214Y-1799990I707093J707107D01*
G01*
X10002042Y-884077D02*
G75*
G03*
X10292895Y-1492891I1018258J112577D01*
G01*
D19*
%TO.N,+3V3CAM*%
X12460000Y-460000D02*
X12460000Y-650000D01*
X10310000Y1690000D02*
X12460000Y-460000D01*
X9200000Y1000000D02*
X9200000Y0D01*
X9800000Y1600000D02*
X9200000Y1000000D01*
D20*
X13200000Y-6400000D02*
X9400000Y-2600000D01*
D19*
X9890000Y1690000D02*
X10310000Y1690000D01*
D20*
X9400000Y-200000D02*
X9200000Y0D01*
D19*
X9800000Y1600000D02*
X9890000Y1690000D01*
D20*
X9400000Y-2600000D02*
X9400000Y-200000D01*
D19*
X9890000Y1690000D02*
X9890000Y6820000D01*
D16*
%TO.N,VSYS*%
X991349Y-9815480D02*
X1093674Y-9856598D01*
X-3400000Y160000D02*
X-3390000Y160000D01*
X-8400000Y-9000000D02*
X-1710000Y-9000000D01*
X1229924Y-9905509D02*
X5496751Y-9905509D01*
D20*
X-3390000Y160000D02*
X-2730000Y820000D01*
D16*
X701218Y-9678090D02*
X856831Y-9756209D01*
X9734924Y-8150000D02*
X11580000Y-8150000D01*
X11600000Y-13220000D02*
X11590000Y-13230000D01*
X-5760000Y-2200000D02*
X-3400000Y160000D01*
X-13600000Y-2200000D02*
X-5760000Y-2200000D01*
X-13600000Y-2200000D02*
X-13600000Y-3400000D01*
X-9510000Y-10180000D02*
X-9510000Y-10110000D01*
X-11800000Y-5200000D02*
X-11800000Y-6600000D01*
X-13600000Y-200000D02*
X-13600000Y-2200000D01*
X1093674Y-9856598D02*
X1171252Y-9885315D01*
X-1710000Y-9000000D02*
X-872995Y-9000000D01*
D20*
X-1240000Y830000D02*
X-2730000Y830000D01*
D16*
X533168Y-9582452D02*
X701218Y-9678090D01*
X-9510000Y-8890000D02*
X-9510000Y-10180000D01*
X-872995Y-9000000D02*
G75*
G02*
X533163Y-9582457I-5J-1988600D01*
G01*
X5496751Y-9905509D02*
G75*
G03*
X7200014Y-9200014I49J2408709D01*
G01*
X11580000Y-8018772D02*
G75*
G03*
X10399992Y-5170008I-4028800J-28D01*
G01*
X856831Y-9756209D02*
X991349Y-9815480D01*
X7200000Y-9200000D02*
G75*
G02*
X9734924Y-8150010I2534900J-2534900D01*
G01*
D20*
X-2730000Y820000D02*
X-2730000Y830000D01*
D16*
X11600000Y-8198284D02*
X11600000Y-13170000D01*
X11580000Y-8150000D02*
G75*
G02*
X11600007Y-8198284I-48300J-48300D01*
G01*
X11580000Y-8150000D02*
X14710000Y-8150000D01*
X-11800000Y-6600000D02*
X-9510000Y-8890000D01*
X11580000Y-8150000D02*
X11580000Y-8018772D01*
X11600000Y-13170000D02*
X11600000Y-13220000D01*
X1171252Y-9885315D02*
X1229924Y-9905509D01*
X-9510000Y-10110000D02*
X-8400000Y-9000000D01*
X-13600000Y-3400000D02*
X-11800000Y-5200000D01*
%TO.N,+3V3*%
X19560000Y1640000D02*
X19560000Y-2503432D01*
X19570000Y-2572563D02*
X19570000Y-2799998D01*
X17810000Y-5800000D02*
X19570000Y-4040000D01*
X15400000Y8400000D02*
X17800000Y6000000D01*
X19573086Y-2569477D02*
X19570000Y-2572563D01*
X-1660401Y7950402D02*
X-2290000Y8580000D01*
X-3406482Y13516482D02*
X-3440000Y13550000D01*
X9600000Y8400000D02*
X15400000Y8400000D01*
X-6590000Y14090000D02*
X-4366979Y14090000D01*
X4550000Y6020000D02*
X3000000Y6020000D01*
X-3060000Y10438944D02*
X-3060000Y12680000D01*
X-3626446Y13736447D02*
X-3712073Y13818729D01*
X-3440000Y13550000D02*
X-3626446Y13736447D01*
X19570000Y-4040000D02*
X19570000Y-2799998D01*
X15645786Y-12614213D02*
X15460000Y-12800000D01*
D20*
X5376948Y-14986948D02*
X4880000Y-14490000D01*
D16*
X9104939Y8194939D02*
X7780000Y6870000D01*
X17060000Y-7610660D02*
X17060000Y-9200000D01*
D21*
X-14267500Y7200000D02*
X-14267500Y12039518D01*
D16*
X14400000Y-5800000D02*
X17810000Y-5800000D01*
D20*
X-5752700Y-14102700D02*
X-5780000Y-14130000D01*
D21*
X-11678163Y14830000D02*
X-8700000Y14830000D01*
X-13530000Y13820000D02*
X-13402666Y13947334D01*
D16*
X5727919Y6020000D02*
X4550000Y6020000D01*
D21*
X-7863517Y14483518D02*
X-7470000Y14090000D01*
D20*
X9207187Y-15390000D02*
X6350000Y-15390000D01*
D16*
X13800000Y-5200000D02*
X14400000Y-5800000D01*
D20*
X3944976Y-14102700D02*
X3750000Y-14102700D01*
X3750000Y-14102700D02*
X-5752700Y-14102700D01*
D16*
X-6590000Y14090000D02*
X-7470000Y14090000D01*
D20*
X4540000Y9580000D02*
X4540000Y6044142D01*
D19*
X-6250000Y9330000D02*
X-6250000Y13269168D01*
D16*
X17810000Y-5800000D02*
G75*
G03*
X17059984Y-7610660I1810700J-1810700D01*
G01*
D21*
X-12653917Y14257476D02*
G75*
G03*
X-12617393Y14272599I17J51624D01*
G01*
X-8700000Y14830000D02*
G75*
G02*
X-7863510Y14483525I0J-1183000D01*
G01*
D20*
X4540000Y6044142D02*
G75*
G03*
X4549988Y6019988I34100J-42D01*
G01*
D21*
X-13402666Y13947334D02*
G75*
G02*
X-12653917Y14257492I748766J-748734D01*
G01*
D19*
X-7576066Y14346066D02*
G75*
G02*
X-7469991Y14090000I-256034J-256066D01*
G01*
D16*
X17060000Y-9200000D02*
G75*
G02*
X15645781Y-12614208I-4828400J0D01*
G01*
D19*
X-6250000Y13269168D02*
G75*
G03*
X-6589990Y14090010I-1160800J32D01*
G01*
D16*
X-4366979Y14090000D02*
G75*
G02*
X-3712079Y13818723I-21J-926200D01*
G01*
X-3060000Y12680000D02*
G75*
G03*
X-3406475Y13516489I-1183000J0D01*
G01*
X-2290000Y8580000D02*
G75*
G02*
X-3059982Y10438944I1858900J1858900D01*
G01*
X3000000Y6020000D02*
G75*
G02*
X-1660401Y7950402I0J6590800D01*
G01*
X9600000Y8400000D02*
G75*
G03*
X9104944Y8194934I0J-700100D01*
G01*
D21*
X-12330000Y14560000D02*
G75*
G02*
X-11678163Y14829984I651800J-651800D01*
G01*
X-14267500Y12039518D02*
G75*
G02*
X-13529995Y13819995I2518000J-18D01*
G01*
D16*
X19560000Y-2503432D02*
G75*
G03*
X19573095Y-2569473I157600J-3068D01*
G01*
X7780000Y6870000D02*
G75*
G02*
X5727919Y6019992I-2052100J2052100D01*
G01*
D20*
X15460000Y-12800000D02*
G75*
G02*
X9207187Y-15389995I-6252800J6252800D01*
G01*
D16*
X17800000Y3400000D02*
X19560000Y1640000D01*
D20*
X6350000Y-15390000D02*
G75*
G02*
X5445240Y-15015227I0J1279500D01*
G01*
D16*
X17800000Y6000000D02*
X17800000Y3400000D01*
D21*
X-12617397Y14272603D02*
X-12330000Y14560000D01*
D20*
X4880000Y-14490000D02*
G75*
G03*
X3944976Y-14102710I-935000J-935000D01*
G01*
X5445234Y-15015233D02*
G75*
G02*
X5376939Y-14986957I-34J96533D01*
G01*
%TD*%
%TA.AperFunction,Conductor*%
%TO.N,GND*%
G36*
X10149984Y-1876946D02*
G01*
X10245602Y-1950315D01*
X10365960Y-2019801D01*
X10402319Y-2040793D01*
X10402321Y-2040794D01*
X10402325Y-2040796D01*
X10569517Y-2110047D01*
X10744318Y-2156883D01*
X10744319Y-2156883D01*
X10744322Y-2156884D01*
X10823078Y-2167250D01*
X10923736Y-2180501D01*
X11014219Y-2180500D01*
X12952157Y-2180500D01*
X13019196Y-2200185D01*
X13064951Y-2252989D01*
X13074895Y-2322147D01*
X13054586Y-2463401D01*
X13074044Y-2598738D01*
X13074046Y-2598746D01*
X13130843Y-2723115D01*
X13130848Y-2723122D01*
X13220385Y-2826454D01*
X13220389Y-2826458D01*
X13280955Y-2865380D01*
X13335415Y-2900379D01*
X13366128Y-2909397D01*
X13466608Y-2938901D01*
X13466609Y-2938901D01*
X13603343Y-2938901D01*
X13734537Y-2900379D01*
X13849565Y-2826456D01*
X13939106Y-2723119D01*
X13940003Y-2721156D01*
X13965010Y-2666398D01*
X13995907Y-2598743D01*
X14015366Y-2463401D01*
X13995907Y-2328059D01*
X13995906Y-2328058D01*
X13995057Y-2322147D01*
X14005001Y-2252988D01*
X14050756Y-2200184D01*
X14117795Y-2180500D01*
X15806146Y-2180500D01*
X15873185Y-2200184D01*
X15930439Y-2236978D01*
X15930440Y-2236978D01*
X15930442Y-2236979D01*
X15942781Y-2240602D01*
X16001561Y-2278374D01*
X16030588Y-2341928D01*
X16020647Y-2411087D01*
X16001565Y-2440781D01*
X15950013Y-2500276D01*
X15950008Y-2500283D01*
X15893211Y-2624652D01*
X15893209Y-2624660D01*
X15873751Y-2759998D01*
X15893209Y-2895335D01*
X15893211Y-2895343D01*
X15950008Y-3019712D01*
X15950013Y-3019719D01*
X16039550Y-3123051D01*
X16039554Y-3123055D01*
X16082818Y-3150858D01*
X16154580Y-3196976D01*
X16206364Y-3212181D01*
X16285773Y-3235498D01*
X16285774Y-3235498D01*
X16422508Y-3235498D01*
X16518502Y-3207312D01*
X16588372Y-3207312D01*
X16647150Y-3245086D01*
X16676175Y-3308642D01*
X16677437Y-3326289D01*
X16677437Y-3544392D01*
X16675122Y-3568243D01*
X16663201Y-3629063D01*
X16657501Y-3649070D01*
X16630598Y-3720217D01*
X16621634Y-3738989D01*
X16583222Y-3804627D01*
X16571245Y-3821638D01*
X16519307Y-3883621D01*
X16511944Y-3891661D01*
X16442552Y-3961053D01*
X16430356Y-3971749D01*
X16428087Y-3973490D01*
X16368765Y-3998055D01*
X16365829Y-3998441D01*
X16349662Y-3999499D01*
X16317644Y-3999497D01*
X16300310Y-3999497D01*
X16300308Y-3999497D01*
X16291284Y-3999497D01*
X16291244Y-3999500D01*
X15420299Y-3999500D01*
X15408146Y-3998903D01*
X15396166Y-3997723D01*
X15309402Y-3989178D01*
X15285563Y-3984436D01*
X15196477Y-3957414D01*
X15174019Y-3948112D01*
X15091912Y-3904227D01*
X15071701Y-3890723D01*
X14995077Y-3827840D01*
X14986061Y-3819668D01*
X14814398Y-3648005D01*
X14814381Y-3647974D01*
X14711192Y-3544787D01*
X14711186Y-3544781D01*
X14565541Y-3433025D01*
X14565530Y-3433018D01*
X14503839Y-3397401D01*
X14406540Y-3341227D01*
X14327870Y-3308642D01*
X14236920Y-3270970D01*
X14059590Y-3223458D01*
X14059587Y-3223457D01*
X13877576Y-3199499D01*
X13877574Y-3199499D01*
X13785780Y-3199500D01*
X12492733Y-3199500D01*
X12425695Y-3179816D01*
X12399565Y-3163024D01*
X12399558Y-3163020D01*
X12268368Y-3124500D01*
X12268367Y-3124500D01*
X12131633Y-3124500D01*
X12131632Y-3124500D01*
X12000440Y-3163021D01*
X11885413Y-3236942D01*
X11885409Y-3236946D01*
X11795872Y-3340278D01*
X11795867Y-3340285D01*
X11739070Y-3464654D01*
X11739068Y-3464662D01*
X11719610Y-3600000D01*
X11739068Y-3735337D01*
X11739070Y-3735345D01*
X11795867Y-3859714D01*
X11795869Y-3859716D01*
X11795870Y-3859718D01*
X11834269Y-3904033D01*
X11843575Y-3914773D01*
X11863731Y-3958910D01*
X11885872Y-3963727D01*
X11893483Y-3968243D01*
X11936185Y-3995685D01*
X12000439Y-4036978D01*
X12066036Y-4056239D01*
X12131632Y-4075500D01*
X12131633Y-4075500D01*
X12268367Y-4075500D01*
X12399558Y-4036979D01*
X12399558Y-4036978D01*
X12399561Y-4036978D01*
X12407586Y-4031820D01*
X12425695Y-4020184D01*
X12492733Y-4000500D01*
X13728208Y-4000500D01*
X13779701Y-4000500D01*
X13791854Y-4001097D01*
X13890597Y-4010821D01*
X13914436Y-4015563D01*
X14003522Y-4042585D01*
X14025981Y-4051887D01*
X14108088Y-4095773D01*
X14128300Y-4109278D01*
X14204920Y-4172157D01*
X14213937Y-4180330D01*
X14329309Y-4295702D01*
X14362794Y-4357025D01*
X14357810Y-4426717D01*
X14315938Y-4482650D01*
X14250474Y-4507067D01*
X14183178Y-4492743D01*
X14179177Y-4490604D01*
X14033501Y-4430264D01*
X14033489Y-4430261D01*
X13878845Y-4399500D01*
X13878842Y-4399500D01*
X13721158Y-4399500D01*
X13721155Y-4399500D01*
X13566510Y-4430261D01*
X13566498Y-4430264D01*
X13420827Y-4490602D01*
X13420814Y-4490609D01*
X13289711Y-4578210D01*
X13289709Y-4578212D01*
X13178213Y-4689707D01*
X13178210Y-4689711D01*
X13090609Y-4820814D01*
X13090602Y-4820827D01*
X13030264Y-4966498D01*
X13030261Y-4966510D01*
X12999500Y-5121153D01*
X12999500Y-5121613D01*
X12999432Y-5121843D01*
X12998903Y-5127218D01*
X12997883Y-5127117D01*
X12979815Y-5188652D01*
X12927011Y-5234407D01*
X12857853Y-5244351D01*
X12794297Y-5215326D01*
X12787819Y-5209294D01*
X11738764Y-4160240D01*
X11710460Y-4108405D01*
X11682821Y-4100290D01*
X11662180Y-4083656D01*
X11493297Y-3914773D01*
X9986819Y-2408294D01*
X9953334Y-2346971D01*
X9950500Y-2320613D01*
X9950500Y-1975323D01*
X9970185Y-1908284D01*
X10022989Y-1862529D01*
X10092147Y-1852585D01*
X10149984Y-1876946D01*
G37*
%TD.AperFunction*%
%TA.AperFunction,Conductor*%
G36*
X15084099Y7579815D02*
G01*
X15104741Y7563181D01*
X16963181Y5704741D01*
X16996666Y5643418D01*
X16999500Y5617060D01*
X16999500Y5532944D01*
X16979815Y5465905D01*
X16927011Y5420150D01*
X16857853Y5410206D01*
X16808462Y5428628D01*
X16778935Y5447603D01*
X16647744Y5486124D01*
X16647743Y5486124D01*
X16511009Y5486124D01*
X16511008Y5486124D01*
X16379816Y5447603D01*
X16264789Y5373682D01*
X16264785Y5373678D01*
X16175248Y5270346D01*
X16175243Y5270339D01*
X16118446Y5145970D01*
X16118444Y5145962D01*
X16098986Y5010624D01*
X16118444Y4875287D01*
X16118446Y4875279D01*
X16175243Y4750910D01*
X16175248Y4750903D01*
X16190359Y4733463D01*
X16219382Y4669907D01*
X16209437Y4600749D01*
X16190358Y4571061D01*
X16145870Y4519719D01*
X16145867Y4519715D01*
X16089070Y4395346D01*
X16089068Y4395338D01*
X16069610Y4260000D01*
X16089068Y4124663D01*
X16089070Y4124655D01*
X16145867Y4000286D01*
X16145872Y4000279D01*
X16235409Y3896947D01*
X16235413Y3896943D01*
X16260908Y3880559D01*
X16350439Y3823022D01*
X16401361Y3808070D01*
X16481632Y3784500D01*
X16481633Y3784500D01*
X16618367Y3784500D01*
X16749561Y3823022D01*
X16808463Y3860876D01*
X16875501Y3880559D01*
X16942540Y3860874D01*
X16988295Y3808070D01*
X16999500Y3756559D01*
X16999500Y3321154D01*
X17030261Y3166511D01*
X17030264Y3166499D01*
X17090602Y3020828D01*
X17090609Y3020815D01*
X17178210Y2889712D01*
X17178213Y2889708D01*
X18723181Y1344741D01*
X18756666Y1283418D01*
X18759500Y1257060D01*
X18759500Y-2494058D01*
X18759477Y-2496428D01*
X18758324Y-2556687D01*
X18758325Y-2556699D01*
X18758546Y-2558467D01*
X18759500Y-2573815D01*
X18759500Y-2582273D01*
X18764018Y-2604985D01*
X18765449Y-2613840D01*
X18768548Y-2638700D01*
X18769500Y-2654039D01*
X18769500Y-3657060D01*
X18749815Y-3724099D01*
X18733181Y-3744741D01*
X17514741Y-4963181D01*
X17453418Y-4996666D01*
X17427060Y-4999500D01*
X16672842Y-4999500D01*
X16605803Y-4979815D01*
X16560048Y-4927011D01*
X16550104Y-4857853D01*
X16579129Y-4794297D01*
X16634528Y-4757568D01*
X16675483Y-4744262D01*
X16708185Y-4733638D01*
X16836185Y-4668423D01*
X16849468Y-4658773D01*
X16902442Y-4620285D01*
X16952406Y-4583985D01*
X16956991Y-4579399D01*
X16957007Y-4579387D01*
X17036353Y-4500039D01*
X17039079Y-4497668D01*
X17043761Y-4492948D01*
X17043764Y-4492947D01*
X17048049Y-4488627D01*
X17048198Y-4488544D01*
X17084329Y-4452077D01*
X17085616Y-4450777D01*
X17086022Y-4450370D01*
X17124571Y-4411822D01*
X17127028Y-4409007D01*
X17149646Y-4386194D01*
X17261501Y-4238153D01*
X17352514Y-4076461D01*
X17421045Y-3904033D01*
X17465860Y-3723980D01*
X17471643Y-3671566D01*
X17475118Y-3653082D01*
X17478437Y-3640700D01*
X17478437Y-3616740D01*
X17479180Y-3603184D01*
X17479530Y-3600000D01*
X17482332Y-3574528D01*
X17480353Y-3563400D01*
X17478437Y-3541686D01*
X17478437Y-1709317D01*
X17498122Y-1642278D01*
X17514747Y-1621645D01*
X17627880Y-1508511D01*
X17680621Y-1477220D01*
X17749561Y-1456978D01*
X17864589Y-1383055D01*
X17954130Y-1279718D01*
X18010931Y-1155342D01*
X18030390Y-1020000D01*
X18010931Y-884658D01*
X17970689Y-796540D01*
X17954132Y-760285D01*
X17954127Y-760278D01*
X17864590Y-656946D01*
X17864586Y-656942D01*
X17749559Y-583021D01*
X17618368Y-544500D01*
X17618367Y-544500D01*
X17481633Y-544500D01*
X17481632Y-544500D01*
X17350441Y-583020D01*
X17308944Y-609688D01*
X17241904Y-629371D01*
X17174865Y-609685D01*
X17129113Y-556883D01*
X17106322Y-506978D01*
X17094130Y-480282D01*
X17093354Y-479387D01*
X17004590Y-376946D01*
X17004586Y-376942D01*
X16889559Y-303021D01*
X16758368Y-264500D01*
X16758367Y-264500D01*
X16621633Y-264500D01*
X16621632Y-264500D01*
X16490440Y-303021D01*
X16375413Y-376942D01*
X16375409Y-376946D01*
X16285872Y-480278D01*
X16285867Y-480285D01*
X16229070Y-604654D01*
X16229068Y-604662D01*
X16209610Y-740000D01*
X16229068Y-875337D01*
X16229070Y-875345D01*
X16285867Y-999714D01*
X16285872Y-999721D01*
X16375409Y-1103053D01*
X16375411Y-1103055D01*
X16422370Y-1133233D01*
X16433270Y-1140238D01*
X16479025Y-1193042D01*
X16488969Y-1262200D01*
X16459944Y-1325756D01*
X16401167Y-1363531D01*
X16331296Y-1363531D01*
X16198368Y-1324500D01*
X16198367Y-1324500D01*
X16061633Y-1324500D01*
X16061632Y-1324500D01*
X15930441Y-1363020D01*
X15930437Y-1363022D01*
X15873185Y-1399816D01*
X15806146Y-1419500D01*
X11078916Y-1419500D01*
X11078904Y-1419499D01*
X11020297Y-1419499D01*
X11008146Y-1418902D01*
X10905505Y-1408795D01*
X10881662Y-1404053D01*
X10857309Y-1396666D01*
X10788821Y-1375891D01*
X10766363Y-1366589D01*
X10759987Y-1363181D01*
X10680796Y-1320853D01*
X10660592Y-1307354D01*
X10580930Y-1241978D01*
X10571913Y-1233805D01*
X10566904Y-1228796D01*
X10559534Y-1220747D01*
X10512544Y-1164658D01*
X10500450Y-1150222D01*
X10488491Y-1133237D01*
X10444506Y-1058093D01*
X10435548Y-1039342D01*
X10404732Y-957913D01*
X10399031Y-937930D01*
X10398837Y-936945D01*
X10384868Y-865844D01*
X10382542Y-841938D01*
X10382542Y370281D01*
X10400694Y432101D01*
X10400446Y432214D01*
X10401235Y433942D01*
X10402227Y437320D01*
X10402227Y437322D01*
X10404124Y440276D01*
X10404130Y440282D01*
X10460931Y564658D01*
X10460932Y564671D01*
X10462562Y570216D01*
X10500335Y628995D01*
X10563890Y658021D01*
X10633049Y648079D01*
X10669221Y622965D01*
X11923181Y-630995D01*
X11956666Y-692318D01*
X11958335Y-707845D01*
X11958439Y-707832D01*
X11959500Y-715891D01*
X11993608Y-843187D01*
X12017552Y-884658D01*
X12059500Y-957314D01*
X12152686Y-1050500D01*
X12266814Y-1116392D01*
X12394108Y-1150500D01*
X12394110Y-1150500D01*
X12525890Y-1150500D01*
X12525892Y-1150500D01*
X12653186Y-1116392D01*
X12767314Y-1050500D01*
X12860500Y-957314D01*
X12926392Y-843186D01*
X12960500Y-715892D01*
X12960500Y-400000D01*
X13919610Y-400000D01*
X13939068Y-535337D01*
X13939070Y-535345D01*
X13995867Y-659714D01*
X13995872Y-659721D01*
X14085409Y-763053D01*
X14085413Y-763057D01*
X14137515Y-796540D01*
X14200439Y-836978D01*
X14258431Y-854006D01*
X14331632Y-875500D01*
X14331633Y-875500D01*
X14468367Y-875500D01*
X14599561Y-836978D01*
X14714589Y-763055D01*
X14804130Y-659718D01*
X14805397Y-656945D01*
X14839156Y-583022D01*
X14860931Y-535342D01*
X14880390Y-400000D01*
X14860931Y-264658D01*
X14837104Y-212485D01*
X14804132Y-140285D01*
X14804127Y-140278D01*
X14714590Y-36946D01*
X14714586Y-36942D01*
X14623736Y21442D01*
X14599561Y36978D01*
X14599560Y36979D01*
X14599559Y36979D01*
X14468368Y75500D01*
X14468367Y75500D01*
X14331633Y75500D01*
X14331632Y75500D01*
X14200440Y36979D01*
X14085413Y-36942D01*
X14085409Y-36946D01*
X13995872Y-140278D01*
X13995867Y-140285D01*
X13939070Y-264654D01*
X13939068Y-264662D01*
X13919610Y-400000D01*
X12960500Y-400000D01*
X12960500Y-394108D01*
X12959533Y-390500D01*
X12926392Y-266814D01*
X12860500Y-152686D01*
X11457814Y1250000D01*
X15749610Y1250000D01*
X15769068Y1114663D01*
X15769070Y1114655D01*
X15825867Y990286D01*
X15825872Y990279D01*
X15915409Y886947D01*
X15915413Y886943D01*
X15950095Y864655D01*
X16030439Y813022D01*
X16096036Y793761D01*
X16161632Y774500D01*
X16161633Y774500D01*
X16298367Y774500D01*
X16429561Y813022D01*
X16544589Y886945D01*
X16634130Y990282D01*
X16690931Y1114658D01*
X16710390Y1250000D01*
X16690931Y1385342D01*
X16678677Y1412173D01*
X16634132Y1509715D01*
X16634127Y1509722D01*
X16544590Y1613054D01*
X16544586Y1613058D01*
X16429559Y1686979D01*
X16298368Y1725500D01*
X16298367Y1725500D01*
X16161633Y1725500D01*
X16161632Y1725500D01*
X16030440Y1686979D01*
X15915413Y1613058D01*
X15915409Y1613054D01*
X15825872Y1509722D01*
X15825867Y1509715D01*
X15769070Y1385346D01*
X15769068Y1385338D01*
X15749610Y1250000D01*
X11457814Y1250000D01*
X10617314Y2090500D01*
X10551421Y2128544D01*
X10503185Y2156393D01*
X10482404Y2161961D01*
X10422744Y2198327D01*
X10392216Y2261175D01*
X10390500Y2281735D01*
X10390500Y3720000D01*
X13569610Y3720000D01*
X13589068Y3584663D01*
X13589070Y3584655D01*
X13645867Y3460286D01*
X13645872Y3460279D01*
X13735409Y3356947D01*
X13735413Y3356943D01*
X13850441Y3283021D01*
X13863607Y3279155D01*
X13922385Y3241382D01*
X13951411Y3177826D01*
X13951412Y3142536D01*
X13949610Y3130000D01*
X13969068Y2994663D01*
X13969070Y2994655D01*
X14025867Y2870286D01*
X14025870Y2870282D01*
X14030397Y2865058D01*
X14059423Y2801503D01*
X14049482Y2732344D01*
X14030400Y2702652D01*
X13975872Y2639723D01*
X13975867Y2639715D01*
X13919070Y2515346D01*
X13919068Y2515338D01*
X13899610Y2380000D01*
X13919068Y2244663D01*
X13919070Y2244655D01*
X13975867Y2120286D01*
X13975872Y2120279D01*
X14065409Y2016947D01*
X14065413Y2016943D01*
X14123332Y1979722D01*
X14180439Y1943022D01*
X14246036Y1923761D01*
X14311632Y1904500D01*
X14311633Y1904500D01*
X14448367Y1904500D01*
X14579561Y1943022D01*
X14694589Y2016945D01*
X14784130Y2120282D01*
X14840931Y2244658D01*
X14860390Y2380000D01*
X14840931Y2515342D01*
X14828677Y2542173D01*
X14784132Y2639715D01*
X14784129Y2639719D01*
X14779599Y2644947D01*
X14750575Y2708504D01*
X14760519Y2777662D01*
X14779595Y2807346D01*
X14834130Y2870282D01*
X14890931Y2994658D01*
X14910390Y3130000D01*
X14890931Y3265342D01*
X14878677Y3292173D01*
X14834132Y3389715D01*
X14834127Y3389722D01*
X14744590Y3493054D01*
X14744586Y3493058D01*
X14675572Y3537409D01*
X14629561Y3566978D01*
X14616388Y3570846D01*
X14557612Y3608620D01*
X14528588Y3672176D01*
X14528588Y3707470D01*
X14530390Y3720000D01*
X14510931Y3855342D01*
X14491932Y3896943D01*
X14454132Y3979715D01*
X14454127Y3979722D01*
X14364590Y4083054D01*
X14364586Y4083058D01*
X14249559Y4156979D01*
X14118368Y4195500D01*
X14118367Y4195500D01*
X13981633Y4195500D01*
X13981632Y4195500D01*
X13850440Y4156979D01*
X13735413Y4083058D01*
X13735409Y4083054D01*
X13645872Y3979722D01*
X13645867Y3979715D01*
X13589070Y3855346D01*
X13589068Y3855338D01*
X13569610Y3720000D01*
X10390500Y3720000D01*
X10390500Y5230000D01*
X13639610Y5230000D01*
X13659068Y5094663D01*
X13659070Y5094655D01*
X13715867Y4970286D01*
X13715872Y4970279D01*
X13805409Y4866947D01*
X13805413Y4866943D01*
X13865979Y4828021D01*
X13920439Y4793022D01*
X13983519Y4774500D01*
X14051632Y4754500D01*
X14051633Y4754500D01*
X14188367Y4754500D01*
X14319561Y4793022D01*
X14434589Y4866945D01*
X14524130Y4970282D01*
X14580931Y5094658D01*
X14600390Y5230000D01*
X14580931Y5365342D01*
X14561118Y5408727D01*
X14524132Y5489715D01*
X14524127Y5489722D01*
X14434590Y5593054D01*
X14434586Y5593058D01*
X14319559Y5666979D01*
X14188368Y5705500D01*
X14188367Y5705500D01*
X14051633Y5705500D01*
X14051632Y5705500D01*
X13920440Y5666979D01*
X13805413Y5593058D01*
X13805409Y5593054D01*
X13715872Y5489722D01*
X13715867Y5489715D01*
X13659070Y5365346D01*
X13659068Y5365338D01*
X13639610Y5230000D01*
X10390500Y5230000D01*
X10390500Y6885890D01*
X10390500Y6885892D01*
X10356392Y7013186D01*
X10290500Y7127314D01*
X10197314Y7220500D01*
X10102980Y7274964D01*
X10083187Y7286392D01*
X9995079Y7310000D01*
X9955892Y7320500D01*
X9824108Y7320500D01*
X9696814Y7286392D01*
X9696813Y7286392D01*
X9696811Y7286391D01*
X9696810Y7286391D01*
X9640986Y7254160D01*
X9573086Y7237687D01*
X9507059Y7260539D01*
X9463869Y7315460D01*
X9457227Y7385014D01*
X9489243Y7447116D01*
X9491305Y7449228D01*
X9605258Y7563181D01*
X9666581Y7596666D01*
X9692939Y7599500D01*
X15017060Y7599500D01*
X15084099Y7579815D01*
G37*
%TD.AperFunction*%
%TA.AperFunction,Conductor*%
G36*
X17057772Y16876004D02*
G01*
X17078371Y16859434D01*
X17279124Y16659155D01*
X17297491Y16640832D01*
X17301033Y16637150D01*
X17969437Y15912883D01*
X17972801Y15909083D01*
X18586225Y15186733D01*
X18610719Y15157890D01*
X18613940Y15153935D01*
X19174739Y14435455D01*
X19220322Y14377055D01*
X19223387Y14372957D01*
X19797192Y13571723D01*
X19800085Y13567502D01*
X20188628Y12974731D01*
X20334989Y12751439D01*
X20340333Y12743287D01*
X20343050Y12738949D01*
X20849006Y11892843D01*
X20851235Y11888958D01*
X21073492Y11484819D01*
X21088839Y11425073D01*
X21089999Y-5689991D01*
X21092407Y-5788252D01*
X21092408Y-5788261D01*
X21130742Y-5980979D01*
X21130744Y-5980987D01*
X21205943Y-6162533D01*
X21205948Y-6162543D01*
X21315118Y-6325927D01*
X21315121Y-6325931D01*
X21454068Y-6464878D01*
X21454072Y-6464881D01*
X21617456Y-6574051D01*
X21617460Y-6574053D01*
X21617463Y-6574055D01*
X21799013Y-6649256D01*
X21991746Y-6687593D01*
X22090000Y-6690000D01*
X22090000Y-6689999D01*
X22116138Y-6690640D01*
X22126244Y-6686621D01*
X22130625Y-6686290D01*
X22161334Y-6684527D01*
X22188514Y-6685957D01*
X22326908Y-6708660D01*
X22356700Y-6717494D01*
X22483291Y-6773096D01*
X22509952Y-6789058D01*
X22566598Y-6833489D01*
X22618750Y-6874394D01*
X22640601Y-6896480D01*
X22724769Y-7006190D01*
X22740442Y-7033017D01*
X22794686Y-7160204D01*
X22803199Y-7190089D01*
X22824415Y-7328710D01*
X22825555Y-7355906D01*
X22821781Y-7411248D01*
X22815789Y-7441772D01*
X22667697Y-7889248D01*
X22666232Y-7893421D01*
X22327555Y-8806262D01*
X22325701Y-8810965D01*
X21950206Y-9708986D01*
X21948161Y-9713609D01*
X21536372Y-10595586D01*
X21534140Y-10600122D01*
X21086759Y-11464552D01*
X21084345Y-11468993D01*
X20602083Y-12314505D01*
X20599489Y-12318844D01*
X20083185Y-13143962D01*
X20080417Y-13148192D01*
X19530892Y-13951607D01*
X19527953Y-13955721D01*
X18946154Y-14736050D01*
X18943051Y-14740040D01*
X18329909Y-15496032D01*
X18326645Y-15499893D01*
X17683232Y-16230226D01*
X17679814Y-16233950D01*
X17007128Y-16937494D01*
X17003560Y-16941076D01*
X16302781Y-17616592D01*
X16299071Y-17620025D01*
X15571348Y-18266411D01*
X15567501Y-18269691D01*
X14813995Y-18885909D01*
X14810017Y-18889028D01*
X14032070Y-19473987D01*
X14027969Y-19476942D01*
X13226805Y-20029720D01*
X13222586Y-20032506D01*
X12399544Y-20552176D01*
X12395215Y-20554787D01*
X11551709Y-21040460D01*
X11547278Y-21042893D01*
X10684644Y-21493800D01*
X10680117Y-21496050D01*
X9799820Y-21911420D01*
X9795205Y-21913483D01*
X8898742Y-22292614D01*
X8894047Y-22294488D01*
X7982850Y-22636775D01*
X7978082Y-22638456D01*
X7053696Y-22943316D01*
X7048864Y-22944801D01*
X6112821Y-23211730D01*
X6107932Y-23213017D01*
X5161484Y-23441644D01*
X5157166Y-23442606D01*
X4692293Y-23537490D01*
X4667453Y-23539995D01*
X-4676856Y-23536840D01*
X-4701635Y-23534330D01*
X-5147713Y-23443195D01*
X-5151864Y-23442273D01*
X-6061334Y-23223734D01*
X-6066032Y-23222507D01*
X-6965918Y-22968621D01*
X-6970564Y-22967212D01*
X-7859860Y-22678276D01*
X-7864448Y-22676685D01*
X-8099505Y-22590000D01*
X-2790390Y-22590000D01*
X-2770932Y-22725337D01*
X-2770930Y-22725345D01*
X-2714133Y-22849714D01*
X-2714128Y-22849721D01*
X-2624591Y-22953053D01*
X-2624587Y-22953057D01*
X-2600368Y-22968621D01*
X-2509561Y-23026978D01*
X-2443964Y-23046239D01*
X-2378368Y-23065500D01*
X-2378367Y-23065500D01*
X-2241633Y-23065500D01*
X-2110439Y-23026978D01*
X-1995411Y-22953055D01*
X-1905870Y-22849718D01*
X-1849069Y-22725342D01*
X-1829610Y-22590000D01*
X-1849069Y-22454658D01*
X-1861323Y-22427827D01*
X-1905868Y-22330285D01*
X-1905873Y-22330278D01*
X-1995410Y-22226946D01*
X-1995414Y-22226942D01*
X-2110441Y-22153021D01*
X-2241632Y-22114500D01*
X-2241633Y-22114500D01*
X-2378367Y-22114500D01*
X-2378368Y-22114500D01*
X-2509560Y-22153021D01*
X-2624587Y-22226942D01*
X-2624591Y-22226946D01*
X-2714128Y-22330278D01*
X-2714133Y-22330285D01*
X-2770930Y-22454654D01*
X-2770932Y-22454662D01*
X-2790390Y-22590000D01*
X-8099505Y-22590000D01*
X-8741722Y-22353162D01*
X-8746244Y-22351393D01*
X-9610186Y-21993770D01*
X-9614636Y-21991825D01*
X-10463903Y-21600656D01*
X-10468273Y-21598539D01*
X-11301603Y-21174403D01*
X-11305886Y-21172116D01*
X-11826116Y-20881153D01*
X-5120500Y-20881153D01*
X-5120500Y-21638846D01*
X-5089739Y-21793489D01*
X-5089736Y-21793501D01*
X-5029398Y-21939172D01*
X-5029391Y-21939185D01*
X-4941790Y-22070288D01*
X-4941787Y-22070292D01*
X-4830293Y-22181786D01*
X-4830289Y-22181789D01*
X-4699186Y-22269390D01*
X-4699173Y-22269397D01*
X-4553502Y-22329735D01*
X-4553497Y-22329737D01*
X-4435732Y-22353162D01*
X-4398847Y-22360499D01*
X-4398844Y-22360500D01*
X-4398842Y-22360500D01*
X-4241156Y-22360500D01*
X-4241155Y-22360499D01*
X-4086503Y-22329737D01*
X-3940821Y-22269394D01*
X-3809711Y-22181789D01*
X-3698211Y-22070289D01*
X-3610606Y-21939179D01*
X-3550263Y-21793497D01*
X-3519500Y-21638842D01*
X-3519500Y-20881158D01*
X-3519500Y-20881155D01*
X-3519501Y-20881153D01*
X3519500Y-20881153D01*
X3519500Y-21638846D01*
X3550261Y-21793489D01*
X3550264Y-21793501D01*
X3610602Y-21939172D01*
X3610609Y-21939185D01*
X3698210Y-22070288D01*
X3698213Y-22070292D01*
X3809707Y-22181786D01*
X3809711Y-22181789D01*
X3940814Y-22269390D01*
X3940827Y-22269397D01*
X4086498Y-22329735D01*
X4086503Y-22329737D01*
X4204268Y-22353162D01*
X4241153Y-22360499D01*
X4241156Y-22360500D01*
X4241158Y-22360500D01*
X4398844Y-22360500D01*
X4398845Y-22360499D01*
X4553497Y-22329737D01*
X4699179Y-22269394D01*
X4830289Y-22181789D01*
X4941789Y-22070289D01*
X5029394Y-21939179D01*
X5089737Y-21793497D01*
X5120500Y-21638842D01*
X5120500Y-20881158D01*
X5120500Y-20881155D01*
X5120499Y-20881153D01*
X5089738Y-20726510D01*
X5089737Y-20726503D01*
X5089735Y-20726498D01*
X5029397Y-20580827D01*
X5029390Y-20580814D01*
X4941789Y-20449711D01*
X4941786Y-20449707D01*
X4830292Y-20338213D01*
X4830288Y-20338210D01*
X4699185Y-20250609D01*
X4699172Y-20250602D01*
X4553501Y-20190264D01*
X4553489Y-20190261D01*
X4398845Y-20159500D01*
X4398842Y-20159500D01*
X4241158Y-20159500D01*
X4241155Y-20159500D01*
X4086510Y-20190261D01*
X4086498Y-20190264D01*
X3940827Y-20250602D01*
X3940814Y-20250609D01*
X3809711Y-20338210D01*
X3809707Y-20338213D01*
X3698213Y-20449707D01*
X3698210Y-20449711D01*
X3610609Y-20580814D01*
X3610602Y-20580827D01*
X3550264Y-20726498D01*
X3550261Y-20726510D01*
X3519500Y-20881153D01*
X-3519501Y-20881153D01*
X-3550262Y-20726510D01*
X-3550263Y-20726503D01*
X-3550265Y-20726498D01*
X-3610603Y-20580827D01*
X-3610610Y-20580814D01*
X-3698211Y-20449711D01*
X-3698214Y-20449707D01*
X-3809708Y-20338213D01*
X-3809712Y-20338210D01*
X-3940815Y-20250609D01*
X-3940828Y-20250602D01*
X-4086499Y-20190264D01*
X-4086511Y-20190261D01*
X-4241155Y-20159500D01*
X-4241158Y-20159500D01*
X-4398842Y-20159500D01*
X-4398845Y-20159500D01*
X-4553490Y-20190261D01*
X-4553502Y-20190264D01*
X-4699173Y-20250602D01*
X-4699186Y-20250609D01*
X-4830289Y-20338210D01*
X-4830293Y-20338213D01*
X-4941787Y-20449707D01*
X-4941790Y-20449711D01*
X-5029391Y-20580814D01*
X-5029398Y-20580827D01*
X-5089736Y-20726498D01*
X-5089739Y-20726510D01*
X-5120500Y-20881153D01*
X-11826116Y-20881153D01*
X-11850252Y-20867654D01*
X-12121962Y-20715686D01*
X-12126121Y-20713252D01*
X-12556827Y-20449707D01*
X-12923713Y-20225212D01*
X-12927804Y-20222597D01*
X-13705649Y-19703725D01*
X-13709635Y-19700952D01*
X-13986358Y-19500272D01*
X-11065501Y-19500272D01*
X-11040503Y-19625939D01*
X-11040501Y-19625945D01*
X-10991467Y-19744325D01*
X-10991462Y-19744334D01*
X-10920277Y-19850869D01*
X-10920274Y-19850873D01*
X-10829673Y-19941474D01*
X-10829669Y-19941477D01*
X-10723134Y-20012662D01*
X-10723128Y-20012665D01*
X-10723127Y-20012666D01*
X-10604744Y-20061702D01*
X-10604740Y-20061702D01*
X-10604739Y-20061703D01*
X-10479072Y-20086701D01*
X-10479069Y-20086701D01*
X-10350929Y-20086701D01*
X-10247165Y-20066060D01*
X-10225256Y-20061702D01*
X-10106873Y-20012666D01*
X-10012023Y-19949288D01*
X-9945348Y-19928412D01*
X-9877968Y-19946896D01*
X-9831277Y-19998874D01*
X-9821189Y-20061131D01*
X-9820390Y-20061131D01*
X-9820390Y-20066060D01*
X-9820101Y-20067844D01*
X-9820390Y-20069994D01*
X-9820390Y-20069999D01*
X-9800932Y-20205337D01*
X-9800930Y-20205345D01*
X-9744133Y-20329714D01*
X-9744128Y-20329721D01*
X-9654591Y-20433053D01*
X-9654587Y-20433057D01*
X-9594021Y-20471979D01*
X-9539561Y-20506978D01*
X-9473964Y-20526239D01*
X-9408368Y-20545500D01*
X-9408367Y-20545500D01*
X-9271633Y-20545500D01*
X-9140439Y-20506978D01*
X-9025411Y-20433055D01*
X-8935870Y-20329718D01*
X-8879069Y-20205342D01*
X-8859610Y-20070000D01*
X-8879069Y-19934658D01*
X-8891323Y-19907827D01*
X-8935868Y-19810285D01*
X-8935873Y-19810278D01*
X-9025410Y-19706946D01*
X-9025414Y-19706942D01*
X-9140441Y-19633021D01*
X-9271632Y-19594500D01*
X-9271633Y-19594500D01*
X-9408367Y-19594500D01*
X-9408368Y-19594500D01*
X-9539557Y-19633020D01*
X-9539560Y-19633021D01*
X-9539561Y-19633022D01*
X-9582131Y-19660380D01*
X-9649171Y-19680063D01*
X-9716210Y-19660377D01*
X-9761964Y-19607572D01*
X-9771907Y-19538414D01*
X-9770786Y-19531870D01*
X-9764500Y-19500270D01*
X-9764500Y-19372129D01*
X-9789498Y-19246462D01*
X-9789499Y-19246461D01*
X-9789499Y-19246457D01*
X-9838535Y-19128074D01*
X-9838536Y-19128073D01*
X-9838539Y-19128067D01*
X-9909724Y-19021532D01*
X-9909727Y-19021528D01*
X-10000328Y-18930927D01*
X-10000332Y-18930924D01*
X-10106867Y-18859739D01*
X-10106876Y-18859734D01*
X-10225256Y-18810700D01*
X-10225262Y-18810698D01*
X-10350929Y-18785701D01*
X-10350931Y-18785701D01*
X-10479069Y-18785701D01*
X-10479071Y-18785701D01*
X-10604739Y-18810698D01*
X-10604745Y-18810700D01*
X-10723125Y-18859734D01*
X-10723134Y-18859739D01*
X-10829669Y-18930924D01*
X-10829673Y-18930927D01*
X-10920274Y-19021528D01*
X-10920277Y-19021532D01*
X-10991462Y-19128067D01*
X-10991467Y-19128076D01*
X-11040501Y-19246456D01*
X-11040503Y-19246462D01*
X-11065500Y-19372129D01*
X-11065500Y-19372132D01*
X-11065500Y-19500270D01*
X-11065500Y-19500272D01*
X-11065501Y-19500272D01*
X-13986358Y-19500272D01*
X-14466824Y-19151837D01*
X-14470223Y-19149282D01*
X-14521357Y-19109455D01*
X-14825523Y-18872544D01*
X-14849583Y-18847687D01*
X-14891001Y-18790778D01*
X-14901970Y-18772621D01*
X-14978933Y-18616425D01*
X-14987457Y-18593787D01*
X-15032226Y-18427063D01*
X-15036190Y-18403196D01*
X-15047720Y-18230961D01*
X-15046972Y-18206772D01*
X-15024829Y-18035585D01*
X-15019397Y-18012001D01*
X-14964422Y-17848371D01*
X-14954515Y-17826298D01*
X-14887327Y-17708844D01*
X-14868050Y-17675144D01*
X-14855990Y-17657712D01*
X-14800337Y-17590406D01*
X-14799575Y-17589497D01*
X-14510936Y-17248606D01*
X-9765501Y-17248606D01*
X-9740503Y-17374273D01*
X-9740501Y-17374279D01*
X-9691467Y-17492659D01*
X-9691462Y-17492668D01*
X-9620277Y-17599203D01*
X-9620274Y-17599207D01*
X-9529673Y-17689808D01*
X-9529669Y-17689811D01*
X-9423134Y-17760996D01*
X-9423128Y-17760999D01*
X-9423127Y-17761000D01*
X-9304744Y-17810036D01*
X-9304740Y-17810036D01*
X-9304739Y-17810037D01*
X-9179072Y-17835035D01*
X-9179069Y-17835035D01*
X-9050929Y-17835035D01*
X-8966385Y-17818217D01*
X-8925256Y-17810036D01*
X-8806873Y-17761000D01*
X-8700331Y-17689811D01*
X-8609724Y-17599204D01*
X-8538535Y-17492662D01*
X-8489499Y-17374279D01*
X-8481318Y-17333150D01*
X-8464500Y-17248606D01*
X-8464500Y-17120463D01*
X-8489498Y-16994796D01*
X-8489499Y-16994795D01*
X-8489499Y-16994791D01*
X-8538535Y-16876408D01*
X-8538536Y-16876407D01*
X-8538539Y-16876401D01*
X-8609724Y-16769866D01*
X-8609727Y-16769862D01*
X-8700328Y-16679261D01*
X-8700332Y-16679258D01*
X-8806867Y-16608073D01*
X-8806876Y-16608068D01*
X-8925256Y-16559034D01*
X-8925262Y-16559032D01*
X-9050929Y-16534035D01*
X-9050931Y-16534035D01*
X-9179069Y-16534035D01*
X-9179071Y-16534035D01*
X-9304739Y-16559032D01*
X-9304745Y-16559034D01*
X-9423125Y-16608068D01*
X-9423134Y-16608073D01*
X-9529669Y-16679258D01*
X-9529673Y-16679261D01*
X-9620274Y-16769862D01*
X-9620277Y-16769866D01*
X-9691462Y-16876401D01*
X-9691467Y-16876410D01*
X-9740501Y-16994790D01*
X-9740503Y-16994796D01*
X-9765500Y-17120463D01*
X-9765500Y-17120466D01*
X-9765500Y-17248604D01*
X-9765500Y-17248606D01*
X-9765501Y-17248606D01*
X-14510936Y-17248606D01*
X-13835716Y-16451153D01*
X-5120500Y-16451153D01*
X-5120500Y-17708846D01*
X-5089739Y-17863489D01*
X-5089736Y-17863501D01*
X-5029398Y-18009172D01*
X-5029391Y-18009185D01*
X-4941790Y-18140288D01*
X-4941787Y-18140292D01*
X-4830293Y-18251786D01*
X-4830289Y-18251789D01*
X-4699186Y-18339390D01*
X-4699173Y-18339397D01*
X-4553502Y-18399735D01*
X-4553497Y-18399737D01*
X-4416121Y-18427063D01*
X-4398847Y-18430499D01*
X-4398844Y-18430500D01*
X-4398842Y-18430500D01*
X-4241156Y-18430500D01*
X-4241155Y-18430499D01*
X-4086503Y-18399737D01*
X-3940821Y-18339394D01*
X-3809711Y-18251789D01*
X-3698211Y-18140289D01*
X-3610606Y-18009179D01*
X-3587131Y-17952504D01*
X-3543293Y-17898103D01*
X-3476999Y-17876037D01*
X-3409299Y-17893315D01*
X-3365185Y-17937956D01*
X-3350515Y-17963365D01*
X-3243365Y-18070515D01*
X-3129719Y-18136129D01*
X-3122514Y-18140289D01*
X-3112135Y-18146281D01*
X-2965766Y-18185500D01*
X-2965764Y-18185500D01*
X-2814236Y-18185500D01*
X-2814234Y-18185500D01*
X-2667865Y-18146281D01*
X-2536635Y-18070515D01*
X-2429485Y-17963365D01*
X-2353719Y-17832135D01*
X-2314500Y-17685766D01*
X-2314500Y-17534234D01*
X2314500Y-17534234D01*
X2314500Y-17685765D01*
X2353719Y-17832136D01*
X2371821Y-17863489D01*
X2429485Y-17963365D01*
X2536635Y-18070515D01*
X2650281Y-18136129D01*
X2657486Y-18140289D01*
X2667865Y-18146281D01*
X2814234Y-18185500D01*
X2814236Y-18185500D01*
X2965764Y-18185500D01*
X2965766Y-18185500D01*
X3112135Y-18146281D01*
X3243365Y-18070515D01*
X3350515Y-17963365D01*
X3365183Y-17937958D01*
X3415748Y-17889743D01*
X3484355Y-17876519D01*
X3549220Y-17902486D01*
X3587131Y-17952506D01*
X3610602Y-18009172D01*
X3610609Y-18009185D01*
X3698210Y-18140288D01*
X3698213Y-18140292D01*
X3809707Y-18251786D01*
X3809711Y-18251789D01*
X3940814Y-18339390D01*
X3940827Y-18339397D01*
X4086498Y-18399735D01*
X4086503Y-18399737D01*
X4223879Y-18427063D01*
X4241153Y-18430499D01*
X4241156Y-18430500D01*
X4241158Y-18430500D01*
X4398844Y-18430500D01*
X4398845Y-18430499D01*
X4553497Y-18399737D01*
X4699179Y-18339394D01*
X4830289Y-18251789D01*
X4941789Y-18140289D01*
X5029394Y-18009179D01*
X5089737Y-17863497D01*
X5120500Y-17708842D01*
X5120500Y-16451158D01*
X5120500Y-16451155D01*
X5120499Y-16451153D01*
X5089738Y-16296510D01*
X5089737Y-16296503D01*
X5063827Y-16233950D01*
X5029397Y-16150827D01*
X5029390Y-16150814D01*
X4941789Y-16019711D01*
X4941786Y-16019707D01*
X4830292Y-15908213D01*
X4830288Y-15908210D01*
X4699185Y-15820609D01*
X4699172Y-15820602D01*
X4553501Y-15760264D01*
X4553489Y-15760261D01*
X4398845Y-15729500D01*
X4398842Y-15729500D01*
X4241158Y-15729500D01*
X4241155Y-15729500D01*
X4086510Y-15760261D01*
X4086498Y-15760264D01*
X3940827Y-15820602D01*
X3940814Y-15820609D01*
X3809711Y-15908210D01*
X3809707Y-15908213D01*
X3698213Y-16019707D01*
X3698210Y-16019711D01*
X3610609Y-16150814D01*
X3610602Y-16150827D01*
X3550264Y-16296498D01*
X3550261Y-16296510D01*
X3519500Y-16451153D01*
X3519500Y-17126258D01*
X3499815Y-17193297D01*
X3447011Y-17239052D01*
X3377853Y-17248996D01*
X3314297Y-17219971D01*
X3307819Y-17213939D01*
X3243367Y-17149487D01*
X3243365Y-17149485D01*
X3177750Y-17111602D01*
X3112136Y-17073719D01*
X3038950Y-17054109D01*
X2965766Y-17034500D01*
X2814234Y-17034500D01*
X2667863Y-17073719D01*
X2536635Y-17149485D01*
X2536632Y-17149487D01*
X2429487Y-17256632D01*
X2429485Y-17256635D01*
X2353719Y-17387863D01*
X2314500Y-17534234D01*
X-2314500Y-17534234D01*
X-2353719Y-17387865D01*
X-2429485Y-17256635D01*
X-2536635Y-17149485D01*
X-2602250Y-17111602D01*
X-2667864Y-17073719D01*
X-2741050Y-17054109D01*
X-2814234Y-17034500D01*
X-2965766Y-17034500D01*
X-3112137Y-17073719D01*
X-3243365Y-17149485D01*
X-3243368Y-17149487D01*
X-3307819Y-17213939D01*
X-3369142Y-17247424D01*
X-3438834Y-17242440D01*
X-3494767Y-17200568D01*
X-3519184Y-17135104D01*
X-3519500Y-17126258D01*
X-3519500Y-16451155D01*
X-3519501Y-16451153D01*
X-3550262Y-16296510D01*
X-3550263Y-16296503D01*
X-3576173Y-16233950D01*
X-3610603Y-16150827D01*
X-3610610Y-16150814D01*
X-3698211Y-16019711D01*
X-3698214Y-16019707D01*
X-3809708Y-15908213D01*
X-3809712Y-15908210D01*
X-3940815Y-15820609D01*
X-3940828Y-15820602D01*
X-4086499Y-15760264D01*
X-4086511Y-15760261D01*
X-4241155Y-15729500D01*
X-4241158Y-15729500D01*
X-4398842Y-15729500D01*
X-4398845Y-15729500D01*
X-4553490Y-15760261D01*
X-4553502Y-15760264D01*
X-4699173Y-15820602D01*
X-4699186Y-15820609D01*
X-4830289Y-15908210D01*
X-4830293Y-15908213D01*
X-4941787Y-16019707D01*
X-4941790Y-16019711D01*
X-5029391Y-16150814D01*
X-5029398Y-16150827D01*
X-5089736Y-16296498D01*
X-5089739Y-16296510D01*
X-5120500Y-16451153D01*
X-13835716Y-16451153D01*
X-13441655Y-15985756D01*
X-13441653Y-15985752D01*
X-13441642Y-15985740D01*
X-13398861Y-15920000D01*
X-10520390Y-15920000D01*
X-10500932Y-16055337D01*
X-10500930Y-16055345D01*
X-10444133Y-16179714D01*
X-10444128Y-16179721D01*
X-10354591Y-16283053D01*
X-10354587Y-16283057D01*
X-10294021Y-16321979D01*
X-10239561Y-16356978D01*
X-10173964Y-16376239D01*
X-10108368Y-16395500D01*
X-10108367Y-16395500D01*
X-9971633Y-16395500D01*
X-9840439Y-16356978D01*
X-9725411Y-16283055D01*
X-9635870Y-16179718D01*
X-9579069Y-16055342D01*
X-9559610Y-15920000D01*
X-9579069Y-15784658D01*
X-9592484Y-15755284D01*
X-9635868Y-15660285D01*
X-9635873Y-15660278D01*
X-9725410Y-15556946D01*
X-9725414Y-15556942D01*
X-9821793Y-15495005D01*
X-9840439Y-15483022D01*
X-9840440Y-15483021D01*
X-9840441Y-15483021D01*
X-9971632Y-15444500D01*
X-9971633Y-15444500D01*
X-10108367Y-15444500D01*
X-10108368Y-15444500D01*
X-10239560Y-15483021D01*
X-10354587Y-15556942D01*
X-10354591Y-15556946D01*
X-10444128Y-15660278D01*
X-10444133Y-15660285D01*
X-10500930Y-15784654D01*
X-10500932Y-15784662D01*
X-10520390Y-15920000D01*
X-13398861Y-15920000D01*
X-13384413Y-15897798D01*
X-13303550Y-15704228D01*
X-13264006Y-15498206D01*
X-13267454Y-15288453D01*
X-13313747Y-15083843D01*
X-13365721Y-14970089D01*
X-13400926Y-14893035D01*
X-13400927Y-14893034D01*
X-13440781Y-14838903D01*
X-13525305Y-14724100D01*
X-13541476Y-14708885D01*
X-13563532Y-14688133D01*
X-13563626Y-14687973D01*
X-13937282Y-14337103D01*
X-13940878Y-14333586D01*
X-14585612Y-13676965D01*
X-14589538Y-13672777D01*
X-15202956Y-12987284D01*
X-15206684Y-12982919D01*
X-15378910Y-12771534D01*
X-15787735Y-12269755D01*
X-15791247Y-12265234D01*
X-15812170Y-12236978D01*
X-16135738Y-11800000D01*
X-14660390Y-11800000D01*
X-14640932Y-11935337D01*
X-14640930Y-11935345D01*
X-14584133Y-12059714D01*
X-14584128Y-12059721D01*
X-14494591Y-12163053D01*
X-14494587Y-12163057D01*
X-14459905Y-12185345D01*
X-14379561Y-12236978D01*
X-14313964Y-12256239D01*
X-14248368Y-12275500D01*
X-14248367Y-12275500D01*
X-14111633Y-12275500D01*
X-13980439Y-12236978D01*
X-13865411Y-12163055D01*
X-13775870Y-12059718D01*
X-13719069Y-11935342D01*
X-13699610Y-11800000D01*
X-13719069Y-11664658D01*
X-13731323Y-11637827D01*
X-13775868Y-11540285D01*
X-13775873Y-11540278D01*
X-13865410Y-11436946D01*
X-13865414Y-11436942D01*
X-13980441Y-11363021D01*
X-14111632Y-11324500D01*
X-14111633Y-11324500D01*
X-14248367Y-11324500D01*
X-14248368Y-11324500D01*
X-14379560Y-11363021D01*
X-14494587Y-11436942D01*
X-14494591Y-11436946D01*
X-14584128Y-11540278D01*
X-14584133Y-11540285D01*
X-14640930Y-11664654D01*
X-14640932Y-11664662D01*
X-14660390Y-11800000D01*
X-16135738Y-11800000D01*
X-16338663Y-11525950D01*
X-16341970Y-11521261D01*
X-16854581Y-10757442D01*
X-16857669Y-10752602D01*
X-17000123Y-10517507D01*
X-17334390Y-9965861D01*
X-17337243Y-9960896D01*
X-17347449Y-9942147D01*
X-17354061Y-9930000D01*
X-16380390Y-9930000D01*
X-16360932Y-10065337D01*
X-16360930Y-10065345D01*
X-16304133Y-10189714D01*
X-16304128Y-10189721D01*
X-16214591Y-10293053D01*
X-16214587Y-10293057D01*
X-16154021Y-10331979D01*
X-16099561Y-10366978D01*
X-16056162Y-10379721D01*
X-15968368Y-10405500D01*
X-15968367Y-10405500D01*
X-15831633Y-10405500D01*
X-15700439Y-10366978D01*
X-15591520Y-10296980D01*
X-15585414Y-10293057D01*
X-15585414Y-10293056D01*
X-15585411Y-10293055D01*
X-15495870Y-10189718D01*
X-15439069Y-10065342D01*
X-15419610Y-9930000D01*
X-15439069Y-9794658D01*
X-15478194Y-9708986D01*
X-15495868Y-9670285D01*
X-15495873Y-9670278D01*
X-15585410Y-9566946D01*
X-15585414Y-9566942D01*
X-15700441Y-9493021D01*
X-15831632Y-9454500D01*
X-15831633Y-9454500D01*
X-15968367Y-9454500D01*
X-15968368Y-9454500D01*
X-16099560Y-9493021D01*
X-16214587Y-9566942D01*
X-16214591Y-9566946D01*
X-16304128Y-9670278D01*
X-16304133Y-9670285D01*
X-16360930Y-9794654D01*
X-16360932Y-9794662D01*
X-16380390Y-9930000D01*
X-17354061Y-9930000D01*
X-17591922Y-9493021D01*
X-17777025Y-9152966D01*
X-17779652Y-9147863D01*
X-18059364Y-8572033D01*
X-18181593Y-8320405D01*
X-18183976Y-8315195D01*
X-18184734Y-8313432D01*
X-18547171Y-7470065D01*
X-18549315Y-7464741D01*
X-18642472Y-7216942D01*
X-18873026Y-6603664D01*
X-18874917Y-6598255D01*
X-19158430Y-5723117D01*
X-19160053Y-5717679D01*
X-19222329Y-5490000D01*
X-14400390Y-5490000D01*
X-14380932Y-5625337D01*
X-14380930Y-5625345D01*
X-14324133Y-5749714D01*
X-14324128Y-5749721D01*
X-14234591Y-5853053D01*
X-14234587Y-5853057D01*
X-14174021Y-5891979D01*
X-14119561Y-5926978D01*
X-14053964Y-5946239D01*
X-13988368Y-5965500D01*
X-13988367Y-5965500D01*
X-13851633Y-5965500D01*
X-13720439Y-5926978D01*
X-13605411Y-5853055D01*
X-13515870Y-5749718D01*
X-13459069Y-5625342D01*
X-13439610Y-5490000D01*
X-13459069Y-5354658D01*
X-13493693Y-5278842D01*
X-13515868Y-5230285D01*
X-13515873Y-5230278D01*
X-13605410Y-5126946D01*
X-13605414Y-5126942D01*
X-13720441Y-5053021D01*
X-13851632Y-5014500D01*
X-13851633Y-5014500D01*
X-13988367Y-5014500D01*
X-13988368Y-5014500D01*
X-14119560Y-5053021D01*
X-14234587Y-5126942D01*
X-14234591Y-5126946D01*
X-14324128Y-5230278D01*
X-14324133Y-5230285D01*
X-14380930Y-5354654D01*
X-14380932Y-5354662D01*
X-14400390Y-5490000D01*
X-19222329Y-5490000D01*
X-19389181Y-4880000D01*
X-15510390Y-4880000D01*
X-15490932Y-5015337D01*
X-15490930Y-5015345D01*
X-15434133Y-5139714D01*
X-15434128Y-5139721D01*
X-15344591Y-5243053D01*
X-15344587Y-5243057D01*
X-15288903Y-5278842D01*
X-15229561Y-5316978D01*
X-15163964Y-5336239D01*
X-15098368Y-5355500D01*
X-15098367Y-5355500D01*
X-14961633Y-5355500D01*
X-14830439Y-5316978D01*
X-14715411Y-5243055D01*
X-14625870Y-5139718D01*
X-14569069Y-5015342D01*
X-14549610Y-4880000D01*
X-14569069Y-4744658D01*
X-14594162Y-4689712D01*
X-14625868Y-4620285D01*
X-14625873Y-4620278D01*
X-14715410Y-4516946D01*
X-14715414Y-4516942D01*
X-14830441Y-4443021D01*
X-14961632Y-4404500D01*
X-14961633Y-4404500D01*
X-15098367Y-4404500D01*
X-15098368Y-4404500D01*
X-15229560Y-4443021D01*
X-15344587Y-4516942D01*
X-15344591Y-4516946D01*
X-15434128Y-4620278D01*
X-15434133Y-4620285D01*
X-15490930Y-4744654D01*
X-15490932Y-4744662D01*
X-15510390Y-4880000D01*
X-19389181Y-4880000D01*
X-19402858Y-4829999D01*
X-19404076Y-4825166D01*
X-19507418Y-4376581D01*
X-19507419Y-4376581D01*
X-19514316Y-4346642D01*
X-19515459Y-4345016D01*
X-19517916Y-4336873D01*
X-19531995Y-4283610D01*
X-19611733Y-4108645D01*
X-19723404Y-3952119D01*
X-19729548Y-3946291D01*
X-19862900Y-3819790D01*
X-19862909Y-3819782D01*
X-20025095Y-3716520D01*
X-20025096Y-3716519D01*
X-20157515Y-3664411D01*
X-20204019Y-3646112D01*
X-20204021Y-3646111D01*
X-20204025Y-3646110D01*
X-20393090Y-3611155D01*
X-20393093Y-3611155D01*
X-20457183Y-3611747D01*
X-20585369Y-3612933D01*
X-20679757Y-3629957D01*
X-20680182Y-3630033D01*
X-22658316Y-3979701D01*
X-22661707Y-3980252D01*
X-22689916Y-3984436D01*
X-22747989Y-3993049D01*
X-22769759Y-3994339D01*
X-22945987Y-3989250D01*
X-22970617Y-3986051D01*
X-23140809Y-3946291D01*
X-23164307Y-3938247D01*
X-23323159Y-3865369D01*
X-23344582Y-3852804D01*
X-23485723Y-3749731D01*
X-23504210Y-3733151D01*
X-23621990Y-3604007D01*
X-23636795Y-3584083D01*
X-23727259Y-3432746D01*
X-23736756Y-3413120D01*
X-23763257Y-3343276D01*
X-23770211Y-3315849D01*
X-23835883Y-2828416D01*
X-23836405Y-2823909D01*
X-23934230Y-1816869D01*
X-23934620Y-1811721D01*
X-23962526Y-1300000D01*
X-17620390Y-1300000D01*
X-17600932Y-1435337D01*
X-17600930Y-1435345D01*
X-17544133Y-1559714D01*
X-17544128Y-1559721D01*
X-17454591Y-1663053D01*
X-17454587Y-1663057D01*
X-17418649Y-1686152D01*
X-17339561Y-1736978D01*
X-17273964Y-1756239D01*
X-17208368Y-1775500D01*
X-17208367Y-1775500D01*
X-17071633Y-1775500D01*
X-16940439Y-1736978D01*
X-16825411Y-1663055D01*
X-16735870Y-1559718D01*
X-16679069Y-1435342D01*
X-16659610Y-1300000D01*
X-16679069Y-1164658D01*
X-16707203Y-1103053D01*
X-16735868Y-1040285D01*
X-16735873Y-1040278D01*
X-16825410Y-936946D01*
X-16825414Y-936942D01*
X-16921264Y-875345D01*
X-16940439Y-863022D01*
X-16940440Y-863021D01*
X-16940441Y-863021D01*
X-17071632Y-824500D01*
X-17071633Y-824500D01*
X-17208367Y-824500D01*
X-17208368Y-824500D01*
X-17339560Y-863021D01*
X-17454587Y-936942D01*
X-17454591Y-936946D01*
X-17544128Y-1040278D01*
X-17544133Y-1040285D01*
X-17600930Y-1164654D01*
X-17600932Y-1164662D01*
X-17620390Y-1300000D01*
X-23962526Y-1300000D01*
X-23989696Y-801781D01*
X-23989870Y-796540D01*
X-23990276Y-763053D01*
X-23998677Y-70000D01*
X-15630390Y-70000D01*
X-15610932Y-205337D01*
X-15610930Y-205345D01*
X-15554133Y-329714D01*
X-15554128Y-329721D01*
X-15464591Y-433053D01*
X-15464587Y-433057D01*
X-15419876Y-461790D01*
X-15349561Y-506978D01*
X-15283964Y-526239D01*
X-15218368Y-545500D01*
X-15218367Y-545500D01*
X-15081633Y-545500D01*
X-14950439Y-506978D01*
X-14835411Y-433055D01*
X-14745870Y-329718D01*
X-14689069Y-205342D01*
X-14669610Y-70000D01*
X-14689069Y65342D01*
X-14741054Y179173D01*
X-14745868Y189715D01*
X-14745873Y189722D01*
X-14835410Y293054D01*
X-14835414Y293058D01*
X-14950441Y366979D01*
X-15081632Y405500D01*
X-15081633Y405500D01*
X-15218367Y405500D01*
X-15218368Y405500D01*
X-15349560Y366979D01*
X-15464587Y293058D01*
X-15464591Y293054D01*
X-15554128Y189722D01*
X-15554133Y189715D01*
X-15610930Y65346D01*
X-15610932Y65338D01*
X-15630390Y-70000D01*
X-23998677Y-70000D01*
X-24002130Y214823D01*
X-24002083Y220007D01*
X-23978492Y1000000D01*
X-6290390Y1000000D01*
X-6270932Y864663D01*
X-6270930Y864655D01*
X-6214133Y740286D01*
X-6214128Y740279D01*
X-6124591Y636947D01*
X-6124587Y636943D01*
X-6067879Y600500D01*
X-6009561Y563022D01*
X-5943964Y543761D01*
X-5878368Y524500D01*
X-5878367Y524500D01*
X-5741633Y524500D01*
X-5610439Y563022D01*
X-5495411Y636945D01*
X-5405870Y740282D01*
X-5349069Y864658D01*
X-5329610Y1000000D01*
X-5349069Y1135342D01*
X-5373802Y1189500D01*
X-5405868Y1259715D01*
X-5405873Y1259722D01*
X-5495410Y1363054D01*
X-5495414Y1363058D01*
X-5610441Y1436979D01*
X-5741632Y1475500D01*
X-5741633Y1475500D01*
X-5878367Y1475500D01*
X-5878368Y1475500D01*
X-6009560Y1436979D01*
X-6124587Y1363058D01*
X-6124591Y1363054D01*
X-6214128Y1259722D01*
X-6214133Y1259715D01*
X-6270930Y1135346D01*
X-6270932Y1135338D01*
X-6290390Y1000000D01*
X-23978492Y1000000D01*
X-23971505Y1230993D01*
X-23971238Y1236175D01*
X-23936053Y1720000D01*
X-10010390Y1720000D01*
X-9990932Y1584663D01*
X-9990930Y1584655D01*
X-9934133Y1460286D01*
X-9934128Y1460279D01*
X-9844591Y1356947D01*
X-9844587Y1356943D01*
X-9807364Y1333022D01*
X-9729561Y1283022D01*
X-9669536Y1265397D01*
X-9598368Y1244500D01*
X-9598367Y1244500D01*
X-9461633Y1244500D01*
X-9330439Y1283022D01*
X-9215411Y1356945D01*
X-9125870Y1460282D01*
X-9069069Y1584658D01*
X-9049610Y1720000D01*
X-9069069Y1855342D01*
X-9091519Y1904500D01*
X-9125868Y1979715D01*
X-9125873Y1979722D01*
X-9215410Y2083054D01*
X-9215414Y2083058D01*
X-9320031Y2150289D01*
X-9330439Y2156978D01*
X-9330440Y2156979D01*
X-9330441Y2156979D01*
X-9461632Y2195500D01*
X-9461633Y2195500D01*
X-9598367Y2195500D01*
X-9598368Y2195500D01*
X-9729560Y2156979D01*
X-9844587Y2083058D01*
X-9844591Y2083054D01*
X-9934128Y1979722D01*
X-9934133Y1979715D01*
X-9990930Y1855346D01*
X-9990932Y1855338D01*
X-10010390Y1720000D01*
X-23936053Y1720000D01*
X-23897880Y2244920D01*
X-23897389Y2250141D01*
X-23866768Y2515346D01*
X-23781378Y3254908D01*
X-23780672Y3260058D01*
X-23622219Y4259004D01*
X-23621288Y4264160D01*
X-23594742Y4395338D01*
X-23421790Y5250000D01*
X-19650390Y5250000D01*
X-19630932Y5114663D01*
X-19630930Y5114655D01*
X-19574133Y4990286D01*
X-19574128Y4990279D01*
X-19484591Y4886947D01*
X-19484587Y4886943D01*
X-19453465Y4866943D01*
X-19369561Y4813022D01*
X-19303964Y4793761D01*
X-19238368Y4774500D01*
X-19238367Y4774500D01*
X-19101633Y4774500D01*
X-18970439Y4813022D01*
X-18855411Y4886945D01*
X-18765870Y4990282D01*
X-18709069Y5114658D01*
X-18696799Y5200000D01*
X-13480390Y5200000D01*
X-13460932Y5064663D01*
X-13460930Y5064655D01*
X-13404133Y4940286D01*
X-13404128Y4940279D01*
X-13314591Y4836947D01*
X-13314587Y4836943D01*
X-13277364Y4813022D01*
X-13199561Y4763022D01*
X-13158287Y4750903D01*
X-13068368Y4724500D01*
X-13068367Y4724500D01*
X-12931633Y4724500D01*
X-12800439Y4763022D01*
X-12685411Y4836945D01*
X-12595870Y4940282D01*
X-12539069Y5064658D01*
X-12519610Y5200000D01*
X-12539069Y5335342D01*
X-12542722Y5343340D01*
X-11308108Y5343340D01*
X-11308108Y5343339D01*
X-11294308Y5334667D01*
X-11294309Y5334667D01*
X-11124139Y5275122D01*
X-10945003Y5254938D01*
X-10944997Y5254938D01*
X-10765862Y5275122D01*
X-10765859Y5275123D01*
X-10595695Y5334666D01*
X-10595694Y5334666D01*
X-10581894Y5343339D01*
X-10581894Y5343340D01*
X-9908108Y5343340D01*
X-9908108Y5343339D01*
X-9894308Y5334667D01*
X-9894309Y5334667D01*
X-9724139Y5275122D01*
X-9545003Y5254938D01*
X-9544997Y5254938D01*
X-9365862Y5275122D01*
X-9365859Y5275123D01*
X-9195695Y5334666D01*
X-9195694Y5334666D01*
X-9181894Y5343339D01*
X-9181894Y5343340D01*
X-9544999Y5706447D01*
X-9545000Y5706447D01*
X-9908108Y5343340D01*
X-10581894Y5343340D01*
X-10944999Y5706447D01*
X-10945000Y5706447D01*
X-11308108Y5343340D01*
X-12542722Y5343340D01*
X-12556578Y5373682D01*
X-12595868Y5459715D01*
X-12595873Y5459722D01*
X-12685410Y5563054D01*
X-12685414Y5563058D01*
X-12796930Y5634723D01*
X-12800439Y5636978D01*
X-12800440Y5636979D01*
X-12800441Y5636979D01*
X-12931632Y5675500D01*
X-12931633Y5675500D01*
X-13068367Y5675500D01*
X-13068368Y5675500D01*
X-13199560Y5636979D01*
X-13314587Y5563058D01*
X-13314591Y5563054D01*
X-13404128Y5459722D01*
X-13404133Y5459715D01*
X-13460930Y5335346D01*
X-13460932Y5335338D01*
X-13480390Y5200000D01*
X-18696799Y5200000D01*
X-18689610Y5250000D01*
X-18709069Y5385342D01*
X-18743034Y5459715D01*
X-18765868Y5509715D01*
X-18765873Y5509722D01*
X-18855410Y5613054D01*
X-18855414Y5613058D01*
X-18970441Y5686979D01*
X-19101632Y5725500D01*
X-19101633Y5725500D01*
X-19238367Y5725500D01*
X-19238368Y5725500D01*
X-19369560Y5686979D01*
X-19484587Y5613058D01*
X-19484591Y5613054D01*
X-19574128Y5509722D01*
X-19574133Y5509715D01*
X-19630930Y5385346D01*
X-19630932Y5385338D01*
X-19650390Y5250000D01*
X-23421790Y5250000D01*
X-23420685Y5255460D01*
X-23419546Y5260538D01*
X-23177135Y6242498D01*
X-23175782Y6247521D01*
X-23099058Y6510000D01*
X-19590390Y6510000D01*
X-19570932Y6374663D01*
X-19570930Y6374655D01*
X-19514133Y6250286D01*
X-19514128Y6250279D01*
X-19424591Y6146947D01*
X-19424587Y6146943D01*
X-19367578Y6110307D01*
X-19309561Y6073022D01*
X-19265212Y6060000D01*
X-19178368Y6034500D01*
X-19178367Y6034500D01*
X-19041633Y6034500D01*
X-19011527Y6043340D01*
X-12008108Y6043340D01*
X-12008108Y6043339D01*
X-11994308Y6034667D01*
X-11994309Y6034667D01*
X-11824138Y5975122D01*
X-11823356Y5974943D01*
X-11822903Y5974690D01*
X-11817569Y5972823D01*
X-11817896Y5971889D01*
X-11762377Y5940834D01*
X-11733048Y5887126D01*
X-11732178Y5887430D01*
X-11730330Y5882148D01*
X-11730060Y5881654D01*
X-11729879Y5880858D01*
X-11670337Y5710700D01*
X-11670337Y5710699D01*
X-11661662Y5696893D01*
X-11298554Y6060000D01*
X-11318445Y6079891D01*
X-11045000Y6079891D01*
X-11045000Y6040109D01*
X-11029776Y6003355D01*
X-11001645Y5975224D01*
X-10964891Y5960000D01*
X-10925109Y5960000D01*
X-10888355Y5975224D01*
X-10860224Y6003355D01*
X-10845000Y6040109D01*
X-10845000Y6060001D01*
X-10591447Y6060001D01*
X-10591447Y6060000D01*
X-10245000Y5713554D01*
X-10244999Y5713554D01*
X-9898554Y6060000D01*
X-9918445Y6079891D01*
X-9645000Y6079891D01*
X-9645000Y6040109D01*
X-9629776Y6003355D01*
X-9601645Y5975224D01*
X-9564891Y5960000D01*
X-9525109Y5960000D01*
X-9488355Y5975224D01*
X-9460224Y6003355D01*
X-9445000Y6040109D01*
X-9445000Y6060001D01*
X-9191447Y6060001D01*
X-9191447Y6060000D01*
X-8828340Y5696894D01*
X-8828339Y5696894D01*
X-8819666Y5710694D01*
X-8819666Y5710695D01*
X-8760124Y5880856D01*
X-8759944Y5881642D01*
X-8759689Y5882099D01*
X-8757823Y5887430D01*
X-8756890Y5887104D01*
X-8725836Y5942621D01*
X-8672125Y5971951D01*
X-8672430Y5972823D01*
X-8667130Y5974678D01*
X-8666642Y5974944D01*
X-8665856Y5975124D01*
X-8495695Y6034666D01*
X-8495694Y6034666D01*
X-8481894Y6043339D01*
X-8481894Y6043340D01*
X-8845000Y6406447D01*
X-8887990Y6363455D01*
X-8887992Y6363454D01*
X-9191447Y6060001D01*
X-9445000Y6060001D01*
X-9445000Y6079891D01*
X-9460224Y6116645D01*
X-9488355Y6144776D01*
X-9525109Y6160000D01*
X-9564891Y6160000D01*
X-9601645Y6144776D01*
X-9629776Y6116645D01*
X-9645000Y6079891D01*
X-9918445Y6079891D01*
X-10202009Y6363455D01*
X-10245000Y6406447D01*
X-10287991Y6363455D01*
X-10287992Y6363454D01*
X-10591447Y6060001D01*
X-10845000Y6060001D01*
X-10845000Y6079891D01*
X-10860224Y6116645D01*
X-10888355Y6144776D01*
X-10925109Y6160000D01*
X-10964891Y6160000D01*
X-11001645Y6144776D01*
X-11029776Y6116645D01*
X-11045000Y6079891D01*
X-11318445Y6079891D01*
X-11645001Y6406447D01*
X-11645002Y6406447D01*
X-12008108Y6043340D01*
X-19011527Y6043340D01*
X-18910439Y6073022D01*
X-18795411Y6146945D01*
X-18705870Y6250282D01*
X-18649069Y6374658D01*
X-18629610Y6510000D01*
X-18649069Y6645342D01*
X-18685220Y6724501D01*
X-18705868Y6769715D01*
X-18705873Y6769722D01*
X-18795410Y6873054D01*
X-18795414Y6873058D01*
X-18894141Y6936504D01*
X-18910439Y6946978D01*
X-18910440Y6946979D01*
X-18910441Y6946979D01*
X-19041632Y6985500D01*
X-19041633Y6985500D01*
X-19178367Y6985500D01*
X-19178368Y6985500D01*
X-19309560Y6946979D01*
X-19424587Y6873058D01*
X-19424591Y6873054D01*
X-19514128Y6769722D01*
X-19514133Y6769715D01*
X-19570930Y6645346D01*
X-19570932Y6645338D01*
X-19590390Y6510000D01*
X-23099058Y6510000D01*
X-22897367Y7200000D01*
X-14747890Y7200000D01*
X-14728432Y7064663D01*
X-14728430Y7064655D01*
X-14671633Y6940286D01*
X-14671628Y6940279D01*
X-14582091Y6836947D01*
X-14582087Y6836943D01*
X-14521521Y6798021D01*
X-14467061Y6763022D01*
X-14401464Y6743761D01*
X-14335868Y6724500D01*
X-14335867Y6724500D01*
X-14199133Y6724500D01*
X-14078221Y6760003D01*
X-12450062Y6760003D01*
X-12450062Y6759998D01*
X-12429879Y6580862D01*
X-12370335Y6410696D01*
X-12361662Y6396893D01*
X-11998554Y6760000D01*
X-11998554Y6760001D01*
X-12018444Y6779891D01*
X-11745000Y6779891D01*
X-11745000Y6740109D01*
X-11729776Y6703355D01*
X-11701645Y6675224D01*
X-11664891Y6660000D01*
X-11625109Y6660000D01*
X-11588355Y6675224D01*
X-11560224Y6703355D01*
X-11545000Y6740109D01*
X-11545000Y6760000D01*
X-11291447Y6760000D01*
X-11255947Y6724501D01*
X-10945000Y6413554D01*
X-10598554Y6760000D01*
X-10618445Y6779891D01*
X-10345000Y6779891D01*
X-10345000Y6740109D01*
X-10329776Y6703355D01*
X-10301645Y6675224D01*
X-10264891Y6660000D01*
X-10225109Y6660000D01*
X-10188355Y6675224D01*
X-10160224Y6703355D01*
X-10145000Y6740109D01*
X-10145000Y6760000D01*
X-9891447Y6760000D01*
X-9855947Y6724501D01*
X-9545000Y6413554D01*
X-9198554Y6760000D01*
X-9218445Y6779891D01*
X-8945000Y6779891D01*
X-8945000Y6740109D01*
X-8929776Y6703355D01*
X-8901645Y6675224D01*
X-8864891Y6660000D01*
X-8825109Y6660000D01*
X-8788355Y6675224D01*
X-8760224Y6703355D01*
X-8745000Y6740109D01*
X-8745000Y6760000D01*
X-8491447Y6760000D01*
X-8128340Y6396894D01*
X-8128339Y6396894D01*
X-8119666Y6410694D01*
X-8119666Y6410695D01*
X-8060123Y6580859D01*
X-8060122Y6580862D01*
X-8039938Y6759998D01*
X-8039938Y6760003D01*
X-8060122Y6939139D01*
X-8119667Y7109308D01*
X-8128339Y7123108D01*
X-8128340Y7123108D01*
X-8491447Y6760000D01*
X-8745000Y6760000D01*
X-8745000Y6779891D01*
X-8760224Y6816645D01*
X-8788355Y6844776D01*
X-8825109Y6860000D01*
X-8864891Y6860000D01*
X-8901645Y6844776D01*
X-8929776Y6816645D01*
X-8945000Y6779891D01*
X-9218445Y6779891D01*
X-9503213Y7064659D01*
X-9545000Y7106447D01*
X-9586787Y7064659D01*
X-9586788Y7064658D01*
X-9891447Y6760000D01*
X-10145000Y6760000D01*
X-10145000Y6779891D01*
X-10160224Y6816645D01*
X-10188355Y6844776D01*
X-10225109Y6860000D01*
X-10264891Y6860000D01*
X-10301645Y6844776D01*
X-10329776Y6816645D01*
X-10345000Y6779891D01*
X-10618445Y6779891D01*
X-10903213Y7064659D01*
X-10945000Y7106447D01*
X-10986787Y7064659D01*
X-10986788Y7064658D01*
X-11291447Y6760000D01*
X-11545000Y6760000D01*
X-11545000Y6779891D01*
X-11560224Y6816645D01*
X-11588355Y6844776D01*
X-11625109Y6860000D01*
X-11664891Y6860000D01*
X-11701645Y6844776D01*
X-11729776Y6816645D01*
X-11745000Y6779891D01*
X-12018444Y6779891D01*
X-12361662Y7123109D01*
X-12361663Y7123109D01*
X-12370333Y7109309D01*
X-12370338Y7109299D01*
X-12429878Y6939142D01*
X-12429879Y6939139D01*
X-12450062Y6760003D01*
X-14078221Y6760003D01*
X-14067939Y6763022D01*
X-13952911Y6836945D01*
X-13863370Y6940282D01*
X-13860311Y6946979D01*
X-13844405Y6981810D01*
X-13806569Y7064658D01*
X-13787110Y7200000D01*
X-13806569Y7335342D01*
X-13830795Y7388388D01*
X-13842000Y7439899D01*
X-13842000Y7460001D01*
X-11991447Y7460001D01*
X-11991447Y7459999D01*
X-11645002Y7113554D01*
X-11645001Y7113554D01*
X-11345629Y7412925D01*
X-11298554Y7460000D01*
X-11318445Y7479891D01*
X-11045000Y7479891D01*
X-11045000Y7440109D01*
X-11029776Y7403355D01*
X-11001645Y7375224D01*
X-10964891Y7360000D01*
X-10925109Y7360000D01*
X-10888355Y7375224D01*
X-10860224Y7403355D01*
X-10845000Y7440109D01*
X-10845000Y7460000D01*
X-10591447Y7460000D01*
X-10544371Y7412925D01*
X-10245000Y7113554D01*
X-9898554Y7460000D01*
X-9918445Y7479891D01*
X-9645000Y7479891D01*
X-9645000Y7440109D01*
X-9629776Y7403355D01*
X-9601645Y7375224D01*
X-9564891Y7360000D01*
X-9525109Y7360000D01*
X-9488355Y7375224D01*
X-9460224Y7403355D01*
X-9445000Y7440109D01*
X-9445000Y7460000D01*
X-9191447Y7460000D01*
X-9144371Y7412925D01*
X-8845000Y7113554D01*
X-8648554Y7310000D01*
X-6820390Y7310000D01*
X-6800932Y7174663D01*
X-6800930Y7174655D01*
X-6744133Y7050286D01*
X-6744128Y7050279D01*
X-6654591Y6946947D01*
X-6654587Y6946943D01*
X-6594021Y6908021D01*
X-6539561Y6873022D01*
X-6536148Y6872020D01*
X-6408368Y6834500D01*
X-6408367Y6834500D01*
X-6271633Y6834500D01*
X-6140439Y6873022D01*
X-6025411Y6946945D01*
X-5935870Y7050282D01*
X-5879069Y7174658D01*
X-5859610Y7310000D01*
X-5879069Y7445342D01*
X-5924479Y7544776D01*
X-5935868Y7569715D01*
X-5935873Y7569722D01*
X-6025410Y7673054D01*
X-6025414Y7673058D01*
X-6140441Y7746979D01*
X-6271632Y7785500D01*
X-6271633Y7785500D01*
X-6408367Y7785500D01*
X-6408368Y7785500D01*
X-6539560Y7746979D01*
X-6654587Y7673058D01*
X-6654591Y7673054D01*
X-6744128Y7569722D01*
X-6744133Y7569715D01*
X-6800930Y7445346D01*
X-6800932Y7445338D01*
X-6820390Y7310000D01*
X-8648554Y7310000D01*
X-8498554Y7460000D01*
X-8498554Y7460001D01*
X-8845000Y7806447D01*
X-8904468Y7746978D01*
X-8904469Y7746978D01*
X-9191447Y7460000D01*
X-9445000Y7460000D01*
X-9445000Y7479891D01*
X-9460224Y7516645D01*
X-9488355Y7544776D01*
X-9525109Y7560000D01*
X-9564891Y7560000D01*
X-9601645Y7544776D01*
X-9629776Y7516645D01*
X-9645000Y7479891D01*
X-9918445Y7479891D01*
X-10185532Y7746978D01*
X-10245000Y7806447D01*
X-10304468Y7746978D01*
X-10304469Y7746978D01*
X-10591447Y7460000D01*
X-10845000Y7460000D01*
X-10845000Y7479891D01*
X-10860224Y7516645D01*
X-10888355Y7544776D01*
X-10925109Y7560000D01*
X-10964891Y7560000D01*
X-11001645Y7544776D01*
X-11029776Y7516645D01*
X-11045000Y7479891D01*
X-11318445Y7479891D01*
X-11645001Y7806447D01*
X-11645002Y7806447D01*
X-11991447Y7460001D01*
X-13842000Y7460001D01*
X-13842000Y8160003D01*
X-12450062Y8160003D01*
X-12450062Y8159998D01*
X-12429879Y7980862D01*
X-12370335Y7810696D01*
X-12361662Y7796893D01*
X-11998554Y8160000D01*
X-11998554Y8160001D01*
X-12018444Y8179891D01*
X-11745000Y8179891D01*
X-11745000Y8140109D01*
X-11729776Y8103355D01*
X-11701645Y8075224D01*
X-11664891Y8060000D01*
X-11625109Y8060000D01*
X-11588355Y8075224D01*
X-11560224Y8103355D01*
X-11545000Y8140109D01*
X-11545000Y8160001D01*
X-11291447Y8160001D01*
X-10945000Y7813554D01*
X-10598554Y8160000D01*
X-10618445Y8179891D01*
X-10345000Y8179891D01*
X-10345000Y8140109D01*
X-10329776Y8103355D01*
X-10301645Y8075224D01*
X-10264891Y8060000D01*
X-10225109Y8060000D01*
X-10188355Y8075224D01*
X-10160224Y8103355D01*
X-10145000Y8140109D01*
X-10145000Y8160001D01*
X-9891447Y8160001D01*
X-9545000Y7813554D01*
X-9198554Y8160000D01*
X-9218445Y8179891D01*
X-8945000Y8179891D01*
X-8945000Y8140109D01*
X-8929776Y8103355D01*
X-8901645Y8075224D01*
X-8864891Y8060000D01*
X-8825109Y8060000D01*
X-8788355Y8075224D01*
X-8760224Y8103355D01*
X-8745000Y8140109D01*
X-8745000Y8160000D01*
X-8491447Y8160000D01*
X-8128340Y7796894D01*
X-8128339Y7796894D01*
X-8119666Y7810694D01*
X-8119666Y7810695D01*
X-8060123Y7980859D01*
X-8060122Y7980862D01*
X-8039938Y8159998D01*
X-8039938Y8160003D01*
X-8060122Y8339139D01*
X-8119667Y8509308D01*
X-8128339Y8523108D01*
X-8128340Y8523108D01*
X-8491447Y8160000D01*
X-8745000Y8160000D01*
X-8745000Y8179891D01*
X-8760224Y8216645D01*
X-8788355Y8244776D01*
X-8825109Y8260000D01*
X-8864891Y8260000D01*
X-8901645Y8244776D01*
X-8929776Y8216645D01*
X-8945000Y8179891D01*
X-9218445Y8179891D01*
X-9479240Y8440686D01*
X-9545000Y8506447D01*
X-9610760Y8440686D01*
X-9610761Y8440686D01*
X-9891447Y8160001D01*
X-10145000Y8160001D01*
X-10145000Y8179891D01*
X-10160224Y8216645D01*
X-10188355Y8244776D01*
X-10225109Y8260000D01*
X-10264891Y8260000D01*
X-10301645Y8244776D01*
X-10329776Y8216645D01*
X-10345000Y8179891D01*
X-10618445Y8179891D01*
X-10879240Y8440686D01*
X-10945000Y8506447D01*
X-11010760Y8440686D01*
X-11010761Y8440686D01*
X-11291447Y8160001D01*
X-11545000Y8160001D01*
X-11545000Y8179891D01*
X-11560224Y8216645D01*
X-11588355Y8244776D01*
X-11625109Y8260000D01*
X-11664891Y8260000D01*
X-11701645Y8244776D01*
X-11729776Y8216645D01*
X-11745000Y8179891D01*
X-12018444Y8179891D01*
X-12361662Y8523109D01*
X-12361663Y8523109D01*
X-12370333Y8509309D01*
X-12370338Y8509299D01*
X-12429878Y8339142D01*
X-12429879Y8339139D01*
X-12450062Y8160003D01*
X-13842000Y8160003D01*
X-13842000Y8876663D01*
X-12008109Y8876663D01*
X-12008109Y8876662D01*
X-11645002Y8513554D01*
X-11350534Y8808020D01*
X-11298554Y8860001D01*
X-11298554Y8860002D01*
X-11318443Y8879891D01*
X-11045000Y8879891D01*
X-11045000Y8840109D01*
X-11029776Y8803355D01*
X-11001645Y8775224D01*
X-10964891Y8760000D01*
X-10925109Y8760000D01*
X-10888355Y8775224D01*
X-10860224Y8803355D01*
X-10845000Y8840109D01*
X-10845000Y8860002D01*
X-10591447Y8860002D01*
X-10591447Y8860001D01*
X-10245000Y8513554D01*
X-9950534Y8808019D01*
X-9898554Y8860001D01*
X-9898554Y8860002D01*
X-9918443Y8879891D01*
X-9645000Y8879891D01*
X-9645000Y8840109D01*
X-9629776Y8803355D01*
X-9601645Y8775224D01*
X-9564891Y8760000D01*
X-9525109Y8760000D01*
X-9488355Y8775224D01*
X-9460224Y8803355D01*
X-9445000Y8840109D01*
X-9445000Y8860002D01*
X-9191447Y8860002D01*
X-9191447Y8860001D01*
X-8845000Y8513554D01*
X-8844999Y8513554D01*
X-8481893Y8876662D01*
X-8495699Y8885337D01*
X-8665858Y8944879D01*
X-8666654Y8945060D01*
X-8667117Y8945319D01*
X-8672430Y8947178D01*
X-8672105Y8948110D01*
X-8727630Y8979173D01*
X-8756951Y9032875D01*
X-8757823Y9032569D01*
X-8759679Y9037872D01*
X-8759943Y9038356D01*
X-8760122Y9039138D01*
X-8819667Y9209308D01*
X-8828339Y9223108D01*
X-8828340Y9223108D01*
X-9191447Y8860002D01*
X-9445000Y8860002D01*
X-9445000Y8879891D01*
X-9460224Y8916645D01*
X-9488355Y8944776D01*
X-9525109Y8960000D01*
X-9564891Y8960000D01*
X-9601645Y8944776D01*
X-9629776Y8916645D01*
X-9645000Y8879891D01*
X-9918443Y8879891D01*
X-10244999Y9206447D01*
X-10245000Y9206447D01*
X-10591447Y8860002D01*
X-10845000Y8860002D01*
X-10845000Y8879891D01*
X-10860224Y8916645D01*
X-10888355Y8944776D01*
X-10925109Y8960000D01*
X-10964891Y8960000D01*
X-11001645Y8944776D01*
X-11029776Y8916645D01*
X-11045000Y8879891D01*
X-11318443Y8879891D01*
X-11661662Y9223109D01*
X-11661663Y9223109D01*
X-11670333Y9209309D01*
X-11670338Y9209299D01*
X-11729881Y9039134D01*
X-11730061Y9038344D01*
X-11730318Y9037887D01*
X-11732177Y9032571D01*
X-11733109Y9032897D01*
X-11764176Y8977369D01*
X-11817876Y8948048D01*
X-11817571Y8947177D01*
X-11822855Y8945329D01*
X-11823344Y8945061D01*
X-11824134Y8944881D01*
X-11994299Y8885338D01*
X-11994309Y8885333D01*
X-12008109Y8876663D01*
X-13842000Y8876663D01*
X-13842000Y9576663D01*
X-11308109Y9576663D01*
X-11308109Y9576662D01*
X-10945000Y9213554D01*
X-10944999Y9213554D01*
X-10581893Y9576662D01*
X-10581895Y9576663D01*
X-9908109Y9576663D01*
X-9908109Y9576662D01*
X-9545000Y9213554D01*
X-9544999Y9213554D01*
X-9181893Y9576662D01*
X-9195696Y9585335D01*
X-9365862Y9644879D01*
X-9544997Y9665062D01*
X-9545003Y9665062D01*
X-9724139Y9644879D01*
X-9724142Y9644878D01*
X-9894299Y9585338D01*
X-9894309Y9585333D01*
X-9908109Y9576663D01*
X-10581895Y9576663D01*
X-10595696Y9585335D01*
X-10765862Y9644879D01*
X-10944997Y9665062D01*
X-10945003Y9665062D01*
X-11124139Y9644879D01*
X-11124142Y9644878D01*
X-11294299Y9585338D01*
X-11294309Y9585333D01*
X-11308109Y9576663D01*
X-13842000Y9576663D01*
X-13842000Y12036039D01*
X-13841805Y12042993D01*
X-13840550Y12065342D01*
X-13829231Y12266858D01*
X-13827677Y12280654D01*
X-13790698Y12498285D01*
X-13787613Y12511806D01*
X-13726495Y12723949D01*
X-13721916Y12737034D01*
X-13637435Y12940987D01*
X-13631412Y12953494D01*
X-13524631Y13146697D01*
X-13517250Y13158445D01*
X-13389497Y13338495D01*
X-13380859Y13349327D01*
X-13231325Y13516655D01*
X-13226592Y13521661D01*
X-13206219Y13542033D01*
X-13185864Y13562387D01*
X-13171484Y13576770D01*
X-13153958Y13594296D01*
X-13153944Y13594306D01*
X-13116112Y13632139D01*
X-13106098Y13642154D01*
X-13097095Y13650316D01*
X-13015239Y13717497D01*
X-12995040Y13730994D01*
X-12907065Y13778019D01*
X-12884620Y13787317D01*
X-12849141Y13798081D01*
X-12779274Y13798705D01*
X-12778266Y13798415D01*
X-12722284Y13781976D01*
X-12585550Y13781976D01*
X-12454356Y13820498D01*
X-12339328Y13894421D01*
X-12249787Y13997758D01*
X-12247366Y14003058D01*
X-12224864Y14052333D01*
X-12199755Y14088499D01*
X-12033416Y14254837D01*
X-12024432Y14262979D01*
X-11963350Y14313107D01*
X-11943153Y14326601D01*
X-11878874Y14360958D01*
X-11856431Y14370253D01*
X-11786688Y14391408D01*
X-11762854Y14396148D01*
X-11714125Y14400945D01*
X-11684079Y14403903D01*
X-11671931Y14404500D01*
X-11617002Y14404497D01*
X-11616998Y14404499D01*
X-11607976Y14404498D01*
X-11607935Y14404500D01*
X-9845914Y14404500D01*
X-9778875Y14384815D01*
X-9733120Y14332011D01*
X-9723176Y14262853D01*
X-9724961Y14254648D01*
X-9745083Y14114693D01*
X-9725625Y13979356D01*
X-9725623Y13979348D01*
X-9668826Y13854979D01*
X-9668821Y13854972D01*
X-9579284Y13751640D01*
X-9579280Y13751636D01*
X-9538204Y13725239D01*
X-9464254Y13677715D01*
X-9406647Y13660800D01*
X-9333061Y13639193D01*
X-9333060Y13639193D01*
X-9196326Y13639193D01*
X-9065132Y13677715D01*
X-8950104Y13751638D01*
X-8860563Y13854975D01*
X-8859861Y13856511D01*
X-8842549Y13894419D01*
X-8803762Y13979351D01*
X-8784303Y14114693D01*
X-8803762Y14250035D01*
X-8805024Y14258813D01*
X-8801776Y14259281D01*
X-8801777Y14313140D01*
X-8764003Y14371918D01*
X-8700448Y14400945D01*
X-8670654Y14401610D01*
X-8564372Y14391143D01*
X-8540544Y14386404D01*
X-8421810Y14350387D01*
X-8399354Y14341085D01*
X-8333022Y14305631D01*
X-8283177Y14256669D01*
X-8267716Y14188532D01*
X-8269855Y14172091D01*
X-8270500Y14168851D01*
X-8270500Y14011154D01*
X-8239739Y13856511D01*
X-8239736Y13856499D01*
X-8208016Y13779920D01*
X-8200547Y13710451D01*
X-8231823Y13647972D01*
X-8255537Y13628153D01*
X-8294587Y13603057D01*
X-8294591Y13603054D01*
X-8384128Y13499722D01*
X-8384133Y13499715D01*
X-8440930Y13375346D01*
X-8440932Y13375338D01*
X-8460390Y13240000D01*
X-8440932Y13104663D01*
X-8440930Y13104655D01*
X-8384133Y12980286D01*
X-8384128Y12980279D01*
X-8294591Y12876947D01*
X-8294587Y12876943D01*
X-8253212Y12850354D01*
X-8179561Y12803022D01*
X-8113964Y12783761D01*
X-8048368Y12764500D01*
X-8048367Y12764500D01*
X-7911633Y12764500D01*
X-7780439Y12803022D01*
X-7665411Y12876945D01*
X-7575870Y12980282D01*
X-7519069Y13104658D01*
X-7507784Y13183147D01*
X-7478759Y13246703D01*
X-7419981Y13284477D01*
X-7385046Y13289500D01*
X-6874500Y13289500D01*
X-6807461Y13269815D01*
X-6761706Y13217011D01*
X-6750500Y13165500D01*
X-6750500Y9264108D01*
X-6735814Y9209299D01*
X-6716392Y9136813D01*
X-6683446Y9079750D01*
X-6650500Y9022686D01*
X-6557314Y8929500D01*
X-6443186Y8863608D01*
X-6315892Y8829500D01*
X-6315890Y8829500D01*
X-6184110Y8829500D01*
X-6184108Y8829500D01*
X-6056814Y8863608D01*
X-5942686Y8929500D01*
X-5849500Y9022686D01*
X-5783608Y9136814D01*
X-5749500Y9264108D01*
X-5749500Y13165500D01*
X-5729815Y13232539D01*
X-5677011Y13278294D01*
X-5625500Y13289500D01*
X-4547922Y13289500D01*
X-4480883Y13269815D01*
X-4435128Y13217011D01*
X-4425184Y13147853D01*
X-4454209Y13084297D01*
X-4459603Y13078073D01*
X-4459605Y13078071D01*
X-4516208Y13012747D01*
X-4549146Y12974734D01*
X-4549149Y12974731D01*
X-4605946Y12850362D01*
X-4605948Y12850354D01*
X-4625406Y12715016D01*
X-4605948Y12579679D01*
X-4605946Y12579671D01*
X-4549149Y12455302D01*
X-4549144Y12455295D01*
X-4459607Y12351963D01*
X-4459603Y12351959D01*
X-4429533Y12332635D01*
X-4344577Y12278038D01*
X-4306464Y12266847D01*
X-4213384Y12239516D01*
X-4213383Y12239516D01*
X-4076649Y12239516D01*
X-4019433Y12256316D01*
X-3949566Y12256316D01*
X-3890788Y12218543D01*
X-3861762Y12154987D01*
X-3860500Y12137339D01*
X-3860500Y10354359D01*
X-3860484Y10354006D01*
X-3860484Y10309379D01*
X-3860484Y10270479D01*
X-3855215Y10216979D01*
X-3827463Y9935161D01*
X-3827463Y9935156D01*
X-3827462Y9935147D01*
X-3827461Y9935145D01*
X-3775325Y9673022D01*
X-3761727Y9604657D01*
X-3761727Y9604655D01*
X-3679205Y9332608D01*
X-3663918Y9282213D01*
X-3602511Y9133961D01*
X-3534973Y8970904D01*
X-3484600Y8876662D01*
X-3384241Y8688900D01*
X-3376133Y8673732D01*
X-3376126Y8673720D01*
X-3188936Y8393568D01*
X-3188932Y8393563D01*
X-2975167Y8133089D01*
X-2918860Y8076783D01*
X-2918856Y8076778D01*
X-2242014Y7399937D01*
X-2055342Y7213265D01*
X-1932553Y7105582D01*
X-1742762Y6939139D01*
X-1691499Y6894183D01*
X-1307578Y6599590D01*
X-905217Y6330741D01*
X-905192Y6330725D01*
X-486104Y6088764D01*
X-186131Y5940834D01*
X-52077Y5874726D01*
X395018Y5689533D01*
X620306Y5613058D01*
X853258Y5533981D01*
X853273Y5533976D01*
X1104284Y5466719D01*
X1320711Y5408727D01*
X1795345Y5314316D01*
X2275137Y5251150D01*
X2758034Y5219500D01*
X2921158Y5219500D01*
X4471158Y5219500D01*
X5643788Y5219500D01*
X5676555Y5219500D01*
X5676578Y5219494D01*
X5727924Y5219494D01*
X5727924Y5219493D01*
X5889582Y5219494D01*
X5889584Y5219494D01*
X5957901Y5225472D01*
X6211668Y5247675D01*
X6530071Y5303820D01*
X6842370Y5387502D01*
X7146187Y5498083D01*
X7439211Y5634723D01*
X7719210Y5796382D01*
X7984055Y5981829D01*
X8231729Y6189652D01*
X8346039Y6303961D01*
X8405532Y6363454D01*
X9260773Y7218697D01*
X9322094Y7252180D01*
X9391785Y7247196D01*
X9447719Y7205325D01*
X9472136Y7139860D01*
X9457284Y7071587D01*
X9455840Y7069015D01*
X9423608Y7013188D01*
X9389500Y6885892D01*
X9389500Y1948676D01*
X9369815Y1881637D01*
X9353181Y1860995D01*
X9161472Y1669287D01*
X9100149Y1635802D01*
X9030457Y1640786D01*
X8974524Y1682658D01*
X8950107Y1748122D01*
X8950572Y1761131D01*
X8950390Y1761131D01*
X8950390Y1770000D01*
X8938120Y1855338D01*
X8930931Y1905342D01*
X8896966Y1979715D01*
X8874132Y2029715D01*
X8874127Y2029722D01*
X8784590Y2133054D01*
X8784586Y2133058D01*
X8669559Y2206979D01*
X8538368Y2245500D01*
X8538367Y2245500D01*
X8401633Y2245500D01*
X8401632Y2245500D01*
X8270440Y2206979D01*
X8155413Y2133058D01*
X8155409Y2133054D01*
X8065872Y2029722D01*
X8065867Y2029715D01*
X8009070Y1905346D01*
X8009068Y1905338D01*
X7989610Y1770000D01*
X8009068Y1634663D01*
X8009070Y1634655D01*
X8065867Y1510286D01*
X8065872Y1510279D01*
X8155409Y1406947D01*
X8155413Y1406943D01*
X8215979Y1368021D01*
X8270439Y1333022D01*
X8336036Y1313761D01*
X8401632Y1294500D01*
X8401633Y1294500D01*
X8538368Y1294500D01*
X8538368Y1294501D01*
X8567887Y1303169D01*
X8637757Y1303170D01*
X8696535Y1265397D01*
X8725562Y1201841D01*
X8722599Y1152099D01*
X8699500Y1065892D01*
X8699500Y267291D01*
X8690065Y219848D01*
X8687018Y212492D01*
X8687016Y212486D01*
X8687016Y212485D01*
X8649500Y72474D01*
X8649500Y-72474D01*
X8687016Y-212485D01*
X8754697Y-329714D01*
X8759489Y-338013D01*
X8759491Y-338016D01*
X8813181Y-391706D01*
X8846666Y-453029D01*
X8849500Y-479387D01*
X8849500Y-2672476D01*
X8862543Y-2721155D01*
X8887014Y-2812480D01*
X8887016Y-2812485D01*
X8959490Y-2938015D01*
X9674546Y-3653071D01*
X10218743Y-4197267D01*
X10252228Y-4258590D01*
X10247244Y-4328282D01*
X10205372Y-4384215D01*
X10163158Y-4404722D01*
X10111548Y-4418551D01*
X9961616Y-4494945D01*
X9830842Y-4600842D01*
X9724945Y-4731616D01*
X9648552Y-4881546D01*
X9605001Y-5044083D01*
X9605000Y-5044084D01*
X9596194Y-5212126D01*
X9622516Y-5378323D01*
X9682822Y-5535423D01*
X9682824Y-5535427D01*
X9774466Y-5676544D01*
X9831805Y-5733883D01*
X9836002Y-5738291D01*
X10042621Y-5966261D01*
X10050341Y-5975667D01*
X10231813Y-6220353D01*
X10238573Y-6230471D01*
X10395177Y-6491747D01*
X10400913Y-6502479D01*
X10531163Y-6777867D01*
X10535818Y-6789106D01*
X10580143Y-6912982D01*
X10638443Y-7075917D01*
X10641976Y-7087562D01*
X10668981Y-7195370D01*
X10666176Y-7265183D01*
X10626072Y-7322397D01*
X10561402Y-7348847D01*
X10548697Y-7349500D01*
X9650511Y-7349500D01*
X9650293Y-7349510D01*
X9543454Y-7349510D01*
X9161968Y-7382883D01*
X9161965Y-7382883D01*
X8784854Y-7449377D01*
X8784837Y-7449381D01*
X8414956Y-7548487D01*
X8055102Y-7679461D01*
X8055094Y-7679464D01*
X7708050Y-7841292D01*
X7708038Y-7841298D01*
X7376402Y-8032767D01*
X7376376Y-8032783D01*
X7062703Y-8252419D01*
X6769356Y-8498568D01*
X6769332Y-8498590D01*
X6695888Y-8572033D01*
X6636827Y-8631094D01*
X6630904Y-8636642D01*
X6481913Y-8767302D01*
X6469046Y-8777175D01*
X6307644Y-8885020D01*
X6293596Y-8893131D01*
X6119500Y-8978984D01*
X6104514Y-8985191D01*
X5920705Y-9047583D01*
X5905037Y-9051781D01*
X5714656Y-9089647D01*
X5698574Y-9091764D01*
X5500490Y-9104743D01*
X5492383Y-9105008D01*
X5406518Y-9105008D01*
X5406498Y-9105009D01*
X3182321Y-9105009D01*
X3115282Y-9085324D01*
X3069527Y-9032520D01*
X3059583Y-8963362D01*
X3088608Y-8899806D01*
X3115282Y-8876693D01*
X3124589Y-8870712D01*
X3214130Y-8767375D01*
X3214164Y-8767302D01*
X3263033Y-8660292D01*
X3270931Y-8642999D01*
X3290390Y-8507657D01*
X3272036Y-8380000D01*
X3979610Y-8380000D01*
X3999068Y-8515337D01*
X3999070Y-8515345D01*
X4055867Y-8639714D01*
X4055872Y-8639721D01*
X4145409Y-8743053D01*
X4145413Y-8743057D01*
X4198503Y-8777175D01*
X4260439Y-8816978D01*
X4326036Y-8836239D01*
X4391632Y-8855500D01*
X4391633Y-8855500D01*
X4528367Y-8855500D01*
X4659561Y-8816978D01*
X4774589Y-8743055D01*
X4864130Y-8639718D01*
X4868069Y-8631094D01*
X4893929Y-8574468D01*
X4920931Y-8515342D01*
X4940390Y-8380000D01*
X4920931Y-8244658D01*
X4899156Y-8196978D01*
X4864132Y-8120285D01*
X4864127Y-8120278D01*
X4774590Y-8016946D01*
X4774586Y-8016942D01*
X4659559Y-7943021D01*
X4528368Y-7904500D01*
X4528367Y-7904500D01*
X4391633Y-7904500D01*
X4391632Y-7904500D01*
X4260440Y-7943021D01*
X4145413Y-8016942D01*
X4145409Y-8016946D01*
X4055872Y-8120278D01*
X4055867Y-8120285D01*
X3999070Y-8244654D01*
X3999068Y-8244662D01*
X3979610Y-8380000D01*
X3272036Y-8380000D01*
X3270931Y-8372315D01*
X3236997Y-8298010D01*
X3214132Y-8247942D01*
X3214127Y-8247935D01*
X3124590Y-8144603D01*
X3124586Y-8144599D01*
X3010306Y-8071158D01*
X3009561Y-8070679D01*
X3009560Y-8070678D01*
X3009559Y-8070678D01*
X2878368Y-8032157D01*
X2878367Y-8032157D01*
X2741633Y-8032157D01*
X2741632Y-8032157D01*
X2610440Y-8070678D01*
X2495413Y-8144599D01*
X2495409Y-8144603D01*
X2405872Y-8247935D01*
X2405867Y-8247942D01*
X2349070Y-8372311D01*
X2349068Y-8372319D01*
X2329610Y-8507657D01*
X2349068Y-8642994D01*
X2349070Y-8643002D01*
X2405867Y-8767371D01*
X2405872Y-8767378D01*
X2495409Y-8870710D01*
X2495411Y-8870712D01*
X2504718Y-8876693D01*
X2550473Y-8929497D01*
X2560417Y-8998655D01*
X2531392Y-9062211D01*
X2472615Y-9099986D01*
X2437679Y-9105009D01*
X1394195Y-9105009D01*
X1347958Y-9096066D01*
X1303940Y-9078377D01*
X1300180Y-9076794D01*
X1282309Y-9068920D01*
X1200839Y-9033023D01*
X1195242Y-9030387D01*
X1081891Y-8973484D01*
X1076206Y-8970442D01*
X1037404Y-8948359D01*
X1011057Y-8928271D01*
X1002323Y-8919537D01*
X929039Y-8859394D01*
X790483Y-8745682D01*
X562627Y-8593432D01*
X320945Y-8464249D01*
X126007Y-8383501D01*
X67766Y-8359376D01*
X-158930Y-8290608D01*
X-194476Y-8279825D01*
X-194479Y-8279824D01*
X-194480Y-8279824D01*
X-194485Y-8279823D01*
X-463235Y-8226365D01*
X-463251Y-8226362D01*
X-735972Y-8199500D01*
X-794153Y-8199500D01*
X-1631158Y-8199500D01*
X-8321158Y-8199500D01*
X-8478842Y-8199500D01*
X-8478845Y-8199500D01*
X-8633490Y-8230261D01*
X-8633502Y-8230264D01*
X-8779172Y-8290602D01*
X-8779183Y-8290608D01*
X-8813341Y-8313432D01*
X-8880019Y-8334309D01*
X-8947399Y-8315824D01*
X-8969912Y-8298010D01*
X-10963181Y-6304741D01*
X-10996666Y-6243418D01*
X-10999500Y-6217060D01*
X-10999500Y-5121159D01*
X-11002843Y-5104349D01*
X-11002843Y-5104348D01*
X-11030262Y-4966507D01*
X-11030263Y-4966503D01*
X-11030263Y-4966502D01*
X-11065453Y-4881546D01*
X-11066093Y-4880000D01*
X-11090603Y-4820827D01*
X-11090610Y-4820814D01*
X-11178210Y-4689712D01*
X-11224130Y-4643792D01*
X-11289711Y-4578211D01*
X-12655741Y-3212181D01*
X-12689226Y-3150858D01*
X-12684242Y-3081166D01*
X-12642370Y-3025233D01*
X-12576906Y-3000816D01*
X-12568060Y-3000500D01*
X-5681156Y-3000500D01*
X-5681155Y-3000499D01*
X-5526503Y-2969737D01*
X-5380821Y-2909394D01*
X-5249711Y-2821789D01*
X-2918483Y-490559D01*
X-2899695Y-475141D01*
X-2879711Y-461789D01*
X-2768211Y-350289D01*
X-2680606Y-219179D01*
X-2620263Y-73497D01*
X-2589500Y81158D01*
X-2589500Y130613D01*
X-2569815Y197652D01*
X-2553181Y218294D01*
X-2528294Y243181D01*
X-2466971Y276666D01*
X-2440613Y279500D01*
X-1167528Y279500D01*
X-1167525Y279500D01*
X-1027515Y317016D01*
X-901985Y389491D01*
X-799491Y491985D01*
X-727016Y617515D01*
X-689500Y757525D01*
X-689500Y902475D01*
X-727016Y1042485D01*
X-785833Y1144358D01*
X-799489Y1168012D01*
X-799490Y1168014D01*
X-799491Y1168015D01*
X-901985Y1270509D01*
X-901987Y1270510D01*
X-901989Y1270512D01*
X-1027512Y1342983D01*
X-1027511Y1342983D01*
X-1038994Y1346060D01*
X-1167525Y1380500D01*
X-2657525Y1380500D01*
X-2802475Y1380500D01*
X-2931007Y1346060D01*
X-2942489Y1342983D01*
X-3068012Y1270512D01*
X-3068014Y1270510D01*
X-3170511Y1168014D01*
X-3176011Y1158488D01*
X-3195712Y1132815D01*
X-3331708Y996818D01*
X-3393028Y963334D01*
X-3419387Y960500D01*
X-3478845Y960500D01*
X-3633490Y929739D01*
X-3633502Y929736D01*
X-3779173Y869398D01*
X-3779186Y869391D01*
X-3910289Y781790D01*
X-3910293Y781787D01*
X-6055259Y-1363181D01*
X-6116582Y-1396666D01*
X-6142940Y-1399500D01*
X-12675500Y-1399500D01*
X-12742539Y-1379815D01*
X-12788294Y-1327011D01*
X-12799500Y-1275500D01*
X-12799500Y-121155D01*
X-12799501Y-121153D01*
X-12808980Y-73501D01*
X-12830263Y33497D01*
X-12843452Y65338D01*
X-12890603Y179173D01*
X-12890610Y179186D01*
X-12978211Y310289D01*
X-12978214Y310293D01*
X-13089708Y421787D01*
X-13089712Y421790D01*
X-13220815Y509391D01*
X-13220828Y509398D01*
X-13366499Y569736D01*
X-13366511Y569739D01*
X-13521155Y600500D01*
X-13521158Y600500D01*
X-13678842Y600500D01*
X-13678845Y600500D01*
X-13833490Y569739D01*
X-13833502Y569736D01*
X-13979173Y509398D01*
X-13979186Y509391D01*
X-14110289Y421790D01*
X-14110293Y421787D01*
X-14221787Y310293D01*
X-14221790Y310289D01*
X-14309391Y179186D01*
X-14309398Y179173D01*
X-14369736Y33502D01*
X-14369739Y33490D01*
X-14400500Y-121153D01*
X-14400500Y-3478846D01*
X-14369739Y-3633489D01*
X-14369736Y-3633501D01*
X-14309398Y-3779172D01*
X-14309391Y-3779185D01*
X-14221790Y-3910288D01*
X-14221787Y-3910292D01*
X-12636819Y-5495259D01*
X-12603334Y-5556582D01*
X-12600500Y-5582940D01*
X-12600500Y-6678846D01*
X-12569739Y-6833489D01*
X-12569736Y-6833501D01*
X-12509398Y-6979172D01*
X-12509391Y-6979185D01*
X-12432438Y-7094352D01*
X-12411560Y-7161029D01*
X-12430044Y-7228410D01*
X-12482023Y-7275100D01*
X-12500605Y-7282220D01*
X-12639560Y-7323020D01*
X-12762051Y-7401740D01*
X-12763968Y-7398758D01*
X-12812171Y-7420733D01*
X-12881323Y-7410743D01*
X-12934096Y-7364952D01*
X-12942526Y-7349502D01*
X-12955870Y-7320282D01*
X-12988851Y-7282220D01*
X-13045410Y-7216946D01*
X-13045414Y-7216942D01*
X-13141631Y-7155109D01*
X-13160439Y-7143022D01*
X-13160440Y-7143021D01*
X-13160441Y-7143021D01*
X-13291632Y-7104500D01*
X-13291633Y-7104500D01*
X-13428367Y-7104500D01*
X-13428368Y-7104500D01*
X-13559560Y-7143021D01*
X-13674587Y-7216942D01*
X-13674591Y-7216946D01*
X-13764128Y-7320278D01*
X-13764133Y-7320285D01*
X-13820930Y-7444654D01*
X-13820932Y-7444662D01*
X-13840390Y-7580000D01*
X-13820932Y-7715337D01*
X-13820930Y-7715345D01*
X-13764133Y-7839714D01*
X-13764128Y-7839721D01*
X-13674591Y-7943053D01*
X-13674587Y-7943057D01*
X-13614021Y-7981979D01*
X-13559561Y-8016978D01*
X-13505734Y-8032783D01*
X-13428368Y-8055500D01*
X-13428367Y-8055500D01*
X-13291633Y-8055500D01*
X-13160439Y-8016978D01*
X-13045414Y-7943057D01*
X-13037949Y-7938260D01*
X-13036018Y-7941265D01*
X-12988033Y-7919295D01*
X-12918865Y-7929171D01*
X-12866016Y-7974875D01*
X-12857472Y-7990504D01*
X-12844131Y-8019716D01*
X-12844128Y-8019721D01*
X-12754591Y-8123053D01*
X-12754587Y-8123057D01*
X-12694021Y-8161979D01*
X-12639561Y-8196978D01*
X-12573964Y-8216239D01*
X-12508368Y-8235500D01*
X-12508367Y-8235500D01*
X-12371633Y-8235500D01*
X-12240439Y-8196978D01*
X-12125411Y-8123055D01*
X-12035870Y-8019718D01*
X-12034603Y-8016945D01*
X-12000844Y-7943022D01*
X-11979069Y-7895342D01*
X-11971291Y-7841239D01*
X-11942267Y-7777685D01*
X-11883489Y-7739910D01*
X-11813620Y-7739909D01*
X-11760872Y-7771206D01*
X-10346819Y-9185259D01*
X-10313334Y-9246582D01*
X-10310500Y-9272940D01*
X-10310500Y-10258846D01*
X-10279739Y-10413489D01*
X-10279736Y-10413501D01*
X-10219398Y-10559172D01*
X-10219391Y-10559185D01*
X-10131790Y-10690288D01*
X-10131787Y-10690292D01*
X-10020293Y-10801786D01*
X-10020289Y-10801789D01*
X-9889186Y-10889390D01*
X-9889173Y-10889397D01*
X-9759494Y-10943111D01*
X-9743497Y-10949737D01*
X-9588847Y-10980499D01*
X-9588844Y-10980500D01*
X-9588842Y-10980500D01*
X-9431156Y-10980500D01*
X-9431155Y-10980499D01*
X-9276503Y-10949737D01*
X-9130821Y-10889394D01*
X-8999711Y-10801789D01*
X-8888211Y-10690289D01*
X-8800606Y-10559179D01*
X-8791311Y-10536736D01*
X-8764433Y-10496509D01*
X-8240812Y-9972889D01*
X-8179490Y-9939405D01*
X-8109798Y-9944389D01*
X-8053865Y-9986261D01*
X-8029448Y-10051725D01*
X-8033357Y-10092663D01*
X-8052500Y-10164106D01*
X-8052500Y-10164108D01*
X-8052500Y-10295892D01*
X-8050129Y-10304741D01*
X-8018392Y-10423187D01*
X-7998890Y-10456964D01*
X-7952500Y-10537314D01*
X-7859314Y-10630500D01*
X-7776316Y-10678419D01*
X-7745604Y-10696151D01*
X-7745186Y-10696392D01*
X-7617892Y-10730500D01*
X-7617890Y-10730500D01*
X-7486110Y-10730500D01*
X-7486108Y-10730500D01*
X-7358814Y-10696392D01*
X-7244686Y-10630500D01*
X-7151500Y-10537314D01*
X-7085608Y-10423186D01*
X-7051500Y-10295892D01*
X-7051500Y-10164108D01*
X-7085608Y-10036814D01*
X-7091037Y-10027411D01*
X-7114656Y-9986501D01*
X-7131130Y-9918601D01*
X-7108278Y-9852574D01*
X-7053357Y-9809383D01*
X-7007270Y-9800500D01*
X-1899776Y-9800500D01*
X-1832737Y-9820185D01*
X-1786982Y-9872989D01*
X-1777038Y-9942147D01*
X-1786982Y-9976011D01*
X-1790930Y-9984654D01*
X-1790932Y-9984662D01*
X-1810390Y-10120000D01*
X-1790932Y-10255337D01*
X-1790930Y-10255345D01*
X-1734133Y-10379714D01*
X-1734128Y-10379721D01*
X-1644591Y-10483053D01*
X-1644587Y-10483057D01*
X-1593258Y-10516043D01*
X-1529561Y-10556978D01*
X-1476807Y-10572468D01*
X-1398368Y-10595500D01*
X-1398367Y-10595500D01*
X-1261633Y-10595500D01*
X-1130439Y-10556978D01*
X-1015411Y-10483055D01*
X-925870Y-10379718D01*
X-869069Y-10255342D01*
X-849610Y-10120000D01*
X-869069Y-9984658D01*
X-869073Y-9984650D01*
X-871567Y-9976154D01*
X-870057Y-9975710D01*
X-878576Y-9916457D01*
X-849551Y-9852901D01*
X-790772Y-9815127D01*
X-746112Y-9810486D01*
X-696862Y-9814362D01*
X-677649Y-9817405D01*
X-627273Y-9829500D01*
X-515340Y-9856373D01*
X-496836Y-9862385D01*
X-342615Y-9926267D01*
X-325294Y-9935093D01*
X-182964Y-10022313D01*
X-167230Y-10033745D01*
X-114367Y-10078895D01*
X-65876Y-10120311D01*
X-54934Y-10131769D01*
X-54681Y-10131530D01*
X-50489Y-10135950D01*
X-15939Y-10165873D01*
X-9437Y-10171925D01*
X26618Y-10207980D01*
X26620Y-10207981D01*
X26621Y-10207982D01*
X43680Y-10219061D01*
X57320Y-10229320D01*
X68702Y-10239177D01*
X68703Y-10239177D01*
X68706Y-10239180D01*
X113712Y-10264793D01*
X119880Y-10268547D01*
X167742Y-10299629D01*
X167746Y-10299630D01*
X167747Y-10299631D01*
X181059Y-10304741D01*
X197956Y-10312736D01*
X247239Y-10340783D01*
X262088Y-10350714D01*
X271613Y-10358131D01*
X271615Y-10358132D01*
X271618Y-10358134D01*
X320527Y-10382686D01*
X326222Y-10385732D01*
X373801Y-10412810D01*
X385252Y-10416618D01*
X401741Y-10423456D01*
X437219Y-10441266D01*
X452759Y-10450546D01*
X461911Y-10456962D01*
X512819Y-10479392D01*
X518416Y-10482028D01*
X568150Y-10506995D01*
X568152Y-10506995D01*
X568153Y-10506996D01*
X570778Y-10507719D01*
X578921Y-10509963D01*
X595991Y-10516040D01*
X599139Y-10517427D01*
X599320Y-10517507D01*
X617094Y-10527144D01*
X619718Y-10528857D01*
X678761Y-10552582D01*
X682484Y-10554150D01*
X740726Y-10579813D01*
X740728Y-10579813D01*
X740732Y-10579815D01*
X745152Y-10581264D01*
X749562Y-10582802D01*
X803868Y-10602904D01*
X806999Y-10604113D01*
X823714Y-10610830D01*
X830572Y-10614185D01*
X830640Y-10614038D01*
X836178Y-10616574D01*
X836182Y-10616577D01*
X842412Y-10618721D01*
X845993Y-10619954D01*
X851872Y-10622145D01*
X868356Y-10628769D01*
X873243Y-10630195D01*
X884057Y-10633054D01*
X900732Y-10638793D01*
X903302Y-10639711D01*
X967299Y-10663402D01*
X967300Y-10663402D01*
X970096Y-10664437D01*
X974500Y-10666164D01*
X996048Y-10675089D01*
X996427Y-10675246D01*
X1012390Y-10678420D01*
X1028554Y-10682788D01*
X1043953Y-10688089D01*
X1094055Y-10694900D01*
X1101493Y-10696144D01*
X1151082Y-10706009D01*
X1167359Y-10706009D01*
X1184062Y-10707139D01*
X1189383Y-10707862D01*
X1200201Y-10709333D01*
X1250652Y-10706241D01*
X1258236Y-10706009D01*
X5581645Y-10706009D01*
X5582034Y-10705989D01*
X5654396Y-10705991D01*
X5968201Y-10675089D01*
X6277466Y-10613578D01*
X6286526Y-10610830D01*
X6336780Y-10595586D01*
X6579212Y-10522048D01*
X6788581Y-10435326D01*
X6858048Y-10427859D01*
X6920527Y-10459135D01*
X6956179Y-10519224D01*
X6953684Y-10589049D01*
X6948828Y-10601390D01*
X6936325Y-10628769D01*
X6929068Y-10644660D01*
X6929068Y-10644662D01*
X6909610Y-10780000D01*
X6929068Y-10915337D01*
X6929070Y-10915345D01*
X6985867Y-11039714D01*
X6985872Y-11039721D01*
X7075409Y-11143053D01*
X7075413Y-11143057D01*
X7135979Y-11181979D01*
X7190439Y-11216978D01*
X7256036Y-11236239D01*
X7321632Y-11255500D01*
X7367282Y-11255500D01*
X7434321Y-11275185D01*
X7480076Y-11327989D01*
X7489155Y-11391131D01*
X7489610Y-11391131D01*
X7489610Y-11394292D01*
X7490020Y-11397144D01*
X7489610Y-11399996D01*
X7489610Y-11399999D01*
X7489610Y-11400000D01*
X7493595Y-11427715D01*
X7509068Y-11535337D01*
X7509070Y-11535345D01*
X7565867Y-11659714D01*
X7565872Y-11659721D01*
X7655409Y-11763053D01*
X7655413Y-11763057D01*
X7697782Y-11790285D01*
X7770439Y-11836978D01*
X7794480Y-11844037D01*
X7901632Y-11875500D01*
X7901633Y-11875500D01*
X8038367Y-11875500D01*
X8169561Y-11836978D01*
X8284589Y-11763055D01*
X8374130Y-11659718D01*
X8430931Y-11535342D01*
X8450390Y-11400000D01*
X8430931Y-11264658D01*
X8409156Y-11216978D01*
X8374132Y-11140285D01*
X8374127Y-11140278D01*
X8284590Y-11036946D01*
X8284586Y-11036942D01*
X8169559Y-10963021D01*
X8038368Y-10924500D01*
X8038367Y-10924500D01*
X7992718Y-10924500D01*
X7925679Y-10904815D01*
X7879924Y-10852011D01*
X7870845Y-10788869D01*
X7870390Y-10788869D01*
X7870390Y-10785707D01*
X7869980Y-10782856D01*
X7870390Y-10780003D01*
X7870390Y-10780000D01*
X7863070Y-10729091D01*
X7850931Y-10644658D01*
X7832415Y-10604113D01*
X7794132Y-10520285D01*
X7794127Y-10520278D01*
X7704590Y-10416946D01*
X7704586Y-10416942D01*
X7601533Y-10350716D01*
X7589561Y-10343022D01*
X7589560Y-10343021D01*
X7589559Y-10343021D01*
X7449857Y-10302001D01*
X7450351Y-10300315D01*
X7396488Y-10275716D01*
X7358714Y-10216937D01*
X7358714Y-10147068D01*
X7396489Y-10088290D01*
X7408809Y-10078895D01*
X7410801Y-10077564D01*
X7410800Y-10077564D01*
X7410807Y-10077560D01*
X7654555Y-9877522D01*
X7706544Y-9825532D01*
X7706546Y-9825532D01*
X7763895Y-9768182D01*
X7768238Y-9764047D01*
X7964005Y-9586613D01*
X7973381Y-9578919D01*
X8183103Y-9423379D01*
X8193196Y-9416636D01*
X8417143Y-9282408D01*
X8427835Y-9276692D01*
X8663879Y-9165052D01*
X8675086Y-9160410D01*
X8920936Y-9072444D01*
X8932541Y-9068925D01*
X9185798Y-9005489D01*
X9197725Y-9003117D01*
X9455976Y-8964810D01*
X9468072Y-8963618D01*
X9732110Y-8950648D01*
X9738192Y-8950500D01*
X9819055Y-8950500D01*
X10675500Y-8950500D01*
X10742539Y-8970185D01*
X10788294Y-9022989D01*
X10799500Y-9074500D01*
X10799500Y-13088672D01*
X10797117Y-13112864D01*
X10789500Y-13151156D01*
X10789500Y-13308846D01*
X10820261Y-13463489D01*
X10820264Y-13463501D01*
X10880602Y-13609172D01*
X10880609Y-13609185D01*
X10968210Y-13740288D01*
X10968213Y-13740292D01*
X11079707Y-13851786D01*
X11079711Y-13851789D01*
X11210814Y-13939390D01*
X11210827Y-13939397D01*
X11314693Y-13982419D01*
X11356503Y-13999737D01*
X11511153Y-14030499D01*
X11511156Y-14030500D01*
X11511158Y-14030500D01*
X11668844Y-14030500D01*
X11668845Y-14030499D01*
X11823497Y-13999737D01*
X11969179Y-13939394D01*
X12100289Y-13851789D01*
X12221789Y-13730289D01*
X12236082Y-13708897D01*
X12264092Y-13666979D01*
X12264092Y-13666978D01*
X12309394Y-13599179D01*
X12311932Y-13593053D01*
X12346584Y-13509393D01*
X12369737Y-13453497D01*
X12400500Y-13298842D01*
X12400500Y-13091158D01*
X12400500Y-11210000D01*
X13049610Y-11210000D01*
X13069068Y-11345337D01*
X13069070Y-11345345D01*
X13125867Y-11469714D01*
X13125872Y-11469721D01*
X13215409Y-11573053D01*
X13215413Y-11573057D01*
X13275979Y-11611979D01*
X13330439Y-11646978D01*
X13373838Y-11659721D01*
X13461632Y-11685500D01*
X13461633Y-11685500D01*
X13598367Y-11685500D01*
X13729561Y-11646978D01*
X13844589Y-11573055D01*
X13934130Y-11469718D01*
X13990931Y-11345342D01*
X14010390Y-11210000D01*
X13990931Y-11074658D01*
X13973707Y-11036942D01*
X13934132Y-10950285D01*
X13934127Y-10950278D01*
X13844590Y-10846946D01*
X13844586Y-10846942D01*
X13753736Y-10788558D01*
X13729561Y-10773022D01*
X13729560Y-10773021D01*
X13729559Y-10773021D01*
X13598368Y-10734500D01*
X13598367Y-10734500D01*
X13461633Y-10734500D01*
X13461632Y-10734500D01*
X13330440Y-10773021D01*
X13215413Y-10846942D01*
X13215409Y-10846946D01*
X13125872Y-10950278D01*
X13125867Y-10950285D01*
X13069070Y-11074654D01*
X13069068Y-11074662D01*
X13049610Y-11210000D01*
X12400500Y-11210000D01*
X12400500Y-9074500D01*
X12420185Y-9007461D01*
X12472989Y-8961706D01*
X12524500Y-8950500D01*
X14788844Y-8950500D01*
X14788845Y-8950499D01*
X14943497Y-8919737D01*
X15089179Y-8859394D01*
X15220289Y-8771789D01*
X15331789Y-8660289D01*
X15419394Y-8529179D01*
X15479737Y-8383497D01*
X15510500Y-8228842D01*
X15510500Y-8071158D01*
X15510500Y-8071155D01*
X15510499Y-8071153D01*
X15502864Y-8032772D01*
X15479737Y-7916503D01*
X15448588Y-7841301D01*
X15419397Y-7770827D01*
X15419390Y-7770814D01*
X15331789Y-7639711D01*
X15331786Y-7639707D01*
X15220292Y-7528213D01*
X15220288Y-7528210D01*
X15089185Y-7440609D01*
X15089172Y-7440602D01*
X14943501Y-7380264D01*
X14943489Y-7380261D01*
X14788845Y-7349500D01*
X14788842Y-7349500D01*
X12440608Y-7349500D01*
X12373569Y-7329815D01*
X12327814Y-7277011D01*
X12318135Y-7244898D01*
X12291367Y-7075897D01*
X12202776Y-6706897D01*
X12109406Y-6419541D01*
X12107412Y-6349701D01*
X12143492Y-6289868D01*
X12206193Y-6259040D01*
X12275607Y-6267004D01*
X12315019Y-6293543D01*
X12861986Y-6840510D01*
X12987515Y-6912984D01*
X13127526Y-6950500D01*
X13127529Y-6950500D01*
X13272472Y-6950500D01*
X13272475Y-6950500D01*
X13412485Y-6912984D01*
X13538015Y-6840510D01*
X13640510Y-6738015D01*
X13712984Y-6612485D01*
X13738372Y-6517734D01*
X13774736Y-6458077D01*
X13837583Y-6427548D01*
X13906959Y-6435843D01*
X13927029Y-6446724D01*
X14020821Y-6509394D01*
X14020823Y-6509395D01*
X14020827Y-6509397D01*
X14166498Y-6569735D01*
X14166503Y-6569737D01*
X14166507Y-6569737D01*
X14166508Y-6569738D01*
X14321154Y-6600500D01*
X14321157Y-6600500D01*
X14321158Y-6600500D01*
X16247499Y-6600500D01*
X16314538Y-6620185D01*
X16360293Y-6672989D01*
X16370237Y-6742147D01*
X16366159Y-6760496D01*
X16356311Y-6792958D01*
X16356307Y-6792975D01*
X16291877Y-7116862D01*
X16291876Y-7116868D01*
X16259501Y-7445530D01*
X16259500Y-7531815D01*
X16259500Y-7610647D01*
X16259499Y-7702377D01*
X16259500Y-7702394D01*
X16259500Y-9197293D01*
X16259382Y-9202702D01*
X16244408Y-9545649D01*
X16243465Y-9556425D01*
X16199014Y-9894066D01*
X16197136Y-9904720D01*
X16123422Y-10237218D01*
X16120622Y-10247667D01*
X16018212Y-10572468D01*
X16014512Y-10582633D01*
X15884183Y-10897272D01*
X15879611Y-10907076D01*
X15784621Y-11089549D01*
X15736205Y-11139924D01*
X15668240Y-11156127D01*
X15602305Y-11133013D01*
X15580919Y-11113495D01*
X15560170Y-11089549D01*
X15514589Y-11036945D01*
X15514586Y-11036943D01*
X15514586Y-11036942D01*
X15399559Y-10963021D01*
X15268368Y-10924500D01*
X15268367Y-10924500D01*
X15131633Y-10924500D01*
X15131632Y-10924500D01*
X15000440Y-10963021D01*
X14885413Y-11036942D01*
X14885409Y-11036946D01*
X14795872Y-11140278D01*
X14795867Y-11140285D01*
X14739070Y-11264654D01*
X14739068Y-11264662D01*
X14719610Y-11400000D01*
X14739068Y-11535337D01*
X14739070Y-11535345D01*
X14795867Y-11659714D01*
X14795872Y-11659721D01*
X14885409Y-11763053D01*
X14885413Y-11763057D01*
X15000441Y-11836979D01*
X15024478Y-11844037D01*
X15083256Y-11881811D01*
X15112282Y-11945366D01*
X15102339Y-12014525D01*
X15077225Y-12050695D01*
X14838211Y-12289709D01*
X14750607Y-12420819D01*
X14750601Y-12420830D01*
X14690263Y-12566501D01*
X14690260Y-12566513D01*
X14659500Y-12721155D01*
X14659500Y-12735494D01*
X14639815Y-12802533D01*
X14614165Y-12831347D01*
X14258364Y-13123344D01*
X14251926Y-13128284D01*
X13817446Y-13439628D01*
X13810699Y-13444136D01*
X13356789Y-13726395D01*
X13349762Y-13730452D01*
X12878367Y-13982419D01*
X12871089Y-13986008D01*
X12384210Y-14206609D01*
X12376714Y-14209714D01*
X11876472Y-14397991D01*
X11868788Y-14400600D01*
X11357278Y-14555765D01*
X11349440Y-14557865D01*
X10828891Y-14679240D01*
X10820933Y-14680823D01*
X10293554Y-14767893D01*
X10285509Y-14768952D01*
X9753575Y-14821341D01*
X9745478Y-14821872D01*
X9346572Y-14834931D01*
X9209013Y-14839434D01*
X9204971Y-14839500D01*
X6356093Y-14839500D01*
X6343939Y-14838903D01*
X6334882Y-14838011D01*
X6219927Y-14826688D01*
X6196087Y-14821946D01*
X6183200Y-14818036D01*
X6082700Y-14787550D01*
X6060248Y-14778249D01*
X5955749Y-14722391D01*
X5935537Y-14708885D01*
X5857135Y-14644539D01*
X5853608Y-14641532D01*
X5825484Y-14616634D01*
X5820012Y-14611486D01*
X5787239Y-14578712D01*
X5787238Y-14578711D01*
X5782378Y-14575773D01*
X5764342Y-14562506D01*
X5760090Y-14558742D01*
X5754413Y-14555765D01*
X5719048Y-14537220D01*
X5712490Y-14533523D01*
X5698960Y-14525343D01*
X5675434Y-14506910D01*
X5307309Y-14138784D01*
X5307289Y-14138748D01*
X5182474Y-14013936D01*
X5182470Y-14013932D01*
X5112184Y-13960000D01*
X6359610Y-13960000D01*
X6379068Y-14095337D01*
X6379070Y-14095345D01*
X6435867Y-14219714D01*
X6435872Y-14219721D01*
X6525409Y-14323053D01*
X6525413Y-14323057D01*
X6547270Y-14337103D01*
X6640439Y-14396978D01*
X6706036Y-14416239D01*
X6771632Y-14435500D01*
X6771633Y-14435500D01*
X6908367Y-14435500D01*
X7039561Y-14396978D01*
X7154589Y-14323055D01*
X7244130Y-14219718D01*
X7297207Y-14103494D01*
X7342960Y-14050694D01*
X7410000Y-14031009D01*
X7477039Y-14050693D01*
X7522792Y-14103495D01*
X7575870Y-14219718D01*
X7575871Y-14219719D01*
X7575872Y-14219721D01*
X7665409Y-14323053D01*
X7665413Y-14323057D01*
X7687270Y-14337103D01*
X7780439Y-14396978D01*
X7846036Y-14416239D01*
X7911632Y-14435500D01*
X7911633Y-14435500D01*
X8048367Y-14435500D01*
X8179561Y-14396978D01*
X8294589Y-14323055D01*
X8384130Y-14219718D01*
X8392007Y-14202471D01*
X8396383Y-14192887D01*
X8440931Y-14095342D01*
X8460390Y-13960000D01*
X8440931Y-13824658D01*
X8403058Y-13741728D01*
X8384132Y-13700285D01*
X8384127Y-13700278D01*
X8294590Y-13596946D01*
X8294586Y-13596942D01*
X8202665Y-13537870D01*
X8179561Y-13523022D01*
X8179560Y-13523021D01*
X8179559Y-13523021D01*
X8048368Y-13484500D01*
X8048367Y-13484500D01*
X7911633Y-13484500D01*
X7911632Y-13484500D01*
X7780440Y-13523021D01*
X7665413Y-13596942D01*
X7665409Y-13596946D01*
X7575872Y-13700278D01*
X7575867Y-13700285D01*
X7522794Y-13816501D01*
X7477039Y-13869305D01*
X7410000Y-13888990D01*
X7342961Y-13869305D01*
X7297206Y-13816501D01*
X7244132Y-13700285D01*
X7244127Y-13700278D01*
X7154590Y-13596946D01*
X7154586Y-13596942D01*
X7062665Y-13537870D01*
X7039561Y-13523022D01*
X7039560Y-13523021D01*
X7039559Y-13523021D01*
X6908368Y-13484500D01*
X6908367Y-13484500D01*
X6771633Y-13484500D01*
X6771632Y-13484500D01*
X6640440Y-13523021D01*
X6525413Y-13596942D01*
X6525409Y-13596946D01*
X6435872Y-13700278D01*
X6435867Y-13700285D01*
X6379070Y-13824654D01*
X6379068Y-13824662D01*
X6359610Y-13960000D01*
X5112184Y-13960000D01*
X5085325Y-13939390D01*
X4987698Y-13864478D01*
X4817818Y-13766400D01*
X4775083Y-13741727D01*
X4775079Y-13741725D01*
X4775073Y-13741722D01*
X4548265Y-13647777D01*
X4548261Y-13647776D01*
X4311123Y-13584239D01*
X4311120Y-13584238D01*
X4067729Y-13552199D01*
X4067724Y-13552198D01*
X4067719Y-13552198D01*
X4067711Y-13552198D01*
X3944966Y-13552200D01*
X1115464Y-13552200D01*
X1048425Y-13532515D01*
X1002670Y-13479711D01*
X992726Y-13410553D01*
X1015146Y-13355315D01*
X1106191Y-13230000D01*
X5299610Y-13230000D01*
X5319068Y-13365337D01*
X5319070Y-13365345D01*
X5375867Y-13489714D01*
X5375872Y-13489721D01*
X5465409Y-13593053D01*
X5465413Y-13593057D01*
X5525521Y-13631685D01*
X5580439Y-13666978D01*
X5600189Y-13672777D01*
X5711632Y-13705500D01*
X5711633Y-13705500D01*
X5848367Y-13705500D01*
X5979561Y-13666978D01*
X6094589Y-13593055D01*
X6184130Y-13489718D01*
X6240931Y-13365342D01*
X6260390Y-13230000D01*
X6240931Y-13094658D01*
X6191895Y-12987284D01*
X6184132Y-12970285D01*
X6184127Y-12970278D01*
X6094590Y-12866946D01*
X6094586Y-12866942D01*
X6003736Y-12808558D01*
X5979561Y-12793022D01*
X5979560Y-12793021D01*
X5979559Y-12793021D01*
X5848368Y-12754500D01*
X5848367Y-12754500D01*
X5711633Y-12754500D01*
X5711632Y-12754500D01*
X5580440Y-12793021D01*
X5465413Y-12866942D01*
X5465409Y-12866946D01*
X5375872Y-12970278D01*
X5375867Y-12970285D01*
X5319070Y-13094654D01*
X5319068Y-13094662D01*
X5299610Y-13230000D01*
X1106191Y-13230000D01*
X1112287Y-13221610D01*
X1205220Y-13039219D01*
X1268477Y-12844534D01*
X1300500Y-12642352D01*
X1300500Y-12437648D01*
X1277069Y-12289712D01*
X1268477Y-12235465D01*
X1211373Y-12059718D01*
X1208215Y-12050000D01*
X8509610Y-12050000D01*
X8529068Y-12185337D01*
X8529070Y-12185345D01*
X8585867Y-12309714D01*
X8585872Y-12309721D01*
X8675409Y-12413053D01*
X8675413Y-12413057D01*
X8713679Y-12437648D01*
X8790439Y-12486978D01*
X8856036Y-12506239D01*
X8921632Y-12525500D01*
X8921633Y-12525500D01*
X9058367Y-12525500D01*
X9189561Y-12486978D01*
X9304589Y-12413055D01*
X9394130Y-12309718D01*
X9403267Y-12289712D01*
X9428040Y-12235465D01*
X9450931Y-12185342D01*
X9470390Y-12050000D01*
X9450931Y-11914658D01*
X9425232Y-11858386D01*
X9394132Y-11790285D01*
X9394127Y-11790278D01*
X9304590Y-11686946D01*
X9304586Y-11686942D01*
X9189559Y-11613021D01*
X9058368Y-11574500D01*
X9058367Y-11574500D01*
X8921633Y-11574500D01*
X8921632Y-11574500D01*
X8790440Y-11613021D01*
X8675413Y-11686942D01*
X8675409Y-11686946D01*
X8585872Y-11790278D01*
X8585867Y-11790285D01*
X8529070Y-11914654D01*
X8529068Y-11914662D01*
X8509610Y-12050000D01*
X1208215Y-12050000D01*
X1205220Y-12040781D01*
X1205218Y-12040778D01*
X1205218Y-12040776D01*
X1171503Y-11974607D01*
X1112287Y-11858390D01*
X1069865Y-11800000D01*
X991971Y-11692786D01*
X847213Y-11548028D01*
X681613Y-11427715D01*
X681612Y-11427714D01*
X681610Y-11427713D01*
X609814Y-11391131D01*
X499223Y-11334781D01*
X304534Y-11271522D01*
X129995Y-11243878D01*
X102352Y-11239500D01*
X-102352Y-11239500D01*
X-126671Y-11243351D01*
X-304535Y-11271522D01*
X-499224Y-11334781D01*
X-681614Y-11427715D01*
X-847214Y-11548028D01*
X-991972Y-11692786D01*
X-1112285Y-11858386D01*
X-1205219Y-12040776D01*
X-1268478Y-12235465D01*
X-1300500Y-12437648D01*
X-1300500Y-12642351D01*
X-1268478Y-12844534D01*
X-1205219Y-13039223D01*
X-1148185Y-13151156D01*
X-1119830Y-13206807D01*
X-1112285Y-13221613D01*
X-1015146Y-13355315D01*
X-991666Y-13421121D01*
X-1007492Y-13489175D01*
X-1057598Y-13537870D01*
X-1115464Y-13552200D01*
X-5825175Y-13552200D01*
X-5930183Y-13580337D01*
X-5965186Y-13589716D01*
X-6090714Y-13662189D01*
X-6090717Y-13662191D01*
X-6220509Y-13791983D01*
X-6220511Y-13791986D01*
X-6292984Y-13917514D01*
X-6298847Y-13939397D01*
X-6330500Y-14057526D01*
X-6330500Y-14202474D01*
X-6292984Y-14342485D01*
X-6220510Y-14468015D01*
X-6118015Y-14570510D01*
X-5992485Y-14642984D01*
X-5852474Y-14680500D01*
X-5852471Y-14680500D01*
X-5707528Y-14680500D01*
X-5707526Y-14680500D01*
X-5635384Y-14661169D01*
X-5621408Y-14657425D01*
X-5589315Y-14653200D01*
X3677525Y-14653200D01*
X3878139Y-14653200D01*
X3878143Y-14653201D01*
X3938896Y-14653200D01*
X3951047Y-14653796D01*
X3987890Y-14657425D01*
X4083404Y-14666831D01*
X4107245Y-14671573D01*
X4228662Y-14708402D01*
X4251119Y-14717704D01*
X4285443Y-14736050D01*
X4363013Y-14777512D01*
X4383224Y-14791016D01*
X4485954Y-14875323D01*
X4494971Y-14883496D01*
X4951346Y-15339871D01*
X4951370Y-15339915D01*
X5037003Y-15425544D01*
X5037180Y-15425704D01*
X5038934Y-15427458D01*
X5057858Y-15438385D01*
X5064735Y-15442660D01*
X5138780Y-15492128D01*
X5138782Y-15492129D01*
X5138787Y-15492132D01*
X5144163Y-15495005D01*
X5143886Y-15495522D01*
X5164099Y-15507189D01*
X5331104Y-15635341D01*
X5331111Y-15635345D01*
X5331117Y-15635349D01*
X5538844Y-15755284D01*
X5538850Y-15755287D01*
X5538857Y-15755291D01*
X5760490Y-15847096D01*
X5992210Y-15909187D01*
X6201797Y-15936780D01*
X6229999Y-15940493D01*
X6230053Y-15940500D01*
X6230060Y-15940500D01*
X9287883Y-15940500D01*
X9287973Y-15940494D01*
X9491009Y-15940494D01*
X9491022Y-15940494D01*
X10057658Y-15906220D01*
X10621191Y-15837795D01*
X11179565Y-15735470D01*
X11730741Y-15599618D01*
X12272710Y-15430734D01*
X12803492Y-15229435D01*
X13321152Y-14996456D01*
X13823801Y-14732646D01*
X14309604Y-14438968D01*
X14776789Y-14116494D01*
X15079450Y-13879373D01*
X15223644Y-13766406D01*
X15223645Y-13766405D01*
X15223651Y-13766400D01*
X15375713Y-13631684D01*
X15438945Y-13601963D01*
X15457939Y-13600500D01*
X15538847Y-13600500D01*
X15642890Y-13579803D01*
X15693499Y-13569737D01*
X15839181Y-13509393D01*
X15970291Y-13421787D01*
X16093235Y-13298842D01*
X16185270Y-13206807D01*
X16185271Y-13206805D01*
X16211823Y-13180254D01*
X16211822Y-13180253D01*
X16248131Y-13143946D01*
X16248139Y-13143935D01*
X16267576Y-13124500D01*
X16267577Y-13124497D01*
X16272427Y-13119648D01*
X16272501Y-13119564D01*
X16368203Y-13023865D01*
X16655469Y-12687522D01*
X16915461Y-12329676D01*
X17146575Y-11952535D01*
X17347386Y-11558423D01*
X17516656Y-11149771D01*
X17653342Y-10729098D01*
X17756601Y-10298997D01*
X17825796Y-9862120D01*
X17860500Y-9421161D01*
X17860500Y-9200000D01*
X17860500Y-9115864D01*
X17860500Y-7614727D01*
X17860766Y-7606615D01*
X17869718Y-7470065D01*
X17875030Y-7389030D01*
X17877147Y-7372955D01*
X17878739Y-7364952D01*
X17918898Y-7163071D01*
X17923089Y-7147427D01*
X17991883Y-6944774D01*
X17998084Y-6929804D01*
X18092740Y-6737864D01*
X18100831Y-6723851D01*
X18219734Y-6545899D01*
X18229585Y-6533061D01*
X18373576Y-6368872D01*
X18379081Y-6362996D01*
X18435532Y-6306546D01*
X20191789Y-4550289D01*
X20279394Y-4419179D01*
X20291354Y-4390306D01*
X20305139Y-4357025D01*
X20339737Y-4273497D01*
X20370500Y-4118842D01*
X20370500Y-3961158D01*
X20370500Y-2721156D01*
X20370500Y-2684315D01*
X20372451Y-2666430D01*
X20372165Y-2666398D01*
X20372945Y-2659495D01*
X20373484Y-2649345D01*
X20373584Y-2648329D01*
X20373586Y-2648320D01*
X20373586Y-2573059D01*
X20373590Y-2572077D01*
X20374226Y-2491681D01*
X20374225Y-2491680D01*
X20374226Y-2491675D01*
X20363010Y-2436776D01*
X20360500Y-2411955D01*
X20360500Y1718845D01*
X20360499Y1718847D01*
X20333347Y1855346D01*
X20329737Y1873497D01*
X20316548Y1905338D01*
X20269397Y2019173D01*
X20269390Y2019186D01*
X20181790Y2150288D01*
X20133751Y2198327D01*
X20070289Y2261789D01*
X18636819Y3695259D01*
X18603334Y3756582D01*
X18600500Y3782940D01*
X18600500Y6078841D01*
X18598526Y6088764D01*
X18594241Y6110307D01*
X18592980Y6116645D01*
X18569739Y6233490D01*
X18569738Y6233497D01*
X18509394Y6379179D01*
X18509392Y6379182D01*
X18509390Y6379186D01*
X18421789Y6510289D01*
X18421786Y6510293D01*
X15910292Y9021787D01*
X15910288Y9021790D01*
X15779185Y9109391D01*
X15779172Y9109398D01*
X15633501Y9169736D01*
X15633489Y9169739D01*
X15478845Y9200500D01*
X15478842Y9200500D01*
X10524500Y9200500D01*
X10457461Y9220185D01*
X10411706Y9272989D01*
X10400500Y9324500D01*
X10400500Y10008845D01*
X10400499Y10008847D01*
X10394358Y10039720D01*
X10369737Y10163497D01*
X10347584Y10216979D01*
X10309397Y10309173D01*
X10309390Y10309186D01*
X10221789Y10440289D01*
X10221786Y10440293D01*
X10110292Y10551787D01*
X10110288Y10551790D01*
X9979185Y10639391D01*
X9979172Y10639398D01*
X9833501Y10699736D01*
X9833489Y10699739D01*
X9678845Y10730500D01*
X9678842Y10730500D01*
X9521158Y10730500D01*
X9521155Y10730500D01*
X9366510Y10699739D01*
X9366498Y10699736D01*
X9220827Y10639398D01*
X9220814Y10639391D01*
X9089711Y10551790D01*
X9089707Y10551787D01*
X8978213Y10440293D01*
X8978210Y10440289D01*
X8890609Y10309186D01*
X8890602Y10309173D01*
X8830264Y10163502D01*
X8830261Y10163490D01*
X8799500Y10008847D01*
X8799500Y9038280D01*
X8779815Y8971241D01*
X8750989Y8939906D01*
X8608434Y8830515D01*
X8608430Y8830512D01*
X8566251Y8788329D01*
X8566248Y8788326D01*
X8256025Y8478104D01*
X8194702Y8444619D01*
X8125010Y8449603D01*
X8069077Y8491475D01*
X8044660Y8556939D01*
X8057858Y8622078D01*
X8136282Y8775992D01*
X8152601Y8808020D01*
X8152601Y8808022D01*
X8222541Y9023275D01*
X8222541Y9023276D01*
X8222542Y9023279D01*
X8257950Y9246831D01*
X8257950Y9473169D01*
X8222542Y9696721D01*
X8222541Y9696725D01*
X8222541Y9696726D01*
X8152601Y9911979D01*
X8152599Y9911982D01*
X8150890Y9915338D01*
X8049845Y10113650D01*
X7916807Y10296761D01*
X7756761Y10456807D01*
X7573650Y10589845D01*
X7371981Y10692600D01*
X7371978Y10692602D01*
X7156723Y10762542D01*
X7007686Y10786148D01*
X6933169Y10797950D01*
X6706831Y10797950D01*
X6632313Y10786148D01*
X6483277Y10762542D01*
X6483274Y10762542D01*
X6268021Y10692602D01*
X6268018Y10692600D01*
X6066349Y10589845D01*
X5974445Y10523072D01*
X5883239Y10456807D01*
X5883237Y10456805D01*
X5883236Y10456805D01*
X5723195Y10296764D01*
X5723195Y10296763D01*
X5723193Y10296761D01*
X5704098Y10270479D01*
X5590155Y10113651D01*
X5487400Y9911982D01*
X5487398Y9911979D01*
X5417458Y9696726D01*
X5417458Y9696723D01*
X5409212Y9644658D01*
X5382050Y9473169D01*
X5382050Y9246831D01*
X5394261Y9169737D01*
X5417458Y9023278D01*
X5417458Y9023275D01*
X5487398Y8808022D01*
X5487399Y8808020D01*
X5528466Y8727422D01*
X5590155Y8606350D01*
X5723193Y8423239D01*
X5883239Y8263193D01*
X6066350Y8130155D01*
X6268019Y8027400D01*
X6268021Y8027399D01*
X6411258Y7980859D01*
X6483279Y7957458D01*
X6706831Y7922050D01*
X6706832Y7922050D01*
X6933168Y7922050D01*
X6933169Y7922050D01*
X7156721Y7957458D01*
X7156724Y7957459D01*
X7156725Y7957459D01*
X7371978Y8027399D01*
X7371981Y8027400D01*
X7386226Y8034658D01*
X7557922Y8122142D01*
X7626589Y8135037D01*
X7691330Y8108761D01*
X7731587Y8051654D01*
X7734579Y7981849D01*
X7701896Y7923975D01*
X7273454Y7495532D01*
X7273453Y7495531D01*
X7216428Y7438507D01*
X7211375Y7433729D01*
X7043418Y7283634D01*
X7032552Y7274969D01*
X6959725Y7223295D01*
X6851710Y7146654D01*
X6839937Y7139257D01*
X6645852Y7031989D01*
X6633323Y7025955D01*
X6428460Y6941097D01*
X6415335Y6936504D01*
X6202249Y6875114D01*
X6188692Y6872020D01*
X5970082Y6834876D01*
X5956265Y6833319D01*
X5731511Y6820695D01*
X5724557Y6820500D01*
X5214500Y6820500D01*
X5147461Y6840185D01*
X5101706Y6892989D01*
X5090500Y6944500D01*
X5090500Y9652473D01*
X5090500Y9652475D01*
X5052984Y9792485D01*
X5019612Y9850286D01*
X4980511Y9918012D01*
X4980506Y9918018D01*
X4878017Y10020507D01*
X4878011Y10020512D01*
X4752488Y10092983D01*
X4752489Y10092983D01*
X4741006Y10096060D01*
X4612475Y10130500D01*
X4467525Y10130500D01*
X4338993Y10096060D01*
X4327511Y10092983D01*
X4201988Y10020512D01*
X4109222Y9927746D01*
X4047898Y9894262D01*
X3978207Y9899246D01*
X3922274Y9941118D01*
X3908752Y9963907D01*
X3874130Y10039718D01*
X3827975Y10092984D01*
X3784590Y10143054D01*
X3784586Y10143058D01*
X3669559Y10216979D01*
X3538368Y10255500D01*
X3538367Y10255500D01*
X3401633Y10255500D01*
X3401632Y10255500D01*
X3270440Y10216979D01*
X3155413Y10143058D01*
X3155409Y10143054D01*
X3065872Y10039722D01*
X3065867Y10039715D01*
X3009070Y9915346D01*
X3009068Y9915338D01*
X2989610Y9780000D01*
X3009068Y9644663D01*
X3009070Y9644655D01*
X3065867Y9520286D01*
X3065872Y9520279D01*
X3155409Y9416947D01*
X3155413Y9416943D01*
X3215979Y9378021D01*
X3270439Y9343022D01*
X3305906Y9332608D01*
X3401632Y9304500D01*
X3401633Y9304500D01*
X3538367Y9304500D01*
X3669561Y9343022D01*
X3784586Y9416943D01*
X3792051Y9421740D01*
X3792800Y9420575D01*
X3847844Y9445717D01*
X3917003Y9435778D01*
X3969810Y9390027D01*
X3989500Y9322989D01*
X3989500Y6944500D01*
X3969815Y6877461D01*
X3917011Y6831706D01*
X3865500Y6820500D01*
X3002425Y6820500D01*
X2997557Y6820596D01*
X2979838Y6821293D01*
X2550576Y6838159D01*
X2540871Y6838922D01*
X2099025Y6891217D01*
X2089408Y6892741D01*
X1653060Y6979537D01*
X1643592Y6981810D01*
X1215395Y7102574D01*
X1206135Y7105582D01*
X788716Y7259576D01*
X779721Y7263302D01*
X384852Y7445338D01*
X375681Y7449566D01*
X367008Y7453986D01*
X-21179Y7671382D01*
X-29481Y7676469D01*
X-399404Y7923644D01*
X-407281Y7929367D01*
X-531634Y8027399D01*
X-756680Y8204811D01*
X-764080Y8211131D01*
X-820404Y8263196D01*
X-1092577Y8514791D01*
X-1096087Y8518166D01*
X-1203136Y8625215D01*
X-1203359Y8625622D01*
X-1204309Y8626388D01*
X-1721096Y9143174D01*
X-1726627Y9149079D01*
X-1740063Y9164400D01*
X-1193979Y9164400D01*
X-1174521Y9029063D01*
X-1174519Y9029055D01*
X-1117722Y8904686D01*
X-1117719Y8904682D01*
X-1028178Y8801345D01*
X-913150Y8727422D01*
X-881024Y8717989D01*
X-781957Y8688900D01*
X-781956Y8688900D01*
X-645222Y8688900D01*
X-514028Y8727422D01*
X-399000Y8801345D01*
X-398993Y8801354D01*
X-397499Y8802647D01*
X-395682Y8803478D01*
X-391538Y8806140D01*
X-391156Y8805545D01*
X-333946Y8831678D01*
X-264786Y8821741D01*
X-211978Y8775992D01*
X-205802Y8765237D01*
X-186534Y8727422D01*
X-124845Y8606350D01*
X8193Y8423239D01*
X168239Y8263193D01*
X351350Y8130155D01*
X553019Y8027400D01*
X553021Y8027399D01*
X696258Y7980859D01*
X768279Y7957458D01*
X991831Y7922050D01*
X991832Y7922050D01*
X1218168Y7922050D01*
X1218169Y7922050D01*
X1441721Y7957458D01*
X1441724Y7957459D01*
X1441725Y7957459D01*
X1656978Y8027399D01*
X1656978Y8027400D01*
X1656981Y8027400D01*
X1858650Y8130155D01*
X1870372Y8138672D01*
X1936175Y8162154D01*
X2004230Y8146333D01*
X2052928Y8096230D01*
X2065998Y8056007D01*
X2069066Y8034669D01*
X2069070Y8034655D01*
X2125867Y7910286D01*
X2125872Y7910279D01*
X2215409Y7806947D01*
X2215413Y7806943D01*
X2275979Y7768021D01*
X2330439Y7733022D01*
X2396036Y7713761D01*
X2461632Y7694500D01*
X2461633Y7694500D01*
X2598367Y7694500D01*
X2729561Y7733022D01*
X2844589Y7806945D01*
X2934130Y7910282D01*
X2940384Y7923975D01*
X2955675Y7957459D01*
X2990931Y8034658D01*
X3010390Y8170000D01*
X2990931Y8305342D01*
X2950641Y8393565D01*
X2934132Y8429715D01*
X2934127Y8429722D01*
X2844590Y8533054D01*
X2844586Y8533058D01*
X2729559Y8606979D01*
X2598368Y8645500D01*
X2598367Y8645500D01*
X2555466Y8645500D01*
X2488427Y8665185D01*
X2442672Y8717989D01*
X2432728Y8787147D01*
X2437535Y8807818D01*
X2507541Y9023275D01*
X2507541Y9023276D01*
X2507542Y9023279D01*
X2542950Y9246831D01*
X2542950Y9473169D01*
X2507542Y9696721D01*
X2507541Y9696725D01*
X2507541Y9696726D01*
X2437601Y9911979D01*
X2437599Y9911982D01*
X2435890Y9915338D01*
X2334845Y10113650D01*
X2201807Y10296761D01*
X2041761Y10456807D01*
X1858650Y10589845D01*
X1656981Y10692600D01*
X1656978Y10692602D01*
X1441723Y10762542D01*
X1292686Y10786148D01*
X1218169Y10797950D01*
X991831Y10797950D01*
X917313Y10786148D01*
X768277Y10762542D01*
X768274Y10762542D01*
X553021Y10692602D01*
X553018Y10692600D01*
X351349Y10589845D01*
X259445Y10523072D01*
X168239Y10456807D01*
X168237Y10456805D01*
X168236Y10456805D01*
X8195Y10296764D01*
X8195Y10296763D01*
X8193Y10296761D01*
X-10902Y10270479D01*
X-124845Y10113651D01*
X-227600Y9911982D01*
X-227602Y9911979D01*
X-297542Y9696726D01*
X-297542Y9696724D01*
X-301533Y9671525D01*
X-331463Y9608390D01*
X-390775Y9571460D01*
X-460638Y9572458D01*
X-491043Y9586607D01*
X-514031Y9601380D01*
X-645221Y9639900D01*
X-645222Y9639900D01*
X-781956Y9639900D01*
X-781957Y9639900D01*
X-913149Y9601379D01*
X-1028176Y9527458D01*
X-1028180Y9527454D01*
X-1117717Y9424122D01*
X-1117722Y9424115D01*
X-1174519Y9299746D01*
X-1174521Y9299738D01*
X-1193979Y9164400D01*
X-1740063Y9164400D01*
X-1876298Y9319748D01*
X-1886166Y9332608D01*
X-1959600Y9442510D01*
X-1980478Y9509188D01*
X-1961993Y9576568D01*
X-1910014Y9623258D01*
X-1874142Y9634139D01*
X-1871634Y9634500D01*
X-1871633Y9634500D01*
X-1740439Y9673022D01*
X-1625411Y9746945D01*
X-1535870Y9850282D01*
X-1479069Y9974658D01*
X-1459610Y10110000D01*
X-1470741Y10187418D01*
X-1460797Y10256575D01*
X-1415042Y10309379D01*
X-1348003Y10329064D01*
X-1280964Y10309379D01*
X-1279112Y10308166D01*
X-1275421Y10305700D01*
X-1275420Y10305699D01*
X-1153269Y10224080D01*
X-1017542Y10167860D01*
X-892851Y10143058D01*
X-873460Y10139201D01*
X-873456Y10139200D01*
X-873455Y10139200D01*
X-726544Y10139200D01*
X-726543Y10139201D01*
X-582458Y10167860D01*
X-446731Y10224080D01*
X-324580Y10305699D01*
X-220699Y10409580D01*
X-139080Y10531731D01*
X-82860Y10667458D01*
X-54200Y10811545D01*
X-54200Y10958455D01*
X-82860Y11102542D01*
X-139080Y11238269D01*
X-139083Y11238274D01*
X-139084Y11238276D01*
X-220699Y11360420D01*
X-220702Y11360424D01*
X-324577Y11464299D01*
X-324581Y11464302D01*
X-446725Y11545917D01*
X-446734Y11545922D01*
X-557389Y11591756D01*
X-582458Y11602140D01*
X-582462Y11602141D01*
X-582466Y11602142D01*
X-726541Y11630800D01*
X-726545Y11630800D01*
X-873455Y11630800D01*
X-873460Y11630800D01*
X-1017535Y11602142D01*
X-1017549Y11602138D01*
X-1132681Y11554449D01*
X-1202150Y11546980D01*
X-1264629Y11578256D01*
X-1300281Y11638345D01*
X-1297787Y11708170D01*
X-1292934Y11720507D01*
X-1259069Y11794658D01*
X-1239610Y11930000D01*
X-1245859Y11973460D01*
X6074200Y11973460D01*
X6074200Y11826541D01*
X6102858Y11682466D01*
X6102860Y11682458D01*
X6113244Y11657389D01*
X6159078Y11546734D01*
X6159083Y11546725D01*
X6240698Y11424581D01*
X6240701Y11424577D01*
X6344576Y11320702D01*
X6344580Y11320699D01*
X6466724Y11239084D01*
X6466733Y11239079D01*
X6491800Y11228696D01*
X6602458Y11182860D01*
X6746540Y11154201D01*
X6746544Y11154200D01*
X6746545Y11154200D01*
X6893456Y11154200D01*
X6893457Y11154201D01*
X7037542Y11182860D01*
X7173269Y11239080D01*
X7295420Y11320699D01*
X7399301Y11424580D01*
X7480920Y11546731D01*
X7537140Y11682458D01*
X7558124Y11787952D01*
X13719733Y11787952D01*
X13719733Y11787951D01*
X13740289Y11566102D01*
X13801262Y11351809D01*
X13801269Y11351791D01*
X13900571Y11152365D01*
X14034842Y10974563D01*
X14199491Y10824466D01*
X14199493Y10824464D01*
X14388917Y10707178D01*
X14388918Y10707178D01*
X14388921Y10707176D01*
X14596676Y10626691D01*
X14815683Y10585751D01*
X14815685Y10585751D01*
X15038481Y10585751D01*
X15038483Y10585751D01*
X15257490Y10626691D01*
X15465245Y10707176D01*
X15654674Y10824465D01*
X15819325Y10974565D01*
X15953593Y11152363D01*
X16023521Y11292798D01*
X16052896Y11351791D01*
X16052897Y11351796D01*
X16052903Y11351806D01*
X16113876Y11566101D01*
X16134433Y11787951D01*
X16121270Y11930000D01*
X16113876Y12009801D01*
X16052903Y12224096D01*
X16052899Y12224104D01*
X16052896Y12224112D01*
X15953594Y12423538D01*
X15819323Y12601340D01*
X15654674Y12751437D01*
X15654672Y12751439D01*
X15465248Y12868725D01*
X15465242Y12868727D01*
X15257490Y12949211D01*
X15038483Y12990151D01*
X14815683Y12990151D01*
X14596676Y12949211D01*
X14465294Y12898314D01*
X14388923Y12868727D01*
X14388917Y12868725D01*
X14199493Y12751439D01*
X14199491Y12751437D01*
X14034842Y12601340D01*
X13900571Y12423538D01*
X13801269Y12224112D01*
X13801262Y12224094D01*
X13740289Y12009801D01*
X13719733Y11787952D01*
X7558124Y11787952D01*
X7565800Y11826545D01*
X7565800Y11973455D01*
X7537140Y12117542D01*
X7489915Y12231554D01*
X7480921Y12253267D01*
X7480916Y12253276D01*
X7399301Y12375420D01*
X7399298Y12375424D01*
X7295423Y12479299D01*
X7295419Y12479302D01*
X7173275Y12560917D01*
X7173266Y12560922D01*
X7037544Y12617139D01*
X7037545Y12617139D01*
X7037542Y12617140D01*
X7037538Y12617141D01*
X7037534Y12617142D01*
X6893459Y12645800D01*
X6893455Y12645800D01*
X6746545Y12645800D01*
X6746540Y12645800D01*
X6602465Y12617142D01*
X6602455Y12617139D01*
X6466733Y12560922D01*
X6466724Y12560917D01*
X6344580Y12479302D01*
X6344576Y12479299D01*
X6240701Y12375424D01*
X6240698Y12375420D01*
X6159083Y12253276D01*
X6159078Y12253267D01*
X6102861Y12117545D01*
X6102858Y12117535D01*
X6074200Y11973460D01*
X-1245859Y11973460D01*
X-1259069Y12065342D01*
X-1259134Y12065483D01*
X-1259155Y12065631D01*
X-1261567Y12073846D01*
X-1260386Y12074193D01*
X-1269077Y12134640D01*
X-1240052Y12198196D01*
X-1181274Y12235970D01*
X-1111404Y12235970D01*
X-1098890Y12231556D01*
X-1017542Y12197860D01*
X-873460Y12169201D01*
X-873456Y12169200D01*
X-873455Y12169200D01*
X-726544Y12169200D01*
X-726543Y12169201D01*
X-582458Y12197860D01*
X-446731Y12254080D01*
X-324580Y12335699D01*
X-220699Y12439580D01*
X-139080Y12561731D01*
X-82860Y12697458D01*
X-54200Y12841545D01*
X-54200Y12988455D01*
X-82860Y13132542D01*
X-138531Y13266943D01*
X-139079Y13268267D01*
X-139084Y13268276D01*
X-220699Y13390420D01*
X-220702Y13390424D01*
X-324577Y13494299D01*
X-324581Y13494302D01*
X-446725Y13575917D01*
X-446734Y13575922D01*
X-582456Y13632139D01*
X-582455Y13632139D01*
X-582458Y13632140D01*
X-582462Y13632141D01*
X-582466Y13632142D01*
X-726541Y13660800D01*
X-726545Y13660800D01*
X-873455Y13660800D01*
X-873460Y13660800D01*
X-1017535Y13632142D01*
X-1017545Y13632139D01*
X-1153267Y13575922D01*
X-1153276Y13575917D01*
X-1275420Y13494302D01*
X-1275424Y13494299D01*
X-1379299Y13390424D01*
X-1379302Y13390420D01*
X-1460917Y13268276D01*
X-1460922Y13268267D01*
X-1517139Y13132545D01*
X-1517142Y13132535D01*
X-1545800Y12988460D01*
X-1545800Y12841541D01*
X-1517142Y12697466D01*
X-1517139Y12697456D01*
X-1460023Y12559565D01*
X-1452554Y12490095D01*
X-1483829Y12427616D01*
X-1543918Y12391964D01*
X-1609518Y12393135D01*
X-1651630Y12405500D01*
X-1651633Y12405500D01*
X-1788367Y12405500D01*
X-1788368Y12405500D01*
X-1919560Y12366979D01*
X-2034587Y12293058D01*
X-2034590Y12293055D01*
X-2041789Y12284746D01*
X-2100568Y12246973D01*
X-2170438Y12246975D01*
X-2229215Y12284751D01*
X-2258238Y12348307D01*
X-2259500Y12365951D01*
X-2259500Y12764745D01*
X-2259511Y12764973D01*
X-2259511Y12791390D01*
X-2259512Y12791394D01*
X-2284451Y13012747D01*
X-2284454Y13012765D01*
X-2334024Y13229951D01*
X-2407600Y13440225D01*
X-2504256Y13640939D01*
X-2622776Y13829569D01*
X-2644261Y13856511D01*
X-2761670Y14003744D01*
X-2769084Y14011158D01*
X-2780351Y14022426D01*
X-2780375Y14022453D01*
X-2812967Y14055045D01*
X-2847940Y14090018D01*
X-2899923Y14142003D01*
X-2899924Y14142004D01*
X-2904246Y14146326D01*
X-2904259Y14146338D01*
X-3002586Y14244664D01*
X-3010840Y14254521D01*
X-3010990Y14254392D01*
X-3014952Y14259029D01*
X-3065195Y14307309D01*
X-3066959Y14309038D01*
X-3116155Y14358234D01*
X-3120871Y14362105D01*
X-3120747Y14362258D01*
X-3130748Y14370300D01*
X-3151095Y14389852D01*
X-3152859Y14391582D01*
X-3226059Y14464782D01*
X-3226060Y14464783D01*
X-3226064Y14464787D01*
X-3314645Y14532758D01*
X-3341245Y14553169D01*
X-332950Y14553169D01*
X-332950Y14326831D01*
X-321164Y14252420D01*
X-297542Y14103278D01*
X-297542Y14103275D01*
X-227602Y13888022D01*
X-227600Y13888019D01*
X-124845Y13686350D01*
X8193Y13503239D01*
X168239Y13343193D01*
X351350Y13210155D01*
X553019Y13107400D01*
X553021Y13107399D01*
X753801Y13042163D01*
X768279Y13037458D01*
X991831Y13002050D01*
X991832Y13002050D01*
X1218168Y13002050D01*
X1218169Y13002050D01*
X1441721Y13037458D01*
X1441724Y13037459D01*
X1441725Y13037459D01*
X1656978Y13107399D01*
X1656978Y13107400D01*
X1656981Y13107400D01*
X1858650Y13210155D01*
X2041761Y13343193D01*
X2105280Y13406713D01*
X2166599Y13440195D01*
X2236291Y13435211D01*
X2292225Y13393340D01*
X2305754Y13370536D01*
X2305869Y13370284D01*
X2305872Y13370279D01*
X2395409Y13266947D01*
X2395413Y13266943D01*
X2452974Y13229952D01*
X2510439Y13193022D01*
X2576036Y13173761D01*
X2641632Y13154500D01*
X2641633Y13154500D01*
X2778367Y13154500D01*
X2909561Y13193022D01*
X3000743Y13251621D01*
X3067781Y13271304D01*
X3134817Y13251621D01*
X3210439Y13203022D01*
X3210441Y13203022D01*
X3210442Y13203021D01*
X3341632Y13164500D01*
X3341633Y13164500D01*
X3478367Y13164500D01*
X3609561Y13203022D01*
X3724589Y13276945D01*
X3814130Y13380282D01*
X3820094Y13393340D01*
X3839215Y13435211D01*
X3870931Y13504658D01*
X3890390Y13640000D01*
X3870931Y13775342D01*
X3846166Y13829569D01*
X3814132Y13899715D01*
X3814127Y13899722D01*
X3724590Y14003054D01*
X3724586Y14003058D01*
X3633736Y14061442D01*
X3609561Y14076978D01*
X3609560Y14076979D01*
X3609559Y14076979D01*
X3478368Y14115500D01*
X3478367Y14115500D01*
X3341633Y14115500D01*
X3341632Y14115500D01*
X3210443Y14076980D01*
X3210440Y14076979D01*
X3210439Y14076978D01*
X3176310Y14055045D01*
X3119257Y14018380D01*
X3052217Y13998697D01*
X2985181Y14018381D01*
X2909559Y14066979D01*
X2778368Y14105500D01*
X2778367Y14105500D01*
X2653079Y14105500D01*
X2586040Y14125185D01*
X2540285Y14177989D01*
X2530341Y14247147D01*
X2530606Y14248899D01*
X2531477Y14254392D01*
X2542950Y14326831D01*
X2542950Y14553169D01*
X5382050Y14553169D01*
X5382050Y14326831D01*
X5393836Y14252420D01*
X5417458Y14103278D01*
X5417458Y14103275D01*
X5487398Y13888022D01*
X5487400Y13888019D01*
X5590155Y13686350D01*
X5723193Y13503239D01*
X5883239Y13343193D01*
X6066350Y13210155D01*
X6268019Y13107400D01*
X6268021Y13107399D01*
X6468801Y13042163D01*
X6483279Y13037458D01*
X6706831Y13002050D01*
X6706832Y13002050D01*
X6933168Y13002050D01*
X6933169Y13002050D01*
X7156721Y13037458D01*
X7156724Y13037459D01*
X7156725Y13037459D01*
X7371978Y13107399D01*
X7371978Y13107400D01*
X7371981Y13107400D01*
X7573650Y13210155D01*
X7756761Y13343193D01*
X7916807Y13503239D01*
X8049845Y13686350D01*
X8152600Y13888019D01*
X8152601Y13888022D01*
X8222541Y14103275D01*
X8222541Y14103276D01*
X8222542Y14103279D01*
X8257950Y14326831D01*
X8257950Y14553169D01*
X8240422Y14663835D01*
X14422926Y14663835D01*
X14422926Y14663834D01*
X15220049Y14705610D01*
X15199226Y14669542D01*
X15165472Y14543570D01*
X15165472Y14413156D01*
X15199226Y14287184D01*
X15245935Y14206280D01*
X14451462Y14164644D01*
X14451462Y14164643D01*
X14482331Y14049442D01*
X14574714Y13851327D01*
X14574716Y13851323D01*
X14700097Y13672260D01*
X14854668Y13517689D01*
X15033731Y13392308D01*
X15033735Y13392306D01*
X15231852Y13299923D01*
X15231861Y13299919D01*
X15443010Y13243342D01*
X15475299Y13240518D01*
X15475300Y13240519D01*
X15433526Y14037641D01*
X15469593Y14016817D01*
X15595565Y13983063D01*
X15725979Y13983063D01*
X15851951Y14016817D01*
X15932855Y14063528D01*
X15974491Y13269054D01*
X16089682Y13299919D01*
X16089691Y13299923D01*
X16287808Y13392306D01*
X16287812Y13392308D01*
X16466875Y13517689D01*
X16621446Y13672260D01*
X16746827Y13851323D01*
X16746829Y13851327D01*
X16839212Y14049444D01*
X16839216Y14049453D01*
X16895793Y14260601D01*
X16895793Y14260602D01*
X16898617Y14292892D01*
X16898616Y14292894D01*
X16101495Y14251119D01*
X16122318Y14287184D01*
X16156072Y14413156D01*
X16156072Y14543570D01*
X16122318Y14669542D01*
X16075606Y14750449D01*
X16870081Y14792084D01*
X16839215Y14907277D01*
X16839212Y14907283D01*
X16746829Y15105400D01*
X16746827Y15105404D01*
X16621446Y15284467D01*
X16466875Y15439038D01*
X16287812Y15564419D01*
X16287808Y15564421D01*
X16089691Y15656804D01*
X16089685Y15656807D01*
X15878542Y15713383D01*
X15878535Y15713384D01*
X15846241Y15716210D01*
X15888016Y14919087D01*
X15851951Y14939909D01*
X15725979Y14973663D01*
X15595565Y14973663D01*
X15469593Y14939909D01*
X15388686Y14893198D01*
X15347051Y15687673D01*
X15347050Y15687674D01*
X15231857Y15656807D01*
X15231854Y15656806D01*
X15033735Y15564421D01*
X15033731Y15564419D01*
X14854668Y15439038D01*
X14700097Y15284467D01*
X14574716Y15105404D01*
X14574714Y15105400D01*
X14482331Y14907283D01*
X14482328Y14907277D01*
X14425752Y14696134D01*
X14425751Y14696127D01*
X14422926Y14663835D01*
X8240422Y14663835D01*
X8222542Y14776721D01*
X8222541Y14776725D01*
X8222541Y14776726D01*
X8152601Y14991979D01*
X8152599Y14991982D01*
X8132802Y15030837D01*
X8049845Y15193650D01*
X7916807Y15376761D01*
X7756761Y15536807D01*
X7573650Y15669845D01*
X7371981Y15772600D01*
X7371978Y15772602D01*
X7156723Y15842542D01*
X7007686Y15866148D01*
X6933169Y15877950D01*
X6706831Y15877950D01*
X6632313Y15866148D01*
X6483277Y15842542D01*
X6483274Y15842542D01*
X6268021Y15772602D01*
X6268018Y15772600D01*
X6066349Y15669845D01*
X5961878Y15593942D01*
X5883239Y15536807D01*
X5883237Y15536805D01*
X5883236Y15536805D01*
X5723195Y15376764D01*
X5723195Y15376763D01*
X5723193Y15376761D01*
X5679991Y15317298D01*
X5590155Y15193651D01*
X5487400Y14991982D01*
X5487398Y14991979D01*
X5417458Y14776726D01*
X5417458Y14776723D01*
X5389875Y14602575D01*
X5382050Y14553169D01*
X2542950Y14553169D01*
X2507542Y14776721D01*
X2507541Y14776725D01*
X2507541Y14776726D01*
X2437601Y14991979D01*
X2437599Y14991982D01*
X2417802Y15030837D01*
X2334845Y15193650D01*
X2201807Y15376761D01*
X2041761Y15536807D01*
X1858650Y15669845D01*
X1656981Y15772600D01*
X1656978Y15772602D01*
X1441723Y15842542D01*
X1292686Y15866148D01*
X1218169Y15877950D01*
X991831Y15877950D01*
X917313Y15866148D01*
X768277Y15842542D01*
X768274Y15842542D01*
X553021Y15772602D01*
X553018Y15772600D01*
X351349Y15669845D01*
X246878Y15593942D01*
X168239Y15536807D01*
X168237Y15536805D01*
X168236Y15536805D01*
X8195Y15376764D01*
X8195Y15376763D01*
X8193Y15376761D01*
X-35009Y15317298D01*
X-124845Y15193651D01*
X-227600Y14991982D01*
X-227602Y14991979D01*
X-297542Y14776726D01*
X-297542Y14776723D01*
X-325125Y14602575D01*
X-332950Y14553169D01*
X-3341245Y14553169D01*
X-3405622Y14602568D01*
X-3405628Y14602572D01*
X-3405632Y14602575D01*
X-3601648Y14715747D01*
X-3810759Y14802366D01*
X-3810766Y14802369D01*
X-4029377Y14860948D01*
X-4029391Y14860951D01*
X-4253791Y14890499D01*
X-4283725Y14890499D01*
X-4283755Y14890500D01*
X-4288137Y14890500D01*
X-4366961Y14890500D01*
X-4451097Y14890502D01*
X-4451098Y14890502D01*
X-4457862Y14890502D01*
X-4457898Y14890500D01*
X-7548847Y14890500D01*
X-7596555Y14881010D01*
X-7666147Y14887237D01*
X-7696228Y14904248D01*
X-7804469Y14987302D01*
X-7895770Y15040013D01*
X-7987066Y15092722D01*
X-7987070Y15092724D01*
X-8181869Y15173409D01*
X-8385522Y15227977D01*
X-8385536Y15227980D01*
X-8594566Y15255499D01*
X-8594571Y15255500D01*
X-8594576Y15255500D01*
X-8643982Y15255500D01*
X-11734181Y15255500D01*
X-11742090Y15255500D01*
X-11742305Y15255487D01*
X-11766451Y15255487D01*
X-11766452Y15255487D01*
X-11766456Y15255487D01*
X-11849068Y15244615D01*
X-11941564Y15232441D01*
X-12112168Y15186733D01*
X-12275353Y15119143D01*
X-12387318Y15054501D01*
X-12428306Y15030837D01*
X-12428309Y15030835D01*
X-12428312Y15030833D01*
X-12568426Y14923321D01*
X-12568429Y14923318D01*
X-12591262Y14900486D01*
X-12591263Y14900486D01*
X-12591263Y14900485D01*
X-12715023Y14776726D01*
X-12751561Y14740188D01*
X-12804304Y14708894D01*
X-12853478Y14694454D01*
X-12878924Y14678102D01*
X-12929769Y14659482D01*
X-12944124Y14657592D01*
X-12944149Y14657587D01*
X-13132088Y14607226D01*
X-13132092Y14607224D01*
X-13311859Y14532758D01*
X-13311871Y14532752D01*
X-13480372Y14435463D01*
X-13480385Y14435455D01*
X-13634743Y14317007D01*
X-13634753Y14316998D01*
X-13671607Y14280142D01*
X-13671608Y14280141D01*
X-13875682Y14076068D01*
X-13875754Y14075987D01*
X-13933119Y14018620D01*
X-14116586Y13795065D01*
X-14116596Y13795051D01*
X-14277262Y13554599D01*
X-14277268Y13554589D01*
X-14413598Y13299536D01*
X-14524275Y13032339D01*
X-14608223Y12755605D01*
X-14608228Y12755584D01*
X-14664648Y12471952D01*
X-14664650Y12471940D01*
X-14693000Y12184122D01*
X-14693000Y12039521D01*
X-14693001Y11968356D01*
X-14693000Y11968343D01*
X-14693000Y7439899D01*
X-14704206Y7388388D01*
X-14706044Y7384363D01*
X-14728431Y7335345D01*
X-14728432Y7335342D01*
X-14747890Y7200000D01*
X-22897367Y7200000D01*
X-22892002Y7218355D01*
X-22890443Y7223295D01*
X-22565806Y8181246D01*
X-22564032Y8186134D01*
X-22326573Y8800000D01*
X-19680390Y8800000D01*
X-19660932Y8664663D01*
X-19660930Y8664655D01*
X-19604133Y8540286D01*
X-19604128Y8540279D01*
X-19514591Y8436947D01*
X-19514587Y8436943D01*
X-19493259Y8423237D01*
X-19399561Y8363022D01*
X-19333964Y8343761D01*
X-19268368Y8324500D01*
X-19268367Y8324500D01*
X-19131633Y8324500D01*
X-19000439Y8363022D01*
X-18885411Y8436945D01*
X-18795870Y8540282D01*
X-18739069Y8664658D01*
X-18719610Y8800000D01*
X-18739069Y8935342D01*
X-18778548Y9021789D01*
X-18795868Y9059715D01*
X-18795873Y9059722D01*
X-18885410Y9163054D01*
X-18885414Y9163058D01*
X-19000441Y9236979D01*
X-19131632Y9275500D01*
X-19131633Y9275500D01*
X-19268367Y9275500D01*
X-19268368Y9275500D01*
X-19399560Y9236979D01*
X-19514587Y9163058D01*
X-19514591Y9163054D01*
X-19604128Y9059722D01*
X-19604133Y9059715D01*
X-19660930Y8935346D01*
X-19660932Y8935338D01*
X-19680390Y8800000D01*
X-22326573Y8800000D01*
X-22199017Y9129750D01*
X-22197298Y9133961D01*
X-21997350Y9598842D01*
X-21997351Y9598843D01*
X-21995186Y9603876D01*
X-22000000Y9629160D01*
X-22000000Y13820000D01*
X-19930390Y13820000D01*
X-19910932Y13684663D01*
X-19910930Y13684655D01*
X-19854133Y13560286D01*
X-19854128Y13560279D01*
X-19764591Y13456947D01*
X-19764587Y13456943D01*
X-19730770Y13435211D01*
X-19649561Y13383022D01*
X-19606162Y13370279D01*
X-19518368Y13344500D01*
X-19518367Y13344500D01*
X-19381633Y13344500D01*
X-19250439Y13383022D01*
X-19135411Y13456945D01*
X-19045870Y13560282D01*
X-19044909Y13562385D01*
X-19013054Y13632139D01*
X-18989069Y13684658D01*
X-18969610Y13820000D01*
X-18989069Y13955342D01*
X-19010860Y14003058D01*
X-19045868Y14079715D01*
X-19045873Y14079722D01*
X-19135410Y14183054D01*
X-19135414Y14183058D01*
X-19231278Y14244664D01*
X-19250439Y14256978D01*
X-19250440Y14256979D01*
X-19250441Y14256979D01*
X-19381632Y14295500D01*
X-19381633Y14295500D01*
X-19518367Y14295500D01*
X-19518368Y14295500D01*
X-19649560Y14256979D01*
X-19764587Y14183058D01*
X-19764591Y14183054D01*
X-19854128Y14079722D01*
X-19854133Y14079715D01*
X-19910930Y13955346D01*
X-19910932Y13955338D01*
X-19930390Y13820000D01*
X-22000000Y13820000D01*
X-22000000Y16546000D01*
X-21980315Y16613039D01*
X-21927511Y16658794D01*
X-21876000Y16670000D01*
X1755000Y16670000D01*
X1755000Y16762561D01*
X1774685Y16829600D01*
X1827489Y16875355D01*
X1878920Y16886561D01*
X6441923Y16889304D01*
X6508972Y16869661D01*
X6540948Y16840033D01*
X6564190Y16809257D01*
X6564190Y16809256D01*
X6728840Y16659158D01*
X6728842Y16659156D01*
X6918266Y16541870D01*
X6918267Y16541870D01*
X6918270Y16541868D01*
X7126025Y16461383D01*
X7345032Y16420443D01*
X7345034Y16420443D01*
X7567830Y16420443D01*
X7567832Y16420443D01*
X7786839Y16461383D01*
X7994594Y16541868D01*
X8184023Y16659157D01*
X8322127Y16785057D01*
X8384930Y16815673D01*
X8454318Y16807476D01*
X8508258Y16763066D01*
X8529626Y16696544D01*
X8529136Y16681978D01*
X8510287Y16478559D01*
X8510287Y16478557D01*
X8530843Y16256708D01*
X8591816Y16042415D01*
X8591823Y16042397D01*
X8691125Y15842971D01*
X8825396Y15665169D01*
X8990045Y15515072D01*
X8990047Y15515070D01*
X9179471Y15397784D01*
X9179472Y15397784D01*
X9179475Y15397782D01*
X9387230Y15317297D01*
X9606237Y15276357D01*
X9606239Y15276357D01*
X9829035Y15276357D01*
X9829037Y15276357D01*
X10048044Y15317297D01*
X10255799Y15397782D01*
X10445228Y15515071D01*
X10609879Y15665171D01*
X10744147Y15842969D01*
X10843457Y16042412D01*
X10904430Y16256707D01*
X10924987Y16478557D01*
X10904430Y16700407D01*
X10894838Y16734119D01*
X10895424Y16803986D01*
X10933691Y16862445D01*
X10997488Y16890936D01*
X11014017Y16892054D01*
X11389917Y16892280D01*
X11456967Y16872636D01*
X11485842Y16846946D01*
X11536634Y16785056D01*
X11570706Y16743539D01*
X11730557Y16612352D01*
X11730560Y16612350D01*
X11912927Y16514873D01*
X11912930Y16514873D01*
X11912934Y16514870D01*
X12110822Y16454841D01*
X12316619Y16434572D01*
X12522416Y16454841D01*
X12720304Y16514870D01*
X12778545Y16546000D01*
X12902677Y16612350D01*
X12902680Y16612352D01*
X12903517Y16613039D01*
X13062532Y16743539D01*
X13148311Y16848062D01*
X13206053Y16887394D01*
X13244081Y16893395D01*
X16990722Y16895648D01*
X17057772Y16876004D01*
G37*
%TD.AperFunction*%
%TD*%
M02*
